<?xml version="1.0" encoding="UTF-8" standalone="no"?>
<!-- Generator: Adobe Illustrator 27.5.0, SVG Export Plug-In . SVG Version: 6.00 Build 0)  -->

<svg
   version="1.1"
   x="0px"
   y="0px"
   viewBox="0 0 199 155"
   xml:space="preserve"
   id="svg247"
   sodipodi:docname="vacaciones-utiles.svg"
   inkscape:version="1.3.2 (091e20e, 2023-11-25, custom)"
   width="199"
   height="155"
   xmlns:inkscape="http://www.inkscape.org/namespaces/inkscape"
   xmlns:sodipodi="http://sodipodi.sourceforge.net/DTD/sodipodi-0.dtd"
   xmlns="http://www.w3.org/2000/svg"
   xmlns:svg="http://www.w3.org/2000/svg"><defs
   id="defs247">
	
	

		
		
		
		
		
		
		
		
		
		
		
		
		
	</defs><sodipodi:namedview
   id="namedview247"
   pagecolor="#ffffff"
   bordercolor="#000000"
   borderopacity="0.25"
   inkscape:showpageshadow="2"
   inkscape:pageopacity="0.0"
   inkscape:pagecheckerboard="true"
   inkscape:deskcolor="#d1d1d1"
   inkscape:zoom="3.284"
   inkscape:cx="132.30816"
   inkscape:cy="82.369062"
   inkscape:window-width="2560"
   inkscape:window-height="1017"
   inkscape:window-x="1912"
   inkscape:window-y="-8"
   inkscape:window-maximized="1"
   inkscape:current-layer="svg247" />

<g
   id="Background_Simple"
   style="display:none">
	<g
   style="display:inline"
   id="g41">
		<path
   style="fill:#407bff"
   d="m 241.936,74.075 c 7.832,-1.91 16.622,-1.622 26.341,1.643 15.617,5.247 27.043,19.004 34.173,33.856 13.796,28.739 17.651,60.899 27.547,90.911 2.714,8.23 5.923,16.453 11.228,23.305 22.071,28.507 82.754,12.137 82.176,62.137 -0.163,14.13 -7.771,27.655 -18.876,36.394 -32.69,25.724 -78.654,11.019 -113.588,-0.656 -32.732,-10.939 -61.068,-12.275 -93.872,0.819 -27.802,11.097 -56.895,29.991 -88.174,24.881 -31.807,-5.197 -46.032,-36.584 -40.707,-66.182 5.677,-31.551 30.416,-54.82 58.857,-67.405 16.966,-7.508 39.284,-12.096 52.582,-25.755 6.83,-7.015 9.803,-16.855 11.975,-26.402 3.458,-15.205 5.5,-30.795 10.651,-45.513 6.453,-18.439 19.682,-37.153 39.687,-42.033 z"
   id="path40" />
		<path
   style="opacity:0.9;fill:#ffffff"
   d="m 241.936,74.075 c 7.832,-1.91 16.622,-1.622 26.341,1.643 15.617,5.247 27.043,19.004 34.173,33.856 13.796,28.739 17.651,60.899 27.547,90.911 2.714,8.23 5.923,16.453 11.228,23.305 22.071,28.507 82.754,12.137 82.176,62.137 -0.163,14.13 -7.771,27.655 -18.876,36.394 -32.69,25.724 -78.654,11.019 -113.588,-0.656 -32.732,-10.939 -61.068,-12.275 -93.872,0.819 -27.802,11.097 -56.895,29.991 -88.174,24.881 -31.807,-5.197 -46.032,-36.584 -40.707,-66.182 5.677,-31.551 30.416,-54.82 58.857,-67.405 16.966,-7.508 39.284,-12.096 52.582,-25.755 6.83,-7.015 9.803,-16.855 11.975,-26.402 3.458,-15.205 5.5,-30.795 10.651,-45.513 6.453,-18.439 19.682,-37.153 39.687,-42.033 z"
   id="path41" />
	</g>
</g>





<g
   id="g12"
   transform="matrix(0.50905204,0,0,0.50905204,-23.404389,-49.471608)">
			<path
   style="fill:#f5f5f5"
   d="m 405.403,254.082 8.458,-8.458 V 216.01 h 10.022 v 29.613 l 8.458,8.458 c 1.361,1.361 0.397,3.688 -1.528,3.688 h -23.882 c -1.925,0.002 -2.889,-2.326 -1.528,-3.687 z"
   id="path9" />
			<g
   id="g11">
				
					<rect
   x="398.388"
   y="170.717"
   transform="rotate(180,399.83865,214.2439)"
   style="fill:#ebebeb"
   width="2.901"
   height="87.053001"
   id="rect9" />
				<rect
   x="310.388"
   y="194.981"
   style="fill:#ebebeb"
   width="2.901"
   height="62.790001"
   id="rect10" />
				<rect
   x="286.388"
   y="242.717"
   style="fill:#ebebeb"
   width="2.901"
   height="15.053"
   id="rect11" />
				<circle
   style="fill:#f5f5f5"
   cx="355.51801"
   cy="223.317"
   r="15.31"
   id="circle11" />
				<path
   style="fill:#f5f5f5"
   d="m 269.655,168.446 h 14.205 l -4.602,4.602 v 58.504 c 0,4.706 3.829,8.535 8.536,8.535 4.706,0 8.535,-3.829 8.535,-8.535 v -23.929 c 0,-8.364 6.805,-15.169 15.169,-15.169 8.364,0 15.169,6.805 15.169,15.169 v 4.898 c 0,4.574 3.721,8.295 8.296,8.295 h 18.056 V 197.13 c 0,-6.436 -5.235,-11.671 -11.671,-11.671 -9.193,0 -16.671,-7.479 -16.671,-16.671 v -6.826 l -4.602,-4.602 h 4.602 v -0.52 h 5 v 0.52 h 4.602 l -4.602,4.602 v 6.826 c 0,6.436 5.236,11.671 11.671,11.671 9.192,0 16.671,7.479 16.671,16.671 v 23.687 h 15.423 c 3.471,0 6.295,-2.824 6.295,-6.295 v -25.256 c 0,-11.48 9.339,-20.818 20.818,-20.818 11.479,0 20.818,9.339 20.818,20.818 v 11.652 h -5 v -11.652 c 0,-8.722 -7.096,-15.818 -15.818,-15.818 -8.722,0 -15.818,7.096 -15.818,15.818 v 25.256 c 0,6.228 -5.067,11.295 -11.295,11.295 h -38.479 c -7.331,0 -13.296,-5.964 -13.296,-13.295 v -4.898 c 0,-5.607 -4.562,-10.169 -10.169,-10.169 -5.607,0 -10.169,4.562 -10.169,10.169 v 23.929 c 0,7.463 -6.072,13.535 -13.535,13.535 -7.463,0 -13.536,-6.072 -13.536,-13.535 v -58.504 z"
   id="path11" />
			</g>
			<path
   style="fill:#ebebeb"
   d="m 344.368,249.537 h 21.279 c 1.854,0 3.357,1.503 3.357,3.357 v 4.877 h -27.992 v -4.877 c 0,-1.854 1.502,-3.357 3.356,-3.357 z"
   id="path12" />
		</g><g
   id="g51"
   transform="matrix(0.50905204,0,0,0.50905204,-21.404389,-49.471608)">
			<rect
   x="74.073997"
   y="161.946"
   style="fill:#f0f0f0"
   width="150.209"
   height="220.22701"
   id="rect12" />
			<g
   id="g22">
				<rect
   x="79.383003"
   y="168.87801"
   style="fill:#e0e0e0"
   width="139.59"
   height="40.674"
   id="rect13" />
				<rect
   x="79.383003"
   y="175.463"
   style="fill:#ebebeb"
   width="7.9299998"
   height="34.089001"
   id="rect14" />
				<rect
   x="117.726"
   y="175.463"
   style="fill:#ebebeb"
   width="7.9299998"
   height="34.089001"
   id="rect15" />
				
					<rect
   x="164.207"
   y="175.037"
   transform="matrix(0.9855,-0.1698,0.1698,0.9855,-30.1803,31.3533)"
   style="fill:#ebebeb"
   width="7.9299998"
   height="34.089001"
   id="rect16" />
				<rect
   x="89.209"
   y="179.955"
   style="fill:#ebebeb"
   width="7.9299998"
   height="29.597"
   id="rect17" />
				<rect
   x="107.435"
   y="179.955"
   style="fill:#ebebeb"
   width="7.9299998"
   height="29.597"
   id="rect18" />
				<rect
   x="153.44"
   y="179.955"
   style="fill:#ebebeb"
   width="7.9299998"
   height="29.597"
   id="rect19" />
				
					<rect
   x="131.44501"
   y="179.448"
   transform="matrix(0.9762,-0.2169,0.2169,0.9762,-38.9094,33.9959)"
   style="fill:#ebebeb"
   width="7.9299998"
   height="29.597"
   id="rect20" />
				<rect
   x="100.03"
   y="173.771"
   style="fill:#ebebeb"
   width="3.9649999"
   height="35.780998"
   id="rect21" />
				<rect
   x="147.196"
   y="173.771"
   style="fill:#ebebeb"
   width="3.9649999"
   height="35.780998"
   id="rect22" />
			</g>
			<g
   id="g36">
				
					<rect
   x="79.383003"
   y="215.992"
   transform="rotate(180,149.17805,236.32915)"
   style="fill:#e0e0e0"
   width="139.59"
   height="40.674"
   id="rect23" />
				
					<rect
   x="211.04401"
   y="222.577"
   transform="rotate(180,215.0084,239.62145)"
   style="fill:#ebebeb"
   width="7.9299998"
   height="34.089001"
   id="rect24" />
				
					<rect
   x="172.701"
   y="222.577"
   transform="rotate(180,176.6656,239.62145)"
   style="fill:#ebebeb"
   width="7.9299998"
   height="34.089001"
   id="rect25" />
				
					<rect
   x="126.22"
   y="222.151"
   transform="matrix(-0.9855,-0.1698,0.1698,-0.9855,217.8549,497.0262)"
   style="fill:#ebebeb"
   width="7.9299998"
   height="34.089001"
   id="rect26" />
				
					<rect
   x="201.218"
   y="227.069"
   transform="rotate(180,205.18295,241.86755)"
   style="fill:#ebebeb"
   width="7.9299998"
   height="29.597"
   id="rect27" />
				
					<rect
   x="182.992"
   y="227.069"
   transform="rotate(180,186.9566,241.86755)"
   style="fill:#ebebeb"
   width="7.9299998"
   height="29.597"
   id="rect28" />
				
					<rect
   x="136.987"
   y="227.069"
   transform="rotate(180,140.9515,241.86755)"
   style="fill:#ebebeb"
   width="7.9299998"
   height="29.597"
   id="rect29" />
				
					<rect
   x="158.981"
   y="226.562"
   transform="matrix(-0.9762,-0.2169,0.2169,-0.9762,269.6636,512.3164)"
   style="fill:#ebebeb"
   width="7.9299998"
   height="29.597"
   id="rect30" />
				
					<rect
   x="194.36099"
   y="220.88499"
   transform="rotate(180,196.34365,238.7752)"
   style="fill:#ebebeb"
   width="3.9649999"
   height="35.780998"
   id="rect31" />
				
					<rect
   x="147.196"
   y="220.88499"
   transform="rotate(180,149.1781,238.7752)"
   style="fill:#ebebeb"
   width="3.9649999"
   height="35.780998"
   id="rect32" />
				<rect
   x="79.383003"
   y="222.577"
   style="fill:#ebebeb"
   width="7.9299998"
   height="34.089001"
   id="rect33" />
				<rect
   x="89.209"
   y="227.069"
   style="fill:#ebebeb"
   width="7.9299998"
   height="29.597"
   id="rect34" />
				<rect
   x="107.435"
   y="227.069"
   style="fill:#ebebeb"
   width="7.9299998"
   height="29.597"
   id="rect35" />
				<rect
   x="100.03"
   y="220.88499"
   style="fill:#ebebeb"
   width="3.9649999"
   height="35.780998"
   id="rect36" />
			</g>
			<g
   id="g50">
				<rect
   x="79.383003"
   y="263.10599"
   style="fill:#e0e0e0"
   width="139.59"
   height="40.674"
   id="rect37" />
				<g
   id="g49">
					<rect
   x="159.50301"
   y="269.69101"
   style="fill:#ebebeb"
   width="7.9299998"
   height="34.089001"
   id="rect38" />
					
						<rect
   x="205.98399"
   y="269.26501"
   transform="matrix(0.9855,-0.1698,0.1698,0.9855,-45.5772,39.8179)"
   style="fill:#ebebeb"
   width="7.9299998"
   height="34.089001"
   id="rect39" />
					<rect
   x="130.98599"
   y="274.18301"
   style="fill:#ebebeb"
   width="7.9299998"
   height="29.597"
   id="rect40" />
					<rect
   x="149.21201"
   y="274.18301"
   style="fill:#ebebeb"
   width="7.9299998"
   height="29.597"
   id="rect41" />
					<rect
   x="195.217"
   y="274.18301"
   style="fill:#ebebeb"
   width="7.9299998"
   height="29.597"
   id="rect42" />
					
						<rect
   x="173.22301"
   y="273.67599"
   transform="matrix(0.9762,-0.2169,0.2169,0.9762,-58.3541,45.3016)"
   style="fill:#ebebeb"
   width="7.9299998"
   height="29.597"
   id="rect43" />
					<rect
   x="141.80701"
   y="267.99899"
   style="fill:#ebebeb"
   width="3.9649999"
   height="35.782001"
   id="rect44" />
					<rect
   x="188.97301"
   y="267.99899"
   style="fill:#ebebeb"
   width="3.9649999"
   height="35.782001"
   id="rect45" />
					
						<rect
   x="114.756"
   y="269.26501"
   transform="matrix(0.9855,-0.1698,0.1698,0.9855,-46.9026,24.3235)"
   style="fill:#ebebeb"
   width="7.9299998"
   height="34.089001"
   id="rect46" />
					<rect
   x="103.989"
   y="274.18301"
   style="fill:#ebebeb"
   width="7.9299998"
   height="29.597"
   id="rect47" />
					
						<rect
   x="81.995003"
   y="273.67599"
   transform="matrix(0.9762,-0.2169,0.2169,0.9762,-60.5261,25.5134)"
   style="fill:#ebebeb"
   width="7.9299998"
   height="29.597"
   id="rect48" />
					<rect
   x="97.745003"
   y="267.99899"
   style="fill:#ebebeb"
   width="3.9649999"
   height="35.782001"
   id="rect49" />
				</g>
			</g>
			
				<rect
   x="48.159"
   y="161.946"
   transform="rotate(180,61.11645,272.34815)"
   style="fill:#e0e0e0"
   width="25.914"
   height="220.804"
   id="rect50" />
		</g><g
   id="g52"
   transform="matrix(0.50905204,0,0,0.50905204,-31.404389,-49.471608)">
			<polygon
   style="fill:#e0e0e0"
   points="322.817,382.75 322.817,257.74 449.965,257.74 449.965,382.75 443.554,382.75 443.554,270.561 330.297,270.561 330.297,382.75 "
   id="polygon51" />
			<polygon
   style="fill:#f5f5f5"
   points="252.299,382.75 252.299,257.74 379.446,257.74 379.446,382.75 373.035,382.75 373.035,270.561 259.778,270.561 259.778,382.75 "
   id="polygon52" />
		</g><g
   id="g53"
   transform="matrix(0.50905204,0,0,0.50905204,-33.889164,-32.72374)">
			
				<circle
   transform="matrix(0.9623,-0.2719,0.2719,0.9623,-16.721,71.0903)"
   style="fill:#e0e0e0"
   cx="248.12399"
   cy="95.872002"
   id="ellipse52"
   r="23.554001" />
			
				<circle
   transform="matrix(0.0924,-0.9957,0.9957,0.0924,129.7342,334.0761)"
   style="fill:#f0f0f0"
   cx="248.12399"
   cy="95.872002"
   id="ellipse53"
   r="20.027" />
			
				<polyline
   style="fill:#f0f0f0;stroke:#e0e0e0;stroke-width:2;stroke-linecap:round;stroke-linejoin:round;stroke-miterlimit:10"
   points="     244.236,109.083 249.101,95.956 255.976,104.103    "
   id="polyline53" />
		</g><polyline
   style="fill:none;stroke:#ebebeb;stroke-width:2;stroke-miterlimit:10"
   points="121.978,161.946 121.978,137.549     146.473,137.549 146.473,161.946   "
   id="polyline54"
   transform="matrix(0.50905204,0,0,0.50905204,-21.404389,-49.471608)" /><line
   style="fill:none;stroke:#ebebeb;stroke-width:0.509052;stroke-miterlimit:10"
   x1="43.491093"
   y1="20.547989"
   x2="43.491093"
   y2="29.834118"
   id="line54" /><path
   style="fill:#ebebeb;stroke-width:0.509052"
   d="m 44.330519,29.834118 c 0,0.463238 -0.37568,0.838918 -0.838918,0.838918 -0.463237,0 -0.838917,-0.37568 -0.838917,-0.838918 0,-0.463237 0.37568,-0.838917 0.838917,-0.838917 0.463238,0 0.838918,0.37568 0.838918,0.838917 z"
   id="path54" /><line
   style="fill:none;stroke:#ebebeb;stroke-width:0.509052;stroke-miterlimit:10"
   x1="45.527805"
   y1="20.547989"
   x2="45.527805"
   y2="29.834118"
   id="line55" /><path
   style="fill:#ebebeb;stroke-width:0.509052"
   d="m 46.366727,29.834118 c 0,0.463238 -0.37568,0.838918 -0.838918,0.838918 -0.463237,0 -0.838917,-0.37568 -0.838917,-0.838918 0,-0.463237 0.37568,-0.838917 0.838917,-0.838917 0.463238,0 0.838918,0.37568 0.838918,0.838917 z"
   id="path55" /><line
   style="fill:none;stroke:#ebebeb;stroke-width:0.509052;stroke-miterlimit:10"
   x1="47.564014"
   y1="20.547989"
   x2="47.564014"
   y2="29.834118"
   id="line56" /><path
   style="fill:#ebebeb;stroke-width:0.509052"
   d="m 48.402935,29.834118 c 0,0.463238 -0.37568,0.838918 -0.838917,0.838918 -0.463238,0 -0.838918,-0.37568 -0.838918,-0.838918 0,-0.463237 0.37568,-0.838917 0.838918,-0.838917 0.463237,0 0.838917,0.37568 0.838917,0.838917 z"
   id="path56" /><g
   id="g57"
   transform="matrix(0.50905204,0,0,0.50905204,-21.404389,-49.471608)">
			<line
   style="fill:none;stroke:#ebebeb;stroke-miterlimit:10"
   x1="139.48399"
   y1="137.549"
   x2="139.48399"
   y2="155.791"
   id="line57" />
			<path
   style="fill:#ebebeb"
   d="m 141.132,155.791 c 0,0.91 -0.738,1.648 -1.648,1.648 -0.91,0 -1.648,-0.738 -1.648,-1.648 0,-0.91 0.738,-1.648 1.648,-1.648 0.91,0 1.648,0.738 1.648,1.648 z"
   id="path57" />
		</g><g
   id="g58"
   transform="matrix(0.50905204,0,0,0.50905204,-21.404389,-49.471608)">
			<line
   style="fill:none;stroke:#ebebeb;stroke-miterlimit:10"
   x1="142.2"
   y1="137.78799"
   x2="150.40601"
   y2="154.08"
   id="line58" />
			<path
   style="fill:#ebebeb"
   d="m 151.878,153.339 c 0.41,0.813 0.082,1.804 -0.731,2.214 -0.813,0.41 -1.804,0.082 -2.214,-0.731 -0.41,-0.813 -0.082,-1.804 0.731,-2.214 0.813,-0.41 1.805,-0.083 2.214,0.731 z"
   id="path58" />
		</g><g
   id="Shadow_1_"
   transform="matrix(0.43657945,0,0,0.43657945,-2.8294807,-32.557173)">
	<ellipse
   id="_x3C_Path_x3E__359_"
   style="fill:#f5f5f5"
   cx="250"
   cy="416.23801"
   rx="193.88901"
   ry="11.323" />
</g><g
   id="Trash_bin"
   transform="matrix(0.43657945,0,0,0.43657945,-2.8294807,-32.557173)">
	<g
   id="g66">
		<g
   id="g62">
			<path
   style="fill:#407bff"
   d="m 382.882,392.568 c -1.01,-1.694 0.414,-4.244 2.386,-4.273 -0.864,-2.431 -0.012,-5.37 2.02,-6.962 0.256,-0.201 0.551,-0.389 0.876,-0.389 0.349,-0.001 0.658,0.212 0.942,0.415 1.858,1.335 3.717,2.67 5.575,4.005 0.425,0.306 0.866,0.629 1.106,1.094 1.139,2.208 -2.968,5.037 -1.279,6.858 0.485,0.523 1.266,0.631 1.871,1.009 1.327,0.829 1.487,2.651 2.105,4.088 0.618,1.437 2.774,2.553 3.599,1.223 -0.609,-1.379 1.234,-2.567 2.731,-2.742 1.477,-0.173 3.06,-0.257 3.887,-1.661 2.124,1.856 6.879,-3.323 6.77,-5.411 1.746,0.133 2.935,1.768 3.317,3.403 0.396,1.697 0.151,3.465 0.179,5.204 0.054,3.381 1.145,6.693 1.085,10.074 -0.046,2.631 -1.063,5.552 -3.472,6.611 -1.159,0.509 -2.469,0.51 -3.736,0.502 -9.143,-0.059 -18.286,-0.117 -27.429,-0.176 -0.658,-0.004 -1.345,-0.015 -1.929,-0.32 -1.238,-0.646 -1.499,-2.271 -1.614,-3.663 -0.491,-5.959 -0.982,-11.918 -1.473,-17.877 0.829,-0.336 1.656,-0.674 2.483,-1.012 z"
   id="path61" />
			<path
   style="opacity:0.3;fill:#ffffff;enable-background:new"
   d="m 382.882,392.568 c -1.01,-1.694 0.414,-4.244 2.386,-4.273 -0.864,-2.431 -0.012,-5.37 2.02,-6.962 0.256,-0.201 0.551,-0.389 0.876,-0.389 0.349,-0.001 0.658,0.212 0.942,0.415 1.858,1.335 3.717,2.67 5.575,4.005 0.425,0.306 0.866,0.629 1.106,1.094 1.139,2.208 -2.968,5.037 -1.279,6.858 0.485,0.523 1.266,0.631 1.871,1.009 1.327,0.829 1.487,2.651 2.105,4.088 0.618,1.437 2.774,2.553 3.599,1.223 -0.609,-1.379 1.234,-2.567 2.731,-2.742 1.477,-0.173 3.06,-0.257 3.887,-1.661 2.124,1.856 6.879,-3.323 6.77,-5.411 1.746,0.133 2.935,1.768 3.317,3.403 0.396,1.697 0.151,3.465 0.179,5.204 0.054,3.381 1.145,6.693 1.085,10.074 -0.046,2.631 -1.063,5.552 -3.472,6.611 -1.159,0.509 -2.469,0.51 -3.736,0.502 -9.143,-0.059 -18.286,-0.117 -27.429,-0.176 -0.658,-0.004 -1.345,-0.015 -1.929,-0.32 -1.238,-0.646 -1.499,-2.271 -1.614,-3.663 -0.491,-5.959 -0.982,-11.918 -1.473,-17.877 0.829,-0.336 1.656,-0.674 2.483,-1.012 z"
   id="path62" />
		</g>
		<g
   id="g65">
			<g
   id="g63">
				<path
   style="fill:#407bff"
   d="m 376.491,363.576 0.35,4.3 0.25,3.07 0.64,8 0.37,4.58 0.5,6.11 0.21,2.62 0.06,0.78 0.25,3.07 0.34,4.23 0.21,2.62 0.22,2.65 0.25,3.08 0.19,2.35 0.21,2.61 0.09,1.14 h 5.61 4.73 6.83 4.73 6.83 4.73 5.6 l 0.09,-1.14 0.21,-2.62 0.19,-2.33 0.25,-3.08 0.22,-2.66 0.21,-2.62 0.34,-4.22 0.25,-3.08 0.07,-0.78 0.21,-2.62 0.49,-6.11 0.37,-4.59 0.65,-7.99 0.25,-3.07 0.35,-4.3 h -4.79 -3.09 -8.47 -3.09 -8.47 -3.09 -8.48 -3.08 z m 2.16,2 h 0.89 l -0.82,0.82 v 0 z m 3.71,0 h 0.92 l 3.91,3.91 -4.37,4.37 -3.81,-3.81 -0.08,-1.04 z m -2.56,14.13 3.02,-3.02 4.37,4.36 -4.37,4.37 -2.79,-2.79 z m 40.49,2.92 -2.78,2.79 -4.37,-4.37 4.37,-4.36 3.02,3.02 v 0 z m -31.69,-11.73 4.37,4.37 -4.37,4.37 -4.37,-4.37 z m 0,-2.82 -2.5,-2.5 h 5 z m 5.78,8.61 4.37,4.36 -4.37,4.37 -4.36,-4.37 z m 5.78,14.51 -4.36,-4.37 4.36,-4.36 4.37,4.36 z m 5.78,-2.95 4.37,4.37 -4.36,4.36 -4.37,-4.37 z m -7.19,4.36 -4.37,4.37 -4.36,-4.36 4.36,-4.37 z m -2.95,-17.34 4.36,-4.37 4.37,4.37 -4.37,4.37 z m 10.14,1.42 4.37,4.36 -4.37,4.37 -4.36,-4.37 z m 1.42,-1.42 4.37,-4.37 4.36,4.37 -4.36,4.37 z m 8.73,11.56 -4.36,4.37 -4.37,-4.37 4.37,-4.36 z m -4.36,7.2 4.36,4.37 -4.36,4.36 -4.37,-4.36 z m -1.42,10.15 -4.37,4.37 -4.36,-4.37 4.37,-4.37 z m -10.15,-1.42 -4.36,-4.36 4.36,-4.37 4.37,4.37 z m -1.41,1.42 -4.37,4.37 -4.36,-4.37 4.36,-4.37 z m -5.78,5.78 -2.83,2.83 h -3.08 l -2.83,-2.83 4.37,-4.37 z m -4.37,-7.2 -4.37,-4.36 4.37,-4.37 4.37,4.37 z m 0,-11.56 -4.37,-4.37 4.37,-4.36 4.37,4.36 z m 5.32,-25.62 h 0.92 l 3.91,3.91 -4.37,4.37 -4.36,-4.37 z m 3.75,0 h 4.99 l -2.5,2.5 z m 7.81,0 h 0.92 l 3.91,3.91 -4.37,4.37 -4.36,-4.37 z m 8.74,0 -2.49,2.5 -2.5,-2.5 z m 3.75,0 3.42,3.43 -0.08,1.04 -3.8,3.81 -4.37,-4.37 3.91,-3.91 z m 3.7,0 -0.07,0.81 v 0 l -0.81,-0.81 z m -0.93,11.51 -1.82,-1.82 2.14,-2.14 z m -0.87,10.69 -0.95,-0.95 1.12,-1.12 v 0 z m -0.6,7.44 -1.76,1.76 -4.37,-4.36 4.37,-4.37 2.15,2.16 z m -0.26,3.27 -0.09,-0.09 0.1,-0.1 z m -0.76,9.31 -0.74,0.74 -4.37,-4.36 4.37,-4.37 1.29,1.29 z m -2.16,4.99 1.42,-1.42 0.42,0.42 -0.08,1 z m -2.82,0 h -3.08 l -2.83,-2.83 4.37,-4.37 4.36,4.37 z m -8.75,0 1.42,-1.42 1.42,1.42 z m -5.9,0 -2.82,-2.83 4.36,-4.37 4.37,4.37 -2.83,2.83 z m -5.66,0 1.42,-1.42 1.42,1.42 z m -10.56,-1 0.42,-0.42 1.42,1.42 h -1.76 z m -0.87,-10.69 1.29,-1.29 4.37,4.37 -4.37,4.36 -0.75,-0.74 z m -0.23,-2.81 0.11,0.11 -0.09,0.09 z m -0.64,-7.88 2.16,-2.16 4.37,4.37 -4.37,4.36 -1.77,-1.76 z m -0.38,-4.7 1.13,1.12 -0.96,0.96 z m -1.02,-12.59 2.15,2.15 -1.83,1.83 z"
   id="path63" />
			</g>
			<g
   style="opacity:0.6;enable-background:new"
   id="g64">
				<path
   style="fill:#ffffff"
   d="m 376.491,363.576 0.35,4.3 0.25,3.07 0.64,8 0.37,4.58 0.5,6.11 0.21,2.62 0.06,0.78 0.25,3.07 0.34,4.23 0.21,2.62 0.22,2.65 0.25,3.08 0.19,2.35 0.21,2.61 0.09,1.14 h 5.61 4.73 6.83 4.73 6.83 4.73 5.6 l 0.09,-1.14 0.21,-2.62 0.19,-2.33 0.25,-3.08 0.22,-2.66 0.21,-2.62 0.34,-4.22 0.25,-3.08 0.07,-0.78 0.21,-2.62 0.49,-6.11 0.37,-4.59 0.65,-7.99 0.25,-3.07 0.35,-4.3 h -4.79 -3.09 -8.47 -3.09 -8.47 -3.09 -8.48 -3.08 z m 2.16,2 h 0.89 l -0.82,0.82 v 0 z m 3.71,0 h 0.92 l 3.91,3.91 -4.37,4.37 -3.81,-3.81 -0.08,-1.04 z m -2.56,14.13 3.02,-3.02 4.37,4.36 -4.37,4.37 -2.79,-2.79 z m 40.49,2.92 -2.78,2.79 -4.37,-4.37 4.37,-4.36 3.02,3.02 v 0 z m -31.69,-11.73 4.37,4.37 -4.37,4.37 -4.37,-4.37 z m 0,-2.82 -2.5,-2.5 h 5 z m 5.78,8.61 4.37,4.36 -4.37,4.37 -4.36,-4.37 z m 5.78,14.51 -4.36,-4.37 4.36,-4.36 4.37,4.36 z m 5.78,-2.95 4.37,4.37 -4.36,4.36 -4.37,-4.37 z m -7.19,4.36 -4.37,4.37 -4.36,-4.36 4.36,-4.37 z m -2.95,-17.34 4.36,-4.37 4.37,4.37 -4.37,4.37 z m 10.14,1.42 4.37,4.36 -4.37,4.37 -4.36,-4.37 z m 1.42,-1.42 4.37,-4.37 4.36,4.37 -4.36,4.37 z m 8.73,11.56 -4.36,4.37 -4.37,-4.37 4.37,-4.36 z m -4.36,7.2 4.36,4.37 -4.36,4.36 -4.37,-4.36 z m -1.42,10.15 -4.37,4.37 -4.36,-4.37 4.37,-4.37 z m -10.15,-1.42 -4.36,-4.36 4.36,-4.37 4.37,4.37 z m -1.41,1.42 -4.37,4.37 -4.36,-4.37 4.36,-4.37 z m -5.78,5.78 -2.83,2.83 h -3.08 l -2.83,-2.83 4.37,-4.37 z m -4.37,-7.2 -4.37,-4.36 4.37,-4.37 4.37,4.37 z m 0,-11.56 -4.37,-4.37 4.37,-4.36 4.37,4.36 z m 5.32,-25.62 h 0.92 l 3.91,3.91 -4.37,4.37 -4.36,-4.37 z m 3.75,0 h 4.99 l -2.5,2.5 z m 7.81,0 h 0.92 l 3.91,3.91 -4.37,4.37 -4.36,-4.37 z m 8.74,0 -2.49,2.5 -2.5,-2.5 z m 3.75,0 3.42,3.43 -0.08,1.04 -3.8,3.81 -4.37,-4.37 3.91,-3.91 z m 3.7,0 -0.07,0.81 v 0 l -0.81,-0.81 z m -0.93,11.51 -1.82,-1.82 2.14,-2.14 z m -0.87,10.69 -0.95,-0.95 1.12,-1.12 v 0 z m -0.6,7.44 -1.76,1.76 -4.37,-4.36 4.37,-4.37 2.15,2.16 z m -0.26,3.27 -0.09,-0.09 0.1,-0.1 z m -0.76,9.31 -0.74,0.74 -4.37,-4.36 4.37,-4.37 1.29,1.29 z m -2.16,4.99 1.42,-1.42 0.42,0.42 -0.08,1 z m -2.82,0 h -3.08 l -2.83,-2.83 4.37,-4.37 4.36,4.37 z m -8.75,0 1.42,-1.42 1.42,1.42 z m -5.9,0 -2.82,-2.83 4.36,-4.37 4.37,4.37 -2.83,2.83 z m -5.66,0 1.42,-1.42 1.42,1.42 z m -10.56,-1 0.42,-0.42 1.42,1.42 h -1.76 z m -0.87,-10.69 1.29,-1.29 4.37,4.37 -4.37,4.36 -0.75,-0.74 z m -0.23,-2.81 0.11,0.11 -0.09,0.09 z m -0.64,-7.88 2.16,-2.16 4.37,4.37 -4.37,4.36 -1.77,-1.76 z m -0.38,-4.7 1.13,1.12 -0.96,0.96 z m -1.02,-12.59 2.15,2.15 -1.83,1.83 z"
   id="path64" />
			</g>
		</g>
		<path
   style="fill:#407bff"
   d="m 424.923,367.359 h -49.516 c -0.908,0 -1.643,-0.736 -1.643,-1.643 v -2.281 c 0,-0.907 0.736,-1.643 1.643,-1.643 h 49.516 c 0.908,0 1.643,0.736 1.643,1.643 v 2.281 c 0,0.908 -0.735,1.643 -1.643,1.643 z"
   id="path65" />
		<path
   style="fill:#407bff"
   d="m 379.214,417.359 h 41.901 c 0.908,0 1.643,-0.736 1.643,-1.643 v -2.281 c 0,-0.907 -0.736,-1.643 -1.643,-1.643 h -41.901 c -0.908,0 -1.643,0.736 -1.643,1.643 v 2.281 c 0,0.908 0.736,1.643 1.643,1.643 z"
   id="path66" />
	</g>
</g><g
   id="Character"
   transform="matrix(0.43657945,0,0,0.43657945,-2.8294807,-32.557173)">
	<g
   id="g78">
		<polygon
   style="fill:#263238"
   points="335.328,345.929 335.688,330.359 326.288,330.359 326.648,345.929 328.288,417.359 333.698,417.359 "
   id="polygon66" />
		<polygon
   style="opacity:0.4;fill:#ffffff;enable-background:new"
   points="335.328,345.929 335.688,330.359 326.288,330.359 326.648,345.929 328.288,417.359 333.698,417.359 "
   id="polygon67" />
		<polygon
   style="opacity:0.2;enable-background:new"
   points="335.328,346.359 335.688,330.359 326.288,330.359 326.648,346.359 "
   id="polygon68" />
		<g
   id="g75">
			<g
   id="g71">
				<polygon
   style="fill:#263238"
   points="310.077,331.46 303.08,417.109 296.909,417.109 301.907,331.46 "
   id="polygon69" />
				<polygon
   style="opacity:0.5;fill:#ffffff;enable-background:new"
   points="310.074,331.359 309.443,339.059 303.094,417.109 296.918,417.109 301.454,339.059 301.903,331.359 "
   id="polygon70" />
				<polygon
   style="opacity:0.2;enable-background:new"
   points="301.453,339.359 301.903,331.359 310.074,331.359 309.444,339.359 "
   id="polygon71" />
			</g>
			<g
   id="g74">
				<polygon
   style="fill:#263238"
   points="360.073,331.46 365.071,417.109 358.9,417.109 351.903,331.46 "
   id="polygon72" />
				<polygon
   style="opacity:0.5;fill:#ffffff;enable-background:new"
   points="360.527,339.059 365.062,417.109 358.886,417.109 352.537,339.059 351.906,331.359 360.077,331.359 "
   id="polygon73" />
				<polygon
   style="opacity:0.2;enable-background:new"
   points="360.526,339.359 360.077,331.359 351.906,331.359 352.536,339.359 "
   id="polygon74" />
			</g>
		</g>
		<path
   style="fill:#263238"
   d="m 302.53,322.693 h 56.921 c 2.761,0 5,2.239 5,5 v 6.689 H 297.53 v -6.689 c 0,-2.762 2.238,-5 5,-5 z"
   id="path75" />
		<g
   id="g77">
			<path
   style="fill:#263238"
   d="m 296.335,328.537 h 69.311 c 1.111,0 2.011,0.9 2.011,2.011 v 1.822 c 0,1.111 -0.901,2.011 -2.011,2.011 h -69.311 c -1.111,0 -2.011,-0.9 -2.011,-2.011 v -1.822 c -0.001,-1.11 0.9,-2.011 2.011,-2.011 z"
   id="path76" />
			<path
   style="opacity:0.6;fill:#ffffff;enable-background:new"
   d="m 296.335,328.537 h 69.311 c 1.111,0 2.011,0.9 2.011,2.011 v 1.822 c 0,1.111 -0.901,2.011 -2.011,2.011 h -69.311 c -1.111,0 -2.011,-0.9 -2.011,-2.011 v -1.822 c -0.001,-1.11 0.9,-2.011 2.011,-2.011 z"
   id="path77" />
		</g>
	</g>
	<g
   id="_x3C_Group_x3E__89_">
		<g
   id="g81">
			<path
   style="fill:#ebb376"
   d="m 233.879,227.997 -9.063,-9.932 c 0,0 -0.426,-3.568 -2.077,-4.335 -1.651,-0.766 -11.937,-6.457 -13.519,-4.271 -1.582,2.186 -5.011,7.47 -3.956,9.312 1.055,1.841 9.099,4.269 10.418,4.176 1.319,-0.093 4.747,0 4.747,0 l 7.385,11.247 z"
   id="path78" />
			<path
   style="fill:#407bff"
   d="m 274.846,229.057 c -10.786,7.073 -23.973,11.812 -27.27,9.97 -3.297,-1.842 -18.177,-17.664 -18.177,-17.664 l -8.179,4.951 c 0,0 13.11,23.403 20.818,27.556 7.708,4.153 43.684,-9.157 43.684,-9.157 z"
   id="path79" />
			<path
   style="opacity:0.7;fill:#ffffff;enable-background:new"
   d="m 285.72,244.71 c 0,0 -10.58,3.91 -21.5,6.84 -9.21,2.46 -18.65,4.22 -22.18,2.32 -7.71,-4.15 -20.82,-27.55 -20.82,-27.55 l 8.18,-4.96 c 0,0 14.88,15.83 18.18,17.67 3.29,1.84 16.48,-2.9 27.27,-9.97 l 4.85,6.98 z"
   id="path80" />
			<polygon
   style="fill:#407bff"
   points="223.839,232.888 219.915,227.865 228.95,218.771 232.471,223.44 "
   id="polygon80" />
			<polygon
   style="opacity:0.6;fill:#ffffff;enable-background:new"
   points="223.839,232.888 219.915,227.865 228.95,218.771 232.471,223.44 "
   id="polygon81" />
			<path
   style="opacity:0.2;enable-background:new"
   d="m 285.72,244.71 c 0,0 -10.58,3.91 -21.5,6.84 4.74,-7.34 11.67,-12.83 15.48,-15.51 z"
   id="path81" />
		</g>
		<g
   id="g83">
			<path
   style="fill:#407bff"
   d="m 303.374,213.73 c -5.595,1.408 -14.244,9.707 -13.776,15.189 0.468,5.482 -1.081,18.526 3.875,35.835 4.956,17.309 2.253,40.122 2.253,40.122 l 49.385,7.846 c -10e-4,0 -17.803,-105.017 -41.737,-98.992 z"
   id="path82" />
			<path
   style="opacity:0.4;fill:#ffffff;enable-background:new"
   d="m 303.374,213.73 c -5.595,1.408 -14.244,9.707 -13.776,15.189 0.468,5.482 -1.081,18.526 3.875,35.835 4.956,17.309 2.253,40.122 2.253,40.122 l 49.385,7.846 c -10e-4,0 -17.803,-105.017 -41.737,-98.992 z"
   id="path83" />
		</g>
		<polygon
   style="fill:#ebb376"
   points="297.56,390.109 305.515,391.211 306.63,410.139 298.664,409.045 "
   id="polygon83" />
		<polygon
   style="opacity:0.2;enable-background:new"
   points="298.192,400.943 306.137,401.641 305.515,391.211 297.559,390.119 "
   id="polygon84" />
		<path
   style="fill:#407bff"
   d="m 306.31,298.82 1.944,-12.176 44.66,-2.671 c 0,0 4.749,25.337 1.1,32.087 -6.514,12.051 -41.618,5.969 -51.89,7.154 6.14,25.11 5.54,74.18 5.54,74.18 l -14.67,1.12 c 0,0 -11.288,-52.876 -13.57,-78 -1.54,-16.954 12.507,-16.532 26.886,-21.694 z"
   id="path84" />
		<polygon
   style="fill:#407bff"
   points="290.244,391.694 309.614,390.794 309.384,398.084 291.754,399.244 "
   id="polygon85" />
		<polygon
   style="fill:#ebb376"
   points="275.21,385.366 283.22,384.787 288.253,403.067 280.234,403.657 "
   id="polygon86" />
		<g
   id="g86">
			<path
   style="fill:#407bff"
   d="m 279.15,403.931 c 0,-0.008 -0.134,-0.014 -0.135,-0.023 0,0 -0.144,-0.007 -0.144,-0.008 0,-10e-4 0,-10e-4 0,-0.002 0,-0.001 0.142,-0.001 0.142,-0.002 -0.029,-0.12 -0.407,-2.365 -1.381,-2.899 -0.262,-0.135 -0.533,-0.148 -0.805,-0.035 -0.315,0.099 -0.504,0.399 -0.485,0.728 0.035,0.501 0.572,1.128 1.184,1.627 -0.84,-0.178 -1.793,-0.278 -2.248,0.061 -0.193,0.149 -0.294,0.386 -0.272,0.629 -0.03,0.385 0.167,0.753 0.503,0.945 0.504,0.187 1.061,0.178 1.56,-0.025 0.683,-0.208 1.34,-0.491 1.962,-0.842 0.023,0.003 0.048,0.003 0.068,-0.009 0.016,-0.016 0.012,-0.042 0.022,-0.062 0.017,-0.024 0.026,-0.052 0.029,-0.083 z m -2.408,-2.239 c -0.014,-0.109 0.018,-0.254 0.268,-0.356 l 0.087,-0.031 c 0.145,-0.042 0.301,-0.022 0.43,0.057 0.583,0.312 0.987,1.524 1.175,2.262 -0.056,-0.018 -0.113,-0.035 -0.18,-0.055 -0.79,-0.435 -1.712,-1.336 -1.78,-1.877 z m -1.052,2.935 c -0.202,-0.134 -0.319,-0.364 -0.308,-0.606 -0.013,-0.119 0.037,-0.236 0.133,-0.309 0.451,-0.339 1.919,-0.05 2.977,0.27 -1.309,0.658 -2.336,0.898 -2.802,0.645 z"
   id="path86" />
		</g>
		<polygon
   style="opacity:0.2;enable-background:new"
   points="278.085,395.831 286.001,394.858 283.22,384.787 275.211,385.376 "
   id="polygon87" />
		<path
   style="fill:#407bff"
   d="m 272.494,394.54 14.12,-4.15 c 0,0 -8.43,-47.58 -16.98,-64.08 0.64,-0.21 1.49,-0.48 2.54,-0.79 1.89,-0.57 4.4,-1.28 7.35,-2.1 20.52,-5.69 62.11,-16.36 62.11,-16.36 l -19,-17.73 c 0,0 -75.68,11.54 -77.25,31.48 -0.75,9.59 27.11,73.73 27.11,73.73 z"
   id="path87" />
		<polygon
   style="fill:#407bff"
   points="268.384,388.44 287.142,383.525 288.436,390.703 271.434,395.51 "
   id="polygon88" />
		<path
   style="opacity:0.2;enable-background:new"
   d="m 272.174,325.52 c 1.89,-0.57 4.4,-1.28 7.35,-2.1 -0.59,-4.84 -0.6,-10.39 1.73,-13.22 4.63,-5.64 16.54,-8.95 23.32,-10.15 5.67,-1 24.72,-2.99 24.72,-2.99 0,0 -24.72,-2.37 -49.99,5 -12.49,3.65 -10.06,15.86 -7.13,23.46 z"
   id="path88" />
		<polygon
   style="opacity:0.2;fill:#ffffff"
   points="290.244,391.694 309.614,390.794 309.384,398.084 291.754,399.244 "
   id="polygon89" />
		<polygon
   style="opacity:0.2;fill:#ffffff"
   points="268.384,388.44 287.142,383.525 288.436,390.703 271.434,395.51 "
   id="polygon90" />
		<path
   style="fill:#263238"
   d="m 279.447,402.844 8.685,-2.424 c 0.299,-0.098 0.621,0.065 0.719,0.364 10e-4,0.003 0.002,0.006 0.003,0.009 l 2.343,6.76 c 0.209,0.749 -0.223,1.527 -0.97,1.745 -3.044,0.796 -4.538,1.025 -8.368,2.061 -2.348,0.648 -6.926,2.152 -10.274,2.533 -3.349,0.381 -3.635,-2.939 -2.252,-3.395 3.278,-1.098 7.202,-4.515 8.906,-6.836 0.301,-0.399 0.726,-0.687 1.208,-0.817 z"
   id="path90" />
		<g
   id="g91">
			<path
   style="fill:#407bff"
   d="m 297.87,409.059 c 0,0 0,-0.001 0,-0.002 0,-0.002 0,-0.004 0,-0.006 0,-0.14 -0.135,-2.411 -0.972,-3.134 -0.228,-0.186 -0.604,-0.263 -0.893,-0.21 -0.329,0.031 -0.633,0.282 -0.682,0.608 -0.071,0.498 0.296,1.221 0.791,1.836 -0.784,-0.349 -1.71,-0.646 -2.226,-0.41 -0.22,0.105 -0.376,0.316 -0.403,0.558 -0.109,0.371 0.003,0.771 0.292,1.029 0.455,0.288 0.999,0.395 1.529,0.301 0.711,-0.061 1.412,-0.202 2.093,-0.414 0.022,0.008 0.045,0.012 0.068,0.006 0.019,-0.013 0.02,-0.038 0.034,-0.056 0.023,-0.02 0.193,-0.046 0.202,-0.076 0.002,-0.008 0.168,-0.012 0.168,-0.021 -10e-4,-0.002 -10e-4,-0.008 -10e-4,-0.009 z m -2.212,-2.663 c 0.009,-0.11 0.071,-0.245 0.336,-0.293 l 0.091,-0.012 c 0.151,-0.011 0.299,0.042 0.409,0.145 0.505,0.426 0.648,1.696 0.678,2.457 -0.051,-0.029 -0.104,-0.058 -0.165,-0.092 -0.681,-0.589 -1.395,-1.661 -1.349,-2.205 z m -1.64,2.651 c -0.17,-0.173 -0.236,-0.423 -0.175,-0.657 0.012,-0.12 0.085,-0.224 0.194,-0.275 0.512,-0.238 1.887,0.351 2.855,0.884 -1.416,0.372 -2.472,0.393 -2.874,0.048 z"
   id="path91" />
		</g>
		<path
   style="fill:#263238"
   d="m 298.064,408.086 9,-0.561 c 0.313,-0.034 0.594,0.193 0.628,0.506 0,0.003 10e-4,0.006 10e-4,0.009 l 0.883,7.1 c 0.049,0.776 -0.536,1.447 -1.312,1.504 -3.143,0.145 -4.651,0.057 -8.614,0.273 -2.431,0.145 -7.222,0.662 -10.576,0.337 -3.355,-0.325 -2.944,-3.632 -1.495,-3.79 3.435,-0.391 7.985,-2.915 10.135,-4.831 0.376,-0.327 0.851,-0.52 1.35,-0.547 z"
   id="path92" />
		<path
   style="fill:#263238"
   d="m 357.335,299.715 -51.753,-8.613 c 0,0 -3.235,-30.738 -27.274,-59.222 0,0 8.343,-18.244 38.042,-15.715 29.699,2.528 40.985,83.55 40.985,83.55 z"
   id="path93" />
		<g
   id="g95">
			<path
   style="fill:#407bff"
   d="m 291.644,219.848 c 0,0 -8.343,5.624 -16.691,9.07 0,0 16.207,20.165 21.354,65.653 0,0 1.924,-11.079 -2.701,-30.904 0,0 -8.153,-35.615 -1.962,-43.819 z"
   id="path94" />
			<path
   style="opacity:0.8;fill:#ffffff;enable-background:new"
   d="m 291.644,219.848 c 0,0 -8.343,5.624 -16.691,9.07 0,0 16.207,20.165 21.354,65.653 0,0 1.924,-11.079 -2.701,-30.904 0,0 -8.153,-35.615 -1.962,-43.819 z"
   id="path95" />
		</g>
		<g
   id="g98">
			<path
   style="fill:#407bff"
   d="m 310.099,261.293 c 0,0 18.593,45.033 32.308,65.473 0,0 10.813,-2.322 18.725,-3.073 0,0 -9.89,-83.673 -30.462,-103.597 0,0 -12.646,-5.573 -24.659,-5.682 0,0 2.97,3.92 3.278,9.525 0.667,12.11 -0.822,32.083 0.81,37.354 z"
   id="path96" />
			<path
   style="opacity:0.8;fill:#ffffff;enable-background:new"
   d="m 361.13,323.69 c -7.91,0.75 -18.72,3.08 -18.72,3.08 -7.81,-11.64 -17.21,-31.26 -23.84,-45.99 -2.66,-5.9 -4.88,-11.01 -6.37,-14.52 -1.34,-3.12 -2.1,-4.97 -2.1,-4.97 -1.63,-5.27 -0.14,-25.24 -0.81,-37.35 -0.31,-5.6 -3.28,-9.53 -3.28,-9.53 12.01,0.11 24.66,5.69 24.66,5.69 20.57,19.92 30.46,103.59 30.46,103.59 z"
   id="path97" />
			<path
   style="opacity:0.2;enable-background:new"
   d="m 335.66,246.85 c 0,0 -1.68,30.71 -17.09,33.93 -2.66,-5.9 -4.88,-11.01 -6.37,-14.52 8.29,-9.27 23.46,-19.41 23.46,-19.41 z"
   id="path98" />
		</g>
		<g
   id="g100">
			<path
   style="fill:#407bff"
   d="m 303.374,213.73 c 0,0 3.584,1.688 3.968,6.131 0.384,4.443 -3.374,28.377 2.758,41.432 0,0 -0.65,-19.228 2.967,-27.974 l -1.438,-5.455 3.577,-1.55 c -0.001,0 -2.931,-15.839 -11.832,-12.584 z"
   id="path99" />
			<path
   style="opacity:0.7;fill:#ffffff;enable-background:new"
   d="m 303.374,213.73 c 0,0 3.584,1.688 3.968,6.131 0.384,4.443 -3.374,28.377 2.758,41.432 0,0 -0.65,-19.228 2.967,-27.974 l -1.438,-5.455 3.577,-1.55 c -0.001,0 -2.931,-15.839 -11.832,-12.584 z"
   id="path100" />
		</g>
		<g
   id="g102">
			<path
   style="fill:#407bff"
   d="m 295.042,214.973 c 0,0 -10.194,9.466 -9.857,17.915 l 3.22,0.432 -3.75,4.401 c 0,0 4.325,18.535 8.951,25.946 0,0 -8.874,-36.069 1.436,-48.694 z"
   id="path101" />
			<path
   style="opacity:0.7;fill:#ffffff;enable-background:new"
   d="m 295.042,214.973 c 0,0 -10.194,9.466 -9.857,17.915 l 3.22,0.432 -3.75,4.401 c 0,0 4.325,18.535 8.951,25.946 0,0 -8.874,-36.069 1.436,-48.694 z"
   id="path102" />
		</g>
		<path
   style="fill:#ebb376"
   d="m 284.743,224.976 c 2.17,-0.96 4.75,0 4.75,0 0,0 0.94,5.02 6.65,5.34 0.69,0.04 1.45,0.01 2.28,-0.1 7.74,-1.06 6.89,-12.57 6.89,-12.57 -3.21,0.24 -5.93,-0.7 -8.06,-1.94 0,0 0,0 0,-0.01 -3.39,-1.97 -5.28,-4.72 -5.28,-4.72 z"
   id="path103" />
		<path
   style="opacity:0.2;enable-background:new"
   d="m 284.743,224.976 c 2.17,-0.96 4.75,0 4.75,0 0,0 0.94,5.02 6.65,5.34 1.99,-4.93 1.73,-10.58 1.11,-14.61 0,0 0,0 0,-0.01 -3.39,-1.97 -5.28,-4.72 -5.28,-4.72 z"
   id="path104" />
		<g
   id="g120">
			<path
   style="fill:#263238"
   d="m 279.341,199.531 c 3.823,1.657 3.018,5.846 -3.493,13.393 -3.875,-3.449 -5.877,-11.189 -3.775,-13.628 2.101,-2.44 3.937,-1.196 7.268,0.235 z"
   id="path105" />
			<path
   style="fill:#ebb376"
   d="m 295.106,203.085 c 1.2,8.35 2.32,13.17 -0.96,18.265 -4.944,7.659 -15.902,5.994 -19.576,-1.832 -3.289,-7.031 -4.707,-19.508 2.683,-24.452 5.263,-3.561 12.415,-2.181 15.976,3.081 1.001,1.479 1.643,3.169 1.877,4.938 z"
   id="path106" />
			<path
   style="fill:#263238"
   d="m 283.263,207.894 c 0.138,0.671 -0.107,1.289 -0.546,1.378 -0.438,0.088 -0.899,-0.376 -1.038,-1.047 -0.138,-0.671 0.098,-1.285 0.533,-1.383 0.435,-0.097 0.868,0.401 1.051,1.052 z"
   id="path107" />
			<path
   style="fill:#263238"
   d="m 275.637,209.483 c 0.138,0.671 -0.107,1.289 -0.546,1.378 -0.438,0.088 -0.908,-0.372 -1.05,-1.052 -0.142,-0.68 0.107,-1.289 0.546,-1.378 0.439,-0.088 0.912,0.381 1.05,1.052 z"
   id="path108" />
			<path
   style="fill:#d58745"
   d="m 278.191,209.284 c -0.376,2.217 -1.055,4.372 -2.02,6.404 1.441,0.857 3.334,-0.068 3.334,-0.068 z"
   id="path109" />
			<path
   style="fill:#263238"
   d="m 290.309,196.458 c -3.581,2.119 -2.248,6.176 5.162,12.833 3.412,-3.912 4.421,-11.852 2.018,-13.991 -2.403,-2.139 -4.05,-0.686 -7.18,1.158 z"
   id="path110" />
			<path
   style="fill:#ebb376"
   d="m 300.398,208.867 c -0.161,2.117 -1.154,4.085 -2.763,5.471 -2.146,1.812 -4.381,0.171 -4.763,-2.461 -0.342,-2.374 0.368,-6.18 2.988,-6.971 2.621,-0.792 4.723,1.363 4.538,3.961 z"
   id="path111" />
			<g
   id="g114">
				
					<path
   style="fill:none;stroke:#263238;stroke-width:0.5263;stroke-linecap:round;stroke-linejoin:round;stroke-miterlimit:10"
   d="m 279.249,210.072 c 0.406,2.142 2.183,3.604 3.971,3.266 1.788,-0.339 2.908,-2.349 2.502,-4.491 -0.406,-2.142 -2.184,-3.604 -3.971,-3.266 -1.787,0.338 -2.908,2.349 -2.502,4.491 z"
   id="path112" />
				
					<path
   style="fill:none;stroke:#263238;stroke-width:0.5263;stroke-linecap:round;stroke-linejoin:round;stroke-miterlimit:10"
   d="m 270.368,211.61 c 0.406,2.142 2.183,3.604 3.971,3.266 1.788,-0.338 2.908,-2.349 2.502,-4.491 -0.405,-2.142 -2.183,-3.604 -3.971,-3.266 -1.787,0.338 -2.908,2.349 -2.502,4.491 z"
   id="path113" />
				
					<path
   style="fill:none;stroke:#263238;stroke-width:0.5263;stroke-linecap:round;stroke-linejoin:round;stroke-miterlimit:10"
   d="m 279.249,210.072 c 0,0 -1.463,-0.88 -2.408,0.312"
   id="path114" />
				
					<line
   style="fill:none;stroke:#263238;stroke-width:0.5263;stroke-linecap:round;stroke-linejoin:round;stroke-miterlimit:10"
   x1="285.72198"
   y1="208.84599"
   x2="293.47198"
   y2="206.68201"
   id="line114" />
			</g>
			<path
   style="fill:#263238"
   d="m 286.47,204.749 c -0.152,0.05 -0.318,0.015 -0.438,-0.091 -0.781,-0.757 -1.872,-1.101 -2.946,-0.928 -0.227,0.058 -0.459,-0.079 -0.517,-0.307 -0.058,-0.227 0.08,-0.459 0.307,-0.517 0,0 0.001,0 0.002,0 1.351,-0.253 2.741,0.165 3.729,1.122 0.177,0.154 0.195,0.423 0.041,0.6 -0.002,0.003 -0.004,0.005 -0.007,0.008 -0.05,0.046 -0.108,0.084 -0.171,0.113 z"
   id="path115" />
			<path
   style="fill:#263238"
   d="m 272.34,207.1 c -0.073,0.046 -0.159,0.067 -0.245,0.062 -0.227,-0.06 -0.362,-0.293 -0.301,-0.52 0.001,-0.003 0.001,-0.006 0.002,-0.009 0.344,-1.336 1.317,-2.42 2.608,-2.907 0.224,-0.07 0.462,0.055 0.532,0.279 v 0.001 c 0.064,0.224 -0.06,0.458 -0.28,0.533 v 0 c -1.008,0.414 -1.76,1.28 -2.029,2.335 -0.058,0.114 -0.163,0.196 -0.287,0.226 z"
   id="path116" />
			<g
   id="g119">
				<path
   style="fill:#263238"
   d="m 280.822,217.273 c 0.862,0.932 2.03,2.824 2.03,2.824 0.191,-0.075 0.381,-0.15 0.567,-0.235 2.558,-1.081 3.387,-2.428 3.531,-3.593 0.076,-0.637 -0.061,-1.225 -0.233,-1.679 -0.192,-0.527 -0.45,-0.859 -0.45,-0.859 -1.013,1.383 -3.32,2.575 -4.579,3.16 -0.524,0.25 -0.866,0.382 -0.866,0.382 z"
   id="path117" />
				<path
   style="fill:#ffffff"
   d="m 281.688,216.89 0.62,0.817 c 2.406,-1.024 3.964,-2.069 4.409,-3.118 -0.192,-0.527 -0.45,-0.859 -0.45,-0.859 -1.013,1.383 -3.32,2.575 -4.579,3.16 z"
   id="path118" />
				<path
   style="fill:#de5753"
   d="m 283.419,219.861 c 2.558,-1.081 3.387,-2.428 3.531,-3.593 -0.857,0.402 -1.846,0.982 -2.602,1.764 -0.58,0.595 -0.83,1.241 -0.929,1.829 z"
   id="path119" />
			</g>
			<path
   style="fill:#263238"
   d="m 288.672,199.48 c 0,0 0,-4.055 -5.253,-2.855 -4.269,0.975 -7.204,4.14 -11.526,4.338 -4.322,0.198 -8.97,-9 -5.212,-11.077 2.769,-1.53 4.944,2.247 12.568,-1.766 9.423,-4.96 18.455,0 18.24,7.179 -0.17,5.667 -8.817,4.181 -8.817,4.181 z"
   id="path120" />
		</g>
		<g
   id="g124">
			<path
   style="fill:#ebb376"
   d="m 286.758,247.757 c -6.999,-2.309 -13.56,-4.469 -15.573,-4.806 -4.736,-0.791 -15.615,3.36 -15.615,3.36 l -0.989,6.493 c 0,0 9.682,-0.192 15.127,-2.847 0,0 7.934,4.744 17.051,9.581 v -11.781 z"
   id="path121" />
			<path
   style="fill:#407bff"
   d="m 331.842,222.948 c -9.708,-0.169 -15.053,31.561 -17.4,33.875 -2.448,2.413 -32.398,-11.158 -32.398,-11.158 l -0.904,13.867 c 0,0 27.181,15.504 34.912,15.474 7.731,-0.03 20.661,-24.605 21.336,-36.462 0.674,-11.859 -5.546,-15.596 -5.546,-15.596 z"
   id="path122" />
			<path
   style="opacity:0.7;fill:#ffffff;enable-background:new"
   d="m 331.842,222.948 c -9.708,-0.169 -15.053,31.561 -17.4,33.875 -2.448,2.413 -32.398,-11.158 -32.398,-11.158 l -0.904,13.867 c 0,0 27.181,15.504 34.912,15.474 7.731,-0.03 20.661,-24.605 21.336,-36.462 0.674,-11.859 -5.546,-15.596 -5.546,-15.596 z"
   id="path123" />
			<polygon
   style="fill:#407bff"
   points="284.743,263.101 285.722,246.851 280.822,244.48 279.249,261.293 "
   id="polygon123" />
			<polygon
   style="opacity:0.6;fill:#ffffff;enable-background:new"
   points="284.743,263.101 285.722,246.851 280.822,244.48 279.249,261.293 "
   id="polygon124" />
		</g>
	</g>
</g><g
   id="Table"
   transform="matrix(0.43657945,0,0,0.43657945,-2.8294807,-32.557173)">
	<g
   id="g173">
		<g
   id="g158">
			<g
   id="g125">
				<path
   style="fill:#263238"
   d="m 154.823,415.535 c -7.002,0 -13.824,-2.209 -19.75,-7.46 -1.926,-1.707 -3.591,-3.716 -5.202,-5.658 -2.48,-2.993 -5.046,-6.089 -8.555,-8.006 -3.843,-2.098 -7.073,-2.521 -9.601,-1.255 -4.231,2.12 -5.162,8.31 -5.17,8.372 l -0.99,-0.141 c 0.04,-0.276 1.019,-6.774 5.712,-9.125 2.838,-1.424 6.38,-0.995 10.528,1.272 3.677,2.009 6.305,5.179 8.846,8.244 1.586,1.914 3.226,3.893 5.095,5.549 16.09,14.258 39.113,5.298 53.696,-9.061 24.578,-24.199 30.489,-56.41 34.807,-90.063 1.573,-12.261 4.573,-26.217 14.898,-36.76 1.351,-1.379 2.535,-2.394 3.727,-3.191 l 0.557,0.83 c -1.149,0.77 -2.25,1.714 -3.569,3.061 -10.119,10.333 -13.069,24.092 -14.621,36.188 -4.341,33.833 -10.292,66.225 -35.098,90.648 -9.572,9.426 -22.731,16.555 -35.31,16.556 z"
   id="path124" />
			</g>
			<g
   id="g128">
				<g
   id="g126">
					<path
   style="fill:#263238"
   d="m 143.916,417.359 c -19.736,0 -28.189,-12.12 -33.782,-20.14 -3.105,-4.452 -5.351,-7.669 -8.041,-6.69 -7.82,2.839 -6.615,11.873 -6.56,12.257 l -0.989,0.144 c -0.015,-0.103 -1.383,-10.222 7.209,-13.34 3.416,-1.245 5.843,2.241 9.202,7.058 5.474,7.85 13.747,19.712 32.961,19.712 9.62,0 19.943,-5.928 29.066,-16.69 18.482,-21.804 34.583,-67.078 24.342,-128.758 l 0.986,-0.164 c 10.296,62.017 -5.938,107.595 -24.565,129.568 -9.316,10.991 -19.91,17.043 -29.829,17.043 z"
   id="path125" />
				</g>
				<g
   style="opacity:0.4;enable-background:new"
   id="g127">
					<path
   style="fill:#ffffff"
   d="m 143.916,417.359 c -19.736,0 -28.189,-12.12 -33.782,-20.14 -3.105,-4.452 -5.351,-7.669 -8.041,-6.69 -7.82,2.839 -6.615,11.873 -6.56,12.257 l -0.989,0.144 c -0.015,-0.103 -1.383,-10.222 7.209,-13.34 3.416,-1.245 5.843,2.241 9.202,7.058 5.474,7.85 13.747,19.712 32.961,19.712 9.62,0 19.943,-5.928 29.066,-16.69 18.482,-21.804 34.583,-67.078 24.342,-128.758 l 0.986,-0.164 c 10.296,62.017 -5.938,107.595 -24.565,129.568 -9.316,10.991 -19.91,17.043 -29.829,17.043 z"
   id="path126" />
				</g>
			</g>
			<g
   id="g129">
				<path
   style="fill:#263238"
   d="m 109.033,405.841 h -5.966 v -2.983 c 0,-1.648 1.336,-2.983 2.983,-2.983 v 0 c 1.647,0 2.983,1.335 2.983,2.983 z"
   id="path128" />
				<path
   style="opacity:0.5;fill:#ffffff;enable-background:new"
   d="m 109.033,405.841 h -5.966 v -2.983 c 0,-1.648 1.336,-2.983 2.983,-2.983 v 0 c 1.647,0 2.983,1.335 2.983,2.983 z"
   id="path129" />
			</g>
			<g
   id="g131">
				<path
   style="fill:#263238"
   d="m 98.022,405.841 h -5.966 v -2.983 c 0,-1.648 1.335,-2.983 2.983,-2.983 v 0 c 1.647,0 2.983,1.335 2.983,2.983 z"
   id="path130" />
				<path
   style="opacity:0.5;fill:#ffffff;enable-background:new"
   d="m 98.022,405.841 h -5.966 v -2.983 c 0,-1.648 1.335,-2.983 2.983,-2.983 v 0 c 1.647,0 2.983,1.335 2.983,2.983 z"
   id="path131" />
			</g>
			<path
   style="fill:#263238"
   d="m 87.604,405.44 h 25.939 c 1.038,0 1.879,0.841 1.879,1.879 v 9.791 H 85.725 v -9.791 c 0,-1.038 0.841,-1.879 1.879,-1.879 z"
   id="path132" />
			<g
   id="g141">
				<g
   id="g135">
					<g
   id="g133">
						<path
   style="fill:#407bff"
   d="m 226.382,265.818 c -0.214,0 -0.347,-0.013 -0.369,-0.016 -0.274,-0.029 -0.472,-0.274 -0.444,-0.549 0.028,-0.273 0.278,-0.475 0.548,-0.445 0.022,-0.002 2.085,0.189 3.658,-1.317 1.41,-1.351 2.035,-3.626 1.857,-6.762 -0.238,-4.195 1.063,-7.403 3.662,-9.033 2.227,-1.396 5.294,-1.463 7.629,-0.166 4.233,2.352 2.99,8.518 2.935,8.779 -0.057,0.271 -0.321,0.438 -0.592,0.387 -0.27,-0.057 -0.443,-0.321 -0.387,-0.592 0.012,-0.057 1.145,-5.708 -2.441,-7.699 -2.028,-1.127 -4.686,-1.07 -6.613,0.138 -1.61,1.01 -3.472,3.24 -3.195,8.13 0.196,3.451 -0.537,5.992 -2.176,7.553 -1.498,1.424 -3.306,1.592 -4.072,1.592 z"
   id="path133" />
					</g>
					<g
   style="opacity:0.3;enable-background:new"
   id="g134">
						<path
   d="m 226.382,265.818 c -0.214,0 -0.347,-0.013 -0.369,-0.016 -0.274,-0.029 -0.472,-0.274 -0.444,-0.549 0.028,-0.273 0.278,-0.475 0.548,-0.445 0.022,-0.002 2.085,0.189 3.658,-1.317 1.41,-1.351 2.035,-3.626 1.857,-6.762 -0.238,-4.195 1.063,-7.403 3.662,-9.033 2.227,-1.396 5.294,-1.463 7.629,-0.166 4.233,2.352 2.99,8.518 2.935,8.779 -0.057,0.271 -0.321,0.438 -0.592,0.387 -0.27,-0.057 -0.443,-0.321 -0.387,-0.592 0.012,-0.057 1.145,-5.708 -2.441,-7.699 -2.028,-1.127 -4.686,-1.07 -6.613,0.138 -1.61,1.01 -3.472,3.24 -3.195,8.13 0.196,3.451 -0.537,5.992 -2.176,7.553 -1.498,1.424 -3.306,1.592 -4.072,1.592 z"
   id="path134" />
					</g>
				</g>
				<g
   id="g138">
					<g
   id="g136">
						<path
   d="m 250.736,266.119 c -5.374,0 -10.812,-1.599 -15.35,-2.933 -2.938,-0.863 -5.475,-1.609 -7.303,-1.71 -6.917,-0.357 -12.521,4.181 -12.577,4.228 -0.213,0.177 -0.527,0.146 -0.704,-0.067 -0.176,-0.213 -0.145,-0.528 0.067,-0.704 0.24,-0.198 5.97,-4.863 13.269,-4.454 1.944,0.107 4.533,0.868 7.53,1.749 8.238,2.42 19.518,5.738 27.578,-1.643 6.338,-5.803 6.803,-10.996 5.124,-13.921 -1.2,-2.091 -3.541,-3.082 -5.693,-2.417 -5.334,1.655 -5.842,10.267 -5.847,10.352 -0.015,0.276 -0.25,0.506 -0.525,0.474 -0.275,-0.014 -0.488,-0.249 -0.474,-0.524 0.02,-0.383 0.548,-9.395 6.549,-11.257 2.605,-0.808 5.422,0.375 6.857,2.874 1.872,3.261 1.458,8.955 -5.316,15.157 -3.932,3.6 -8.535,4.796 -13.185,4.796 z"
   id="path135" />
					</g>
					<g
   style="opacity:0.4;enable-background:new"
   id="g137">
						<path
   style="fill:#ffffff"
   d="m 250.736,266.119 c -5.374,0 -10.812,-1.599 -15.35,-2.933 -2.938,-0.863 -5.475,-1.609 -7.303,-1.71 -6.917,-0.357 -12.521,4.181 -12.577,4.228 -0.213,0.177 -0.527,0.146 -0.704,-0.067 -0.176,-0.213 -0.145,-0.528 0.067,-0.704 0.24,-0.198 5.97,-4.863 13.269,-4.454 1.944,0.107 4.533,0.868 7.53,1.749 8.238,2.42 19.518,5.738 27.578,-1.643 6.338,-5.803 6.803,-10.996 5.124,-13.921 -1.2,-2.091 -3.541,-3.082 -5.693,-2.417 -5.334,1.655 -5.842,10.267 -5.847,10.352 -0.015,0.276 -0.25,0.506 -0.525,0.474 -0.275,-0.014 -0.488,-0.249 -0.474,-0.524 0.02,-0.383 0.548,-9.395 6.549,-11.257 2.605,-0.808 5.422,0.375 6.857,2.874 1.872,3.261 1.458,8.955 -5.316,15.157 -3.932,3.6 -8.535,4.796 -13.185,4.796 z"
   id="path136" />
					</g>
				</g>
				<g
   id="g139">
					<path
   style="fill:#407bff"
   d="m 264.807,257.57 h -26.13 c -0.992,0 -1.797,0.805 -1.797,1.797 v 7.137 h 29.725 v -7.137 c -0.001,-0.992 -0.806,-1.797 -1.798,-1.797 z"
   id="path138" />
					<path
   style="opacity:0.2;enable-background:new"
   d="m 264.807,257.57 h -26.13 c -0.992,0 -1.797,0.805 -1.797,1.797 v 7.137 h 29.725 v -7.137 c -0.001,-0.992 -0.806,-1.797 -1.798,-1.797 z"
   id="path139" />
				</g>
				<polygon
   style="fill:#407bff"
   points="248.385,252.489 247.396,251.871 245.467,255.456 245.103,252.934 244.033,252.984 244.033,257.884 245.764,257.989 "
   id="polygon139" />
				<polygon
   style="fill:#407bff"
   points="259.165,252.291 258.275,252.093 256.304,255.073 255.505,251.871 254.912,251.871 254.912,257.884 257.533,257.884 "
   id="polygon140" />
				<polygon
   style="opacity:0.4;fill:#ffffff;enable-background:new"
   points="259.165,252.291 258.275,252.093 256.304,255.073 255.505,251.871 254.912,251.871 254.912,257.884 257.533,257.884 "
   id="polygon141" />
			</g>
			<g
   id="g142">
				<path
   style="fill:#407bff"
   d="m 226.893,264.504 h -4.154 v -13.9 c 0,-0.291 0.236,-0.527 0.527,-0.527 h 3.099 c 0.291,0 0.528,0.236 0.528,0.527 z"
   id="path141" />
				<path
   style="fill:#407bff"
   d="m 192.893,264.504 h -4.154 v -13.9 c 0,-0.291 0.236,-0.527 0.527,-0.527 h 3.099 c 0.291,0 0.528,0.236 0.528,0.527 z"
   id="path142" />
			</g>
			<g
   id="g144">
				<path
   style="fill:#407bff"
   d="m 225.152,264.504 h -34.671 v -12.772 c 0,-0.259 0.21,-0.469 0.47,-0.469 h 33.732 c 0.259,0 0.47,0.21 0.47,0.469 v 12.772 z"
   id="path143" />
				<path
   style="opacity:0.4;fill:#ffffff;enable-background:new"
   d="m 225.152,264.504 h -34.671 v -12.772 c 0,-0.259 0.21,-0.469 0.47,-0.469 h 33.732 c 0.259,0 0.47,0.21 0.47,0.469 v 12.772 z"
   id="path144" />
			</g>
			<g
   id="g147">
				<path
   style="fill:#407bff"
   d="m 225.152,264.107 c -10e-4,0 -0.002,0 -0.002,0 l -34.671,-0.264 c -0.136,-0.001 -0.246,-0.11 -0.248,-0.247 -0.002,-0.136 0.105,-0.248 0.241,-0.253 l 23.319,-0.81 -23.313,-0.217 c -0.136,-10e-4 -0.246,-0.111 -0.247,-0.247 -0.002,-0.136 0.106,-0.248 0.242,-0.253 l 23.311,-0.77 -23.306,-0.256 c -0.136,-0.002 -0.246,-0.111 -0.247,-0.247 -0.002,-0.137 0.106,-0.249 0.242,-0.253 l 23.318,-0.73 -23.313,-0.296 c -0.136,-0.002 -0.246,-0.112 -0.247,-0.248 -0.001,-0.136 0.106,-0.248 0.243,-0.252 l 23.311,-0.69 -23.307,-0.335 c -0.136,-0.002 -0.246,-0.112 -0.247,-0.248 -0.001,-0.137 0.107,-0.248 0.243,-0.252 l 23.317,-0.65 -23.314,-0.376 c -0.136,-0.002 -0.246,-0.112 -0.246,-0.249 -0.001,-0.136 0.107,-0.247 0.244,-0.251 l 23.31,-0.611 -23.308,-0.414 c -0.136,-0.003 -0.245,-0.113 -0.246,-0.249 -0.001,-0.136 0.108,-0.248 0.244,-0.251 l 23.317,-0.572 -23.315,-0.454 c -0.136,-0.003 -0.245,-0.113 -0.245,-0.25 0,-0.136 0.108,-0.247 0.244,-0.25 l 34.671,-0.791 c 0.156,-0.003 0.253,0.106 0.256,0.244 0.003,0.139 -0.107,0.253 -0.244,0.256 l -22.855,0.521 22.855,0.445 c 0.136,0.003 0.245,0.113 0.245,0.249 0,0.137 -0.108,0.248 -0.244,0.251 l -22.856,0.561 22.854,0.406 c 0.136,0.003 0.245,0.113 0.246,0.249 0,0.136 -0.107,0.247 -0.244,0.251 l -22.864,0.6 22.861,0.368 c 0.136,0.002 0.245,0.112 0.246,0.248 0.001,0.137 -0.107,0.248 -0.243,0.252 l -22.856,0.638 22.853,0.329 c 0.136,0.002 0.246,0.112 0.247,0.248 0.001,0.136 -0.107,0.248 -0.243,0.252 l -22.856,0.677 22.852,0.29 c 0.136,0.002 0.246,0.111 0.247,0.248 0.001,0.136 -0.107,0.248 -0.242,0.252 l -22.857,0.716 22.852,0.251 c 0.136,0.002 0.246,0.111 0.247,0.247 0.001,0.136 -0.106,0.248 -0.242,0.253 l -22.857,0.755 22.851,0.212 c 0.136,0.001 0.246,0.111 0.248,0.247 0.002,0.136 -0.105,0.248 -0.241,0.253 l -22.865,0.794 22.858,0.174 c 0.138,10e-4 0.249,0.114 0.248,0.252 -0.004,0.137 -0.115,0.247 -0.252,0.247 z"
   id="path145" />
				<g
   style="opacity:0.6"
   id="g146">
					<path
   style="fill:#ffffff"
   d="m 225.152,264.107 c -10e-4,0 -0.002,0 -0.002,0 l -34.671,-0.264 c -0.136,-0.001 -0.246,-0.11 -0.248,-0.247 -0.002,-0.136 0.105,-0.248 0.241,-0.253 l 23.319,-0.81 -23.313,-0.217 c -0.136,-10e-4 -0.246,-0.111 -0.247,-0.247 -0.002,-0.136 0.106,-0.248 0.242,-0.253 l 23.311,-0.77 -23.306,-0.256 c -0.136,-0.002 -0.246,-0.111 -0.247,-0.247 -0.002,-0.137 0.106,-0.249 0.242,-0.253 l 23.318,-0.73 -23.313,-0.296 c -0.136,-0.002 -0.246,-0.112 -0.247,-0.248 -0.001,-0.136 0.106,-0.248 0.243,-0.252 l 23.311,-0.69 -23.307,-0.335 c -0.136,-0.002 -0.246,-0.112 -0.247,-0.248 -0.001,-0.137 0.107,-0.248 0.243,-0.252 l 23.317,-0.65 -23.314,-0.376 c -0.136,-0.002 -0.246,-0.112 -0.246,-0.249 -0.001,-0.136 0.107,-0.247 0.244,-0.251 l 23.31,-0.611 -23.308,-0.414 c -0.136,-0.003 -0.245,-0.113 -0.246,-0.249 -0.001,-0.136 0.108,-0.248 0.244,-0.251 l 23.317,-0.572 -23.315,-0.454 c -0.136,-0.003 -0.245,-0.113 -0.245,-0.25 0,-0.136 0.108,-0.247 0.244,-0.25 l 34.671,-0.791 c 0.156,-0.003 0.253,0.106 0.256,0.244 0.003,0.139 -0.107,0.253 -0.244,0.256 l -22.855,0.521 22.855,0.445 c 0.136,0.003 0.245,0.113 0.245,0.249 0,0.137 -0.108,0.248 -0.244,0.251 l -22.856,0.561 22.854,0.406 c 0.136,0.003 0.245,0.113 0.246,0.249 0,0.136 -0.107,0.247 -0.244,0.251 l -22.864,0.6 22.861,0.368 c 0.136,0.002 0.245,0.112 0.246,0.248 0.001,0.137 -0.107,0.248 -0.243,0.252 l -22.856,0.638 22.853,0.329 c 0.136,0.002 0.246,0.112 0.247,0.248 0.001,0.136 -0.107,0.248 -0.243,0.252 l -22.856,0.677 22.852,0.29 c 0.136,0.002 0.246,0.111 0.247,0.248 0.001,0.136 -0.107,0.248 -0.242,0.252 l -22.857,0.716 22.852,0.251 c 0.136,0.002 0.246,0.111 0.247,0.247 0.001,0.136 -0.106,0.248 -0.242,0.253 l -22.857,0.755 22.851,0.212 c 0.136,0.001 0.246,0.111 0.248,0.247 0.002,0.136 -0.105,0.248 -0.241,0.253 l -22.865,0.794 22.858,0.174 c 0.138,10e-4 0.249,0.114 0.248,0.252 -0.004,0.137 -0.115,0.247 -0.252,0.247 z"
   id="path146" />
				</g>
			</g>
			<path
   style="fill:#407bff"
   d="m 209.893,264.504 h -4.154 v -13.9 c 0,-0.291 0.236,-0.527 0.527,-0.527 h 3.099 c 0.291,0 0.528,0.236 0.528,0.527 z"
   id="path147" />
			<path
   style="fill:#407bff"
   d="m 228.037,264.107 h -40.646 c -0.228,0 -0.413,0.185 -0.413,0.413 v 1.984 h 41.473 v -1.984 c 0,-0.227 -0.185,-0.413 -0.414,-0.413 z"
   id="path148" />
			<path
   style="opacity:0.2;fill:#ffffff;enable-background:new"
   d="m 228.037,264.107 h -40.646 c -0.228,0 -0.413,0.185 -0.413,0.413 v 1.984 h 41.473 v -1.984 c 0,-0.227 -0.185,-0.413 -0.414,-0.413 z"
   id="path149" />
			<g
   id="g152">
				<path
   style="fill:#263238"
   d="m 218.317,230.347 c -0.185,-1.491 -5.147,-2.102 -11.082,-1.365 -5.936,0.737 -10.597,2.542 -10.412,4.033 l 0.493,3.969 8.672,0.488 c 0.644,-0.05 1.303,-0.114 1.978,-0.197 1.039,-0.129 2.035,-0.292 2.977,-0.479 l 7.868,-2.479 z"
   id="path150" />
				<path
   style="opacity:0.2;fill:#ffffff;enable-background:new"
   d="m 218.317,230.347 c -0.185,-1.491 -5.147,-2.102 -11.082,-1.365 -5.936,0.737 -10.597,2.542 -10.412,4.033 l 0.493,3.969 8.672,0.488 c 0.644,-0.05 1.303,-0.114 1.978,-0.197 1.039,-0.129 2.035,-0.292 2.977,-0.479 l 7.868,-2.479 z"
   id="path151" />
				<path
   style="fill:#263238"
   d="m 207.727,232.951 c -5.936,0.737 -10.597,2.542 -10.412,4.033 0.185,1.491 5.147,2.102 11.082,1.365 5.936,-0.737 10.597,-2.542 10.412,-4.033 -0.184,-1.49 -5.146,-2.102 -11.082,-1.365 z m 0.404,3.254 c -2.439,0.303 -4.447,0.3 -4.485,-0.007 -0.038,-0.306 1.909,-0.8 4.348,-1.103 2.439,-0.303 4.448,-0.3 4.486,0.007 0.037,0.306 -1.91,0.8 -4.349,1.103 z"
   id="path152" />
			</g>
			<g
   id="g157">
				<g
   id="g153">
					
						<rect
   x="168.769"
   y="245.821"
   transform="matrix(0.9356,0.3531,-0.3531,0.9356,99.9411,-44.1852)"
   style="fill:#407bff"
   width="4.6479998"
   height="12.1"
   id="rect152" />
					
						<rect
   x="167.701"
   y="251.67599"
   transform="matrix(0.9356,0.3531,-0.3531,0.9356,100.8715,-43.6259)"
   style="opacity:0.4;fill:#ffffff;enable-background:new"
   width="4.6479998"
   height="6.0500002"
   id="rect153" />
				</g>
				<g
   id="g154">
					<path
   style="fill:#263238"
   d="m 172.268,242.869 -0.28,-2.48 c 1.097,0.291 2.335,1.365 2.495,2.783 0.182,1.609 -0.924,3.056 -2.456,3.448 -0.532,0.136 -1.051,0.127 -1.59,-0.044 l -10.622,13.326 c 1.202,1.886 -0.134,3.752 -1.406,4.428 l -0.267,-2.47 c -0.066,-0.58 -0.583,-0.993 -1.163,-0.927 -0.58,0.065 -0.995,0.592 -0.929,1.172 l 0.282,2.482 c -1.097,-0.291 -2.335,-1.364 -2.495,-2.783 -0.182,-1.609 0.847,-3.117 2.379,-3.509 0.532,-0.136 0.974,-0.189 1.513,-0.017 l 10.622,-13.326 c -0.788,-1.556 0.212,-3.69 1.484,-4.366 l 0.306,2.501 c 0.066,0.58 0.602,1.008 1.183,0.943 0.579,-0.067 1.009,-0.581 0.944,-1.161 z"
   id="path153" />
					<path
   style="opacity:0.6;fill:#ffffff;enable-background:new"
   d="m 172.268,242.869 -0.28,-2.48 c 1.097,0.291 2.335,1.365 2.495,2.783 0.182,1.609 -0.924,3.056 -2.456,3.448 -0.532,0.136 -1.051,0.127 -1.59,-0.044 l -10.622,13.326 c 1.202,1.886 -0.134,3.752 -1.406,4.428 l -0.267,-2.47 c -0.066,-0.58 -0.583,-0.993 -1.163,-0.927 -0.58,0.065 -0.995,0.592 -0.929,1.172 l 0.282,2.482 c -1.097,-0.291 -2.335,-1.364 -2.495,-2.783 -0.182,-1.609 0.847,-3.117 2.379,-3.509 0.532,-0.136 0.974,-0.189 1.513,-0.017 l 10.622,-13.326 c -0.788,-1.556 0.212,-3.69 1.484,-4.366 l 0.306,2.501 c 0.066,0.58 0.602,1.008 1.183,0.943 0.579,-0.067 1.009,-0.581 0.944,-1.161 z"
   id="path154" />
				</g>
				<g
   id="g156">
					<g
   id="g155">
						<path
   style="fill:#407bff"
   d="m 156.773,239.276 3.881,7.551 c 1.965,3.825 0.448,8.529 -3.368,10.489 -3.816,1.961 -8.524,0.457 -10.489,-3.368 l -3.881,-7.551 3.833,-1.97 3.881,7.551 c 0.878,1.708 2.978,2.382 4.686,1.505 1.708,-0.878 2.382,-2.978 1.505,-4.686 l -3.881,-7.551 z"
   id="path155" />
					</g>
					
						<rect
   x="143.77"
   y="245.14799"
   transform="matrix(0.8894,-0.4571,0.4571,0.8894,-97.0108,94.0731)"
   style="opacity:0.4;fill:#ffffff;enable-background:new"
   width="4.3099999"
   height="4.7800002"
   id="rect155" />
					
						<rect
   x="153.79401"
   y="239.99699"
   transform="matrix(0.8894,-0.4571,0.4571,0.8894,-93.5486,98.0869)"
   style="opacity:0.4;fill:#ffffff;enable-background:new"
   width="4.3099999"
   height="4.7800002"
   id="rect156" />
				</g>
				<rect
   x="143.912"
   y="253.989"
   style="fill:#263238"
   width="31.912001"
   height="12.516"
   id="rect157" />
			</g>
		</g>
		<g
   id="g172">
			<g
   id="g160">
				<polygon
   style="fill:#263238"
   points="257.272,273.666 248.842,417.11 255.096,417.11 265.399,273.666 "
   id="polygon158" />
				<polygon
   style="opacity:0.4;fill:#ffffff;enable-background:new"
   points="256.832,281.278 248.839,417.11 255.097,417.11 264.862,281.278 265.403,273.913 257.272,273.913 "
   id="polygon159" />
				<polygon
   style="opacity:0.2;enable-background:new"
   points="265.402,273.913 257.272,273.913 256.832,280.913 264.862,280.913 "
   id="polygon160" />
			</g>
			<g
   id="g163">
				<polygon
   style="fill:#263238"
   points="202.307,273.666 203.243,417.11 209.498,417.11 210.434,273.666 "
   id="polygon161" />
				<polygon
   style="opacity:0.5;fill:#ffffff;enable-background:new"
   points="202.303,273.913 202.463,298.638 203.238,417.11 209.497,417.11 210.273,298.638 210.433,273.913 "
   id="polygon162" />
				<polygon
   style="opacity:0.2;enable-background:new"
   points="210.272,298.913 210.432,273.913 202.302,273.913 202.463,298.913 "
   id="polygon163" />
			</g>
			<g
   id="g166">
				<polygon
   style="fill:#263238"
   points="147.272,273.666 138.842,417.11 145.096,417.11 155.399,273.666 "
   id="polygon164" />
				<polygon
   style="opacity:0.5;fill:#ffffff;enable-background:new"
   points="146.833,281.278 138.839,417.11 145.097,417.11 154.863,281.278 155.403,273.913 147.273,273.913 "
   id="polygon165" />
				<polygon
   style="opacity:0.2;enable-background:new"
   points="155.402,273.913 147.272,273.913 146.832,280.913 154.863,280.913 "
   id="polygon166" />
			</g>
			<g
   id="g169">
				<polygon
   style="fill:#263238"
   points="307.341,273.666 317.644,417.11 323.898,417.11 315.469,273.666 "
   id="polygon167" />
				<polygon
   style="opacity:0.5;fill:#ffffff;enable-background:new"
   points="307.342,273.913 307.883,281.278 317.648,417.11 323.897,417.11 315.913,281.278 315.473,273.913 "
   id="polygon168" />
				<polygon
   style="opacity:0.2;enable-background:new"
   points="307.883,280.913 315.913,280.913 315.473,273.913 307.342,273.913 "
   id="polygon169" />
			</g>
			<g
   id="g170">
				<path
   style="fill:#407bff"
   d="m 142.992,277.504 h 176.757 c 1.194,0 2.162,-0.968 2.162,-2.162 v -5.514 H 140.83 v 5.514 c 0,1.194 0.968,2.162 2.162,2.162 z"
   id="path169" />
			</g>
			
				<rect
   x="140.83"
   y="269.828"
   transform="rotate(180,231.37035,271.7471)"
   style="opacity:0.2;enable-background:new"
   width="181.08099"
   height="3.8380001"
   id="rect170" />
			<g
   id="g171">
				<path
   style="fill:#407bff"
   d="m 137.033,270.829 h 188.676 c 1.194,0 2.162,-0.968 2.162,-2.162 v 0 c 0,-1.194 -0.968,-2.162 -2.162,-2.162 H 137.033 c -1.194,0 -2.162,0.968 -2.162,2.162 v 0 c -0.001,1.194 0.967,2.162 2.162,2.162 z"
   id="path170" />
			</g>
		</g>
	</g>
</g></svg>
