<svg version="1.2" xmlns="http://www.w3.org/2000/svg" viewBox="0 0 1000 1000" width="1000" height="1000">
	<title>2760425</title>
	<style>
		.s0 { fill: #ebebeb } 
		.s1 { fill: #e6e6e6 } 
		.s2 { fill: #f0f0f0 } 
		.s3 { fill: #f5f5f5 } 
		.s4 { fill: #ffffff } 
		.s5 { fill: #fafafa } 
		.s6 { fill: #ff8b7b } 
		.s7 { opacity: .2;fill: #000000 } 
		.s8 { fill: #263238 } 
		.s9 { fill: #407bff } 
		.s10 { opacity: .6;fill: #000000 } 
		.s11 { opacity: .3;fill: #000000 } 
		.s12 { fill: #ff5652 } 
		.s13 { fill: #000000 } 
		.s14 { opacity: .1;fill: #000000 } 
		.s15 { opacity: .4;fill: #407bff } 
		.s16 { fill: #b55b52 } 
		.s17 { fill: #a02724 } 
	</style>
	<g id="Background Complete">
		<g id="&lt;Group&gt;">
			<path id="&lt;Path&gt;" class="s0" d="m1000 765.3h-1000v-0.5h1000z"/>
			<path id="&lt;Path&gt;" class="s0" d="m833.6 797h66.2v0.5h-66.2z"/>
			<path id="&lt;Path&gt;" class="s0" d="m645.1 802.4h17.3v0.5h-17.3z"/>
			<path id="&lt;Path&gt;" class="s0" d="m793.2 778.4h38.4v0.5h-38.4z"/>
			<path id="&lt;Path&gt;" class="s0" d="m104.9 781.8h86.4v0.5h-86.4z"/>
			<path id="&lt;Path&gt;" class="s0" d="m209.1 781.8h12.7v0.5h-12.7z"/>
			<path id="&lt;Path&gt;" class="s0" d="m262.9 790.2h187.4v0.5h-187.4z"/>
			<path id="&lt;Compound Path&gt;" fill-rule="evenodd" class="s0" d="m474 675.6h-386.2c-6.3 0-11.4-5.1-11.4-11.4v-542.9c0-6.3 5.1-11.4 11.4-11.4h386.2c6.3 0 11.4 5.1 11.4 11.4v542.9c0 6.3-5.1 11.4-11.4 11.4zm-386.2-565.2c-6 0-10.9 4.9-10.9 10.9v542.9c0 6 4.9 10.9 10.9 10.9h386.2c6 0 10.9-4.9 10.9-10.9v-542.9c0-6-4.9-10.9-10.9-10.9z"/>
			<path id="&lt;Compound Path&gt;" fill-rule="evenodd" class="s0" d="m906.6 675.6h-386.2c-6.3 0-11.4-5.1-11.4-11.4v-542.9c0-6.3 5.1-11.4 11.4-11.4h386.2c6.3 0 11.4 5.1 11.4 11.4v542.9c0 6.3-5.1 11.4-11.4 11.4zm-386.2-565.2c-6 0-10.9 4.9-10.9 10.9v542.9c0 6 4.9 10.9 10.9 10.9h386.2c6 0 10.9-4.9 10.9-10.9v-542.9c0-6-4.9-10.9-10.9-10.9z"/>
		</g>
		<g id="&lt;Group&gt;">
			<g id="&lt;Group&gt;">
				<path id="&lt;Path&gt;" class="s1" d="m746.3 348.2h-28.3v-88.2h28.3z"/>
				<path id="&lt;Path&gt;" class="s2" d="m823.1 348.2h-94l-14.2-103.2h94z"/>
				<path id="&lt;Path&gt;" class="s3" d="m833.3 348.2h-97.1l-14.2-103.2h97.1z"/>
				<path id="&lt;Path&gt;" class="s4" d="m743.2 340.1l-11.9-87h80.8l12 87z"/>
				<path id="&lt;Path&gt;" class="s3" d="m759.2 313.8l-4.5-32.7c-0.5-3.6 2.3-6.9 6-6.9h29.4c3 0 5.6 2.2 6 5.3l4.5 32.6c0.5 3.7-2.3 6.9-6 6.9h-29.4c-3 0-5.6-2.2-6-5.2z"/>
			</g>
			<g id="&lt;Group&gt;">
				<path id="&lt;Path&gt;" class="s1" d="m569.9 424.7h-423.6v-261.3h423.6z"/>
				<path id="&lt;Path&gt;" class="s2" d="m580.8 424.7h-429.4v-261.3h429.4z"/>
				<path id="&lt;Path&gt;" class="s1" d="m569.9 424.7h-423.6v20.2h423.6z"/>
				<path id="&lt;Path&gt;" class="s2" d="m598.9 424.7h-429.4v20.2h429.4z"/>
				<path id="&lt;Path&gt;" class="s5" d="m166.6 409.4v-230.8h398.9v230.8z"/>
				<path id="&lt;Path&gt;" class="s4" d="m195.9 409.4l89.4-230.8h42.2l-89.4 230.8z"/>
				<path id="&lt;Path&gt;" class="s4" d="m247.2 409.4l89.4-230.8h16.5l-89.5 230.8z"/>
				<path id="&lt;Path&gt;" class="s4" d="m403.6 409.4l89.5-230.8h16.4l-89.4 230.8z"/>
				<path id="&lt;Path&gt;" class="s1" d="m563.6 409.4v-230.8h1.9v230.8z"/>
			</g>
			<g id="&lt;Group&gt;">
				<g id="&lt;Group&gt;">
					<path id="&lt;Path&gt;" class="s1" d="m891 764.8h-89.7v-416.6h89.7z"/>
					<path id="&lt;Path&gt;" class="s2" d="m882 764.8h9v-25.7h-18.5z"/>
					<path id="&lt;Path&gt;" class="s1" d="m733.9 764.8h-89.7v-416.6h89.7z"/>
					<path id="&lt;Path&gt;" class="s2" d="m891 749.1h-165v-400.9h165z"/>
					<path id="&lt;Path&gt;" class="s2" d="m735 764.8h-9v-25.7h18.5z"/>
					<path id="&lt;Path&gt;" class="s1" d="m884 544.7h-151v-189.1h151z"/>
					<path id="&lt;Path&gt;" class="s2" d="m824.8 370.3h-32.7c-14.2 0-27.7-5.8-37.5-16.2h107.8c-9.8 10.4-23.3 16.2-37.6 16.2z"/>
					<path id="&lt;Path&gt;" class="s1" d="m884 741.4h-151v-189.1h151z"/>
					<path id="&lt;Path&gt;" class="s2" d="m824.8 567h-32.7c-14.2 0-27.7-5.8-37.5-16.1h107.8c-9.8 10.3-23.3 16.1-37.6 16.1z"/>
				</g>
			</g>
			<g id="&lt;Group&gt;">
				<path id="&lt;Path&gt;" class="s1" d="m259 479.8h149.2l21.7 88.1h-149.3z"/>
				<path id="&lt;Path&gt;" class="s1" d="m280.6 567.9l0.6 4.9h149.3l-0.6-4.9z"/>
				<path id="&lt;Path&gt;" class="s2" d="m263.6 479.8h149.2l21.7 88.1h-149.3z"/>
				<path id="&lt;Path&gt;" class="s4" d="m288.4 563.9l-19.7-80.1h141l19.6 80.1z"/>
				<path id="&lt;Path&gt;" class="s2" d="m324.1 567.9l0.6 4.9h164.4l-0.6-4.9z"/>
			</g>
			<g id="&lt;Group&gt;">
				<path id="&lt;Path&gt;" class="s1" d="m526.6 764.8h-17.9v-192h17.9z"/>
				<path id="&lt;Path&gt;" class="s2" d="m532.2 764.8h-12.4v-192h12.4z"/>
				<path id="&lt;Path&gt;" class="s2" d="m305.6 594.8h230.5v-22h-230.5z"/>
				<path id="&lt;Path&gt;" class="s1" d="m297.6 764.8h-17.8v-170h17.8z"/>
				<path id="&lt;Path&gt;" class="s2" d="m303.3 764.8h-12.4v-170h12.4z"/>
				<path id="&lt;Path&gt;" class="s1" d="m184.5 764.8h-17.9v-170h17.9z"/>
				<path id="&lt;Path&gt;" class="s2" d="m190.1 764.8h-12.4v-170h12.4z"/>
				<path id="&lt;Path&gt;" class="s1" d="m413.4 764.8h-17.9v-170h17.9z"/>
				<path id="&lt;Path&gt;" class="s2" d="m419 764.8h-12.4v-170h12.4z"/>
				<path id="&lt;Path&gt;" class="s1" d="m305.6 594.8h-139v-22h139z"/>
			</g>
			<g id="&lt;Group&gt;">
				<path id="&lt;Path&gt;" class="s2" d="m584.7 764.8h-4.4l-12.4-61.3-2.2-10.7-13.6-66.8h-52l-28.1 138.8h-4.4l28.7-141.4c0.2-1 1.1-1.7 2.1-1.7h55.5c1 0 1.9 0.7 2.1 1.7l11.9 58.7 2.2 10.7z"/>
				<path id="&lt;Path&gt;" class="s2" d="m668.2 764.8h-4.4l-28.2-138.8h-52l-13.5 66.8-2.2 10.7-12.5 61.3h-4.3l14.6-72 2.2-10.7 11.9-58.7c0.2-1 1.1-1.7 2.1-1.7h55.5c1 0 1.9 0.7 2.1 1.7z"/>
				<path id="&lt;Path&gt;" class="s2" d="m540 623.9h95.5c18.3 0 28.4-12.4 33.6-32.9l2.5-11.7c2.1-9.6-1.5-19.7-9.6-25.3-3.9-2.7-8.7-4.3-13.8-4.3h-59.9c-12.4 0-15.7 3-24.3 21.7-8.5 18.7-24 52.5-24 52.5z"/>
				<path id="&lt;Path&gt;" class="s2" d="m498.6 605.5h93.5v18.4h-101.8c-2.7 0-4.8-2.2-4.8-4.8v-0.5c0-7.2 5.9-13.1 13.1-13.1z"/>
			</g>
		</g>
	</g>
	<g id="Shadow">
		<path id="&lt;Path&gt; 7 " class="s3" d="m887.8 832.5c0 12.5-173.6 22.6-387.8 22.6-214.2 0-387.8-10.1-387.8-22.6 0-12.5 173.6-22.7 387.8-22.7 214.2 0 387.8 10.2 387.8 22.7z"/>
	</g>
	<g id="Character Female">
		<g id="Character 3 ">
			<g id="&lt;Group&gt;">
				<g id="&lt;Group&gt;">
					<g id="&lt;Group&gt;">
						<path id="&lt;Path&gt;" class="s6" d="m406.1 768.5l-12.8 8.2-23.2-26.9 12.8-8.3z"/>
						<path id="&lt;Path&gt;" class="s7" d="m382.9 741.5l-12.8 8.3 11.9 13.9 12.8-8.3z"/>
					</g>
					<g id="&lt;Group&gt;">
						<path id="&lt;Path&gt;" class="s6" d="m308.2 812.5l-14.7 1.4-15.3-35 14.7-1.4z"/>
						<path id="&lt;Path&gt;" class="s7" d="m278.2 779l7.9 18h15.4l-8.6-19.5z"/>
					</g>
					<path id="&lt;Path&gt;" class="s8" d="m196.5 340c-7.4 0.7-7.6-11.9-20.6-6-16.6 7.6-11 19.2-23.9 18.7-12.9-0.5-21.5 9.6-18.6 17.1 2.9 7.5 7.3 14.6-1.8 17.6-9.1 3.1-15.3 5.7-14 13.3 1.3 7.5 7.8 10.6-3.1 15.4-10.9 4.8-9.8 25.7 0.9 25.7 10.6 0 0.4 10.4 10 20.9 9.5 10.6 24.1 12.1 30.1 6.8 6.1-5.3 12.8-9.5 24.2-1.5 11.4 8 30.7 10 29.9-2.7-0.9-12.6-12-21-1.6-27.6 10.5-6.6 24.1-9.8 19.8-22.7-2.7-8-10.9-14.9-4.3-20.9 10.7-9.7 10.8-31.7-2.3-37.3-7.7-3.2-0.3-19-24.7-16.8z"/>
					<path id="&lt;Path&gt;" class="s6" d="m182.2 438.8c-0.3 6-1.1 11.4-2 17q-1.4 8.4-3.6 16.6c-1.4 5.5-3.2 11-5.4 16.3q-1.7 4-3.7 8-1 2-2.1 3.9c-0.3 0.6-0.7 1.3-1.1 1.9l-0.6 1c-0.3 0.5-0.8 1.2-1.3 1.7-1 1.2-2.5 2.3-4 3-1.5 0.7-2.9 1-4.3 1.1-2.6 0.2-4.7-0.4-6.5-0.9-3.5-1.2-6.2-2.7-8.8-4.3-5-3.3-9.4-6.9-13.6-10.6-8.3-7.6-15.9-15.5-23-24.1l5.7-5.3c3.9 3.5 8 7.1 12.1 10.5 4.1 3.4 8.3 6.8 12.6 9.9 4.2 3.1 8.5 6.2 12.8 8.4 2.1 1.2 4.3 2.1 6 2.5 0.8 0.2 1.5 0.2 1.5 0.1q0.1 0-0.4 0.1c-0.2 0.1-0.5 0.4-0.7 0.5q-0.1 0.1-0.1 0.1c0 0-0.1 0.2 0 0l0.4-0.8c0.3-0.5 0.6-1 0.9-1.6q0.8-1.6 1.6-3.4 1.5-3.4 2.8-7c1.7-4.8 3.1-9.7 4.3-14.8 1.2-5 2.2-10.2 3-15.3 0.9-5.1 1.5-10.5 2-15.4z"/>
					<g id="&lt;Group&gt;">
						<path id="&lt;Path&gt;" class="s9" d="m193.8 440.7c-0.8 4.9-4.8 14-8 20.8-2.4 4.9-4.3 8.6-4.3 8.6l-2.8-1.2-23.2-10.3c1.8-12.5 4.6-26.1 18.4-32.2 8.7-3.8 21.4 5.7 19.9 14.3z"/>
						<path id="&lt;Path&gt;" class="s10" d="m193.8 440.7c-0.8 4.9-4.8 14-8 20.8-2.4 4.9-4.3 8.6-4.3 8.6l-2.8-1.2-23.2-10.3c1.8-12.5 4.6-26.1 18.4-32.2 8.7-3.8 21.4 5.7 19.9 14.3z"/>
					</g>
					<path id="&lt;Path&gt;" class="s11" d="m185.8 461.5c-2.4 4.9-4.3 8.6-4.3 8.6l-2.8-1.2c0.4-4.9 1.4-12.7 4-16.2 1.7 2.5 2.6 5.6 3.1 8.8z"/>
					<path id="&lt;Path&gt;" class="s6" d="m108.7 468.6l1.9-13.5-15.1 5c0 0 2.4 8.1 7.8 11.5z"/>
					<path id="&lt;Path&gt;" class="s6" d="m103.7 443.6l-10.5 5.8 2.3 10.7 15.1-5z"/>
					<path id="&lt;Path&gt;" class="s8" d="m388.5 772.7l13.9-10c0.5-0.3 1.2-0.3 1.6 0.2l9.5 9.8c1 1.1 0.8 2.8-0.4 3.7-4.9 3.4-7.4 4.7-13.6 9.1-3.7 2.7-11.6 9.2-16.8 13-5.1 3.6-9.2-1.2-7.4-3.3 8.2-9 10.4-15.2 11.7-20.2 0.3-1 0.8-1.8 1.5-2.3z"/>
					<path id="&lt;Path&gt;" class="s8" d="m291.6 809.4h18c0.7 0 1.3 0.5 1.5 1.1l3.9 14.3c0.4 1.5-0.7 2.8-2.2 2.8-6.4 0.1-9.4 0.1-17.3 0.1-4.9 0-17.6 0-24.3 0-6.6 0-8-6.7-5.3-7.3 12.3-2.7 19.3-6.4 23.1-10 0.7-0.7 1.6-1 2.6-1z"/>
					<g id="&lt;Group&gt;">
						<g id="&lt;Group&gt;">
							<path id="&lt;Path&gt;" class="s9" d="m264.1 494.9c-11.4 3.6-35.6 11.3-58.9 18.7-40.8-80.8-35-85.1-35-85.1 0 0 9.4-5.4 19.2-9.8q2.2-1.1 4.5-2c8.4-3.6 16.7-5.8 26.7-8.5q2-0.5 4-1c11.5-2.6 22.1-3.6 22.1-3.6 0.9 11.2 1.8 20.6 2.7 28.9 1.3 10.7 2.6 19.3 4.1 26.7 2.8 13.8 6.2 23.6 10.6 35.7z"/>
							<path id="&lt;Path&gt;" class="s10" d="m264.1 494.9c-11.4 3.6-35.6 11.3-58.9 18.7-40.8-80.8-35-85.1-35-85.1 0 0 9.4-5.4 19.2-9.8q2.2-1.1 4.5-2c8.4-3.6 16.7-5.8 26.7-8.5q2-0.5 4-1c11.5-2.6 22.1-3.6 22.1-3.6 0.9 11.2 1.8 20.6 2.7 28.9 1.3 10.7 2.6 19.3 4.1 26.7 2.8 13.8 6.2 23.6 10.6 35.7z"/>
						</g>
						<path id="&lt;Path&gt;" class="s11" d="m253.5 459.2c-5.7-8.1-11.1-26.6-9.7-33.6l5.6 6.9c1.3 10.7 2.6 19.3 4.1 26.7z"/>
					</g>
					<path id="&lt;Path&gt;" class="s4" d="m207.3 443.6c0 0 14.8-3.2 19.6 3.2 6.6-6.4 4.2-31.7 1.1-40.7-2.5 0.3-7.4 2.1-7.4 2.1l-10.5 16.3z"/>
					<path id="&lt;Path&gt;" class="s4" d="m207.3 443.6c0 0-10.1 2.2-11.1 10.4-14-10.4-13-25.7-9.9-34.7 2.3-1.4 7.6-2.6 7.6-2.6l10.5 11.6z"/>
					<g id="&lt;Group&gt;">
						<path id="&lt;Path&gt;" class="s6" d="m210.7 391.2c1.9 7.3 5 14.6 9.9 17 0 0 4.7 13.3-13.3 35.4-18.9-13.4-13.4-26.9-13.4-26.9 8.8-5.3 6.3-12.4 2.6-18.5l5.2-8.4c2.3-3.7 7.9-2.8 9 1.4z"/>
						<path id="&lt;Path&gt;" class="s7" d="m210.7 391.2c-1.1-4.2-6.7-5.1-9-1.4l-1.7 2.7q0 0 0 0c0.1 1.8 0.2 3.2 0.2 4-0.2 5.2 7.1 4.9 13.1 2.4-1.1-2.4-1.9-5-2.6-7.7z"/>
					</g>
					<path id="&lt;Path&gt;" class="s6" d="m174.5 371.1c5.2 14.2 7.1 20.3 16.6 25.5 14.3 7.9 30.6-1.6 29.7-17-0.7-13.9-9.1-34.8-24.9-36.3-15.7-1.6-26.6 13.6-21.4 27.8z"/>
					<path id="&lt;Compound Path&gt;" fill-rule="evenodd" class="s8" d="m212.1 350.6l-0.3 0.3q-0.6 0.7-1.8 1.8c-3.7 3.4-8.6 3.4-13 1.7-4 1.2-8 2.3-11.1 2.6 2.2 8 2 18.7-3.5 25.8-9.6 12.2-15.4-14-15.4-14l9.4-20.4c0 0 4.2-6.6 15.1-7.7 9.8-1.1 14.9 4.4 19.8 9.1 1.1-0.5 2-0.6 0.8 0.8zm-3 0.5c-2.8 0.5-6.5 1.7-10.4 2.8 5.6 1.3 9.2-1.2 10.4-2.8z"/>
					<path id="&lt;Path&gt;" class="s6" d="m175.2 385.5c1.6 2.7 4.3 4.4 6.8 5.1 3.7 0.9 5.5-2.5 4.4-6-1.1-3.1-4.2-7.4-8-6.8-3.6 0.6-5 4.6-3.2 7.7z"/>
					<g id="&lt;Group&gt;">
						<path id="&lt;Path&gt;" class="s9" d="m205.2 513.6c0 0-2.1 120.8 13.7 164.4 15.2 41.8 60.6 113.8 60.6 113.8l26.3-0.7c0 0-41.8-91.1-48.6-127.1-11.4-59.7-8.9-164.1-8.9-164.1z"/>
						<path id="&lt;Path&gt;" class="s11" d="m228.8 523.9l7-20 12.5-4c0 0-1.1 47.5 1.6 96.7-11.3-21.8-21.1-61.8-21.1-72.7z"/>
					</g>
					<path id="&lt;Path&gt;" class="s8" d="m275.8 793.1l32.4-0.8-1.8-10-35.5 1.7z"/>
					<path id="&lt;Path&gt;" class="s9" d="m218.1 509.7c0 0 41 93.8 67.5 147.1 21.4 43.2 88 101 88 101l18.2-12.7c0 0-50.1-68.5-64.9-97.7-47.3-93.6-35.6-132.1-62.8-152.5z"/>
					<path id="&lt;Path&gt;" class="s8" d="m374.6 763.8l21.4-15.2-4.8-9.4-23.6 17.8z"/>
					<path id="&lt;Path&gt;" class="s8" d="m263.9 491.2l4.3 4.4c0.4 0.4 0 0.9-0.7 1.2l-61.8 19.5c-0.5 0.2-1 0.1-1.2-0.3l-2.2-5.1c-0.1-0.3 0.2-0.8 0.8-1l59.7-18.9c0.4-0.1 0.9 0 1.1 0.2z"/>
					<path id="&lt;Path&gt;" class="s9" d="m258 500.4l1.6-0.5c0.3-0.1 0.5-0.4 0.4-0.5l-2.9-6.7c-0.1-0.2-0.4-0.2-0.7-0.1l-1.6 0.5c-0.4 0.1-0.6 0.3-0.5 0.5l3 6.6c0 0.2 0.4 0.3 0.7 0.2z"/>
					<path id="&lt;Path&gt;" class="s9" d="m210.4 515.5l1.6-0.5c0.3-0.1 0.5-0.4 0.4-0.6l-2.9-6.6c-0.1-0.2-0.4-0.3-0.8-0.2l-1.6 0.5c-0.3 0.1-0.5 0.4-0.4 0.6l2.9 6.6c0.1 0.2 0.5 0.3 0.8 0.2z"/>
					<path id="&lt;Path&gt;" class="s9" d="m234.2 507.9l1.6-0.5c0.3-0.1 0.5-0.3 0.4-0.5l-2.9-6.6c-0.1-0.2-0.4-0.3-0.7-0.2l-1.6 0.5c-0.4 0.1-0.6 0.3-0.5 0.5l2.9 6.7c0.1 0.2 0.5 0.2 0.8 0.1z"/>
					<path id="&lt;Path&gt;" class="s8" d="m199.4 368c0.3 1.1 1.2 1.9 2 1.7 0.8-0.3 1.1-1.4 0.8-2.6-0.4-1.1-1.3-1.9-2.1-1.7-0.7 0.2-1.1 1.4-0.7 2.6z"/>
					<path id="&lt;Path&gt;" class="s8" d="m212.7 364c0.3 1.2 1.2 1.9 2 1.7 0.8-0.2 1.1-1.3 0.8-2.5-0.4-1.2-1.3-2-2.1-1.7-0.7 0.2-1.1 1.3-0.7 2.5z"/>
					<path id="&lt;Path&gt;" class="s8" d="m213.1 361.6l2.6-1.6c0 0-0.8 2.6-2.6 1.6z"/>
					<path id="&lt;Path&gt;" class="s12" d="m209.4 367.1c0 0 3.5 4.4 6.4 6.2-1.1 1.9-4 2.1-4 2.1z"/>
					<path id="&lt;Path&gt;" class="s8" d="m207.8 381.8c0.2-0.1 0.2-0.2 0.2-0.4-0.1-0.2-0.3-0.3-0.5-0.2-5.1 1.5-8.6-1.4-8.7-1.4-0.1-0.1-0.4-0.1-0.5 0-0.1 0.2-0.1 0.4 0.1 0.5 0.1 0.2 3.8 3.2 9.3 1.6q0.1-0.1 0.1-0.1z"/>
					<path id="&lt;Path&gt;" class="s8" d="m194.4 364.7q0.1-0.1 0.2-0.3c1.1-3 3.7-3.6 3.7-3.6 0.4-0.1 0.6-0.5 0.6-0.9-0.1-0.3-0.5-0.6-0.9-0.5-0.1 0-3.4 0.8-4.8 4.5-0.1 0.4 0.1 0.8 0.4 1 0.3 0 0.6 0 0.8-0.2z"/>
					<path id="&lt;Path&gt;" class="s8" d="m216.7 356.5q0.1-0.1 0.1-0.2c0-0.4-0.2-0.7-0.6-0.8-3.9-0.8-6.3 1.6-6.4 1.7-0.2 0.3-0.2 0.7 0.1 1 0.2 0.3 0.7 0.3 1 0 0.1-0.1 1.9-1.9 5-1.3 0.4 0.1 0.7-0.1 0.8-0.4z"/>
					<path id="&lt;Path&gt;" class="s6" d="m255.7 417.7c2.3 1.8 4.3 3.5 6.4 5.3q3.1 2.6 6.1 5.4 5.8 5.7 11.2 11.8 5.3 6.2 9.9 13.1c0.8 1.1 1.5 2.3 2.3 3.5q1.1 1.7 2.1 3.6c0.7 1.2 1.4 2.3 2.1 3.7l1 2.2 0.9 2.3c2.1 6 2.6 11.9 2.6 17.6-0.2 5.6-0.8 11.1-1.8 16.5-1.1 5.3-2.4 10.5-4 15.7-1.6 5.1-3.4 10.1-5.6 15.1l-7.2-2.7c1.2-4.8 2.4-9.9 3.3-14.8 0.9-5 1.7-10 2.1-15 0.4-4.9 0.6-9.8 0.3-14.6-0.1-2.3-0.4-4.6-0.8-6.8-0.5-2.2-1.1-4.3-1.8-6.2l-0.6-1.4-0.7-1.2c-0.6-1-1.3-2.1-1.9-3.1q-1-1.5-2-3c-0.8-1-1.4-2-2.2-2.9-2.9-4-6.2-7.7-9.5-11.4-3.3-3.7-6.9-7.2-10.5-10.6q-2.7-2.5-5.5-5c-1.9-1.6-3.9-3.3-5.6-4.7z"/>
					<path id="&lt;Path&gt;" class="s6" d="m283.8 526l-10.9 8 14.1 7.4c0 0 4.1-7.4 2.8-13.5z"/>
					<path id="&lt;Path&gt;" class="s6" d="m269.4 547l11.5 3.5 6.1-9.1-14.1-7.4z"/>
					<g id="&lt;Group&gt;">
						<path id="&lt;Path&gt;" class="s9" d="m246.7 403.6c7.7-0.3 22.7 18.5 22.7 18.5l-15.6 22.1c0 0-17.6-14-18.9-23.7-1.2-8.3 2-16.5 11.8-16.9z"/>
						<path id="&lt;Path&gt;" class="s10" d="m246.7 403.6c7.7-0.3 22.7 18.5 22.7 18.5l-15.6 22.1c0 0-17.6-14-18.9-23.7-1.2-8.3 2-16.5 11.8-16.9z"/>
					</g>
					<path id="&lt;Compound Path&gt;" fill-rule="evenodd" class="s9" d="m383.3 779q-0.1 0-0.3 0-1-0.2-1.6-1.3c-0.2-0.5-0.1-0.9 0-1.2 1-1.7 6.5-2 7.1-2 0.2 0 0.3 0.1 0.4 0.2 0 0.2 0 0.3-0.1 0.4-1.3 1.5-3.6 3.9-5.5 3.9zm4.4-3.7c-2.2 0.2-5.1 0.7-5.6 1.6-0.1 0.1-0.2 0.2 0 0.5q0.4 0.8 1 0.8c1.1 0.2 2.7-0.9 4.6-2.9z"/>
					<path id="&lt;Compound Path&gt;" fill-rule="evenodd" class="s9" d="m388.2 775.3c-1.9 0-5.5-1.1-6.2-2.5-0.1-0.3-0.2-0.9 0.4-1.6q0.7-0.5 1.6-0.5c2.1 0.3 4.7 3.8 4.8 4q0.1 0.1 0.1 0.3-0.1 0.2-0.3 0.2-0.2 0.1-0.4 0.1zm-4.5-3.8q-0.4 0-0.8 0.3c-0.3 0.3-0.3 0.5-0.2 0.7 0.4 0.9 3.3 1.9 5.1 2-0.9-1.1-2.6-2.9-3.9-3q-0.1 0-0.2 0z"/>
					<path id="&lt;Compound Path&gt;" fill-rule="evenodd" class="s9" d="m283.6 812.4c-1.4 0-2.7-0.2-3.6-0.9q-0.8-0.6-0.9-1.7c0-0.5 0.3-0.8 0.5-1 1.6-1.1 7.8 1.7 9 2.3 0.1 0 0.2 0.2 0.2 0.3 0 0.2-0.1 0.3-0.3 0.4-1.3 0.2-3.2 0.6-4.9 0.6zm-2.9-3.1q-0.5 0-0.7 0.1c-0.1 0.1-0.2 0.2-0.2 0.4q0.1 0.7 0.7 1.2c1 0.8 3.5 0.9 6.8 0.3-2.3-1-5.2-2-6.6-2z"/>
					<path id="&lt;Compound Path&gt;" fill-rule="evenodd" class="s9" d="m288.4 811.8q0 0-0.1-0.1c-2-0.8-6.2-4.1-5.9-5.8 0-0.4 0.3-0.8 1.2-0.9 3.6-0.5 5.1 6 5.2 6.3q0 0.2-0.1 0.4-0.1 0.1-0.3 0.1zm-4.5-6.1q-0.1 0-0.2 0-0.6 0-0.6 0.3c-0.1 1 2.7 3.6 4.8 4.7-0.5-1.5-1.8-5-4-5z"/>
					<path id="&lt;Path&gt;" class="s8" d="m199.8 365.6l2.6-1.7c0 0-0.8 2.7-2.6 1.7z"/>
				</g>
			</g>
		</g>
	</g>
	<g id="Account">
		<g id="&lt;Group&gt;">
			<g id="&lt;Group&gt;">
				<path id="&lt;Path&gt;" class="s13" d="m577.3 219.3h-290.7c-13.2 0-23.5 10.8-22.9 24l27.3 565.2c0.6 13.2 12 24 25.2 24h290.6c13.2 0 23.5-10.8 22.9-24l-27.3-565.2c-0.6-13.2-11.9-24-25.1-24z"/>
				<path id="&lt;Path&gt;" class="s8" d="m587.9 219.3h-290.6c-13.2 0-23.5 10.8-22.9 24l27.3 565.2c0.6 13.2 11.9 24 25.1 24h290.7c13.2 0 23.5-10.8 22.8-24l-27.2-565.2c-0.7-13.2-12-24-25.2-24z"/>
				<path id="&lt;Path&gt;" class="s9" d="m326 816.5c-4.3 0-8.1-3.7-8.3-8l-27.3-565.2c-0.2-4.3 3.3-8 7.6-8h290.7c4.3 0 8.2 3.7 8.4 8l27.2 565.2c0.2 4.3-3.3 8-7.6 8z"/>
				<path id="&lt;Path&gt;" class="s14" d="m325.9 812.5c-2.2 0-4.1-1.9-4.2-4l-27.3-565.2c-0.1-2.1 1.7-4 3.8-4h290.7c2.1 0 4.1 1.9 4.2 4l27.2 565.2c0.1 2.1-1.6 4-3.8 4z"/>
			</g>
			<g id="&lt;Group&gt;">
				<g id="&lt;Group&gt;" style="opacity: .3">
					<path id="&lt;Compound Path&gt;" fill-rule="evenodd" class="s5" d="m413.6 779.9h-57.7c-3.2 0-6-2.6-6.1-5.9l-4.2-87.4c-0.1-1.6 0.4-3.1 1.5-4.2 1.1-1.1 2.5-1.7 4.1-1.7h57.7c3.2 0 6 2.6 6.1 5.8l4.3 87.5c0 1.5-0.5 3-1.6 4.2-1.1 1.1-2.5 1.7-4.1 1.7zm-62.4-97.2c-1 0-2 0.4-2.7 1.1-0.6 0.7-1 1.7-1 2.7l4.3 87.5c0.1 2.1 1.9 3.9 4.1 3.9h57.7c1 0 2-0.4 2.7-1.1 0.7-0.7 1-1.7 1-2.8l-4.3-87.4c-0.1-2.2-1.9-3.9-4.1-3.9z"/>
					<g id="&lt;Group&gt;">
						<path id="&lt;Path&gt;" class="s5" d="m408.1 703h-54.2c-0.5 0-1-0.4-1-1 0-0.5 0.5-1 1-1h54.2c0.6 0 1 0.5 1 1 0 0.6-0.4 1-1 1z"/>
						<path id="&lt;Path&gt;" class="s5" d="m408.7 714.3h-54.2c-0.6 0-1-0.4-1-1 0-0.5 0.4-1 1-1h54.2c0.5 0 1 0.5 1 1 0 0.6-0.5 1-1 1z"/>
						<path id="&lt;Path&gt;" class="s5" d="m409.2 725.6h-54.2c-0.5 0-1-0.4-1-1 0-0.5 0.5-1 1-1h54.2c0.6 0 1 0.5 1 1 0 0.6-0.4 1-1 1z"/>
						<path id="&lt;Path&gt;" class="s5" d="m409.8 736.9h-54.2c-0.6 0-1-0.4-1-1 0-0.5 0.4-1 1-1h54.2c0.5 0 1 0.5 1 1 0 0.6-0.5 1-1 1z"/>
						<path id="&lt;Path&gt;" class="s5" d="m410.3 748.2h-54.2c-0.5 0-1-0.4-1-1 0-0.5 0.5-1 1-1h54.2c0.6 0 1 0.5 1 1 0 0.6-0.4 1-1 1z"/>
						<path id="&lt;Path&gt;" class="s5" d="m399.8 759.5h-43.1c-0.6 0-1-0.4-1-1 0-0.5 0.4-1 1-1h43.1c0.5 0 1 0.5 1 1 0 0.6-0.5 1-1 1z"/>
					</g>
				</g>
				<g id="&lt;Group&gt;" style="opacity: .3">
					<path id="&lt;Compound Path&gt;" fill-rule="evenodd" class="s5" d="m449.9 459.3l-39.6 6.3q-3.3-7.6-5.9-10.6-2.5-2.9-8.2-5.9l1.4 31q33 8.7 44.4 18.3 15.1 13 16.1 32.9 0.5 11.7-4.2 21.4-4.7 9.8-12.5 16.3-7.8 6.6-16.7 9.5-9 3-22.1 3.5l0.2 5.5c0.2 4.3-3.1 7.8-7.4 7.8-4.3 0-8-3.5-8.2-7.8l-0.3-5.5q-15.8-1.4-25.8-5.1-9.9-3.7-17.4-10.2-7.4-6.5-11.6-14.1-4.3-7.5-6.7-18.3l43-5q2.5 10.6 6 15.3 3.4 4.7 11.1 8.4l-1.8-37.9q-21.9-6-31.2-10.4-9.3-4.4-16.4-14.1-7.1-9.7-7.7-23.6-1-19.1 11.8-31.9 12.7-12.8 39-14.2l-0.2-2.8c-0.2-4.3 3.1-7.8 7.5-7.8 4.3 0 8 3.5 8.2 7.8l0.1 2.8q24.1 1.5 37.2 11.4 13.2 9.8 17.9 27zm-69.4-10.7q-6.8 2.2-9.3 5.5-2.5 3.4-2.3 7.9 0.3 4.7 3.1 8.2 2.9 3.5 9.8 5.9zm20.7 105.5q9-2 13-6.7 4.1-4.7 3.8-10.5-0.3-5-4.1-9.3-3.7-4.2-14.3-7.9z"/>
				</g>
			</g>
			<g id="&lt;Group&gt;">
				<path id="&lt;Path&gt;" class="s7" d="m554.4 293.1h-197.9l19.3 400.2c1.6 33.8 30.3 61.1 64 61.1h197.9l-19.3-400.2c-1.6-33.7-30.3-61.1-64-61.1z"/>
				<g id="&lt;Group&gt;">
					<path id="&lt;Path&gt;" class="s5" d="m602.9 293.1h-185.3-61.1c33.7 0 62.4 27.4 64 61.1l15.7 325.8c1.6 33.7 30.3 61.1 64 61.1h124.3c33.7 0 59.8-27.4 58.1-61.1l-15.7-325.8c-1.6-33.7-30.3-61.1-64-61.1z"/>
					<path id="&lt;Path&gt;" class="s1" d="m558.4 680c1.6 33.7-24.4 61.1-58.2 61.1h61.1 185.4c33.7 0 59.7-27.4 58.1-61.1z"/>
				</g>
				<g id="&lt;Group&gt;">
					<path id="&lt;Path&gt;" class="s9" d="m637.6 495.3h-174.2c-2.5 0-4.6-2-4.7-4.5-0.1-2.5 1.8-4.5 4.3-4.5h174.2c2.5 0 4.6 2 4.7 4.5 0.1 2.5-1.8 4.5-4.3 4.5z"/>
					<path id="&lt;Path&gt;" class="s9" d="m639 523.7h-174.2c-2.5 0-4.6-2.1-4.8-4.6-0.1-2.5 1.9-4.5 4.4-4.5h174.1c2.5 0 4.7 2 4.8 4.5 0.1 2.5-1.8 4.6-4.3 4.6z"/>
					<path id="&lt;Path&gt;" class="s9" d="m640.3 552h-174.1c-2.5 0-4.7-2-4.8-4.5-0.1-2.5 1.8-4.6 4.3-4.6h174.2c2.5 0 4.6 2.1 4.8 4.6 0.1 2.5-1.9 4.5-4.4 4.5z"/>
					<path id="&lt;Path&gt;" class="s9" d="m641.7 580.4h-174.2c-2.5 0-4.6-2.1-4.7-4.6-0.1-2.5 1.8-4.5 4.3-4.5h174.2c2.5 0 4.6 2 4.7 4.5 0.1 2.5-1.8 4.6-4.3 4.6z"/>
					<path id="&lt;Path&gt;" class="s9" d="m573.8 608.7h-104.9c-2.5 0-4.6-2-4.8-4.5-0.1-2.5 1.9-4.6 4.4-4.6h104.9c2.5 0 4.6 2.1 4.7 4.6 0.2 2.5-1.8 4.5-4.3 4.5z"/>
				</g>
				<g id="&lt;Group&gt;">
					<path id="&lt;Path&gt;" class="s9" d="m600.5 397.4c1.5 30.2-21.8 54.7-52.1 54.7-30.2 0-55.9-24.5-57.3-54.7-1.5-30.2 21.8-54.7 52.1-54.7 30.2 0 55.9 24.5 57.3 54.7z"/>
					<path id="&lt;Path&gt;" class="s4" d="m591 397.4c0.3 7.8-1.3 15.1-4.5 21.5-6.9 14.1-21.4 23.7-38.5 23.7-17.2 0-32.6-9.6-40.9-23.7-3.8-6.4-6.1-13.7-6.5-21.5-1.2-24.9 18.1-45.2 43-45.2 25 0 46.1 20.3 47.4 45.2z"/>
					<path id="&lt;Path&gt;" class="s15" d="m586.5 418.9c-6.9 14.1-21.4 23.7-38.5 23.7-17.2 0-32.6-9.6-40.9-23.7 11-7.6 24.5-12 39.2-12 14.6 0 28.5 4.4 40.2 12z"/>
					<path id="&lt;Path&gt;" class="s15" d="m565.2 382c0.5 11.1-8.1 20.1-19.2 20.1-11.1 0-20.5-9-21.1-20.1-0.5-11.2 8.1-20.2 19.2-20.2 11.1 0 20.5 9 21.1 20.2z"/>
				</g>
			</g>
		</g>
	</g>
	<g id="Character Male">
		<g id="&lt;Group&gt;">
			<g id="&lt;Group&gt;">
				<path id="&lt;Path&gt;" class="s16" d="m713.5 817.5h-14.7l-1.4-34.1h14.7z"/>
				<path id="&lt;Path&gt;" class="s7" d="m697.4 783.5l0.7 17.5h14.7l-0.7-17.5z"/>
			</g>
			<g id="&lt;Group&gt;">
				<path id="&lt;Path&gt;" class="s16" d="m838.6 777.6l-14 4.6-17.6-30.1 14-4.6z"/>
				<path id="&lt;Path&gt;" class="s7" d="m821 747.5l-13.9 4.6 9 15.5 14-4.6z"/>
			</g>
			<path id="&lt;Path&gt;" class="s16" d="m763.2 325.8c1.8 2.3 3.4 4.2 4.9 6.4q2.4 3.2 4.6 6.4 4.5 6.5 8.5 13.4c5.3 9.2 10.1 18.8 13.4 29.4l0.4 1 0.1 0.5 0.3 0.9 0.4 1.6 0.2 1.5c0.3 2 0.3 3.7 0.2 5.4-0.2 3.3-0.7 6.3-1.3 9.1-1.3 5.6-3.1 10.7-5 15.6-4 9.9-8.8 19-14.4 27.9l-9.9-4.8c3-9.3 5.9-18.9 8.2-28.3 1.2-4.6 2.1-9.3 2.6-13.7 0.2-2.1 0.3-4.2 0.2-5.9 0-0.9-0.1-1.7-0.3-2.2l-0.1-0.3q0-0.1-0.1-0.2v-0.1l-0.2-0.4-0.3-0.8-1.3-3.1-1.5-3.1c-1-2.1-2.1-4.2-3.2-6.3-2.3-4.1-4.8-8.2-7.3-12.3q-3.9-6-8.1-12c-2.7-4-5.7-8-8.4-11.6z"/>
			<path id="&lt;Path&gt;" class="s16" d="m766.5 437.8l-5.8 12.7h16.4c0 0 2.7-9.7-3.3-13.6z"/>
			<path id="&lt;Path&gt;" class="s16" d="m762.6 464.7l15.3-2.9-0.8-11.3h-16.4z"/>
			<path id="&lt;Path&gt;" class="s8" d="m690.4 261.4c0 1.2-0.6 2.1-1.4 2.1-0.7 0-1.4-0.9-1.4-2.1 0-1.2 0.7-2.2 1.4-2.2 0.8 0 1.4 1 1.4 2.2z"/>
			<path id="&lt;Path&gt;" class="s17" d="m689.9 263.5c0 0-2.7 6.9-5.6 10.2 2.1 1.9 5.6 1 5.6 1z"/>
			<path id="&lt;Path&gt;" class="s8" d="m694.6 254.8q-0.2 0-0.4-0.1c-2.5-1.8-4.9-0.9-4.9-0.9-0.4 0.1-0.8-0.1-0.9-0.4-0.1-0.4 0-0.8 0.4-0.9 0.1-0.1 3.1-1.2 6.3 1.1 0.3 0.2 0.3 0.6 0.1 0.9-0.1 0.2-0.3 0.3-0.6 0.3z"/>
			<path id="&lt;Path&gt;" class="s16" d="m728.7 275c-2.1 10.8-4.2 30.5 3.3 37.7 0 0-2.9 10.9-22.9 10.9-22 0-10.5-10.9-10.5-10.9 12-2.9 11.7-11.8 9.6-20.1z"/>
			<path id="&lt;Path&gt;" class="s8" d="m734.9 316.4c1.6-3.4 3.3-7.4-0.3-8.6-3.9-1.4-25.5-2.8-33-0.2-7.4 2.5-5.3 9.5-5.3 9.5z"/>
			<path id="&lt;Compound Path&gt;" fill-rule="evenodd" class="s9" d="m821.6 785.7c-1.1 1-2.3 1.8-3.2 1.7-0.4-0.1-0.9-0.3-1.2-1.2q-0.1-0.7 0.3-1.3c1.2-1.9 6-2.7 6.2-2.7 0.2 0 0.3 0 0.4 0.1 0.1 0.1 0.1 0.3 0 0.4-0.4 0.7-1.4 1.9-2.5 3zm-3.3-0.8q-0.1 0.2-0.2 0.3-0.3 0.4-0.2 0.8c0.2 0.6 0.5 0.7 0.6 0.7 1 0.2 3.2-1.9 4.5-3.7-1.4 0.3-3.7 1-4.7 1.9z"/>
			<path id="&lt;Compound Path&gt;" fill-rule="evenodd" class="s9" d="m824 782.8q0 0-0.1 0.1c-1.7 0.4-6 0.1-6.9-1.3-0.2-0.2-0.4-0.8 0.1-1.4q0.5-0.6 1.4-0.7c2.2-0.2 5.4 2.6 5.5 2.8q0.2 0.1 0.1 0.3 0 0.1-0.1 0.2zm-6.2-2.3q-0.1 0.1-0.1 0.1c-0.3 0.4-0.2 0.6-0.2 0.6 0.6 0.9 3.6 1.3 5.5 1.1-1-0.8-3-2.2-4.4-2.1q-0.5 0-0.8 0.3z"/>
			<path id="&lt;Compound Path&gt;" fill-rule="evenodd" class="s9" d="m692.9 818.2c-1.9 0-3.7-0.2-4.3-1.1-0.2-0.3-0.4-0.8 0-1.5q0.4-0.6 1.1-0.8c2.5-0.7 7.6 2.2 7.8 2.4 0.2 0 0.2 0.2 0.2 0.3 0 0.2-0.1 0.3-0.3 0.3-0.9 0.2-2.7 0.4-4.5 0.4zm-2.3-2.8q-0.4 0-0.7 0.1-0.5 0.1-0.7 0.4c-0.2 0.5-0.1 0.7 0 0.8 0.7 1 4.4 1 7.1 0.6-1.4-0.7-4-1.9-5.7-1.9z"/>
			<path id="&lt;Compound Path&gt;" fill-rule="evenodd" class="s9" d="m697.4 817.8q-0.1 0-0.2 0c-1.7-0.8-5.3-4-5-5.6 0.1-0.4 0.3-0.9 1.3-1q1.1-0.1 1.9 0.6c1.9 1.5 2.3 5.5 2.3 5.6q0 0.2-0.1 0.4-0.1 0-0.2 0zm-3.6-5.9q-0.1 0-0.2 0c-0.7 0-0.7 0.3-0.7 0.4-0.2 1 2.2 3.5 4 4.5-0.2-1.1-0.7-3.5-1.9-4.5q-0.6-0.4-1.2-0.4z"/>
			<path id="&lt;Path&gt;" class="s8" d="m823.4 780.5l11.9-11.4c0.5-0.4 1.1-0.5 1.6-0.1l11.2 7.4c1.1 0.8 1.2 2.4 0.2 3.4-4.2 3.9-6.5 5.6-11.7 10.6-3.3 3.1-12.9 13.6-17.4 17.9-4.3 4.1-9.2 0.4-7.8-1.8 6.5-9.6 10.5-18.8 10.9-23.7 0.1-0.8 0.5-1.7 1.1-2.3z"/>
			<path id="&lt;Path&gt;" class="s8" d="m698.9 815.8h16.1c0.6 0 1.1 0.4 1.2 1l2.9 13c0.3 1.4-0.7 2.7-2.1 2.6-5.8 0-14.1-0.4-21.4-0.4-8.5 0-15.9 0.5-25.8 0.5-6.1 0-7.7-6.1-5.2-6.7 11.5-2.5 20.9-2.8 30.8-8.9 1.1-0.6 2.3-1.1 3.5-1.1z"/>
			<path id="&lt;Path&gt;" class="s16" d="m678 346c-5.9 8.6-11.9 16.7-18.4 24.6-6.5 7.9-13.3 15.6-20.8 23l-2.9 2.7-0.7 0.7-0.5 0.5-0.8 0.6c-0.9 0.8-2 1.5-3 2-4 2.2-7.6 2.7-10.9 3.1-6.4 0.5-11.9-0.4-17.3-1.5-10.6-2.3-20.2-5.8-29.7-10.4l3.7-10.4c9.4 1.7 19.2 3.3 28.3 3.9 4.6 0.2 9.1 0.1 12.6-0.6 1.7-0.3 3-0.9 3.3-1.3 0.1 0 0.1-0.1 0.1-0.1q-0.1 0-0.1 0c0 0 0 0 0 0l0.2-0.2 0.6-0.6 2.3-2.6c6.3-7.1 12.3-14.7 18.2-22.5 5.9-7.7 11.8-15.7 17.4-23.5z"/>
			<g id="&lt;Group&gt;">
				<path id="&lt;Path&gt;" class="s9" d="m758.3 316c13.8 3.1 29.6 40.7 29.6 40.7l-27.7 18.9c0 0-10.5-14.6-18.2-31-8.2-17.2 2.2-31.8 16.3-28.6z"/>
				<path id="&lt;Path&gt;" class="s11" d="m748.4 339.9l13.1 34.8-1.3 0.9c0 0-5.6-7.9-11.8-18.6z"/>
			</g>
			<g id="&lt;Group&gt;">
				<path id="&lt;Path&gt;" class="s9" d="m676 316.7c0 0-15.6 17.7-0.9 127 23.7 0 67.1 0 78.6 0 0.6-12-7-70.9 4.6-127.7 0 0-13.5-2.7-26.3-3.3-10-0.5-24.6-0.8-33.4 0-11.6 1-22.6 4-22.6 4z"/>
				<path id="&lt;Path&gt;" class="s11" d="m684.7 348.4c-0.2 0.3-2 18-15.5 33.6-0.3-7-0.4-13.4-0.4-19z"/>
			</g>
			<path id="&lt;Path&gt;" class="s9" d="m691.5 328.7c1.9 13.9-25.5 49.4-25.5 49.4l-27.5-19c0 0 7.6-19.5 20.5-32.4 14.7-14.6 30.4-13.2 32.5 2z"/>
			<path id="&lt;Path&gt;" class="s16" d="m578.6 381.9l-10.7-11.1-11.5 14.8c0 0 8.7 8.5 19.1 6.1z"/>
			<path id="&lt;Path&gt;" class="s16" d="m553.1 364.7l-5 15.5 8.3 5.4 11.5-14.8z"/>
			<path id="&lt;Path&gt;" class="s16" d="m730 258.9c-0.9 14.5-0.7 23.1-8.1 30.6-11 11.2-29 4.5-32.4-10-3.2-13.1-1.2-34.7 13.1-40.5 14-5.7 28.3 5.3 27.4 19.9z"/>
			<path id="&lt;Path&gt;" class="s8" d="m742.7 228.5c4.4 4.1 2.5 8.7 0.2 9.6 7.3 1.5 8.3 7.3 4.5 19.5-3.6 11.6-12.5 27.3-23.5 28.3-16.5 1.4-21.4-15.9-21.5-33-9.4 0.6-5.3-7.7-16.8-5.8-9.9 1.7-6.3-6.1-14.8-9.5-9.8-4-7.8-19.1 1.4-14.8 0 0-4.3 2.8 0.7 5.5 4.9 2.6 4.4-3.5 14.3-4.2 9.8-0.8 10.9 7.6 22.4 2.6 14.5-6.4 23.9-6.7 33.1 1.8z"/>
			<path id="&lt;Path&gt;" class="s8" d="m737.1 237.9c0 0 1.9-3.4 6.4-2.5 4.5 1 4.9 3 7.7 2.7 2.8-0.2 1.8 2.8 1.8 2.8 0 0-0.8-2.3-4.2-1-3.4 1.2-5.6-1.9-7-0.5-1.5 1.4-4.7-1.5-4.7-1.5z"/>
			<path id="&lt;Path&gt;" class="s16" d="m710.2 262.8c-0.6 3.8-2.7 7.2-5.1 9.3-3.6 3.1-6.6 0.6-6.8-3.7 0-3.9 1.7-10.3 5.8-11.8 4-1.5 6.9 1.9 6.1 6.2z"/>
			<path id="&lt;Path&gt;" class="s8" d="m703 443.7c0 0 16.7 112.3 25.8 154.4 10.1 46.1 79.7 168.4 79.7 168.4l25.6-8.3c0 0-55.5-110.3-61.2-155.9-6.2-49.5-19.2-158.6-19.2-158.6z"/>
			<path id="&lt;Path&gt;" class="s9" d="m801.4 758.4c-0.1 0 5.8 9 5.8 9l28.8-9.4-3.4-8.6z"/>
			<path id="&lt;Path&gt;" class="s11" d="m713.5 483.7c19.3 3.8 17.3 75.7 15 112.7-5.6-26.1-13.7-76.4-19.3-112.1 1.3-0.7 2.7-0.9 4.3-0.6z"/>
			<path id="&lt;Path&gt;" class="s8" d="m675.1 443.7c0 0-2 109.9-0.4 154.7 1.7 46.6 17.9 199.2 17.9 199.2h24.9c0 0 0.9-149.9 2.1-195.6 1.2-49.9 7.2-158.3 7.2-158.3z"/>
			<path id="&lt;Path&gt;" class="s9" d="m687.9 787.7c-0.2 0 1.4 10.3 1.4 10.3h30.2l0.9-9.2z"/>
		</g>
	</g>
</svg>