<svg version="1.2" xmlns="http://www.w3.org/2000/svg" viewBox="0 0 1000 1000" width="1000" height="1000">
	<title>5216290</title>
	<style>
		.s0 { fill: #ebebeb } 
		.s1 { fill: #e0e0e0 } 
		.s2 { fill: #f5f5f5 } 
		.s3 { fill: #fafafa } 
		.s4 { fill: #e6e6e6 } 
		.s5 { fill: #f0f0f0 } 
		.s6 { fill: #263238 } 
		.s7 { opacity: .2;fill: #ffffff } 
		.s8 { fill: #ffc3bd } 
		.s9 { fill: #407bff } 
		.s10 { opacity: .7;fill: #ffffff } 
		.s11 { opacity: .2;fill: #263238 } 
		.s12 { fill: #ed893e } 
		.s13 { opacity: .6;fill: #ffffff } 
		.s14 { opacity: .4;fill: #ffffff } 
		.s15 { opacity: .3;fill: #ffffff } 
		.s16 { opacity: .5;fill: #ffffff } 
		.s17 { fill: #ffffff } 
		.s18 { fill: #000000 } 
		.s19 { opacity: .1;fill: #ffffff } 
		.s20 { opacity: .8;fill: #ffffff } 
		.s21 { opacity: .1;fill: #000000 } 
		.s22 { opacity: .2;fill: #000000 } 
		.s23 { fill: #b55b52 } 
		.s24 { fill: #a02724 } 
		.s25 { opacity: .3;fill: #000000 } 
		.s26 { opacity: .9;fill: #ffffff } 
		.s27 { fill: #b97964 } 
		.s28 { opacity: .6;fill: #000000 } 
		.s29 { fill: #a24e3f } 
		.s30 { fill: #2e353a } 
	</style>
	<g id="Background Complete">
		<g id="&lt;Group&gt;">
			<path id="&lt;Path&gt;" class="s0" d="m833.6 797h66.2v0.5h-66.2z"/>
			<path id="&lt;Path&gt;" class="s0" d="m645.1 802.4h17.3v0.5h-17.3z"/>
			<path id="&lt;Path&gt;" class="s0" d="m793.2 778.4h38.4v0.5h-38.4z"/>
			<path id="&lt;Path&gt;" class="s0" d="m104.9 781.8h86.4v0.5h-86.4z"/>
			<path id="&lt;Path&gt;" class="s0" d="m209.1 781.8h12.7v0.5h-12.7z"/>
			<path id="&lt;Path&gt;" class="s0" d="m262.9 790.2h187.4v0.5h-187.4z"/>
			<path id="&lt;Compound Path&gt;" fill-rule="evenodd" class="s0" d="m474 675.6h-386.2c-6.3 0-11.4-5.1-11.4-11.4v-542.9c0-6.3 5.1-11.4 11.4-11.4h386.2c6.3 0 11.4 5.1 11.4 11.4v542.9c0 6.3-5.1 11.4-11.4 11.4zm-386.2-565.2c-6 0-10.9 4.9-10.9 10.9v542.9c0 6 4.9 10.9 10.9 10.9h386.2c6 0 10.9-4.9 10.9-10.9v-542.9c0-6-4.9-10.9-10.9-10.9z"/>
			<path id="&lt;Compound Path&gt;" fill-rule="evenodd" class="s0" d="m906.6 675.6h-386.2c-6.3 0-11.4-5.1-11.4-11.4v-542.9c0-6.3 5.1-11.4 11.4-11.4h386.2c6.3 0 11.4 5.1 11.4 11.4v542.9c0 6.3-5.1 11.4-11.4 11.4zm-386.2-565.2c-6 0-10.9 4.9-10.9 10.9v542.9c0 6 4.9 10.9 10.9 10.9h386.2c6 0 10.9-4.9 10.9-10.9v-542.9c0-6-4.9-10.9-10.9-10.9z"/>
			<path id="&lt;Path&gt;" class="s0" d="m1000 765.3h-1000v-0.5h1000z"/>
		</g>
		<g id="&lt;Group&gt;">
			<path id="&lt;Path&gt;" class="s1" d="m624.3 764.3h-451.3l-3.7-12.8h458.7z"/>
			<g id="&lt;Group&gt;">
				<g id="&lt;Group&gt;">
					<path id="&lt;Path&gt;" class="s0" d="m394.3 663h-245.7v-84.8h245.7z"/>
					<path id="&lt;Path&gt;" class="s0" d="m394.3 747.8h-245.7v-84.8h245.7z"/>
					<path id="&lt;Path&gt;" class="s1" d="m148.6 591.2v-8.6h245.7v8.6z"/>
					<path id="&lt;Path&gt;" class="s1" d="m148.6 675.4v-8.6h245.7v8.6z"/>
					<path id="&lt;Compound Path&gt;" fill-rule="evenodd" class="s2" d="m398.6 574.4v177.1h-254.3v-177.1zm-8.6 93.1h-237.2v75.4h237.2zm0-84h-237.2v75.5h237.2z"/>
					<g id="&lt;Group&gt;">
						<path id="&lt;Path&gt;" class="s0" d="m648.7 663h-245.8v-84.8h245.8z"/>
						<path id="&lt;Path&gt;" class="s0" d="m648.7 747.8h-245.8v-84.8h245.8z"/>
						<path id="&lt;Path&gt;" class="s1" d="m402.9 591.2v-8.6h245.8v8.6z"/>
						<path id="&lt;Path&gt;" class="s1" d="m402.9 675.4v-8.6h245.8v8.6z"/>
						<path id="&lt;Compound Path&gt;" fill-rule="evenodd" class="s2" d="m653 574.4v177.1h-254.4v-177.1zm-8.6 93.1h-237.1v75.4h237.1zm0-84h-237.1v75.5h237.1z"/>
					</g>
				</g>
				<g id="&lt;Group&gt;">
					<path id="&lt;Path&gt;" class="s1" d="m533.2 628.5c0 4.1-3.3 7.4-7.4 7.4-4.1 0-7.4-3.3-7.4-7.4 0-4 3.3-7.4 7.4-7.4 4.1 0 7.4 3.4 7.4 7.4z"/>
					<path id="&lt;Path&gt;" class="s3" d="m533.2 626.4c0 4.1-3.3 7.4-7.4 7.4-4.1 0-7.4-3.3-7.4-7.4 0-4 3.3-7.3 7.4-7.3 4.1 0 7.4 3.3 7.4 7.3z"/>
				</g>
				<g id="&lt;Group&gt;">
					<path id="&lt;Path&gt;" class="s1" d="m533.2 706.4c0 4.1-3.3 7.4-7.4 7.4-4.1 0-7.4-3.3-7.4-7.4 0-4 3.3-7.3 7.4-7.3 4.1 0 7.4 3.3 7.4 7.3z"/>
					<path id="&lt;Path&gt;" class="s3" d="m533.2 704.4c0 4-3.3 7.3-7.4 7.3-4.1 0-7.4-3.3-7.4-7.3 0-4.1 3.3-7.4 7.4-7.4 4.1 0 7.4 3.3 7.4 7.4z"/>
				</g>
				<g id="&lt;Group&gt;">
					<path id="&lt;Path&gt;" class="s1" d="m278.8 628.5c0 4.1-3.3 7.4-7.3 7.4-4.1 0-7.4-3.3-7.4-7.4 0-4 3.3-7.4 7.4-7.4 4 0 7.3 3.4 7.3 7.4z"/>
					<path id="&lt;Path&gt;" class="s3" d="m278.8 626.4c0 4.1-3.3 7.4-7.3 7.4-4.1 0-7.4-3.3-7.4-7.4 0-4 3.3-7.3 7.4-7.3 4 0 7.3 3.3 7.3 7.3z"/>
				</g>
				<g id="&lt;Group&gt;">
					<path id="&lt;Path&gt;" class="s1" d="m278.8 706.4c0 4.1-3.3 7.4-7.3 7.4-4.1 0-7.4-3.3-7.4-7.4 0-4 3.3-7.3 7.4-7.3 4 0 7.3 3.3 7.3 7.3z"/>
					<path id="&lt;Path&gt;" class="s3" d="m278.8 704.4c0 4-3.3 7.3-7.3 7.3-4.1 0-7.4-3.3-7.4-7.3 0-4.1 3.3-7.4 7.4-7.4 4 0 7.3 3.3 7.3 7.4z"/>
				</g>
			</g>
		</g>
		<g id="&lt;Group&gt;">
			<g id="&lt;Group&gt;">
				<path id="&lt;Path&gt;" class="s1" d="m743 546.2c4.4-5 10.8-10.4 17.6-11.4 20.6-3.3 18.3 39 18.1 49.8-0.1 2 2.9 2 3 0 0.2-12.7 2.5-52.8-18.9-53-8.3-0.1-16.6 6.5-21.9 12.4-1.3 1.5 0.8 3.6 2.1 2.2z"/>
			</g>
			<g id="&lt;Group&gt;">
				<path id="&lt;Path&gt;" class="s1" d="m807.2 520.2c-4.3 0.6-7.6 5.6-9.6 8.9-9.5 16-10.1 37.6-10.7 55.5-0.1 2 2.9 1.9 3 0 0.5-17.2 1.1-37.4 9.7-53 1.6-2.9 4.5-7.9 8.4-8.5 1.9-0.3 1-3.2-0.8-2.9z"/>
			</g>
			<path id="&lt;Path&gt;" class="s0" d="m741.9 545.1c0 0-18.5-30.7-32.2-3-2.2 4.5-3.5 9.2-4.2 13.9 5.7-2.5 17.8-7.1 18-0.9 0.1 5-7 13.3-12.4 19-3.1 3.1-4.3 7.7-3.1 12 3.1 10.9 7.2 18.5 7.2 18.5 0 0 4.1-1.5 10.1-4.4 3.8-1.8 6.5-5.3 7.3-9.4 0.8-4.6 2.3-9.3 4.7-10.7 2.4-1.5 4.4 1.2 5.7 4.3 1.1 2.5 4.2 3.4 6.4 1.7 3-2.1 5.9-4.4 8.6-6.9 1.6-1.5 1.9-4 0.5-5.7-2.9-3.8-5.7-8.3-4.6-10.9 1.1-2.5 6.2-2.5 11-1.9 4 0.5 7.7-2.4 8.2-6.4v-0.1c3.4-29.9-31.2-9.1-31.2-9.1z"/>
			<path id="&lt;Path&gt;" class="s4" d="m814.2 513.6c0 0 18.6-30.7 32.2-3.1 2.2 4.5 3.6 9.2 4.3 13.9-5.7-2.5-17.9-7.1-18-0.8-0.2 5 6.9 13.3 12.4 18.9 3.1 3.2 4.3 7.8 3.1 12.1-3.1 10.9-7.3 18.5-7.3 18.5 0 0-4-1.6-10-4.4-3.8-1.8-6.5-5.4-7.3-9.5-0.8-4.5-2.3-9.3-4.7-10.7-2.5-1.4-4.4 1.2-5.7 4.3-1.1 2.5-4.2 3.4-6.5 1.8-3-2.2-5.9-4.5-8.6-6.9-1.6-1.5-1.8-4-0.4-5.7 2.9-3.8 5.7-8.3 4.5-10.9-1.1-2.5-6.1-2.6-11-2-4 0.5-7.6-2.3-8.1-6.4v-0.1c-3.5-29.8 31.1-9 31.1-9z"/>
			<g id="&lt;Group&gt;">
				<path id="&lt;Path&gt;" class="s4" d="m708.3 730c0 13.6 2.1 22.3 5.7 27.9 2.7 4.2 7.5 6.6 12.5 6.6h19.6c5 0 9.8-2.4 12.5-6.6 3.6-5.6 5.7-14.3 5.7-27.9 0-19.6-8.5-35.3-11.3-47.8-1-4.5 2.3-18.3 2.3-18.3h-38c0 0 3.4 13.8 2.4 18.3-2.8 12.5-11.4 28.2-11.4 47.8z"/>
				<path id="&lt;Path&gt;" class="s5" d="m736.3 650.7c0-17 26.7-10 33.4-36.4 2.6-10-19.1-32.7-19.1-32.7h67.7c0 0-21.7 22.7-19.2 32.7 6.7 26.4 33.4 19.4 33.4 36.4 0 18.7-37.6 57.8-39.4 101.7-0.2 4 7.1 12.1 7.1 12.1h-31.5c0 0 7.3-8.1 7.1-12.1-1.8-43.9-39.5-83-39.5-101.7z"/>
				<path id="&lt;Path&gt;" class="s4" d="m839.6 694.9c-3.9-8.2 4.2-36.4 4.2-36.4h-29.3c0 0 8.1 28.2 4.2 36.4-2.8 5.9-9.1 9.6-9.1 16.5v41.6c0 10.7 8.8 11.5 19.5 11.5 10.8 0 19.6-0.8 19.6-11.5v-41.6c0-6.9-6.3-10.6-9.1-16.5z"/>
			</g>
			<path id="&lt;Path&gt;" class="s1" d="m798.1 573.3c0 0 19.3-14.5 22.7 5.8 0.6 3.3 0.5 6.5-0.1 9.6-3.3-2.9-10.7-8.6-12.1-4.8-1.2 3 1.9 9.8 4.5 14.6 1.4 2.7 1.2 5.8-0.5 8.2-4.4 6-8.9 9.7-8.9 9.7 0 0-2.5-2-6-5.1-2.2-2.1-3.3-4.9-2.9-7.6 0.4-3 0.4-6.3-1-7.7-1.3-1.5-3.2-0.3-4.8 1.3-1.3 1.3-3.6 1.1-4.8-0.4-1.6-2.1-3.1-4.2-4.4-6.3-0.8-1.3-0.4-2.9 0.9-3.7 2.8-1.6 5.7-3.7 5.5-5.6-0.3-1.8-3.7-3-7.2-3.8-2.8-0.7-4.7-3.3-4.2-5.9 4-19.3 23.3 1.7 23.3 1.7z"/>
		</g>
	</g>
	<g id="Shadow">
		<path id="&lt;Path&gt; 1 " class="s2" d="m878.1 824.8c0 12.5-173.6 22.6-387.7 22.6-214.2 0-387.8-10.1-387.8-22.6 0-12.5 173.6-22.7 387.8-22.7 214.1 0 387.7 10.2 387.7 22.7z"/>
	</g>
	<g id="Character 3">
		<g id="&lt;Group&gt;">
			<g id="&lt;Group&gt;">
				<path id="&lt;Path&gt;" class="s6" d="m753.4 339.1h8.8v-25.6h-8.8z"/>
				<path id="&lt;Path&gt;" class="s6" d="m729 298.9c1.1-7.7 7.1-12.4 14.2-12.5 0.9 0 6.8 0 7.9 0q1.4 0 2.8 0.2c2.9 0.4 5.3 0.6 7.6 0.8 2.4-0.2 4.8-0.4 7.8-0.8 1.1-0.2 9.6-0.2 10.3-0.2 7.4-0.1 12.4 4.6 11.6 12.5-0.1 0.2-0.1 0.2-0.1 0.4-0.9 8.7-8.7 18.1-17.4 19.2-6.6 0.9-11 1.2-16.1 0.9-5.2 0.3-9.5 0-15.9-0.9-8.5-1.1-14-10.5-12.7-19.2 0-0.2 0-0.2 0-0.4z"/>
				<path id="&lt;Path&gt;" class="s6" d="m789.3 325.1c-1.2 0-6.6-0.1-8.3 0q-2 0.1-4.3 0.7c-7.9 2.1-14.3 3.4-20.4 3.7-5.9-0.3-12-1.6-19.4-3.7q-2.9-0.8-5.4-0.7c-1.3 0-6.4 0-7.8 0-6.4 0-11.4 4-12.5 11.3q-6.1 40-12.1 80h74.7c7 0 13.6-2.1 19-5.8q3.5-37.1 7-74.2c0.7-7.6-3.7-11.6-10.5-11.3z"/>
				<path id="&lt;Path&gt;" class="s7" d="m741.7 318.5c9.4 1.3 14.3 1.3 24 0 8.7-1.1 16.5-10.5 17.4-19.2 0-0.2 0-0.2 0.1-0.4 0.9-8.7-5.3-13.5-13.9-12.3-9.5 1.2-14.2 1.2-23.4 0-8.3-1.2-15.6 3.6-16.9 12.3 0 0.2 0 0.2 0 0.4-1.3 8.7 4.2 18.1 12.7 19.2z"/>
				<path id="&lt;Path&gt;" class="s7" d="m776.7 325.8c-19.4 5.2-29.7 5.2-47.8 0-8.7-2.5-16.3 1.4-17.7 10.6q-6.1 40-12.1 80h74.7c3.7 0 7.3-0.6 10.7-1.7q3.6-39.2 7.3-78.3c0.9-9.2-5.8-13.1-15.1-10.6z"/>
			</g>
			<g id="&lt;Group&gt;">
				<path id="&lt;Path&gt;" class="s8" d="m656.8 376.8l-13.8 1.3-21.1-4.9-7.7 12.6 5 2.5 6.8-2.1 9.5 1.9 8.6-1.4 16.2 0.4z"/>
				<path id="&lt;Path&gt;" class="s9" d="m651.2 376.3l3.3 11.8c0 0 23.7 3.2 33.1-0.9 9.3-4.1 2.3-73-6.7-72.3-9 0.8-4.1 38.9-4.1 50.9 0 9.2-25.6 10.5-25.6 10.5z"/>
				<path id="&lt;Path&gt;" class="s10" d="m651.2 376.3l3.3 11.8c0 0 23.7 3.2 33.1-0.9 9.3-4.1 2.3-73-6.7-72.3-9 0.8-4.1 38.9-4.1 50.9 0 9.2-25.6 10.5-25.6 10.5z"/>
				<path id="&lt;Path&gt;" class="s9" d="m679.1 315c-9 12.9 11.7 33.1 12.1 101.4h66.8c1.9-18.5 8.8-90.7-0.8-104.4-11-15.6-69.5-9.2-78.1 3z"/>
				<g id="&lt;Group&gt;">
					<path id="&lt;Path&gt;" class="s9" d="m700.7 302.8c0 0-16 6.1-1.5 20.2l7.7-3.2 11.1 3.2c0 0 28.1-31.1-17.3-20.2z"/>
					<path id="&lt;Path&gt;" class="s10" d="m700.7 302.8c0 0-16 6.1-1.5 20.2l7.7-3.2 11.1 3.2c0 0 28.1-31.1-17.3-20.2z"/>
				</g>
				<path id="&lt;Path&gt;" class="s8" d="m702.9 317.3c-3.9-3.2-8.5-8.1-4.6-11.4 7.3-1.7 15.8-2.9 24.2-3.1 2.3 1.5 1 5.4-11 14.6-2.6 2-6.1 1.9-8.6-0.1z"/>
				<path id="&lt;Path&gt;" class="s8" d="m698.8 296.9l13.4-14.5c1.3 11.1 7.2 20.3 8.4 20.7l-1.4 5.1c-16.3 18.2-20 0.7-20 0.7 3.9-3.3-0.4-12-0.4-12z"/>
				<path id="&lt;Path&gt;" class="s11" d="m706.9 288.2l6.2-0.6c0 0-0.3 18.7-13.1 20.3 2.4-3.8-1.2-11-1.2-11z"/>
				<path id="&lt;Path&gt;" class="s8" d="m710.4 266.4c2.9 13.2 5.3 20.8 0.7 29.5-4.4 8.7-15 12.1-23.7 7.7-3.2-1.6-5.8-4.2-7.5-7.3-6.1-10.8-9.8-30.6 1.3-39.8 7.4-6.5 18.6-5.8 25.1 1.6 2.1 2.4 3.5 5.2 4.1 8.3z"/>
				<path id="&lt;Path&gt;" class="s6" d="m692 276.3c0.3 1 0 2.1-0.7 2.2-0.7 0.2-1.5-0.4-1.8-1.5-0.3-1 0-2.1 0.7-2.2 0.7-0.2 1.5 0.4 1.8 1.5z"/>
				<path id="&lt;Path&gt;" class="s6" d="m680.2 280.1c0.3 1.1 0 2.1-0.8 2.2-0.7 0.2-1.4-0.4-1.7-1.5-0.4-1 0-2.1 0.7-2.2 0.7-0.2 1.5 0.4 1.8 1.5z"/>
				<path id="&lt;Path&gt;" class="s6" d="m694.5 271.3q0.2-0.1 0.3-0.2c0.2-0.3 0.2-0.7-0.1-0.9q0 0 0 0c-1.7-1.3-3.8-1.7-5.8-1-0.3 0.1-0.5 0.5-0.4 0.8q0 0 0 0c0.2 0.3 0.5 0.5 0.9 0.4q0 0 0 0c1.5-0.5 3.2-0.2 4.5 0.8 0.2 0.1 0.4 0.2 0.6 0.1z"/>
				<path id="&lt;Path&gt;" class="s6" d="m673.9 277.6c0.2-0.1 0.4-0.2 0.4-0.4 0.2-1.7 1.2-3.2 2.7-4 0.3-0.2 0.3-0.6 0.1-0.9-0.1-0.2-0.4-0.3-0.7-0.3-1.8 1.1-3.1 2.9-3.4 4.9 0 0.4 0.2 0.7 0.6 0.8q0 0 0 0 0.2 0 0.3-0.1z"/>
				<path id="&lt;Path&gt;" class="s6" d="m692.9 293q-0.9 0.2-1.8 0.3c-0.2 0.1-0.4-0.1-0.4-0.3q0 0 0 0c0-0.2 0.1-0.4 0.3-0.4 3.1-0.3 5.9-2.1 7.5-4.8 0.1-0.2 0.3-0.3 0.5-0.2 0.2 0.1 0.2 0.3 0.2 0.5-1.4 2.4-3.6 4.1-6.3 4.9z"/>
				<path id="&lt;Path&gt;" class="s12" d="m684.3 279.4c-0.4 3.7-1.2 7.2-2.4 10.7 2.3 1.1 5.2-0.7 5.2-0.7z"/>
				<path id="&lt;Path&gt;" class="s6" d="m703.2 246.6c-42.6-8.2-30.2 26.5-30.2 26.5 0 0 0.4-5.9 5.9-5.9 5.6 0 10.5-4.4 10.5-4.4-3.3 4-7.5 5.1-7.5 5.1 9.7 0.2 15.7-5.5 18.9-10.2 0 0 0.4 1.9 0.4 3 0 4.9 4 7.5 6 14.2 1.9 6.6 9.9 0 9.9 0 11.1-28.5-13.9-28.3-13.9-28.3z"/>
				<path id="&lt;Path&gt;" class="s8" d="m718.4 275.8c-0.1 3-1.3 5.9-3.4 8.1-2.7 2.8-5.9 0.7-6.6-3.1-0.7-3.4 0-8.9 3.5-10.3 3.5-1.4 6.5 1.5 6.5 5.3z"/>
				<path id="&lt;Path&gt;" class="s6" d="m703.9 248.5c0 0-9-11-15.3-8.1-6.2 2.9 11.5 3.6 15.3 8.1z"/>
				<path id="&lt;Path&gt;" class="s8" d="m703.2 379.1l-13.8 1.3-21.1-7.1-9.7 10.6 4.9 2.5h9l9.5 4 8.5-1.4 16.3 0.4z"/>
				<path id="&lt;Path&gt;" class="s9" d="m753.8 310.9c-4.4-3-9.1-0.1-13.9 27.5-5.7 32.8-9.5 34.3-42.3 40.2l3.6 11.8c0 0 28 3.4 41.5-5.4 13.5-8.8 23.1-65.9 11.1-74.1z"/>
				<path id="&lt;Path&gt;" class="s10" d="m753.8 310.9c-4.4-3-9.1-0.1-13.9 27.5-5.7 32.8-9.5 34.3-42.3 40.2l3.6 11.8c0 0 28 3.4 41.5-5.4 13.5-8.8 23.1-65.9 11.1-74.1z"/>
			</g>
			<g id="&lt;Group&gt;">
				<path id="&lt;Path&gt;" class="s6" d="m714 393.7h-182.8c1.2 3.2 2.9 6.2 4.9 8.9h177.9c2.5 0 4.5-2 4.5-4.5 0-2.4-2-4.4-4.5-4.4z"/>
				<path id="&lt;Path&gt;" class="s13" d="m714 393.7h-182.8c1.2 3.2 2.9 6.2 4.9 8.9h177.9c2.5 0 4.5-2 4.5-4.5 0-2.4-2-4.4-4.5-4.4z"/>
				<path id="&lt;Path&gt;" class="s6" d="m563.6 416.4h146.2v-13.8h-173.7c6.3 8.4 16.3 13.8 27.5 13.8z"/>
				<path id="&lt;Path&gt;" class="s14" d="m563.6 416.4h146.2v-13.8h-173.7c6.3 8.4 16.3 13.8 27.5 13.8z"/>
			</g>
			<g id="&lt;Group&gt;">
				<path id="&lt;Path&gt;" class="s6" d="m685.8 387.8h-106.5c-1.6 0-2.9 1.3-2.9 2.9 0 1.7 1.3 3 2.9 3h106.5c1.6 0 2.9-1.3 2.9-3 0-1.6-1.3-2.9-2.9-2.9z"/>
				<path id="&lt;Path&gt;" class="s15" d="m685.8 387.8h-106.5c-1.6 0-2.9 1.3-2.9 2.9 0 1.7 1.3 3 2.9 3h106.5c1.6 0 2.9-1.3 2.9-3 0-1.6-1.3-2.9-2.9-2.9z"/>
				<g id="&lt;Group&gt;">
					<path id="&lt;Path&gt;" class="s6" d="m580.9 391.9h36.4c1 0 1.6-1 1.3-1.9l-20-57c-0.5-1.6-2-2.6-3.7-2.6h-36.4c-0.9 0-1.6 0.9-1.3 1.8l20 57.1c0.6 1.5 2 2.6 3.7 2.6z"/>
					<path id="&lt;Path&gt;" class="s16" d="m580.9 391.9h36.4c1 0 1.6-1 1.3-1.9l-20-57c-0.5-1.6-2-2.6-3.7-2.6h-36.4c-0.9 0-1.6 0.9-1.3 1.8l20 57.1c0.6 1.5 2 2.6 3.7 2.6z"/>
				</g>
				<g id="&lt;Group&gt;">
					<path id="&lt;Path&gt;" class="s6" d="m579.1 391.9h36.5c0.9 0 1.6-1 1.3-1.9l-20-57c-0.6-1.6-2-2.6-3.7-2.6h-36.4c-1 0-1.6 0.9-1.3 1.8l19.9 57.1c0.6 1.5 2.1 2.6 3.7 2.6z"/>
					<path id="&lt;Path&gt;" class="s10" d="m579.1 391.9h36.5c0.9 0 1.6-1 1.3-1.9l-20-57c-0.6-1.6-2-2.6-3.7-2.6h-36.4c-1 0-1.6 0.9-1.3 1.8l19.9 57.1c0.6 1.5 2.1 2.6 3.7 2.6z"/>
				</g>
				<path id="&lt;Path&gt;" class="s17" d="m583.2 361.1c0.5 2.2 2 4 3.4 4 1.4 0 2.1-1.8 1.7-4-0.5-2.2-2-3.9-3.4-3.9-1.4 0-2.1 1.7-1.7 3.9z"/>
				<path id="&lt;Path&gt;" class="s7" d="m622 393.7c-1.6 0-2.9-1.3-2.9-3 0-1.6 1.3-2.9 2.9-2.9h63.8c1.6 0 2.9 1.3 2.9 2.9 0 1.7-1.3 3-2.9 3z"/>
			</g>
			<g id="&lt;Group&gt;">
				<g id="&lt;Group&gt;">
					<path id="&lt;Path&gt;" class="s9" d="m557.3 313.6h-7.3v-15.9h7.3z"/>
					<path id="&lt;Path&gt;" class="s9" d="m644.7 313.6h-7.3v-15.9h7.3z"/>
				</g>
				<g id="&lt;Group&gt;">
					<g id="&lt;Group&gt;">
						<g id="&lt;Group&gt;">
							<g id="&lt;Group&gt;">
								<path id="&lt;Path&gt;" class="s9" d="m600.9 267l-0.9-0.1c1.8-25.5-2-33.8-5.5-36.3-2.1-1.4-3.9-0.6-3.9-0.6l-0.3-0.8c0-0.1 2.2-1 4.7 0.7 3.6 2.6 7.6 11.2 5.9 37.1z"/>
							</g>
							<g id="&lt;Group&gt;">
								<path id="&lt;Path&gt;" class="s9" d="m596 264.4c-0.8-21.7 3-29.8 6.3-32.8 2-1.8 3.8-1.6 3.9-1.6l-0.1 0.9c-0.1-0.1-1.5-0.2-3.3 1.4-3.1 2.9-6.7 10.8-5.9 32.1z"/>
							</g>
							<g id="&lt;Group&gt;">
								<path id="&lt;Path&gt;" class="s9" d="m599.7 264.4h-0.8c0.8-13.1-0.8-20.8-4.7-22.5-5.1-2.1-12.8 6.4-12.9 6.5l-0.6-0.5c0.3-0.4 8.1-9.2 13.8-6.8 4.4 1.8 6.1 9.7 5.2 23.3z"/>
							</g>
							<g id="&lt;Group&gt;">
								<path id="&lt;Path&gt;" class="s9" d="m597.5 265.3c0-8.1 1.7-13 5-14.7 3.7-2 8 0.9 8.2 1l-0.5 0.7c-0.1 0-4.1-2.7-7.3-1-3 1.6-4.5 6.3-4.5 14z"/>
							</g>
						</g>
						<g id="&lt;Group&gt;" style="opacity: .2">
							<g id="&lt;Group&gt;">
								<path id="&lt;Path&gt;" class="s18" d="m600.9 267l-0.9-0.1c1.8-25.5-2-33.8-5.5-36.3-2.1-1.4-3.9-0.6-3.9-0.6l-0.3-0.8c0-0.1 2.2-1 4.7 0.7 3.6 2.6 7.6 11.2 5.9 37.1z"/>
							</g>
							<g id="&lt;Group&gt;">
								<path id="&lt;Path&gt;" class="s18" d="m596 264.4c-0.8-21.7 3-29.8 6.3-32.8 2-1.8 3.8-1.6 3.9-1.6l-0.1 0.9c-0.1-0.1-1.5-0.2-3.3 1.4-3.1 2.9-6.7 10.8-5.9 32.1z"/>
							</g>
							<g id="&lt;Group&gt;">
								<path id="&lt;Path&gt;" class="s18" d="m599.7 264.4h-0.8c0.8-13.1-0.8-20.8-4.7-22.5-5.1-2.1-12.8 6.4-12.9 6.5l-0.6-0.5c0.3-0.4 8.1-9.2 13.8-6.8 4.4 1.8 6.1 9.7 5.2 23.3z"/>
							</g>
							<g id="&lt;Group&gt;">
								<path id="&lt;Path&gt;" class="s18" d="m597.5 265.3c0-8.1 1.7-13 5-14.7 3.7-2 8 0.9 8.2 1l-0.5 0.7c-0.1 0-4.1-2.7-7.3-1-3 1.6-4.5 6.3-4.5 14z"/>
							</g>
						</g>
					</g>
					<path id="&lt;Path&gt;" class="s6" d="m578.2 263l3.6 20.9c0.9 4.8 5.1 8.3 9.9 8.3h14.7c4.8 0 9-3.5 9.8-8.3l3.7-20.9z"/>
					<path id="&lt;Path&gt;" class="s15" d="m578.2 263l3.6 20.9c0.9 4.8 5.1 8.3 9.9 8.3h14.7c4.8 0 9-3.5 9.8-8.3l3.7-20.9z"/>
					<g id="&lt;Group&gt;">
						<path id="&lt;Path&gt;" class="s9" d="m592.1 229.4c0 0 8.7-14.6-6.6-14.8-2.2 0-4.4 0.3-6.5 0.9 2 1.3 5.2 3.8 3.6 4.4-1.8 0.7-8-0.6-11-1.2-7.8 4.7-12.9 11.6-12.9 11.6 0 0 4.1 4 9.9 7.9 1.5-1.5 3.8-3.4 5.1-2.6 1.3 0.7 2.8 4.8 3.6 7.7 3 1.4 6.1 2.4 9.1 2.8-0.1-2.3 0-6.1 1.1-6.7 1.1-0.6 5.2 3.3 7.4 5.6 11.7-5-2.8-15.6-2.8-15.6z"/>
						<path id="&lt;Path&gt;" class="s19" d="m592.1 229.4c0 0 8.7-14.6-6.6-14.8-2.2 0-4.4 0.3-6.5 0.9 2 1.3 5.2 3.8 3.6 4.4-1.8 0.7-8-0.6-11-1.2-7.8 4.7-12.9 11.6-12.9 11.6 0 0 4.1 4 9.9 7.9 1.5-1.5 3.8-3.4 5.1-2.6 1.3 0.7 2.8 4.8 3.6 7.7 3 1.4 6.1 2.4 9.1 2.8-0.1-2.3 0-6.1 1.1-6.7 1.1-0.6 5.2 3.3 7.4 5.6 11.7-5-2.8-15.6-2.8-15.6z"/>
						<path id="&lt;Path&gt;" class="s15" d="m592.1 229.4c0 0 8.7-14.6-6.6-14.8-2.2 0-4.4 0.3-6.5 0.9 2 1.3 5.2 3.8 3.6 4.4-1.8 0.7-8-0.6-11-1.2-7.8 4.7-12.9 11.6-12.9 11.6 16.7-7 33.4-0.9 33.4-0.9z"/>
					</g>
					<g id="&lt;Group&gt;">
						<path id="&lt;Path&gt;" class="s9" d="m610.2 239.3c1.6-0.5 3.6 2.7 4.7 4.7 3.3-1.4 6.4-3.6 9.1-6-0.7-1.6-1.5-3.9-1-4.7 0.5-0.9 3.4-0.2 5.5 0.4 3.3-3.4 5.3-6.2 5.3-6.2 0 0-1.9-1.7-5-3.5-3 0.3-7.3 0.6-8.3-0.5-1.1-1.1 1.2-1.9 2.9-2.3-2.6-1.1-5.6-2-8.8-2.4-0.4 1.3-1.2 3.4-2.9 3.4-1.5 0-3.3-1.8-4.4-3.1-12.5 2.7-2.6 11.6-2.6 11.6 0 0-10.8 12.8 2 14.5 0.7-2.2 2-5.5 3.5-5.9z"/>
						<path id="&lt;Path&gt;" class="s7" d="m610.2 239.3c1.6-0.5 3.6 2.7 4.7 4.7 3.3-1.4 6.4-3.6 9.1-6-0.7-1.6-1.5-3.9-1-4.7 0.5-0.9 3.4-0.2 5.5 0.4 3.3-3.4 5.3-6.2 5.3-6.2 0 0-1.9-1.7-5-3.5-3 0.3-7.3 0.6-8.3-0.5-1.1-1.1 1.2-1.9 2.9-2.3-2.6-1.1-5.6-2-8.8-2.4-0.4 1.3-1.2 3.4-2.9 3.4-1.5 0-3.3-1.8-4.4-3.1-12.5 2.7-2.6 11.6-2.6 11.6 0 0-10.8 12.8 2 14.5 0.7-2.2 2-5.5 3.5-5.9z"/>
						<path id="&lt;Path&gt;" class="s15" d="m620.5 223.5c-1.1-1.1 1.2-1.9 2.9-2.3-2.6-1.1-5.6-2-8.8-2.4-0.4 1.3-1.2 3.4-2.9 3.4-1.5 0-3.3-1.8-4.4-3.1-12.5 2.7-2.6 11.6-2.6 11.6 0 0 16.3-5.9 29.1-3.2 0 0-1.9-1.7-5-3.5-3 0.3-7.3 0.6-8.3-0.5z"/>
					</g>
					<path id="&lt;Path&gt;" class="s9" d="m628.5 250.5c-1.7 1-5 2.5-6.4 1.1-1.4-1.4 0.7-7 1.7-9.3-1.6-2-3.5-3.6-5.7-4.6-13.6-6-9 13.6-9 13.6 0 0-17.2 4.1-6.1 14.6q1.2 1.2 2.6 2.1c0.8-2 2.5-5.4 4.2-4.9 1.6 0.5 1 4.8 0.5 7.5 2.9 1.3 6.1 2 9 2.3 0.4-1.9 1.2-4.4 2.4-4.3 1.3 0 3 2.8 4 4.7 4.5-0.1 7.7-0.7 7.7-0.7 0 0-0.7-12-4.9-22.1z"/>
					<path id="&lt;Path&gt;" class="s7" d="m609.1 251.3c0 0-17.2 4.1-6.1 14.6q1.2 1.2 2.6 2.1c0.8-2 2.5-5.4 4.2-4.9 1.6 0.5 1 4.8 0.5 7.5 2.9 1.3 6.1 2 9 2.3 0.4-1.9 1.2-4.4 2.4-4.3 1.3 0 3 2.8 4 4.7 4.5-0.1 7.7-0.7 7.7-0.7-7.7-16.9-24.3-21.3-24.3-21.3z"/>
					<g id="&lt;Group&gt;">
						<path id="&lt;Path&gt;" class="s9" d="m582.4 247.1c0 0-9.2-15.2-15.9-1.5-1.1 2.2-1.8 4.6-2.2 6.9 2.9-1.2 8.9-3.5 9-0.4 0.1 3.3-6.4 9.7-8.6 11.7 1.4 7.3 4.5 12.8 4.5 12.8 0 0 3.5-1.3 8.1-3.8 0.3-2.4 1-7.3 2.8-8.4 1.9-1.1 3.2 2.9 3.7 4.7 2.8-1.9 5.6-4.1 8-6.5-1.7-2-4.2-5.2-3.4-6.8 0.7-1.8 5.7-1 8.5-0.5q0.7-1.8 1-3.7c1.7-14.8-15.5-4.5-15.5-4.5z"/>
						<path id="&lt;Path&gt;" class="s7" d="m569.2 276.6c0 0 3.5-1.3 8.1-3.8 0.3-2.4 1-7.3 2.8-8.4 1.9-1.1 3.2 2.9 3.7 4.7 2.8-1.9 5.6-4.1 8-6.5-1.7-2-4.2-5.2-3.4-6.8 0.7-1.8 5.7-1 8.5-0.5q0.7-1.8 1-3.7c1.7-14.8-15.5-4.5-15.5-4.5 0 0-10.1 9.5-13.2 29.5z"/>
					</g>
				</g>
				<g id="&lt;Group&gt;">
					<path id="&lt;Path&gt;" class="s9" d="m653.8 299.4h-112.8v-8.9h112.8z"/>
					<path id="&lt;Path&gt;" class="s15" d="m653.8 299.4h-112.8v-8.9h112.8z"/>
				</g>
			</g>
			<g id="&lt;Group&gt;">
				<path id="&lt;Compound Path&gt;" fill-rule="evenodd" class="s9" d="m816.8 194.6v187.3c0 23.7-19.3 42.9-43 42.9h-210.2c-23.7 0-42.9-19.2-42.9-42.9v-187.3c0-23.6 19.2-42.9 42.9-42.9h210.2c23.7 0 43 19.3 43 42.9zm-8.5 0c0-19-15.4-34.5-34.5-34.5h-210.2c-19 0-34.5 15.5-34.5 34.5v187.3c0 19 15.5 34.5 34.5 34.5h210.2c19.1 0 34.5-15.5 34.5-34.5z"/>
				<path id="&lt;Compound Path&gt;" fill-rule="evenodd" class="s14" d="m816.8 194.6v187.3c0 23.7-19.3 42.9-43 42.9h-210.2c-23.7 0-42.9-19.2-42.9-42.9v-187.3c0-23.6 19.2-42.9 42.9-42.9h210.2c23.7 0 43 19.3 43 42.9zm-8.5 0c0-19-15.4-34.5-34.5-34.5h-210.2c-19 0-34.5 15.5-34.5 34.5v187.3c0 19 15.5 34.5 34.5 34.5h210.2c19.1 0 34.5-15.5 34.5-34.5z"/>
			</g>
			<g id="&lt;Group&gt;">
				<path id="&lt;Path&gt;" class="s9" d="m748 234.6h-26.4c-2.8 0-5-2.3-5-5.1v-4.6c0-2.9 2.2-5.1 5-5.1h26.4c2.8 0 5.1 2.2 5.1 5.1v4.6c0 2.8-2.3 5.1-5.1 5.1z"/>
				<path id="&lt;Path&gt;" class="s9" d="m771 216.2h-26.4c-2.8 0-5.1-2.2-5.1-5.1v-4.6c0-2.8 2.3-5.1 5.1-5.1h26.4c2.8 0 5.1 2.3 5.1 5.1v4.6c0 2.9-2.3 5.1-5.1 5.1z"/>
				<path id="&lt;Path&gt;" class="s9" d="m762.7 253h-26.3c-2.9 0-5.1-2.3-5.1-5.1v-4.7c0-2.8 2.2-5.1 5.1-5.1h26.3c2.8 0 5.1 2.3 5.1 5.1v4.7c0 2.8-2.3 5.1-5.1 5.1z"/>
				<path id="&lt;Path&gt;" class="s9" d="m789.2 234.6h-26.3c-2.8 0-5.1-2.3-5.1-5.1v-4.6c0-2.9 2.3-5.1 5.1-5.1h26.3c2.8 0 5.1 2.2 5.1 5.1v4.6c0 2.8-2.3 5.1-5.1 5.1z"/>
				<path id="&lt;Path&gt;" class="s10" d="m748 234.6h-26.4c-2.8 0-5-2.3-5-5.1v-4.6c0-2.9 2.2-5.1 5-5.1h26.4c2.8 0 5.1 2.2 5.1 5.1v4.6c0 2.8-2.3 5.1-5.1 5.1z"/>
				<path id="&lt;Path&gt;" class="s20" d="m771 216.2h-26.4c-2.8 0-5.1-2.2-5.1-5.1v-4.6c0-2.8 2.3-5.1 5.1-5.1h26.4c2.8 0 5.1 2.3 5.1 5.1v4.6c0 2.9-2.3 5.1-5.1 5.1z"/>
				<path id="&lt;Path&gt;" class="s20" d="m762.7 253h-26.3c-2.9 0-5.1-2.3-5.1-5.1v-4.7c0-2.8 2.2-5.1 5.1-5.1h26.3c2.8 0 5.1 2.3 5.1 5.1v4.7c0 2.8-2.3 5.1-5.1 5.1z"/>
				<path id="&lt;Path&gt;" class="s10" d="m789.2 234.6h-26.3c-2.8 0-5.1-2.3-5.1-5.1v-4.6c0-2.9 2.3-5.1 5.1-5.1h26.3c2.8 0 5.1 2.2 5.1 5.1v4.6c0 2.8-2.3 5.1-5.1 5.1z"/>
			</g>
			<g id="&lt;Group&gt;">
				<path id="&lt;Path&gt;" class="s9" d="m682.6 199.6h26.3c2.8 0 5.1-2.2 5.1-5.1v-4.6c0-2.8-2.3-5.1-5.1-5.1h-26.3c-2.8 0-5.1 2.3-5.1 5.1v4.6c0 2.9 2.3 5.1 5.1 5.1z"/>
				<path id="&lt;Path&gt;" class="s9" d="m667.9 218h26.3c2.8 0 5.1-2.3 5.1-5.1v-4.6c0-2.9-2.3-5.1-5.1-5.1h-26.3c-2.8 0-5.1 2.2-5.1 5.1v4.6c0 2.8 2.3 5.1 5.1 5.1z"/>
				<path id="&lt;Path&gt;" class="s9" d="m641.4 199.6h26.3c2.8 0 5.1-2.2 5.1-5.1v-4.6c0-2.8-2.3-5.1-5.1-5.1h-26.3c-2.9 0-5.1 2.3-5.1 5.1v4.6c0 2.9 2.2 5.1 5.1 5.1z"/>
				<path id="&lt;Path&gt;" class="s20" d="m682.6 199.6h26.3c2.8 0 5.1-2.2 5.1-5.1v-4.6c0-2.8-2.3-5.1-5.1-5.1h-26.3c-2.8 0-5.1 2.3-5.1 5.1v4.6c0 2.9 2.3 5.1 5.1 5.1z"/>
				<path id="&lt;Path&gt;" class="s20" d="m667.9 218h26.3c2.8 0 5.1-2.3 5.1-5.1v-4.6c0-2.9-2.3-5.1-5.1-5.1h-26.3c-2.8 0-5.1 2.2-5.1 5.1v4.6c0 2.8 2.3 5.1 5.1 5.1z"/>
				<path id="&lt;Path&gt;" class="s10" d="m641.4 199.6h26.3c2.8 0 5.1-2.2 5.1-5.1v-4.6c0-2.8-2.3-5.1-5.1-5.1h-26.3c-2.9 0-5.1 2.3-5.1 5.1v4.6c0 2.9 2.2 5.1 5.1 5.1z"/>
			</g>
		</g>
	</g>
	<g id="Character 1">
		<g id="&lt;Group&gt;">
			<g id="&lt;Group&gt;">
				<path id="&lt;Path&gt;" class="s6" d="m450.1 371.5h-119.7v-135.2h119.7z"/>
				<g id="&lt;Group&gt;">
					<path id="&lt;Path&gt;" class="s6" d="m459.7 382.4h-138.9v-10.9h138.9z"/>
				</g>
				<g id="&lt;Group&gt;" style="opacity: .4">
					<path id="&lt;Path&gt;" class="s17" d="m459.7 382.4h-138.9v-10.9h138.9z"/>
				</g>
				<path id="&lt;Path&gt;" class="s13" d="m450.1 371.5h-119.7v-135.2h119.7z"/>
				<path id="&lt;Path&gt;" class="s16" d="m441.7 363.1h-102.8v-118.3h102.8z"/>
				<g id="&lt;Group&gt;" style="opacity: .2">
					<path id="&lt;Path&gt;" class="s17" d="m338.9 244.8v118.3h0.7l28.3-118.3z"/>
					<path id="&lt;Path&gt;" class="s17" d="m427 244.8h-5.3l-28.2 118.3h5.3z"/>
					<path id="&lt;Path&gt;" class="s17" d="m414.6 244.8h-22.2l-28.2 118.3h22.2z"/>
				</g>
			</g>
			<g id="&lt;Group&gt;">
				<path id="&lt;Path&gt;" class="s9" d="m261.2 345.3c-4 0.3-9.2-2.9-11.7-7.2-0.7-1.3-1.1-2-1.9-3.3-5.8-9.4-18.5-16.2-27.2-15.5-0.9 0-1.4 0-2.2 0.1-1.1 0.1-5.1 0.4-6.2 0.5-0.8 0-1.3 0.1-2.2 0.1-8.7 0.7-10.7 8.5-5.5 18 0.7 1.3 1.1 1.9 1.8 3.3 2.2 4.2 0.6 8-3.5 8.3-7 0.5-9.9 7-7.2 14.6 8.8 31.5 11.3 58.1 7.9 86.8 6.1 5.7 14.3 9.2 23.4 9.2h71c2.7-36-2.5-66.1-16.8-102.2-3.6-7.6-12.7-13.2-19.7-12.7z"/>
				<path id="&lt;Path&gt;" class="s21" d="m261.2 345.3c-4 0.3-9.2-2.9-11.7-7.2-0.7-1.3-1.1-2-1.9-3.3-5.8-9.4-18.5-16.2-27.2-15.5-0.9 0-1.4 0-2.2 0.1-1.1 0.1-5.1 0.4-6.2 0.5-0.8 0-1.3 0.1-2.2 0.1-8.7 0.7-10.7 8.5-5.5 18 0.7 1.3 1.1 1.9 1.8 3.3 2.2 4.2 0.6 8-3.5 8.3-7 0.5-9.9 7-7.2 14.6 8.8 31.5 11.3 58.1 7.9 86.8 6.1 5.7 14.3 9.2 23.4 9.2h71c2.7-36-2.5-66.1-16.8-102.2-3.6-7.6-12.7-13.2-19.7-12.7z"/>
				<path id="&lt;Path&gt;" class="s22" d="m261.2 345.3c-4 0.3-9.2-2.9-11.7-7.2-0.7-1.3-1.1-2-1.9-3.3-5.8-9.4-18.5-16.2-27.2-15.5-0.9 0-1.4 0-2.2 0.1-8.8 0.6-10.7 8.5-5.3 17.9 0.7 1.4 1.1 2 1.8 3.4 2.3 4.2 0.6 8-3.4 8.3-7 0.5-9.9 6.9-7.1 14.6 9.9 33.8 12.4 62 8.1 93.5 4.4 2 9.2 3.1 14.4 3.1h71c2.7-36-2.5-66.1-16.8-102.2-3.6-7.6-12.7-13.2-19.7-12.7z"/>
			</g>
			<g id="&lt;Group&gt;">
				<g id="&lt;Group&gt;">
					<g id="&lt;Group&gt;">
						<path id="&lt;Path&gt;" class="s23" d="m309.3 381c0 0-3.1 41 7.1 40.6 10.3-0.4 30.6-0.3 30.6-0.3l16.7-7.5c0.9-0.4 1.9-0.2 2.6 0.5l7.6 7.5c1.5 1.5 0.4 4.1-1.7 4.1l-4.7-0.2c0 0-8.1 5.1-20.4 3.9 2.4-0.7-42.3 7.6-46.8 1.3-6.3-8.7-9.1-44.9-9.1-44.9z"/>
						<path id="&lt;Path&gt;" class="s21" d="m309.3 381c0 0-3.1 41 7.1 40.6 10.3-0.4 30.6-0.3 30.6-0.3l16.7-7.5c0.9-0.4 1.9-0.2 2.6 0.5l7.6 7.5c1.5 1.5 0.4 4.1-1.7 4.1l-4.7-0.2c0 0-8.1 5.1-20.4 3.9 2.4-0.7-42.3 7.6-46.8 1.3-6.3-8.7-9.1-44.9-9.1-44.9z"/>
					</g>
					<path id="&lt;Path&gt;" class="s6" d="m299.6 355.5c6.9-0.2 14.8 8.8 11.3 32.9l-19.1 3.7c0 0-6.2-36.2 7.8-36.6z"/>
					<path id="&lt;Path&gt;" class="s22" d="m299.6 355.5c6.9-0.2 14.8 8.8 11.3 32.9l-19.1 3.7c0 0-6.2-36.2 7.8-36.6z"/>
				</g>
				<path id="&lt;Path&gt;" class="s6" d="m228.8 355.9c-10.4 13.5-8.7 84.5-8 103.8 1.9 0.3 3.8 0.5 5.9 0.5h60.8c5.2-68.2 27.3-88.4 19.2-101.3-7.7-12.3-65.7-18.7-77.9-3z"/>
				<g id="&lt;Group&gt;">
					<path id="&lt;Path&gt;" class="s23" d="m279.4 364.3c0 0 15.2-9.4 9-14.5-7.3-1.8-15.8-2.9-24.2-3.1-2.5 1.6-0.7 6.2 15.2 17.6z"/>
					<path id="&lt;Path&gt;" class="s23" d="m287.9 340.8l-13.4-14.6c-1.3 11.2-7.2 20.3-8.4 20.7l1.4 5.1c16.3 18.3 20 0.7 20 0.7-3.9-3.3 0.4-11.9 0.4-11.9z"/>
					<path id="&lt;Path&gt;" class="s11" d="m279.9 332.1l-6.3-0.7c0 0 0.3 18.7 13.1 20.4-2.4-3.8 1.2-11 1.2-11z"/>
					<path id="&lt;Path&gt;" class="s23" d="m276.3 310.2c-2.9 13.2-5.3 20.8-0.7 29.6 4.4 8.6 15 12.1 23.7 7.7 3.2-1.7 5.8-4.2 7.5-7.4 6.1-10.7 9.8-30.6-1.3-39.8-7.4-6.5-18.6-5.7-25.1 1.7-2.1 2.3-3.5 5.2-4.1 8.2z"/>
					<path id="&lt;Path&gt;" class="s6" d="m294.7 320.1c-0.3 1.1 0.1 2.1 0.8 2.3 0.7 0.1 1.4-0.5 1.7-1.5 0.4-1.1 0-2.1-0.7-2.3-0.7-0.1-1.5 0.5-1.8 1.5z"/>
					<path id="&lt;Path&gt;" class="s6" d="m306.6 324c-0.4 1 0 2 0.7 2.2 0.7 0.2 1.4-0.5 1.8-1.5 0.3-1.1-0.1-2.1-0.8-2.3-0.7-0.1-1.4 0.5-1.7 1.6z"/>
					<path id="&lt;Path&gt;" class="s6" d="m292.2 315.1q-0.2 0-0.3-0.1c-0.2-0.3-0.2-0.7 0.1-0.9q0 0 0 0c1.7-1.3 3.8-1.7 5.8-1.1 0.4 0.1 0.5 0.5 0.4 0.8q0 0 0 0.1c-0.1 0.3-0.5 0.4-0.8 0.3q0 0-0.1 0c-1.5-0.5-3.2-0.2-4.5 0.8-0.1 0.2-0.4 0.2-0.6 0.1z"/>
					<path id="&lt;Path&gt;" class="s6" d="m312.8 321.5c-0.2-0.1-0.3-0.3-0.4-0.5-0.2-1.7-1.2-3.1-2.7-3.9-0.2-0.2-0.3-0.7-0.1-0.9 0.1-0.3 0.4-0.4 0.7-0.3 1.8 1 3.1 2.8 3.4 4.9 0 0.3-0.2 0.7-0.5 0.7q0 0 0 0-0.2 0.1-0.4 0z"/>
					<path id="&lt;Path&gt;" class="s6" d="m293.8 336.8q0.9 0.3 1.8 0.4c0.2 0 0.4-0.1 0.4-0.3q0 0 0 0c0-0.2-0.1-0.4-0.3-0.4-3.1-0.4-5.9-2.2-7.5-4.9-0.1-0.1-0.3-0.2-0.5-0.1-0.1 0.1-0.2 0.3-0.1 0.5 1.3 2.3 3.6 4.1 6.2 4.8z"/>
					<path id="&lt;Path&gt;" class="s24" d="m302.4 323.3c0.4 3.6 1.2 7.2 2.4 10.6-2.3 1.2-5.2-0.6-5.2-0.6z"/>
					<path id="&lt;Path&gt;" class="s6" d="m276.6 317.6c0 0 12.8 0.1 9.1-7.3 0 0 17.9 3.5 14.8-3.3 0 0 12.1 9.5 9 0.6 0 0 8.2 7 8.4 2.5 0.3-4.5-4.2-7.4-4.2-7.4 0 0 10-8.1-4.5-8.1 0 0 3.4-12.3-13.2-2.5 0 0 2.2-12.7-10.1 0 0 0-16.8 0.1-12.8 5.7 0 0-10.6 3.4-4 7.1 0 0-8 7.3-2.2 10.3 0 0-7.6 10.4 3.5 9.1 0 0-3.9 9.7 0.9 7.7 4.9-2 5.3-14.4 5.3-14.4z"/>
					<path id="&lt;Path&gt;" class="s23" d="m268.3 319.6c0.1 3 1.3 5.9 3.4 8.1 2.7 2.8 5.9 0.7 6.6-3 0.7-3.4 0-8.9-3.5-10.3-3.5-1.4-6.5 1.5-6.5 5.2z"/>
				</g>
				<path id="&lt;Path&gt;" class="s25" d="m289.9 438.7q0.9-6.1 1.9-11.6l-6.3-1.2-35.4-20.9-12.7-29.3-5.3-11.4-4.9 2.7c0 0-0.1 58.7 24.7 69.3 10.5 4.5 23.7 3.1 38 2.4z"/>
				<path id="&lt;Path&gt;" class="s23" d="m249.3 378.9c0 0 7.3 36.2 29.9 40.3 22.6 4 26.1 3.9 26.1 3.9l18.3-5.9c1.1-0.4 2.3 0 3 0.9l4.7 5.9c1.3 1.8 0.2 4.3-2 4.5l-7.9 0.5c0 0-5.7 5.3-15.4 4.1 0 0-36.7 4-49.5-3.3-12.8-7.4-22.9-37.5-22.9-37.5z"/>
				<path id="&lt;Path&gt;" class="s6" d="m233.1 402.4c0 0-12.8-41.2-0.7-47.7 12.1-6.5 20.1 22.3 23.1 33.2z"/>
			</g>
			<g id="&lt;Group&gt;">
				<g id="&lt;Group&gt;">
					<path id="&lt;Path&gt;" class="s9" d="m353.8 429.1l-44.3 2.1v6.3h44.3 28.5v-8.4z"/>
					<path id="&lt;Path&gt;" class="s15" d="m353.8 437.5h-44.3v-6.3l44.3-2.1z"/>
					<path id="&lt;Path&gt;" class="s13" d="m382.3 437.5v-8.4h-28.5v8.4z"/>
				</g>
				<g id="&lt;Group&gt;">
					<path id="&lt;Path&gt;" class="s9" d="m451.1 415.8h-93.5l9.4-76.9h93.6z"/>
					<path id="&lt;Path&gt;" class="s15" d="m451.1 415.8h-93.5l9.4-76.9h93.6z"/>
					<path id="&lt;Path&gt;" class="s9" d="m372.4 338.9l-9.5 76.9h88.2l9.5-76.9z"/>
					<path id="&lt;Path&gt;" class="s13" d="m372.4 338.9l-9.5 76.9h88.2l9.5-76.9z"/>
					<path id="&lt;Path&gt;" class="s9" d="m420.7 437.3h-19.9l-2-31.8h16.1z"/>
					<path id="&lt;Path&gt;" class="s15" d="m420.7 437.3h-19.9l-2-31.8h16.1z"/>
					<path id="&lt;Path&gt;" class="s9" d="m424.2 437.3h-19.9l-2-31.8h16.1z"/>
					<path id="&lt;Path&gt;" class="s16" d="m424.2 437.3h-19.9l-2-31.8h16.1z"/>
					<path id="&lt;Path&gt;" class="s9" d="m410.4 431.7h-3.2-27.5v5.8h27.5 3.2 27.5v-5.8z"/>
					<path id="&lt;Path&gt;" class="s15" d="m410.4 431.7h-3.2-27.5v5.8h27.5 3.2 27.5v-5.8z"/>
					<path id="&lt;Path&gt;" class="s9" d="m437.9 437.5h-30.7v-5.8h30.7z"/>
					<path id="&lt;Path&gt;" class="s13" d="m437.9 437.5h-30.7v-5.8h30.7z"/>
				</g>
			</g>
			<g id="&lt;Group&gt;">
				<path id="&lt;Path&gt;" class="s6" d="m291.4 446.5v13.7h145.4c11.3 0 21.2-5.4 27.5-13.7z"/>
				<path id="&lt;Path&gt;" class="s15" d="m291.4 446.5v13.7h145.4c11.3 0 21.2-5.4 27.5-13.7z"/>
				<path id="&lt;Path&gt;" class="s6" d="m469.2 437.5h-186.5v9h181.6c2.1-2.7 3.7-5.7 4.9-9z"/>
				<path id="&lt;Path&gt;" class="s16" d="m469.2 437.5h-186.5v9h181.6c2.1-2.7 3.7-5.7 4.9-9z"/>
			</g>
			<g id="&lt;Group&gt;">
				<path id="&lt;Compound Path&gt;" fill-rule="evenodd" class="s9" d="m479.8 238.5v187.2c0 23.7-19.3 43-43 43h-210.1c-23.7 0-43-19.3-43-43v-187.2c0-23.7 19.3-43 43-43h210.1c23.7 0 43 19.3 43 43zm-8.5 0c0-19.1-15.4-34.5-34.5-34.5h-210.1c-19.1 0-34.6 15.4-34.6 34.5v187.2c0 19.1 15.5 34.5 34.6 34.5h210.1c19.1 0 34.5-15.4 34.5-34.5z"/>
				<path id="&lt;Compound Path&gt;" fill-rule="evenodd" class="s14" d="m479.8 238.5v187.2c0 23.7-19.3 43-43 43h-210.1c-23.7 0-43-19.3-43-43v-187.2c0-23.7 19.3-43 43-43h210.1c23.7 0 43 19.3 43 43zm-8.5 0c0-19.1-15.4-34.5-34.5-34.5h-210.1c-19.1 0-34.6 15.4-34.6 34.5v187.2c0 19.1 15.5 34.5 34.6 34.5h210.1c19.1 0 34.5-15.4 34.5-34.5z"/>
			</g>
		</g>
	</g>
	<g id="Clock">
		<g id="&lt;Group&gt;">
			<path id="&lt;Path&gt;" class="s9" d="m555.7 257.9c0 30.4-24.6 55-55 55-30.3 0-55-24.6-55-55 0-30.3 24.7-54.9 55-54.9 30.4 0 55 24.6 55 54.9z"/>
			<path id="&lt;Path&gt;" class="s25" d="m555.7 257.9c0 30.4-24.6 55-55 55-30.3 0-55-24.6-55-55 0-30.3 24.7-54.9 55-54.9 30.4 0 55 24.6 55 54.9z"/>
			<path id="&lt;Path&gt;" class="s9" d="m555.7 254.1c0 30.4-24.6 55-55 55-30.3 0-55-24.6-55-55 0-30.3 24.7-55 55-55 30.4 0 55 24.7 55 55z"/>
			<path id="&lt;Path&gt;" class="s26" d="m547.3 254.1c0 25.8-20.9 46.6-46.6 46.6-25.7 0-46.5-20.8-46.5-46.6 0-25.7 20.8-46.5 46.5-46.5 25.7 0 46.6 20.8 46.6 46.5z"/>
			<g id="&lt;Group&gt;">
				<path id="&lt;Path&gt;" class="s6" d="m498.8 221.4c0 10.3-0.3 20.6 0 30.9 0.1 3.3 1.7 4.3 4.1 6.7q5.4 5.4 10.9 10.9c1.7 1.7 4.4-1 2.7-2.7q-5.1-5.1-10.2-10.2c-1.3-1.3-3.1-2.6-4.2-4.1 1.3 1.9 0.5-0.3 0.5-2q0-14.7 0-29.5c0-2.5-3.8-2.5-3.8 0z"/>
			</g>
		</g>
	</g>
	<g id="Character 2">
		<g id="&lt;Group&gt;">
			<g id="&lt;Group&gt;">
				<g id="&lt;Group&gt;">
					<path id="&lt;Path&gt;" class="s6" d="m587.9 817.5c-2.6 0-4.7-2-5-4.5l-1.5-16.5v-136.8h12.9v136.8l-1.5 16.5c-0.3 2.5-2.4 4.5-4.9 4.5z"/>
					<path id="&lt;Path&gt;" class="s15" d="m587.9 817.5c-2.6 0-4.7-2-5-4.5l-1.5-16.5v-136.8h12.9v136.8l-1.5 16.5c-0.3 2.5-2.4 4.5-4.9 4.5z"/>
					<path id="&lt;Path&gt;" class="s21" d="m581.4 691.1h12.9v-16h-12.9z"/>
				</g>
				<g id="&lt;Group&gt;">
					<path id="&lt;Path&gt;" class="s6" d="m598.9 798.8v-5.1c0-2-1.6-3.7-3.6-3.7h-14.9c-2 0-3.6 1.7-3.6 3.7v5.1l-36.7 10.1c-4.4 1.2-7.5 5.2-7.5 9.8h110.5c0-4.6-3.1-8.6-7.5-9.8z"/>
					<path id="&lt;Path&gt;" class="s7" d="m598.9 798.8v-5.1c0-2-1.6-3.7-3.6-3.7h-14.9c-2 0-3.6 1.7-3.6 3.7v5.1l-36.7 10.1c-4.4 1.2-7.5 5.2-7.5 9.8h110.5c0-4.6-3.1-8.6-7.5-9.8z"/>
					<path id="&lt;Path&gt;" class="s21" d="m598.9 798.7v-5q0-0.3 0-0.5h-22.1q0 0.2 0 0.5v5z"/>
				</g>
			</g>
			<path id="&lt;Path&gt;" class="s6" d="m646.6 526.1c-24.4 0.8-45.5 21.5-48 45.9l-9.1 86.6c-0.9 7.9 4.9 14.3 12.8 14.3h12.5 48.6 12.5c7.9 0 15-6.4 15.8-14.3l9.2-87.7c2.7-25.3-16.1-45.7-41.8-44.8z"/>
			<path id="&lt;Path&gt;" class="s7" d="m646.6 526.1c-24.4 0.8-45.5 21.5-48 45.9l-9.1 86.6c-0.9 7.9 4.9 14.3 12.8 14.3h12.5 48.6 12.5c7.9 0 15-6.4 15.8-14.3l9.2-87.7c2.7-25.3-16.1-45.7-41.8-44.8z"/>
			<path id="&lt;Path&gt;" class="s6" d="m688.4 570.9c2.7-25.3-16.2-45.7-41.8-44.8-24.4 0.8-45.5 21.5-48 45.9l-9.1 86.6c-0.9 7.9 4.9 14.3 12.8 14.3h61.1c7.9 0 15-6.4 15.8-14.3z"/>
			<g id="&lt;Group&gt;">
				<path id="&lt;Path&gt;" class="s6" d="m485.4 659c14.6-4.1 29.7-6.3 44.8-6.7 15.6-0.4 74-0.1 87.8-0.1 16.9 0 33.7 2.3 50.1 6.8 10.3 2.8 7.1 18.9-2.2 19.1-0.8 0-177.1 0-177.8 0-9.7 0.5-13.2-16.2-2.7-19.1z"/>
				<g id="&lt;Group&gt;">
					<path id="&lt;Path&gt;" class="s6" d="m663.3 677.8c-29.6-8.2-61-8.2-90.6 0-11.2 3.1-16-15.7-4.8-18.8 32.7-9.1 67.5-9.1 100.2 0 11.2 3.1 6.4 21.9-4.8 18.8z"/>
				</g>
				<g id="&lt;Group&gt;" style="opacity: .2">
					<path id="&lt;Path&gt;" class="s17" d="m663.3 677.8c-29.6-8.2-61-8.2-90.6 0-11.2 3.1-16-15.7-4.8-18.8 32.7-9.1 67.5-9.1 100.2 0 11.2 3.1 6.4 21.9-4.8 18.8z"/>
				</g>
			</g>
		</g>
		<g id="&lt;Group&gt;">
			<path id="&lt;Path&gt;" class="s27" d="m463.2 722.9l-12.5 36.4-10.5-3 8.5-38.4z"/>
			<g id="&lt;Group&gt;">
				<path id="&lt;Path&gt;" class="s6" d="m440.4 753.5l12.9 3.9c0.5 0.1 0.9 0.7 0.9 1.2l-0.5 12.8c0 1.2-1 2.1-2.1 2q-0.2 0-0.4 0c-5.4-1.5-10.1-3.1-16.7-4.8-7.9-2-6.2-0.6-15.5-2.9-5.6-1.4-4.9-8-2.5-7.7 11.2 1.5 15.2-1.5 20.4-4.3 1.1-0.5 2.3-0.5 3.5-0.2z"/>
			</g>
			<path id="&lt;Path&gt;" class="s21" d="m456.4 742.7l-12.5-3.2 4.8-21.6 14.5 5z"/>
			<g id="&lt;Group&gt;">
				<path id="&lt;Path&gt;" class="s9" d="m465.4 732.6l-3.5 6.7-19.9-6.7v-7.7z"/>
				<path id="&lt;Path&gt;" class="s15" d="m465.4 732.6l-3.5 6.7-19.9-6.7v-7.7z"/>
			</g>
			<g id="&lt;Group&gt;">
				<path id="&lt;Path&gt;" class="s27" d="m543.5 767.5l4.1 32.3-11.7 0.3-8.5-31.1z"/>
				<g id="&lt;Group&gt;">
					<path id="&lt;Path&gt;" class="s6" d="m535.8 798.3h13.3c0.6 0 1.1 0.4 1.2 1l2.8 12.5c0.2 1.1-0.4 2.2-1.6 2.5q-0.2 0-0.4 0c-5.5-0.1-10.5-0.4-17.4-0.4-8.1 0-6 0.9-15.6 1.1-5.8 0-6.8-6.5-4.4-6.9 11.2-1.3 14.4-4.7 18.7-8.7 1-0.8 2.1-1.2 3.4-1.1z"/>
				</g>
				<path id="&lt;Path&gt;" class="s21" d="m532.4 787l-5-18 16.1-1.5 2.4 18.7z"/>
				<path id="&lt;Path&gt;" class="s9" d="m583.9 574h-19c0 0-5 12.9-6 26.4-1 13.5 25 3.5 25 3.5l2.2-18.5z"/>
				<path id="&lt;Path&gt;" class="s21" d="m583.9 574h-19c0 0-5 12.9-6 26.4-1 13.5 25 3.5 25 3.5l2.2-18.5z"/>
				<path id="&lt;Path&gt;" class="s21" d="m572.9 574c5.2 27.7-4.9 26.2-4.9 26.2l5.7 4 10.4-2.5 2-16.3-2.2-11.4z"/>
				<path id="&lt;Path&gt;" class="s9" d="m621.6 572.3c0 0 19.3 32.3 16 59.2-3.3 26.9-28.2 41.2-124-4.7 0 0-19.7 20.3-52.3 107.5l-16.6-5c0 0 18.8-100.7 35.6-129.4 16.9-28.9 91.4 5 97.1-0.7 5-5 0.7-24.9 0.7-24.9z"/>
				<path id="&lt;Path&gt;" class="s22" d="m502.6 635.8l-5.2-4c0 0-18.5 10-9.3 38.4 6.7-13.9 12.2-23.7 16.3-30.4z"/>
				<path id="&lt;Path&gt;" class="s9" d="m582.6 653.3c-17.4-4.2-39.9-12.5-69-26.5 0 0-22.5 0.3-24 17-1.5 16.7 37.9 132.3 37.9 132.3l18.2-1.6c0 0-10.7-115.2-13.2-121.2z"/>
				<path id="&lt;Path&gt;" class="s21" d="m582.6 653.3c-17.4-4.2-39.9-12.5-69-26.5 0 0-22.5 0.3-24 17-1.5 16.7 37.9 132.3 37.9 132.3l18.2-1.6c0 0-10.7-115.2-13.2-121.2z"/>
				<path id="&lt;Path&gt;" class="s21" d="m513.6 626.8c0 0-3.5 0-7.7 1.1 4.1 3.6 18.6 15.7 40.6 25.4h36.1c-17.4-4.2-39.9-12.5-69-26.5z"/>
				<g id="&lt;Group&gt;">
					<path id="&lt;Path&gt;" class="s9" d="m547.9 771.5l0.5 7.5-21.2 1.7-3-7.1z"/>
					<path id="&lt;Path&gt;" class="s15" d="m547.9 771.5l0.5 7.5-21.2 1.7-3-7.1z"/>
				</g>
				<g id="&lt;Group&gt;">
					<path id="&lt;Path&gt;" class="s27" d="m538.4 540.1l-21.4 12-14.3-0.7c-1.3-0.1-2.5 0.6-3.2 1.7l-4.1 6.4c-0.6 0.9-0.7 1.9-0.4 3l0.1 0.3c0.5 1.8 2.4 2.9 4.3 2.4l6.2-1.5 12.4-2.4 30.4-13.2z"/>
					<path id="&lt;Path&gt;" class="s6" d="m534.2 540.8c0 0 7.6 2.2 9.4 11.3 0 0 15.6-5.4 18.3-14.1 2.7-8.7 10-51.8-1.8-51.9-11.7-0.1-5.4 51.5-25.9 54.7z"/>
					<path id="&lt;Path&gt;" class="s13" d="m534.2 540.8c0 0 7.6 2.2 9.4 11.3 0 0 15.6-5.4 18.3-14.1 2.7-8.7 10-51.8-1.8-51.9-11.7-0.1-5.4 51.5-25.9 54.7z"/>
					<path id="&lt;Path&gt;" class="s6" d="m530.2 541.4c0 0 5.6 5.1 9.2 13.7l8.2-4.1c0 0-3.3-9.4-10-13.2z"/>
					<path id="&lt;Path&gt;" class="s10" d="m530.2 541.4c0 0 5.6 5.1 9.2 13.7l8.2-4.1c0 0-3.3-9.4-10-13.2z"/>
				</g>
				<path id="&lt;Path&gt;" class="s6" d="m563.4 576.1c0 0 29.5 2.7 60.9-1.8 0 0-6.9-23-1.9-51 4.9-27.9 31.2-44.5-34-43.4-9.5 0.2-37.5-1.1-34.3 18.9 3.4 21.3 9.3 77.3 9.3 77.3z"/>
				<path id="&lt;Path&gt;" class="s16" d="m563.4 576.1c0 0 29.5 2.7 60.9-1.8 0 0-6.9-23-1.9-51 4.9-27.9 31.2-44.5-34-43.4-9.5 0.2-37.5-1.1-34.3 18.9 3.4 21.3 9.3 77.3 9.3 77.3z"/>
				<path id="&lt;Path&gt;" class="s27" d="m602.3 543.4l-30.5 9-13-2.3c-1.4-0.2-2.8 0.3-3.6 1.5l-4.4 5.9c-0.7 0.9-0.9 2-0.6 3v0.2c0.4 1.9 2.3 3.1 4.2 2.8l6.3-1.1 12.5-1.5 38.5-8.8z"/>
				<path id="&lt;Path&gt;" class="s6" d="m597.8 542.9c0 0 7.5 2.9 8.6 12 0 0 16.1-3.5 19.4-12 3.3-8.5 13.8-56.1 2.1-57-11.7-0.8-9.4 55.3-30.1 57z"/>
				<path id="&lt;Path&gt;" class="s13" d="m597.8 542.9c0 0 7.5 2.9 8.6 12 0 0 16.1-3.5 19.4-12 3.3-8.5 13.8-56.1 2.1-57-11.7-0.8-9.4 55.3-30.1 57z"/>
				<path id="&lt;Path&gt;" class="s6" d="m593.2 543.7c0 0 6.6 6.1 9.1 13.6l8.4-2.4c0 0-3.5-10-9.9-14.3z"/>
				<path id="&lt;Path&gt;" class="s10" d="m593.2 543.7c0 0 6.6 6.1 9.1 13.6l8.4-2.4c0 0-3.5-10-9.9-14.3z"/>
				<g id="&lt;Group&gt;">
					<path id="&lt;Path&gt;" class="s6" d="m600.9 421.7c0 0-9.1-18.2 4.9-15.9 13.9 2.4 5.7 38.7 18.5 43.6 0 0-14.8 3.7-23.4-27.7z"/>
					<path id="&lt;Path&gt;" class="s28" d="m598.3 414c0.7 3.9 2.6 7.7 2.6 7.7 2.3 8.6 5.1 14.5 8 18.7 2.1-6.7 2.9-17.5-3.3-23.7-2.4-2.4-4.9-1.7-7.3-2.7z"/>
					<path id="&lt;Path&gt;" class="s9" d="m596 417.8c0 0 4.6-5.2 8.5 1.5 3.9 6.6-2.5 8.2-2.5 8.2z"/>
					<path id="&lt;Path&gt;" class="s6" d="m599.3 452.4c0 0 2 7.4 7.4 2.3 5.3-5.1-4.3 0.3-7.4-2.3z"/>
					<path id="&lt;Path&gt;" class="s6" d="m588.3 479.3c0 0-13-4.5-18.6 6.6l5.2 2-2.9 3.5 10.7 7.7 18.2-6.2-1-2.6 8.8-2.4c0 0 2.3-12.8-20.4-8.6z"/>
					<path id="&lt;Path&gt;" class="s10" d="m588.3 479.3c0 0-13-4.5-18.6 6.6l5.2 2-2.9 3.5 10.7 7.7 18.2-6.2-1-2.6 8.8-2.4c0 0 2.3-12.8-20.4-8.6z"/>
					<path id="&lt;Path&gt;" class="s27" d="m588.7 480.3c0 0-21.8-4.8-6.5 16.9 0 0 43.6-17.3 6.5-16.9z"/>
					<path id="&lt;Path&gt;" class="s27" d="m597.4 455.3l-14.8 14.6c1.3 6.3-0.6 9.6-2.6 11.3v4.7c1.7 0.5 4.1 0.9 7.7 0.7 10.8-0.6 14.3-1.7 14.3-1.7-6.5-5.2-5.6-20.9-4.6-29.6z"/>
					<path id="&lt;Path&gt;" class="s21" d="m582.7 476.6c0.4-1.7 0.4-3.9-0.1-6.7l13.2-13 1.3 1.5c0 0-2.7 16.5-14.4 18.2z"/>
					<path id="&lt;Path&gt;" class="s27" d="m598.6 436.1c1.1 14.2 1.9 20.2-4.3 28.5-9.2 12.4-27 10.6-32.3-3.1-4.8-12.2-5.8-33.5 7.3-41 9.3-5.5 21.2-2.3 26.7 7 1.5 2.6 2.4 5.5 2.6 8.6z"/>
					<path id="&lt;Path&gt;" class="s29" d="m569.5 450.5c-0.7 2.7-1.7 5.4-3.1 7.9 1.3 0.7 2.9 0.8 4.2 0.2z"/>
					<path id="&lt;Path&gt;" class="s30" d="m580.3 440.7q0.1 0 0.2-0.1c0.2-0.3 0.2-0.6 0-0.8q0 0 0 0c-1.7-1.5-3.9-2-6-1.5-0.3 0.1-0.4 0.4-0.3 0.7 0 0.3 0.4 0.5 0.7 0.4 1.7-0.4 3.5 0.1 4.8 1.2 0.2 0.2 0.4 0.2 0.6 0.1z"/>
					<path id="&lt;Path&gt;" class="s30" d="m559.2 442.7q0.2 0 0.3-0.2c1.1-1.3 2.8-2 4.6-1.9 0.3 0 0.6-0.2 0.7-0.5q0 0 0 0c0-0.3-0.2-0.6-0.5-0.6-2.2-0.2-4.3 0.6-5.7 2.3-0.2 0.2-0.2 0.6 0 0.8 0.2 0.1 0.4 0.2 0.6 0.1z"/>
					<g id="&lt;Group&gt;">
						<path id="&lt;Path&gt;" class="s30" d="m577.4 447.4c0.1 1.2-0.4 2.2-1.1 2.3-0.8 0.1-1.5-0.7-1.6-1.9-0.2-1.1 0.3-2.1 1-2.2 0.8-0.2 1.5 0.7 1.7 1.8z"/>
						<path id="&lt;Path&gt;" class="s30" d="m564.4 449.2c0.1 1.2-0.4 2.2-1.1 2.3-0.8 0.1-1.5-0.7-1.7-1.9-0.1-1.1 0.4-2.1 1.1-2.2 0.7-0.2 1.5 0.7 1.7 1.8z"/>
						<path id="&lt;Path&gt;" class="s30" d="m563 447.4l-2.8-0.4c0 0 1.7 1.9 2.8 0.4z"/>
						<path id="&lt;Path&gt;" class="s30" d="m576.1 445.6l-2.9-0.4c0 0 1.7 1.9 2.9 0.4z"/>
					</g>
					<path id="&lt;Path&gt;" class="s6" d="m578.3 459.1q0.3-0.6 0.6-1.2c0-0.2 0-0.3-0.2-0.4q0 0 0 0c-0.1-0.1-0.3 0-0.3 0.2-0.8 2.2-2.7 4-5 4.6-0.1 0.1-0.2 0.2-0.2 0.4 0.1 0.1 0.2 0.2 0.4 0.2 2-0.6 3.7-1.9 4.7-3.8z"/>
					<path id="&lt;Path&gt;" class="s6" d="m599.3 452.4c0 0-7.8-4.3-8.3-16-0.5-11.8-18.4-14.2-29.4-7.3 0 0-3.1-10.4 8.4-11.3 0 0 16.8-12.3 30.6 1.5 12.2 12.1-1.3 33.1-1.3 33.1z"/>
					<path id="&lt;Path&gt;" class="s27" d="m603.5 446.8c-0.4 2.7-1.9 5.2-4.1 6.8-3 2.1-5.8-0.2-6-3.7-0.2-3.1 1.1-8 4.6-8.7 2.6-0.5 5 1.2 5.5 3.7q0.2 0.9 0 1.9z"/>
					<path id="&lt;Path&gt;" class="s6" d="m562.6 427.3c0 0-3.5 7.8-6.5 0-2.9-7.9 3.5 1.7 6.5 0z"/>
				</g>
			</g>
		</g>
	</g>
	<g id="Device">
		<g id="&lt;Group&gt;">
			<path id="&lt;Path&gt;" class="s9" d="m571.6 562h-102.2c-1.7 0-3 1.4-3 3 0 1.7 1.3 3 3 3h102.2c1.6 0 3-1.3 3-3 0-1.6-1.4-3-3-3z"/>
			<path id="&lt;Path&gt;" class="s15" d="m571.6 562h-102.2c-1.7 0-3 1.4-3 3 0 1.7 1.3 3 3 3h102.2c1.6 0 3-1.3 3-3 0-1.6-1.4-3-3-3z"/>
			<path id="&lt;Path&gt;" class="s7" d="m513.4 568c-1.6 0-3-1.3-3-3 0-1.6 1.4-3 3-3h58.2c1.6 0 3 1.4 3 3 0 1.7-1.4 3-3 3z"/>
			<path id="&lt;Path&gt;" class="s9" d="m471 566.2h37.6c1 0 1.7-1 1.3-1.9l-20.6-58.9c-0.5-1.6-2.1-2.7-3.8-2.7h-37.6c-0.9 0-1.6 1-1.3 1.9l20.6 58.9c0.6 1.6 2.1 2.7 3.8 2.7z"/>
			<path id="&lt;Path&gt;" class="s9" d="m469.2 566.2h37.6c1 0 1.6-1 1.3-1.9l-20.6-58.9c-0.6-1.6-2.1-2.7-3.8-2.7h-37.6c-1 0-1.6 1-1.3 1.9l20.6 58.9c0.6 1.6 2.1 2.7 3.8 2.7z"/>
			<path id="&lt;Path&gt;" class="s16" d="m469.2 566.2h37.6c1 0 1.6-1 1.3-1.9l-20.6-58.9c-0.6-1.6-2.1-2.7-3.8-2.7h-37.6c-1 0-1.6 1-1.3 1.9l20.6 58.9c0.6 1.6 2.1 2.7 3.8 2.7z"/>
			<path id="&lt;Path&gt;" class="s17" d="m473.4 534.5c0.5 2.2 2 4 3.5 4 1.4 0 2.2-1.8 1.7-4-0.4-2.3-2-4.1-3.5-4.1-1.4 0-2.2 1.8-1.7 4.1z"/>
		</g>
	</g>
	<g id="Plant">
		<g id="&lt;Group&gt;">
			<g id="&lt;Group&gt;">
				<path id="&lt;Path&gt;" class="s9" d="m396.4 532.8c0 0-12.8-11.9-6.1-17 6.7-5.2-8-13.1-2.7-17 5.3-3.8-2.6-13.8 2-15.5 4.7-1.7-1.1-7.5 2.2-10.3 4.4-3.7 3.5 15.1 7.9 15.5 4.4 0.3-4.3 10.7 1.1 12 5.5 1.3-1.9 13.1 3.2 13.3 5 0.2 0.4 13-7.6 19z"/>
				<path id="&lt;Path&gt;" class="s16" d="m396.4 532.8c0 0-12.8-11.9-6.1-17 6.7-5.2-8-13.1-2.7-17 5.3-3.8-2.6-13.8 2-15.5 4.7-1.7-1.1-7.5 2.2-10.3 4.4-3.7 3.5 15.1 7.9 15.5 4.4 0.3-4.3 10.7 1.1 12 5.5 1.3-1.9 13.1 3.2 13.3 5 0.2 0.4 13-7.6 19z"/>
				<g id="&lt;Group&gt;" style="opacity: .2">
					<path id="&lt;Path&gt;" class="s18" d="m392.1 477.8q2 11.7 3.2 23.5c1.1 9.7 3.3 21.8 0.3 31.3-0.3 1 1.3 1.5 1.6 0.5 3.1-9.8 0.9-21.9-0.2-31.8q-1.3-12-3.3-23.9c-0.1-1.1-1.7-0.6-1.6 0.4z"/>
				</g>
			</g>
			<g id="&lt;Group&gt;">
				<path id="&lt;Path&gt;" class="s9" d="m392.1 530.8c0 0-13.2-6.4-9.1-12.2 4.2-5.8-9.6-8.6-6.3-13 3.3-4.4-5.5-10.5-2.2-12.9 3.3-2.5-3.8-8.5-0.8-8.9 4.8-0.6 6.6 11.3 10.1 10.5 3.6-0.8-0.8 9.7 3.9 9.4 4.7-0.3 1.7 11 5.8 9.9 4.1-1.1 3.6 10.3-1.4 17.2z"/>
				<g id="&lt;Group&gt;" style="opacity: .2">
					<path id="&lt;Path&gt;" class="s18" d="m376.5 489.5c6.3 13 12.7 27.1 14.8 41.5 0.2 1 1.8 0.6 1.6-0.5-2.1-14.5-8.6-28.8-15-41.9-0.5-0.9-1.9-0.1-1.4 0.9z"/>
				</g>
			</g>
			<g id="&lt;Group&gt;">
				<path id="&lt;Path&gt;" class="s9" d="m403.2 530.8c0 0 13.3-6.4 9.1-12.2-4.1-5.8 9.7-8.6 6.4-13-3.3-4.4 5.5-10.5 2.2-12.9-3.3-2.5 2.8-4.8 0.8-8.9-2.2-4.3-6.6 11.3-10.2 10.5-3.6-0.8 0.8 9.7-3.8 9.4-4.7-0.3-1.7 11-5.8 9.9-4.2-1.1-3.6 10.3 1.3 17.2z"/>
				<path id="&lt;Path&gt;" class="s7" d="m403.2 530.8c0 0 13.3-6.4 9.1-12.2-4.1-5.8 9.7-8.6 6.4-13-3.3-4.4 5.5-10.5 2.2-12.9-3.3-2.5 2.8-4.8 0.8-8.9-2.2-4.3-6.6 11.3-10.2 10.5-3.6-0.8 0.8 9.7-3.8 9.4-4.7-0.3-1.7 11-5.8 9.9-4.2-1.1-3.6 10.3 1.3 17.2z"/>
				<g id="&lt;Group&gt;" style="opacity: .2">
					<path id="&lt;Path&gt;" class="s18" d="m418.8 489.5c-6.4 13-12.8 27.1-14.9 41.5-0.1 1-1.7 0.6-1.6-0.5 2.1-14.5 8.6-28.8 15-41.9 0.5-0.9 1.9-0.1 1.5 0.9z"/>
				</g>
			</g>
			<path id="&lt;Path&gt;" class="s9" d="m410.2 568.4h-23.5l-4.4-39.7h32.3z"/>
			<path id="&lt;Path&gt;" class="s15" d="m410.2 568.4h-23.5l-4.4-39.7h32.3z"/>
		</g>
	</g>
	<g id="Desk">
		<g id="&lt;Group&gt;">
			<g id="&lt;Group&gt;">
				<g id="&lt;Group&gt;">
					<path id="&lt;Path&gt;" class="s6" d="m470.2 817.5c-2.6 0-4.7-2-5-4.5l-1.5-16.5v-225.9h12.9v225.9l-1.5 16.5c-0.3 2.5-2.4 4.5-4.9 4.5z"/>
					<path id="&lt;Path&gt;" class="s15" d="m470.2 817.5c-2.6 0-4.7-2-5-4.5l-1.5-16.5v-225.9h12.9v225.9l-1.5 16.5c-0.3 2.5-2.4 4.5-4.9 4.5z"/>
					<path id="&lt;Path&gt;" class="s21" d="m463.7 588.8h12.9v-15.9h-12.9z"/>
				</g>
				<g id="&lt;Group&gt;">
					<path id="&lt;Path&gt;" class="s9" d="m481.2 798.8v-5.1c0-2-1.6-3.7-3.6-3.7h-14.9c-2 0-3.6 1.7-3.6 3.7v5.1l-36.6 10.1c-4.5 1.2-7.6 5.2-7.6 9.8h110.5c0-4.6-3.1-8.6-7.5-9.8z"/>
					<path id="&lt;Path&gt;" class="s21" d="m481.2 798.7v-5q0-0.3 0-0.5h-22.1q0 0.2 0 0.5v5z"/>
					<path id="&lt;Path&gt;" class="s22" d="m481.2 798.8v-5.1c0-2-1.6-3.7-3.6-3.7h-14.9c-2 0-3.6 1.7-3.6 3.7v5.1l-36.6 10.1c-4.5 1.2-7.6 5.2-7.6 9.8h110.5c0-4.6-3.1-8.6-7.5-9.8z"/>
				</g>
			</g>
			<g id="&lt;Group&gt;">
				<path id="&lt;Path&gt;" class="s6" d="m610.8 583.2h-281.2v-7.6h281.2z"/>
				<path id="&lt;Path&gt;" class="s15" d="m610.8 583.2h-281.2v-7.6h281.2z"/>
				<path id="&lt;Path&gt;" class="s22" d="m610.8 583.2h-140.3v-7.6h140.3z"/>
				<path id="&lt;Path&gt;" class="s9" d="m627.7 575.6h-315.1v-7.6h315.1z"/>
				<path id="&lt;Path&gt;" class="s25" d="m627.7 575.6h-174.1v-7.6h174.1z"/>
			</g>
		</g>
	</g>
</svg>