<?xml version="1.0" encoding="UTF-8" standalone="no"?>
<!-- Generator: Adobe Illustrator 27.5.0, SVG Export Plug-In . SVG Version: 6.00 Build 0)  -->

<svg
   version="1.1"
   x="0px"
   y="0px"
   viewBox="0 0 199 155"
   xml:space="preserve"
   id="svg247"
   sodipodi:docname="certificado.svg"
   inkscape:version="1.3 (0e150ed6c4, 2023-07-21)"
   width="199"
   height="155"
   xmlns:inkscape="http://www.inkscape.org/namespaces/inkscape"
   xmlns:sodipodi="http://sodipodi.sourceforge.net/DTD/sodipodi-0.dtd"
   xmlns="http://www.w3.org/2000/svg"
   xmlns:svg="http://www.w3.org/2000/svg"><defs
   id="defs247" /><sodipodi:namedview
   id="namedview247"
   pagecolor="#ffffff"
   bordercolor="#000000"
   borderopacity="0.25"
   inkscape:showpageshadow="2"
   inkscape:pageopacity="0.0"
   inkscape:pagecheckerboard="true"
   inkscape:deskcolor="#d1d1d1"
   inkscape:zoom="2.3221387"
   inkscape:cx="115.62617"
   inkscape:cy="115.19553"
   inkscape:window-width="2560"
   inkscape:window-height="1017"
   inkscape:window-x="1912"
   inkscape:window-y="-8"
   inkscape:window-maximized="1"
   inkscape:current-layer="svg247" />&#10;&#10;<g
   id="Background_Simple"
   style="display:none">&#10;	<g
   style="display:inline"
   id="g41">&#10;		<path
   style="fill:#407bff"
   d="m 241.936,74.075 c 7.832,-1.91 16.622,-1.622 26.341,1.643 15.617,5.247 27.043,19.004 34.173,33.856 13.796,28.739 17.651,60.899 27.547,90.911 2.714,8.23 5.923,16.453 11.228,23.305 22.071,28.507 82.754,12.137 82.176,62.137 -0.163,14.13 -7.771,27.655 -18.876,36.394 -32.69,25.724 -78.654,11.019 -113.588,-0.656 -32.732,-10.939 -61.068,-12.275 -93.872,0.819 -27.802,11.097 -56.895,29.991 -88.174,24.881 -31.807,-5.197 -46.032,-36.584 -40.707,-66.182 5.677,-31.551 30.416,-54.82 58.857,-67.405 16.966,-7.508 39.284,-12.096 52.582,-25.755 6.83,-7.015 9.803,-16.855 11.975,-26.402 3.458,-15.205 5.5,-30.795 10.651,-45.513 6.453,-18.439 19.682,-37.153 39.687,-42.033 z"
   id="path40" />&#10;		<path
   style="opacity:0.9;fill:#ffffff"
   d="m 241.936,74.075 c 7.832,-1.91 16.622,-1.622 26.341,1.643 15.617,5.247 27.043,19.004 34.173,33.856 13.796,28.739 17.651,60.899 27.547,90.911 2.714,8.23 5.923,16.453 11.228,23.305 22.071,28.507 82.754,12.137 82.176,62.137 -0.163,14.13 -7.771,27.655 -18.876,36.394 -32.69,25.724 -78.654,11.019 -113.588,-0.656 -32.732,-10.939 -61.068,-12.275 -93.872,0.819 -27.802,11.097 -56.895,29.991 -88.174,24.881 -31.807,-5.197 -46.032,-36.584 -40.707,-66.182 5.677,-31.551 30.416,-54.82 58.857,-67.405 16.966,-7.508 39.284,-12.096 52.582,-25.755 6.83,-7.015 9.803,-16.855 11.975,-26.402 3.458,-15.205 5.5,-30.795 10.651,-45.513 6.453,-18.439 19.682,-37.153 39.687,-42.033 z"
   id="path41" />&#10;	</g>&#10;</g>&#10;&#10;&#10;&#10;&#10;&#10;<g
   id="Background_Complete"
   transform="matrix(0.5093049,0,0,0.5093049,-29.042925,-42.911771)">&#10;	<g
   id="g8">&#10;		<rect
   y="382.39801"
   style="fill:#ebebeb"
   width="500"
   height="0.25"
   id="rect1"
   x="0" />&#10;		<rect
   x="416.77899"
   y="398.49399"
   style="fill:#ebebeb"
   width="33.122002"
   height="0.25"
   id="rect2" />&#10;		<rect
   x="322.52701"
   y="401.20801"
   style="fill:#ebebeb"
   width="8.6929998"
   height="0.25"
   id="rect3" />&#10;		<rect
   x="396.586"
   y="389.20801"
   style="fill:#ebebeb"
   width="19.191999"
   height="0.25"
   id="rect4" />&#10;		<rect
   x="52.459"
   y="390.888"
   style="fill:#ebebeb"
   width="43.193001"
   height="0.25"
   id="rect5" />&#10;		<rect
   x="104.556"
   y="390.888"
   style="fill:#ebebeb"
   width="6.3330002"
   height="0.25"
   id="rect6" />&#10;		<rect
   x="131.47099"
   y="395.11099"
   style="fill:#ebebeb"
   width="93.676003"
   height="0.25"
   id="rect7" />&#10;		<path
   style="fill:#ebebeb"
   d="M 237.014,337.8 H 43.915 c -3.147,0 -5.708,-2.561 -5.708,-5.708 V 60.66 c 0,-3.147 2.561,-5.708 5.708,-5.708 h 193.099 c 3.146,0 5.707,2.561 5.707,5.708 v 271.432 c 0,3.147 -2.561,5.708 -5.707,5.708 z M 43.915,55.203 c -3.01,0 -5.458,2.448 -5.458,5.458 v 271.432 c 0,3.01 2.448,5.458 5.458,5.458 h 193.099 c 3.009,0 5.457,-2.448 5.457,-5.458 V 60.66 c 0,-3.009 -2.448,-5.458 -5.457,-5.458 H 43.915 Z"
   id="path7" />&#10;		<path
   style="fill:#ebebeb"
   d="M 453.31,337.8 H 260.212 c -3.147,0 -5.707,-2.561 -5.707,-5.708 V 60.66 c 0,-3.147 2.561,-5.708 5.707,-5.708 H 453.31 c 3.148,0 5.708,2.561 5.708,5.708 v 271.432 c 0.001,3.147 -2.56,5.708 -5.708,5.708 z M 260.212,55.203 c -3.009,0 -5.457,2.448 -5.457,5.458 v 271.432 c 0,3.01 2.448,5.458 5.457,5.458 H 453.31 c 3.01,0 5.458,-2.448 5.458,-5.458 V 60.66 c 0,-3.009 -2.448,-5.458 -5.458,-5.458 H 260.212 Z"
   id="path8" />&#10;	</g>&#10;	<g
   id="g110">&#10;		<g
   id="g107">&#10;			<g
   id="g37">&#10;				&#10;					<rect
   x="281.052"
   y="97.888"
   transform="rotate(180,315.09885,213.92355)"
   style="fill:#fafafa"
   width="68.093002"
   height="232.07001"
   id="rect8" />&#10;				&#10;					<rect
   x="279.48099"
   y="94.738998"
   transform="rotate(180,315.09875,100.43305)"
   style="fill:#f0f0f0"
   width="71.236"
   height="11.388"
   id="rect9" />&#10;				<g
   id="g36">&#10;					&#10;						<rect
   x="279.48099"
   y="107.389"
   transform="rotate(180,315.09875,110.2358)"
   style="fill:#f0f0f0"
   width="71.236"
   height="5.6939998"
   id="rect10" />&#10;					&#10;						<rect
   x="279.48099"
   y="115.84"
   transform="rotate(180,315.09875,118.68665)"
   style="fill:#f0f0f0"
   width="71.236"
   height="5.6939998"
   id="rect11" />&#10;					&#10;						<rect
   x="279.48099"
   y="124.29"
   transform="rotate(180,315.09875,127.1376)"
   style="fill:#f0f0f0"
   width="71.236"
   height="5.6939998"
   id="rect12" />&#10;					&#10;						<rect
   x="279.48099"
   y="132.741"
   transform="rotate(180,315.09875,135.58845)"
   style="fill:#f0f0f0"
   width="71.236"
   height="5.6939998"
   id="rect13" />&#10;					&#10;						<rect
   x="279.48099"
   y="141.192"
   transform="rotate(180,315.09875,144.03935)"
   style="fill:#f0f0f0"
   width="71.236"
   height="5.6939998"
   id="rect14" />&#10;					&#10;						<rect
   x="279.48099"
   y="149.64301"
   transform="rotate(180,315.09875,152.4902)"
   style="fill:#f0f0f0"
   width="71.236"
   height="5.6939998"
   id="rect15" />&#10;					&#10;						<rect
   x="279.48099"
   y="158.09399"
   transform="rotate(180,315.09875,160.9411)"
   style="fill:#f0f0f0"
   width="71.236"
   height="5.6939998"
   id="rect16" />&#10;					&#10;						<rect
   x="279.48099"
   y="166.545"
   transform="rotate(180,315.09875,169.39195)"
   style="fill:#f0f0f0"
   width="71.236"
   height="5.6939998"
   id="rect17" />&#10;					&#10;						<rect
   x="279.48099"
   y="174.996"
   transform="rotate(180,315.09875,177.8429)"
   style="fill:#f0f0f0"
   width="71.236"
   height="5.6939998"
   id="rect18" />&#10;					&#10;						<rect
   x="279.48099"
   y="183.44701"
   transform="rotate(180,315.09875,186.2937)"
   style="fill:#f0f0f0"
   width="71.236"
   height="5.6939998"
   id="rect19" />&#10;					&#10;						<rect
   x="279.48099"
   y="191.89799"
   transform="rotate(180,315.09875,194.74465)"
   style="fill:#f0f0f0"
   width="71.236"
   height="5.6939998"
   id="rect20" />&#10;					&#10;						<rect
   x="279.48099"
   y="200.34801"
   transform="rotate(180,315.09875,203.1955)"
   style="fill:#f0f0f0"
   width="71.236"
   height="5.6939998"
   id="rect21" />&#10;					&#10;						<rect
   x="279.48099"
   y="208.799"
   transform="rotate(180,315.09875,211.6464)"
   style="fill:#f0f0f0"
   width="71.236"
   height="5.6939998"
   id="rect22" />&#10;					&#10;						<rect
   x="279.48099"
   y="217.25"
   transform="rotate(180,315.09875,220.0973)"
   style="fill:#f0f0f0"
   width="71.236"
   height="5.6939998"
   id="rect23" />&#10;					&#10;						<rect
   x="279.48099"
   y="225.701"
   transform="rotate(180,315.09875,228.54815)"
   style="fill:#f0f0f0"
   width="71.236"
   height="5.6939998"
   id="rect24" />&#10;					&#10;						<rect
   x="279.48099"
   y="234.15199"
   transform="rotate(180,315.09875,236.9991)"
   style="fill:#f0f0f0"
   width="71.236"
   height="5.6939998"
   id="rect25" />&#10;					&#10;						<rect
   x="279.48099"
   y="242.603"
   transform="rotate(180,315.09875,245.4499)"
   style="fill:#f0f0f0"
   width="71.236"
   height="5.6939998"
   id="rect26" />&#10;					&#10;						<rect
   x="279.48099"
   y="251.054"
   transform="rotate(180,315.09875,253.90085)"
   style="fill:#f0f0f0"
   width="71.236"
   height="5.6939998"
   id="rect27" />&#10;					&#10;						<rect
   x="279.48099"
   y="259.505"
   transform="rotate(180,315.09875,262.3517)"
   style="fill:#f0f0f0"
   width="71.236"
   height="5.6939998"
   id="rect28" />&#10;					&#10;						<rect
   x="279.48099"
   y="267.95599"
   transform="rotate(180,315.09875,270.8026)"
   style="fill:#f0f0f0"
   width="71.236"
   height="5.6939998"
   id="rect29" />&#10;					&#10;						<rect
   x="279.48099"
   y="276.40601"
   transform="rotate(180,315.09875,279.25345)"
   style="fill:#f0f0f0"
   width="71.236"
   height="5.6939998"
   id="rect30" />&#10;					&#10;						<rect
   x="279.48099"
   y="284.85699"
   transform="rotate(180,315.09875,287.70435)"
   style="fill:#f0f0f0"
   width="71.236"
   height="5.6939998"
   id="rect31" />&#10;					&#10;						<rect
   x="279.48099"
   y="293.30801"
   transform="rotate(180,315.09875,296.1552)"
   style="fill:#f0f0f0"
   width="71.236"
   height="5.6939998"
   id="rect32" />&#10;					&#10;						<rect
   x="279.48099"
   y="301.759"
   transform="rotate(180,315.09875,304.60615)"
   style="fill:#f0f0f0"
   width="71.236"
   height="5.6939998"
   id="rect33" />&#10;					&#10;						<rect
   x="279.48099"
   y="310.20999"
   transform="rotate(180,315.09875,313.057)"
   style="fill:#f0f0f0"
   width="71.236"
   height="5.6939998"
   id="rect34" />&#10;					&#10;						<rect
   x="279.48099"
   y="318.66101"
   transform="rotate(180,315.09875,321.5079)"
   style="fill:#f0f0f0"
   width="71.236"
   height="5.6939998"
   id="rect35" />&#10;					&#10;						<rect
   x="279.48099"
   y="327.112"
   transform="rotate(180,315.09875,329.95875)"
   style="fill:#f0f0f0"
   width="71.236"
   height="5.6939998"
   id="rect36" />&#10;				</g>&#10;			</g>&#10;			<g
   id="g66">&#10;				&#10;					<rect
   x="366.16"
   y="97.888"
   transform="rotate(180,400.20635,213.92355)"
   style="fill:#fafafa"
   width="68.093002"
   height="232.07001"
   id="rect37" />&#10;				&#10;					<rect
   x="364.58899"
   y="94.738998"
   transform="rotate(180,400.20635,100.43305)"
   style="fill:#f0f0f0"
   width="71.236"
   height="11.388"
   id="rect38" />&#10;				<g
   id="g65">&#10;					&#10;						<rect
   x="364.58899"
   y="107.389"
   transform="rotate(180,400.20635,110.2358)"
   style="fill:#f0f0f0"
   width="71.236"
   height="5.6939998"
   id="rect39" />&#10;					&#10;						<rect
   x="364.58899"
   y="115.84"
   transform="rotate(180,400.20635,118.68665)"
   style="fill:#f0f0f0"
   width="71.236"
   height="5.6939998"
   id="rect40" />&#10;					&#10;						<rect
   x="364.58899"
   y="124.29"
   transform="rotate(180,400.20635,127.1376)"
   style="fill:#f0f0f0"
   width="71.236"
   height="5.6939998"
   id="rect41" />&#10;					&#10;						<rect
   x="364.58899"
   y="132.741"
   transform="rotate(180,400.20635,135.58845)"
   style="fill:#f0f0f0"
   width="71.236"
   height="5.6939998"
   id="rect42" />&#10;					&#10;						<rect
   x="364.58899"
   y="141.192"
   transform="rotate(180,400.20635,144.03935)"
   style="fill:#f0f0f0"
   width="71.236"
   height="5.6939998"
   id="rect43" />&#10;					&#10;						<rect
   x="364.58899"
   y="149.64301"
   transform="rotate(180,400.20635,152.4902)"
   style="fill:#f0f0f0"
   width="71.236"
   height="5.6939998"
   id="rect44" />&#10;					&#10;						<rect
   x="364.58899"
   y="158.09399"
   transform="rotate(180,400.20635,160.9411)"
   style="fill:#f0f0f0"
   width="71.236"
   height="5.6939998"
   id="rect45" />&#10;					&#10;						<rect
   x="364.58899"
   y="166.545"
   transform="rotate(180,400.20635,169.39195)"
   style="fill:#f0f0f0"
   width="71.236"
   height="5.6939998"
   id="rect46" />&#10;					&#10;						<rect
   x="364.58899"
   y="174.996"
   transform="rotate(180,400.20635,177.8429)"
   style="fill:#f0f0f0"
   width="71.236"
   height="5.6939998"
   id="rect47" />&#10;					&#10;						<rect
   x="364.58899"
   y="183.44701"
   transform="rotate(180,400.20635,186.2937)"
   style="fill:#f0f0f0"
   width="71.236"
   height="5.6939998"
   id="rect48" />&#10;					&#10;						<rect
   x="364.58899"
   y="191.89799"
   transform="rotate(180,400.20635,194.74465)"
   style="fill:#f0f0f0"
   width="71.236"
   height="5.6939998"
   id="rect49" />&#10;					&#10;						<rect
   x="364.58899"
   y="200.34801"
   transform="rotate(180,400.20635,203.1955)"
   style="fill:#f0f0f0"
   width="71.236"
   height="5.6939998"
   id="rect50" />&#10;					&#10;						<rect
   x="364.58899"
   y="208.799"
   transform="rotate(180,400.20635,211.6464)"
   style="fill:#f0f0f0"
   width="71.236"
   height="5.6939998"
   id="rect51" />&#10;					&#10;						<rect
   x="364.58899"
   y="217.25"
   transform="rotate(180,400.20635,220.0973)"
   style="fill:#f0f0f0"
   width="71.236"
   height="5.6939998"
   id="rect52" />&#10;					&#10;						<rect
   x="364.58899"
   y="225.701"
   transform="rotate(180,400.20635,228.54815)"
   style="fill:#f0f0f0"
   width="71.236"
   height="5.6939998"
   id="rect53" />&#10;					&#10;						<rect
   x="364.58899"
   y="234.15199"
   transform="rotate(180,400.20635,236.9991)"
   style="fill:#f0f0f0"
   width="71.236"
   height="5.6939998"
   id="rect54" />&#10;					&#10;						<rect
   x="364.58899"
   y="242.603"
   transform="rotate(180,400.20635,245.4499)"
   style="fill:#f0f0f0"
   width="71.236"
   height="5.6939998"
   id="rect55" />&#10;					&#10;						<rect
   x="364.58899"
   y="251.054"
   transform="rotate(180,400.20635,253.90085)"
   style="fill:#f0f0f0"
   width="71.236"
   height="5.6939998"
   id="rect56" />&#10;					&#10;						<rect
   x="364.58899"
   y="259.505"
   transform="rotate(180,400.20635,262.3517)"
   style="fill:#f0f0f0"
   width="71.236"
   height="5.6939998"
   id="rect57" />&#10;					&#10;						<rect
   x="364.58899"
   y="267.95599"
   transform="rotate(180,400.20635,270.8026)"
   style="fill:#f0f0f0"
   width="71.236"
   height="5.6939998"
   id="rect58" />&#10;					&#10;						<rect
   x="364.58899"
   y="276.40601"
   transform="rotate(180,400.20635,279.25345)"
   style="fill:#f0f0f0"
   width="71.236"
   height="5.6939998"
   id="rect59" />&#10;					&#10;						<rect
   x="364.58899"
   y="284.85699"
   transform="rotate(180,400.20635,287.70435)"
   style="fill:#f0f0f0"
   width="71.236"
   height="5.6939998"
   id="rect60" />&#10;					&#10;						<rect
   x="364.58899"
   y="293.30801"
   transform="rotate(180,400.20635,296.1552)"
   style="fill:#f0f0f0"
   width="71.236"
   height="5.6939998"
   id="rect61" />&#10;					&#10;						<rect
   x="364.58899"
   y="301.759"
   transform="rotate(180,400.20635,304.60615)"
   style="fill:#f0f0f0"
   width="71.236"
   height="5.6939998"
   id="rect62" />&#10;					&#10;						<rect
   x="364.58899"
   y="310.20999"
   transform="rotate(180,400.20635,313.057)"
   style="fill:#f0f0f0"
   width="71.236"
   height="5.6939998"
   id="rect63" />&#10;					&#10;						<rect
   x="364.58899"
   y="318.66101"
   transform="rotate(180,400.20635,321.5079)"
   style="fill:#f0f0f0"
   width="71.236"
   height="5.6939998"
   id="rect64" />&#10;					&#10;						<rect
   x="364.58899"
   y="327.112"
   transform="rotate(180,400.20635,329.95875)"
   style="fill:#f0f0f0"
   width="71.236"
   height="5.6939998"
   id="rect65" />&#10;				</g>&#10;			</g>&#10;			<g
   id="g86">&#10;				&#10;					<rect
   x="154.537"
   y="99.311996"
   transform="rotate(180,188.5832,215.34715)"
   style="fill:#fafafa"
   width="68.093002"
   height="232.07001"
   id="rect66" />&#10;				&#10;					<rect
   x="152.965"
   y="96.162003"
   transform="rotate(180,188.58315,101.85655)"
   style="fill:#f0f0f0"
   width="71.236"
   height="11.388"
   id="rect67" />&#10;				<g
   id="g85">&#10;					&#10;						<rect
   x="152.965"
   y="108.812"
   transform="rotate(180,188.58315,109.336)"
   style="fill:#f0f0f0"
   width="71.236"
   height="1.0470001"
   id="rect68" />&#10;					&#10;						<rect
   x="152.965"
   y="111.19"
   transform="rotate(180,188.58315,111.7138)"
   style="fill:#f0f0f0"
   width="71.236"
   height="1.048"
   id="rect69" />&#10;					&#10;						<rect
   x="152.965"
   y="113.568"
   transform="rotate(180,188.58315,114.0915)"
   style="fill:#f0f0f0"
   width="71.236"
   height="1.048"
   id="rect70" />&#10;					&#10;						<rect
   x="152.965"
   y="115.946"
   transform="rotate(180,188.58315,116.46925)"
   style="fill:#f0f0f0"
   width="71.236"
   height="1.048"
   id="rect71" />&#10;					&#10;						<rect
   x="152.965"
   y="118.323"
   transform="rotate(180,188.58315,118.84695)"
   style="fill:#f0f0f0"
   width="71.236"
   height="1.048"
   id="rect72" />&#10;					&#10;						<rect
   x="152.965"
   y="120.701"
   transform="rotate(180,188.58315,121.22465)"
   style="fill:#f0f0f0"
   width="71.236"
   height="1.048"
   id="rect73" />&#10;					&#10;						<rect
   x="152.965"
   y="123.079"
   transform="rotate(180,188.58315,123.60235)"
   style="fill:#f0f0f0"
   width="71.236"
   height="1.048"
   id="rect74" />&#10;					&#10;						<rect
   x="152.965"
   y="125.456"
   transform="rotate(180,188.58315,125.9801)"
   style="fill:#f0f0f0"
   width="71.236"
   height="1.048"
   id="rect75" />&#10;					&#10;						<rect
   x="152.965"
   y="127.834"
   transform="rotate(180,188.58315,128.3578)"
   style="fill:#f0f0f0"
   width="71.236"
   height="1.048"
   id="rect76" />&#10;					&#10;						<rect
   x="152.965"
   y="130.21201"
   transform="rotate(180,188.58315,130.73555)"
   style="fill:#f0f0f0"
   width="71.236"
   height="1.048"
   id="rect77" />&#10;					&#10;						<rect
   x="152.965"
   y="132.589"
   transform="rotate(180,188.58315,133.11325)"
   style="fill:#f0f0f0"
   width="71.236"
   height="1.048"
   id="rect78" />&#10;					&#10;						<rect
   x="152.965"
   y="134.967"
   transform="rotate(180,188.58315,135.49095)"
   style="fill:#f0f0f0"
   width="71.236"
   height="1.048"
   id="rect79" />&#10;					&#10;						<rect
   x="152.965"
   y="137.345"
   transform="rotate(180,188.58315,137.8687)"
   style="fill:#f0f0f0"
   width="71.236"
   height="1.048"
   id="rect80" />&#10;					&#10;						<rect
   x="152.965"
   y="139.72301"
   transform="rotate(180,188.58315,140.2464)"
   style="fill:#f0f0f0"
   width="71.236"
   height="1.048"
   id="rect81" />&#10;					&#10;						<rect
   x="152.965"
   y="142.10001"
   transform="rotate(180,188.58315,142.6241)"
   style="fill:#f0f0f0"
   width="71.236"
   height="1.048"
   id="rect82" />&#10;					&#10;						<rect
   x="152.965"
   y="144.478"
   transform="rotate(180,188.58315,145.00185)"
   style="fill:#f0f0f0"
   width="71.236"
   height="1.048"
   id="rect83" />&#10;					&#10;						<rect
   x="152.965"
   y="146.856"
   transform="rotate(180,188.58315,147.37955)"
   style="fill:#f0f0f0"
   width="71.236"
   height="1.048"
   id="rect84" />&#10;					&#10;						<rect
   x="152.965"
   y="149.23399"
   transform="rotate(180,188.58315,149.75725)"
   style="fill:#f0f0f0"
   width="71.236"
   height="1.048"
   id="rect85" />&#10;				</g>&#10;			</g>&#10;			<g
   id="g106">&#10;				&#10;					<rect
   x="69.429001"
   y="99.311996"
   transform="rotate(180,103.4756,215.34715)"
   style="fill:#fafafa"
   width="68.093002"
   height="232.07001"
   id="rect86" />&#10;				&#10;					<rect
   x="67.858002"
   y="96.162003"
   transform="rotate(180,103.4756,101.85655)"
   style="fill:#f0f0f0"
   width="71.236"
   height="11.388"
   id="rect87" />&#10;				<g
   id="g105">&#10;					&#10;						<rect
   x="67.858002"
   y="108.812"
   transform="rotate(180,103.4756,109.336)"
   style="fill:#f0f0f0"
   width="71.236"
   height="1.0470001"
   id="rect88" />&#10;					&#10;						<rect
   x="67.858002"
   y="111.19"
   transform="rotate(180,103.4756,111.7138)"
   style="fill:#f0f0f0"
   width="71.236"
   height="1.048"
   id="rect89" />&#10;					&#10;						<rect
   x="67.858002"
   y="113.568"
   transform="rotate(180,103.4756,114.0915)"
   style="fill:#f0f0f0"
   width="71.236"
   height="1.048"
   id="rect90" />&#10;					&#10;						<rect
   x="67.858002"
   y="115.946"
   transform="rotate(180,103.4756,116.46925)"
   style="fill:#f0f0f0"
   width="71.236"
   height="1.048"
   id="rect91" />&#10;					&#10;						<rect
   x="67.858002"
   y="118.323"
   transform="rotate(180,103.4756,118.84695)"
   style="fill:#f0f0f0"
   width="71.236"
   height="1.048"
   id="rect92" />&#10;					&#10;						<rect
   x="67.858002"
   y="120.701"
   transform="rotate(180,103.4756,121.22465)"
   style="fill:#f0f0f0"
   width="71.236"
   height="1.048"
   id="rect93" />&#10;					&#10;						<rect
   x="67.858002"
   y="123.079"
   transform="rotate(180,103.4756,123.60235)"
   style="fill:#f0f0f0"
   width="71.236"
   height="1.048"
   id="rect94" />&#10;					&#10;						<rect
   x="67.858002"
   y="125.456"
   transform="rotate(180,103.4756,125.9801)"
   style="fill:#f0f0f0"
   width="71.236"
   height="1.048"
   id="rect95" />&#10;					&#10;						<rect
   x="67.858002"
   y="127.834"
   transform="rotate(180,103.4756,128.3578)"
   style="fill:#f0f0f0"
   width="71.236"
   height="1.048"
   id="rect96" />&#10;					&#10;						<rect
   x="67.858002"
   y="130.21201"
   transform="rotate(180,103.4756,130.73555)"
   style="fill:#f0f0f0"
   width="71.236"
   height="1.048"
   id="rect97" />&#10;					&#10;						<rect
   x="67.858002"
   y="132.589"
   transform="rotate(180,103.4756,133.11325)"
   style="fill:#f0f0f0"
   width="71.236"
   height="1.048"
   id="rect98" />&#10;					&#10;						<rect
   x="67.858002"
   y="134.967"
   transform="rotate(180,103.4756,135.49095)"
   style="fill:#f0f0f0"
   width="71.236"
   height="1.048"
   id="rect99" />&#10;					&#10;						<rect
   x="67.858002"
   y="137.345"
   transform="rotate(180,103.4756,137.8687)"
   style="fill:#f0f0f0"
   width="71.236"
   height="1.048"
   id="rect100" />&#10;					&#10;						<rect
   x="67.858002"
   y="139.72301"
   transform="rotate(180,103.4756,140.2464)"
   style="fill:#f0f0f0"
   width="71.236"
   height="1.048"
   id="rect101" />&#10;					&#10;						<rect
   x="67.858002"
   y="142.10001"
   transform="rotate(180,103.4756,142.6241)"
   style="fill:#f0f0f0"
   width="71.236"
   height="1.048"
   id="rect102" />&#10;					&#10;						<rect
   x="67.858002"
   y="144.478"
   transform="rotate(180,103.4756,145.00185)"
   style="fill:#f0f0f0"
   width="71.236"
   height="1.048"
   id="rect103" />&#10;					&#10;						<rect
   x="67.858002"
   y="146.856"
   transform="rotate(180,103.4756,147.37955)"
   style="fill:#f0f0f0"
   width="71.236"
   height="1.048"
   id="rect104" />&#10;					&#10;						<rect
   x="67.858002"
   y="149.23399"
   transform="rotate(180,103.4756,149.75725)"
   style="fill:#f0f0f0"
   width="71.236"
   height="1.048"
   id="rect105" />&#10;				</g>&#10;			</g>&#10;		</g>&#10;		<g
   id="g109">&#10;			<path
   style="fill:#e0e0e0"
   d="m 251.203,360.295 c 0,0 -4.743,-10.349 0.676,-20.552 5.42,-10.203 6.991,-12.606 3.536,-14.696 -3.455,-2.09 -5.04,8.162 -5.04,8.162 0,0 -2.912,-7.053 -0.508,-14.434 2.405,-7.381 3.913,-19.403 0.629,-20.693 -3.284,-1.29 -0.627,14.998 -3.476,20.549 0,0 -2.393,-6.18 -2.787,-12.109 -0.394,-5.928 0.221,-15.395 -2.372,-17.824 -2.593,-2.428 -4.255,-0.748 -1.706,12.335 2.549,13.083 2.53,23.718 2.53,23.718 0,0 -5.629,-17.162 -9.406,-17.663 -3.778,-0.501 -3.773,5.057 -0.539,9.878 3.234,4.821 9.47,13.457 10.493,17.9 0,0 -6.179,-12.915 -11.736,-8.957 -5.558,3.958 4.838,11.76 9.471,14.578 4.633,2.819 7.851,20.489 7.851,20.489 z"
   id="path107" />&#10;			<path
   style="fill:#ebebeb"
   d="m 247.458,364.539 c 0,0 4.619,-10.419 -0.923,-20.54 -5.542,-10.121 -7.141,-12.5 -3.712,-14.642 3.429,-2.141 5.137,8.086 5.137,8.086 0,0 2.827,-7.096 0.334,-14.44 -2.493,-7.345 -4.145,-19.343 -0.877,-20.682 3.268,-1.338 0.807,14.987 3.722,20.496 0,0 2.319,-6.215 2.642,-12.149 0.323,-5.934 -0.406,-15.391 2.158,-17.857 2.564,-2.467 4.245,-0.812 1.854,12.308 -2.391,13.12 -2.245,23.754 -2.245,23.754 0,0 5.422,-17.245 9.194,-17.801 3.771,-0.557 3.833,5.001 0.658,9.869 -3.176,4.868 -9.308,13.597 -10.277,18.055 0,0 6.023,-13.006 11.628,-9.131 5.605,3.875 -4.696,11.831 -9.295,14.718 -4.599,2.888 -7.604,20.604 -7.604,20.604 z"
   id="path108" />&#10;			<g
   id="g108">&#10;				<polygon
   style="fill:#ebebeb"
   points="265.674,384.417 268.762,357.112 230.605,357.112 233.693,384.417 "
   id="polygon108" />&#10;			</g>&#10;		</g>&#10;	</g>&#10;</g><g
   id="Shadow_1_"
   transform="matrix(0.44841894,0,0,0.44841894,-11.385533,-39.025349)">&#10;	<ellipse
   id="_x3C_Path_x3E__359_"
   style="fill:#f5f5f5"
   cx="250"
   cy="416.23801"
   rx="193.88901"
   ry="11.323" />&#10;</g><g
   id="Chair"
   transform="matrix(0.44841894,0,0,0.44841894,-11.385533,-39.025349)">&#10;	<g
   id="g131">&#10;		<path
   style="fill:#263238"
   d="m 388.659,302.809 c 0,0 -24.746,-5.006 -48.636,-2.582 -23.89,2.424 11.24,33.641 11.24,33.641 h 4.931 c 0,0 -18.616,-19.794 -17.579,-24.721 1.037,-4.928 47.921,1.568 47.921,1.568 z"
   id="path112" />&#10;		<path
   style="opacity:0.2;fill:#ffffff;enable-background:new"
   d="m 388.659,302.809 c 0,0 -24.746,-5.006 -48.636,-2.582 -23.89,2.424 11.24,33.641 11.24,33.641 h 4.931 c 0,0 -18.616,-19.794 -17.579,-24.721 1.037,-4.928 47.921,1.568 47.921,1.568 z"
   id="path113" />&#10;		<path
   style="fill:#263238"
   d="m 379.727,332.789 c 0,0 11.592,-41.239 13.508,-93.458 0.229,-6.234 5.372,-11.161 11.61,-11.161 h 20.824 c 6.396,0 11.593,5.163 11.621,11.559 0.082,18.971 -1.244,61.538 -11.944,93.06 z"
   id="path114" />&#10;		<path
   style="opacity:0.4;fill:#ffffff;enable-background:new"
   d="m 379.727,332.789 c 0,0 11.592,-41.239 13.508,-93.458 0.229,-6.234 5.372,-11.161 11.61,-11.161 h 20.824 c 6.396,0 11.593,5.163 11.621,11.559 0.082,18.971 -1.244,61.538 -11.944,93.06 z"
   id="path115" />&#10;		<path
   style="fill:#407bff"
   d="m 373.65,327.5 c 3.383,-12.796 11.002,-45.899 12.607,-89.635 0.248,-6.758 5.823,-12.1 12.586,-12.1 h 22.576 c 6.935,0 12.569,5.597 12.598,12.532 0.088,20.566 -1.349,62.61 -12.949,96.784 L 378.1,333.499 c -3.065,-0.114 -5.234,-3.034 -4.45,-5.999 z"
   id="path116" />&#10;		<path
   style="opacity:0.2;enable-background:new"
   d="m 373.65,327.5 c 3.383,-12.796 11.002,-45.899 12.607,-89.635 0.248,-6.758 5.823,-12.1 12.586,-12.1 h 22.576 c 6.935,0 12.569,5.597 12.598,12.532 0.088,20.566 -1.349,62.61 -12.949,96.784 L 378.1,333.499 c -3.065,-0.114 -5.234,-3.034 -4.45,-5.999 z"
   id="path117" />&#10;		<path
   style="fill:#407bff"
   d="m 346.974,316.861 h 66.371 c 2.761,0 5,2.239 5,5 v 11.928 h -76.371 v -11.928 c 0,-2.761 2.239,-5 5,-5 z"
   id="path118" />&#10;		<path
   style="fill:#263238"
   d="m 415.857,393.309 -24.471,-2.405 v -34.391 h -9.699 v 34.381 l -24.57,2.415 c -2.439,0.24 -4.298,2.291 -4.298,4.742 v 3.675 h 32.769 1.798 32.769 v -3.675 c 0.001,-2.451 -1.859,-4.502 -4.298,-4.742 z"
   id="path119" />&#10;		<path
   style="opacity:0.4;fill:#ffffff;enable-background:new"
   d="m 415.857,393.309 -24.471,-2.405 v -34.391 h -9.699 v 34.381 l -24.57,2.415 c -2.439,0.24 -4.298,2.291 -4.298,4.742 v 3.675 h 32.769 1.798 32.769 v -3.675 c 0.001,-2.451 -1.859,-4.502 -4.298,-4.742 z"
   id="path120" />&#10;		<path
   style="fill:#263238"
   d="m 361.75,406.283 c 0,3.502 -2.839,6.341 -6.341,6.341 -3.502,0 -6.341,-2.839 -6.341,-6.341 0,-3.502 2.839,-6.341 6.341,-6.341 3.502,0 6.341,2.839 6.341,6.341 z"
   id="path121" />&#10;		<path
   style="opacity:0.4;fill:#ffffff;enable-background:new"
   d="m 355.409,409.624 c -1.842,0 -3.341,-1.499 -3.341,-3.341 0,-1.842 1.499,-3.341 3.341,-3.341 1.842,0 3.341,1.499 3.341,3.341 0,1.842 -1.499,3.341 -3.341,3.341 z"
   id="path122" />&#10;		<path
   style="fill:#263238"
   d="m 411.225,406.283 c 0,3.502 2.839,6.341 6.341,6.341 3.502,0 6.341,-2.839 6.341,-6.341 0,-3.502 -2.839,-6.341 -6.341,-6.341 -3.502,10e-4 -6.341,2.839 -6.341,6.341 z"
   id="path123" />&#10;		<path
   style="opacity:0.4;fill:#ffffff;enable-background:new"
   d="m 417.566,409.624 c -1.842,0 -3.341,-1.499 -3.341,-3.341 0,-1.842 1.499,-3.341 3.341,-3.341 1.842,0 3.341,1.499 3.341,3.341 0,1.842 -1.499,3.341 -3.341,3.341 z"
   id="path124" />&#10;		<path
   style="fill:#263238"
   d="m 388.923,363.906 h -4.772 c -2.283,0 -4.133,-1.851 -4.133,-4.133 v -26.498 h 13.038 v 26.498 c 0,2.282 -1.85,4.133 -4.133,4.133 z"
   id="path125" />&#10;		<path
   style="opacity:0.2;fill:#ffffff;enable-background:new"
   d="m 388.923,363.906 h -4.772 c -2.283,0 -4.133,-1.851 -4.133,-4.133 v -26.498 h 13.038 v 26.498 c 0,2.282 -1.85,4.133 -4.133,4.133 z"
   id="path126" />&#10;		<g
   id="g127">&#10;			<path
   style="fill:#263238"
   d="m 341.263,331.825 h 82.89 c 1.111,0 2.011,0.901 2.011,2.011 v 0.941 c 0,1.111 -0.9,2.011 -2.011,2.011 h -82.89 c -1.111,0 -2.011,-0.9 -2.011,-2.011 v -0.941 c -0.001,-1.111 0.9,-2.011 2.011,-2.011 z"
   id="path127" />&#10;		</g>&#10;		<g
   style="opacity:0.4;enable-background:new"
   id="g128">&#10;			<path
   style="fill:#ffffff"
   d="m 341.263,331.825 h 82.89 c 1.111,0 2.011,0.901 2.011,2.011 v 0.941 c 0,1.111 -0.9,2.011 -2.011,2.011 h -82.89 c -1.111,0 -2.011,-0.9 -2.011,-2.011 v -0.941 c -0.001,-1.111 0.9,-2.011 2.011,-2.011 z"
   id="path128" />&#10;		</g>&#10;		<g
   id="g130">&#10;			<path
   style="fill:#263238"
   d="m 432.659,302.809 c 0,0 -24.746,-5.006 -48.636,-2.582 -23.89,2.424 11.24,33.641 11.24,33.641 h 4.931 c 0,0 -18.616,-19.794 -17.579,-24.721 1.037,-4.928 47.921,1.568 47.921,1.568 z"
   id="path129" />&#10;			<path
   style="opacity:0.4;fill:#ffffff;enable-background:new"
   d="m 432.659,302.809 c 0,0 -24.746,-5.006 -48.636,-2.582 -23.89,2.424 11.24,33.641 11.24,33.641 h 4.931 c 0,0 -18.616,-19.794 -17.579,-24.721 1.037,-4.928 47.921,1.568 47.921,1.568 z"
   id="path130" />&#10;		</g>&#10;	</g>&#10;</g><g
   id="Table"
   transform="matrix(0.44841894,0,0,0.44841894,-11.385533,-39.025349)">&#10;	<g
   id="g164">&#10;		<g
   id="g163">&#10;			<g
   id="g132">&#10;				<path
   style="fill:#263238"
   d="m 127.29,308.171 v 1.01 h -15.24 v -0.77 c 0,-1.85 1.92,-3.37 4.38,-3.47 l 0.81,-0.03 5.16,-0.21 c 2.66,-0.11 4.89,1.47 4.89,3.47 z"
   id="path131" />&#10;				<path
   style="opacity:0.2;fill:#ffffff;enable-background:new"
   d="m 120.27,308.171 v 1.01 h -8.22 v -0.77 c 0,-1.85 1.92,-3.37 4.38,-3.47 l 0.81,-0.03 c 1.76,0.48 3.03,1.76 3.03,3.26 z"
   id="path132" />&#10;			</g>&#10;			<g
   id="g133">&#10;				<path
   style="fill:#263238"
   d="m 251.56,412.574 h 1.533 c 0.19,0 0.348,-0.155 0.353,-0.347 l 2.425,-93.891 h -7.087 l 2.424,93.891 c 0.004,0.192 0.162,0.347 0.352,0.347 z"
   id="path133" />&#10;			</g>&#10;			<g
   id="g134">&#10;				<polygon
   style="fill:#263238"
   points="309.78,412.574 299.78,318.336 292.693,318.336 306.237,412.574 "
   id="polygon133" />&#10;			</g>&#10;			<polygon
   style="fill:#263238"
   points="77.982,412.574 91.563,318.336 84.476,318.336 74.476,412.574 "
   id="polygon134" />&#10;			<polygon
   style="fill:#263238"
   points="135.473,318.336 128.386,318.336 129.892,412.574 133.963,412.574 133.966,412.571 "
   id="polygon135" />&#10;			<g
   style="opacity:0.4;enable-background:new"
   id="g136">&#10;				<polygon
   style="fill:#ffffff"
   points="309.78,412.574 299.78,318.336 292.693,318.336 306.237,412.574 "
   id="polygon136" />&#10;			</g>&#10;			<polygon
   style="opacity:0.4;fill:#ffffff;enable-background:new"
   points="135.473,318.336 128.386,318.336 129.892,412.574 133.963,412.574 133.966,412.571 "
   id="polygon137" />&#10;			<g
   style="opacity:0.2;enable-background:new"
   id="g137">&#10;				<path
   style="fill:#ffffff"
   d="m 251.56,412.574 h 1.533 c 0.19,0 0.348,-0.155 0.353,-0.347 l 2.425,-93.891 h -7.087 l 2.424,93.891 c 0.004,0.192 0.162,0.347 0.352,0.347 z"
   id="path137" />&#10;			</g>&#10;			<polygon
   style="opacity:0.2;fill:#ffffff;enable-background:new"
   points="77.982,412.574 91.563,318.336 84.476,318.336 74.476,412.574 "
   id="polygon138" />&#10;			<g
   id="g145">&#10;				<path
   style="fill:#263238"
   d="M 142.231,309.701 H 162.4 l 3.208,-28.16 c -0.05,-1.053 -0.919,-1.881 -1.973,-1.881 h -13.513 c -1.054,0 -1.923,0.828 -1.974,1.881 z"
   id="path138" />&#10;				<path
   style="fill:#263238"
   d="m 111.449,238.247 h 5.035 l 5.659,53.184 h -5.035 c -0.834,0 -1.583,-0.676 -1.671,-1.511 L 110.1,239.757 c -0.09,-0.834 0.514,-1.51 1.349,-1.51 z"
   id="path139" />&#10;				<path
   style="fill:#263238"
   d="m 119.237,291.431 h 75.46 c 0.834,0 1.439,-0.676 1.35,-1.511 l -5.337,-50.163 c -0.089,-0.834 -0.837,-1.511 -1.671,-1.511 h -75.46 c -0.834,0 -1.439,0.676 -1.35,1.511 l 5.337,50.163 c 0.088,0.835 0.836,1.511 1.671,1.511 z"
   id="path140" />&#10;				<path
   style="fill:#263238"
   d="m 141.34,307.514 h 25.075 c 0.529,0 0.959,0.429 0.959,0.959 v 0.269 c 0,0.53 -0.429,0.959 -0.959,0.959 H 141.34 c -0.53,0 -0.959,-0.429 -0.959,-0.959 v -0.269 c 0,-0.529 0.429,-0.959 0.959,-0.959 z"
   id="path141" />&#10;				<path
   style="opacity:0.2;fill:#ffffff;enable-background:new"
   d="m 119.237,291.431 h 75.46 c 0.834,0 1.439,-0.676 1.35,-1.511 l -5.337,-50.163 c -0.089,-0.834 -0.837,-1.511 -1.671,-1.511 h -75.46 c -0.834,0 -1.439,0.676 -1.35,1.511 l 5.337,50.163 c 0.088,0.835 0.836,1.511 1.671,1.511 z"
   id="path142" />&#10;				<path
   style="fill:#407bff"
   d="m 120.646,286.519 h 71.159 c 0.728,0 1.255,-0.59 1.178,-1.318 l -4.657,-43.765 c -0.077,-0.728 -0.73,-1.318 -1.458,-1.318 h -71.159 c -0.728,0 -1.255,0.59 -1.178,1.318 l 4.657,43.765 c 0.077,0.728 0.73,1.318 1.458,1.318 z"
   id="path143" />&#10;				<path
   style="opacity:0.2;fill:#ffffff;enable-background:new"
   d="m 141.34,307.514 h 25.075 c 0.529,0 0.959,0.429 0.959,0.959 v 0.269 c 0,0.53 -0.429,0.959 -0.959,0.959 H 141.34 c -0.53,0 -0.959,-0.429 -0.959,-0.959 v -0.269 c 0,-0.529 0.429,-0.959 0.959,-0.959 z"
   id="path144" />&#10;				<path
   style="opacity:0.2;enable-background:new"
   d="m 120.646,286.519 h 71.159 c 0.728,0 1.255,-0.59 1.178,-1.318 l -4.657,-43.765 c -0.077,-0.728 -0.73,-1.318 -1.458,-1.318 h -71.159 c -0.728,0 -1.255,0.59 -1.178,1.318 l 4.657,43.765 c 0.077,0.728 0.73,1.318 1.458,1.318 z"
   id="path145" />&#10;			</g>&#10;			<polygon
   style="fill:#407bff"
   points="141.811,318.336 303.877,318.336 303.877,309.068 141.811,309.068 124.289,309.068 80.379,309.068 80.379,318.336 124.289,318.336 "
   id="polygon145" />&#10;			<g
   id="g162">&#10;				<g
   id="g160">&#10;					<path
   style="fill:#407bff"
   d="m 187.263,307.403 h 1.882 c 0.198,0 0.359,-0.161 0.359,-0.359 v -1.99 c 0,-0.198 -0.161,-0.359 -0.359,-0.359 h -1.351 c -0.163,0 -0.305,0.11 -0.347,0.267 l -0.531,1.99 c -0.061,0.227 0.111,0.451 0.347,0.451 z"
   id="path146" />&#10;					<path
   style="fill:#407bff"
   d="m 184.662,307.403 h 1.882 c 0.198,0 0.359,-0.161 0.359,-0.359 v -1.99 c 0,-0.198 -0.161,-0.359 -0.359,-0.359 h -1.351 c -0.163,0 -0.305,0.11 -0.347,0.267 l -0.531,1.99 c -0.061,0.227 0.111,0.451 0.347,0.451 z"
   id="path147" />&#10;					<path
   style="fill:#407bff"
   d="m 182.061,307.403 h 1.882 c 0.199,0 0.359,-0.161 0.359,-0.359 v -1.99 c 0,-0.198 -0.161,-0.359 -0.359,-0.359 h -1.351 c -0.163,0 -0.305,0.11 -0.347,0.267 l -0.531,1.99 c -0.061,0.227 0.111,0.451 0.347,0.451 z"
   id="path148" />&#10;					<path
   style="fill:#407bff"
   d="m 179.461,307.403 h 1.882 c 0.198,0 0.359,-0.161 0.359,-0.359 v -1.99 c 0,-0.198 -0.161,-0.359 -0.359,-0.359 h -1.351 c -0.163,0 -0.305,0.11 -0.347,0.267 l -0.531,1.99 c -0.061,0.227 0.111,0.451 0.347,0.451 z"
   id="path149" />&#10;					<path
   style="fill:#407bff"
   d="m 176.86,307.403 h 1.882 c 0.199,0 0.359,-0.161 0.359,-0.359 v -1.99 c 0,-0.198 -0.161,-0.359 -0.359,-0.359 h -1.351 c -0.163,0 -0.305,0.11 -0.347,0.267 l -0.531,1.99 c -0.061,0.227 0.111,0.451 0.347,0.451 z"
   id="path150" />&#10;					<path
   style="fill:#407bff"
   d="m 174.26,307.403 h 1.882 c 0.198,0 0.359,-0.161 0.359,-0.359 v -1.99 c 0,-0.198 -0.161,-0.359 -0.359,-0.359 h -1.351 c -0.163,0 -0.305,0.11 -0.347,0.267 l -0.531,1.99 c -0.061,0.227 0.11,0.451 0.347,0.451 z"
   id="path151" />&#10;					<path
   style="fill:#407bff"
   d="m 171.659,307.403 h 1.882 c 0.199,0 0.359,-0.161 0.359,-0.359 v -1.99 c 0,-0.198 -0.161,-0.359 -0.359,-0.359 h -1.351 c -0.163,0 -0.305,0.11 -0.347,0.267 l -0.531,1.99 c -0.061,0.227 0.111,0.451 0.347,0.451 z"
   id="path152" />&#10;					<path
   style="fill:#407bff"
   d="m 169.058,307.403 h 1.882 c 0.199,0 0.359,-0.161 0.359,-0.359 v -1.99 c 0,-0.198 -0.161,-0.359 -0.359,-0.359 h -1.351 c -0.163,0 -0.305,0.11 -0.347,0.267 l -0.531,1.99 c -0.061,0.227 0.111,0.451 0.347,0.451 z"
   id="path153" />&#10;					<path
   style="fill:#407bff"
   d="m 166.458,307.403 h 1.882 c 0.198,0 0.359,-0.161 0.359,-0.359 v -1.99 c 0,-0.198 -0.161,-0.359 -0.359,-0.359 h -1.351 c -0.163,0 -0.305,0.11 -0.347,0.267 l -0.531,1.99 c -0.061,0.227 0.111,0.451 0.347,0.451 z"
   id="path154" />&#10;					<path
   style="fill:#407bff"
   d="m 163.857,307.403 h 1.882 c 0.199,0 0.359,-0.161 0.359,-0.359 v -1.99 c 0,-0.198 -0.161,-0.359 -0.359,-0.359 h -1.351 c -0.163,0 -0.305,0.11 -0.347,0.267 l -0.531,1.99 c -0.061,0.227 0.111,0.451 0.347,0.451 z"
   id="path155" />&#10;					<path
   style="fill:#407bff"
   d="m 161.257,307.403 h 1.882 c 0.199,0 0.359,-0.161 0.359,-0.359 v -1.99 c 0,-0.198 -0.161,-0.359 -0.359,-0.359 h -1.351 c -0.163,0 -0.305,0.11 -0.347,0.267 l -0.531,1.99 c -0.061,0.227 0.11,0.451 0.347,0.451 z"
   id="path156" />&#10;					<path
   style="fill:#407bff"
   d="m 158.656,307.403 h 1.882 c 0.199,0 0.359,-0.161 0.359,-0.359 v -1.99 c 0,-0.198 -0.161,-0.359 -0.359,-0.359 h -1.351 c -0.163,0 -0.305,0.11 -0.347,0.267 l -0.531,1.99 c -0.061,0.227 0.111,0.451 0.347,0.451 z"
   id="path157" />&#10;					<path
   style="fill:#407bff"
   d="m 156.055,307.403 h 1.882 c 0.199,0 0.359,-0.161 0.359,-0.359 v -1.99 c 0,-0.198 -0.161,-0.359 -0.359,-0.359 h -1.351 c -0.163,0 -0.305,0.11 -0.347,0.267 l -0.531,1.99 c -0.061,0.227 0.111,0.451 0.347,0.451 z"
   id="path158" />&#10;					<path
   style="fill:#407bff"
   d="m 153.455,307.403 h 1.882 c 0.199,0 0.359,-0.161 0.359,-0.359 v -1.99 c 0,-0.198 -0.161,-0.359 -0.359,-0.359 h -1.351 c -0.163,0 -0.305,0.11 -0.347,0.267 l -0.531,1.99 c -0.061,0.227 0.111,0.451 0.347,0.451 z"
   id="path159" />&#10;					<path
   style="fill:#407bff"
   d="m 150.854,307.403 h 1.882 c 0.199,0 0.359,-0.161 0.359,-0.359 v -1.99 c 0,-0.198 -0.161,-0.359 -0.359,-0.359 h -1.351 c -0.163,0 -0.305,0.11 -0.347,0.267 l -0.531,1.99 c -0.061,0.227 0.111,0.451 0.347,0.451 z"
   id="path160" />&#10;				</g>&#10;				&#10;					<rect
   x="148.961"
   y="306.048"
   transform="rotate(180,169.99925,307.61505)"
   style="fill:#263238"
   width="42.076"
   height="3.1340001"
   id="rect160" />&#10;				&#10;					<rect
   x="148.961"
   y="306.048"
   transform="rotate(180,169.99925,307.61505)"
   style="opacity:0.2;fill:#ffffff;enable-background:new"
   width="42.076"
   height="3.1340001"
   id="rect161" />&#10;				&#10;					<rect
   x="148.961"
   y="306.048"
   transform="rotate(180,155.7778,307.61505)"
   style="opacity:0.2;fill:#ffffff;enable-background:new"
   width="13.633"
   height="3.1340001"
   id="rect162" />&#10;			</g>&#10;			&#10;				<rect
   x="124.288"
   y="309.06799"
   transform="rotate(180,214.0829,313.70215)"
   style="opacity:0.2;fill:#ffffff;enable-background:new"
   width="179.589"
   height="9.2679996"
   id="rect163" />&#10;		</g>&#10;	</g>&#10;</g><g
   id="Trash_bin"
   transform="matrix(0.44841894,0,0,0.44841894,-11.385533,-39.025349)">&#10;	<g
   id="g169">&#10;		<g
   id="g165">&#10;			<path
   style="fill:#407bff"
   d="m 88.245,397.513 c 0.615,-1.033 -0.252,-2.587 -1.455,-2.605 0.527,-1.482 0.007,-3.273 -1.231,-4.243 -0.156,-0.122 -0.336,-0.237 -0.534,-0.237 -0.213,-10e-4 -0.401,0.129 -0.574,0.253 -1.133,0.814 -2.265,1.627 -3.398,2.441 -0.259,0.186 -0.528,0.383 -0.674,0.667 -0.694,1.346 1.809,3.07 0.78,4.18 -0.295,0.319 -0.772,0.385 -1.14,0.615 -0.809,0.505 -0.906,1.616 -1.283,2.492 -0.377,0.876 -1.691,1.556 -2.194,0.746 0.371,-0.84 -0.752,-1.564 -1.665,-1.671 -0.9,-0.105 -1.865,-0.157 -2.369,-1.013 -1.294,1.131 -4.193,-2.025 -4.127,-3.298 -1.064,0.081 -1.789,1.078 -2.022,2.074 -0.242,1.034 -0.092,2.112 -0.109,3.172 -0.033,2.061 -0.698,4.079 -0.661,6.14 0.028,1.604 0.648,3.384 2.116,4.03 0.707,0.311 1.505,0.311 2.277,0.306 5.573,-0.036 11.146,-0.071 16.719,-0.107 0.401,-0.003 0.82,-0.009 1.176,-0.195 0.754,-0.394 0.914,-1.384 0.984,-2.233 0.299,-3.632 0.599,-7.264 0.898,-10.897 -0.505,-0.205 -1.01,-0.411 -1.514,-0.617 z"
   id="path164" />&#10;			<path
   style="opacity:0.3;fill:#ffffff;enable-background:new"
   d="m 88.245,397.513 c 0.615,-1.033 -0.252,-2.587 -1.455,-2.605 0.527,-1.482 0.007,-3.273 -1.231,-4.243 -0.156,-0.122 -0.336,-0.237 -0.534,-0.237 -0.213,-10e-4 -0.401,0.129 -0.574,0.253 -1.133,0.814 -2.265,1.627 -3.398,2.441 -0.259,0.186 -0.528,0.383 -0.674,0.667 -0.694,1.346 1.809,3.07 0.78,4.18 -0.295,0.319 -0.772,0.385 -1.14,0.615 -0.809,0.505 -0.906,1.616 -1.283,2.492 -0.377,0.876 -1.691,1.556 -2.194,0.746 0.371,-0.84 -0.752,-1.564 -1.665,-1.671 -0.9,-0.105 -1.865,-0.157 -2.369,-1.013 -1.294,1.131 -4.193,-2.025 -4.127,-3.298 -1.064,0.081 -1.789,1.078 -2.022,2.074 -0.242,1.034 -0.092,2.112 -0.109,3.172 -0.033,2.061 -0.698,4.079 -0.661,6.14 0.028,1.604 0.648,3.384 2.116,4.03 0.707,0.311 1.505,0.311 2.277,0.306 5.573,-0.036 11.146,-0.071 16.719,-0.107 0.401,-0.003 0.82,-0.009 1.176,-0.195 0.754,-0.394 0.914,-1.384 0.984,-2.233 0.299,-3.632 0.599,-7.264 0.898,-10.897 -0.505,-0.205 -1.01,-0.411 -1.514,-0.617 z"
   id="path165" />&#10;		</g>&#10;		<g
   id="g168">&#10;			<g
   id="g166">&#10;				<path
   style="fill:#407bff"
   d="M 89.221,379.841 H 87.344 82.175 80.291 75.129 73.246 68.083 66.2 63.28 l 0.213,2.621 0.152,1.871 0.396,4.87 0.226,2.798 0.299,3.724 0.128,1.597 0.043,0.475 0.152,1.877 0.207,2.572 0.128,1.597 0.134,1.621 0.152,1.877 0.116,1.42 0.128,1.597 0.055,0.695 h 3.413 2.883 4.163 2.883 4.163 2.883 3.419 l 0.055,-0.695 0.128,-1.591 0.116,-1.432 0.152,-1.878 0.134,-1.615 0.128,-1.597 0.207,-2.578 0.152,-1.871 0.037,-0.475 0.128,-1.597 0.305,-3.724 0.226,-2.792 0.39,-4.876 0.152,-1.871 0.213,-2.621 h -2.918 z m 1.56,1.719 v 0 l -0.5,-0.5 h 0.542 z m -0.128,1.591 -0.049,0.634 -2.322,2.322 -2.664,-2.664 2.383,-2.383 h 0.561 z m -0.67,8.302 -1.701,1.701 -2.664,-2.664 2.664,-2.658 1.841,1.841 z m -24.686,-1.78 v 0 l 1.841,-1.841 2.664,2.658 -2.664,2.664 -1.694,-1.701 z m 22.126,-2.706 -2.664,2.664 -2.664,-2.664 2.664,-2.664 z m -4.188,-5.907 h 3.048 l -1.524,1.524 z m 0.659,9.43 -2.658,2.664 -2.664,-2.664 2.664,-2.658 z m -8.845,3.523 2.664,-2.658 2.658,2.658 -2.658,2.664 z m 1.798,3.523 -2.664,2.664 -2.657,-2.658 2.664,-2.664 z m 4.389,-2.657 2.658,2.664 -2.658,2.658 -2.664,-2.664 z m -3.523,-5.249 -2.664,-2.664 2.664,-2.664 2.658,2.664 z m -0.866,0.86 -2.657,2.664 -2.664,-2.664 2.664,-2.658 z m -6.186,-0.86 -2.658,-2.664 2.658,-2.664 2.664,2.664 z m 0,1.725 2.664,2.658 -2.664,2.664 -2.658,-2.664 z m 2.663,9.71 -2.664,2.658 -2.658,-2.658 2.658,-2.664 z m 0.86,0.86 2.664,2.664 -2.657,2.664 -2.664,-2.664 z m 0.865,-0.86 2.664,-2.664 2.658,2.664 -2.658,2.658 z m 6.187,0.86 2.658,2.664 -2.658,2.664 -2.664,-2.664 z m 3.523,3.523 2.664,2.664 -1.725,1.725 H 83.82 l -1.725,-1.725 z m -2.664,-4.383 2.664,-2.664 2.664,2.664 -2.664,2.658 z m 0,-7.052 2.664,-2.658 2.664,2.658 -2.664,2.664 z m 1.799,-10.569 -2.658,2.664 -2.664,-2.664 2.383,-2.383 h 0.561 z m -6.181,-0.86 -1.524,-1.524 h 3.042 z m -0.866,0.86 -2.657,2.664 -2.664,-2.664 2.383,-2.383 h 0.561 z m -4.662,-2.384 -1.524,1.524 -1.518,-1.524 z m -4.767,0 2.383,2.383 -2.664,2.664 -2.316,-2.322 -0.049,-0.634 2.085,-2.091 z m -2.28,0 -0.494,0.494 v 0 l -0.043,-0.494 z m -0.164,4.602 1.304,1.304 -1.109,1.109 z m 0.725,8.93 -0.104,-1.262 v 0 l 0.683,0.683 z m 0.128,1.603 1.31,-1.316 2.664,2.664 -2.664,2.658 -1.073,-1.073 z m 0.396,4.925 -0.006,-0.116 0.061,0.061 z m 0.464,5.675 -0.335,-4.084 0.786,-0.786 2.664,2.664 -2.664,2.658 z m 0.243,3.041 -0.049,-0.609 0.256,-0.256 0.866,0.866 H 66.93 Z m 1.073,-1.725 2.658,-2.664 2.664,2.664 -1.725,1.725 h -1.877 z m 5.321,1.725 0.866,-0.866 0.865,0.866 z m 3.45,0 -1.725,-1.725 2.664,-2.664 2.658,2.664 -1.719,1.725 z m 3.596,0 0.866,-0.866 0.866,0.866 z m 8.12,0 h -1.073 l 0.866,-0.866 0.256,0.256 z m 0.249,-3.041 -0.457,0.451 -2.664,-2.658 2.664,-2.664 0.786,0.786 z m 0.47,-5.797 -0.012,0.122 -0.055,-0.055 z m 0.152,-1.871 -1.079,1.073 -2.664,-2.658 2.664,-2.664 1.317,1.316 z m 0.366,-4.529 -0.585,-0.585 0.689,-0.683 z m 0.725,-8.942 -0.195,2.426 -1.116,-1.116 z"
   id="path166" />&#10;			</g>&#10;			<g
   style="opacity:0.6;enable-background:new"
   id="g167">&#10;				<path
   style="fill:#ffffff"
   d="M 89.221,379.841 H 87.344 82.175 80.291 75.129 73.246 68.083 66.2 63.28 l 0.213,2.621 0.152,1.871 0.396,4.87 0.226,2.798 0.299,3.724 0.128,1.597 0.043,0.475 0.152,1.877 0.207,2.572 0.128,1.597 0.134,1.621 0.152,1.877 0.116,1.42 0.128,1.597 0.055,0.695 h 3.413 2.883 4.163 2.883 4.163 2.883 3.419 l 0.055,-0.695 0.128,-1.591 0.116,-1.432 0.152,-1.878 0.134,-1.615 0.128,-1.597 0.207,-2.578 0.152,-1.871 0.037,-0.475 0.128,-1.597 0.305,-3.724 0.226,-2.792 0.39,-4.876 0.152,-1.871 0.213,-2.621 h -2.918 z m 1.56,1.719 v 0 l -0.5,-0.5 h 0.542 z m -0.128,1.591 -0.049,0.634 -2.322,2.322 -2.664,-2.664 2.383,-2.383 h 0.561 z m -0.67,8.302 -1.701,1.701 -2.664,-2.664 2.664,-2.658 1.841,1.841 z m -24.686,-1.78 v 0 l 1.841,-1.841 2.664,2.658 -2.664,2.664 -1.694,-1.701 z m 22.126,-2.706 -2.664,2.664 -2.664,-2.664 2.664,-2.664 z m -4.188,-5.907 h 3.048 l -1.524,1.524 z m 0.659,9.43 -2.658,2.664 -2.664,-2.664 2.664,-2.658 z m -8.845,3.523 2.664,-2.658 2.658,2.658 -2.658,2.664 z m 1.798,3.523 -2.664,2.664 -2.657,-2.658 2.664,-2.664 z m 4.389,-2.657 2.658,2.664 -2.658,2.658 -2.664,-2.664 z m -3.523,-5.249 -2.664,-2.664 2.664,-2.664 2.658,2.664 z m -0.866,0.86 -2.657,2.664 -2.664,-2.664 2.664,-2.658 z m -6.186,-0.86 -2.658,-2.664 2.658,-2.664 2.664,2.664 z m 0,1.725 2.664,2.658 -2.664,2.664 -2.658,-2.664 z m 2.663,9.71 -2.664,2.658 -2.658,-2.658 2.658,-2.664 z m 0.86,0.86 2.664,2.664 -2.657,2.664 -2.664,-2.664 z m 0.865,-0.86 2.664,-2.664 2.658,2.664 -2.658,2.658 z m 6.187,0.86 2.658,2.664 -2.658,2.664 -2.664,-2.664 z m 3.523,3.523 2.664,2.664 -1.725,1.725 H 83.82 l -1.725,-1.725 z m -2.664,-4.383 2.664,-2.664 2.664,2.664 -2.664,2.658 z m 0,-7.052 2.664,-2.658 2.664,2.658 -2.664,2.664 z m 1.799,-10.569 -2.658,2.664 -2.664,-2.664 2.383,-2.383 h 0.561 z m -6.181,-0.86 -1.524,-1.524 h 3.042 z m -0.866,0.86 -2.657,2.664 -2.664,-2.664 2.383,-2.383 h 0.561 z m -4.662,-2.384 -1.524,1.524 -1.518,-1.524 z m -4.767,0 2.383,2.383 -2.664,2.664 -2.316,-2.322 -0.049,-0.634 2.085,-2.091 z m -2.28,0 -0.494,0.494 v 0 l -0.043,-0.494 z m -0.164,4.602 1.304,1.304 -1.109,1.109 z m 0.725,8.93 -0.104,-1.262 v 0 l 0.683,0.683 z m 0.128,1.603 1.31,-1.316 2.664,2.664 -2.664,2.658 -1.073,-1.073 z m 0.396,4.925 -0.006,-0.116 0.061,0.061 z m 0.464,5.675 -0.335,-4.084 0.786,-0.786 2.664,2.664 -2.664,2.658 z m 0.243,3.041 -0.049,-0.609 0.256,-0.256 0.866,0.866 H 66.93 Z m 1.073,-1.725 2.658,-2.664 2.664,2.664 -1.725,1.725 h -1.877 z m 5.321,1.725 0.866,-0.866 0.865,0.866 z m 3.45,0 -1.725,-1.725 2.664,-2.664 2.658,2.664 -1.719,1.725 z m 3.596,0 0.866,-0.866 0.866,0.866 z m 8.12,0 h -1.073 l 0.866,-0.866 0.256,0.256 z m 0.249,-3.041 -0.457,0.451 -2.664,-2.658 2.664,-2.664 0.786,0.786 z m 0.47,-5.797 -0.012,0.122 -0.055,-0.055 z m 0.152,-1.871 -1.079,1.073 -2.664,-2.658 2.664,-2.664 1.317,1.316 z m 0.366,-4.529 -0.585,-0.585 0.689,-0.683 z m 0.725,-8.942 -0.195,2.426 -1.116,-1.116 z"
   id="path167" />&#10;			</g>&#10;		</g>&#10;		<path
   style="fill:#407bff"
   d="M 63.262,382.147 H 92.16 c 0.908,0 1.643,-0.736 1.643,-1.643 v -0.107 c 0,-0.908 -0.736,-1.643 -1.643,-1.643 H 63.261 c -0.907,0 -1.643,0.736 -1.643,1.643 v 0.107 c 0,0.908 0.736,1.643 1.644,1.643 z"
   id="path168" />&#10;		<path
   style="fill:#407bff"
   d="M 89.839,412.624 H 65.582 c -0.908,0 -1.643,-0.736 -1.643,-1.643 v -0.107 c 0,-0.908 0.736,-1.643 1.643,-1.643 h 24.257 c 0.908,0 1.643,0.736 1.643,1.643 v 0.107 c 0,0.907 -0.735,1.643 -1.643,1.643 z"
   id="path169" />&#10;	</g>&#10;</g><g
   id="Speech_Bubble"
   transform="matrix(0.44841894,0,0,0.44841894,-11.385533,-39.025349)">&#10;	<g
   id="g174">&#10;		<path
   style="fill:#407bff"
   d="m 241.543,134.852 29.492,-5.105 c 2.009,-0.348 3.356,-2.259 3.009,-4.268 l -5.105,-29.492 c -0.348,-2.009 -2.259,-3.356 -4.268,-3.008 l -29.492,5.105 c -2.009,0.348 -3.356,2.259 -3.008,4.268 l 5.105,29.492 c 0.347,2.009 2.258,3.356 4.267,3.008 z"
   id="path170" />&#10;		<path
   style="fill:#407bff"
   d="m 251.846,130.137 c 0,0 6.735,10.195 18.133,11.773 0,0 -6.572,-2.413 -8.101,-13.982 z"
   id="path171" />&#10;		<g
   id="g173">&#10;			<path
   style="fill:#407bff"
   d="m 261.587,111.104 -4.758,0.569 c 0,0 -1.562,-3.186 -2.55,-10.545 0,0 -1.676,0.042 -2.441,0.383 -0.765,0.341 0.083,8.574 0.083,8.574 0,0 -8.626,0.6 -9.035,1.03 -0.259,0.272 -0.156,1.549 -0.046,2.446 0.064,0.524 0.493,0.926 1.02,0.956 l 0.303,0.017 1.533,8.099 c 0.118,0.624 0.702,1.049 1.333,0.968 l 7.982,-1.021 c 0.79,-0.101 1.531,-0.439 2.124,-0.971 l 0.788,-0.706 4.961,-0.32 z"
   id="path172" />&#10;			<path
   style="opacity:0.7;fill:#ffffff;enable-background:new"
   d="m 261.587,111.104 -4.758,0.569 c 0,0 -1.562,-3.186 -2.55,-10.545 0,0 -1.676,0.042 -2.441,0.383 -0.765,0.341 0.083,8.574 0.083,8.574 0,0 -8.626,0.6 -9.035,1.03 -0.259,0.272 -0.156,1.549 -0.046,2.446 0.064,0.524 0.493,0.926 1.02,0.956 l 0.303,0.017 1.533,8.099 c 0.118,0.624 0.702,1.049 1.333,0.968 l 7.982,-1.021 c 0.79,-0.101 1.531,-0.439 2.124,-0.971 l 0.788,-0.706 4.961,-0.32 z"
   id="path173" />&#10;		</g>&#10;	</g>&#10;</g><g
   id="Character"
   transform="matrix(0.44841894,0,0,0.44841894,-11.385533,-39.025349)">&#10;	<g
   id="g239">&#10;		<g
   id="_x3C_Group_x3E__126_">&#10;			<path
   style="fill:#407bff"
   d="m 278.541,169.709 c -4.357,-0.166 -21.344,27.493 -21.344,27.493 l -11.542,-2.178 -2.472,5.9 c 0,0 10.403,5.072 14.586,5.525 4.183,0.453 20.19,-21.878 20.19,-21.878 z"
   id="path174" />&#10;			<path
   style="opacity:0.2;fill:#ffffff;enable-background:new"
   d="m 278.542,169.704 -0.584,14.864 c 0,0 -0.385,0.539 -1.057,1.442 -1.222,1.674 -3.413,4.602 -5.901,7.729 -4.866,6.1 -10.9,12.959 -13.234,12.706 -4.184,-0.451 -14.588,-5.516 -14.588,-5.516 l 2.477,-5.901 11.538,2.18 c 0.001,-0.001 16.989,-27.67 21.349,-27.504 z"
   id="path175" />&#10;			<path
   style="opacity:0.2;enable-background:new"
   d="m 276.902,186.01 c -1.222,1.674 -3.413,4.602 -5.901,7.729 0.088,-5.901 5.252,-13.234 5.252,-13.234 0,0 0.363,2.4 0.649,5.505 z"
   id="path176" />&#10;			<path
   style="fill:#263238"
   d="m 311.657,411.779 h 9.756 c 0.329,0.002 0.613,0.231 0.684,0.552 l 1.583,7.151 c 0.135,0.64 -0.274,1.269 -0.914,1.404 -0.086,0.018 -0.173,0.027 -0.261,0.026 -3.157,-0.051 -5.455,-0.245 -9.419,-0.245 -2.442,0 -9.807,0.255 -13.178,0.255 -3.371,0 -3.81,-3.33 -2.431,-3.637 6.191,-1.348 10.849,-3.218 12.831,-4.995 0.368,-0.338 0.85,-0.521 1.349,-0.511 z"
   id="path177" />&#10;			<path
   style="fill:#263238"
   d="m 270.284,411.523 h 9.756 c 0.329,0.002 0.613,0.231 0.684,0.552 l 1.583,7.151 c 0.136,0.64 -0.274,1.269 -0.914,1.404 -0.086,0.018 -0.173,0.027 -0.261,0.026 -3.157,-0.051 -5.455,-0.245 -9.419,-0.245 -2.441,0 -9.807,0.255 -13.178,0.255 -3.371,0 -3.81,-3.33 -2.431,-3.637 6.19,-1.348 10.849,-3.218 12.831,-4.995 0.368,-0.337 0.851,-0.52 1.349,-0.511 z"
   id="path178" />&#10;			<path
   style="fill:#263238"
   d="m 316.83,230.938 h -42.623 c -4.053,22.13 -16.738,111.992 -7.637,181.769 H 281 c 0,0 -1.336,-105.971 11.404,-140.216 1.465,18.327 16.362,140.144 16.362,140.144 h 14.69 c 0,0 -2.194,-45.825 -4.392,-89.111 -1.385,-27.256 -2.175,-86.991 -2.234,-92.586 z"
   id="path179" />&#10;			<path
   style="opacity:0.2;enable-background:new"
   d="m 292.401,272.494 c -1.88,5.046 -3.443,11.349 -4.761,18.439 -1.192,-16.309 3.575,-33.605 3.575,-33.605 z"
   id="path180" />&#10;			<polygon
   points="316.754,231.448 316.754,236.556 273.302,236.028 273.849,231.448 "
   id="polygon180" />&#10;			<rect
   x="301.431"
   y="229.14999"
   style="fill:#263238"
   width="1.5319999"
   height="9.066"
   id="rect180" />&#10;			<rect
   x="279.72299"
   y="229.14999"
   style="fill:#263238"
   width="1.5319999"
   height="9.066"
   id="rect181" />&#10;			<rect
   x="285.46899"
   y="230.55499"
   style="fill:#ffffff"
   width="7.9349999"
   height="5.7179999"
   id="rect182" />&#10;			<g
   id="g184">&#10;				<path
   style="fill:#407bff"
   d="m 316.886,232.272 c 1.136,-24.414 8.319,-58.963 8.319,-58.963 -19.923,-4.804 -46.666,-3.601 -46.666,-3.601 -5.213,18.642 -5.115,48.722 -4.664,62.563 h 43.011 z"
   id="path182" />&#10;				<path
   style="opacity:0.2;fill:#ffffff;enable-background:new"
   d="m 325.203,173.304 c 0,0 -0.804,3.865 -1.916,9.92 -0.528,2.885 -1.134,6.276 -1.751,9.986 -0.352,2.169 -0.727,4.437 -1.079,6.782 -0.352,2.279 -0.705,4.624 -1.035,7.002 -1.178,8.478 -2.169,17.407 -2.543,25.279 h -43.005 c -0.451,-13.839 -0.539,-43.919 4.668,-62.57 0,0.001 26.744,-1.199 46.661,3.601 z"
   id="path183" />&#10;				<path
   style="opacity:0.2;enable-background:new"
   d="m 323.287,183.224 c -0.528,2.885 -1.134,6.276 -1.751,9.986 -0.352,2.169 -0.727,4.437 -1.079,6.782 -3.16,-8.291 2.224,-19.488 2.224,-19.488 z"
   id="path184" />&#10;			</g>&#10;			<path
   style="fill:#263238"
   d="m 292.698,172.949 1.075,5.285 c 0,0 -6.154,25.668 -7.477,38.983 l 2.242,2.246 3.529,-2.246 c 0,0 0.316,-27.112 3.429,-38.502 l 5.58,-4.569 -4.392,-1.422 z"
   id="path185" />&#10;			<path
   style="fill:#eec1bb"
   d="m 309.402,170.614 c -3.686,3.35 -12.718,2.111 -12.718,2.111 0,0 -5.637,-1.543 -4.453,-3.305 3.321,-0.549 4.928,-2.098 5.592,-4.081 0.385,-1.155 0.443,-2.454 0.337,-3.793 -0.048,-0.703 -0.154,-1.415 -0.279,-2.118 l 11.165,-8.268 c -1.463,5.458 -3.254,15.498 0.356,19.454 z"
   id="path186" />&#10;			<path
   style="opacity:0.2;enable-background:new"
   d="m 306.466,156.416 c -0.443,6.699 -5.949,8.547 -8.644,8.923 0.385,-1.155 0.443,-2.454 0.337,-3.793 z"
   id="path187" />&#10;			<g
   id="g189">&#10;				<path
   style="fill:#407bff"
   d="m 307.756,166.363 -10.672,4.813 -0.626,-3.858 -3.924,1.38 c -1.408,0.495 -2.293,1.893 -2.138,3.378 l 0.443,4.234 5.415,-2.963 2.698,3.816 12.82,-6.175 z"
   id="path188" />&#10;				<path
   style="opacity:0.3;fill:#ffffff;enable-background:new"
   d="m 307.756,166.363 -10.672,4.813 -0.626,-3.858 -3.924,1.38 c -1.408,0.495 -2.293,1.893 -2.138,3.378 l 0.443,4.234 5.415,-2.963 2.698,3.816 12.82,-6.175 z"
   id="path189" />&#10;			</g>&#10;			<g
   id="g202">&#10;				<path
   style="fill:#263238"
   d="m 286.156,135.652 c 0,0 -1.668,10.75 4.028,14.904 5.696,4.154 5.757,-15.867 5.757,-15.867 z"
   id="path190" />&#10;				<path
   style="fill:#eec1bb"
   d="m 306.731,159.155 c -2.782,3.973 -7.302,5.001 -11.22,3.749 -2.519,-0.802 -4.788,-2.556 -6.19,-5.072 -0.188,-0.328 -0.355,-0.676 -0.513,-1.034 -2.79,-6.581 -3.648,-18.08 3.314,-22.368 4.943,-3.093 11.472,-1.594 14.564,3.36 0.889,1.403 1.42,3.003 1.574,4.661 0.831,7.686 1.682,12.166 -1.529,16.704 z"
   id="path191" />&#10;				<path
   style="fill:#263238"
   d="m 297.047,146.522 c 0.146,0.608 -0.136,1.176 -0.548,1.245 -0.412,0.068 -0.818,-0.386 -0.925,-1.003 -0.108,-0.617 0.146,-1.179 0.548,-1.245 0.402,-0.066 0.815,0.376 0.925,1.003 z"
   id="path192" />&#10;				<path
   style="fill:#263238"
   d="m 290.029,147.699 c 0.146,0.608 -0.145,1.178 -0.548,1.245 -0.403,0.066 -0.818,-0.385 -0.925,-1.003 -0.107,-0.617 0.146,-1.179 0.548,-1.245 0.402,-0.066 0.824,0.414 0.925,1.003 z"
   id="path193" />&#10;				<path
   style="fill:#d4827d"
   d="m 292.31,147.63 c -0.421,2.022 -1.119,3.977 -2.075,5.808 0.967,0.472 2.093,0.493 3.077,0.057 z"
   id="path194" />&#10;				<path
   style="fill:#263238"
   d="m 286.924,145.137 c 0.13,0.046 0.275,0.019 0.38,-0.07 0.689,-0.639 1.64,-0.915 2.564,-0.745 0.195,0.054 0.398,-0.06 0.452,-0.255 0.054,-0.195 -0.06,-0.398 -0.256,-0.452 0,0 -0.001,0 -0.001,0 -1.163,-0.245 -2.372,0.09 -3.244,0.897 -0.156,0.13 -0.177,0.361 -0.047,0.517 0.002,0.002 0.004,0.005 0.006,0.007 0.043,0.04 0.092,0.075 0.146,0.101 z"
   id="path195" />&#10;				<path
   style="fill:#263238"
   d="m 297.965,143.483 c 0.073,-0.014 0.14,-0.052 0.191,-0.106 0.107,-0.172 0.054,-0.399 -0.118,-0.506 -0.002,-0.001 -0.005,-0.003 -0.007,-0.004 -1.008,-0.637 -2.263,-0.743 -3.364,-0.285 -0.182,0.089 -0.258,0.309 -0.169,0.491 v 0.001 c 0.093,0.179 0.309,0.253 0.492,0.169 v 0 c 0.879,-0.336 1.866,-0.237 2.661,0.267 0.103,0.038 0.218,0.028 0.314,-0.027 z"
   id="path196" />&#10;				<path
   style="fill:#263238"
   d="m 301.073,133.877 -0.01,3.433 c 1.18,0.459 1.998,1.632 1.645,3.025 -0.754,2.976 1.386,7.198 3.779,8.699 0,0 -0.079,-1.241 0.996,-1.073 1.075,0.169 1.552,6.624 -0.113,9.928 0,0 2.74,-3.135 3.671,-10.082 0.861,-6.425 0.442,-11.644 -1.126,-13.903 z"
   id="path197" />&#10;				<path
   style="fill:#eec1bb"
   d="m 312.64,148.143 c -0.557,1.867 -1.831,3.437 -3.543,4.365 -2.276,1.214 -3.968,-0.691 -3.807,-3.131 0.164,-2.167 1.522,-5.478 4.04,-5.66 2.517,-0.182 3.964,2.126 3.31,4.426 z"
   id="path198" />&#10;				<g
   id="g201">&#10;					<path
   style="fill:#263238"
   d="m 294.118,155.382 c 0.633,0.865 1.43,2.565 1.43,2.565 0.167,-0.044 0.334,-0.089 0.499,-0.142 2.25,-0.66 3.076,-1.71 3.309,-2.673 0.125,-0.527 0.067,-1.034 -0.033,-1.431 -0.111,-0.461 -0.295,-0.764 -0.295,-0.764 -0.984,1.063 -3.034,1.84 -4.146,2.209 -0.465,0.158 -0.764,0.236 -0.764,0.236 z"
   id="path199" />&#10;					<path
   style="fill:#ffffff"
   d="m 294.881,155.145 0.441,0.745 c 2.118,-0.627 3.525,-1.353 4,-2.19 -0.111,-0.461 -0.295,-0.764 -0.295,-0.764 -0.983,1.063 -3.033,1.84 -4.146,2.209 z"
   id="path200" />&#10;					<path
   style="fill:#de5753"
   d="m 296.046,157.805 c 2.25,-0.66 3.076,-1.71 3.309,-2.673 -0.758,0.255 -1.644,0.646 -2.353,1.228 -0.544,0.443 -0.816,0.96 -0.956,1.445 z"
   id="path201" />&#10;				</g>&#10;				<path
   style="fill:#263238"
   d="m 309.402,135.497 c 0,0 3.693,-4.501 -5.163,-7.259 -8.856,-2.759 -21.796,5.464 -19.165,8.711 2.632,3.247 11.698,1.887 11.698,1.887 0,0 -2.337,-0.29 -3.461,-1.452 0,0 13.124,0.871 16.091,-1.887 z"
   id="path202" />&#10;			</g>&#10;			<path
   style="fill:#407bff"
   d="m 325.203,173.309 c 5.605,1.897 9.444,36.779 9.376,39.809 -0.069,3.031 -8.66,4.337 -9.374,-1.979 -0.713,-6.316 -3.67,-19.818 -3.67,-19.818 0,0 -0.779,-6.098 0,-9.8 0.779,-3.702 3.668,-8.212 3.668,-8.212 z"
   id="path203" />&#10;			<path
   style="opacity:0.2;fill:#ffffff;enable-background:new"
   d="m 325.203,173.309 c 5.605,1.897 9.444,36.779 9.376,39.809 -0.069,3.031 -8.66,4.337 -9.374,-1.979 -0.713,-6.316 -3.67,-19.818 -3.67,-19.818 0,0 -0.779,-6.098 0,-9.8 0.779,-3.702 3.668,-8.212 3.668,-8.212 z"
   id="path204" />&#10;		</g>&#10;		<g
   id="g238">&#10;			&#10;				<rect
   x="165.627"
   y="201.217"
   transform="matrix(0.9942,0.1076,-0.1076,0.9942,30.5429,-26.8408)"
   style="fill:#407bff"
   width="196.89799"
   height="136.966"
   id="rect204" />&#10;			&#10;				<rect
   x="165.627"
   y="201.217"
   transform="matrix(0.9942,0.1076,-0.1076,0.9942,30.5429,-26.8408)"
   style="opacity:0.6;fill:#ffffff;enable-background:new"
   width="196.89799"
   height="136.966"
   id="rect205" />&#10;			&#10;				<rect
   x="200.23801"
   y="176.26401"
   transform="matrix(-0.1076,0.9942,-0.9942,-0.1076,560.6169,36.1673)"
   style="fill:none;stroke:#407bff;stroke-miterlimit:10"
   width="127.675"
   height="186.87199"
   id="rect206" />&#10;			<polygon
   style="fill:none;stroke:#407bff;stroke-miterlimit:10"
   points="172.052,322.313 342.717,340.778 342.3,344.629 352.196,345.7 353.267,335.804 349.311,335.376 361.385,223.775 365.341,224.203 366.412,214.307 356.516,213.236 356.099,217.087 185.435,198.622 185.852,194.771 175.956,193.701 174.885,203.597 178.841,204.025 166.766,315.626 162.81,315.198 161.74,325.094 171.636,326.164 "
   id="polygon206" />&#10;			<g
   id="g210">&#10;				<g
   id="g206">&#10;					<path
   style="fill:#407bff"
   d="m 180.305,199.132 2.273,0.246 -0.246,2.273 -2.273,-0.246 0.246,-2.273 m -0.886,-1.102 -0.108,0.994 -0.246,2.273 -0.108,0.994 0.994,0.108 2.273,0.246 0.994,0.108 0.108,-0.994 0.246,-2.273 0.108,-0.994 -0.994,-0.108 -2.273,-0.246 z"
   id="path206" />&#10;				</g>&#10;				<g
   id="g207">&#10;					<path
   style="fill:#407bff"
   d="m 167.396,318.445 2.273,0.246 -0.246,2.273 -2.273,-0.246 0.246,-2.273 m -0.886,-1.102 -0.108,0.994 -0.246,2.273 -0.108,0.994 0.994,0.108 2.273,0.246 0.994,0.108 0.108,-0.994 0.246,-2.273 0.108,-0.994 -0.994,-0.108 -2.273,-0.246 z"
   id="path207" />&#10;				</g>&#10;				<g
   id="g208">&#10;					<path
   style="fill:#407bff"
   d="m 358.728,218.436 2.273,0.246 -0.246,2.273 -2.273,-0.246 0.246,-2.273 m -0.887,-1.102 -0.107,0.994 -0.246,2.273 -0.108,0.994 0.994,0.108 2.273,0.246 0.994,0.107 0.107,-0.994 0.246,-2.273 0.108,-0.994 -0.994,-0.108 -2.273,-0.246 z"
   id="path208" />&#10;				</g>&#10;				<g
   id="g209">&#10;					<path
   style="fill:#407bff"
   d="m 345.819,337.749 2.273,0.246 -0.246,2.273 -2.273,-0.246 0.246,-2.273 m -0.887,-1.101 -0.108,0.994 -0.246,2.273 -0.108,0.994 0.994,0.108 2.273,0.246 0.994,0.108 0.108,-0.994 0.246,-2.273 0.108,-0.994 -0.994,-0.108 -2.273,-0.246 z"
   id="path209" />&#10;				</g>&#10;			</g>&#10;			<g
   id="g222">&#10;				<path
   style="fill:#407bff"
   d="m 216.897,220.228 c 0.297,-2.746 2.614,-4.502 5.438,-4.197 1.497,0.162 2.727,0.84 3.473,1.931 l -1.216,0.918 c -0.591,-0.795 -1.381,-1.239 -2.34,-1.343 -1.905,-0.206 -3.43,0.984 -3.634,2.876 -0.205,1.892 1.03,3.381 2.935,3.587 0.958,0.104 1.825,-0.162 2.575,-0.825 l 0.99,1.171 c -0.962,0.906 -2.308,1.305 -3.819,1.142 -2.812,-0.303 -4.699,-2.514 -4.402,-5.26 z"
   id="path210" />&#10;				<path
   style="fill:#407bff"
   d="m 233.657,225.244 -0.155,1.432 -6.897,-0.746 0.995,-9.196 6.713,0.727 -0.155,1.432 -5.006,-0.542 -0.259,2.391 4.441,0.48 -0.152,1.406 -4.44,-0.48 -0.274,2.535 z"
   id="path211" />&#10;				<path
   style="fill:#407bff"
   d="m 241.423,227.533 -1.587,-2.896 c -0.12,0.001 -0.238,-0.012 -0.356,-0.025 l -2.076,-0.224 -0.29,2.68 -1.708,-0.185 0.995,-9.196 3.783,0.41 c 2.417,0.261 3.781,1.658 3.561,3.695 -0.15,1.392 -0.971,2.34 -2.271,2.691 l 1.788,3.251 z m -1.473,-8.001 -1.997,-0.216 -0.397,3.666 1.997,0.216 c 1.498,0.162 2.347,-0.438 2.472,-1.593 0.124,-1.157 -0.578,-1.911 -2.075,-2.073 z"
   id="path212" />&#10;				<path
   style="fill:#407bff"
   d="m 247.581,220.357 -3.048,-0.33 0.156,-1.445 7.803,0.844 -0.156,1.445 -3.047,-0.33 -0.839,7.752 -1.708,-0.185 z"
   id="path213" />&#10;				<path
   style="fill:#407bff"
   d="m 253.779,219.566 1.708,0.185 -0.995,9.196 -1.708,-0.185 z"
   id="path214" />&#10;				<path
   style="fill:#407bff"
   d="m 259.522,221.637 -0.303,2.798 4.44,0.48 -0.157,1.445 -4.44,-0.48 -0.381,3.521 -1.708,-0.185 0.995,-9.196 6.713,0.727 -0.155,1.432 z"
   id="path215" />&#10;				<path
   style="fill:#407bff"
   d="m 266.336,220.925 1.708,0.185 -0.995,9.196 -1.707,-0.185 z"
   id="path216" />&#10;				<path
   style="fill:#407bff"
   d="m 269.372,225.905 c 0.297,-2.746 2.613,-4.502 5.438,-4.196 1.497,0.162 2.727,0.84 3.473,1.931 l -1.217,0.918 c -0.591,-0.795 -1.381,-1.239 -2.339,-1.343 -1.905,-0.206 -3.43,0.984 -3.634,2.876 -0.205,1.892 1.03,3.381 2.935,3.587 0.958,0.104 1.825,-0.162 2.574,-0.825 l 0.99,1.171 c -0.962,0.906 -2.308,1.306 -3.819,1.142 -2.811,-0.304 -4.698,-2.515 -4.401,-5.261 z"
   id="path217" />&#10;				<path
   style="fill:#407bff"
   d="m 285.078,230.104 -4.598,-0.497 -1.137,2.03 -1.76,-0.19 5.133,-8.748 1.682,0.182 3.156,9.645 -1.786,-0.193 z m -0.42,-1.402 -1.3,-4.208 -2.155,3.835 z"
   id="path218" />&#10;				<path
   style="fill:#407bff"
   d="m 290.967,225.052 -3.048,-0.33 0.156,-1.445 7.804,0.844 -0.156,1.445 -3.048,-0.33 -0.839,7.751 -1.707,-0.185 z"
   id="path219" />&#10;				<path
   style="fill:#407bff"
   d="m 297.165,224.26 1.708,0.185 -0.995,9.196 -1.708,-0.185 z"
   id="path220" />&#10;				<path
   style="fill:#407bff"
   d="m 300.2,229.241 c 0.294,-2.72 2.614,-4.502 5.464,-4.194 2.851,0.309 4.737,2.533 4.441,5.266 -0.296,2.732 -2.614,4.502 -5.465,4.193 -2.85,-0.309 -4.734,-2.546 -4.44,-5.265 z m 8.185,0.885 c 0.203,-1.879 -1.03,-3.381 -2.882,-3.582 -1.853,-0.201 -3.378,1.003 -3.581,2.882 -0.203,1.879 1.029,3.382 2.882,3.582 1.852,0.201 3.378,-1.003 3.581,-2.882 z"
   id="path221" />&#10;				<path
   style="fill:#407bff"
   d="m 320.586,226.794 -0.995,9.196 -1.406,-0.151 -4.397,-6.776 -0.674,6.227 -1.695,-0.184 0.995,-9.196 1.406,0.152 4.397,6.775 0.674,-6.227 z"
   id="path222" />&#10;			</g>&#10;			<path
   style="opacity:0.6;fill:#ffffff;enable-background:new"
   d="m 311.167,262.279 -91.506,-9.9 c -2.138,-0.231 -4.06,1.315 -4.291,3.453 -0.231,2.138 1.315,4.06 3.453,4.291 l 91.506,9.9 c 2.138,0.231 4.06,-1.315 4.291,-3.453 0.232,-2.138 -1.314,-4.06 -3.453,-4.291 z"
   id="path223" />&#10;			<g
   id="g225">&#10;				&#10;					<line
   style="fill:none;stroke:#407bff;stroke-linecap:round;stroke-linejoin:round;stroke-miterlimit:10"
   x1="333.41501"
   y1="281.87201"
   x2="193.73801"
   y2="266.76001"
   id="line223" />&#10;				&#10;					<line
   style="fill:none;stroke:#407bff;stroke-linecap:round;stroke-linejoin:round;stroke-miterlimit:10"
   x1="333.86899"
   y1="277.681"
   x2="205.13699"
   y2="263.75299"
   id="line224" />&#10;				&#10;					<line
   style="fill:none;stroke:#407bff;stroke-linecap:round;stroke-linejoin:round;stroke-miterlimit:10"
   x1="278.211"
   y1="280.32901"
   x2="193.26401"
   y2="271.138"
   id="line225" />&#10;			</g>&#10;			<g
   id="g229">&#10;				&#10;					<line
   style="fill:none;stroke:#407bff;stroke-linecap:round;stroke-linejoin:round;stroke-miterlimit:10"
   x1="208.33501"
   y1="234.19901"
   x2="337.06601"
   y2="248.12601"
   id="line226" />&#10;				&#10;					<line
   style="fill:none;stroke:#407bff;stroke-linecap:round;stroke-linejoin:round;stroke-miterlimit:10"
   x1="196.935"
   y1="237.205"
   x2="336.61301"
   y2="252.31799"
   id="line227" />&#10;				&#10;					<line
   style="fill:none;stroke:#407bff;stroke-linecap:round;stroke-linejoin:round;stroke-miterlimit:10"
   x1="195.98801"
   y1="245.96201"
   x2="259.04199"
   y2="252.784"
   id="line228" />&#10;				&#10;					<line
   style="fill:none;stroke:#407bff;stroke-linecap:round;stroke-linejoin:round;stroke-miterlimit:10"
   x1="196.461"
   y1="241.584"
   x2="336.13901"
   y2="256.69601"
   id="line229" />&#10;			</g>&#10;			<g
   id="g234">&#10;				<g
   id="g230">&#10;					<polygon
   style="fill:#407bff"
   points="308.5,306.552 320.758,307.879 318.514,328.616 312.741,324.67 306.257,327.29 "
   id="polygon229" />&#10;					<polygon
   style="opacity:0.2;enable-background:new"
   points="308.5,306.552 320.758,307.879 318.514,328.616 312.741,324.67 306.257,327.29 "
   id="polygon230" />&#10;				</g>&#10;				<polygon
   style="fill:#407bff"
   points="329.733,307.36 327.855,308.76 328.631,310.971 326.464,311.86 326.665,314.194 324.345,314.517 323.96,316.828 321.632,316.563 320.684,318.705 318.496,317.87 317.045,319.71 315.133,318.356 313.27,319.777 311.754,317.991 309.597,318.904 308.573,316.796 306.256,317.144 305.789,314.849 303.458,314.609 303.576,312.27 301.378,311.458 302.075,309.221 300.147,307.889 301.378,305.895 299.843,304.126 301.531,302.501 300.484,300.405 302.523,299.251 302.03,296.961 304.292,296.35 304.384,294.009 306.727,293.98 307.399,291.735 309.675,292.29 310.884,290.283 312.951,291.386 314.621,289.743 316.348,291.325 318.374,290.149 319.654,292.111 321.909,291.476 322.66,293.695 325.003,293.64 325.179,295.976 327.461,296.505 327.051,298.812 329.129,299.892 328.158,302.025 329.903,303.588 328.432,305.411 "
   id="polygon231" />&#10;				<polygon
   style="opacity:0.2;fill:#ffffff;enable-background:new"
   points="326.741,306.856 325.241,307.974 325.861,309.74 324.13,310.45 324.291,312.314 322.438,312.571 322.131,314.416 320.272,314.205 319.515,315.916 317.768,315.249 316.609,316.718 315.082,315.637 313.595,316.772 312.385,315.345 310.662,316.074 309.845,314.392 307.995,314.669 307.621,312.836 305.76,312.645 305.855,310.777 304.1,310.129 304.656,308.343 303.117,307.279 304.1,305.687 302.874,304.274 304.221,302.977 303.386,301.303 305.014,300.381 304.62,298.553 306.426,298.065 306.5,296.196 308.371,296.172 308.907,294.38 310.725,294.823 311.69,293.22 313.34,294.101 314.673,292.789 316.053,294.053 317.671,293.113 318.693,294.68 320.493,294.173 321.093,295.945 322.964,295.901 323.104,297.767 324.927,298.189 324.599,300.031 326.259,300.894 325.483,302.596 326.876,303.845 325.702,305.301 "
   id="polygon232" />&#10;				<g
   id="g233">&#10;					<path
   style="fill:#407bff"
   d="m 314.894,305.765 1.393,0.151 -0.102,0.939 -1.507,-0.163 -0.406,1.732 -0.94,-0.102 0.407,-1.732 -1.745,-0.189 -0.407,1.732 -0.939,-0.102 0.406,-1.732 -1.393,-0.151 0.102,-0.939 1.507,0.163 0.436,-1.812 -1.393,-0.151 0.102,-0.94 1.507,0.163 0.407,-1.731 0.939,0.102 -0.406,1.731 1.734,0.188 0.407,-1.731 0.939,0.102 -0.406,1.731 1.383,0.15 -0.092,0.941 -1.507,-0.163 z m -0.94,-0.102 0.426,-1.813 -1.734,-0.188 -0.436,1.812 z"
   id="path232" />&#10;					<path
   style="fill:#407bff"
   d="m 320.301,301.766 -0.782,7.225 -1.342,-0.145 0.66,-6.1 -1.528,-0.165 0.122,-1.124 z"
   id="path233" />&#10;				</g>&#10;			</g>&#10;			<g
   id="g235">&#10;				<path
   style="fill:#407bff"
   d="m 204.153,284.188 v 0 c 0.492,-0.285 1.12,-0.136 1.431,0.34 v 0 c 0.255,0.391 0.735,0.571 1.184,0.444 v 0 c 0.547,-0.154 1.119,0.147 1.301,0.685 v 0 c 0.15,0.442 0.57,0.736 1.036,0.725 v 0 c 0.568,-0.013 1.047,0.421 1.09,0.987 v 0 c 0.035,0.466 0.369,0.854 0.824,0.96 v 0 c 0.554,0.129 0.91,0.668 0.81,1.227 v 0 c -0.082,0.46 0.145,0.919 0.559,1.135 v 0 c 0.504,0.262 0.715,0.873 0.479,1.39 v 0 c -0.193,0.425 -0.089,0.926 0.259,1.238 v 0 c 0.423,0.379 0.475,1.023 0.118,1.466 v 0 c -0.293,0.363 -0.316,0.875 -0.057,1.264 v 0 c 0.316,0.473 0.206,1.11 -0.25,1.449 v 0 c -0.374,0.279 -0.524,0.769 -0.369,1.21 v 0 c 0.188,0.536 -0.077,1.126 -0.602,1.342 v 0 c -0.432,0.177 -0.699,0.615 -0.659,1.08 v 0 c 0.049,0.566 -0.354,1.072 -0.917,1.15 v 0 c -0.462,0.064 -0.83,0.422 -0.906,0.882 v 0 c -0.093,0.56 -0.61,0.95 -1.174,0.885 v 0 c -0.464,-0.053 -0.909,0.202 -1.097,0.629 v 0 c -0.23,0.52 -0.826,0.768 -1.357,0.566 v 0 c -0.436,-0.166 -0.93,-0.03 -1.219,0.336 v 0 c -0.352,0.446 -0.992,0.539 -1.455,0.21 v 0 c -0.381,-0.27 -0.893,-0.261 -1.265,0.023 v 0 c -0.452,0.345 -1.094,0.275 -1.462,-0.158 v 0 c -0.302,-0.356 -0.8,-0.475 -1.231,-0.293 v 0 c -0.523,0.221 -1.129,-0.006 -1.377,-0.517 v 0 c -0.204,-0.42 -0.657,-0.659 -1.119,-0.589 v 0 c -0.562,0.084 -1.092,-0.286 -1.205,-0.843 v 0 c -0.093,-0.458 -0.473,-0.802 -0.937,-0.849 v 0 c -0.565,-0.058 -0.986,-0.549 -0.957,-1.116 v 0 c 0.023,-0.466 -0.259,-0.894 -0.697,-1.056 v 0 c -0.533,-0.197 -0.819,-0.777 -0.65,-1.319 v 0 c 0.139,-0.446 -0.028,-0.93 -0.412,-1.196 v 0 c -0.467,-0.323 -0.6,-0.956 -0.301,-1.439 v 0 c 0.245,-0.397 0.204,-0.908 -0.102,-1.261 v 0 c -0.372,-0.429 -0.343,-1.075 0.066,-1.469 v 0 c 0.336,-0.324 0.423,-0.829 0.215,-1.246 v 0 c -0.254,-0.508 -0.065,-1.127 0.429,-1.407 v 0 c 0.406,-0.23 0.616,-0.697 0.518,-1.154 v 0 c -0.12,-0.556 0.217,-1.107 0.766,-1.256 v 0 c 0.451,-0.122 0.77,-0.522 0.789,-0.989 v 0 c 0.022,-0.568 0.486,-1.019 1.054,-1.026 v 0 c 0.467,-0.006 0.876,-0.314 1.01,-0.762 v 0 c 0.163,-0.544 0.724,-0.866 1.276,-0.731 v 0 c 0.454,0.111 0.927,-0.087 1.167,-0.487 v 0 c 0.293,-0.487 0.916,-0.659 1.418,-0.391 v 0 c 0.412,0.22 0.919,0.147 1.252,-0.181 v 0 c 0.405,-0.399 1.051,-0.41 1.47,-0.026 v 0 c 0.343,0.317 0.852,0.372 1.256,0.138 z"
   id="path234" />&#10;				<circle
   style="opacity:0.2;fill:#ffffff;enable-background:new"
   cx="202.35001"
   cy="294.97"
   r="9.2189999"
   id="circle234" />&#10;				<polygon
   style="fill:#407bff"
   points="204.62,296.495 204.83,299.869 202.024,297.983 198.88,299.225 199.807,295.974 197.654,293.368 201.032,293.245 202.846,290.392 204.007,293.566 207.281,294.41 "
   id="polygon234" />&#10;			</g>&#10;			<g
   id="g237">&#10;				&#10;					<circle
   transform="rotate(-38.821769,236.19907,298.646)"
   style="fill:#407bff"
   cx="236.172"
   cy="298.629"
   id="ellipse235"
   r="11.191" />&#10;				<path
   style="opacity:0.2;fill:#ffffff;enable-background:new"
   d="m 244.563,299.537 c -0.501,4.634 -4.665,7.985 -9.299,7.483 -4.634,-0.501 -7.985,-4.665 -7.483,-9.299 0.501,-4.634 4.665,-7.985 9.299,-7.483 4.634,0.501 7.984,4.664 7.483,9.299 z"
   id="path235" />&#10;				<g
   style="opacity:0.2;enable-background:new"
   id="g236">&#10;					<path
   style="fill:#ffffff"
   d="m 235.129,308.264 c -5.314,-0.575 -9.168,-5.365 -8.593,-10.678 0.575,-5.313 5.365,-9.168 10.678,-8.593 5.313,0.575 9.168,5.365 8.593,10.678 -0.575,5.313 -5.365,9.168 -10.678,8.593 z m 2.022,-18.683 c -4.99,-0.54 -9.488,3.08 -10.028,8.069 -0.54,4.99 3.08,9.487 8.07,10.027 4.989,0.54 9.487,-3.08 10.027,-8.069 0.54,-4.99 -3.08,-9.488 -8.069,-10.027 z"
   id="path236" />&#10;				</g>&#10;				<polygon
   style="fill:#407bff"
   points="234.352,298.626 230.844,294.916 231.689,301.589 233.778,301.815 235.596,302.012 236.011,302.056 237.828,302.253 239.917,302.479 242.17,296.141 237.949,299.015 236.54,295.224 "
   id="polygon236" />&#10;			</g>&#10;		</g>&#10;		<path
   style="fill:#eec1bb"
   d="m 241.663,200.924 2.468,-2.264 2.024,0.219 0.372,-2.875 -3.618,-0.835 c 0,0 -5.038,-0.686 -6.781,-0.696 -0.726,-0.004 -1.579,0 -3.612,4.471 -0.361,0.793 9.147,1.98 9.147,1.98 z"
   id="path238" />&#10;		<path
   style="fill:#eec1bb"
   d="m 323.287,207.224 c 0,0 1.247,-2.618 1.916,-3.199 0.668,-0.581 6.771,0.763 7.783,1.599 1.011,0.836 0.539,2.707 0.539,2.707 0,0 -1.701,2.663 -2.862,2.518 -1.162,-0.145 -7.056,-0.436 -7.375,-0.871 -0.321,-0.436 -0.001,-2.754 -0.001,-2.754 z"
   id="path239" />&#10;	</g>&#10;</g></svg>
