<svg version="1.2" xmlns="http://www.w3.org/2000/svg" viewBox="0 0 1000 1000" width="1000" height="1000">
	<title>9572416</title>
	<style>
		.s0 { fill: #e0e0e0 } 
		.s1 { fill: #e6e6e6 } 
		.s2 { fill: #f0f0f0 } 
		.s3 { fill: #fafafa } 
		.s4 { fill: #ebebeb } 
		.s5 { fill: #f5f5f5 } 
		.s6 { fill: #263238 } 
		.s7 { fill: #407bff } 
		.s8 { opacity: .8;fill: #ffffff } 
		.s9 { fill: #000000 } 
		.s10 { opacity: .2;fill: #ffffff } 
		.s11 { fill: none;stroke: #ffffff;stroke-miterlimit:10 } 
		.s12 { fill: none;stroke: #263238;stroke-miterlimit:10;stroke-width: 2 } 
		.s13 { opacity: .3;fill: #ffffff } 
		.s14 { opacity: .3;fill: #000000 } 
		.s15 { opacity: .6;fill: #ffffff } 
		.s16 { fill: #ffffff } 
		.s17 { opacity: .2;fill: #000000 } 
		.s18 { fill: #ff7866 } 
		.s19 { opacity: .5;fill: #000000 } 
		.s20 { fill: #ff3636 } 
	</style>
	<g id="Background complete">
		<g id="&lt;Group&gt;">
			<g id="&lt;Group&gt;">
				<g id="&lt;Group&gt;">
					<g id="&lt;Group&gt;">
						<g id="&lt;Group&gt;">
							<path id="&lt;Compound Path&gt;" fill-rule="evenodd" class="s0" d="m887.8 690.1h-361.5c-6.4 0-11.7-5.2-11.7-11.7v-526.5c0-6.5 5.3-11.8 11.7-11.8h361.5c6.5 0 11.8 5.3 11.8 11.8v526.5c0 6.5-5.3 11.7-11.8 11.7zm-361.5-549.5c-6.1 0-11.2 5.1-11.2 11.3v526.5c0 6.2 5.1 11.2 11.2 11.2h361.5c6.2 0 11.3-5 11.3-11.2v-526.5c0-6.2-5.1-11.3-11.3-11.3z"/>
						</g>
					</g>
					<g id="&lt;Group&gt;">
						<g id="&lt;Group&gt;">
							<path id="&lt;Compound Path&gt;" fill-rule="evenodd" class="s0" d="m471 690.1h-361.5c-6.5 0-11.7-5.2-11.7-11.7v-526.5c0-6.5 5.2-11.8 11.7-11.8h361.5c6.5 0 11.7 5.3 11.7 11.8v526.5c0 6.5-5.2 11.7-11.7 11.7zm-361.5-549.5c-6.2 0-11.2 5.1-11.2 11.3v526.5c0 6.2 5 11.2 11.2 11.2h361.5c6.2 0 11.2-5 11.2-11.2v-526.5c0-6.2-5-11.3-11.2-11.3z"/>
						</g>
					</g>
				</g>
				<g id="&lt;Group&gt;">
					<g id="&lt;Group&gt;">
						<path id="&lt;Path&gt;" class="s0" d="m1000 812.8h-1000v-0.5h1000z"/>
					</g>
				</g>
			</g>
			<path id="&lt;Path&gt;" class="s0" d="m103.3 840.8h32.2v0.5h-32.2z"/>
			<path id="&lt;Path&gt;" class="s0" d="m340.7 835.4h107.1v0.5h-107.1z"/>
			<path id="&lt;Path&gt;" class="s0" d="m137.5 859.4h72.5v0.5h-72.5z"/>
			<path id="&lt;Path&gt;" class="s0" d="m756.7 835.1h86.4v0.5h-86.4z"/>
			<path id="&lt;Path&gt;" class="s0" d="m860.9 835.1h12.7v0.5h-12.7z"/>
			<path id="&lt;Path&gt;" class="s0" d="m632.4 847.6h107.8v0.5h-107.8z"/>
		</g>
		<g id="&lt;Group&gt;">
			<path id="&lt;Path&gt;" class="s1" d="m293.6 101.8c8.4-35.8 44.2-57.9 80-49.5 35.7 8.4 57.9 44.3 49.4 80-8.4 35.8-44.2 57.9-80 49.5-35.7-8.5-57.9-44.3-49.4-80z"/>
			<path id="&lt;Path&gt;" class="s2" d="m358.3 60.3c31.4 0 56.8 25.4 56.8 56.8 0 31.3-25.4 56.7-56.8 56.7-31.3 0-56.8-25.4-56.8-56.7 0-31.4 25.5-56.8 56.8-56.8z"/>
			<path id="&lt;Path&gt;" class="s1" d="m358.3 72.6c24.6 0 44.5 19.9 44.5 44.5 0 24.5-19.9 44.4-44.5 44.4-24.5 0-44.4-19.9-44.4-44.4 0-24.6 19.9-44.5 44.4-44.5z"/>
			<path id="&lt;Path&gt;" class="s3" d="m344.4 83.4c18.6-7.7 39.9 1.1 47.6 19.7 7.7 18.6-1.1 39.9-19.7 47.6-18.6 7.7-39.9-1.1-47.6-19.7-7.7-18.6 1.1-39.9 19.7-47.6z"/>
			<path id="&lt;Path&gt;" class="s1" d="m333.7 111.2c3.2-13.6 16.8-22 30.4-18.8 13.6 3.2 22 16.8 18.8 30.4-3.2 13.6-16.8 22-30.4 18.8-13.6-3.2-22-16.8-18.8-30.4z"/>
			<path id="&lt;Path&gt;" class="s2" d="m351.4 100.3c9.2-3.9 19.9 0.5 23.7 9.8 3.8 9.3-0.6 19.9-9.8 23.7-9.3 3.9-19.9-0.5-23.7-9.8-3.9-9.3 0.5-19.9 9.8-23.7z"/>
			<path id="&lt;Path&gt;" class="s1" d="m366.5 117.1c0 4.5-3.6 8.2-8.2 8.2-4.6 0-8.2-3.7-8.2-8.2 0-4.6 3.6-8.3 8.2-8.3q0 0 0 0c4.6 0 8.2 3.7 8.2 8.2q0 0 0 0.1z"/>
			<path id="&lt;Path&gt;" class="s4" d="m273 62.2l1.8 12-12.6 4.2 12.6 6.6 12.4-4.4-2.2-11.8z"/>
			<path id="&lt;Path&gt;" class="s0" d="m358.6 118.8q-0.4 0-0.8-0.2l-89.5-45.9c-0.8-0.4-1.2-1.5-0.7-2.3 0.5-0.9 1.5-1.2 2.3-0.8l89.5 45.8c0.9 0.5 1.2 1.5 0.8 2.4-0.3 0.6-0.9 1-1.6 1z"/>
		</g>
		<path id="&lt;Compound Path&gt;" fill-rule="evenodd" class="s4" d="m691 657.6l12.7-18.8 10.3 5.6c5.6-5.4 12.1-9.6 19.1-12.5l-1.2-11.8 22.3-4.3 3.4 11.3c7.5 0.1 15.1 1.6 22.3 4.5l7.4-9.1 18.9 12.8-5.6 10.3c5.4 5.6 9.6 12.1 12.5 19l11.7-1.1 4.4 22.3-11.4 3.3c-0.1 7.6-1.5 15.1-4.5 22.3l9.1 7.5-12.7 18.9-10.3-5.7c-5.6 5.5-12.1 9.6-19 12.6l1.1 11.7-22.3 4.3-3.4-11.3c-7.5-0.1-15.1-1.6-22.3-4.5l-7.4 9.1-18.9-12.8 5.7-10.3c-5.5-5.6-9.7-12-12.6-19l-11.7 1.2-4.4-22.4 11.4-3.3c0.1-7.5 1.5-15.1 4.5-22.3zm40.2 13.4c-9.6 14.1-5.8 33.2 8.3 42.8 14.1 9.5 33.2 5.8 42.7-8.3 9.5-14.1 5.8-33.3-8.3-42.8-14.1-9.5-33.2-5.8-42.7 8.3z"/>
		<path id="&lt;Compound Path&gt;" fill-rule="evenodd" class="s2" d="m762.1 550.8l8.8-13.2 7.2 4c3.9-3.8 8.4-6.7 13.2-8.8l-0.8-8.1 15.6-3.1 2.3 7.9c5.2 0.1 10.5 1.1 15.5 3.2l5.2-6.4 13.1 8.9-3.9 7.2c3.8 3.9 6.7 8.4 8.7 13.2l8.2-0.8 3 15.6-7.9 2.3c0 5.2-1 10.5-3.1 15.5l6.3 5.2-8.8 13.1-7.2-3.9c-3.9 3.8-8.4 6.7-13.2 8.7l0.8 8.2-15.6 3-2.3-7.9c-5.2 0-10.5-1.1-15.5-3.1l-5.2 6.3-13.1-8.9 3.9-7.1c-3.8-3.9-6.7-8.4-8.7-13.3l-8.2 0.8-3-15.5 7.8-2.3c0.1-5.3 1.1-10.5 3.2-15.5zm28 9.3c-6.7 9.8-4.1 23.1 5.7 29.7 9.8 6.7 23.2 4.1 29.8-5.7 6.6-9.8 4-23.2-5.8-29.8-9.8-6.6-23.1-4-29.7 5.8z"/>
		<g id="&lt;Group&gt;">
			<g id="&lt;Group&gt;">
				<g id="&lt;Group&gt;">
					<path id="&lt;Path&gt;" class="s2" d="m282.1 733.4l12.7-44.6c-0.7-0.6-1.6-1-2.6-1.1-2-0.4-4.1 0.2-6.1 0.7-2.8 0.6-5.7 1.1-8.5 0.8-2.8-0.2-5.6-1.2-7.7-3.2-2.4-2.1-4.6-5.9-5.1-9.1-0.9-4.8 0.7-9.3 3.4-13.3 2.7-4.1 7.4-6.9 12.3-6.5 4.9 0.3 9.3 3.7 12.9 6.7q2.5 2.2 5.3 3.9c0.6 0.4 1.2 0.7 1.9 1l12.9-45.5c1.7-6.1-1.8-12.4-7.9-14.2l-48.1-13.7q-0.3 0.3-0.4 0.8c-0.3 2-0.9 7.8-0.4 9.8 0.7 2.8 1.1 5.6 0.8 8.5-0.2 2.8-1.2 5.6-3.1 7.7-2.2 2.4-6 4.6-9.2 5.1-4.8 0.8-9.3-0.8-13.3-3.4-4.1-2.7-6.9-7.5-6.5-12.3 0.3-5.1 3.9-9.5 6.9-13.1q2.1-2.5 3.8-5.3c0.7-1.1 1.3-2.3 1.2-3.5l-42-12c-6.3-1.7-12.7 1.9-14.5 8.1l-12.6 44.3c-2.3-1.6-4.4-3.5-6.6-5.2-3-2.2-6.3-4.1-10-4.4-4.8-0.3-9.6 2.5-12.3 6.5-2.6 4.1-4.2 8.6-3.4 13.3 0.6 3.2 2.7 7 5.1 9.2 2.1 1.9 4.9 2.9 7.8 3.2 2.8 0.2 5.6-0.2 8.4-0.8 1.7-0.4 3.4-0.9 5.1-0.9l-12.8 44.8c-1.8 6.3 1.9 12.8 8.2 14.6l109.8 31.3c6.3 1.7 12.9-1.9 14.6-8.2z"/>
				</g>
			</g>
			<path id="&lt;Path&gt;" class="s1" d="m224 729.5c0 0 13.6-19.1 40.8-24.9 27.2-5.8 26.7-3.9 26.7-3.9l-3.8 13.3c0 0-35.9-12.6-53.8 18.4z"/>
		</g>
		<g id="&lt;Group&gt;">
			<g id="&lt;Group&gt;">
				<g id="&lt;Group&gt;">
					<path id="&lt;Path&gt;" class="s2" d="m705.4 292l24.8-53.9c-0.8-0.9-1.9-1.5-3.1-1.9-2.5-0.8-5.3-0.5-7.9-0.3-3.6 0.3-7.3 0.3-10.8-0.6-3.6-0.9-6.9-2.7-9.2-5.5-2.6-3.2-4.6-8.5-4.6-12.6-0.1-6.1 2.8-11.5 6.9-16.1 4.1-4.6 10.7-7.2 16.7-5.8 6.2 1.4 11.1 6.6 15 11.1q2.8 3.2 6 5.9c0.7 0.6 1.4 1.1 2.1 1.6l25.3-54.9c3.3-7.3 0.1-16-7.2-19.4l-58.1-26.7q-0.4 0.3-0.6 0.9c-0.8 2.5-2.6 9.6-2.4 12.3 0.3 3.6 0.2 7.3-0.6 10.8-0.9 3.6-2.7 6.9-5.6 9.2-3.2 2.6-8.4 4.5-12.5 4.6-6.2 0.1-11.5-2.8-16.1-6.9-4.6-4.2-7.2-10.7-5.8-16.8 1.4-6.3 6.7-11.2 11.3-15.2q3.1-2.7 5.8-5.9c1-1.2 2-2.6 2.2-4.2l-50.7-23.3c-7.5-3.4-16.4-0.2-19.8 7.3l-24.6 53.5c-2.6-2.5-4.9-5.3-7.4-7.9-3.3-3.3-7.1-6.4-11.7-7.4-6-1.4-12.6 1.2-16.7 5.8-4.2 4.6-7.1 9.9-7 16.1 0.1 4.1 2.1 9.3 4.7 12.5 2.2 2.9 5.6 4.7 9.1 5.6 3.6 0.8 7.3 0.9 10.9 0.6 2.1-0.2 4.4-0.4 6.5-0.1l-24.8 54c-3.5 7.6-0.2 16.6 7.4 20l132.5 61c7.6 3.5 16.5 0.1 20-7.4z"/>
				</g>
			</g>
			<path id="&lt;Path&gt;" class="s1" d="m632.9 275.7c0 0 20.8-21.5 56.3-23.5 35.4-2 34.4 0.3 34.4 0.3l-7.4 16c0 0-42.9-22.9-71.4 12.7z"/>
		</g>
	</g>
	<g id="Shadow">
		<g id="&lt;Group&gt;">
			<g id="&lt;Group&gt;">
				<path id="&lt;Path&gt;" class="s5" d="m917.8 902.1c0 18.4-187.1 33.3-417.8 33.3-230.7 0-417.7-14.9-417.7-33.3 0-18.4 187-33.3 417.7-33.3 230.7 0 417.8 14.9 417.8 33.3z"/>
			</g>
		</g>
	</g>
	<g id="Device">
		<g id="&lt;Group&gt;">
			<g id="&lt;Group&gt;">
				<g id="&lt;Group&gt;">
					<g id="freepik--device-1--inject-2 00000147898902804730157900000015828243211328455330 ">
						<path id="&lt;Path&gt;" class="s6" d="m602.2 893.5h-251.9c-28.3 0-51.2-22.9-52.8-50.9v-602.1c1.6-28.6 24.5-51.6 52.8-51.6h251.9c28.3 0 51.3 23 51.3 51.3v602c0 28.4-23 51.3-51.3 51.3z"/>
						<path id="&lt;Path&gt;" class="s7" d="m602.2 200.7h-65.4c-4.3 0-7.9 3.1-8.5 7.3l-0.3 2.1c-1.3 10.3-10.2 18.1-20.6 18.1h-62.2c-10.5 0-19.3-7.8-20.7-18.1l-0.2-2.1c-0.6-4.2-4.2-7.4-8.5-7.4h-65.5c-21.8-0.1-39.5 17.5-39.6 39.4q0 0.1 0 0.2v602c0 21.9 17.7 39.5 39.5 39.5h251.9c21.8 0 39.5-17.6 39.5-39.5v-602c0-21.8-17.6-39.4-39.4-39.5z"/>
						<path id="&lt;Path&gt;" class="s8" d="m602.2 200.7h-65.4c-4.3 0-7.9 3.1-8.5 7.3l-0.3 2.1c-1.3 10.3-10.2 18.1-20.6 18.1h-62.2c-10.5 0-19.3-7.8-20.7-18.1l-0.2-2.1c-0.6-4.2-4.2-7.4-8.5-7.4h-65.5c-21.8-0.1-39.5 17.5-39.6 39.4q0 0.1 0 0.2v602c0 21.9 17.7 39.5 39.5 39.5h251.9c21.8 0 39.5-17.6 39.5-39.5v-602c0-21.8-17.6-39.4-39.4-39.5z"/>
						<g id="&lt;Group&gt;" style="opacity: .7">
							<path id="&lt;Path&gt;" class="s9" d="m461 207.4c0.1 2.7-2.2 5-4.9 5-2.8 0-5.1-2.2-5.1-5 0-2.8 2.2-5 5-5q0 0 0.1 0c2.7 0 4.9 2.2 4.9 5z"/>
							<path id="&lt;Path&gt;" class="s9" d="m496.5 202.4h-17.1c-2.8 0-5 2.2-5 5 0 2.7 2.2 4.9 5 4.9h17.1c2.8 0 5-2.2 5-4.9 0-2.8-2.2-5-5-5z"/>
						</g>
						<path id="&lt;Path&gt;" class="s7" d="m338.2 222.9h5.3v5.3h-5.3z"/>
						<path id="&lt;Path&gt;" class="s7" d="m348.8 222.9v5.3h5.3v-5.3-5.3h-5.3z"/>
						<path id="&lt;Path&gt;" class="s7" d="m359.4 212.4v5.2 5.3 5.3h5.3v-5.3-5.3-5.2z"/>
						<path id="&lt;Compound Path&gt;" fill-rule="evenodd" class="s7" d="m610.6 212.7v15.5h-23.4v-3.8h-2.6v-7.8h2.6v-3.9zm-13.2 3.9h-7.7v7.8h7.9z"/>
					</g>
					<path id="&lt;Path&gt;" class="s10" d="m310.7 728.8c0-6.1 21.8-85 69.6-167.9 47.9-83 107.1-26.3 164.6-117.3 57.4-91.1 63.9-243 63.9-243h-66.9c0 0-12.7 170.1-73.6 192.4-61 22.2-157.6 157.8-157.6 157.8z"/>
					<path id="&lt;Path&gt;" class="s10" d="m350.6 882.8h39.5c0 0 219-312.4 251.5-368.6v-60.6c-29.8 70.2-291 429.2-291 429.2z"/>
				</g>
			</g>
			<g id="&lt;Group&gt;" style="opacity: .4">
				<g id="&lt;Group&gt;">
					<path id="&lt;Path&gt;" class="s7" d="m473.5 278.7c-22 9.8-43.9 19.9-65.6 30.4-32.2 15.4-74.3 35.2-78.3 75.5-4.7 47 52.7 60.7 87.6 67.6 26.2 5.1 52.3 10.1 78.4 15.2 10.4 2 21 3.9 31.3 6.5 5.1 1.3 10.5 2.7 15.3 4.8 2.8 1.2 6.9 5.4 9.4 5.8 1.7 0.2 0.5 1 1.1-1.9-0.4 2.2-1.3 3.1-3.5 5.5-6.5 7.1-15.8 11.9-24.4 15.7-20.6 9.1-43.2 14.2-65 19.1-36.5 8.1-92.5 16.9-105.7 59-14.1 45.2 40.2 72.7 75 82.4 23.6 6.6 47.9 9.8 71.6 15.6 18.4 4.4 39.4 10.2 52.8 24.5 2.5 2.7 3.6 4.2 4.4 6.8 1.8 5 0.3 2 0.3 1.4 0-2.1-0.3 2-0.7 2.7-4.1 8.3-14.2 13.6-22.1 17.7-22.3 11.6-47.3 17.1-70.1 27.9-42.5 20.2-70.7 65.5-48.9 111.2 4.7 9.7 18.6 12.3 27.4 7.2 10-5.9 11.8-17.6 7.2-27.4-14.7-30.7 24.6-53.4 50.2-62.8 35.1-13.1 95.6-28.4 97-75.4 1.2-44-54-64.7-88.6-72.8-23.2-5.5-46.9-8.7-69.8-15.1-15.6-4.4-35.3-11-45.2-24.6-1.8-2.4-2.4-3.6-2.7-5.9 0.1 1 0.9-2.7 0.6-2.1 2.7-5.6 9.6-10.1 15.8-13.6 18-9.9 38.8-13 58.6-17.4 21.6-4.8 43.2-10 63.9-17.9 20-7.7 40.5-18 53.3-35.9 12.1-17 10.2-38.8-5.1-53.1-15.5-14.5-37.6-19.5-57.8-23.5-24.5-4.9-49.1-9.6-73.7-14.4-20.8-4-43.6-6.5-63-15.2-5.6-2.5-13.3-7.2-15-11.6-0.9-2.7-0.5-2.5 0.4-5.2 1-2.9 2.9-5.9 5.2-8.8 11.3-14 29.2-21.4 45-29.2 24.3-11.8 48.9-23.1 73.6-34.2 9.8-4.4 12.2-18.7 7.1-27.4-5.9-10.1-17.4-11.6-27.3-7.1z"/>
				</g>
			</g>
		</g>
	</g>
	<g id="Light Bulb">
		<g id="&lt;Group&gt;">
			<g id="&lt;Group&gt;">
				<path id="&lt;Path&gt;" class="s6" d="m457.7 688.3c0 0 3.3 13 5.1 15.5 1.9 2.5 40.5 1.9 42.1 0 1.6-1.9 4.7-15.5 4.7-15.5z"/>
				<path id="&lt;Path&gt;" class="s10" d="m457.7 688.3c0 0 3.3 13 5.1 15.5 1.9 2.5 40.5 1.9 42.1 0 1.6-1.9 4.7-15.5 4.7-15.5z"/>
				<g id="&lt;Group&gt;">
					<g id="&lt;Group&gt;">
						<g id="&lt;Group&gt;">
							<path id="&lt;Path&gt;" class="s7" d="m484.3 568.1c-28.1-0.3-51.1 22.2-51.5 50.3-0.2 15.2 6.5 29.7 18.2 39.5 2.1 1.8 5.4 4 5.3 8.4 0 0.1 0.3 11.1 0.3 11.1h53.5c0 0 0.2-11.4 0.2-11.5 0-3.9 3-5.6 5.3-7.4 11.8-9.5 18.7-23.8 18.9-38.9 0.4-28.1-22.1-51.1-50.2-51.5z"/>
							<path id="&lt;Path&gt;" class="s10" d="m509.6 590c0 9.9-11.6 18-26 18-14.4 0-26-8.1-26-18 0-9.9 11.6-17.9 26-17.9 14.4 0 26 8 26 17.9z"/>
						</g>
						<path id="&lt;Path&gt;" class="s11" d="m444.9 638.3c-4.4-7.6-6.2-16.7-4.9-25.4 1.3-8.7 5.6-16.9 12.1-22.9"/>
						<path id="&lt;Path&gt;" class="s12" d="m472.7 666.3c3.9-13.3 4.6-27.8 1.9-41.4-0.4-2.3-1.4-4.9-3.4-5-1.7 0-2.9 2.2-3.3 4.1-1.3 7 2.3 14.1 6.9 19 2.5 2.6 5.6 4.9 9 5 3.4 0.2 6.6-1.8 9.1-4.5 4.7-5.2 7.1-13.2 5.4-20.4-0.8-3-2.9-6.3-5.6-5.7-1.7 0.3-2.9 2.1-3.3 3.9-0.4 1.8-0.2 3.8 0 5.6 1.8 13.6 5.1 26.8 9.8 39.4"/>
					</g>
				</g>
				<path id="&lt;Path&gt;" class="s6" d="m513 680.1h-59.1c-1.8 0-3.2-1.5-3.2-3.2v-0.1c0-1.8 1.4-3.2 3.2-3.2h59.1c1.8 0 3.2 1.4 3.2 3.2v0.1c0 1.7-1.4 3.2-3.2 3.2z"/>
				<path id="&lt;Path&gt;" class="s13" d="m513 680.1h-59.1c-1.8 0-3.2-1.5-3.2-3.2v-0.1c0-1.8 1.4-3.2 3.2-3.2h59.1c1.8 0 3.2 1.4 3.2 3.2v0.1c0 1.7-1.4 3.2-3.2 3.2z"/>
				<path id="&lt;Path&gt;" class="s6" d="m512 686.3h-57.1c-1.7 0-3.1-1.4-3.1-3.1 0-1.7 1.4-3.1 3.1-3.1h57.1c1.7 0 3.1 1.4 3.1 3.1 0 1.7-1.4 3.1-3.1 3.1z"/>
				<path id="&lt;Path&gt;" class="s13" d="m512 686.3h-57.1c-1.7 0-3.1-1.4-3.1-3.1 0-1.7 1.4-3.1 3.1-3.1h57.1c1.7 0 3.1 1.4 3.1 3.1 0 1.7-1.4 3.1-3.1 3.1z"/>
				<path id="&lt;Path&gt;" class="s6" d="m509.5 692.4h-51.4c-1.7 0-3.1-1.4-3.1-3.2 0-1.7 1.4-3.1 3.1-3.1h51.4c1.8 0 3.2 1.4 3.2 3.1 0 1.8-1.4 3.2-3.2 3.2z"/>
				<path id="&lt;Path&gt;" class="s13" d="m509.5 692.4h-51.4c-1.7 0-3.1-1.4-3.1-3.2 0-1.7 1.4-3.1 3.1-3.1h51.4c1.8 0 3.2 1.4 3.2 3.1 0 1.8-1.4 3.2-3.2 3.2z"/>
			</g>
		</g>
	</g>
	<g id="Coin">
		<g id="&lt;Group&gt;">
			<g id="freepik--Bitcoin--inject-488 00000147900322469383539690000018386563127939295920 ">
				<path id="&lt;Path&gt;" class="s7" d="m243.9 759.8c16.5 33.1 54.9 47.4 85.9 31.9l11.1-5.4-59.5-119.7-11 5.5c-31 15.4-42.9 54.7-26.5 87.7z"/>
				<path id="&lt;Path&gt;" class="s14" d="m243.9 759.8c16.5 33.1 54.9 47.4 85.9 31.9l11.1-5.4-59.5-119.7-11 5.5c-31 15.4-42.9 54.7-26.5 87.7z"/>
				<path id="&lt;Path&gt;" class="s7" d="m374.5 747.7c-11.8 35-49.7 53.8-84.6 42.1-35-11.8-53.8-49.7-42.1-84.7 11.8-34.9 49.7-53.8 84.6-42 35 11.8 53.8 49.6 42.1 84.6z"/>
				<path id="&lt;Path&gt;" class="s7" d="m263.3 750.2c13.1 26.5 45.2 37.3 71.7 24.1 26.4-13.1 37.2-45.2 24.1-71.7-13.2-26.4-45.3-37.2-71.7-24.1-26.5 13.2-37.3 45.3-24.1 71.7z"/>
				<path id="&lt;Path&gt;" class="s13" d="m263.3 750.2c13.1 26.5 45.2 37.3 71.7 24.1 26.4-13.1 37.2-45.2 24.1-71.7-13.2-26.4-45.3-37.2-71.7-24.1-26.5 13.2-37.3 45.3-24.1 71.7z"/>
			</g>
			<g id="&lt;Group&gt;">
				<path id="&lt;Compound Path&gt;" fill-rule="evenodd" class="s7" d="m328 741.7q-2.4 4.7-7.4 7.4l0.5 1.6q0.4 1.3-0.2 2.6-0.7 1.3-1.9 1.7-1.3 0.4-2.5-0.3-1.2-0.7-1.6-2l-0.5-1.5q-4.9 0.9-9.1-0.4-4.3-1.3-6.7-4-1.2-1.4-1.5-2.4-0.4-1.3 0.2-2.6 0.7-1.3 2.1-1.8 1.2-0.3 2.3 0.1 1 0.4 1.8 1.3 1.4 2 3.9 2.9 2.5 0.8 5.2 0.5l-4.2-14.5q-6.2-0.1-10.3-1.9-4.1-1.8-5.5-6.5-1.5-4.7 0.7-8.9 2.3-4.2 7.7-6.7l-0.4-1.5q-0.4-1.2 0.2-2.5 0.6-1.3 1.8-1.6 1.3-0.4 2.5 0.2 1.3 0.7 1.7 2l0.4 1.3q5.6-1.1 9.5 0.5 3.9 1.6 5.1 5.5 0.4 1.5-0.2 2.8-0.6 1.2-2 1.7-1.2 0.3-2.3-0.2-1.1-0.5-1.6-1.7-0.6-1.3-2.4-2-1.8-0.6-4.3-0.4l3.7 12.9q13.4 0.2 16.2 9 1.5 4.7-0.9 9.4zm-26.9-19.6q1.8 0.9 5.1 1.2l-3.3-10.9q-2.7 1.3-3.7 3.2-1 1.8-0.4 3.8 0.6 1.8 2.3 2.7zm21.1 16.9q1.1-2.3 0.4-4.4-0.5-1.8-2.3-2.9-1.8-1.1-5.5-1.3l3.8 12.4q2.5-1.5 3.6-3.8z"/>
			</g>
			<path id="&lt;Path&gt;" class="s7" d="m260.7 706.1c11.3-27.9 43-41.3 70.8-30.1 27.9 11.3 41.4 43 30.1 70.9 7.2-26.6-6.6-54.3-32.1-64.7-27.9-11.2-59.6 2.2-70.9 30.1q0.9-3.2 2.1-6.2z"/>
			<path id="&lt;Path&gt;" class="s14" d="m260.7 706.1c11.3-27.9 43-41.3 70.8-30.1 27.9 11.3 41.4 43 30.1 70.9 7.2-26.6-6.6-54.3-32.1-64.7-27.9-11.2-59.6 2.2-70.9 30.1q0.9-3.2 2.1-6.2z"/>
		</g>
	</g>
	<g id="Stars 2">
		<path id="&lt;Path&gt;" class="s7" d="m476.4 401.7l6.8 13.6c0.7 1.6 2.2 2.7 4 2.9l15 2.2c4.4 0.6 6.1 6 2.9 9.1l-10.8 10.6c-1.3 1.2-1.9 2.9-1.6 4.7l2.6 14.9c0.7 4.4-3.8 7.7-7.7 5.6l-13.4-7c-1.6-0.8-3.4-0.8-5 0l-13.4 7c-3.9 2.1-8.5-1.2-7.7-5.6l2.5-14.9c0.3-1.8-0.2-3.5-1.5-4.7l-10.9-10.6c-3.1-3.1-1.4-8.5 3-9.1l15-2.2c1.7-0.2 3.2-1.3 4-2.9l6.7-13.6c2-3.9 7.6-3.9 9.5 0z"/>
		<path id="&lt;Path&gt;" class="s7" d="m437.8 833.4l7 14.2c0.8 1.7 2.4 2.8 4.2 3.1l15.7 2.3c4.6 0.6 6.4 6.2 3.1 9.4l-11.4 11.1c-1.3 1.3-1.9 3.1-1.6 5l2.7 15.6c0.8 4.6-4 8-8 5.9l-14.1-7.4c-1.6-0.9-3.5-0.9-5.2 0l-14 7.4c-4.1 2.1-8.9-1.3-8.1-5.9l2.7-15.6c0.3-1.9-0.3-3.7-1.6-5l-11.4-11.1c-3.3-3.2-1.5-8.8 3.1-9.4l15.7-2.3c1.8-0.3 3.4-1.4 4.2-3.1l7-14.2c2.1-4.1 8-4.1 10 0z"/>
	</g>
	<g id="Flags">
		<g id="&lt;Group&gt;">
			<path id="&lt;Path&gt;" class="s7" d="m567 434.3c0 0 41.6 15.8 39.4 18.6-2.2 2.8-39.6 19.1-39.6 19.1z"/>
			<g id="&lt;Group&gt;">
				<g id="&lt;Group&gt;">
					<path id="&lt;Path&gt;" class="s6" d="m549.9 502.7q16.9 0 33.8 0c2.9 0 2.9-4.5 0-4.5q-16.9 0-33.8 0c-2.9 0-2.9 4.5 0 4.5z"/>
				</g>
			</g>
			<g id="&lt;Group&gt;">
				<g id="&lt;Group&gt;">
					<path id="&lt;Path&gt;" class="s6" d="m564.8 432.2q0 34.1 0 68.3c0 2.9 4.5 2.9 4.5 0q0-34.2 0-68.3c0-2.9-4.5-2.9-4.5 0z"/>
				</g>
			</g>
		</g>
		<g id="&lt;Group&gt;">
			<path id="&lt;Path&gt;" class="s7" d="m368.6 530c0 0 41.6 15.7 39.4 18.5-2.2 2.8-39.6 19.1-39.6 19.1z"/>
			<g id="&lt;Group&gt;">
				<g id="&lt;Group&gt;">
					<path id="&lt;Path&gt;" class="s6" d="m351.5 598.4q16.9 0 33.7 0c2.9 0 2.9-4.5 0-4.5q-16.8 0-33.7 0c-2.9 0-2.9 4.5 0 4.5z"/>
				</g>
			</g>
			<g id="&lt;Group&gt;">
				<g id="&lt;Group&gt;">
					<path id="&lt;Path&gt;" class="s6" d="m366.4 527.8q0 34.2 0 68.3c0 2.9 4.5 2.9 4.5 0q0-34.1 0-68.3c0-2.9-4.5-2.9-4.5 0z"/>
				</g>
			</g>
		</g>
		<g id="&lt;Group&gt;">
			<path id="&lt;Path&gt;" class="s7" d="m580.8 668.5c0 0 41.6 15.8 39.3 18.6-2.2 2.7-39.6 19.1-39.6 19.1z"/>
			<g id="&lt;Group&gt;">
				<g id="&lt;Group&gt;">
					<path id="&lt;Path&gt;" class="s6" d="m563.6 736.9q16.9 0 33.8 0c2.9 0 2.9-4.5 0-4.5q-16.9 0-33.8 0c-2.9 0-2.9 4.5 0 4.5z"/>
				</g>
			</g>
			<g id="&lt;Group&gt;">
				<g id="&lt;Group&gt;">
					<path id="&lt;Path&gt;" class="s6" d="m578.5 666.4q0 34.1 0 68.3c0 2.8 4.5 2.9 4.5 0q0-34.2 0-68.3c0-2.9-4.5-2.9-4.5 0z"/>
				</g>
			</g>
		</g>
	</g>
	<g id="Hand">
		<g id="&lt;Group&gt;">
			<path id="&lt;Path&gt;" class="s7" d="m216 239.8c0 0-60.5-28.8-63.1 11.1 0 0 0.7 11.6-2 27.2-2.7 15.6-3.9 40.5 25.1 49.3 29 8.8 68.9 14.5 68.9 14.5l26.9-79.6c0 0-23.7-12.7-35.3-40.1-10.1-23.7-10.4-32.2-13.3-31.1-3 1.1-10.6 6.8-12.3 21.1-1.8 14.4 5.1 27.6 5.1 27.6z"/>
			<path id="&lt;Path&gt;" class="s7" d="m300.9 372.8l-60.2-20.4 33.9-100 60.2 20.4z"/>
			<path id="&lt;Path&gt;" class="s15" d="m216 239.8c0 0-60.5-28.8-63.1 11.1 0 0 0.7 11.6-2 27.2-2.7 15.6-3.9 40.5 25.1 49.3 29 8.8 68.9 14.5 68.9 14.5l26.9-79.6c0 0-23.7-12.7-35.3-40.1-10.1-23.7-10.4-32.2-13.3-31.1-3 1.1-10.6 6.8-12.3 21.1-1.8 14.4 5.1 27.6 5.1 27.6z"/>
			<path id="&lt;Path&gt;" class="s16" d="m288.6 339.3c-1.6 4.7-6.6 7.2-11.3 5.6-4.6-1.6-7.1-6.6-5.5-11.3 1.5-4.6 6.6-7.1 11.2-5.5 4.7 1.6 7.2 6.6 5.6 11.2z"/>
		</g>
	</g>
	<g id="Stars 1">
		<g id="&lt;Group&gt;">
			<path id="&lt;Path&gt;" class="s7" d="m154.9 493.3c0 21.4 16.6 38.8 37.2 38.8h132.4c20.6 0 37.2-17.4 37.2-38.8 0-21.5-16.6-38.9-37.2-38.9h-132.4c-20.6 0-37.2 17.4-37.2 38.9z"/>
			<path id="&lt;Path&gt;" class="s14" d="m154.9 493.3c0 21.4 16.6 38.8 37.2 38.8h132.4c20.6 0 37.2-17.4 37.2-38.8 0-21.5-16.6-38.9-37.2-38.9h-132.4c-20.6 0-37.2 17.4-37.2 38.9z"/>
			<g id="&lt;Group&gt;">
				<path id="&lt;Path&gt;" class="s7" d="m203.1 469.3l4.9 9.8c0.5 1.1 1.6 1.9 2.8 2l10.8 1.6c3.1 0.5 4.3 4.3 2.1 6.5l-7.8 7.6c-0.9 0.8-1.3 2.1-1.1 3.3l1.8 10.7c0.6 3.1-2.7 5.5-5.5 4l-9.6-5c-1.1-0.6-2.4-0.6-3.5 0l-9.6 5c-2.8 1.5-6.1-0.9-5.6-4l1.9-10.7c0.2-1.2-0.2-2.5-1.1-3.3l-7.8-7.6c-2.2-2.2-1-6 2.1-6.5l10.8-1.6c1.2-0.1 2.3-0.9 2.8-2l4.8-9.8c1.4-2.8 5.5-2.8 6.8 0z"/>
				<path id="&lt;Path&gt;" class="s7" d="m260 469.3l4.8 9.8c0.5 1.1 1.6 1.9 2.8 2l10.8 1.6c3.1 0.5 4.3 4.3 2.1 6.5l-7.8 7.6c-0.9 0.8-1.3 2.1-1.1 3.3l1.9 10.7c0.5 3.1-2.8 5.5-5.6 4l-9.6-5c-1.1-0.6-2.4-0.6-3.5 0l-9.6 5c-2.8 1.5-6.1-0.9-5.5-4l1.8-10.7c0.2-1.2-0.2-2.5-1.1-3.3l-7.8-7.6c-2.2-2.2-1-6 2.1-6.5l10.8-1.6c1.2-0.1 2.3-0.9 2.8-2l4.9-9.8c1.3-2.8 5.4-2.8 6.8 0z"/>
				<path id="&lt;Path&gt;" class="s10" d="m215.9 481.9l-5.1-0.8c-1-0.1-1.9-0.7-2.5-1.5-0.8 1.4-1.9 2.7-3.2 4.1-6.6 6.5-15 9.8-20.4 15.9q0 0.3 0 0.5l-1.9 10.7c-0.4 2.5 1.5 4.4 3.7 4.5 0-3.5 1.3-7.5 5.8-11.7 10.7-10 19.1-7.1 23.6-21.7z"/>
				<path id="&lt;Path&gt;" class="s10" d="m182.5 495.7c4.1-2.8 12.1-8.1 15.8-10.4 3.2-2.1 6.1-6.9 7.8-10l-1.4-2.9c-1.6 2.7-4.6 7.6-6.4 10.1-2 2.6-12.3 9-17.2 11.9z"/>
				<path id="&lt;Path&gt;" class="s10" d="m272.6 481.9l-5-0.8c-1-0.1-1.9-0.7-2.5-1.5-0.8 1.4-1.9 2.7-3.2 4.1-6.6 6.5-15 9.8-20.4 15.9q0 0.3 0 0.5l-1.9 10.7c-0.4 2.5 1.5 4.4 3.7 4.5 0-3.5 1.3-7.5 5.7-11.7 10.8-10 19.2-7.1 23.6-21.7z"/>
				<path id="&lt;Path&gt;" class="s10" d="m239.3 495.7c4.1-2.8 12.1-8.1 15.7-10.4 3.3-2.1 6.2-6.9 7.9-10l-1.5-2.9c-1.5 2.7-4.6 7.6-6.4 10.1-1.9 2.6-12.2 9-17.1 11.9z"/>
			</g>
			<g id="&lt;Group&gt;" style="opacity: .3">
				<path id="&lt;Path&gt;" class="s9" d="m318.2 469.3l4.8 9.8c0.6 1.1 1.7 1.9 2.9 2l10.7 1.6c3.2 0.5 4.4 4.3 2.1 6.5l-7.7 7.6c-0.9 0.8-1.3 2.1-1.1 3.3l1.8 10.7c0.5 3.1-2.7 5.5-5.5 4l-9.6-5c-1.1-0.6-2.4-0.6-3.6 0l-9.6 5c-2.8 1.5-6-0.9-5.5-4l1.9-10.7c0.2-1.2-0.2-2.5-1.1-3.3l-7.8-7.6c-2.3-2.2-1-6 2.1-6.5l10.7-1.6c1.3-0.1 2.3-0.9 2.9-2l4.8-9.8c1.4-2.8 5.4-2.8 6.8 0z"/>
			</g>
		</g>
	</g>
	<g id="Medal">
		<g id="&lt;Group&gt;">
			<path id="&lt;Path&gt;" class="s7" d="m438 255.6l-33.9 71.5 41.5-21.2 7.6 41.9 34.7-71.1z"/>
			<path id="&lt;Path&gt;" class="s7" d="m438 255.6l-33.9 71.5 41.5-21.2 7.6 41.9 34.7-71.1z"/>
			<path id="&lt;Path&gt;" class="s17" d="m438 255.6l-33.9 71.5 41.5-21.2 7.6 41.9 34.7-71.1z"/>
			<path id="&lt;Path&gt;" class="s7" d="m537.9 248.4l33.8 71.5-41.4-21.2-7.7 41.9-34.7-71.1z"/>
			<path id="&lt;Path&gt;" class="s7" d="m537.9 248.4l33.8 71.5-41.4-21.2-7.7 41.9-34.7-71.1z"/>
			<path id="&lt;Path&gt;" class="s17" d="m537.9 248.4l33.8 71.5-41.4-21.2-7.7 41.9-34.7-71.1z"/>
			<path id="&lt;Path&gt;" class="s7" d="m552.2 212.1c0 37.3-30.2 67.6-67.6 67.6-37.3 0-67.6-30.3-67.6-67.6 0-37.3 30.3-67.6 67.6-67.6 37.4 0 67.6 30.3 67.6 67.6z"/>
			<path id="&lt;Path&gt;" class="s7" d="m538.8 212.1c0 29.9-24.3 54.1-54.2 54.1-29.8 0-54.1-24.2-54.1-54.1 0-29.9 24.3-54.1 54.1-54.1 29.9 0 54.2 24.2 54.2 54.1z"/>
			<path id="&lt;Path&gt;" class="s10" d="m524.4 175.4c0 0-44.7 90.9-43.7 90.8 1.1-0.1 18.9 2.2 30.9-7.2l27.2-55.6c0 0-6.8-21.2-14.4-28z"/>
			<path id="&lt;Path&gt;" class="s10" d="m507.7 163.1l-49.4 96.3c0 0-18.2-10.1-22.6-24.3l42.3-76.7c0 0 13.6-2.3 29.7 4.7z"/>
			<path id="&lt;Path&gt;" class="s12" d="m538.8 212.1c0 29.9-24.3 54.1-54.2 54.1-29.8 0-54.1-24.2-54.1-54.1 0-29.9 24.3-54.1 54.1-54.1 29.9 0 54.2 24.2 54.2 54.1z"/>
			<g id="&lt;Group&gt;">
				<path id="&lt;Compound Path&gt;" class="s16" d="m493.1 184.4v56.2h-15.8v-43.9h-10.5v-12.3z"/>
			</g>
		</g>
	</g>
	<g id="Character">
		<g id="&lt;Group&gt;">
			<g id="&lt;Group&gt;">
				<path id="&lt;Path&gt;" class="s18" d="m684.8 841.2l6.2 48.6h14.7l3.8-47.7z"/>
				<g id="&lt;Group&gt;">
					<path id="&lt;Path&gt;" class="s6" d="m684.9 879.5h6.5c1.5 0 2.9 0.7 3.8 1.9 3.8 5.2 6.6 3.3 10.8-1.6 2.6-0.3 3.3 2.7 3.5 3.5l4.9 17.9c0.5 1.5-0.4 3-1.9 3.5q-0.4 0.1-0.8 0.1c-8 0-11.8 0-21.7 0h-30.5c-8.3 0-10-8.4-6.6-9.1 15.4-3.4 26.3-8 31-12.4 0.9-0.8 0-1.4 1-3.8z"/>
					<path id="&lt;Compound Path&gt;" fill-rule="evenodd" class="s7" d="m671.4 884.5c-0.7-0.5-1.1-1.3-1.1-2.2-0.1-0.4 0.1-0.9 0.5-1.2 2.1-1.4 10.3 2.4 11.2 2.9q0.2 0 0.3 0.2c0 0.2-0.1 0.4-0.3 0.5q-3 0.7-6.1 0.8c-1.6 0.1-3.1-0.2-4.5-1zm0-2.7c-0.2 0.1-0.3 0.3-0.3 0.5 0.1 0.6 0.4 1.2 0.9 1.5 1.8 1.4 6.3 0.8 8.8 0.4-3.5-1.5-8.3-3.2-9.4-2.4z"/>
					<path id="&lt;Compound Path&gt;" fill-rule="evenodd" class="s7" d="m681.8 884.8c-2.5-1.1-7.7-5.1-7.4-7.3 0-0.4 0.4-1 1.5-1.1 4.5-0.5 6.4 7.6 6.4 7.9 0.1 0.1 0 0.3-0.1 0.4q-0.1 0-0.2 0zm-5.8-7.7c-0.8 0.1-0.8 0.4-0.8 0.5-0.2 1.3 3.5 4.7 6.2 6.1-0.6-1.9-2.2-6.6-5.1-6.6z"/>
				</g>
			</g>
			<g id="&lt;Group&gt;">
				<path id="&lt;Path&gt;" class="s18" d="m752.1 838.6l14.3 48.8 14.6-0.8-3.1-53z"/>
				<g id="&lt;Group&gt;">
					<path id="&lt;Path&gt;" class="s6" d="m759.1 880.3h6.6c1.5 0 2.9 0.7 3.8 1.9 3.8 5.2 6.6 3.2 10.8-1.6 2.6-0.3 3.3 2.7 3.5 3.5l4.9 17.9c0.4 1.5-0.4 3-1.9 3.5q-0.4 0.1-0.8 0.1c-8 0-11.8 0-21.8 0h-30.4c-8.3 0-10-8.4-6.6-9.2 15.4-3.4 26.3-7.9 31-12.4 0.9-0.7 0-1.3 0.9-3.7z"/>
					<path id="&lt;Compound Path&gt;" fill-rule="evenodd" class="s7" d="m745.7 885.2c-0.7-0.5-1.1-1.3-1.1-2.1-0.1-0.5 0.1-0.9 0.5-1.2 2.1-1.4 10.3 2.4 11.2 2.9q0.2 0 0.3 0.2c0 0.2-0.1 0.4-0.3 0.4q-3 0.8-6.1 0.8c-1.6 0.2-3.2-0.2-4.5-1zm-0.1-2.7c-0.1 0.2-0.2 0.3-0.2 0.5 0.1 0.7 0.4 1.2 0.8 1.6 1.9 1.4 6.4 0.8 8.8 0.4-3.4-1.5-8.2-3.2-9.4-2.5z"/>
					<path id="&lt;Compound Path&gt;" fill-rule="evenodd" class="s7" d="m756.1 885.5c-2.5-1-7.7-5.1-7.4-7.2 0-0.5 0.4-1 1.5-1.1 4.5-0.6 6.4 7.5 6.4 7.9 0.1 0.1 0 0.3-0.1 0.4q-0.1 0-0.2 0zm-5.8-7.7c-0.8 0-0.8 0.3-0.8 0.5-0.3 1.3 3.5 4.6 6.2 6.1-0.6-1.9-2.2-6.7-5.1-6.7z"/>
				</g>
			</g>
			<g id="&lt;Group&gt;">
				<path id="&lt;Path&gt;" class="s7" d="m676.6 477.5c0 0-17.7 35.6-0.7 101 17.1 65.5 76.8 294.5 76.8 294.5l36.1-4.4c0 0-3.1-82.4-30.1-148.4 0 0-15-128.8-12.6-132.7 4.4-18.4 9-37.9 1.3-65.8-2.9-12-7.1-23.8-12.3-35-5-10-3.6-13.8-3.6-13.8z"/>
				<path id="&lt;Path&gt;" class="s19" d="m676.6 477.5c0 0-17.7 35.6-0.7 101 17.1 65.5 76.8 294.5 76.8 294.5l36.1-4.4c0 0-3.1-82.4-30.1-148.4 0 0-15-128.8-12.6-132.7 4.4-18.4 9-37.9 1.3-65.8-2.9-12-7.1-23.8-12.3-35-5-10-3.6-13.8-3.6-13.8z"/>
				<path id="&lt;Path&gt;" class="s19" d="m720.3 566.9c0 0-13.4 25.9-19.5 30.2-5.2 3.6-3.1 46.6-3.5 58.8 0 0.9 0 4.6 0 4.6l5.5 21.1c-0.4-1.2-1-37.9 3.4-76.4 1.4-13 14.1-23.5 14.1-38.3z"/>
				<path id="&lt;Path&gt;" class="s7" d="m653.3 472c-0.6 4.4-1.8 8.7-3.6 12.8-5.9 15.2-12.5 63-11 87.2 2.7 50.1-1.8 64.5 13.7 157.6 5.9 35.1 19.1 81 30 144.8h34c0 0-1.5-80-17.3-150.3 0 0-5.5-99.1 2.7-125 5.8-18 22-35.4 17.9-73.4-4.2-38-14.3-51-14.3-51z"/>
				<path id="&lt;Path&gt;" class="s19" d="m653.3 472c-0.6 4.4-1.8 8.7-3.6 12.8-5.9 15.2-12.5 63-11 87.2-0.2 30 0.6 95.5 13.7 157.6 15.8 74.5 30 144.8 30 144.8h34c0 0-1.5-80-17.3-150.3 0 0-5.5-99.1 2.7-125 5.8-18 22-35.4 17.9-73.4-4.2-38-14.3-51-14.3-51z"/>
			</g>
			<path id="&lt;Path&gt;" class="s18" d="m766.4 390c0 0 29.3 60.3 17 65.3-12.2 4.9-53.5 7.7-53.5 7.7l-18 17.2-10.4-6.7 2.6-17.6 23.7-5 31.6-9.8c2.6-0.9 4-3.7 3.2-6.3q-0.1-0.2-0.2-0.4l-15.3-33.5z"/>
			<g id="&lt;Group&gt;">
				<path id="&lt;Path&gt;" class="s6" d="m688 288.2c0.2-1.5-0.5-2.9-1.5-3-1.1-0.1-2.1 1.1-2.2 2.7-0.2 1.6 0.5 3 1.6 3 1 0.1 2-1.1 2.1-2.7z"/>
				<path id="&lt;Path&gt;" class="s20" d="m688.6 290.5l-10.3 9.5c2.3 2.4 5.6 3.6 8.9 3.3z"/>
				<path id="&lt;Path&gt;" class="s6" d="m691.2 284.8c-0.3-0.1-0.5-0.3-0.7-0.5-1-2.2-3-3.7-5.4-4.2-0.5 0-0.9-0.5-0.8-1q0 0 0 0c0-0.5 0.5-0.9 1-0.9 3 0.5 5.5 2.5 6.9 5.2 0.2 0.4 0.1 1-0.3 1.2q-0.3 0.2-0.7 0.2z"/>
				<path id="&lt;Path&gt;" class="s18" d="m743.1 295.5c-4.5 19.8-6 28.3-17.8 36.9-17.2 7.9-41.1 3.1-42.6-17.7-1.4-18.7 6.2-47.9 27.2-52.7 14.9-3.5 29.8 5.8 33.3 20.7 0.9 4.2 0.9 8.6-0.1 12.8z"/>
				<path id="&lt;Path&gt;" class="s17" d="m704.5 327.2c0 0-12.9 5.1-20.3-5.6 3.5 9 12.3 13.6 22.1 14.3l2.9-2.8-2.6-4.5z"/>
				<path id="&lt;Path&gt;" class="s18" d="m734.3 353.4c0 0-12.6-3.6-8.2-27.2 0 0-10.9-7.5-19.8-1.9-8.9 5.6 2.8 24.5-8 29.7 0 0 7.4 7.1 36-0.6z"/>
				<path id="&lt;Path&gt;" class="s6" d="m701.1 298.1c2.4-3.4-4.5-9.1-2.8-12.9-0.3-10.1 1.7-9.2 1.4-20-0.4-10.7 11.6-6.2 11.6-6.2 0 0 25.6-7.7 33.9 18.9 12.2 13.1 11.5 33.7-1.7 46-6 5.6-14 8.7-22.2 8.7l-1.8-0.1c-7.4-1-13.3-6.7-14.6-14z"/>
				<path id="&lt;Path&gt;" class="s7" d="m739.4 285.3c-0.6-6.3 0.1-11.5 6.3-12.2 6.3-0.7 7.6 4.4 8.3 10.6 0.7 6.3 0.4 11.4-5.8 12.1-6.3 0.7-8.1-4.3-8.8-10.5z"/>
				<path id="&lt;Path&gt;" class="s18" d="m706.4 296c-3.6 2.1-6.1 5.7-7 9.7-1.2 5.3 3.7 7.8 8.7 6.1 4.5-1.5 10.4-6.2 9.4-11.5-0.7-3.9-4.4-6.4-8.3-5.6-1 0.2-2 0.6-2.8 1.3z"/>
				<path id="&lt;Path&gt;" class="s6" d="m701.3 256.8c2.1 2.1 4.5 5.4 3.1 8.2-0.9 1.6-2.7 2.5-3.7 4-1.1 1.7-1.5 3.7-1.2 5.8 0 7.3 0.7 14.6 2 21.8-6.5-7.7-13.4-15.8-15.3-25.6-0.7-3-0.6-6 0.2-8.9 0.9-2.9 3.1-5.2 5.9-6.3 2.8-0.9 9 1 9 1z"/>
				<g id="&lt;Group&gt;">
					<path id="&lt;Path&gt;" class="s6" d="m804.2 295.8c-2.8-2.9-6.6-4.5-9.5-7.3-4.2-4.1-5.8-10.2-9.4-14.8-4.7-6.2-13-9.4-20.7-7.9-7.6 1.4-13.9 4.4-16.1 11.9-1 2.5-0.5 8.6 1.1 11.9 4.2 1.8 6.1 3.4 6.7 6.9 0.8 4.4 0.2 7.5-0.4 11.9-0.6 4.5-1.1 9.2 0.3 13.5 1.5 4.3 5.2 8.1 9.7 8.3 4.5 0.3 9-4.4 7.5-8.6 0.8 3.4 3.1 6.7 6.3 8.2 3.3 1.5 7.5 1 10-1.6 2.4-2.6 2.7-7.2 0.1-9.7 5.8 1.9 12.7-0.7 16-5.8 3.2-5.1 2.5-12.4-1.6-16.9z"/>
				</g>
			</g>
			<path id="&lt;Path&gt;" class="s18" d="m643.7 384.1l-25.5 24.4c-1.9 1.7-4.8 1.7-6.6-0.2q-0.1-0.1-0.2-0.2l-32.1-37.9-13-20.4-2.9-2.2-19.3-10.8c-0.9-0.4-2-0.2-2.5 0.7-0.6 0.9-0.3 2.1 0.6 2.6l11.2 6.7-2 5.8c-2.5 5.5-0.6 12 4.5 15.3l15.7 10.2c0 0 21.4 48.8 35.7 57.3 11.3 6.8 53.2-37.2 53.2-37.2z"/>
			<g id="&lt;Group&gt;">
				<path id="&lt;Path&gt;" class="s7" d="m757.6 368.2c0.6-1.8-0.9-5.6 0.9-5 0.6 0.2 3.8 3.5 4.2 3.9 3.1 3.4 8.1 10.2 13.4 24l5.3 14.2-27.2 18.8-10.2-15.6z"/>
				<path id="&lt;Path&gt;" class="s17" d="m760.6 384.9l-3-3.9-5.9 4.5-7.7 23 10.2 15.6 5.2-3.6c-1.6-14.7 1.2-35.6 1.2-35.6z"/>
				<path id="&lt;Path&gt;" class="s7" d="m653.8 477.2c31 6 66.6 3.5 79.7 2.3 2.9-0.3-2.5-35.1 28.8-98.1 3.2-5.9 1.9-13.3-3.2-17.7-21.3-17.7-60.1-17-77.9-15.6-6.3 0.5-12 3.8-15.5 9.1-6.1 10.5-10.3 22-12.3 34.1-2 11.4-3.2 23-3.5 34.6-0.9 27.5 2.5 51 3.9 51.3z"/>
				<path id="&lt;Path&gt;" class="s17" d="m649.9 425.9c10-1.9 24.1-38.8 24.1-38.8l-20.6 4.2c-2 11.4-3.2 23-3.5 34.6z"/>
				<path id="&lt;Path&gt;" class="s7" d="m676.4 349.2c-7.8 2.3-24.8 10-51.5 35.2l24.8 33.1c8.2-8.7 18.7-18.4 24.3-30.4 5-10.7 7.6-22.4 7.5-34.2-0.1-2.2-1.9-3.9-4-3.9q-0.6 0-1.1 0.2z"/>
			</g>
		</g>
	</g>
</svg>