<?xml version="1.0" encoding="UTF-8" standalone="no"?>
<!-- Generator: Adobe Illustrator 27.5.0, SVG Export Plug-In . SVG Version: 6.00 Build 0)  -->

<svg
   version="1.1"
   x="0px"
   y="0px"
   viewBox="0 0 199 155"
   xml:space="preserve"
   id="svg247"
   sodipodi:docname="simulador-aula-vitual.svg"
   inkscape:version="1.3 (0e150ed6c4, 2023-07-21)"
   width="199"
   height="155"
   xmlns:inkscape="http://www.inkscape.org/namespaces/inkscape"
   xmlns:sodipodi="http://sodipodi.sourceforge.net/DTD/sodipodi-0.dtd"
   xmlns="http://www.w3.org/2000/svg"
   xmlns:svg="http://www.w3.org/2000/svg"><defs
   id="defs247" /><sodipodi:namedview
   id="namedview247"
   pagecolor="#ffffff"
   bordercolor="#000000"
   borderopacity="0.25"
   inkscape:showpageshadow="2"
   inkscape:pageopacity="0.0"
   inkscape:pagecheckerboard="true"
   inkscape:deskcolor="#d1d1d1"
   inkscape:zoom="3.284"
   inkscape:cx="79.933009"
   inkscape:cy="69.275274"
   inkscape:window-width="2560"
   inkscape:window-height="1017"
   inkscape:window-x="1912"
   inkscape:window-y="-8"
   inkscape:window-maximized="1"
   inkscape:current-layer="svg247" />&#10;&#10;<g
   id="Background_Simple"
   style="display:none">&#10;	<g
   style="display:inline"
   id="g41">&#10;		<path
   style="fill:#407bff"
   d="m 241.936,74.075 c 7.832,-1.91 16.622,-1.622 26.341,1.643 15.617,5.247 27.043,19.004 34.173,33.856 13.796,28.739 17.651,60.899 27.547,90.911 2.714,8.23 5.923,16.453 11.228,23.305 22.071,28.507 82.754,12.137 82.176,62.137 -0.163,14.13 -7.771,27.655 -18.876,36.394 -32.69,25.724 -78.654,11.019 -113.588,-0.656 -32.732,-10.939 -61.068,-12.275 -93.872,0.819 -27.802,11.097 -56.895,29.991 -88.174,24.881 -31.807,-5.197 -46.032,-36.584 -40.707,-66.182 5.677,-31.551 30.416,-54.82 58.857,-67.405 16.966,-7.508 39.284,-12.096 52.582,-25.755 6.83,-7.015 9.803,-16.855 11.975,-26.402 3.458,-15.205 5.5,-30.795 10.651,-45.513 6.453,-18.439 19.682,-37.153 39.687,-42.033 z"
   id="path40" />&#10;		<path
   style="opacity:0.9;fill:#ffffff"
   d="m 241.936,74.075 c 7.832,-1.91 16.622,-1.622 26.341,1.643 15.617,5.247 27.043,19.004 34.173,33.856 13.796,28.739 17.651,60.899 27.547,90.911 2.714,8.23 5.923,16.453 11.228,23.305 22.071,28.507 82.754,12.137 82.176,62.137 -0.163,14.13 -7.771,27.655 -18.876,36.394 -32.69,25.724 -78.654,11.019 -113.588,-0.656 -32.732,-10.939 -61.068,-12.275 -93.872,0.819 -27.802,11.097 -56.895,29.991 -88.174,24.881 -31.807,-5.197 -46.032,-36.584 -40.707,-66.182 5.677,-31.551 30.416,-54.82 58.857,-67.405 16.966,-7.508 39.284,-12.096 52.582,-25.755 6.83,-7.015 9.803,-16.855 11.975,-26.402 3.458,-15.205 5.5,-30.795 10.651,-45.513 6.453,-18.439 19.682,-37.153 39.687,-42.033 z"
   id="path41" />&#10;	</g>&#10;</g>&#10;&#10;&#10;&#10;&#10;&#10;<g
   id="Shadow_1_"
   transform="matrix(0.4879445,0,0,0.4879445,-22.02921,-55.389668)">&#10;	<ellipse
   id="_x3C_Path_x3E__136_"
   style="fill:#f5f5f5"
   cx="250"
   cy="416.23801"
   rx="193.88901"
   ry="11.323" />&#10;</g><g
   id="Character"
   transform="matrix(0.4879445,0,0,0.4879445,-22.02921,-55.389668)">&#10;	<g
   id="g94">&#10;		<polygon
   style="fill:#ffc3bd"
   points="316.339,382.493 323.92,384.583 321.099,402.694 313.518,400.605 "
   id="polygon60" />&#10;		<polygon
   style="fill:#ffc3bd"
   points="367.224,389.524 375.088,389.524 377.045,407.734 369.182,407.734 "
   id="polygon61" />&#10;		<path
   style="fill:#263238"
   d="m 368.535,406.824 h 9.587 c 0.322,0 0.6,0.223 0.669,0.537 l 1.553,6.99 c 0.161,0.725 -0.409,1.411 -1.151,1.398 -3.084,-0.053 -5.335,-0.234 -9.22,-0.234 -2.39,0 -9.598,0.248 -12.898,0.248 -3.228,0 -3.732,-3.264 -2.381,-3.559 6.059,-1.325 10.625,-3.153 12.564,-4.897 0.351,-0.314 0.807,-0.483 1.277,-0.483 z"
   id="path61" />&#10;		<path
   style="fill:#263238"
   d="m 313.813,399.742 8.279,2.282 c 0.31,0.085 0.519,0.375 0.503,0.696 l -0.36,7.151 c -0.037,0.741 -0.75,1.257 -1.462,1.048 -2.972,-0.874 -7.24,-2.238 -10.993,-3.273 -4.389,-1.21 -8.245,-2.015 -13.392,-3.433 -3.112,-0.858 -3.109,-4.242 -1.728,-4.168 6.288,0.337 11.169,1.533 17.164,-0.215 0.651,-0.191 1.335,-0.269 1.989,-0.088 z"
   id="path62" />&#10;		<g
   id="g63">&#10;			<polygon
   style="opacity:0.2"
   points="322.468,393.924 323.924,384.589 316.34,382.499 314.884,391.834 "
   id="polygon62" />&#10;			<polygon
   style="opacity:0.2"
   points="368.236,398.916 376.103,398.916 375.09,389.529 367.223,389.529 "
   id="polygon63" />&#10;		</g>&#10;		<g
   id="g65">&#10;			<path
   style="fill:#ffc3bd"
   d="m 283.057,158.559 -0.682,-7.539 -7.354,3.589 c 0,0 1.938,6.686 5.595,6.055 z"
   id="path63" />&#10;			<polygon
   style="fill:#ffc3bd"
   points="275.021,154.609 282.375,151.02 280.719,147.47 272.401,149.192 "
   id="polygon64" />&#10;			<path
   style="fill:#263238"
   d="m 331.489,159.701 c -4.01,1.432 -8.87,4.199 -11.321,5.663 -0.766,0.38 -1.536,0.757 -2.315,1.112 -1.904,0.869 -3.838,1.656 -5.777,2.337 -3.858,1.35 -7.839,2.31 -11.322,2.311 -0.429,-0.006 -0.855,-0.014 -1.259,-0.052 l -0.289,-0.02 c -0.043,-0.008 -0.085,-0.014 -0.129,-0.016 -0.079,0.009 -0.196,-0.031 -0.311,-0.051 -0.472,-0.092 -1.177,-0.282 -1.909,-0.646 -1.488,-0.712 -3.11,-1.901 -4.648,-3.245 -3.08,-2.703 -6.04,-6.092 -8.622,-9.478 l -5.125,2.932 c 2.05,4.385 4.336,8.434 7.354,12.427 1.526,1.979 3.21,3.933 5.492,5.735 1.152,0.884 2.455,1.781 4.135,2.398 0.425,0.15 0.844,0.295 1.323,0.4 l 0.702,0.16 0.551,0.095 c 0.716,0.129 1.418,0.209 2.119,0.278 5.586,0.45 10.611,-0.47 15.408,-1.677 2.072,-0.538 4.092,-1.173 6.086,-1.864 2.141,-0.452 19.738,-4.346 22.751,-10.661 3.887,-8.149 -3.533,-11.48 -12.894,-8.138 z"
   id="path64" />&#10;			<path
   style="opacity:0.2"
   d="m 328.16,176.83 c 2.27,-0.66 4.84,-1.51 7.28,-2.54 l 0.6,-6.44 c 0,0 -4.7,1.92 -7.88,8.98 z"
   id="path65" />&#10;		</g>&#10;		<path
   style="fill:#263238"
   d="m 377.972,160.844 c 0.971,0.242 1.541,1.229 1.285,2.196 -2.156,8.127 -3.57,16.353 -4.523,24.126 -0.743,6.094 -1.19,11.908 -1.467,17.182 -0.653,12.36 -0.382,21.784 -0.749,24.977 -6.149,-0.426 -29.321,-2.038 -41.955,-2.922 -5.714,-44.73 5.196,-67.776 5.196,-67.776 0,0 4.645,-0.926 10.043,-1.242 0.711,-0.046 1.434,-0.071 2.168,-0.085 4.752,-0.101 12.498,0.612 17.838,1.242 1.123,0.133 2.258,0.298 3.362,0.476 3.572,0.58 6.873,1.346 8.802,1.826 z"
   id="path66" />&#10;		<path
   style="opacity:0.2"
   d="m 372.333,169 c -0.912,5.447 0.22,10.539 2.759,15.386 0.502,-3.705 1.116,-7.499 1.881,-11.322 z"
   id="path67" />&#10;		<path
   style="fill:#ffc3bd"
   d="m 365.439,138.335 c -1.526,5.66 -3.022,15.776 -0.078,20.304 -3.155,2.826 -6.902,2.111 -10.111,1.611 -3.911,-0.609 -4.429,-1.498 -3.194,-3.333 0.778,-0.833 0.918,-1.695 1.644,-3.658 0.691,-1.865 0.529,-4.129 0.138,-6.34 z"
   id="path68" />&#10;		<path
   style="fill:#263238"
   d="m 351.8,154.5 c 0.514,2.571 -2.668,3.944 -1.745,5.056 0.924,1.111 9.225,3.944 12.874,2.611 3.649,-1.333 3.26,-1.655 2.987,-4.877 -0.274,-3.222 1.803,-5.318 -0.86,-4.459 -1.353,0.436 -8.414,-0.719 -10.447,-0.719 -2.033,-0.001 -3.219,0.332 -2.809,2.388 z"
   id="path69" />&#10;		<path
   style="opacity:0.2"
   d="m 360.709,141.838 -6.866,5.077 c 0.194,1.074 0.327,2.159 0.329,3.204 2.469,-0.183 6.015,-2.632 6.453,-5.174 0.219,-1.267 0.251,-2.498 0.084,-3.107 z"
   id="path70" />&#10;		<path
   style="fill:#263238"
   d="m 350.25,119.444 c -1.748,0.805 -4.583,4.586 -2.25,7.085 2.333,2.499 4.722,-8.223 2.25,-7.085 z"
   id="path71" />&#10;		<path
   style="fill:#ffc3bd"
   d="m 367.741,130.085 c -1.292,7.697 -1.657,12.267 -5.988,15.831 -6.515,5.361 -15.704,0.806 -16.737,-7.121 -0.93,-7.135 1.338,-18.523 9.246,-20.807 7.789,-2.251 14.77,4.4 13.479,12.097 z"
   id="path72" />&#10;		<path
   style="fill:#263238"
   d="m 365.439,135.602 c -2.875,-1.833 -2.958,-3.948 -2.133,-5.852 2.778,-6.417 2.038,-9.667 -2.92,-9.083 -4.958,0.583 -11.927,1.162 -11.052,-1.086 0.875,-2.248 7.042,-3.206 12.292,-2.581 5.25,0.625 10.885,4.704 9.76,11.121 -1.077,6.138 -2.405,7.856 -5.947,7.481 z"
   id="path73" />&#10;		<path
   style="fill:#ffc3bd"
   d="m 370.5,137.351 c -1.033,1.833 -2.816,3.019 -4.489,3.457 -2.516,0.659 -3.732,-1.602 -2.998,-3.954 0.661,-2.118 2.767,-5.012 5.276,-4.63 2.472,0.376 3.392,3.031 2.211,5.127 z"
   id="path74" />&#10;		<g
   id="g76">&#10;			<path
   style="fill:#407bff"
   d="m 312.526,389.3 12.838,3.532 c 0,0 10.11,-50.67 10.733,-75.165 0.19,-7.452 3.41,-16.255 5.877,-27.315 3.115,-13.935 7.022,-29.003 10.221,-40.803 3.375,-12.427 5.945,-21.223 5.945,-21.223 l -27.583,-1.923 c 0,0 -14.239,65.411 -15.951,89.349 -1.783,24.89 -2.08,73.548 -2.08,73.548 z"
   id="path75" />&#10;			<path
   style="opacity:0.4"
   d="m 312.526,389.3 12.838,3.532 c 0,0 10.11,-50.67 10.733,-75.165 0.19,-7.452 3.41,-16.255 5.877,-27.315 3.115,-13.935 7.022,-29.003 10.221,-40.803 3.375,-12.427 5.945,-21.223 5.945,-21.223 l -27.583,-1.923 c 0,0 -14.239,65.411 -15.951,89.349 -1.783,24.89 -2.08,73.548 -2.08,73.548 z"
   id="path76" />&#10;		</g>&#10;		<path
   style="opacity:0.2"
   d="m 341.974,290.351 c 3.115,-13.935 7.022,-29.003 10.221,-40.803 l -2.863,-6.164 c -6.841,8.13 -8.682,33.296 -7.358,46.967 z"
   id="path77" />&#10;		<g
   id="g79">&#10;			<path
   style="fill:#407bff"
   d="m 345.438,227.44 c 0,0 1.965,62.561 5.284,85.361 3.635,24.968 13.88,84.296 13.88,84.296 h 14.403 c 0,0 -0.771,-56.5 -5.282,-80.684 -5.138,-27.548 -1.211,-87.084 -1.211,-87.084 z"
   id="path78" />&#10;			<path
   style="opacity:0.4"
   d="m 345.438,227.44 c 0,0 1.965,62.561 5.284,85.361 3.635,24.968 13.88,84.296 13.88,84.296 h 14.403 c 0,0 -0.771,-56.5 -5.282,-80.684 -5.138,-27.548 -1.211,-87.084 -1.211,-87.084 z"
   id="path79" />&#10;		</g>&#10;		<polygon
   style="fill:#263238"
   points="379.838,392.343 360.88,392.013 362.879,397.409 379.838,397.409 "
   id="polygon79" />&#10;		<polygon
   style="fill:#263238"
   points="327.49,388.428 310.463,383.456 310.831,389.155 326.128,393.371 "
   id="polygon80" />&#10;		<path
   style="fill:#263238"
   d="m 356.773,130.512 c -0.066,0.631 -0.455,1.107 -0.867,1.064 -0.412,-0.044 -0.693,-0.59 -0.626,-1.221 0.066,-0.631 0.454,-1.107 0.867,-1.063 0.412,0.043 0.693,0.59 0.626,1.22 z"
   id="path80" />&#10;		<path
   style="fill:#263238"
   d="m 348.862,130.261 c -0.066,0.631 -0.455,1.107 -0.867,1.063 -0.412,-0.043 -0.693,-0.59 -0.626,-1.221 0.066,-0.631 0.455,-1.107 0.867,-1.064 0.412,0.045 0.692,0.591 0.626,1.222 z"
   id="path81" />&#10;		<path
   style="fill:#ffffff"
   d="m 356.212,135.034 c -2.55,0 -4.626,-2.257 -4.626,-5.031 0,-2.774 2.075,-5.032 4.626,-5.032 2.551,0 4.626,2.257 4.626,5.032 0,2.774 -2.075,5.031 -4.626,5.031 z m 0,-9.554 c -2.27,0 -4.117,2.029 -4.117,4.523 0,2.494 1.847,4.523 4.117,4.523 2.27,0 4.117,-2.029 4.117,-4.523 0,-2.494 -1.847,-4.523 -4.117,-4.523 z"
   id="path82" />&#10;		<path
   style="fill:#ffffff"
   d="m 345.982,135.034 c -2.55,0 -4.625,-2.257 -4.625,-5.031 0,-2.774 2.075,-5.032 4.625,-5.032 2.55,0 4.626,2.257 4.626,5.032 0,2.774 -2.075,5.031 -4.626,5.031 z m 0,-9.554 c -2.27,0 -4.117,2.029 -4.117,4.523 0,2.494 1.847,4.523 4.117,4.523 2.27,0 4.117,-2.029 4.117,-4.523 0,-2.494 -1.847,-4.523 -4.117,-4.523 z"
   id="path83" />&#10;		<path
   style="fill:#ed847e"
   d="m 350.724,130.667 c 0,0 -1.5,3.636 -3.116,5.375 1.105,1.065 3.02,0.617 3.02,0.617 z"
   id="path84" />&#10;		<path
   style="fill:#263238"
   d="m 358.652,128.579 c -0.133,0.027 -0.277,-0.02 -0.366,-0.134 -1.03,-1.303 -2.399,-1.194 -2.412,-1.192 -0.205,0.019 -0.386,-0.132 -0.405,-0.337 -0.019,-0.204 0.123,-0.388 0.337,-0.405 0.072,-0.007 1.787,-0.144 3.065,1.473 0.128,0.161 0.1,0.396 -0.061,0.523 -0.049,0.037 -0.102,0.061 -0.158,0.072 z"
   id="path85" />&#10;		<path
   style="fill:#263238"
   d="m 352.897,139.959 c 0.001,0 0.003,0 0.004,0 3.213,-0.036 4.66,-2.256 4.72,-2.35 0.059,-0.093 0.032,-0.217 -0.062,-0.276 -0.093,-0.059 -0.217,-0.032 -0.277,0.061 -0.014,0.021 -1.398,2.131 -4.387,2.165 -0.111,0.001 -0.2,0.092 -0.198,0.203 0.002,0.108 0.091,0.196 0.2,0.197 z"
   id="path86" />&#10;		<path
   style="fill:#263238"
   d="m 344.497,128.606 c -0.076,0.006 -0.154,-0.012 -0.223,-0.056 -0.175,-0.109 -0.228,-0.338 -0.119,-0.513 1.089,-1.749 2.807,-1.807 2.881,-1.806 0.206,-0.004 0.376,0.159 0.38,0.365 0.004,0.205 -0.169,0.376 -0.363,0.38 v 0 c -0.059,0.006 -1.395,0.056 -2.267,1.454 -0.065,0.106 -0.174,0.168 -0.289,0.176 z"
   id="path87" />&#10;		<path
   style="fill:#407bff"
   d="m 365.935,408.198 c -0.598,0 -1.158,-0.102 -1.514,-0.401 -0.281,-0.237 -0.411,-0.568 -0.385,-0.984 0.02,-0.31 0.185,-0.457 0.319,-0.526 0.873,-0.449 3.406,1.112 3.693,1.291 0.064,0.04 0.098,0.114 0.085,0.188 -0.012,0.074 -0.067,0.133 -0.14,0.151 -0.546,0.13 -1.33,0.281 -2.058,0.281 z m -1.168,-1.628 c -0.098,0 -0.179,0.015 -0.242,0.047 -0.05,0.026 -0.108,0.074 -0.117,0.219 -0.019,0.296 0.064,0.518 0.253,0.676 0.431,0.361 1.457,0.41 2.792,0.142 -0.888,-0.514 -2.083,-1.084 -2.686,-1.084 z"
   id="path88" />&#10;		<path
   style="fill:#407bff"
   d="m 367.949,407.921 c -0.031,0 -0.061,-0.007 -0.089,-0.022 -0.814,-0.442 -2.387,-2.165 -2.221,-3.042 0.03,-0.159 0.148,-0.434 0.593,-0.488 0.287,-0.034 0.555,0.045 0.794,0.24 0.913,0.747 1.101,3.016 1.109,3.112 0.005,0.069 -0.027,0.134 -0.084,0.171 -0.031,0.018 -0.067,0.029 -0.102,0.029 z m -1.587,-3.188 c -0.028,0 -0.056,0.002 -0.084,0.005 -0.242,0.03 -0.263,0.141 -0.272,0.188 -0.099,0.517 0.904,1.82 1.713,2.434 -0.092,-0.663 -0.343,-1.986 -0.929,-2.464 -0.134,-0.109 -0.275,-0.163 -0.428,-0.163 z"
   id="path89" />&#10;		<path
   style="fill:#407bff"
   d="m 312.786,400.583 c -0.011,10e-4 -0.022,0.002 -0.033,10e-4 -1.289,-0.094 -3.544,-0.395 -4.172,-1.359 -0.189,-0.291 -0.221,-0.616 -0.096,-0.966 0.075,-0.209 0.223,-0.346 0.428,-0.396 1.054,-0.247 3.683,2.126 3.978,2.399 0.058,0.054 0.076,0.138 0.045,0.211 -0.026,0.061 -0.085,0.103 -0.15,0.11 z m -3.732,-2.367 c -0.018,0.002 -0.035,0.005 -0.052,0.009 -0.084,0.02 -0.133,0.069 -0.166,0.161 -0.086,0.238 -0.067,0.446 0.057,0.637 0.352,0.541 1.58,0.958 3.331,1.141 -1.056,-0.915 -2.556,-2.015 -3.17,-1.948 z"
   id="path90" />&#10;		<path
   style="fill:#407bff"
   d="m 312.786,400.583 c -0.049,0.005 -0.1,-0.009 -0.139,-0.042 -0.802,-0.663 -2.163,-2.802 -1.788,-3.621 0.088,-0.192 0.302,-0.403 0.807,-0.318 0.377,0.064 0.683,0.26 0.911,0.582 0.746,1.058 0.387,3.156 0.371,3.245 -0.012,0.065 -0.056,0.12 -0.119,0.143 -0.013,0.006 -0.028,0.009 -0.043,0.011 z m -1.397,-3.624 c -0.145,0.016 -0.177,0.088 -0.191,0.117 -0.225,0.491 0.652,2.119 1.431,2.938 0.067,-0.624 0.133,-1.92 -0.356,-2.614 -0.17,-0.242 -0.389,-0.382 -0.668,-0.429 -0.091,-0.016 -0.161,-0.018 -0.216,-0.012 z"
   id="path91" />&#10;		<g
   id="g93">&#10;			<path
   style="fill:#ffc3bd"
   d="m 375.792,223.123 -7.958,0.794 4.766,7.573 c 0,0 6.479,-2.547 5.513,-6.13 z"
   id="path92" />&#10;			<polygon
   style="fill:#ffc3bd"
   points="372.6,231.49 367.833,223.917 362.531,227.898 367.448,234.598 "
   id="polygon92" />&#10;			<path
   style="fill:#263238"
   d="m 394.504,188.762 c -0.728,-2.014 -1.546,-3.967 -2.418,-5.889 -0.648,-2.091 -6.149,-19.252 -12.715,-21.67 -8.472,-3.119 -11.104,4.576 -6.913,13.589 1.795,3.861 4.999,8.444 6.683,10.749 0.45,0.728 0.896,1.459 1.322,2.203 1.041,1.816 2.003,3.669 2.86,5.537 1.7,3.717 3.024,7.592 3.347,11.061 0.033,0.427 0.065,0.853 0.064,1.258 l 0.006,0.29 c -0.004,0.043 -0.005,0.086 -0.004,0.13 0.016,0.078 -0.013,0.198 -0.022,0.314 -0.048,0.478 -0.172,1.198 -0.466,1.96 -0.571,1.547 -1.605,3.273 -2.802,4.929 -2.407,3.316 -5.509,6.576 -8.642,9.46 l 3.393,4.832 c 4.177,-2.446 7.998,-5.096 11.695,-8.469 1.83,-1.702 3.62,-3.559 5.204,-5.998 0.774,-1.229 1.546,-2.609 2.006,-4.338 0.11,-0.437 0.216,-0.867 0.275,-1.355 l 0.095,-0.713 0.044,-0.557 c 0.062,-0.726 0.077,-1.432 0.081,-2.136 -0.069,-5.604 -1.449,-10.523 -3.093,-15.187 z"
   id="path93" />&#10;		</g>&#10;	</g>&#10;</g><g
   id="Web_devices"
   transform="matrix(0.4879445,0,0,0.4879445,-22.02921,-55.389668)">&#10;	<g
   id="g117">&#10;		<g
   id="g105">&#10;			<g
   id="g99">&#10;				<g
   id="g95">&#10;					<path
   style="fill:#407bff"
   d="m 86.065,251.567 h 166.099 c 4.403,0 8.132,-3.603 8.287,-8.006 l 3.719,-105.924 c 0.155,-4.403 -3.322,-8.006 -7.725,-8.006 H 90.346 c -4.403,0 -8.132,3.603 -8.287,8.006 L 78.34,243.561 c -0.154,4.403 3.322,8.006 7.725,8.006 z"
   id="path94" />&#10;					<path
   style="opacity:0.4"
   d="m 86.065,251.567 h 166.099 c 4.403,0 8.132,-3.603 8.287,-8.006 l 3.719,-105.924 c 0.155,-4.403 -3.322,-8.006 -7.725,-8.006 H 90.346 c -4.403,0 -8.132,3.603 -8.287,8.006 L 78.34,243.561 c -0.154,4.403 3.322,8.006 7.725,8.006 z"
   id="path95" />&#10;				</g>&#10;				<path
   style="fill:#407bff"
   d="m 87.652,251.567 h 166.099 c 4.403,0 8.132,-3.603 8.287,-8.006 l 3.719,-105.924 c 0.155,-4.403 -3.322,-8.006 -7.725,-8.006 H 91.933 c -4.403,0 -8.132,3.603 -8.287,8.006 l -3.719,105.924 c -0.155,4.403 3.322,8.006 7.725,8.006 z"
   id="path96" />&#10;				<path
   style="opacity:0.9;fill:#ffffff"
   d="m 252.16,244.896 c 1.738,0 3.21,-1.422 3.271,-3.16 l 3.591,-102.273 c 0.061,-1.738 -1.311,-3.16 -3.049,-3.16 H 93.524 c -1.738,0 -3.21,1.422 -3.271,3.16 l -3.591,102.273 c -0.061,1.738 1.311,3.16 3.049,3.16 z"
   id="path97" />&#10;				<path
   style="opacity:0.3;fill:#407bff"
   d="m 203.137,217.221 c 5.102,-6.481 8.331,-14.484 8.758,-23.138 0.426,-8.653 -2.012,-16.654 -6.474,-23.134 -0.02,-0.038 -0.032,-0.077 -0.055,-0.114 -0.076,-0.123 -0.165,-0.234 -0.26,-0.336 -6.676,-9.391 -17.659,-15.469 -30.339,-15.469 -12.713,0 -24.325,6.109 -31.926,15.543 -0.08,0.083 -0.16,0.166 -0.229,0.262 -0.023,0.032 -0.036,0.066 -0.057,0.099 -5.108,6.483 -8.339,14.49 -8.766,23.15 -0.427,8.661 2.017,16.67 6.487,23.154 0.017,0.03 0.027,0.063 0.045,0.093 0.025,0.041 0.062,0.07 0.089,0.109 6.659,9.523 17.724,15.697 30.507,15.697 12.693,0 24.288,-6.09 31.889,-15.499 0.095,-0.095 0.187,-0.194 0.268,-0.307 0.025,-0.036 0.041,-0.074 0.063,-0.11 z m -31.991,11.269 c -5.588,0 -10.291,-6.535 -12.691,-16.163 4.267,-0.867 8.869,-1.338 13.552,-1.338 4.684,0 9.24,0.47 13.423,1.337 -3.349,9.629 -8.696,16.164 -14.284,16.164 z m 1.091,-22.146 c -5.117,0 -10.087,0.508 -14.7,1.458 -0.567,-3.547 -0.845,-7.389 -0.779,-11.396 h 31.94 c -0.329,4.007 -0.985,7.848 -1.902,11.396 -4.521,-0.95 -9.441,-1.458 -14.559,-1.458 z m -33.83,-9.938 h 13.7 c -0.087,4.428 0.212,8.635 0.842,12.517 -3.617,1.04 -6.924,2.383 -9.812,3.988 -2.918,-4.805 -4.622,-10.442 -4.73,-16.505 z m 6.586,-21.152 c 2.73,1.605 5.905,2.948 9.419,3.988 -1.013,3.883 -1.727,8.09 -2.076,12.518 h -13.7 c 0.706,-6.064 2.966,-11.701 6.357,-16.506 z m 29.545,-15.578 c 5.587,0 10.291,6.535 12.691,16.162 -4.268,0.867 -8.87,1.337 -13.554,1.337 -4.683,0 -9.238,-0.47 -13.42,-1.338 3.348,-9.627 8.696,-16.161 14.283,-16.161 z m -1.093,22.144 c 5.118,0 10.088,-0.508 14.702,-1.457 0.567,3.548 0.845,7.39 0.779,11.397 h -31.94 c 0.329,-4.007 0.985,-7.85 1.902,-11.398 4.521,0.951 9.44,1.458 14.557,1.458 z m 33.832,9.94 h -13.7 c 0.087,-4.429 -0.212,-8.635 -0.842,-12.518 3.617,-1.04 6.924,-2.383 9.812,-3.987 2.918,4.805 4.622,10.442 4.73,16.505 z m -13.929,4.646 h 13.7 c -0.705,6.063 -2.965,11.699 -6.356,16.504 -2.73,-1.605 -5.905,-2.947 -9.42,-3.987 1.013,-3.883 1.727,-8.089 2.076,-12.517 z m 6.547,-24.889 c -2.38,1.258 -5.108,2.333 -8.082,3.196 -1.287,-5.21 -3.224,-9.648 -5.66,-12.98 5.445,2.013 10.155,5.418 13.742,9.784 z m -37.175,-9.785 c -2.764,3.333 -5.139,7.77 -6.94,12.98 -2.889,-0.863 -5.51,-1.938 -7.766,-3.196 4.018,-4.365 9.063,-7.77 14.706,-9.784 z m -16.931,54.917 c 2.38,-1.259 5.107,-2.333 8.081,-3.197 1.287,5.21 3.224,9.648 5.66,12.981 -5.444,-2.013 -10.154,-5.418 -13.741,-9.784 z m 37.175,9.785 c 2.765,-3.333 5.139,-7.771 6.94,-12.982 2.889,0.863 5.511,1.938 7.767,3.196 -4.018,4.366 -9.064,7.771 -14.707,9.786 z"
   id="path98" />&#10;				<polygon
   style="opacity:0.6;fill:#ffffff"
   points="128.251,244.896 142.694,136.303 123.47,136.303 109.027,244.896 "
   id="polygon98" />&#10;				<polygon
   style="opacity:0.6;fill:#ffffff"
   points="142.694,244.896 157.137,136.303 149.248,136.303 134.805,244.896 "
   id="polygon99" />&#10;				<path
   style="opacity:0.3;fill:#ffffff"
   d="m 173.627,133.151 c -0.024,0.68 0.508,1.232 1.188,1.232 0.68,0 1.251,-0.551 1.275,-1.232 0.024,-0.68 -0.508,-1.232 -1.188,-1.232 -0.68,0 -1.251,0.552 -1.275,1.232 z"
   id="path99" />&#10;			</g>&#10;			<g
   id="g104">&#10;				<g
   id="g101">&#10;					<path
   style="fill:#407bff"
   d="M 278.11,362.119 H 112.011 c -4.403,0 -8.83,-3.603 -9.838,-8.006 L 80.91,261.21 c -1.008,-4.403 1.77,-8.006 6.174,-8.006 h 166.099 c 4.403,0 8.83,3.603 9.838,8.006 l 21.263,92.903 c 1.008,4.404 -1.771,8.006 -6.174,8.006 z"
   id="path100" />&#10;					<path
   style="opacity:0.4"
   d="M 278.11,362.119 H 112.011 c -4.403,0 -8.83,-3.603 -9.838,-8.006 L 80.91,261.21 c -1.008,-4.403 1.77,-8.006 6.174,-8.006 h 166.099 c 4.403,0 8.83,3.603 9.838,8.006 l 21.263,92.903 c 1.008,4.404 -1.771,8.006 -6.174,8.006 z"
   id="path101" />&#10;				</g>&#10;				<path
   style="fill:#407bff"
   d="M 279.697,362.119 H 113.598 c -4.403,0 -8.83,-3.603 -9.838,-8.006 L 82.496,261.21 c -1.008,-4.403 1.77,-8.006 6.174,-8.006 h 166.099 c 4.403,0 8.83,3.603 9.838,8.006 l 21.263,92.903 c 1.008,4.404 -1.77,8.006 -6.173,8.006 z"
   id="path102" />&#10;				<path
   style="opacity:0.2"
   d="m 104.811,315.752 c -1.738,0 -3.485,-1.422 -3.883,-3.16 L 89.586,263.036 c -0.398,-1.738 0.699,-3.16 2.437,-3.16 h 162.448 c 1.738,0 3.485,1.422 3.883,3.16 l 11.342,49.556 c 0.398,1.738 -0.699,3.16 -2.437,3.16 z"
   id="path103" />&#10;				<path
   style="opacity:0.2"
   d="m 171.747,354.729 c -1.013,0 -2.031,-0.829 -2.263,-1.842 l -6.611,-28.883 c -0.232,-1.013 0.407,-1.842 1.42,-1.842 h 46.419 c 1.013,0 2.031,0.829 2.263,1.842 l 6.611,28.883 c 0.232,1.013 -0.407,1.842 -1.42,1.842 z"
   id="path104" />&#10;			</g>&#10;		</g>&#10;		<g
   id="g110">&#10;			<g
   id="g106">&#10;				<path
   style="fill:#407bff"
   d="m 284.227,289.898 5.047,-131.767 c 0.134,-3.493 -2.614,-6.375 -6.106,-6.404 l -84.002,-0.707 c -3.492,-0.029 -6.458,2.805 -6.592,6.298 l -5.047,131.767 c -0.134,3.493 2.614,6.375 6.106,6.404 l 84.002,0.707 c 3.491,0.029 6.458,-2.804 6.592,-6.298 z"
   id="path105" />&#10;				<path
   style="opacity:0.4"
   d="m 284.227,289.898 5.047,-131.767 c 0.134,-3.493 -2.614,-6.375 -6.106,-6.404 l -84.002,-0.707 c -3.492,-0.029 -6.458,2.805 -6.592,6.298 l -5.047,131.767 c -0.134,3.493 2.614,6.375 6.106,6.404 l 84.002,0.707 c 3.491,0.029 6.458,-2.804 6.592,-6.298 z"
   id="path106" />&#10;			</g>&#10;			<path
   style="fill:#407bff"
   d="m 286.078,289.898 5.047,-131.767 c 0.134,-3.493 -2.614,-6.375 -6.106,-6.404 l -84.002,-0.707 c -3.492,-0.029 -6.458,2.805 -6.592,6.298 l -5.047,131.767 c -0.134,3.493 2.614,6.375 6.106,6.404 l 84.002,0.707 c 3.492,0.029 6.458,-2.804 6.592,-6.298 z"
   id="path107" />&#10;			<path
   style="opacity:0.9;fill:#ffffff"
   d="m 285.779,159.535 c 0.053,-1.379 -1.032,-2.516 -2.41,-2.528 l -81.107,-0.682 c -1.378,-0.012 -2.549,1.107 -2.602,2.486 l -4.936,128.871 c -0.053,1.379 1.032,2.516 2.41,2.528 l 81.107,0.682 c 1.378,0.012 2.549,-1.107 2.602,-2.486 z"
   id="path108" />&#10;			<path
   style="opacity:0.3;fill:#407bff"
   d="m 270.407,246.247 c 4.738,-6.017 7.735,-13.448 8.131,-21.484 0.396,-8.034 -1.868,-15.463 -6.011,-21.48 -0.019,-0.035 -0.03,-0.072 -0.051,-0.106 -0.071,-0.115 -0.153,-0.217 -0.242,-0.312 -6.199,-8.72 -16.396,-14.363 -28.169,-14.363 -11.804,0 -22.585,5.672 -29.642,14.431 -0.074,0.077 -0.148,0.154 -0.213,0.243 -0.021,0.029 -0.034,0.062 -0.053,0.092 -4.742,6.019 -7.743,13.454 -8.139,21.494 -0.396,8.042 1.872,15.478 6.023,21.498 0.016,0.028 0.025,0.059 0.042,0.086 0.024,0.038 0.057,0.065 0.083,0.101 6.183,8.842 16.456,14.574 28.325,14.574 11.786,0 22.551,-5.655 29.608,-14.39 0.088,-0.088 0.174,-0.181 0.249,-0.285 0.023,-0.031 0.037,-0.066 0.059,-0.099 z m -29.704,10.463 c -5.188,0 -9.555,-6.068 -11.783,-15.007 3.962,-0.805 8.235,-1.242 12.583,-1.242 4.349,0 8.579,0.437 12.463,1.242 -3.109,8.939 -8.075,15.007 -13.263,15.007 z m 1.013,-20.562 c -4.751,0 -9.365,0.471 -13.649,1.353 -0.527,-3.294 -0.784,-6.861 -0.723,-10.581 H 257 c -0.305,3.72 -0.915,7.287 -1.766,10.581 -4.198,-0.882 -8.766,-1.353 -13.518,-1.353 z m -31.41,-9.228 h 12.72 c -0.081,4.112 0.197,8.017 0.781,11.622 -3.358,0.966 -6.429,2.213 -9.11,3.703 -2.709,-4.462 -4.291,-9.695 -4.391,-15.325 z m 6.115,-19.639 c 2.535,1.49 5.482,2.737 8.745,3.702 -0.941,3.605 -1.603,7.511 -1.928,11.623 h -12.72 c 0.655,-5.63 2.754,-10.863 5.903,-15.325 z m 27.432,-14.465 c 5.188,0 9.555,6.067 11.783,15.006 -3.962,0.805 -8.236,1.242 -12.585,1.242 -4.348,0 -8.578,-0.437 -12.46,-1.242 3.109,-8.938 8.074,-15.006 13.262,-15.006 z m -1.015,20.562 c 4.752,0 9.367,-0.471 13.651,-1.353 0.527,3.294 0.784,6.862 0.723,10.582 h -29.656 c 0.305,-3.721 0.915,-7.288 1.766,-10.582 4.197,0.881 8.765,1.353 13.516,1.353 z m 31.412,9.229 h -12.72 c 0.081,-4.112 -0.197,-8.018 -0.781,-11.623 3.358,-0.966 6.429,-2.212 9.111,-3.702 2.708,4.461 4.29,9.695 4.39,15.325 z m -12.933,4.313 h 12.72 c -0.655,5.63 -2.753,10.862 -5.901,15.324 -2.535,-1.49 -5.483,-2.737 -8.746,-3.702 0.94,-3.605 1.603,-7.511 1.927,-11.622 z m 6.079,-23.109 c -2.209,1.168 -4.742,2.166 -7.504,2.967 -1.195,-4.838 -2.993,-8.957 -5.255,-12.052 5.055,1.87 9.428,5.032 12.759,9.085 z m -34.516,-9.085 c -2.567,3.094 -4.771,7.214 -6.443,12.052 -2.682,-0.801 -5.116,-1.799 -7.21,-2.968 3.729,-4.053 8.414,-7.214 13.653,-9.084 z m -15.72,50.989 c 2.209,-1.169 4.742,-2.166 7.503,-2.968 1.195,4.838 2.994,8.958 5.256,12.053 -5.055,-1.87 -9.429,-5.031 -12.759,-9.085 z m 34.516,9.085 c 2.567,-3.095 4.772,-7.215 6.444,-12.053 2.682,0.802 5.117,1.799 7.211,2.967 -3.73,4.054 -8.415,7.216 -13.655,9.086 z"
   id="path109" />&#10;			<polygon
   style="opacity:0.6;fill:#ffffff"
   points="224.584,290.44 238.994,156.634 219.787,156.472 205.378,290.278 "
   id="polygon109" />&#10;			<polygon
   style="opacity:0.6;fill:#ffffff"
   points="239.014,290.561 253.424,156.755 245.542,156.689 231.132,290.495 "
   id="polygon110" />&#10;			<path
   style="opacity:0.3;fill:#ffffff"
   d="m 241.115,154.743 c 0.54,0.005 0.993,-0.429 1.014,-0.969 0.021,-0.54 -0.4,-0.981 -0.939,-0.985 -0.54,-0.005 -0.994,0.429 -1.014,0.969 -0.021,0.539 0.4,0.981 0.939,0.985 z"
   id="path110" />&#10;		</g>&#10;		<g
   id="g116">&#10;			<g
   id="g112">&#10;				<path
   style="fill:#407bff"
   d="m 309.554,325.219 5.047,-103.421 c 0.134,-3.493 -2.614,-6.375 -6.106,-6.404 l -48.569,-0.707 c -3.492,-0.029 -6.459,2.804 -6.592,6.298 l -5.047,103.421 c -0.134,3.493 2.614,6.375 6.106,6.405 l 48.569,0.707 c 3.491,0.028 6.458,-2.806 6.592,-6.299 z"
   id="path111" />&#10;				<path
   style="opacity:0.4"
   d="m 309.554,325.219 5.047,-103.421 c 0.134,-3.493 -2.614,-6.375 -6.106,-6.404 l -48.569,-0.707 c -3.492,-0.029 -6.459,2.804 -6.592,6.298 l -5.047,103.421 c -0.134,3.493 2.614,6.375 6.106,6.405 l 48.569,0.707 c 3.491,0.028 6.458,-2.806 6.592,-6.299 z"
   id="path112" />&#10;			</g>&#10;			<path
   style="fill:#407bff"
   d="m 311.406,325.219 5.047,-103.421 c 0.134,-3.493 -2.614,-6.375 -6.106,-6.404 l -48.569,-0.707 c -3.492,-0.029 -6.458,2.804 -6.592,6.298 l -5.047,103.421 c -0.134,3.493 2.614,6.375 6.106,6.405 l 48.569,0.707 c 3.491,0.028 6.458,-2.806 6.592,-6.299 z"
   id="path113" />&#10;			<path
   style="opacity:0.9;fill:#ffffff"
   d="m 311.106,223.202 c 0.053,-1.379 -1.032,-2.516 -2.41,-2.528 l -45.674,-0.682 c -1.378,-0.012 -2.549,1.107 -2.602,2.486 l -4.936,100.524 c -0.053,1.379 1.032,2.516 2.41,2.528 l 45.674,0.682 c 1.378,0.012 2.549,-1.107 2.602,-2.486 z"
   id="path114" />&#10;			<path
   style="opacity:0.3;fill:#407bff"
   d="m 300.563,286.95 c 2.908,-3.694 4.749,-8.255 4.992,-13.189 0.243,-4.932 -1.147,-9.493 -3.69,-13.186 -0.012,-0.021 -0.018,-0.044 -0.031,-0.065 -0.043,-0.07 -0.094,-0.133 -0.148,-0.191 -3.805,-5.353 -10.066,-8.817 -17.293,-8.817 -7.246,0 -13.865,3.482 -18.197,8.859 -0.045,0.048 -0.091,0.095 -0.13,0.149 -0.013,0.018 -0.021,0.038 -0.033,0.056 -2.911,3.695 -4.753,8.259 -4.997,13.195 -0.243,4.937 1.149,9.502 3.697,13.197 0.01,0.017 0.015,0.036 0.026,0.053 0.014,0.023 0.035,0.04 0.051,0.062 3.796,5.428 10.102,8.947 17.389,8.947 7.235,0 13.844,-3.472 18.176,-8.834 0.054,-0.054 0.107,-0.111 0.153,-0.175 0.014,-0.019 0.022,-0.041 0.035,-0.061 z m -18.234,6.423 c -3.185,0 -5.866,-3.725 -7.234,-9.213 2.432,-0.494 5.055,-0.763 7.725,-0.763 2.67,0 5.267,0.268 7.651,0.762 -1.909,5.489 -4.958,9.214 -8.142,9.214 z m 0.621,-12.623 c -2.917,0 -5.749,0.289 -8.379,0.831 -0.323,-2.022 -0.481,-4.212 -0.444,-6.496 h 18.205 c -0.188,2.284 -0.562,4.473 -1.084,6.496 -2.576,-0.542 -5.381,-0.831 -8.298,-0.831 z m -19.282,-5.665 h 7.809 c -0.05,2.524 0.121,4.922 0.48,7.134 -2.061,0.593 -3.947,1.358 -5.593,2.273 -1.663,-2.738 -2.635,-5.951 -2.696,-9.407 z m 3.754,-12.056 c 1.556,0.914 3.366,1.68 5.368,2.273 -0.577,2.213 -0.984,4.611 -1.183,7.135 h -7.809 c 0.403,-3.456 1.691,-6.669 3.624,-9.408 z m 16.84,-8.88 c 3.185,0 5.866,3.725 7.233,9.212 -2.433,0.494 -5.056,0.762 -7.726,0.762 -2.669,0 -5.266,-0.268 -7.649,-0.762 1.909,-5.487 4.957,-9.212 8.142,-9.212 z m -0.623,12.623 c 2.917,0 5.75,-0.289 8.38,-0.831 0.323,2.022 0.482,4.212 0.444,6.496 h -18.205 c 0.188,-2.284 0.562,-4.474 1.085,-6.496 2.576,0.541 5.38,0.831 8.296,0.831 z m 19.284,5.665 h -7.809 c 0.05,-2.524 -0.121,-4.922 -0.48,-7.135 2.062,-0.593 3.947,-1.358 5.593,-2.273 1.663,2.739 2.634,5.952 2.696,9.408 z m -7.939,2.648 h 7.809 c -0.402,3.456 -1.69,6.668 -3.623,9.407 -1.556,-0.915 -3.366,-1.68 -5.369,-2.273 0.577,-2.212 0.983,-4.61 1.183,-7.134 z m 3.731,-14.186 c -1.356,0.717 -2.911,1.33 -4.606,1.822 -0.734,-2.97 -1.838,-5.499 -3.226,-7.399 3.103,1.148 5.788,3.088 7.832,5.577 z m -21.189,-5.577 c -1.576,1.9 -2.929,4.429 -3.956,7.398 -1.646,-0.492 -3.141,-1.104 -4.426,-1.822 2.29,-2.488 5.166,-4.428 8.382,-5.576 z m -9.651,31.302 c 1.356,-0.717 2.911,-1.33 4.606,-1.822 0.734,2.97 1.838,5.499 3.226,7.399 -3.102,-1.149 -5.787,-3.089 -7.832,-5.577 z m 21.19,5.577 c 1.576,-1.9 2.929,-4.429 3.956,-7.399 1.647,0.492 3.141,1.104 4.427,1.822 -2.29,2.488 -5.167,4.428 -8.383,5.577 z"
   id="path115" />&#10;			<polygon
   style="opacity:0.6;fill:#ffffff"
   points="275.264,325.789 286.619,220.344 271.457,220.118 260.202,325.564 "
   id="polygon115" />&#10;			<polygon
   style="opacity:0.6;fill:#ffffff"
   points="286.655,325.959 298.01,220.514 291.788,220.421 280.433,325.866 "
   id="polygon116" />&#10;			<path
   style="opacity:0.3;fill:#ffffff"
   d="m 266.369,218.556 c 0.539,0.005 0.993,-0.429 1.014,-0.969 0.021,-0.54 -0.4,-0.981 -0.939,-0.985 -0.54,-0.005 -0.993,0.429 -1.014,0.969 -0.021,0.539 0.4,0.98 0.939,0.985 z"
   id="path116" />&#10;		</g>&#10;	</g>&#10;</g></svg>
