<?xml version="1.0" encoding="UTF-8" standalone="no"?>
<!-- Generator: Adobe Illustrator 27.5.0, SVG Export Plug-In . SVG Version: 6.00 Build 0)  -->

<svg
   version="1.1"
   x="0px"
   y="0px"
   viewBox="0 0 199 155"
   xml:space="preserve"
   id="svg247"
   sodipodi:docname="accesorios.svg"
   inkscape:version="1.3.2 (091e20e, 2023-11-25, custom)"
   width="199"
   height="155"
   xmlns:inkscape="http://www.inkscape.org/namespaces/inkscape"
   xmlns:sodipodi="http://sodipodi.sourceforge.net/DTD/sodipodi-0.dtd"
   xmlns="http://www.w3.org/2000/svg"
   xmlns:svg="http://www.w3.org/2000/svg"><defs
   id="defs247">
		
		
			
		
		
		
		
		
		
		
		
		
		
		
		
		
		
		
		
		
		
		
		
	
			
			
			
			
			
				
		
		
		
		
		
		
		
		
	
			
			
			
			
		
			
			
			
			
			
			
		
			
			
			
			
			
		
		
	</defs><sodipodi:namedview
   id="namedview247"
   pagecolor="#ffffff"
   bordercolor="#000000"
   borderopacity="0.25"
   inkscape:showpageshadow="2"
   inkscape:pageopacity="0.0"
   inkscape:pagecheckerboard="true"
   inkscape:deskcolor="#d1d1d1"
   inkscape:zoom="2"
   inkscape:cx="192"
   inkscape:cy="71.25"
   inkscape:window-width="2560"
   inkscape:window-height="1017"
   inkscape:window-x="1912"
   inkscape:window-y="-8"
   inkscape:window-maximized="1"
   inkscape:current-layer="svg247" />







<g
   id="g11"><ellipse
     style="opacity:0.5;fill:#f5f5f5;fill-opacity:1;stroke-width:0.417093"
     cx="96.621902"
     cy="147.33069"
     rx="67.485207"
     ry="6.9808826"
     id="ellipse1-2-1-2" /><path
     style="fill:#353d29;stroke-width:0.417093"
     d="M 68.180339,1.4040817 C 66.799761,11.280846 64.501575,19.384955 61.319163,25.56627 57.757187,32.485845 53.169169,36.723509 48.05145,37.816294 c -0.855048,0.183519 -1.714257,0.271108 -2.569294,0.271108 -4.412841,0 -8.788151,-2.37326 -12.325098,-6.648457 0.300307,-0.500512 0.608957,-0.996853 0.92595,-1.484852 3.878958,4.971743 8.771455,7.265757 13.618078,6.231362 8.980002,-1.918623 15.728561,-14.406384 18.669065,-34.0013999 0.596444,-0.2711182 1.20123,-0.529712 1.810188,-0.7799734 z"
     id="path2-9-8-1" /><path
     style="fill:#80b3ff;stroke-width:0.417093"
     d="M 139.61977,133.84178 H 131.446 V 96.360571 h 7.35794 c 1.49528,0 2.7182,1.192042 2.75656,2.686905 l 0.81584,31.966824 c 0.0396,1.54992 -1.20623,2.82748 -2.75657,2.82748 z"
     id="path10-1-3-7" /><path
     style="fill:#c6d8ff;fill-opacity:1;stroke-width:0.417093"
     d="m 131.42079,133.85816 v -9.37583 h 10.76308 l 0.16726,6.54835 c 0.0396,1.54993 -1.20624,2.8279 -2.75657,2.8279 h -8.17377 z"
     id="path11-2-4-9" /><path
     style="fill:#5599ff;stroke-width:0.417093"
     d="m 136.25114,133.00562 c 0.10886,5.2904 -4.15091,9.63985 -9.44465,9.63985 H 79.708789 c -5.292073,0 -9.551846,-4.34945 -9.442984,-9.63985 l 0.575587,-27.82384 0.779963,-37.741065 C 71.820308,57.810458 79.68376,50.109262 89.314017,50.109262 h 27.886823 c 9.63235,0 17.49413,7.701196 17.69475,17.331453 l 0.77996,37.741065 z"
     id="path12-0-9-4" /><path
     style="fill:none;stroke:#6a7a55;stroke-width:0.208547;stroke-miterlimit:10;stroke-dasharray:2.08547, 2.08547"
     d="m 89.314017,52.02121 c -8.525792,0 -15.60511,6.935009 -15.781121,15.459133 l -1.355549,65.564907 c -0.04213,2.04083 0.721563,3.9678 2.150529,5.42638 1.428538,1.45857 3.339663,2.26189 5.380495,2.26189 h 47.097699 c 2.04209,0 3.95363,-0.80332 5.383,-2.26231 1.42897,-1.45857 2.19266,-3.38555 2.15054,-5.42638 v 0 L 132.98405,67.479926 C 132.80637,58.955802 125.72622,52.020793 117.20084,52.020793 H 89.314017 Z"
     id="path13-3-7-2" /><path
     style="fill:#407bff;fill-opacity:1;stroke-width:0.417093"
     d="m 136.25114,133.00562 c 0.10886,5.2904 -4.15091,9.63985 -9.44465,9.63985 H 79.708789 c -5.292073,0 -9.551846,-4.34945 -9.442984,-9.63985 l 0.575587,-27.82384 h 64.834578 z"
     id="path14-4-3-1" /><path
     style="fill:none;stroke:#a1603c;stroke-width:0.208547;stroke-miterlimit:10;stroke-dasharray:2.08547, 2.08547"
     d="m 72.750848,105.2969 -0.573501,27.74835 c -0.04213,2.04083 0.721563,3.9678 2.150529,5.42638 1.428538,1.45857 3.339663,2.26189 5.380495,2.26189 h 47.097699 c 2.04209,0 3.95363,-0.80332 5.383,-2.26231 1.42897,-1.45857 2.19266,-3.38555 2.15054,-5.42638 v 0 l -0.57601,-27.86347"
     id="path15-6-0-8" /><path
     style="fill:#5599ff;fill-opacity:1;stroke:#3b452f;stroke-width:1.25128;stroke-miterlimit:10"
     d="m 110.73632,50.109262 c 9.63109,0 17.49413,7.70203 17.69308,17.331036 l 0.67361,32.575782 0.10677,5.1657"
     id="path16-9-0-1" /><path
     style="fill:#407bff;fill-opacity:1;stroke-width:0.417093"
     d="M 125.82257,23.151296 H 59.495638 c -4.751526,0 -8.603787,3.851855 -8.603787,8.603797 v 9.750789 c 0,4.751526 3.851844,8.603797 8.603787,8.603797 h 66.382822 z"
     id="path17-9-8-3" /><path
     style="opacity:0.05;fill:#ffffff;stroke-width:0.417093"
     d="M 50.891851,31.755093 H 125.87805 V 23.151296 H 59.495221 c -4.751526,0 -8.60337,3.851855 -8.60337,8.603797 z"
     id="path18-0-4-9" /><path
     style="fill:#c6d8ff;fill-opacity:1;stroke-width:0.417093"
     d="m 129.0492,50.109262 h -3.22622 c -4.75151,0 -8.60378,-3.851854 -8.60378,-8.60338 v -9.750789 c 0,-4.751525 3.85185,-8.603797 8.60378,-8.603797 h 5.42472 c 4.75152,0 8.60378,3.851855 8.60378,8.603797 v 0 h -2.19849 v 9.750789 c -4.1e-4,4.751108 -3.85227,8.60338 -8.60379,8.60338 z"
     id="path19-8-1-6" /><path
     style="fill:#c6d8ff;fill-opacity:1;stroke-width:0.417093"
     d="m 130.77018,45.723107 h -4.40492 c -2.84248,0 -5.14692,-2.304432 -5.14692,-5.146919 v -7.891817 c 0,-2.842488 2.30444,-5.14692 5.14692,-5.14692 h 4.40492 c 2.84249,0 5.14693,2.304432 5.14693,5.14692 v 7.892234 c 0,2.84207 -2.30444,5.146502 -5.14693,5.146502 z"
     id="path20-0-2-1" /><path
     style="fill:none;stroke:#855445;stroke-width:0.417093;stroke-miterlimit:10"
     d="m 137.65258,41.525487 c 0,3.526519 -2.85876,6.385275 -6.38528,6.385275 h -5.46476 c -3.52651,0 -6.38526,-2.858756 -6.38526,-6.385275 v -9.790833 c 0,-3.526519 2.85875,-6.385275 6.38526,-6.385275 h 5.46476 c 3.52652,0 6.38528,2.858756 6.38528,6.385275"
     id="path21-3-6-6" /><path
     style="fill:none;stroke:#855445;stroke-width:0.417093;stroke-miterlimit:10"
     d="m 130.24792,43.70188 h -3.426 c -2.21058,0 -4.00283,-1.792251 -4.00283,-4.002838 v -6.137943 c 0,-2.210587 1.79225,-4.002837 4.00283,-4.002837 h 3.426 c 2.2106,0 4.00284,1.79225 4.00284,4.002837 v 6.137943 c 0,2.211004 -1.79182,4.002838 -4.00284,4.002838 z"
     id="path22-2-5-8" /><path
     style="fill:#407bff;fill-opacity:1;stroke:#855445;stroke-width:0.417093;stroke-miterlimit:10"
     d="m 129.33116,39.917184 h -1.59246 c -1.02772,0 -1.86065,-0.832939 -1.86065,-1.860651 v -2.852915 c 0,-1.027722 0.83293,-1.860651 1.86065,-1.860651 h 1.59246 c 1.02771,0 1.86065,0.832929 1.86065,1.860651 v 2.852915 c 0,1.027712 -0.83294,1.860651 -1.86065,1.860651 z"
     id="path23-1-2-3" /><path
     style="fill:#aaccff;stroke-width:0.417093"
     d="M 111.77196,142.64547 H 64.674259 c -5.292906,0 -9.552669,-4.34861 -9.4434,-9.64027 l 1.35556,-65.564485 c 0.198954,-9.629006 8.061978,-17.331036 17.693069,-17.331036 h 27.886822 c 9.6311,0 17.49413,7.70203 17.69308,17.331036 l 1.35555,65.564485 c 0.1097,5.29124 -4.15007,9.64027 -9.44298,9.64027 z"
     id="path24-3-5-9" /><path
     style="fill:none;stroke:#8a9e6d;stroke-width:0.208547;stroke-miterlimit:10;stroke-dasharray:2.08547, 2.08547"
     d="m 74.279488,52.02121 c -8.525792,0 -15.605527,6.934592 -15.781538,15.458716 L 57.1424,133.04441 c -0.04213,2.04125 0.721575,3.96864 2.150113,5.42722 1.428538,1.45857 3.340079,2.26189 5.381746,2.26189 h 47.097701 c 2.04168,0 3.95279,-0.80332 5.38176,-2.26189 1.42854,-1.45858 2.19223,-3.38597 2.15011,-5.42722 L 117.94827,67.479926 C 117.77184,58.955802 110.69252,52.02121 102.16673,52.02121 Z"
     id="path25-2-1-4" /><path
     style="fill:none;stroke:#8a9e6d;stroke-width:0.417093;stroke-miterlimit:10"
     d="m 115.36647,56.019469 c -1.8619,1.500276 -4.22974,2.398278 -6.80737,2.398278 H 67.42749 c -2.452923,0 -4.716069,-0.813334 -6.534172,-2.185152"
     id="path26-9-7-0" /><path
     style="fill:#c6d8ff;fill-opacity:1;stroke-width:0.417093"
     d="M 113.04451,73.673755 C 112.88852,66.118954 106.7193,60.076107 99.162833,60.076107 v 0 c -4.065408,0 -7.404653,3.217462 -7.548127,7.280774 -0.37413,10.602499 -0.365798,12.486927 -3.391805,12.486927 -3.026006,0 -3.017663,-1.884428 -3.391794,-12.486927 -0.143484,-4.062895 -3.482313,-7.280774 -7.548127,-7.280774 v 0 c -7.55647,0 -13.725689,6.042847 -13.881687,13.597648 l -1.063585,51.440475 c -0.08593,4.15173 3.256245,7.56356 7.408824,7.56356 h 36.951918 c 4.15258,0 7.49474,-3.41183 7.40882,-7.56356 z"
     id="path27-5-6-4" /><line
     style="fill:none;stroke:#8a9e6d;stroke-width:0.417093;stroke-miterlimit:10"
     x1="62.750198"
     y1="105.18178"
     x2="113.69559"
     y2="105.18178"
     id="line27-9-5-8" /><path
     style="fill:#afc8ff;fill-opacity:1;stroke-width:0.417093"
     d="m 123.35087,110.73495 v 13.67439 c 0,1.89527 1.53658,3.43184 3.43184,3.43184 h 6.87453 c 2.48754,0 4.50377,-2.01622 4.50377,-4.50377 v -8.09828 c 0,-2.48753 -2.01623,-4.50376 -4.50377,-4.50376 h -10.30637 z"
     id="path28-8-3-7" /><path
     style="fill:#c6d8ff;fill-opacity:1;stroke-width:0.417093"
     d="m 123.35087,110.73495 v 13.82537 c 0,1.81186 1.46859,3.28044 3.28044,3.28044 h 0.59645 c 2.48754,0 4.50376,-2.01622 4.50376,-4.50376 v -8.09828 c 0,-2.48754 -2.01664,-4.50377 -4.50376,-4.50377 z"
     id="path29-5-2-4" /><path
     style="fill:#b3caff;fill-opacity:1;stroke-width:0.417093"
     d="m 123.35087,109.91161 v 0.82334 h 2.45042 c 2.0104,0 3.63997,1.62959 3.63997,3.63997 v 0 c 0,0.48341 0.39207,0.87548 0.87548,0.87548 h 7.69203 c 0.58226,0 1.05399,-0.47173 1.05399,-1.05399 v -2.26732 c 0,-1.9716 -1.59829,-3.57032 -3.57031,-3.57032 h -10.58831 c -0.85797,-4.2e-4 -1.55327,0.69529 -1.55327,1.55284 z"
     id="path30-7-8-3" /><path
     style="fill:#3b452f;stroke-width:0.417093"
     d="m 135.71976,113.87107 c 0,0.3783 -0.30655,0.68528 -0.68528,0.68528 -0.3783,0 -0.68487,-0.30656 -0.68487,-0.68528 0,-0.3783 0.30657,-0.68528 0.68487,-0.68528 0.37831,4.1e-4 0.68528,0.30698 0.68528,0.68528 z"
     id="path31-2-8-4" /><path
     style="fill:#5599ff;fill-opacity:1;stroke-width:0.417093"
     d="m 113.41698,145.14511 -5.70541,-8.48409 C 100.60681,126.09648 96.812516,113.65418 96.812516,100.92284 V 58.928688 c 0,-1.702994 1.380578,-3.083571 3.083561,-3.083571 h 4.397413 c 1.70299,0 3.08357,1.380577 3.08357,3.083571 v 41.994152 c 0,20.12223 8.07742,34.2062 12.15575,40.03465 1.18746,1.69716 0.74702,4.03871 -0.97183,5.19489 v 0 c -1.69881,1.14243 -4.002,0.69113 -5.144,-1.00727 z"
     id="path32-7-1-7" /><path
     style="fill:none;stroke:#4b573b;stroke-width:0.417093;stroke-miterlimit:10"
     d="m 101.99739,55.844699 v 47.459741 c 0,7.84176 1.93865,15.56215 5.64286,22.4738 l 10.9199,20.37373"
     id="path33-3-5-8" /><path
     style="fill:#407bff;fill-opacity:1;stroke-width:0.417093"
     d="m 103.71831,105.18178 h -3.44142 c -0.540973,0 -0.979342,-0.43837 -0.979342,-0.97933 V 73.266671 c 0,-0.540975 0.438369,-0.979334 0.979342,-0.979334 h 3.44142 c 0.54098,0 0.97934,0.438359 0.97934,0.979334 v 30.935779 c 0,0.54054 -0.43836,0.97933 -0.97934,0.97933 z"
     id="path34-3-6-2" /><path
     style="fill:#393335;stroke-width:0.417093"
     d="m 101.99781,89.359779 c -2.493383,0 -4.521285,-2.027901 -4.521285,-4.520869 v -2.629351 c 0,-1.043156 0.84878,-1.891936 1.892353,-1.891936 h 5.257452 c 1.04357,0 1.89235,0.84878 1.89235,1.891936 v 2.629351 c 0,2.492968 -2.0279,4.520869 -4.52087,4.520869 z m -2.628932,-7.790463 c -0.353701,0 -0.641077,0.287376 -0.641077,0.64066 v 2.629351 c 0,1.802679 1.466919,3.269594 3.270009,3.269594 1.8031,0 3.27001,-1.466915 3.27001,-3.269594 v -2.629351 c 0,-0.353284 -0.28737,-0.64066 -0.64107,-0.64066 z"
     id="path35-8-4-6" /><rect
     x="99.297562"
     y="79.843811"
     style="fill:#263238;fill-opacity:1;stroke-width:0.417093"
     width="5.4001007"
     height="2.1989131"
     id="rect35-6-2-6" /><path
     style="fill:#5599ff;fill-opacity:1;stroke-width:0.417093"
     d="m 63.353332,145.14511 5.705414,-8.48409 c 7.104752,-10.56454 10.899053,-23.00683 10.899053,-35.73818 V 58.928688 c 0,-1.702994 -1.380578,-3.083571 -3.083572,-3.083571 H 72.47682 c -1.702994,0 -3.083572,1.380577 -3.083572,3.083571 v 41.994152 c 0,20.12223 -8.077422,34.2062 -12.155751,40.03465 -1.187464,1.69716 -0.747009,4.03871 0.972243,5.19489 v 0 c 1.698405,1.14243 4.001168,0.69113 5.143592,-1.00727 z"
     id="path36-7-9-1" /><path
     style="fill:none;stroke:#4b573b;stroke-width:0.417093;stroke-miterlimit:10"
     d="m 74.772492,55.844699 v 47.459741 c 0,7.84176 -1.938645,15.56215 -5.64326,22.4738 l -10.91991,20.37373"
     id="path37-1-4-2" /><path
     style="fill:#407bff;fill-opacity:1;stroke-width:0.417093"
     d="m 73.051572,105.18178 h 3.441434 c 0.540964,0 0.979333,-0.43837 0.979333,-0.97933 V 73.266671 c 0,-0.540975 -0.438369,-0.979334 -0.979333,-0.979334 h -3.441434 c -0.540975,0 -0.979334,0.438359 -0.979334,0.979334 v 30.935779 c 0,0.54054 0.438777,0.97933 0.979334,0.97933 z"
     id="path38-4-5-9" /><path
     style="fill:#393335;stroke-width:0.417093"
     d="m 74.772492,89.359779 c -2.492957,0 -4.520869,-2.027901 -4.520869,-4.520869 v -2.629351 c 0,-1.043156 0.84879,-1.891936 1.892353,-1.891936 h 5.25746 c 1.043563,0 1.892343,0.84878 1.892343,1.891936 v 2.629351 c 0,2.492968 -2.028319,4.520869 -4.521287,4.520869 z m -2.628934,-7.790463 c -0.353273,0 -0.641066,0.287376 -0.641066,0.64066 v 2.629351 c 0,1.802679 1.466915,3.269594 3.269583,3.269594 1.803096,0 3.270011,-1.466915 3.270011,-3.269594 v -2.629351 c 0,-0.353284 -0.287376,-0.64066 -0.641067,-0.64066 z"
     id="path39-5-5-2" /><rect
     x="-77.472656"
     y="-82.042938"
     transform="scale(-1)"
     style="fill:#263238;fill-opacity:1;stroke-width:0.417093"
     width="5.4001007"
     height="2.1989131"
     id="rect39-8-2-4" /><line
     style="fill:none;stroke:#8a9e6d;stroke-width:0.417093;stroke-miterlimit:10"
     x1="88.385139"
     y1="132.67822"
     x2="88.385139"
     y2="142.64548"
     id="line39-6-7-3" /><path
     style="fill:#0066ff;stroke-width:0.417093"
     d="m 160.26776,64.236205 c -1.40394,1.815183 -1.95782,4.250169 -1.28173,6.626766 0.67612,2.376597 2.42831,4.155499 4.5772,4.960479 1.40392,-1.815599 1.95782,-4.250168 1.28171,-6.626765 -0.6761,-2.376597 -2.42831,-4.155489 -4.57718,-4.96048 z"
     id="path40-8-0-0-9" /><path
     style="fill:#0066ff;stroke-width:0.417093"
     d="m 36.06889,7.5000001 c -1.40394,1.815183 -1.95782,4.2501689 -1.28173,6.6267659 0.67612,2.376597 2.42831,4.155499 4.5772,4.960479 1.40392,-1.815599 1.95782,-4.250168 1.28171,-6.626765 -0.6761,-2.376597 -2.42831,-4.1554889 -4.57718,-4.9604799 z"
     id="path40-8-0-0-9-4" /><path
     style="fill:#0066ff;stroke-width:0.284484"
     d="m 174.20888,10.25 c -0.95758,1.238069 -1.33536,2.898882 -0.87422,4.519871 0.46115,1.620989 1.65626,2.834312 3.12194,3.383359 0.95756,-1.238353 1.33536,-2.898882 0.8742,-4.519871 -0.46113,-1.620988 -1.65625,-2.834304 -3.12192,-3.383359 z"
     id="path40-8-0-0-9-5" /><path
     style="fill:#0066ff;stroke-width:0.417093"
     d="m 52.373772,85.755266 c -2.214341,0.602284 -4.123796,2.211432 -5.01721,4.51503 -0.892987,2.304026 -0.567244,4.779474 0.662351,6.716867 2.214341,-0.602283 4.123797,-2.211432 5.01721,-4.51503 0.893414,-2.304025 0.567661,-4.779473 -0.662351,-6.716867 z"
     id="path41-2-5-7-1" /><path
     style="fill:#0066ff;stroke-width:0.417093"
     d="m 28.969449,58.631311 c -1.110304,-1.227092 -3.133617,-0.868803 -3.755089,0.664844 -0.510106,1.258367 -0.684032,2.670647 -0.429609,4.106276 0.430861,2.433318 1.992872,4.381139 4.049139,5.400101 1.5812,-1.663365 2.379934,-4.029117 1.949073,-6.462017 -0.254422,-1.436047 -0.902173,-2.702767 -1.813514,-3.709204 z"
     id="path42-8-3-0" /><path
     style="fill:#2a7fff;stroke-width:0.417093"
     d="m 35.700489,56.63385 c -0.387062,-1.960336 -2.917979,-2.498391 -4.069152,-0.865466 -0.899671,1.276304 -1.588291,2.826219 -1.955747,4.555065 -0.679454,3.195353 -0.10928,6.277246 1.322595,8.42277 2.180981,-1.377231 3.956129,-3.96029 4.635572,-7.15605 0.367456,-1.728439 0.369542,-3.424331 0.06674,-4.956319 z"
     id="path43-3-8-4" /><path
     style="fill:none;stroke:#424d34;stroke-width:1.66837;stroke-miterlimit:10"
     d="m 94.470124,-9.8741067 c 0,0 4.827424,34.0627287 31.408326,36.2870817 26.7319,2.237283 36.03724,-15.432437 36.03724,-15.432437"
     id="path44-2-5-7"
     inkscape:label="path44-2-5" /><path
     style="fill:none;stroke:#424d34;stroke-width:1.66837;stroke-miterlimit:10"
     d="M 50.196556,-2.0786378 C 58.479596,8.5818436 72.519357,14.081213 85.988955,13.170696 89.482363,12.934544 92.924934,12.295688 96.267777,11.305801 105.81397,8.4789567 114.54682,2.7894462 121.32757,-4.5590915"
     id="path45-4-9-5"
     sodipodi:nodetypes="cssc" /><g
     id="g58-8-0-2"
     transform="matrix(0.41709281,0,0,0.41709281,-7.6512999,-29.132952)">
			<path
   style="clip-rule:evenodd;fill:#2a7fff;fill-rule:evenodd"
   d="m 233.515,76.04 c -0.398,4.469 -1.97,7.268 -6.003,9.049 -1.194,-4.861 -0.79,-5.531 6.003,-9.049 z"
   id="path46-6-4-7" />
			<path
   style="clip-rule:evenodd;fill:#aaccff;fill-rule:evenodd"
   d="m 236.944,161.687 c -3.493,-1.748 -4.799,-4.604 -4.943,-8.667 4.871,2.385 5.268,3.108 4.943,8.667 z"
   id="path47-8-1-1" />
			<path
   style="clip-rule:evenodd;fill:#aaccff;fill-rule:evenodd"
   d="m 291.737,151.819 c 4.705,1.636 6.414,4.438 6.408,8.392 -5.782,-1.837 -6.278,-2.472 -6.408,-8.392 z"
   id="path48-4-0-2" />
			<path
   style="clip-rule:evenodd;fill:#2a7fff;fill-rule:evenodd"
   d="m 97.652,166.037 c 4.705,1.636 6.413,4.438 6.408,8.392 -5.782,-1.837 -6.279,-2.471 -6.408,-8.392 z"
   id="path49-1-0-8" />
			<path
   style="clip-rule:evenodd;fill:#2a7fff;fill-rule:evenodd"
   d="m 399.648,172.727 c -0.49,5.174 -1.989,8.096 -7.117,9.816 -0.382,-4.474 1.746,-7.098 7.117,-9.816 z"
   id="path50-4-4-8" /><path
   style="clip-rule:evenodd;fill:#2a7fff;fill-rule:evenodd;stroke-width:0.653709"
   d="m 409.29709,136.52735 c -0.32032,3.38229 -1.30023,5.29242 -4.65245,6.4168 -0.24972,-2.92469 1.14137,-4.64002 4.65245,-6.4168 z"
   id="path50-4-4-8-9" />
			<path
   style="clip-rule:evenodd;fill:#2a7fff;fill-rule:evenodd"
   d="m 325.283,170.211 c 2.723,-4.482 5.86,-5.25 9.49,-5.391 -2.138,5.586 -2.91,6.04 -9.49,5.391 z"
   id="path51-3-5-7" />
			<path
   style="clip-rule:evenodd;fill:#aaccff;fill-rule:evenodd"
   d="m 253.159,129.465 c 0.296,-4.089 1.936,-6.965 6.383,-8.769 0.462,5.559 -0.034,6.275 -6.383,8.769 z"
   id="path52-9-4-1" />
			<path
   style="clip-rule:evenodd;fill:#2a7fff;fill-rule:evenodd"
   d="m 322.998,89.909 c 5.365,2.53 7.046,5.212 7.03,9.439 -5.436,-1.628 -6.762,-4.553 -7.03,-9.439 z"
   id="path53-2-9-7" />
			<path
   style="clip-rule:evenodd;fill:#0066ff;fill-rule:evenodd"
   d="m 360.29,149.825 c -5.011,-1.71 -6.67,-4.486 -6.58,-8.917 5.319,1.74 6.953,4.532 6.58,8.917 z"
   id="path54-7-2-4" />
			<path
   style="clip-rule:evenodd;fill:#0066ff;fill-rule:evenodd"
   d="m 116.211,147.899 c 4.746,-3.47 8.473,-2.848 13.117,-0.828 -4.393,3.199 -8.137,2.257 -13.117,0.828 z"
   id="path55-2-8-0" />
			<path
   style="clip-rule:evenodd;fill:#0066ff;fill-rule:evenodd"
   d="m 189.716,113.742 c 4.532,-2.415 8.189,-2.459 12.093,-0.421 -4.449,2.973 -4.869,2.999 -12.093,0.421 z"
   id="path56-9-5-0" />
			<path
   style="fill:#80b3ff"
   d="m 194.513,140.674 c -0.755,2.026 -0.573,4.37 0.699,6.319 1.273,1.949 3.346,3.059 5.504,3.182 0.755,-2.025 0.573,-4.37 -0.7,-6.319 -1.271,-1.948 -3.345,-3.059 -5.503,-3.182 z"
   id="path57-2-7-5" />
			<path
   style="fill:#0066ff"
   d="m 376.998,186.297 c -1.878,1.071 -3.24,2.988 -3.513,5.299 -0.272,2.312 0.608,4.493 2.186,5.97 1.878,-1.071 3.241,-2.988 3.513,-5.299 0.272,-2.311 -0.608,-4.492 -2.186,-5.97 z"
   id="path58-7-3-0" />
		</g><path
     style="opacity:0.05;fill:#ffffff;stroke-width:0.417093"
     d="m 138.68738,146.40807 h -28.87576 v 0 c 0,0.60645 0.49134,1.09779 1.09779,1.09779 h 26.68018 c 0.60645,0 1.09779,-0.49176 1.09779,-1.09779 z"
     id="path67-7-5-6" /><g
     id="g10-7-2"
     transform="matrix(1.0428428,0,0,1.0428428,-423.93049,-279.70219)"><circle
       style="fill:#393335;stroke-width:0.399958"
       cx="546.81537"
       cy="404.19125"
       r="0.59193712"
       id="circle65-8-1-1-6" /><circle
       style="fill:#393335;stroke-width:0.399958"
       cx="571.92871"
       cy="404.19125"
       r="0.59193712"
       id="circle66-2-91-4-8" /><path
       style="opacity:0.05;fill:#ffffff;stroke-width:0.399958"
       d="m 573.21657,406.99295 h -27.68946 v 0 c 0,0.58154 0.47115,1.05269 1.05269,1.05269 h 25.58408 c 0.58154,0 1.05269,-0.47155 1.05269,-1.05269 z"
       id="path67-7-0-9-6" /><g
       id="g2-4-2"
       transform="translate(0.4580048,140.69416)"><g
         id="g60-3-6-7-5-9"
         transform="matrix(0.39995751,0,0,0.39995751,432.23161,98.109111)"
         style="fill:#b3caff;fill-opacity:1">
			<path
   style="fill:#b3caff;fill-opacity:1"
   d="m 330.83,397.951 11.368,11.368 5.911,-5.911 -11.368,-11.368 c -0.652,-0.652 -1.361,-1.249 -2.115,-1.78 -0.244,-0.174 -0.492,-0.338 -0.75,-0.492 -0.206,-0.129 -0.415,-0.255 -0.628,-0.377 l -0.004,-0.004 c -0.164,-0.087 -0.328,-0.174 -0.492,-0.262 -0.848,-0.436 -1.734,-0.799 -2.648,-1.078 -0.363,-0.112 -0.715,-0.143 -1.054,-0.105 -0.171,0.017 -0.332,0.052 -0.492,0.101 -0.408,0.129 -0.778,0.359 -1.075,0.656 -0.297,0.297 -0.523,0.663 -0.649,1.068 -0.052,0.157 -0.084,0.321 -0.101,0.492 -0.038,0.339 -0.01,0.694 0.101,1.057 0.279,0.914 0.646,1.797 1.082,2.645 0.087,0.164 0.174,0.328 0.262,0.492 l 0.003,0.004 c 0.08,0.143 0.161,0.279 0.244,0.419 0.042,0.07 0.087,0.143 0.133,0.209 0.154,0.258 0.318,0.506 0.492,0.75 0.531,0.755 1.127,1.463 1.78,2.116 z"
   id="path59-0-4-7-4-2" />
			<path
   style="fill:#b3caff;fill-opacity:1"
   d="m 331.531,398.652 h 1.221 v 1.221 l 0.495,0.495 v -1.717 h 3.699 v 3.699 h -1.717 l 0.496,0.496 h 1.221 v 1.221 l 0.495,0.496 v -1.717 h 3.699 v 3.699 h -1.717 l 0.495,0.495 h 1.221 v 1.221 l 0.496,0.495 v -1.717 h 2.84 l 0.495,-0.495 h -3.336 v -3.699 h 3.699 v 3.336 l 0.495,-0.495 v -2.84 h 1.717 l -0.495,-0.496 h -1.221 v -1.221 l -0.495,-0.496 v 1.717 h -3.699 v -3.699 h 1.717 l -0.495,-0.495 h -1.221 v -1.221 l -0.496,-0.495 v 1.717 h -3.699 v -3.699 h 1.717 l -0.495,-0.496 h -1.221 v -1.221 l -0.495,-0.495 v 1.717 h -3.699 l -0.004,-3.702 h 1.382 c -0.244,-0.174 -0.492,-0.338 -0.75,-0.492 h -0.628 v -0.377 l -0.004,-0.004 c -0.164,-0.087 -0.328,-0.174 -0.492,-0.262 v 0.642 h -3.699 l -0.004,-1.825 c -0.171,0.017 -0.332,0.052 -0.492,0.101 v 1.724 h -1.724 c -0.052,0.157 -0.084,0.321 -0.101,0.492 l 1.825,0.003 v 3.699 h -0.642 c 0.087,0.164 0.174,0.328 0.262,0.492 l 0.003,0.004 h 0.377 v 0.628 c 0.154,0.258 0.318,0.506 0.492,0.75 v -1.382 l 3.702,0.004 v 3.699 h -1.717 z m 1.222,-4.689 h -3.699 l -0.004,-3.702 3.702,0.003 v 3.699 z m 4.689,4.689 h 3.699 v 3.699 h -3.699 z m -4.194,-0.495 v -3.699 h 3.699 v 3.699 z"
   id="path60-6-4-9-7-4" />
		</g><path
         style="fill:#c6d8ff;fill-opacity:1;stroke-width:0.399958"
         d="m 561.71745,250.65051 c 0.33877,-0.49995 0.65433,-0.9799 0.9491,-1.44305 2.78291,-4.36074 3.68521,-7.01526 3.68521,-7.01526 -0.80231,-0.0404 -1.59783,-0.0168 -2.38175,0.0672 -1.65702,0.17638 -3.26165,0.61993 -4.75469,1.30346 -1.8654,0.85311 -3.55682,2.07938 -4.95867,3.62081 -0.48675,0.53555 -0.9383,1.10709 -1.35026,1.71462 l -7.15164,10.55528 5.44422,3.68881 c 1.05269,-1.04349 2.03499,-2.06378 2.95369,-3.05768 0.8923,-0.96149 1.72261,-1.89859 2.49573,-2.8077 0.77552,-0.9123 1.49544,-1.79541 2.16017,-2.64652 1.11668,-1.42265 2.07978,-2.7561 2.90889,-3.97997 z"
         id="path61-5-8-4-9-0" /><path
         style="fill:#b3caff;fill-opacity:1;stroke-width:0.399958"
         d="m 561.71745,250.65051 c 3.53043,-5.21065 4.63431,-8.45831 4.63431,-8.45831 -0.80231,-0.0404 -1.59783,-0.0168 -2.38175,0.0672 -1.75941,3.49723 -5.80018,10.21451 -13.99291,18.34045 l 0.85311,0.57794 c 0.45755,0.30996 0.66713,0.8763 0.52115,1.40905 l -0.15199,0.55514 c 4.81109,-4.77189 8.19113,-9.05704 10.51808,-12.49147 z"
         id="path62-5-0-1-1-9" /><path
         style="opacity:0.3;fill:#afc8ff;fill-opacity:1;stroke-width:0.399958"
         d="m 556.64879,257.2766 -4.46752,-7.30842 -2.21417,3.26805 4.18556,6.84807 c 0.8923,-0.96149 1.72261,-1.89859 2.49613,-2.8077 z"
         id="path63-0-2-9-9-1" /><path
         style="opacity:0.3;fill:#79a2ff;fill-opacity:1;stroke-width:0.399958"
         d="m 561.71745,250.65051 c 0.33877,-0.49995 0.65433,-0.9799 0.9491,-1.44305 l -3.45123,-5.645 c -1.8654,0.85311 -3.55682,2.07938 -4.95867,3.62081 l 4.55231,7.44721 c 1.11628,-1.42265 2.07938,-2.7561 2.90849,-3.97997 z"
         id="path64-9-1-1-8-4" /><path
         style="fill:#407bff;fill-opacity:1;stroke-width:0.399958"
         d="m 571.43482,259.45317 h -25.4425 c -2.31055,0 -4.18355,1.873 -4.18355,4.18356 v 0 c 0,2.31055 1.873,4.18355 4.18355,4.18355 h 25.4425 c 2.31056,0 4.18356,-1.873 4.18356,-4.18355 v 0 c 0,-2.31056 -1.873,-4.18356 -4.18356,-4.18356 z"
         id="path65-5-2-3-4-0" /><circle
         style="fill:#393335;stroke-width:0.399958"
         cx="546.1571"
         cy="263.63675"
         r="0.59193712"
         id="circle65-8-5-2-6-2" /><circle
         style="fill:#393335;stroke-width:0.399958"
         cx="571.27045"
         cy="263.63675"
         r="0.59193712"
         id="circle66-2-8-2-9-6" /><path
         style="fill:#c6d8ff;fill-opacity:1;stroke-width:0.399958"
         d="m 567.03009,261.9861 h -16.63263 c -0.91151,0 -1.65063,0.73912 -1.65063,1.65063 v 0 c 0,0.9115 0.73912,1.65062 1.65063,1.65062 h 16.63263 c 0.9115,0 1.65062,-0.73912 1.65062,-1.65062 v 0 c 0,-0.91151 -0.73912,-1.65063 -1.65062,-1.65063 z"
         id="path66-9-4-3-8-0" /><path
         style="opacity:0.05;fill:#ffffff;stroke-width:0.399958"
         d="m 572.5583,266.43843 h -27.68946 v 0 c 0,0.58154 0.47115,1.05269 1.05269,1.05269 h 25.58408 c 0.58154,0 1.05269,-0.47155 1.05269,-1.05269 z"
         id="path67-7-3-1-3-5" /></g></g></g></svg>
