<?xml version="1.0" encoding="UTF-8" standalone="no"?>
<!-- Generator: Adobe Illustrator 27.5.0, SVG Export Plug-In . SVG Version: 6.00 Build 0)  -->

<svg
   version="1.1"
   x="0px"
   y="0px"
   viewBox="0 0 199 155"
   xml:space="preserve"
   id="svg247"
   sodipodi:docname="listar1.svg"
   inkscape:version="1.3.2 (091e20e, 2023-11-25, custom)"
   width="199"
   height="155"
   xmlns:inkscape="http://www.inkscape.org/namespaces/inkscape"
   xmlns:sodipodi="http://sodipodi.sourceforge.net/DTD/sodipodi-0.dtd"
   xmlns="http://www.w3.org/2000/svg"
   xmlns:svg="http://www.w3.org/2000/svg"><defs
   id="defs247" /><sodipodi:namedview
   id="namedview247"
   pagecolor="#ffffff"
   bordercolor="#000000"
   borderopacity="0.25"
   inkscape:showpageshadow="2"
   inkscape:pageopacity="0.0"
   inkscape:pagecheckerboard="true"
   inkscape:deskcolor="#d1d1d1"
   inkscape:zoom="3.284"
   inkscape:cx="98.507917"
   inkscape:cy="85.414129"
   inkscape:window-width="2560"
   inkscape:window-height="1017"
   inkscape:window-x="1912"
   inkscape:window-y="-8"
   inkscape:window-maximized="1"
   inkscape:current-layer="svg247" />

<g
   id="Background_Simple"
   style="display:none">
	<g
   style="display:inline"
   id="g41">
		<path
   style="fill:#407bff"
   d="m 241.936,74.075 c 7.832,-1.91 16.622,-1.622 26.341,1.643 15.617,5.247 27.043,19.004 34.173,33.856 13.796,28.739 17.651,60.899 27.547,90.911 2.714,8.23 5.923,16.453 11.228,23.305 22.071,28.507 82.754,12.137 82.176,62.137 -0.163,14.13 -7.771,27.655 -18.876,36.394 -32.69,25.724 -78.654,11.019 -113.588,-0.656 -32.732,-10.939 -61.068,-12.275 -93.872,0.819 -27.802,11.097 -56.895,29.991 -88.174,24.881 -31.807,-5.197 -46.032,-36.584 -40.707,-66.182 5.677,-31.551 30.416,-54.82 58.857,-67.405 16.966,-7.508 39.284,-12.096 52.582,-25.755 6.83,-7.015 9.803,-16.855 11.975,-26.402 3.458,-15.205 5.5,-30.795 10.651,-45.513 6.453,-18.439 19.682,-37.153 39.687,-42.033 z"
   id="path40" />
		<path
   style="opacity:0.9;fill:#ffffff"
   d="m 241.936,74.075 c 7.832,-1.91 16.622,-1.622 26.341,1.643 15.617,5.247 27.043,19.004 34.173,33.856 13.796,28.739 17.651,60.899 27.547,90.911 2.714,8.23 5.923,16.453 11.228,23.305 22.071,28.507 82.754,12.137 82.176,62.137 -0.163,14.13 -7.771,27.655 -18.876,36.394 -32.69,25.724 -78.654,11.019 -113.588,-0.656 -32.732,-10.939 -61.068,-12.275 -93.872,0.819 -27.802,11.097 -56.895,29.991 -88.174,24.881 -31.807,-5.197 -46.032,-36.584 -40.707,-66.182 5.677,-31.551 30.416,-54.82 58.857,-67.405 16.966,-7.508 39.284,-12.096 52.582,-25.755 6.83,-7.015 9.803,-16.855 11.975,-26.402 3.458,-15.205 5.5,-30.795 10.651,-45.513 6.453,-18.439 19.682,-37.153 39.687,-42.033 z"
   id="path41" />
	</g>
</g>





<g
   id="Background_Complete"
   transform="matrix(0.42467114,0,0,0.42467114,-6.4126555,-27.482864)">
	<g
   id="g8">
		<rect
   y="382.39801"
   style="fill:#ebebeb"
   width="500"
   height="0.25"
   id="rect1"
   x="0" />
		<rect
   x="416.77899"
   y="398.49399"
   style="fill:#ebebeb"
   width="33.122002"
   height="0.25"
   id="rect2" />
		<rect
   x="322.52701"
   y="401.20801"
   style="fill:#ebebeb"
   width="8.6929998"
   height="0.25"
   id="rect3" />
		<rect
   x="396.586"
   y="389.20801"
   style="fill:#ebebeb"
   width="19.191999"
   height="0.25"
   id="rect4" />
		<rect
   x="52.459"
   y="390.888"
   style="fill:#ebebeb"
   width="43.193001"
   height="0.25"
   id="rect5" />
		<rect
   x="104.556"
   y="390.888"
   style="fill:#ebebeb"
   width="6.3330002"
   height="0.25"
   id="rect6" />
		<rect
   x="131.47099"
   y="395.11099"
   style="fill:#ebebeb"
   width="93.676003"
   height="0.25"
   id="rect7" />
		<path
   style="fill:#ebebeb"
   d="M 237.014,337.8 H 43.915 c -3.147,0 -5.708,-2.561 -5.708,-5.708 V 60.66 c 0,-3.147 2.561,-5.708 5.708,-5.708 h 193.099 c 3.146,0 5.707,2.561 5.707,5.708 v 271.432 c 0,3.147 -2.561,5.708 -5.707,5.708 z M 43.915,55.203 c -3.01,0 -5.458,2.448 -5.458,5.458 v 271.432 c 0,3.01 2.448,5.458 5.458,5.458 h 193.099 c 3.009,0 5.457,-2.448 5.457,-5.458 V 60.66 c 0,-3.009 -2.448,-5.458 -5.457,-5.458 H 43.915 Z"
   id="path7" />
		<path
   style="fill:#ebebeb"
   d="M 453.31,337.8 H 260.212 c -3.147,0 -5.707,-2.561 -5.707,-5.708 V 60.66 c 0,-3.147 2.561,-5.708 5.707,-5.708 H 453.31 c 3.148,0 5.708,2.561 5.708,5.708 v 271.432 c 0.001,3.147 -2.56,5.708 -5.708,5.708 z M 260.212,55.203 c -3.009,0 -5.457,2.448 -5.457,5.458 v 271.432 c 0,3.01 2.448,5.458 5.457,5.458 H 453.31 c 3.01,0 5.458,-2.448 5.458,-5.458 V 60.66 c 0,-3.009 -2.448,-5.458 -5.458,-5.458 H 260.212 Z"
   id="path8" />
	</g>
	<g
   id="g50">
		<path
   style="fill:#f0f0f0"
   d="m 207,127.667 c 0,-6.259 -5.074,-11.333 -11.333,-11.333 -1.132,0 -2.223,0.171 -3.254,0.48 0.165,-1.136 0.254,-2.298 0.254,-3.48 0,-13.255 -10.745,-24 -24,-24 -1.511,0 -2.987,0.146 -4.421,0.413 -3.689,-6.037 -10.32,-10.08 -17.912,-10.08 -11.492,0 -20.813,9.233 -20.984,20.684 -0.118,-0.002 -0.232,-0.018 -0.349,-0.018 -10.677,0 -19.333,8.656 -19.333,19.333 0,10.678 8.656,19.333 19.333,19.333 h 71 l -0.014,-0.016 C 202.096,138.814 207,133.818 207,127.667 Z"
   id="path9" />
		<path
   style="fill:#f0f0f0"
   d="m 285,178.371 c 0,-3.109 -2.52,-5.629 -5.629,-5.629 -0.562,0 -1.104,0.085 -1.616,0.238 0.082,-0.565 0.126,-1.141 0.126,-1.728 0,-6.584 -5.337,-11.921 -11.921,-11.921 -0.75,0 -1.484,0.073 -2.196,0.205 -1.832,-2.999 -5.126,-5.007 -8.897,-5.007 -5.708,0 -10.338,4.586 -10.423,10.274 -0.058,-0.001 -0.115,-0.009 -0.173,-0.009 -5.304,0 -9.603,4.299 -9.603,9.603 0,5.304 4.299,9.603 9.603,9.603 h 35.266 l -0.007,-0.008 c 3.034,-0.085 5.47,-2.566 5.47,-5.621 z"
   id="path10" />
		<path
   style="fill:#f0f0f0"
   d="m 409.5,123.551 c 0,-1.904 -1.544,-3.448 -3.448,-3.448 -0.344,0 -0.676,0.052 -0.99,0.146 0.05,-0.346 0.077,-0.699 0.077,-1.059 0,-4.033 -3.27,-7.303 -7.303,-7.303 -0.46,0 -0.909,0.044 -1.345,0.126 -1.122,-1.837 -3.14,-3.067 -5.45,-3.067 -3.497,0 -6.333,2.81 -6.385,6.294 -0.036,-10e-4 -0.07,-0.005 -0.106,-0.005 -3.249,0 -5.883,2.634 -5.883,5.883 0,3.249 2.634,5.883 5.883,5.883 h 21.604 l -0.004,-0.005 c 1.858,-0.053 3.35,-1.573 3.35,-3.445 z"
   id="path11" />
		<g
   id="g16">
			
				<text
   transform="translate(134.9987,112.9824)"
   style="font-size:7px;font-family:Bebas;writing-mode:tb-rl;fill:#ebebeb"
   id="text11">101010000111110101010101</text>
			
				<text
   transform="translate(142.4987,112.9824)"
   style="font-size:7px;font-family:Bebas;writing-mode:tb-rl;fill:#ebebeb"
   id="text12">001101100110001101011111</text>
			
				<text
   transform="translate(149.9987,112.9824)"
   style="font-size:7px;font-family:Bebas;writing-mode:tb-rl;fill:#ebebeb"
   id="text13">111110101010101011110000</text>
			
				<text
   transform="translate(157.4987,112.9824)"
   style="font-size:7px;font-family:Bebas;writing-mode:tb-rl;fill:#ebebeb"
   id="text14">101010000111110101010101</text>
			
				<text
   transform="translate(164.9987,112.9824)"
   style="font-size:7px;font-family:Bebas;writing-mode:tb-rl;fill:#ebebeb"
   id="text15">000101011111000000110101</text>
			
				<text
   transform="translate(172.4987,112.9824)"
   style="font-size:7px;font-family:Bebas;writing-mode:tb-rl;fill:#ebebeb"
   id="text16">110011001101010101001100</text>
		</g>
		<g
   id="g19">
			<rect
   x="45.5"
   y="238.65199"
   style="fill:#f5f5f5"
   width="226.511"
   height="144.08501"
   id="rect16" />
			<rect
   x="45.5"
   y="238.65199"
   style="fill:#e0e0e0"
   width="226.511"
   height="9.7639999"
   id="rect17" />
			<path
   style="fill:#fafafa"
   d="m 268.642,243.534 c 0,1.624 -1.317,2.941 -2.941,2.941 -1.624,0 -2.941,-1.317 -2.941,-2.941 0,-1.624 1.317,-2.941 2.941,-2.941 1.625,-10e-4 2.941,1.316 2.941,2.941 z"
   id="path17" />
			<path
   style="fill:#fafafa"
   d="m 258.868,243.534 c 0,1.624 -1.317,2.941 -2.941,2.941 -1.624,0 -2.941,-1.317 -2.941,-2.941 0,-1.624 1.317,-2.941 2.941,-2.941 1.624,-10e-4 2.941,1.316 2.941,2.941 z"
   id="path18" />
			<path
   style="fill:#fafafa"
   d="m 249.093,243.534 c 0,1.624 -1.317,2.941 -2.941,2.941 -1.624,0 -2.941,-1.317 -2.941,-2.941 0,-1.624 1.317,-2.941 2.941,-2.941 1.624,0 2.941,1.316 2.941,2.941 z"
   id="path19" />
		</g>
		<g
   id="g21">
			<path
   style="fill:#e0e0e0"
   d="m 86.463,265.341 -1.395,-1.94 c -0.51,-0.71 -1.326,-1.136 -2.172,-1.136 h -9.825 c -0.846,0 -1.612,0.426 -2.04,1.136 l -1.17,1.94 c -0.428,0.71 -1.194,1.137 -2.04,1.137 h -5.863 c -1.398,0 -2.465,1.143 -2.383,2.552 l 1.898,32.813 c 0.082,1.41 1.281,2.552 2.679,2.552 h 46.469 c 1.398,0 2.465,-1.143 2.383,-2.552 l -1.898,-32.813 c -0.082,-1.41 -1.281,-2.552 -2.679,-2.552 H 88.635 c -0.847,0 -1.662,-0.426 -2.172,-1.137 z"
   id="path20" />
			<path
   style="fill:#e6e6e6"
   d="M 113.07,269.605 H 70.497 c -1.775,0 -3.342,1.427 -3.501,3.188 l -2.559,28.414 c -0.159,1.761 1.152,3.188 2.927,3.188 h 42.572 c 1.775,0 3.342,-1.427 3.501,-3.188 l 2.559,-28.414 c 0.159,-1.761 -1.151,-3.188 -2.926,-3.188 z"
   id="path21" />
		</g>
		<g
   id="g23">
			<path
   style="fill:#e0e0e0"
   d="m 157.354,265.341 -1.395,-1.94 c -0.51,-0.71 -1.326,-1.136 -2.172,-1.136 h -9.825 c -0.846,0 -1.612,0.426 -2.04,1.136 l -1.17,1.94 c -0.428,0.71 -1.194,1.137 -2.04,1.137 h -5.863 c -1.398,0 -2.465,1.143 -2.383,2.552 l 1.898,32.813 c 0.081,1.41 1.281,2.552 2.679,2.552 h 46.469 c 1.398,0 2.465,-1.143 2.383,-2.552 l -1.898,-32.813 c -0.082,-1.41 -1.281,-2.552 -2.679,-2.552 h -19.791 c -0.847,0 -1.662,-0.426 -2.173,-1.137 z"
   id="path22" />
			<path
   style="fill:#e6e6e6"
   d="m 183.961,269.605 h -42.572 c -1.775,0 -3.342,1.427 -3.501,3.188 l -2.559,28.414 c -0.159,1.761 1.152,3.188 2.927,3.188 h 42.572 c 1.775,0 3.342,-1.427 3.501,-3.188 l 2.559,-28.414 c 0.159,-1.761 -1.152,-3.188 -2.927,-3.188 z"
   id="path23" />
		</g>
		<g
   id="g25">
			<path
   style="fill:#e0e0e0"
   d="m 228.246,265.341 -1.395,-1.94 c -0.511,-0.71 -1.326,-1.136 -2.172,-1.136 h -9.825 c -0.846,0 -1.612,0.426 -2.04,1.136 l -1.17,1.94 c -0.428,0.71 -1.194,1.137 -2.04,1.137 h -5.863 c -1.398,0 -2.465,1.143 -2.383,2.552 l 1.898,32.813 c 0.082,1.41 1.281,2.552 2.679,2.552 h 46.469 c 1.398,0 2.465,-1.143 2.384,-2.552 L 252.89,269.03 c -0.082,-1.41 -1.281,-2.552 -2.679,-2.552 H 230.42 c -0.848,0 -1.663,-0.426 -2.174,-1.137 z"
   id="path24" />
			<path
   style="fill:#e6e6e6"
   d="m 254.853,269.605 h -42.572 c -1.775,0 -3.342,1.427 -3.501,3.188 l -2.559,28.414 c -0.159,1.761 1.152,3.188 2.927,3.188 h 42.572 c 1.775,0 3.342,-1.427 3.501,-3.188 l 2.559,-28.414 c 0.158,-1.761 -1.152,-3.188 -2.927,-3.188 z"
   id="path25" />
		</g>
		<g
   id="g27">
			<path
   style="fill:#e0e0e0"
   d="m 86.463,325.379 -1.395,-1.94 c -0.51,-0.71 -1.326,-1.137 -2.172,-1.137 h -9.825 c -0.846,0 -1.612,0.427 -2.04,1.137 l -1.17,1.94 c -0.428,0.71 -1.194,1.137 -2.04,1.137 h -5.863 c -1.398,0 -2.465,1.143 -2.383,2.552 l 1.898,32.813 c 0.082,1.41 1.281,2.552 2.679,2.552 h 46.469 c 1.398,0 2.465,-1.143 2.383,-2.552 l -1.898,-32.813 c -0.082,-1.41 -1.281,-2.552 -2.679,-2.552 H 88.635 c -0.847,0 -1.662,-0.427 -2.172,-1.137 z"
   id="path26" />
			<path
   style="fill:#e6e6e6"
   d="M 113.07,329.643 H 70.497 c -1.775,0 -3.342,1.427 -3.501,3.188 l -2.559,28.414 c -0.159,1.761 1.152,3.188 2.927,3.188 h 42.572 c 1.775,0 3.342,-1.427 3.501,-3.188 l 2.559,-28.414 c 0.159,-1.761 -1.151,-3.188 -2.926,-3.188 z"
   id="path27" />
		</g>
		<g
   id="g29">
			<path
   style="fill:#e0e0e0"
   d="m 157.354,325.379 -1.395,-1.94 c -0.51,-0.71 -1.326,-1.137 -2.172,-1.137 h -9.825 c -0.846,0 -1.612,0.427 -2.04,1.137 l -1.17,1.94 c -0.428,0.71 -1.194,1.137 -2.04,1.137 h -5.863 c -1.398,0 -2.465,1.143 -2.383,2.552 l 1.898,32.813 c 0.081,1.41 1.281,2.552 2.679,2.552 h 46.469 c 1.398,0 2.465,-1.143 2.383,-2.552 l -1.898,-32.813 c -0.082,-1.41 -1.281,-2.552 -2.679,-2.552 h -19.791 c -0.847,0 -1.662,-0.427 -2.173,-1.137 z"
   id="path28" />
			<path
   style="fill:#e6e6e6"
   d="m 183.961,329.643 h -42.572 c -1.775,0 -3.342,1.427 -3.501,3.188 l -2.559,28.414 c -0.159,1.761 1.152,3.188 2.927,3.188 h 42.572 c 1.775,0 3.342,-1.427 3.501,-3.188 l 2.559,-28.414 c 0.159,-1.761 -1.152,-3.188 -2.927,-3.188 z"
   id="path29" />
		</g>
		<g
   id="g31">
			<path
   style="fill:#e0e0e0"
   d="m 228.246,325.379 -1.395,-1.94 c -0.511,-0.71 -1.326,-1.137 -2.172,-1.137 h -9.825 c -0.846,0 -1.612,0.427 -2.04,1.137 l -1.17,1.94 c -0.428,0.71 -1.194,1.137 -2.04,1.137 h -5.863 c -1.398,0 -2.465,1.143 -2.383,2.552 l 1.898,32.813 c 0.082,1.41 1.281,2.552 2.679,2.552 h 46.469 c 1.398,0 2.465,-1.143 2.384,-2.552 l -1.898,-32.813 c -0.082,-1.41 -1.281,-2.552 -2.679,-2.552 H 230.42 c -0.848,0 -1.663,-0.427 -2.174,-1.137 z"
   id="path30" />
			<path
   style="fill:#e6e6e6"
   d="m 254.853,329.643 h -42.572 c -1.775,0 -3.342,1.427 -3.501,3.188 l -2.559,28.414 c -0.159,1.761 1.152,3.188 2.927,3.188 h 42.572 c 1.775,0 3.342,-1.427 3.501,-3.188 l 2.559,-28.414 c 0.158,-1.761 -1.152,-3.188 -2.927,-3.188 z"
   id="path31" />
		</g>
		<g
   id="g34">
			<path
   style="fill:#e6e6e6"
   d="m 450.025,359.163 h -73 c -1.473,0 -2.667,1.194 -2.667,2.667 v 17.667 c 0,1.473 1.194,2.667 2.667,2.667 h 73 c 1.473,0 2.667,-1.194 2.667,-2.667 V 361.83 c -0.001,-1.473 -1.195,-2.667 -2.667,-2.667 z"
   id="path32" />
			<path
   style="fill:#f5f5f5"
   d="m 444.962,370.663 c 0,2.669 -2.164,4.833 -4.833,4.833 -2.669,0 -4.833,-2.164 -4.833,-4.833 0,-2.669 2.164,-4.833 4.833,-4.833 2.669,0 4.833,2.164 4.833,4.833 z"
   id="path33" />
			<path
   style="fill:#e6e6e6"
   d="m 442.587,370.663 c 0,1.358 -1.101,2.458 -2.458,2.458 -1.357,0 -2.458,-1.101 -2.458,-2.458 0,-1.357 1.101,-2.458 2.458,-2.458 1.357,0 2.458,1.101 2.458,2.458 z"
   id="path34" />
			<rect
   x="424.27499"
   y="367.91299"
   style="fill:#f5f5f5"
   width="5.5"
   height="5.5"
   id="rect34" />
		</g>
		<g
   id="g37">
			<path
   style="fill:#e6e6e6"
   d="m 450.025,335.163 h -73 c -1.473,0 -2.667,1.194 -2.667,2.667 v 17.667 c 0,1.473 1.194,2.667 2.667,2.667 h 73 c 1.473,0 2.667,-1.194 2.667,-2.667 V 337.83 c -0.001,-1.473 -1.195,-2.667 -2.667,-2.667 z"
   id="path35" />
			<path
   style="fill:#f5f5f5"
   d="m 444.962,346.663 c 0,2.669 -2.164,4.833 -4.833,4.833 -2.669,0 -4.833,-2.164 -4.833,-4.833 0,-2.669 2.164,-4.833 4.833,-4.833 2.669,0 4.833,2.164 4.833,4.833 z"
   id="path36" />
			<path
   style="fill:#e6e6e6"
   d="m 442.587,346.663 c 0,1.358 -1.101,2.458 -2.458,2.458 -1.357,0 -2.458,-1.101 -2.458,-2.458 0,-1.357 1.101,-2.458 2.458,-2.458 1.357,0 2.458,1.101 2.458,2.458 z"
   id="path37" />
			<rect
   x="424.27499"
   y="343.91299"
   style="fill:#f5f5f5"
   width="5.5"
   height="5.5"
   id="rect37" />
		</g>
		<g
   id="g40">
			<path
   style="fill:#e6e6e6"
   d="m 450.025,311.163 h -73 c -1.473,0 -2.667,1.194 -2.667,2.667 v 17.667 c 0,1.473 1.194,2.667 2.667,2.667 h 73 c 1.473,0 2.667,-1.194 2.667,-2.667 V 313.83 c -0.001,-1.473 -1.195,-2.667 -2.667,-2.667 z"
   id="path38" />
			<path
   style="fill:#f5f5f5"
   d="m 444.962,322.663 c 0,2.669 -2.164,4.833 -4.833,4.833 -2.669,0 -4.833,-2.164 -4.833,-4.833 0,-2.669 2.164,-4.833 4.833,-4.833 2.669,0 4.833,2.164 4.833,4.833 z"
   id="path39" />
			<path
   style="fill:#e6e6e6"
   d="m 442.587,322.663 c 0,1.358 -1.101,2.458 -2.458,2.458 -1.357,0 -2.458,-1.101 -2.458,-2.458 0,-1.357 1.101,-2.458 2.458,-2.458 1.357,0 2.458,1.101 2.458,2.458 z"
   id="path40-7" />
			<rect
   x="424.27499"
   y="319.91299"
   style="fill:#f5f5f5"
   width="5.5"
   height="5.5"
   id="rect40" />
		</g>
		<g
   id="g43">
			<path
   style="fill:#e6e6e6"
   d="m 450.025,287.163 h -73 c -1.473,0 -2.667,1.194 -2.667,2.667 v 17.667 c 0,1.473 1.194,2.667 2.667,2.667 h 73 c 1.473,0 2.667,-1.194 2.667,-2.667 V 289.83 c -0.001,-1.473 -1.195,-2.667 -2.667,-2.667 z"
   id="path41-5" />
			<path
   style="fill:#f5f5f5"
   d="m 444.962,298.663 c 0,2.669 -2.164,4.833 -4.833,4.833 -2.669,0 -4.833,-2.164 -4.833,-4.833 0,-2.669 2.164,-4.833 4.833,-4.833 2.669,0 4.833,2.164 4.833,4.833 z"
   id="path42" />
			<path
   style="fill:#e6e6e6"
   d="m 442.587,298.663 c 0,1.358 -1.101,2.458 -2.458,2.458 -1.357,0 -2.458,-1.101 -2.458,-2.458 0,-1.357 1.101,-2.458 2.458,-2.458 1.357,0 2.458,1.101 2.458,2.458 z"
   id="path43" />
			<rect
   x="424.27499"
   y="295.91299"
   style="fill:#f5f5f5"
   width="5.5"
   height="5.5"
   id="rect43" />
		</g>
		<g
   id="g46">
			<path
   style="fill:#e6e6e6"
   d="m 450.025,263.163 h -73 c -1.473,0 -2.667,1.194 -2.667,2.667 v 17.667 c 0,1.473 1.194,2.667 2.667,2.667 h 73 c 1.473,0 2.667,-1.194 2.667,-2.667 V 265.83 c -0.001,-1.473 -1.195,-2.667 -2.667,-2.667 z"
   id="path44" />
			<path
   style="fill:#f5f5f5"
   d="m 444.962,274.663 c 0,2.669 -2.164,4.833 -4.833,4.833 -2.669,0 -4.833,-2.164 -4.833,-4.833 0,-2.669 2.164,-4.833 4.833,-4.833 2.669,0 4.833,2.164 4.833,4.833 z"
   id="path45" />
			<path
   style="fill:#e6e6e6"
   d="m 442.587,274.663 c 0,1.358 -1.101,2.458 -2.458,2.458 -1.357,0 -2.458,-1.101 -2.458,-2.458 0,-1.357 1.101,-2.458 2.458,-2.458 1.357,0 2.458,1.101 2.458,2.458 z"
   id="path46" />
			<rect
   x="424.27499"
   y="271.91299"
   style="fill:#f5f5f5"
   width="5.5"
   height="5.5"
   id="rect46" />
		</g>
		<g
   id="g49">
			<path
   style="fill:#e6e6e6"
   d="m 450.025,239.163 h -73 c -1.473,0 -2.667,1.194 -2.667,2.667 v 17.667 c 0,1.473 1.194,2.667 2.667,2.667 h 73 c 1.473,0 2.667,-1.194 2.667,-2.667 V 241.83 c -0.001,-1.473 -1.195,-2.667 -2.667,-2.667 z"
   id="path47" />
			<path
   style="fill:#f5f5f5"
   d="m 444.962,250.663 c 0,2.669 -2.164,4.833 -4.833,4.833 -2.669,0 -4.833,-2.164 -4.833,-4.833 0,-2.669 2.164,-4.833 4.833,-4.833 2.669,0 4.833,2.164 4.833,4.833 z"
   id="path48" />
			<path
   style="fill:#e6e6e6"
   d="m 442.587,250.663 c 0,1.358 -1.101,2.458 -2.458,2.458 -1.357,0 -2.458,-1.101 -2.458,-2.458 0,-1.358 1.101,-2.458 2.458,-2.458 1.357,0 2.458,1.1 2.458,2.458 z"
   id="path49" />
			<rect
   x="424.27499"
   y="247.91299"
   style="fill:#f5f5f5"
   width="5.5"
   height="5.5"
   id="rect49" />
		</g>
	</g>
</g><g
   id="Shadow_1_"
   transform="matrix(0.42467114,0,0,0.42467114,-6.4126555,-27.482864)">
	<ellipse
   id="_x3C_Path_x3E__359_"
   style="fill:#f5f5f5"
   cx="250"
   cy="416.23801"
   rx="193.88901"
   ry="11.323" />
</g><g
   id="Plant"
   transform="matrix(0.42467114,0,0,0.42467114,-6.4126555,-27.482864)">
	<g
   id="g57">
		<g
   id="g53">
			<path
   style="fill:#407bff"
   d="m 103.539,357.175 c -1.555,-2.561 -4.116,-0.334 -4.116,-0.334 0.366,-4.907 -4.149,-8.263 -4.149,-8.263 0,0 5.246,0 5.978,-5.005 0.732,-5.005 -1.829,-2.677 -4.232,-2.711 -2.403,-0.034 -4.914,6.985 -1.746,10.933 3.169,3.948 2.319,10.686 -4.997,17.167 -1.785,1.581 -2.998,3.686 -3.818,5.963 0.552,-5.954 0.864,-14.343 -0.888,-19.944 -2.976,-9.512 2.695,-12.073 4.341,-16.829 1.646,-4.756 -4.341,-8.78 -4.341,-8.78 0,0 5.622,-2.561 2.878,-5.488 -2.744,-2.927 -8.414,-2.528 -8.414,1.297 0,3.825 3.841,5.289 3.841,5.289 0,0 4.39,4.573 4.39,6.951 0,2.378 -4.39,7.5 -4.39,7.5 0,0 2.012,-4.384 -2.012,-4.57 -4.024,-0.186 -5.305,5.118 -3.659,7.496 1.646,2.378 4.39,0.366 4.39,0.366 0,0 0.32,5.122 1.257,8.231 0.412,1.368 0.219,6.733 -0.128,12.315 -0.811,-2.016 -1.957,-3.862 -3.563,-5.285 -7.317,-6.481 -8.166,-13.219 -4.997,-17.167 3.169,-3.948 0.657,-10.967 -1.746,-10.933 -2.403,0.034 -4.964,-2.294 -4.232,2.711 0.732,5.005 5.978,5.005 5.978,5.005 0,0 -4.514,3.357 -4.148,8.263 0,0 -2.561,-2.227 -4.116,0.334 -2.776,4.572 3.658,7.408 4.74,5.158 0,0 13.644,9.659 10.351,23.561 l 0.765,1.129 c -0.098,1.122 -0.16,1.798 -0.16,1.798 l 1.067,-0.459 1.214,1.792 c -0.063,3.475 0.311,6.043 0.311,6.043 l 3.262,-4.815 c -3.293,-13.902 10.351,-23.56 10.351,-23.56 1.08,2.25 7.514,-0.586 4.738,-5.159 z"
   id="path52" />
			<path
   style="opacity:0.2;fill:#407bff;enable-background:new"
   d="m 103.539,357.175 c -1.555,-2.561 -4.116,-0.334 -4.116,-0.334 0.366,-4.907 -4.149,-8.263 -4.149,-8.263 0,0 5.246,0 5.978,-5.005 0.732,-5.005 -1.829,-2.677 -4.232,-2.711 -2.403,-0.034 -4.914,6.985 -1.746,10.933 3.169,3.948 2.319,10.686 -4.997,17.167 -1.785,1.581 -2.998,3.686 -3.818,5.963 0.552,-5.954 0.864,-14.343 -0.888,-19.944 -2.976,-9.512 2.695,-12.073 4.341,-16.829 1.646,-4.756 -4.341,-8.78 -4.341,-8.78 0,0 5.622,-2.561 2.878,-5.488 -2.744,-2.927 -8.414,-2.528 -8.414,1.297 0,3.825 3.841,5.289 3.841,5.289 0,0 4.39,4.573 4.39,6.951 0,2.378 -4.39,7.5 -4.39,7.5 0,0 2.012,-4.384 -2.012,-4.57 -4.024,-0.186 -5.305,5.118 -3.659,7.496 1.646,2.378 4.39,0.366 4.39,0.366 0,0 0.32,5.122 1.257,8.231 0.412,1.368 0.219,6.733 -0.128,12.315 -0.811,-2.016 -1.957,-3.862 -3.563,-5.285 -7.317,-6.481 -8.166,-13.219 -4.997,-17.167 3.169,-3.948 0.657,-10.967 -1.746,-10.933 -2.403,0.034 -4.964,-2.294 -4.232,2.711 0.732,5.005 5.978,5.005 5.978,5.005 0,0 -4.514,3.357 -4.148,8.263 0,0 -2.561,-2.227 -4.116,0.334 -2.776,4.572 3.658,7.408 4.74,5.158 0,0 13.644,9.659 10.351,23.561 l 0.765,1.129 c -0.098,1.122 -0.16,1.798 -0.16,1.798 l 1.067,-0.459 1.214,1.792 c -0.063,3.475 0.311,6.043 0.311,6.043 l 3.262,-4.815 c -3.293,-13.902 10.351,-23.56 10.351,-23.56 1.08,2.25 7.514,-0.586 4.738,-5.159 z"
   id="path53" />
		</g>
		<g
   style="opacity:0.3"
   id="g55">
			<path
   style="fill:#ffffff"
   d="m 103.539,357.175 c -1.555,-2.561 -4.116,-0.334 -4.116,-0.334 0.366,-4.907 -4.149,-8.263 -4.149,-8.263 0,0 5.246,0 5.978,-5.005 0.732,-5.005 -1.829,-2.677 -4.232,-2.711 -2.403,-0.034 -4.914,6.985 -1.746,10.933 3.169,3.948 2.319,10.686 -4.997,17.167 -1.785,1.581 -2.998,3.686 -3.818,5.963 0.552,-5.954 0.864,-14.343 -0.888,-19.944 -2.976,-9.512 2.695,-12.073 4.341,-16.829 1.646,-4.756 -4.341,-8.78 -4.341,-8.78 0,0 5.622,-2.561 2.878,-5.488 -2.744,-2.927 -8.414,-2.528 -8.414,1.297 0,3.825 3.841,5.289 3.841,5.289 0,0 4.39,4.573 4.39,6.951 0,2.378 -4.39,7.5 -4.39,7.5 0,0 2.012,-4.384 -2.012,-4.57 -4.024,-0.186 -5.305,5.118 -3.659,7.496 1.646,2.378 4.39,0.366 4.39,0.366 0,0 0.32,5.122 1.257,8.231 0.412,1.368 0.219,6.733 -0.128,12.315 -0.811,-2.016 -1.957,-3.862 -3.563,-5.285 -7.317,-6.481 -8.166,-13.219 -4.997,-17.167 3.169,-3.948 0.657,-10.967 -1.746,-10.933 -2.403,0.034 -4.964,-2.294 -4.232,2.711 0.732,5.005 5.978,5.005 5.978,5.005 0,0 -4.514,3.357 -4.148,8.263 0,0 -2.561,-2.227 -4.116,0.334 -2.776,4.572 3.658,7.408 4.74,5.158 0,0 13.644,9.659 10.351,23.561 l 0.765,1.129 c -0.098,1.122 -0.16,1.798 -0.16,1.798 l 1.067,-0.459 1.214,1.792 c -0.063,3.475 0.311,6.043 0.311,6.043 l 3.262,-4.815 c -3.293,-13.902 10.351,-23.56 10.351,-23.56 1.08,2.25 7.514,-0.586 4.738,-5.159 z"
   id="path54" />
			<path
   style="opacity:0.2;fill:#ffffff;enable-background:new"
   d="m 103.539,357.175 c -1.555,-2.561 -4.116,-0.334 -4.116,-0.334 0.366,-4.907 -4.149,-8.263 -4.149,-8.263 0,0 5.246,0 5.978,-5.005 0.732,-5.005 -1.829,-2.677 -4.232,-2.711 -2.403,-0.034 -4.914,6.985 -1.746,10.933 3.169,3.948 2.319,10.686 -4.997,17.167 -1.785,1.581 -2.998,3.686 -3.818,5.963 0.552,-5.954 0.864,-14.343 -0.888,-19.944 -2.976,-9.512 2.695,-12.073 4.341,-16.829 1.646,-4.756 -4.341,-8.78 -4.341,-8.78 0,0 5.622,-2.561 2.878,-5.488 -2.744,-2.927 -8.414,-2.528 -8.414,1.297 0,3.825 3.841,5.289 3.841,5.289 0,0 4.39,4.573 4.39,6.951 0,2.378 -4.39,7.5 -4.39,7.5 0,0 2.012,-4.384 -2.012,-4.57 -4.024,-0.186 -5.305,5.118 -3.659,7.496 1.646,2.378 4.39,0.366 4.39,0.366 0,0 0.32,5.122 1.257,8.231 0.412,1.368 0.219,6.733 -0.128,12.315 -0.811,-2.016 -1.957,-3.862 -3.563,-5.285 -7.317,-6.481 -8.166,-13.219 -4.997,-17.167 3.169,-3.948 0.657,-10.967 -1.746,-10.933 -2.403,0.034 -4.964,-2.294 -4.232,2.711 0.732,5.005 5.978,5.005 5.978,5.005 0,0 -4.514,3.357 -4.148,8.263 0,0 -2.561,-2.227 -4.116,0.334 -2.776,4.572 3.658,7.408 4.74,5.158 0,0 13.644,9.659 10.351,23.561 l 0.765,1.129 c -0.098,1.122 -0.16,1.798 -0.16,1.798 l 1.067,-0.459 1.214,1.792 c -0.063,3.475 0.311,6.043 0.311,6.043 l 3.262,-4.815 c -3.293,-13.902 10.351,-23.56 10.351,-23.56 1.08,2.25 7.514,-0.586 4.738,-5.159 z"
   id="path55" />
		</g>
		<polygon
   style="fill:#407bff"
   points="100.87,416.477 69.617,416.477 66.246,382.26 104.242,382.26 "
   id="polygon55" />
		<polygon
   style="opacity:0.5;fill:#ffffff"
   points="100.87,416.477 69.617,416.477 66.246,382.26 104.242,382.26 "
   id="polygon56" />
		<rect
   x="64.577003"
   y="378.48401"
   style="fill:#407bff"
   width="41.333"
   height="7.5500002"
   id="rect56" />
		<rect
   x="64.577003"
   y="378.48401"
   style="opacity:0.6;fill:#ffffff"
   width="41.333"
   height="7.5500002"
   id="rect57" />
	</g>
</g><g
   id="Folder"
   transform="matrix(0.42467114,0,0,0.42467114,-6.4126555,-27.482864)">
	<g
   id="g60">
		<path
   style="fill:#407bff"
   d="m 387.867,377.423 -1.395,-1.94 c -0.51,-0.71 -1.326,-1.137 -2.172,-1.137 h -9.825 c -0.846,0 -1.612,0.426 -2.04,1.137 l -1.17,1.94 c -0.428,0.71 -1.194,1.137 -2.04,1.137 h -5.863 c -1.398,0 -2.465,1.143 -2.383,2.552 l 1.898,32.813 c 0.082,1.41 1.281,2.552 2.679,2.552 h 46.469 c 1.398,0 2.465,-1.142 2.383,-2.552 l -1.898,-32.813 c -0.082,-1.409 -1.281,-2.552 -2.679,-2.552 H 390.04 c -0.847,0 -1.662,-0.427 -2.173,-1.137 z"
   id="path57" />
		<path
   style="opacity:0.5;fill:#ffffff"
   d="m 387.867,377.423 -1.395,-1.94 c -0.51,-0.71 -1.326,-1.137 -2.172,-1.137 h -9.825 c -0.846,0 -1.612,0.426 -2.04,1.137 l -1.17,1.94 c -0.428,0.71 -1.194,1.137 -2.04,1.137 h -5.863 c -1.398,0 -2.465,1.143 -2.383,2.552 l 1.898,32.813 c 0.082,1.41 1.281,2.552 2.679,2.552 h 46.469 c 1.398,0 2.465,-1.142 2.383,-2.552 l -1.898,-32.813 c -0.082,-1.409 -1.281,-2.552 -2.679,-2.552 H 390.04 c -0.847,0 -1.662,-0.427 -2.173,-1.137 z"
   id="path58" />
		<path
   style="fill:#407bff"
   d="m 414.474,381.687 h -42.572 c -1.775,0 -3.342,1.427 -3.501,3.188 l -2.559,28.414 c -0.159,1.761 1.152,3.188 2.927,3.188 h 42.572 c 1.775,0 3.342,-1.427 3.501,-3.188 l 2.559,-28.414 c 0.158,-1.761 -1.152,-3.188 -2.927,-3.188 z"
   id="path59" />
		<path
   style="opacity:0.7;fill:#ffffff"
   d="m 414.474,381.687 h -42.572 c -1.775,0 -3.342,1.427 -3.501,3.188 l -2.559,28.414 c -0.159,1.761 1.152,3.188 2.927,3.188 h 42.572 c 1.775,0 3.342,-1.427 3.501,-3.188 l 2.559,-28.414 c 0.158,-1.761 -1.152,-3.188 -2.927,-3.188 z"
   id="path60" />
	</g>
</g><g
   id="Data_Storage"
   transform="matrix(0.42467114,0,0,0.42467114,-6.4126555,-27.482864)">
	<g
   id="g80">
		<rect
   x="230.12399"
   y="366.66501"
   style="fill:#263238"
   width="60.763"
   height="42.431"
   id="rect60" />
		<g
   id="g64">
			<path
   style="fill:#407bff"
   d="M 291.549,402.265 H 246.44 c -0.91,0 -1.648,0.738 -1.648,1.648 v 10.917 c 0,0.91 0.738,1.648 1.648,1.648 h 45.109 c 0.91,0 1.648,-0.738 1.648,-1.648 v -10.917 c 0,-0.911 -0.738,-1.648 -1.648,-1.648 z"
   id="path61" />
			<path
   style="opacity:0.2;enable-background:new"
   d="M 291.549,402.265 H 246.44 c -0.91,0 -1.648,0.738 -1.648,1.648 v 10.917 c 0,0.91 0.738,1.648 1.648,1.648 h 45.109 c 0.91,0 1.648,-0.738 1.648,-1.648 v -10.917 c 0,-0.911 -0.738,-1.648 -1.648,-1.648 z"
   id="path62" />
			<path
   style="fill:#407bff"
   d="m 275.061,402.265 h -45.109 c -0.91,0 -1.648,0.738 -1.648,1.648 v 10.917 c 0,0.91 0.738,1.648 1.648,1.648 h 45.109 c 0.91,0 1.648,-0.738 1.648,-1.648 v -10.917 c -10e-4,-0.911 -0.738,-1.648 -1.648,-1.648 z"
   id="path63" />
			<path
   style="opacity:0.3;fill:#f5f5f5"
   d="m 271.932,409.371 c 0,1.65 -1.337,2.987 -2.987,2.987 -1.65,0 -2.987,-1.337 -2.987,-2.987 0,-1.649 1.337,-2.987 2.987,-2.987 1.65,0 2.987,1.337 2.987,2.987 z"
   id="path64" />
			<circle
   style="fill:#407bff"
   cx="268.94601"
   cy="409.371"
   r="1.5190001"
   id="circle64" />
			<rect
   x="259.14899"
   y="407.672"
   style="opacity:0.3;fill:#f5f5f5"
   width="3.3989999"
   height="3.3989999"
   id="rect64" />
		</g>
		<g
   id="g69">
			<path
   style="fill:#407bff"
   d="M 291.549,387.425 H 246.44 c -0.91,0 -1.648,0.738 -1.648,1.648 v 10.917 c 0,0.91 0.738,1.648 1.648,1.648 h 45.109 c 0.91,0 1.648,-0.738 1.648,-1.648 v -10.917 c 0,-0.91 -0.738,-1.648 -1.648,-1.648 z"
   id="path65" />
			<path
   style="opacity:0.2;enable-background:new"
   d="M 291.549,387.425 H 246.44 c -0.91,0 -1.648,0.738 -1.648,1.648 v 10.917 c 0,0.91 0.738,1.648 1.648,1.648 h 45.109 c 0.91,0 1.648,-0.738 1.648,-1.648 v -10.917 c 0,-0.91 -0.738,-1.648 -1.648,-1.648 z"
   id="path66" />
			<path
   style="fill:#407bff"
   d="m 275.061,387.425 h -45.109 c -0.91,0 -1.648,0.738 -1.648,1.648 v 10.917 c 0,0.91 0.738,1.648 1.648,1.648 h 45.109 c 0.91,0 1.648,-0.738 1.648,-1.648 v -10.917 c -10e-4,-0.91 -0.738,-1.648 -1.648,-1.648 z"
   id="path67" />
			<path
   style="opacity:0.3;fill:#f5f5f5"
   d="m 271.932,394.531 c 0,1.649 -1.337,2.987 -2.987,2.987 -1.65,0 -2.987,-1.337 -2.987,-2.987 0,-1.65 1.337,-2.987 2.987,-2.987 1.65,0 2.987,1.338 2.987,2.987 z"
   id="path68" />
			<path
   style="fill:#407bff"
   d="m 270.465,394.531 c 0,0.839 -0.68,1.519 -1.519,1.519 -0.839,0 -1.519,-0.68 -1.519,-1.519 0,-0.839 0.68,-1.519 1.519,-1.519 0.839,0 1.519,0.68 1.519,1.519 z"
   id="path69" />
			<rect
   x="259.14899"
   y="392.832"
   style="opacity:0.3;fill:#f5f5f5"
   width="3.3989999"
   height="3.3989999"
   id="rect69" />
		</g>
		<g
   id="g74">
			<path
   style="fill:#407bff"
   d="M 291.549,372.586 H 246.44 c -0.91,0 -1.648,0.738 -1.648,1.648 v 10.917 c 0,0.91 0.738,1.648 1.648,1.648 h 45.109 c 0.91,0 1.648,-0.738 1.648,-1.648 v -10.917 c 0,-0.911 -0.738,-1.648 -1.648,-1.648 z"
   id="path70" />
			<path
   style="opacity:0.2;enable-background:new"
   d="M 291.549,372.586 H 246.44 c -0.91,0 -1.648,0.738 -1.648,1.648 v 10.917 c 0,0.91 0.738,1.648 1.648,1.648 h 45.109 c 0.91,0 1.648,-0.738 1.648,-1.648 v -10.917 c 0,-0.911 -0.738,-1.648 -1.648,-1.648 z"
   id="path71" />
			<path
   style="fill:#407bff"
   d="m 275.061,372.586 h -45.109 c -0.91,0 -1.648,0.738 -1.648,1.648 v 10.917 c 0,0.91 0.738,1.648 1.648,1.648 h 45.109 c 0.91,0 1.648,-0.738 1.648,-1.648 v -10.917 c -10e-4,-0.911 -0.738,-1.648 -1.648,-1.648 z"
   id="path72" />
			<path
   style="opacity:0.3;fill:#f5f5f5"
   d="m 271.932,379.692 c 0,1.649 -1.337,2.987 -2.987,2.987 -1.65,0 -2.987,-1.337 -2.987,-2.987 0,-1.65 1.337,-2.987 2.987,-2.987 1.65,0 2.987,1.337 2.987,2.987 z"
   id="path73" />
			<path
   style="fill:#407bff"
   d="m 270.465,379.692 c 0,0.839 -0.68,1.519 -1.519,1.519 -0.839,0 -1.519,-0.68 -1.519,-1.519 0,-0.839 0.68,-1.519 1.519,-1.519 0.839,0 1.519,0.68 1.519,1.519 z"
   id="path74" />
			<rect
   x="259.14899"
   y="377.992"
   style="opacity:0.3;fill:#f5f5f5"
   width="3.3989999"
   height="3.3989999"
   id="rect74" />
		</g>
		<g
   id="g79">
			<path
   style="fill:#407bff"
   d="M 291.549,357.746 H 246.44 c -0.91,0 -1.648,0.738 -1.648,1.648 v 10.917 c 0,0.91 0.738,1.648 1.648,1.648 h 45.109 c 0.91,0 1.648,-0.738 1.648,-1.648 v -10.917 c 0,-0.91 -0.738,-1.648 -1.648,-1.648 z"
   id="path75" />
			<path
   style="opacity:0.2;enable-background:new"
   d="M 291.549,357.746 H 246.44 c -0.91,0 -1.648,0.738 -1.648,1.648 v 10.917 c 0,0.91 0.738,1.648 1.648,1.648 h 45.109 c 0.91,0 1.648,-0.738 1.648,-1.648 v -10.917 c 0,-0.91 -0.738,-1.648 -1.648,-1.648 z"
   id="path76" />
			<path
   style="fill:#407bff"
   d="m 275.061,357.746 h -45.109 c -0.91,0 -1.648,0.738 -1.648,1.648 v 10.917 c 0,0.91 0.738,1.648 1.648,1.648 h 45.109 c 0.91,0 1.648,-0.738 1.648,-1.648 v -10.917 c -10e-4,-0.91 -0.738,-1.648 -1.648,-1.648 z"
   id="path77" />
			<path
   style="opacity:0.3;fill:#f5f5f5"
   d="m 271.932,364.852 c 0,1.65 -1.337,2.987 -2.987,2.987 -1.65,0 -2.987,-1.337 -2.987,-2.987 0,-1.65 1.337,-2.987 2.987,-2.987 1.65,0 2.987,1.338 2.987,2.987 z"
   id="path78" />
			<path
   style="fill:#407bff"
   d="m 270.465,364.852 c 0,0.839 -0.68,1.519 -1.519,1.519 -0.839,0 -1.519,-0.68 -1.519,-1.519 0,-0.839 0.68,-1.519 1.519,-1.519 0.839,0 1.519,0.68 1.519,1.519 z"
   id="path79" />
			<rect
   x="259.14899"
   y="363.15302"
   style="opacity:0.3;fill:#f5f5f5"
   width="3.3989999"
   height="3.3989999"
   id="rect79" />
		</g>
	</g>
	<g
   id="g90">
		<rect
   x="284.535"
   y="389.323"
   style="fill:#263238"
   width="60.763"
   height="19.774"
   id="rect80" />
		<g
   id="g84">
			<path
   style="fill:#407bff"
   d="m 345.961,402.265 h -45.108 c -0.91,0 -1.648,0.738 -1.648,1.648 v 10.917 c 0,0.91 0.738,1.648 1.648,1.648 h 45.108 c 0.91,0 1.648,-0.738 1.648,-1.648 v -10.917 c -10e-4,-0.911 -0.738,-1.648 -1.648,-1.648 z"
   id="path80" />
			<path
   style="opacity:0.2;enable-background:new"
   d="m 345.961,402.265 h -45.108 c -0.91,0 -1.648,0.738 -1.648,1.648 v 10.917 c 0,0.91 0.738,1.648 1.648,1.648 h 45.108 c 0.91,0 1.648,-0.738 1.648,-1.648 v -10.917 c -10e-4,-0.911 -0.738,-1.648 -1.648,-1.648 z"
   id="path81" />
			<path
   style="fill:#407bff"
   d="m 329.472,402.265 h -45.109 c -0.91,0 -1.648,0.738 -1.648,1.648 v 10.917 c 0,0.91 0.738,1.648 1.648,1.648 h 45.109 c 0.91,0 1.648,-0.738 1.648,-1.648 v -10.917 c 0,-0.911 -0.738,-1.648 -1.648,-1.648 z"
   id="path82" />
			<path
   style="opacity:0.3;fill:#f5f5f5"
   d="m 326.344,409.371 c 0,1.65 -1.337,2.987 -2.987,2.987 -1.65,0 -2.987,-1.337 -2.987,-2.987 0,-1.649 1.337,-2.987 2.987,-2.987 1.65,0 2.987,1.337 2.987,2.987 z"
   id="path83" />
			<path
   style="fill:#407bff"
   d="m 324.876,409.371 c 0,0.839 -0.68,1.519 -1.519,1.519 -0.839,0 -1.519,-0.68 -1.519,-1.519 0,-0.839 0.68,-1.519 1.519,-1.519 0.839,0 1.519,0.68 1.519,1.519 z"
   id="path84" />
			<rect
   x="313.561"
   y="407.672"
   style="opacity:0.3;fill:#f5f5f5"
   width="3.3989999"
   height="3.3989999"
   id="rect84" />
		</g>
		<g
   id="g89">
			<path
   style="fill:#407bff"
   d="m 345.961,387.425 h -45.108 c -0.91,0 -1.648,0.738 -1.648,1.648 v 10.917 c 0,0.91 0.738,1.648 1.648,1.648 h 45.108 c 0.91,0 1.648,-0.738 1.648,-1.648 v -10.917 c -10e-4,-0.91 -0.738,-1.648 -1.648,-1.648 z"
   id="path85" />
			<path
   style="opacity:0.2;enable-background:new"
   d="m 345.961,387.425 h -45.108 c -0.91,0 -1.648,0.738 -1.648,1.648 v 10.917 c 0,0.91 0.738,1.648 1.648,1.648 h 45.108 c 0.91,0 1.648,-0.738 1.648,-1.648 v -10.917 c -10e-4,-0.91 -0.738,-1.648 -1.648,-1.648 z"
   id="path86" />
			<path
   style="fill:#407bff"
   d="m 329.472,387.425 h -45.109 c -0.91,0 -1.648,0.738 -1.648,1.648 v 10.917 c 0,0.91 0.738,1.648 1.648,1.648 h 45.109 c 0.91,0 1.648,-0.738 1.648,-1.648 v -10.917 c 0,-0.91 -0.738,-1.648 -1.648,-1.648 z"
   id="path87" />
			<path
   style="opacity:0.3;fill:#f5f5f5"
   d="m 326.344,394.531 c 0,1.649 -1.337,2.987 -2.987,2.987 -1.65,0 -2.987,-1.337 -2.987,-2.987 0,-1.65 1.337,-2.987 2.987,-2.987 1.65,0.001 2.987,1.338 2.987,2.987 z"
   id="path88" />
			<path
   style="fill:#407bff"
   d="m 324.876,394.531 c 0,0.839 -0.68,1.519 -1.519,1.519 -0.839,0 -1.519,-0.68 -1.519,-1.519 0,-0.839 0.68,-1.519 1.519,-1.519 0.839,0 1.519,0.68 1.519,1.519 z"
   id="path89" />
			<rect
   x="313.561"
   y="392.832"
   style="opacity:0.3;fill:#f5f5f5"
   width="3.3989999"
   height="3.3989999"
   id="rect89" />
		</g>
	</g>
</g><g
   id="Character"
   transform="matrix(0.42467114,0,0,0.42467114,-6.4126555,-27.482864)">
	<g
   id="g136">
		<polygon
   style="fill:#e4897b"
   points="169.344,399.093 163.036,400.207 160.45,391.606 158.089,383.713 165.362,381.172 167.474,390.659 "
   id="polygon90" />
		<polygon
   style="opacity:0.2;enable-background:new"
   points="167.508,390.854 160.48,391.779 158.105,383.799 165.37,381.216 "
   id="polygon91" />
		<polygon
   style="fill:#e4897b"
   points="127.234,402 120.829,402 119.777,392.979 118.825,384.744 126.429,383.482 126.859,393.281 "
   id="polygon92" />
		<polygon
   style="opacity:0.2;enable-background:new"
   points="126.859,393.364 119.777,393.053 118.825,384.781 126.429,383.5 "
   id="polygon93" />
		<path
   style="fill:#263238"
   d="m 135.915,414.688 c -1.017,-0.823 -2.176,-1.454 -3.42,-1.86 v 0 c 0,0 -3.72,-3.69 -5.51,-14.8 l -4.87,-1.27 c -1.693,-0.411 -3.463,0.281 -4.43,1.73 -0.135,0.196 -0.24,0.412 -0.31,0.64 -0.251,1.191 -0.424,2.397 -0.52,3.61 -0.49,3.76 -0.07,12.2 -0.07,12.2 h 0.88 l 0.35,-7.66 c 0.13,-2.6 2.12,0.45 2.69,3.25 0.57,2.8 1.78,5.78 7.48,5.92 6.65,0.13 9.41,-0.13 7.73,-1.76 z"
   id="path93" />
		<path
   style="fill:#263238"
   d="m 178.415,413.938 c -1.017,-0.823 -2.176,-1.454 -3.42,-1.86 v 0 c 0,0 -3.72,-3.69 -5.51,-14.8 l -4.87,-1.27 c -1.693,-0.411 -3.463,0.281 -4.43,1.73 -0.135,0.196 -0.24,0.412 -0.31,0.64 -0.251,1.191 -0.424,2.397 -0.52,3.61 -0.49,3.76 -0.07,12.2 -0.07,12.2 h 0.88 l 0.35,-7.66 c 0.13,-2.6 2.12,0.45 2.69,3.25 0.57,2.8 1.78,5.78 7.48,5.92 6.65,0.13 9.41,-0.13 7.73,-1.76 z"
   id="path94" />
		<g
   id="g97">
			<g
   id="g95">
				<path
   style="fill:#407bff"
   d="m 168.102,385.849 -10.369,1.828 c -10.464,-26.07 -17.907,-47.831 -23.163,-65.889 -2.831,-9.744 -5.193,-18.409 -6.888,-26.098 L 128,324.07 V 388 H 117.781 C 92.166,266 110.319,238.196 110.319,238.196 l 30.643,-5.102 c 1.165,4.574 2.046,12.056 2.566,17.217 l 1.382,10.166 11.979,61.872 z"
   id="path95" />
			</g>
			<g
   style="opacity:0.2;enable-background:new"
   id="g96">
				<path
   d="m 168.102,385.849 -10.369,1.828 c -10.464,-26.07 -17.907,-47.831 -23.163,-65.889 -2.831,-9.744 -5.193,-18.409 -6.888,-26.098 L 128,324.07 V 388 H 117.781 C 92.166,266 110.319,238.196 110.319,238.196 l 30.643,-5.102 c 1.165,4.574 2.046,12.056 2.566,17.217 l 1.382,10.166 11.979,61.872 z"
   id="path96" />
			</g>
		</g>
		<path
   style="fill:#eec1bb"
   d="m 177.246,202.973 10.345,-10.221 c 0,0 0.358,-2.738 1.358,-3.501 1.001,-0.763 8.098,-3.337 8.965,-2.765 0.867,0.572 2.075,6.308 0.861,7.356 -1.214,1.049 -7.668,2.393 -8.329,2.28 l -11.191,13.285 z"
   id="path97" />
		<g
   id="g99">
			<path
   style="fill:#263238"
   d="m 140.205,184.347 c 4.462,2.365 20.295,24.501 22.628,25.6 2.333,1.099 20.162,-13.36 20.162,-13.36 l 3.005,5.126 c 0,0 -14.628,20.667 -22.898,19.667 -8.269,-1 -24.102,-18.5 -24.102,-18.5 z"
   id="path98" />
			<path
   style="opacity:0.1;fill:#ffffff;enable-background:new"
   d="m 140.205,184.347 c 4.462,2.365 20.295,24.501 22.628,25.6 2.333,1.099 20.162,-13.36 20.162,-13.36 l 3.005,5.126 c 0,0 -14.628,20.667 -22.898,19.667 -8.269,-1 -24.102,-18.5 -24.102,-18.5 z"
   id="path99" />
		</g>
		<polygon
   style="fill:#407bff"
   points="182.015,197.129 183.25,195.962 186.5,201.462 185.333,203.712 "
   id="polygon99" />
		<path
   style="opacity:0.2;enable-background:new"
   d="m 145.36,209.342 c -3.7,-3.53 -6.36,-6.46 -6.36,-6.46 l 0.28,-4.4 1.39,-4.27 c 0,0 6.24,5.75 4.69,15.13 z"
   id="path100" />
		<path
   style="opacity:0.2;enable-background:new"
   d="m 134.57,321.788 c -2.831,-9.744 -5.038,-18.409 -6.733,-26.098 0,0 0.17,-14.943 1.979,-27.215 0.001,-0.001 4.489,35.103 4.754,53.313 z"
   id="path101" />
		<g
   id="g103">
			<path
   style="fill:#263238"
   d="m 141.701,231.202 c 1.25,-22.017 0.691,-34.119 0.123,-40.17 -0.625,-6.449 -1.619,-6.686 -1.619,-6.686 0,0 -6.989,-0.682 -13.068,-0.634 -4.706,0.161 -9.403,0.653 -14.034,1.477 -4.394,0.729 -8.721,1.78 -12.973,3.134 0.71,2.026 1.354,3.949 1.951,5.757 0.795,2.386 1.506,4.602 2.149,6.667 1.203,3.864 2.14,7.206 2.888,10.199 2.339,9.261 2.831,15.189 3.324,22.954 0,0 -7.692,20.099 -9.192,34.849 l 25.5,2.75 3.5,-14.75 3.5,15.25 14.25,-5 z"
   id="path102" />
			<path
   style="opacity:0.1;fill:#ffffff;enable-background:new"
   d="m 141.701,231.202 c 1.25,-22.017 0.691,-34.119 0.123,-40.17 -0.625,-6.449 -1.619,-6.686 -1.619,-6.686 0,0 -6.989,-0.682 -13.068,-0.634 -4.706,0.161 -9.403,0.653 -14.034,1.477 -4.394,0.729 -8.721,1.78 -12.973,3.134 0.71,2.026 1.354,3.949 1.951,5.757 0.795,2.386 1.506,4.602 2.149,6.667 1.203,3.864 2.14,7.206 2.888,10.199 2.339,9.261 2.831,15.189 3.324,22.954 0,0 -7.692,20.099 -9.192,34.849 l 25.5,2.75 3.5,-14.75 3.5,15.25 14.25,-5 z"
   id="path103" />
		</g>
		<path
   style="opacity:0.2;enable-background:new"
   d="m 108.35,216.332 c -0.34,-1.68 -0.74,-3.47 -1.23,-5.39 -0.31,-1.22 -0.65,-2.5 -1.03,-3.86 0.97,-3.41 1.972,-0.745 1.972,-0.745 0,0 1.001,4.125 0.288,9.995 z"
   id="path104" />
		<polygon
   style="fill:#407bff"
   points="116.833,191.333 129.5,214 132.5,189.667 126.75,196.875 "
   id="polygon104" />
		<g
   id="g106">
			<path
   style="fill:#407bff"
   d="m 116.5,183.25 c -5.662,1.329 -7.375,5.875 -6.75,10 l 4.125,-1.375 c 0,0 7.625,2.625 13.25,7.25 0,0 3.125,-5.75 6.125,-7.625 l 4.25,0.5 c 0,0 -6.625,-12.125 -21,-8.75 z"
   id="path105" />
			<path
   style="opacity:0.1;fill:#ffffff"
   d="m 116.5,183.25 c -5.662,1.329 -7.375,5.875 -6.75,10 l 4.125,-1.375 c 0,0 7.625,2.625 13.25,7.25 0,0 3.125,-5.75 6.125,-7.625 l 4.25,0.5 c 0,0 -6.625,-12.125 -21,-8.75 z"
   id="path106" />
		</g>
		<path
   style="fill:#eec1bb"
   d="m 126.782,185.053 c -0.276,-0.151 -0.604,-0.284 -0.951,-0.408 -0.721,-0.569 -1.596,-1.941 -1.555,-5.275 0.015,-1.086 0.118,-2.371 0.362,-3.904 l -9.272,-1.731 c 0,0 3.161,6.239 0.523,10.873 -0.907,0.404 -1.448,0.974 -1.35,1.729 0.694,5.359 12.211,10.537 12.211,10.537 0,0 5.625,-8.749 0.032,-11.821 z"
   id="path107" />
		<path
   style="opacity:0.2;enable-background:new"
   d="m 124.638,175.467 c -0.244,1.532 -0.347,2.818 -0.362,3.904 -6.263,0 -8.91,-5.635 -8.91,-5.635 z"
   id="path108" />
		<g
   id="g127">
			<path
   style="fill:#263238"
   d="m 120.5,144.875 c 0,0 10.875,-1.375 12.875,7.375 2,8.75 -4.75,13.625 -4.75,13.625 z"
   id="path109" />
			<path
   style="fill:#eec1bb"
   d="m 119.513,149.541 c 8.06,-0.442 10.891,3.731 11.936,12.005 1.307,10.34 -0.591,17.84 -10.79,16.175 -13.852,-2.261 -14.532,-27.447 -1.146,-28.18 z"
   id="path110" />
			<path
   style="fill:#d4827d"
   d="m 126.214,161.381 c 0,0 1.232,2.044 2.528,3.214 0,0 -0.63,1.134 -2.075,1.028 z"
   id="path111" />
			<g
   id="g113">
				<path
   style="fill:#263238"
   d="m 121.244,160.992 c 0.052,0.661 -0.264,1.225 -0.704,1.26 -0.441,0.035 -0.84,-0.473 -0.892,-1.135 -0.052,-0.661 0.263,-1.225 0.704,-1.26 0.441,-0.034 0.84,0.474 0.892,1.135 z"
   id="path112" />
				<path
   style="fill:#263238"
   d="m 120.171,159.904 1.394,-0.677 c 0,0 -0.621,1.267 -1.394,0.677 z"
   id="path113" />
			</g>
			<g
   id="g115">
				<path
   style="fill:#263238"
   d="m 129.454,160.211 c 0.052,0.661 -0.264,1.225 -0.704,1.26 -0.441,0.034 -0.84,-0.474 -0.892,-1.135 -0.052,-0.661 0.264,-1.225 0.705,-1.26 0.44,-0.034 0.839,0.474 0.891,1.135 z"
   id="path114" />
				<path
   style="fill:#263238"
   d="m 128.38,159.123 1.394,-0.676 c 0,0 -0.621,1.266 -1.394,0.676 z"
   id="path115" />
			</g>
			
				<path
   style="fill:none;stroke:#263238;stroke-width:0.6862;stroke-linecap:round;stroke-linejoin:round;stroke-miterlimit:10"
   d="m 120.858,155.431 c 0,0 -2.281,-0.17 -3.429,1.41"
   id="path116" />
			
				<path
   style="fill:none;stroke:#263238;stroke-width:0.6862;stroke-linecap:round;stroke-linejoin:round;stroke-miterlimit:10"
   d="m 126.698,154.77 c 0,0 1.395,-0.605 3.248,0.486"
   id="path117" />
			<path
   style="fill:#263238"
   d="m 111.448,163.608 c 0,0 3.406,-6.829 2.555,-11.91 0,0 15.615,-7.4 17.291,8.769 0,0 0.772,-14.481 -13.101,-14.043 -13.851,0.438 -12.704,20.705 -5.217,26.353 0,0 -3.632,-4.899 -1.528,-9.169 z"
   id="path118" />
			<path
   style="fill:#263238"
   d="m 121.875,144.25 c 0,0 6.625,-1.625 8.5,0.125 1.875,1.75 -11.5,14.125 -18.5,15.375 0,0 -2.375,7.75 -0.5,11.375 0,0 -7.875,-2.75 -8.25,-14.75 -0.375,-12 12.25,-16.5 18.75,-12.125 z"
   id="path119" />
			<path
   style="fill:#eec1bb"
   d="m 112.858,165.238 c -0.125,-1.295 -1.584,-3.418 -3.983,-3.022 -2.483,0.409 -3.392,5.602 2.888,6.495 0.9,0.127 1.355,-0.772 1.095,-3.473 z"
   id="path120" />
			<path
   style="fill:#263238"
   d="m 109.375,149 c 0,0 -2.75,-7 -10.125,-6.5 -7.375,0.5 -8.5,12 -4.625,20.5 3.875,8.5 1.25,11.25 1.25,11.25 0,0 4.125,-0.5 4.125,-8.125 0,0 0.375,2.5 0.25,4.875 0,0 2.75,-3.875 0.125,-11.25 -2.625,-7.375 5.75,-4 5.75,-4 z"
   id="path121" />
			
				<path
   style="fill:none;stroke:#263238;stroke-width:0.6862;stroke-linecap:round;stroke-linejoin:round;stroke-miterlimit:10"
   d="m 129.75,145 c 0,0 -3.5,11.25 -12.875,14.625"
   id="path122" />
			
				<path
   style="fill:none;stroke:#263238;stroke-width:0.6862;stroke-linecap:round;stroke-linejoin:round;stroke-miterlimit:10"
   d="m 120.375,168.5 c 0,0 1.875,2 4.625,1.875"
   id="path123" />
			<path
   style="fill:none;stroke:#263238;stroke-width:0.5;stroke-linecap:round;stroke-linejoin:round;stroke-miterlimit:10"
   d="m 125.375,162.125 c 0,1.07 -0.798,1.938 -1.781,1.938 -0.984,0 -1.781,-0.867 -1.781,-1.938 0,-1.071 0.798,-1.938 1.781,-1.938 0.983,10e-4 1.781,0.868 1.781,1.938 z"
   id="path124" />
			<path
   style="fill:none;stroke:#263238;stroke-width:0.5;stroke-linecap:round;stroke-linejoin:round;stroke-miterlimit:10"
   d="m 131.688,161.813 c 0,1.07 -0.798,1.938 -1.781,1.938 -0.984,0 -1.781,-0.867 -1.781,-1.938 0,-1.071 0.798,-1.938 1.781,-1.938 0.983,0 1.781,0.867 1.781,1.938 z"
   id="path125" />
			<path
   style="fill:none;stroke:#263238;stroke-width:0.5;stroke-linecap:round;stroke-linejoin:round;stroke-miterlimit:10"
   d="m 125.375,162.125 c 0,0 0.938,-2 2.75,-0.313"
   id="path126" />
			<path
   style="fill:none;stroke:#263238;stroke-width:0.5;stroke-linecap:round;stroke-linejoin:round;stroke-miterlimit:10"
   d="m 121.813,162.125 c 0,0 -10,-0.313 -11.188,-0.25"
   id="path127" />
		</g>
		<g
   id="g132">
			<path
   style="fill:#407bff"
   d="m 111.733,208.827 -0.462,25.533 c -0.011,0.611 0.507,1.098 1.116,1.05 l 16.816,-1.336 c 0.525,-0.042 0.935,-0.471 0.952,-0.998 l 0.809,-25.311 c 0.02,-0.61 -0.491,-1.105 -1.101,-1.065 l -17.163,1.114 c -0.537,0.034 -0.957,0.475 -0.967,1.013 z"
   id="path128" />
			<path
   style="opacity:0.6;fill:#ffffff"
   d="m 111.733,208.827 -0.462,25.533 c -0.011,0.611 0.507,1.098 1.116,1.05 l 16.816,-1.336 c 0.525,-0.042 0.935,-0.471 0.952,-0.998 l 0.809,-25.311 c 0.02,-0.61 -0.491,-1.105 -1.101,-1.065 l -17.163,1.114 c -0.537,0.034 -0.957,0.475 -0.967,1.013 z"
   id="path129" />
			<g
   id="g131">
				<path
   style="fill:#407bff"
   d="m 112.233,209.41 -0.462,25.533 c -0.011,0.611 0.507,1.098 1.116,1.05 l 16.816,-1.336 c 0.525,-0.042 0.935,-0.471 0.952,-0.998 l 0.809,-25.311 c 0.02,-0.61 -0.491,-1.105 -1.101,-1.065 l -17.163,1.115 c -0.537,0.034 -0.957,0.474 -0.967,1.012 z"
   id="path130" />
				<path
   style="opacity:0.7;fill:#ffffff"
   d="m 112.233,209.41 -0.462,25.533 c -0.011,0.611 0.507,1.098 1.116,1.05 l 16.816,-1.336 c 0.525,-0.042 0.935,-0.471 0.952,-0.998 l 0.809,-25.311 c 0.02,-0.61 -0.491,-1.105 -1.101,-1.065 l -17.163,1.115 c -0.537,0.034 -0.957,0.474 -0.967,1.012 z"
   id="path131" />
			</g>
			<path
   style="opacity:0.2;enable-background:new"
   d="m 123.83,221.584 c 0,1.376 -1.12,2.496 -2.496,2.496 -1.384,0 -2.504,-1.12 -2.504,-2.496 0,-1.384 1.12,-2.504 2.504,-2.504 0.032,0 0.064,0 0.096,0.008 0.192,1.16 1.168,2.048 2.368,2.088 0.024,0.136 0.032,0.272 0.032,0.408 z"
   id="path132" />
		</g>
		<path
   style="fill:#eec1bb"
   d="m 97.128,229.592 12.303,-7.754 c 0,0 0.939,-2.597 2.08,-3.126 1.141,-0.529 8.627,-1.515 9.351,-0.77 0.724,0.745 0.668,6.606 -0.743,7.369 -1.411,0.763 -8.003,0.686 -8.624,0.433 l -13.789,10.564 z"
   id="path133" />
		<g
   id="g135">
			<path
   style="fill:#263238"
   d="m 100.13,188.324 c 0,0 8.037,11.676 6.87,21.676 L 96.333,227.667 103.5,224 l 3.25,6.125 c 0,0 -8.25,12.708 -18.75,9.708 -10.5,-3 12.13,-51.509 12.13,-51.509 z"
   id="path134" />
			<path
   style="opacity:0.1;fill:#ffffff;enable-background:new"
   d="m 100.13,188.324 c 0,0 8.037,11.676 6.87,21.676 L 96.333,227.667 103.5,224 l 3.25,6.125 c 0,0 -8.25,12.708 -18.75,9.708 -10.5,-3 12.13,-51.509 12.13,-51.509 z"
   id="path135" />
		</g>
		<polygon
   style="fill:#407bff"
   points="102.75,223.667 106.833,231.25 107.75,229.083 104.5,222.917 "
   id="polygon135" />
	</g>
</g><g
   id="Button"
   transform="matrix(0.42467114,0,0,0.42467114,-6.4126555,-27.482864)">
	<g
   id="g140">
		<path
   style="fill:#407bff"
   d="m 196.017,192.64 c -2.545,0 -4.617,-2.071 -4.617,-4.616 0,-2.545 2.071,-4.616 4.617,-4.616 2.545,0 4.616,2.071 4.616,4.616 0,2.545 -2.071,4.616 -4.616,4.616 z"
   id="path136" />
		<g
   id="g139">
			<g
   id="g137">
				<path
   style="fill:#407bff"
   d="m 198.11,213 h -0.093 c -4.323,0 -8.579,-1.315 -12.308,-3.474 l 2.506,-4.414 c 2.968,1.719 6.358,2.758 9.802,2.758 z m 12.303,-3.699 -2.523,-4.316 c 2.97,-1.736 5.446,-4.23 7.16,-7.212 l 4.335,2.492 c -2.149,3.736 -5.251,6.861 -8.972,9.036 z m -33.712,-8.949 c -2.163,-3.726 -3.308,-7.981 -3.313,-12.303 l 5,-0.006 c 0.004,3.444 0.915,6.833 2.637,9.799 z m 40.945,-12.391 c -0.01,-3.443 -0.929,-6.83 -2.658,-9.793 l 4.319,-2.519 c 2.171,3.723 3.325,7.975 3.338,12.296 z m -36.641,-9.722 -4.329,-2.501 c 2.156,-3.732 5.265,-6.851 8.99,-9.018 l 2.515,4.322 c -2.974,1.73 -5.455,4.219 -7.176,7.197 z m 26.779,-7.238 c -2.96,-1.706 -6.337,-2.804 -9.767,-2.804 L 197.971,163 h 0.046 c 4.305,0 8.545,1.329 12.263,3.472 z"
   id="path137" />
			</g>
			<g
   style="opacity:0.6;enable-background:new"
   id="g138">
				<path
   style="fill:#ffffff"
   d="m 198.11,213 h -0.093 c -4.323,0 -8.579,-1.315 -12.308,-3.474 l 2.506,-4.414 c 2.968,1.719 6.358,2.758 9.802,2.758 z m 12.303,-3.699 -2.523,-4.316 c 2.97,-1.736 5.446,-4.23 7.16,-7.212 l 4.335,2.492 c -2.149,3.736 -5.251,6.861 -8.972,9.036 z m -33.712,-8.949 c -2.163,-3.726 -3.308,-7.981 -3.313,-12.303 l 5,-0.006 c 0.004,3.444 0.915,6.833 2.637,9.799 z m 40.945,-12.391 c -0.01,-3.443 -0.929,-6.83 -2.658,-9.793 l 4.319,-2.519 c 2.171,3.723 3.325,7.975 3.338,12.296 z m -36.641,-9.722 -4.329,-2.501 c 2.156,-3.732 5.265,-6.851 8.99,-9.018 l 2.515,4.322 c -2.974,1.73 -5.455,4.219 -7.176,7.197 z m 26.779,-7.238 c -2.96,-1.706 -6.337,-2.804 -9.767,-2.804 L 197.971,163 h 0.046 c 4.305,0 8.545,1.329 12.263,3.472 z"
   id="path138" />
			</g>
		</g>
	</g>
</g><g
   id="Data_Points"
   transform="matrix(0.42467114,0,0,0.42467114,-6.4126555,-27.482864)">
	<g
   id="g278">
		<g
   id="g141">
			<path
   style="fill:#407bff"
   d="m 203.017,194.179 c -3.394,0 -6.155,-2.761 -6.155,-6.155 0,-3.394 2.762,-6.155 6.155,-6.155 3.394,0 6.155,2.762 6.155,6.155 0,3.393 -2.761,6.155 -6.155,6.155 z"
   id="path140" />
			<path
   style="opacity:0.5;fill:#ffffff"
   d="m 203.017,194.179 c -3.394,0 -6.155,-2.761 -6.155,-6.155 0,-3.394 2.762,-6.155 6.155,-6.155 3.394,0 6.155,2.762 6.155,6.155 0,3.393 -2.761,6.155 -6.155,6.155 z"
   id="path141" />
		</g>
		<g
   id="g166">
			<g
   id="g142">
				
					<circle
   transform="matrix(0.2298,-0.9732,0.9732,0.2298,-25.0796,344.3574)"
   style="fill:none;stroke:#407bff;stroke-width:3;stroke-miterlimit:10"
   cx="205.017"
   cy="188.02299"
   id="ellipse141"
   r="10.129" />
			</g>
			<g
   id="g143">
				<rect
   x="214"
   y="187"
   style="fill:#407bff"
   width="168"
   height="2"
   id="rect142" />
			</g>
			<g
   id="g144">
				<path
   style="fill:#407bff"
   d="m 206,179 h -2 v -12 c 0,-0.266 0.106,-0.52 0.294,-0.708 l 61.166,-61 c 0.188,-0.187 0.441,-0.292 0.706,-0.292 H 322 v 2 H 266.58 L 206,167.415 Z"
   id="path143" />
			</g>
			<g
   id="g145">
				<path
   style="fill:#407bff"
   d="m 351,280 h -75 c -0.265,0 -0.52,-0.105 -0.707,-0.293 l -71,-71 C 204.105,208.52 204,208.265 204,208 v -10 h 2 v 9.586 L 276.414,278 H 351 Z"
   id="path144" />
			</g>
			<g
   id="g146">
				<path
   style="fill:#407bff"
   d="m 301,216 h -40.167 c -0.264,0 -0.518,-0.105 -0.705,-0.29 l -27,-26.833 1.41,-1.419 L 261.246,214 H 301 Z"
   id="path145" />
			</g>
			<g
   id="g147">
				<path
   style="fill:#407bff"
   d="m 273.21,188.786 -1.419,-1.41 26.914,-27.081 c 0.188,-0.189 0.443,-0.295 0.71,-0.295 H 340 v 2 h -40.17 z"
   id="path146" />
			</g>
			<g
   id="g148">
				<path
   style="fill:#407bff"
   d="M 426,138 H 267.228 c -0.267,0 -0.523,-0.107 -0.711,-0.296 l -15.936,-16.103 1.422,-1.407 L 267.646,136 H 426 Z"
   id="path147" />
			</g>
			<g
   id="g149">
				<path
   style="fill:#407bff"
   d="m 284.374,106.707 -1.414,-1.414 26,-26 C 309.148,79.105 309.402,79 309.667,79 H 393 v 2 h -82.919 z"
   id="path148" />
			</g>
			<g
   id="g150">
				<path
   style="fill:#407bff"
   d="M 300.626,329.04 260.293,288.707 C 260.105,288.52 260,288.266 260,288 v -24 h 2 v 23.586 l 40.04,40.04 z"
   id="path149" />
			</g>
			<g
   id="g151">
				<path
   style="fill:#407bff"
   d="m 291.543,279.391 -1.419,-1.41 26.519,-26.686 c 0.188,-0.189 0.443,-0.295 0.71,-0.295 H 418 v 2 H 317.768 Z"
   id="path150" />
			</g>
			<g
   id="g152">
				<path
   style="fill:#407bff"
   d="m 385,308 h -44.833 c -0.265,0 -0.52,-0.105 -0.707,-0.293 L 311.293,279.54 312.707,278.126 340.581,306 H 385 Z"
   id="path151" />
			</g>
			<g
   id="g153">
				<circle
   style="fill:#407bff"
   cx="393"
   cy="80"
   r="4.5830002"
   id="circle152" />
			</g>
			<g
   id="g154">
				<path
   style="fill:#407bff"
   d="m 331,116.584 c -5.836,0 -10.583,-4.748 -10.583,-10.584 0,-5.836 4.747,-10.584 10.583,-10.584 5.836,0 10.583,4.748 10.583,10.584 0,5.836 -4.747,10.584 -10.583,10.584 z m 0,-19.168 c -4.733,0 -8.583,3.851 -8.583,8.584 0,4.733 3.851,8.584 8.583,8.584 4.732,0 8.583,-3.851 8.583,-8.584 0,-4.733 -3.85,-8.584 -8.583,-8.584 z"
   id="path153" />
			</g>
			<g
   id="g155">
				<circle
   style="fill:#407bff"
   cx="331"
   cy="106"
   r="4.5830002"
   id="circle154" />
			</g>
			<g
   id="g156">
				<path
   style="fill:#407bff"
   d="m 430.583,137.165 c 0,2.531 -2.052,4.583 -4.583,4.583 -2.531,0 -4.583,-2.052 -4.583,-4.583 0,-2.531 2.052,-4.583 4.583,-4.583 2.531,0 4.583,2.052 4.583,4.583 z"
   id="path155" />
			</g>
			<g
   id="g157">
				<circle
   style="fill:#407bff"
   cx="340"
   cy="161"
   r="4.5830002"
   id="circle156" />
			</g>
			<g
   id="g158">
				<path
   style="fill:#407bff"
   d="m 391,198.583 c -5.836,0 -10.583,-4.748 -10.583,-10.583 0,-5.835 4.748,-10.583 10.583,-10.583 5.835,0 10.583,4.748 10.583,10.583 0,5.835 -4.747,10.583 -10.583,10.583 z m 0,-19.166 c -4.733,0 -8.583,3.851 -8.583,8.583 0,4.732 3.851,8.583 8.583,8.583 4.732,0 8.583,-3.851 8.583,-8.583 0,-4.732 -3.85,-8.583 -8.583,-8.583 z"
   id="path157" />
			</g>
			<g
   id="g159">
				<circle
   style="fill:#407bff"
   cx="391"
   cy="188"
   r="4.5830002"
   id="circle158" />
			</g>
			<g
   id="g160">
				<circle
   style="fill:#407bff"
   cx="301"
   cy="215"
   r="4.5830002"
   id="circle159" />
			</g>
			<g
   id="g161">
				<circle
   style="fill:#407bff"
   cx="418"
   cy="252"
   r="4.5830002"
   id="circle160" />
			</g>
			<g
   id="g162">
				<path
   style="fill:#407bff"
   d="m 360,289.417 c -5.836,0 -10.583,-4.748 -10.583,-10.584 0,-5.836 4.747,-10.583 10.583,-10.583 5.836,0 10.583,4.747 10.583,10.583 0,5.836 -4.747,10.584 -10.583,10.584 z m 0,-19.167 c -4.733,0 -8.583,3.851 -8.583,8.583 0,4.733 3.851,8.584 8.583,8.584 4.732,0 8.583,-3.851 8.583,-8.584 0,-4.732 -3.85,-8.583 -8.583,-8.583 z"
   id="path161" />
			</g>
			<g
   id="g163">
				<path
   style="fill:#407bff"
   d="m 364.583,278.833 c 0,2.531 -2.052,4.583 -4.583,4.583 -2.531,0 -4.583,-2.052 -4.583,-4.583 0,-2.531 2.052,-4.583 4.583,-4.583 2.531,0 4.583,2.052 4.583,4.583 z"
   id="path162" />
			</g>
			<g
   id="g164">
				<circle
   style="fill:#407bff"
   cx="385"
   cy="307"
   r="4.5830002"
   id="circle163" />
			</g>
			<g
   id="g165">
				<path
   style="fill:#407bff"
   d="m 305.917,328.333 c 0,2.531 -2.052,4.583 -4.583,4.583 -2.531,0 -4.583,-2.052 -4.583,-4.583 0,-2.531 2.052,-4.583 4.583,-4.583 2.531,0 4.583,2.052 4.583,4.583 z"
   id="path164" />
			</g>
		</g>
		<g
   id="g175">
			<g
   id="g167">
				<path
   style="fill:#407bff"
   d="m 421.768,93.503 h -16.703 c -0.833,0 -1.508,-0.675 -1.508,-1.508 V 69.26 c 0,-0.833 0.675,-1.508 1.508,-1.508 h 16.703 c 0.833,0 1.508,0.675 1.508,1.508 v 22.735 c 0,0.833 -0.675,1.508 -1.508,1.508 z"
   id="path166" />
				<path
   style="opacity:0.6;fill:#ffffff;enable-background:new"
   d="m 421.768,93.503 h -16.703 c -0.833,0 -1.508,-0.675 -1.508,-1.508 V 69.26 c 0,-0.833 0.675,-1.508 1.508,-1.508 h 16.703 c 0.833,0 1.508,0.675 1.508,1.508 v 22.735 c 0,0.833 -0.675,1.508 -1.508,1.508 z"
   id="path167" />
			</g>
			<g
   id="g174">
				<rect
   x="406.50101"
   y="71.405998"
   style="fill:#407bff"
   width="13.832"
   height="1.392"
   id="rect167" />
				<rect
   x="406.50101"
   y="73.842003"
   style="fill:#407bff"
   width="13.832"
   height="1.392"
   id="rect168" />
				<rect
   x="406.50101"
   y="76.278"
   style="fill:#407bff"
   width="13.832"
   height="1.392"
   id="rect169" />
				<rect
   x="406.50101"
   y="78.713997"
   style="fill:#407bff"
   width="13.832"
   height="1.392"
   id="rect170" />
				<rect
   x="406.50101"
   y="81.150002"
   style="fill:#407bff"
   width="13.832"
   height="1.392"
   id="rect171" />
				<rect
   x="406.50101"
   y="83.584999"
   style="fill:#407bff"
   width="13.832"
   height="1.392"
   id="rect172" />
				<rect
   x="406.50101"
   y="86.021004"
   style="fill:#407bff"
   width="13.832"
   height="1.392"
   id="rect173" />
				<rect
   x="406.50101"
   y="88.457001"
   style="fill:#407bff"
   width="8.9569998"
   height="1.392"
   id="rect174" />
			</g>
		</g>
		<g
   id="g184">
			<g
   id="g176">
				<path
   style="fill:#407bff"
   d="m 328.85,230.038 h -16.703 c -0.833,0 -1.508,-0.675 -1.508,-1.508 v -22.734 c 0,-0.833 0.675,-1.508 1.508,-1.508 h 16.703 c 0.833,0 1.508,0.675 1.508,1.508 v 22.734 c 0,0.833 -0.675,1.508 -1.508,1.508 z"
   id="path175" />
				<path
   style="opacity:0.6;fill:#ffffff;enable-background:new"
   d="m 328.85,230.038 h -16.703 c -0.833,0 -1.508,-0.675 -1.508,-1.508 v -22.734 c 0,-0.833 0.675,-1.508 1.508,-1.508 h 16.703 c 0.833,0 1.508,0.675 1.508,1.508 v 22.734 c 0,0.833 -0.675,1.508 -1.508,1.508 z"
   id="path176" />
			</g>
			<g
   id="g183">
				<rect
   x="313.58301"
   y="207.94099"
   style="fill:#407bff"
   width="13.832"
   height="1.392"
   id="rect176" />
				<rect
   x="313.58301"
   y="210.377"
   style="fill:#407bff"
   width="13.832"
   height="1.392"
   id="rect177" />
				<rect
   x="313.58301"
   y="212.813"
   style="fill:#407bff"
   width="13.832"
   height="1.392"
   id="rect178" />
				<rect
   x="313.58301"
   y="215.24899"
   style="fill:#407bff"
   width="13.832"
   height="1.392"
   id="rect179" />
				<rect
   x="313.58301"
   y="217.685"
   style="fill:#407bff"
   width="13.832"
   height="1.392"
   id="rect180" />
				<rect
   x="313.58301"
   y="220.121"
   style="fill:#407bff"
   width="13.832"
   height="1.392"
   id="rect181" />
				<rect
   x="313.58301"
   y="222.55701"
   style="fill:#407bff"
   width="13.832"
   height="1.392"
   id="rect182" />
				<rect
   x="313.58301"
   y="224.992"
   style="fill:#407bff"
   width="8.9569998"
   height="1.392"
   id="rect183" />
			</g>
		</g>
		<g
   id="g193">
			<g
   id="g185">
				<path
   style="fill:#407bff"
   d="m 444.211,257.754 h -16.703 c -0.833,0 -1.508,-0.675 -1.508,-1.508 v -22.735 c 0,-0.833 0.675,-1.508 1.508,-1.508 h 16.703 c 0.833,0 1.508,0.675 1.508,1.508 v 22.735 c 0,0.833 -0.675,1.508 -1.508,1.508 z"
   id="path184" />
				<path
   style="opacity:0.6;fill:#ffffff;enable-background:new"
   d="m 444.211,257.754 h -16.703 c -0.833,0 -1.508,-0.675 -1.508,-1.508 v -22.735 c 0,-0.833 0.675,-1.508 1.508,-1.508 h 16.703 c 0.833,0 1.508,0.675 1.508,1.508 v 22.735 c 0,0.833 -0.675,1.508 -1.508,1.508 z"
   id="path185" />
			</g>
			<g
   id="g192">
				<rect
   x="428.94299"
   y="235.658"
   style="fill:#407bff"
   width="13.832"
   height="1.392"
   id="rect185" />
				<rect
   x="428.94299"
   y="238.09399"
   style="fill:#407bff"
   width="13.832"
   height="1.392"
   id="rect186" />
				<rect
   x="428.94299"
   y="240.52901"
   style="fill:#407bff"
   width="13.832"
   height="1.392"
   id="rect187" />
				<rect
   x="428.94299"
   y="242.965"
   style="fill:#407bff"
   width="13.832"
   height="1.392"
   id="rect188" />
				<rect
   x="428.94299"
   y="245.401"
   style="fill:#407bff"
   width="13.832"
   height="1.392"
   id="rect189" />
				<rect
   x="428.94299"
   y="247.83701"
   style="fill:#407bff"
   width="13.832"
   height="1.392"
   id="rect190" />
				<rect
   x="428.94299"
   y="250.27299"
   style="fill:#407bff"
   width="13.832"
   height="1.392"
   id="rect191" />
				<rect
   x="428.94299"
   y="252.709"
   style="fill:#407bff"
   width="8.9569998"
   height="1.392"
   id="rect192" />
			</g>
		</g>
		<g
   id="g202">
			<g
   id="g194">
				<path
   style="fill:#407bff"
   d="m 452.027,142.875 h -16.703 c -0.833,0 -1.508,-0.675 -1.508,-1.508 v -22.735 c 0,-0.833 0.675,-1.508 1.508,-1.508 h 16.703 c 0.833,0 1.508,0.675 1.508,1.508 v 22.735 c 0,0.833 -0.675,1.508 -1.508,1.508 z"
   id="path193" />
				<path
   style="opacity:0.6;fill:#ffffff;enable-background:new"
   d="m 452.027,142.875 h -16.703 c -0.833,0 -1.508,-0.675 -1.508,-1.508 v -22.735 c 0,-0.833 0.675,-1.508 1.508,-1.508 h 16.703 c 0.833,0 1.508,0.675 1.508,1.508 v 22.735 c 0,0.833 -0.675,1.508 -1.508,1.508 z"
   id="path194" />
			</g>
			<g
   id="g201">
				<rect
   x="436.76001"
   y="120.779"
   style="fill:#407bff"
   width="13.832"
   height="1.392"
   id="rect194" />
				<rect
   x="436.76001"
   y="123.214"
   style="fill:#407bff"
   width="13.832"
   height="1.392"
   id="rect195" />
				<rect
   x="436.76001"
   y="125.65"
   style="fill:#407bff"
   width="13.832"
   height="1.392"
   id="rect196" />
				<rect
   x="436.76001"
   y="128.086"
   style="fill:#407bff"
   width="13.832"
   height="1.392"
   id="rect197" />
				<rect
   x="436.76001"
   y="130.522"
   style="fill:#407bff"
   width="13.832"
   height="1.392"
   id="rect198" />
				<rect
   x="436.76001"
   y="132.95799"
   style="fill:#407bff"
   width="13.832"
   height="1.392"
   id="rect199" />
				<rect
   x="436.76001"
   y="135.394"
   style="fill:#407bff"
   width="13.832"
   height="1.392"
   id="rect200" />
				<rect
   x="436.76001"
   y="137.82899"
   style="fill:#407bff"
   width="8.9569998"
   height="1.392"
   id="rect201" />
			</g>
		</g>
		<g
   id="g211">
			<g
   id="g203">
				<path
   style="fill:#407bff"
   d="M 329.223,348.963 H 312.52 c -0.833,0 -1.508,-0.675 -1.508,-1.508 V 324.72 c 0,-0.833 0.675,-1.508 1.508,-1.508 h 16.703 c 0.833,0 1.508,0.675 1.508,1.508 v 22.734 c -10e-4,0.834 -0.676,1.509 -1.508,1.509 z"
   id="path202" />
				<path
   style="opacity:0.6;fill:#ffffff;enable-background:new"
   d="M 329.223,348.963 H 312.52 c -0.833,0 -1.508,-0.675 -1.508,-1.508 V 324.72 c 0,-0.833 0.675,-1.508 1.508,-1.508 h 16.703 c 0.833,0 1.508,0.675 1.508,1.508 v 22.734 c -10e-4,0.834 -0.676,1.509 -1.508,1.509 z"
   id="path203" />
			</g>
			<g
   id="g210">
				<rect
   x="313.95499"
   y="326.866"
   style="fill:#407bff"
   width="13.832"
   height="1.392"
   id="rect203" />
				<rect
   x="313.95499"
   y="329.302"
   style="fill:#407bff"
   width="13.832"
   height="1.392"
   id="rect204" />
				<rect
   x="313.95499"
   y="331.73801"
   style="fill:#407bff"
   width="13.832"
   height="1.392"
   id="rect205" />
				<rect
   x="313.95499"
   y="334.17401"
   style="fill:#407bff"
   width="13.832"
   height="1.392"
   id="rect206" />
				<rect
   x="313.95499"
   y="336.60999"
   style="fill:#407bff"
   width="13.832"
   height="1.392"
   id="rect207" />
				<rect
   x="313.95499"
   y="339.04599"
   style="fill:#407bff"
   width="13.832"
   height="1.392"
   id="rect208" />
				<rect
   x="313.95499"
   y="341.48099"
   style="fill:#407bff"
   width="13.832"
   height="1.392"
   id="rect209" />
				<rect
   x="313.95499"
   y="343.91699"
   style="fill:#407bff"
   width="8.9569998"
   height="1.392"
   id="rect210" />
			</g>
		</g>
		<g
   id="g213">
			<path
   style="fill:#407bff"
   d="m 450.405,210.45 h -42.924 c -0.849,0 -1.538,-0.689 -1.538,-1.538 v -42.924 c 0,-0.849 0.689,-1.538 1.538,-1.538 h 42.924 c 0.849,0 1.538,0.688 1.538,1.538 v 42.924 c 0,0.85 -0.688,1.538 -1.538,1.538 z"
   id="path211" />
			<circle
   style="opacity:0.5;fill:#ffffff"
   cx="428.94299"
   cy="187.45"
   r="15.5"
   id="circle211" />
			<path
   style="opacity:0.7;fill:#ffffff"
   d="m 428.943,187.45 h 15.5 c 0,8.503 -6.997,15.5 -15.5,15.5 -8.503,0 -15.5,-6.997 -15.5,-15.5 0,-8.503 6.997,-15.5 15.5,-15.5 2.719,0 5.391,0.715 7.746,2.074 z"
   id="path212" />
			<circle
   style="fill:#407bff"
   cx="428.94299"
   cy="187.45"
   r="12"
   id="circle212" />
			<circle
   style="opacity:0.3;fill:#ffffff"
   cx="428.94299"
   cy="187.45"
   r="12"
   id="circle213" />
			<text
   transform="translate(423.7077,189.7935)"
   style="font-size:5.8881px;font-family:Bebas;fill:#ffffff"
   id="text213">80%</text>
		</g>
		<g
   id="g233">
			<path
   style="fill:#407bff"
   d="m 407.679,296.5 h -32.66 c -0.646,0 -1.17,-0.524 -1.17,-1.17 v -32.66 c 0,-0.646 0.524,-1.17 1.17,-1.17 h 32.66 c 0.646,0 1.17,0.524 1.17,1.17 v 32.66 c 0.001,0.646 -0.523,1.17 -1.17,1.17 z"
   id="path213" />
			<g
   id="g232">
				<g
   id="g219">
					<rect
   x="398"
   y="290.62701"
   style="opacity:0.5;fill:#ffffff"
   width="4.5"
   height="2.29"
   id="rect213" />
					<rect
   x="398"
   y="267.78"
   style="fill:#ffffff"
   width="4.5"
   height="2.29"
   id="rect214" />
					<rect
   x="398"
   y="271.58701"
   style="fill:#ffffff"
   width="4.5"
   height="2.29"
   id="rect215" />
					<rect
   x="398"
   y="275.39499"
   style="opacity:0.75;fill:#ffffff"
   width="4.5"
   height="2.29"
   id="rect216" />
					<rect
   x="398"
   y="279.203"
   style="opacity:0.5;fill:#ffffff"
   width="4.5"
   height="2.29"
   id="rect217" />
					<rect
   x="398"
   y="283.01099"
   style="opacity:0.5;fill:#ffffff"
   width="4.5"
   height="2.29"
   id="rect218" />
					<rect
   x="398"
   y="286.819"
   style="opacity:0.5;fill:#ffffff"
   width="4.5"
   height="2.29"
   id="rect219" />
				</g>
				<g
   id="g223">
					<rect
   x="391.875"
   y="290.62701"
   style="opacity:0.5;fill:#ffffff"
   width="4.5"
   height="2.29"
   id="rect220" />
					<rect
   x="391.875"
   y="279.203"
   style="fill:#ffffff"
   width="4.5"
   height="2.29"
   id="rect221" />
					<rect
   x="391.875"
   y="283.01099"
   style="opacity:0.75;fill:#ffffff"
   width="4.5"
   height="2.29"
   id="rect222" />
					<rect
   x="391.875"
   y="286.819"
   style="opacity:0.5;fill:#ffffff"
   width="4.5"
   height="2.29"
   id="rect223" />
				</g>
				<g
   id="g228">
					<rect
   x="385.75"
   y="290.62701"
   style="opacity:0.5;fill:#ffffff"
   width="4.5"
   height="2.29"
   id="rect224" />
					<rect
   x="385.75"
   y="275.39499"
   style="fill:#ffffff"
   width="4.5"
   height="2.29"
   id="rect225" />
					<rect
   x="385.75"
   y="279.203"
   style="opacity:0.75;fill:#ffffff"
   width="4.5"
   height="2.29"
   id="rect226" />
					<rect
   x="385.75"
   y="283.01099"
   style="opacity:0.5;fill:#ffffff"
   width="4.5"
   height="2.29"
   id="rect227" />
					<rect
   x="385.75"
   y="286.819"
   style="opacity:0.5;fill:#ffffff"
   width="4.5"
   height="2.29"
   id="rect228" />
				</g>
				<g
   id="g231">
					<rect
   x="379.625"
   y="290.62701"
   style="opacity:0.5;fill:#ffffff"
   width="4.5"
   height="2.29"
   id="rect229" />
					<rect
   x="379.625"
   y="283.01099"
   style="fill:#ffffff"
   width="4.5"
   height="2.29"
   id="rect230" />
					<rect
   x="379.625"
   y="286.819"
   style="opacity:0.75;fill:#ffffff"
   width="4.5"
   height="2.29"
   id="rect231" />
				</g>
			</g>
		</g>
		<g
   id="g238">
			<path
   style="fill:#407bff"
   d="m 380.913,128.083 h -32.66 c -0.646,0 -1.17,-0.524 -1.17,-1.17 v -32.66 c 0,-0.646 0.524,-1.17 1.17,-1.17 h 32.66 c 0.646,0 1.17,0.524 1.17,1.17 v 32.66 c 0,0.646 -0.524,1.17 -1.17,1.17 z"
   id="path233" />
			<g
   id="g237">
				<g
   id="g236">
					<path
   style="opacity:0.9;fill:#ffffff"
   d="m 367.109,106.785 v -2.19 l -1.128,-0.106 c -0.152,-0.734 -0.443,-1.417 -0.841,-2.023 l 0.724,-0.875 -1.548,-1.549 -0.875,0.724 c -0.606,-0.398 -1.289,-0.689 -2.023,-0.841 l -0.106,-1.128 h -2.19 l -0.106,1.128 c -0.734,0.152 -1.417,0.443 -2.023,0.841 l -0.875,-0.724 -1.548,1.549 0.724,0.875 c -0.398,0.606 -0.689,1.289 -0.841,2.023 l -1.128,0.106 v 2.19 l 1.128,0.106 c 0.152,0.734 0.443,1.417 0.841,2.023 l -0.724,0.875 1.548,1.548 0.875,-0.724 c 0.606,0.398 1.289,0.689 2.023,0.841 l 0.106,1.128 h 2.19 l 0.106,-1.128 c 0.734,-0.152 1.416,-0.443 2.023,-0.841 l 0.875,0.724 1.548,-1.548 -0.724,-0.875 c 0.398,-0.606 0.689,-1.289 0.841,-2.023 z m -6.891,1.869 c -1.637,0 -2.964,-1.327 -2.964,-2.964 0,-1.637 1.327,-2.964 2.964,-2.964 1.637,0 2.964,1.327 2.964,2.964 0,1.637 -1.327,2.964 -2.964,2.964 z"
   id="path234" />
					<path
   style="opacity:0.6;fill:#ffffff"
   d="m 375.984,112.966 v -1.716 l -0.883,-0.083 c -0.119,-0.575 -0.347,-1.11 -0.659,-1.585 l 0.568,-0.685 -1.213,-1.213 -0.686,0.568 c -0.475,-0.312 -1.01,-0.54 -1.585,-0.659 l -0.083,-0.883 h -1.716 l -0.083,0.883 c -0.575,0.119 -1.11,0.347 -1.585,0.659 l -0.685,-0.568 -1.213,1.213 0.568,0.685 c -0.312,0.475 -0.54,1.01 -0.659,1.585 l -0.884,0.083 v 1.716 l 0.884,0.083 c 0.119,0.575 0.347,1.11 0.659,1.585 l -0.568,0.686 1.213,1.213 0.685,-0.567 c 0.475,0.312 1.01,0.54 1.585,0.659 l 0.083,0.883 h 1.716 l 0.083,-0.883 c 0.575,-0.119 1.11,-0.347 1.585,-0.659 l 0.685,0.567 1.213,-1.213 -0.568,-0.686 c 0.312,-0.475 0.54,-1.01 0.659,-1.585 z m -5.4,1.465 c -1.283,0 -2.323,-1.04 -2.323,-2.323 0,-1.283 1.04,-2.323 2.323,-2.323 1.283,0 2.323,1.04 2.323,2.323 0,1.283 -1.04,2.323 -2.323,2.323 z"
   id="path235" />
					<path
   style="opacity:0.4;fill:#ffffff"
   d="m 367.109,117.837 v -1.441 l -0.742,-0.07 c -0.1,-0.483 -0.292,-0.932 -0.553,-1.331 l 0.477,-0.576 -1.019,-1.019 -0.576,0.477 c -0.399,-0.262 -0.848,-0.453 -1.331,-0.553 l -0.07,-0.742 h -1.441 l -0.07,0.742 c -0.483,0.1 -0.932,0.292 -1.331,0.554 l -0.576,-0.477 -1.019,1.019 0.477,0.576 c -0.262,0.399 -0.453,0.848 -0.553,1.331 l -0.742,0.07 v 1.441 l 0.742,0.07 c 0.1,0.483 0.292,0.932 0.553,1.331 l -0.477,0.576 1.019,1.019 0.576,-0.477 c 0.399,0.262 0.848,0.453 1.331,0.554 l 0.07,0.742 h 1.441 l 0.07,-0.742 c 0.483,-0.1 0.932,-0.292 1.331,-0.554 l 0.576,0.477 1.019,-1.019 -0.477,-0.576 c 0.262,-0.399 0.453,-0.848 0.553,-1.331 z m -4.536,1.231 c -1.078,0 -1.951,-0.873 -1.951,-1.951 0,-1.077 0.874,-1.951 1.951,-1.951 1.077,0 1.951,0.874 1.951,1.951 0,1.077 -0.873,1.951 -1.951,1.951 z"
   id="path236" />
				</g>
			</g>
		</g>
		<g
   id="g246">
			<g
   id="g239">
				<rect
   x="347.93799"
   y="150.75"
   style="fill:#407bff"
   width="30.75"
   height="20"
   id="rect238" />
				<rect
   x="347.93799"
   y="150.75"
   style="opacity:0.6;fill:#ffffff;enable-background:new"
   width="30.75"
   height="20"
   id="rect239" />
			</g>
			<rect
   x="349.06299"
   y="154.5"
   style="fill:#407bff"
   width="28.5"
   height="15.25"
   id="rect240" />
			<g
   id="g245">
				<rect
   x="351.38501"
   y="156.77901"
   style="fill:#ffffff"
   width="21.082001"
   height="0.65600002"
   id="rect241" />
				<rect
   x="351.38501"
   y="158.78799"
   style="fill:#ffffff"
   width="10.115"
   height="0.65600002"
   id="rect242" />
				<rect
   x="351.38501"
   y="160.797"
   style="fill:#ffffff"
   width="12.74"
   height="0.65600002"
   id="rect243" />
				<rect
   x="351.38501"
   y="162.806"
   style="fill:#ffffff"
   width="4.4899998"
   height="0.65600002"
   id="rect244" />
				<rect
   x="351.38501"
   y="164.815"
   style="fill:#ffffff"
   width="2.908"
   height="0.65600002"
   id="rect245" />
			</g>
		</g>
		<g
   id="g254">
			<g
   id="g247">
				<rect
   x="396.93799"
   y="303.25"
   style="fill:#407bff"
   width="30.75"
   height="20"
   id="rect246" />
				<rect
   x="396.93799"
   y="303.25"
   style="opacity:0.6;fill:#ffffff;enable-background:new"
   width="30.75"
   height="20"
   id="rect247" />
			</g>
			<rect
   x="398.06299"
   y="307"
   style="fill:#407bff"
   width="28.5"
   height="15.25"
   id="rect248" />
			<g
   id="g253">
				<rect
   x="400.38501"
   y="309.27899"
   style="fill:#ffffff"
   width="21.082001"
   height="0.65600002"
   id="rect249" />
				<rect
   x="400.38501"
   y="311.28799"
   style="fill:#ffffff"
   width="10.115"
   height="0.65600002"
   id="rect250" />
				<rect
   x="400.38501"
   y="313.297"
   style="fill:#ffffff"
   width="12.74"
   height="0.65600002"
   id="rect251" />
				<rect
   x="400.38501"
   y="315.306"
   style="fill:#ffffff"
   width="4.4899998"
   height="0.65600002"
   id="rect252" />
				<rect
   x="400.38501"
   y="317.315"
   style="fill:#ffffff"
   width="2.908"
   height="0.65600002"
   id="rect253" />
			</g>
		</g>
		<g
   style="opacity:0.4"
   id="g277">
			<g
   id="g255">
				<rect
   x="212"
   y="187"
   style="fill:#ffffff"
   width="170"
   height="2"
   id="rect254" />
			</g>
			<g
   id="g256">
				<path
   style="fill:#ffffff"
   d="m 206,179 h -2 v -12 c 0,-0.266 0.106,-0.52 0.294,-0.708 l 61.166,-61 c 0.188,-0.187 0.441,-0.292 0.706,-0.292 H 322 v 2 H 266.58 L 206,167.415 Z"
   id="path255" />
			</g>
			<g
   id="g257">
				<path
   style="fill:#ffffff"
   d="m 351,280 h -75 c -0.265,0 -0.52,-0.105 -0.707,-0.293 l -71,-71 C 204.105,208.52 204,208.265 204,208 v -10 h 2 v 9.586 L 276.414,278 H 351 Z"
   id="path256" />
			</g>
			<g
   id="g258">
				<path
   style="fill:#ffffff"
   d="m 301,216 h -40.167 c -0.264,0 -0.518,-0.105 -0.705,-0.29 l -27,-26.833 1.41,-1.419 L 261.246,214 H 301 Z"
   id="path257" />
			</g>
			<g
   id="g259">
				<path
   style="fill:#ffffff"
   d="m 273.21,188.786 -1.419,-1.41 26.914,-27.081 c 0.188,-0.189 0.443,-0.295 0.71,-0.295 H 340 v 2 h -40.17 z"
   id="path258" />
			</g>
			<g
   id="g260">
				<path
   style="fill:#ffffff"
   d="M 426,138 H 267.228 c -0.267,0 -0.523,-0.107 -0.711,-0.296 l -15.936,-16.103 1.422,-1.407 L 267.646,136 H 426 Z"
   id="path259" />
			</g>
			<g
   id="g261">
				<path
   style="fill:#ffffff"
   d="m 284.374,106.707 -1.414,-1.414 26,-26 C 309.148,79.105 309.402,79 309.667,79 H 393 v 2 h -82.919 z"
   id="path260" />
			</g>
			<g
   id="g262">
				<path
   style="fill:#ffffff"
   d="M 300.626,329.04 260.293,288.707 C 260.105,288.52 260,288.266 260,288 v -24 h 2 v 23.586 l 40.04,40.04 z"
   id="path261" />
			</g>
			<g
   id="g263">
				<path
   style="fill:#ffffff"
   d="m 291.543,279.391 -1.419,-1.41 26.519,-26.686 c 0.188,-0.189 0.443,-0.295 0.71,-0.295 H 418 v 2 H 317.768 Z"
   id="path262" />
			</g>
			<g
   id="g264">
				<path
   style="fill:#ffffff"
   d="m 385,308 h -44.833 c -0.265,0 -0.52,-0.105 -0.707,-0.293 L 311.293,279.54 312.707,278.126 340.581,306 H 385 Z"
   id="path263" />
			</g>
			<g
   id="g265">
				<circle
   style="fill:#ffffff"
   cx="393"
   cy="80"
   r="4.5830002"
   id="circle264" />
			</g>
			<g
   id="g266">
				<path
   style="fill:#ffffff"
   d="m 331,116.584 c -5.836,0 -10.583,-4.748 -10.583,-10.584 0,-5.836 4.747,-10.584 10.583,-10.584 5.836,0 10.583,4.748 10.583,10.584 0,5.836 -4.747,10.584 -10.583,10.584 z m 0,-19.168 c -4.733,0 -8.583,3.851 -8.583,8.584 0,4.733 3.851,8.584 8.583,8.584 4.732,0 8.583,-3.851 8.583,-8.584 0,-4.733 -3.85,-8.584 -8.583,-8.584 z"
   id="path265" />
			</g>
			<g
   id="g267">
				<path
   style="fill:#ffffff"
   d="m 430.583,137.165 c 0,2.531 -2.052,4.583 -4.583,4.583 -2.531,0 -4.583,-2.052 -4.583,-4.583 0,-2.531 2.052,-4.583 4.583,-4.583 2.531,0 4.583,2.052 4.583,4.583 z"
   id="path266" />
			</g>
			<g
   id="g268">
				<circle
   style="fill:#ffffff"
   cx="340"
   cy="161"
   r="4.5830002"
   id="circle267" />
			</g>
			<g
   id="g269">
				<path
   style="fill:#ffffff"
   d="m 391,198.583 c -5.836,0 -10.583,-4.748 -10.583,-10.583 0,-5.835 4.748,-10.583 10.583,-10.583 5.835,0 10.583,4.748 10.583,10.583 0,5.835 -4.747,10.583 -10.583,10.583 z m 0,-19.166 c -4.733,0 -8.583,3.851 -8.583,8.583 0,4.732 3.851,8.583 8.583,8.583 4.732,0 8.583,-3.851 8.583,-8.583 0,-4.732 -3.85,-8.583 -8.583,-8.583 z"
   id="path268" />
			</g>
			<g
   id="g270">
				<circle
   style="fill:#ffffff"
   cx="301"
   cy="215"
   r="4.5830002"
   id="circle269" />
			</g>
			<g
   id="g271">
				<circle
   style="fill:#ffffff"
   cx="418"
   cy="252"
   r="4.5830002"
   id="circle270" />
			</g>
			<g
   id="g272">
				<path
   style="fill:#ffffff"
   d="m 360,289.417 c -5.836,0 -10.583,-4.748 -10.583,-10.584 0,-5.836 4.747,-10.583 10.583,-10.583 5.836,0 10.583,4.747 10.583,10.583 0,5.836 -4.747,10.584 -10.583,10.584 z m 0,-19.167 c -4.733,0 -8.583,3.851 -8.583,8.583 0,4.733 3.851,8.584 8.583,8.584 4.732,0 8.583,-3.851 8.583,-8.584 0,-4.732 -3.85,-8.583 -8.583,-8.583 z"
   id="path271" />
			</g>
			<g
   id="g273">
				<circle
   style="fill:#ffffff"
   cx="385"
   cy="307"
   r="4.5830002"
   id="circle272" />
			</g>
			<g
   id="g274">
				<path
   style="fill:#ffffff"
   d="m 305.917,328.333 c 0,2.531 -2.052,4.583 -4.583,4.583 -2.531,0 -4.583,-2.052 -4.583,-4.583 0,-2.531 2.052,-4.583 4.583,-4.583 2.531,0 4.583,2.052 4.583,4.583 z"
   id="path273" />
			</g>
			<g
   id="g276">
				<g
   id="g275">
					<path
   style="fill:#ffffff"
   d="m 205.017,199.653 c -6.413,0 -11.629,-5.217 -11.629,-11.629 0,-6.413 5.217,-11.629 11.629,-11.629 6.412,0 11.629,5.217 11.629,11.629 0,6.412 -5.216,11.629 -11.629,11.629 z m 0,-20.259 c -4.758,0 -8.629,3.871 -8.629,8.629 0,4.758 3.871,8.629 8.629,8.629 4.758,0 8.629,-3.871 8.629,-8.629 0,-4.758 -3.871,-8.629 -8.629,-8.629 z"
   id="path274" />
				</g>
			</g>
		</g>
	</g>
</g></svg>
