<svg version="1.2" xmlns="http://www.w3.org/2000/svg" viewBox="0 0 1000 1000" width="1000" height="1000">
	<title>5174533</title>
	<style>
		.s0 { fill: #ebebeb } 
		.s1 { fill: #f5f5f5 } 
		.s2 { fill: #e6e6e6 } 
		.s3 { fill: #e0e0e0 } 
		.s4 { fill: #f0f0f0 } 
		.s5 { fill: #fafafa } 
		.s6 { fill: #ffffff } 
		.s7 { fill: none;stroke: #407bff;stroke-miterlimit:10;stroke-width: 2 } 
		.s8 { fill: #407bff } 
		.s9 { opacity: .2;fill: #ffffff } 
		.s10 { fill: #263238 } 
		.s11 { opacity: .4;fill: #ffffff } 
		.s12 { opacity: .6;fill: #ffffff } 
		.s13 { opacity: .6;fill: #263238 } 
		.s14 { opacity: .7;fill: #ffffff } 
		.s15 { opacity: .3;fill: #ffffff } 
		.s16 { fill: #e4897b } 
		.s17 { opacity: .2;fill: #000000 } 
		.s18 { opacity: .5;fill: #ffffff } 
		.s19 { opacity: .1;fill: #000000 } 
		.s20 { fill: #b97964 } 
		.s21 { fill: #000000 } 
		.s22 { fill: #a24e3f } 
		.s23 { fill: none;stroke: #263238;stroke-linecap: round;stroke-linejoin: round;stroke-width: 1.4 } 
		.s24 { fill: #de5753 } 
	</style>
	<g id="Background Complete">
		<g id="&lt;Group&gt;">
			<path id="&lt;Path&gt;" class="s0" d="m1000 765.3h-1000v-0.5h1000z"/>
			<path id="&lt;Path&gt;" class="s0" d="m833.6 797h66.2v0.5h-66.2z"/>
			<path id="&lt;Path&gt;" class="s0" d="m645.1 802.4h17.3v0.5h-17.3z"/>
			<path id="&lt;Path&gt;" class="s0" d="m793.2 778.4h38.4v0.5h-38.4z"/>
			<path id="&lt;Path&gt;" class="s0" d="m104.9 781.8h86.4v0.5h-86.4z"/>
			<path id="&lt;Path&gt;" class="s0" d="m209.1 781.8h12.7v0.5h-12.7z"/>
			<path id="&lt;Path&gt;" class="s0" d="m262.9 790.2h187.4v0.5h-187.4z"/>
			<path id="&lt;Compound Path&gt;" fill-rule="evenodd" class="s0" d="m474 675.6h-386.2c-6.3 0-11.4-5.1-11.4-11.4v-542.9c0-6.3 5.1-11.4 11.4-11.4h386.2c6.3 0 11.4 5.1 11.4 11.4v542.9c0 6.3-5.1 11.4-11.4 11.4zm-386.2-565.2c-6 0-10.9 4.9-10.9 10.9v542.9c0 6 4.9 10.9 10.9 10.9h386.2c6 0 10.9-4.9 10.9-10.9v-542.9c0-6-4.9-10.9-10.9-10.9z"/>
			<path id="&lt;Compound Path&gt;" fill-rule="evenodd" class="s0" d="m906.6 675.6h-386.2c-6.3 0-11.4-5.1-11.4-11.4v-542.9c0-6.3 5.1-11.4 11.4-11.4h386.2c6.3 0 11.4 5.1 11.4 11.4v542.9c0 6.3-5.1 11.4-11.4 11.4zm-386.2-565.2c-6 0-10.9 4.9-10.9 10.9v542.9c0 6 4.9 10.9 10.9 10.9h386.2c6 0 10.9-4.9 10.9-10.9v-542.9c0-6-4.9-10.9-10.9-10.9z"/>
		</g>
		<g id="&lt;Group&gt;">
			<g id="&lt;Group&gt;">
				<g id="&lt;Group&gt;">
					<path id="&lt;Path&gt;" class="s1" d="m636.5 564.8h240.3c0 8.9-6.9 16.1-15.8 16.5-25.8 1.2-65.5 5.3-78.1 19.5-23.5 26.7-21.2 120.2 6.9 141.9 8.8 6.8 34.5 20.3 34.5 20.3h-135.3c0 0 24-13.8 32.3-20.3 28-21.8 28.8-115.3 5.2-141.9-12.1-13.6-49.3-17.9-74.3-19.3-8.8-0.5-15.7-7.8-15.7-16.7z"/>
					<path id="&lt;Path&gt;" class="s2" d="m847 582.2c-24.4 1.9-53.6 6.8-64.1 18.6-3.1 3.6-5.7 8.3-7.9 13.8h-40.4c-2.3-5.5-4.9-10.2-8.1-13.8-10.5-11.8-40-16.6-63.9-18.6z"/>
				</g>
				<g id="&lt;Group&gt;">
					<path id="&lt;Path&gt;" class="s0" d="m738.9 565l3.2-37.4h-47.3l-3.3 37.4z"/>
					<path id="&lt;Path&gt;" class="s3" d="m738.9 565l3.2-37.4h2.6l-3.3 37.4z"/>
					<path id="&lt;Path&gt;" class="s4" d="m734.4 561.2l2.6-29.8h-37.7l-2.6 29.8z"/>
					<path id="&lt;Path&gt;" class="s5" d="m731.5 558.7l2.2-24.8h-31.5l-2.2 24.8z"/>
				</g>
				<g id="&lt;Group&gt;">
					<g id="&lt;Group&gt;">
						<path id="&lt;Path&gt;" class="s2" d="m754.2 564.8h47.6l-5.3-60.3h-47.5z"/>
						<path id="&lt;Path&gt;" class="s3" d="m754.2 564.8h-2.2l-5.3-60.3h2.3z"/>
						<path id="&lt;Path&gt;" class="s4" d="m758.5 558.7h37.9l-4.2-48h-37.9z"/>
						<path id="&lt;Path&gt;" class="s5" d="m761.3 554.7h31.7l-3.6-40.1h-31.6z"/>
					</g>
					<path id="&lt;Path&gt;" class="s0" d="m777.3 532.7c-2.2 2.1-5.6 2.1-7.8 0-2.1-2.2-2.1-5.7 0-7.8 2.2-2.2 5.6-2.2 7.8 0 2.1 2.1 2.1 5.6 0 7.8z"/>
					<path id="&lt;Path&gt;" class="s4" d="m775 539.4c1.5-1.6 4.1-1.6 5.7 0 2.5 2.6 0.7 6.9-2.9 6.9-3.6 0-5.4-4.3-2.8-6.9z"/>
				</g>
			</g>
			<g id="&lt;Group&gt;">
				<path id="&lt;Path&gt;" class="s1" d="m371.7 750.7h46.4l-24.4-198.5c-1-8.4-8.7-15.2-17.1-15.2h-15.9-186.3l29.7 213.7z"/>
				<path id="&lt;Path&gt;" class="s4" d="m224.8 750.7h-46.4l-24.3-198.5c-1.1-8.4 4.9-15.2 13.3-15.2h15.9c8.4 0 16.1 6.8 17.1 15.2z"/>
				<g id="&lt;Group&gt;">
					<path id="&lt;Path&gt;" class="s2" d="m241.8 750.4l-8.4-96c-0.3-4.2-3.7-7.7-7.9-8.2l-3.5-0.5c-5.7-0.7-10.1-5.3-10.6-11.1l-1.6-17.5c-0.6-7.1 5.1-13.3 12.3-13.3h-77.5c-7.2 0-12.8 6.2-12.2 13.3l1.5 17.5c0.5 5.8 5 10.4 10.7 11.1l3.4 0.5c4.3 0.5 7.6 4 8 8.2l8.4 96c0.6 7 6.5 12.4 13.5 12.4h77.4c-7 0-12.9-5.4-13.5-12.4z"/>
				</g>
				<path id="&lt;Path&gt;" class="s2" d="m455 630.4c1.3-15 13.9-26.6 29-26.6h-37.5-29.9c-15.1 0-27.7 11.6-29.1 26.6l-6.6 76.1h67.4z"/>
				<path id="&lt;Path&gt;" class="s4" d="m514 603.8h-30c-15.1 0-27.7 11.6-29 26.6l-6.7 76.1h-160.6l-6.6-76.1c-1.4-15-14-26.6-29.1-26.6h-29.9c-7.2 0-12.9 6.2-12.3 13.3l1.6 17.5c0.5 5.8 4.9 10.4 10.6 11.1l3.5 0.5c4.2 0.5 7.6 4 7.9 8.2l8.4 96c0.6 7 6.5 12.4 13.5 12.4h225.4c7 0 12.9-5.4 13.5-12.4l8.4-96c0.4-4.2 3.7-7.7 7.9-8.2l3.5-0.5c5.7-0.7 10.2-5.3 10.7-11.1l1.5-17.5c0.6-7.1-5-13.3-12.2-13.3z"/>
			</g>
			<g id="&lt;Group&gt;">
				<path id="&lt;Path&gt;" class="s2" d="m785.3 262.6c0 0 2.4-15.5-8.9-25.4-11.3-9.9-10.3-15.8-7.1-16.5 3.3-0.8 6.2 9.1 11.2 11.8 0 0 0.1-14.1-4.9-19.3-5-5.2-7.7-18.6-2.9-18.8 4.8-0.3 5.3 7.9 6.3 13.7 1 5.8 6.3 14 6.3 14 0 0 1.1-12.6 4.3-17.8 3.3-5.2-5.4-17.1-2.1-22.3 3.4-5.2 9.3 4.7 8.8 15.8-0.5 11.2-7.9 23.1-6.2 34.7 0 0 3.3-8.2 6.3-8.9 2.9-0.7 5.9-6.2 7.9-8.2 1.9-2 4.4 5 0 11.4-4.5 6.5-15.9 23.7-14.2 37.6z"/>
				<path id="&lt;Path&gt;" class="s2" d="m778.6 255.6l-3.7 23.1c-1.1 7.2 4.4 13.6 11.6 13.6h4c7.2 0 12.7-6.4 11.6-13.6l-3.7-23.1z"/>
				<path id="&lt;Path&gt;" class="s3" d="m834.4 283.8h-260.9v13.4h260.9z"/>
				<path id="&lt;Path&gt;" class="s0" d="m597 283.8h-11.5v-49.4h11.5z"/>
				<path id="&lt;Path&gt;" class="s0" d="m652.6 283.8h-11.5v-49.4h11.5z"/>
				<path id="&lt;Path&gt;" class="s0" d="m724.1 281.8l-11.3 2-8.4-48.7 11.3-1.9z"/>
				<path id="&lt;Path&gt;" class="s0" d="m611.3 283.8h-11.5v-42.9h11.5z"/>
				<path id="&lt;Path&gt;" class="s0" d="m637.7 283.8h-11.5v-42.9h11.5z"/>
				<path id="&lt;Path&gt;" class="s0" d="m704.4 283.8h-11.5v-42.9h11.5z"/>
				<path id="&lt;Path&gt;" class="s0" d="m677 281.3l-11.2 2.5-9.3-41.9 11.2-2.5z"/>
				<path id="&lt;Path&gt;" class="s0" d="m621.2 283.8h-5.7v-51.9h5.7z"/>
				<path id="&lt;Path&gt;" class="s0" d="m689.6 283.8h-5.8v-51.9h5.8z"/>
			</g>
			<g id="&lt;Group&gt;">
				<path id="&lt;Path&gt;" class="s3" d="m573.5 383.9h260.9v13.4h-260.9z"/>
				<path id="&lt;Path&gt;" class="s0" d="m810.9 383.9h11.5v-49.5h-11.5z"/>
				<path id="&lt;Path&gt;" class="s0" d="m755.3 383.9h11.5v-49.5h-11.5z"/>
				<path id="&lt;Path&gt;" class="s0" d="m683.9 381.9l11.3 2 8.4-48.7-11.4-2z"/>
				<path id="&lt;Path&gt;" class="s0" d="m796.7 383.9h11.5v-42.9h-11.5z"/>
				<path id="&lt;Path&gt;" class="s0" d="m770.3 383.9h11.4v-42.9h-11.4z"/>
				<path id="&lt;Path&gt;" class="s0" d="m703.6 383.9h11.5v-42.9h-11.5z"/>
				<path id="&lt;Path&gt;" class="s0" d="m730.9 381.4l11.3 2.5 9.3-41.9-11.3-2.5z"/>
				<path id="&lt;Path&gt;" class="s0" d="m786.7 383.9h5.8v-51.9h-5.8z"/>
				<path id="&lt;Path&gt;" class="s0" d="m718.4 383.9h5.7v-51.9h-5.7z"/>
				<path id="&lt;Path&gt;" class="s0" d="m598.6 344.8h56v38.6h-56z"/>
			</g>
			<g id="&lt;Group&gt;">
				<path id="&lt;Path&gt;" class="s3" d="m464.6 216.8h-318.7c-2.3 0-4.2-1.9-4.2-4.2v-4.6c0-2.3 1.9-4.2 4.2-4.2h318.7c2.3 0 4.2 1.9 4.2 4.2v4.6c0 2.3-1.9 4.2-4.2 4.2z"/>
				<path id="&lt;Path&gt;" class="s2" d="m449.4 469.9h-288.3v-255.7h288.3z"/>
				<path id="&lt;Path&gt;" class="s4" d="m441.8 221.2v241.9h-273.5v-241.9z"/>
				<path id="&lt;Path&gt;" class="s6" d="m232.5 221.2l-64.2 241.3v-113.4l33.9-127.9z"/>
				<path id="&lt;Path&gt;" class="s6" d="m255.2 221.2l-64.7 241.9h-10.3l64.7-241.9z"/>
				<path id="&lt;Path&gt;" class="s6" d="m441.8 373.8v38.7l-13.1 50.6h-10.4z"/>
				<path id="&lt;Path&gt;" class="s2" d="m263.7 468.5h-4.6v-251.7h4.6z"/>
				<path id="&lt;Path&gt;" class="s2" d="m353 468.5h-4.6v-251.7h4.6z"/>
				<g id="&lt;Group&gt;">
					<path id="&lt;Path&gt;" class="s3" d="m402.4 208c0 0 6.6 86.5 44.8 130.6 0 0-27.8 111.4-27.8 150.2l51.6-9.5-18.6-140 8.9-131.3z"/>
					<path id="&lt;Path&gt;" class="s3" d="m208.1 208c0 0-6.7 86.5-44.8 130.6 0 0 27.8 111.4 27.8 150.2l-51.7-9.5 18.6-140-8.9-131.3z"/>
				</g>
			</g>
		</g>
	</g>
	<g id="Shadow">
		<path id="&lt;Path&gt; 359 " class="s1" d="m887.8 832.5c0 12.5-173.6 22.6-387.8 22.6-214.2 0-387.8-10.1-387.8-22.6 0-12.5 173.6-22.7 387.8-22.7 214.2 0 387.8 10.2 387.8 22.7z"/>
	</g>
	<g id="Plant">
		<g id="&lt;Group&gt;">
			<g id="&lt;Group&gt;">
				<path id="&lt;Path&gt;" class="s7" d="m735.4 700.5c0 0 12.4-10.3 23 0 10.7 10.4 12.7 74.5 12.7 74.5"/>
				<path id="&lt;Path&gt;" class="s7" d="m772 787.4c0 0-7.3-75.3 20.3-106.9"/>
				<path id="&lt;Path&gt;" class="s7" d="m769.4 779.5c0 0 5.6-85.7-15-104.7"/>
				<path id="&lt;Path&gt;" class="s7" d="m772 779.5c0 0 0.5-56.6 15.9-65.4 15.3-8.8 23.2 19.9 23.2 19.9"/>
				<path id="&lt;Path&gt;" class="s7" d="m766 779.5c0 0 2.5-43.5-9.4-59-11.9-15.6-24.5 6.6-24.5 6.6"/>
				<path id="&lt;Path&gt;" class="s7" d="m770.1 785.3c0 0-7.7-101.7 5-118.9"/>
			</g>
			<g id="&lt;Group&gt;">
				<path id="&lt;Path&gt;" class="s8" d="m801 722.3c0 0-7.6 2.8-5.4 9.5 2.3 6.7 26.5 17.6 26.5 17.6 0 0 10.2-9.3 0.9-24.4-9.4-15.1-21.8-7.5-22-2.7z"/>
				<path id="&lt;Path&gt;" class="s9" d="m801 722.3c0 0-7.6 2.8-5.4 9.5 2.3 6.7 26.5 17.6 26.5 17.6 0 0 10.2-9.3 0.9-24.4-9.4-15.1-21.8-7.5-22-2.7z"/>
			</g>
			<g id="&lt;Group&gt;">
				<path id="&lt;Path&gt;" class="s8" d="m767.7 709.6c0 0 8.2-0.3 8.6 6.7 0.5 7-17.6 26.5-17.6 26.5 0 0-13-4.7-10.2-22.2 2.8-17.6 17.2-15.3 19.2-11z"/>
				<path id="&lt;Path&gt;" class="s9" d="m767.7 709.6c0 0 8.2-0.3 8.6 6.7 0.5 7-17.6 26.5-17.6 26.5 0 0-13-4.7-10.2-22.2 2.8-17.6 17.2-15.3 19.2-11z"/>
			</g>
			<g id="&lt;Group&gt;">
				<path id="&lt;Path&gt;" class="s8" d="m760.8 676c0 0 5.5-0.6 5-3.9-0.4-3.3-21.1-11.9-33.3 1.9 0 0 7.8 13.5 19.1 13.6 11.3 0.2 9.2-11.6 9.2-11.6z"/>
				<path id="&lt;Path&gt;" class="s9" d="m760.8 676c0 0 5.5-0.6 5-3.9-0.4-3.3-21.1-11.9-33.3 1.9 0 0 7.8 13.5 19.1 13.6 11.3 0.2 9.2-11.6 9.2-11.6z"/>
			</g>
			<g id="&lt;Group&gt;">
				<path id="&lt;Path&gt;" class="s8" d="m771 667.9c0 0-5 2.4-6.3-0.6-1.4-3.1 11.6-21.3 29.3-16 0 0 0.4 15.5-9.1 21.6-9.5 6.2-13.9-5-13.9-5z"/>
				<path id="&lt;Path&gt;" class="s9" d="m771 667.9c0 0-5 2.4-6.3-0.6-1.4-3.1 11.6-21.3 29.3-16 0 0 0.4 15.5-9.1 21.6-9.5 6.2-13.9-5-13.9-5z"/>
			</g>
			<g id="&lt;Group&gt;">
				<path id="&lt;Path&gt;" class="s8" d="m745.2 719.6c0 0 3.8-3-0.3-4.5-4-1.5-23.9-1-24.1 18.6 0 0 23.1 3.9 26-3.6 2.9-7.5-1.6-10.5-1.6-10.5z"/>
				<path id="&lt;Path&gt;" class="s9" d="m745.2 719.6c0 0 3.8-3-0.3-4.5-4-1.5-23.9-1-24.1 18.6 0 0 23.1 3.9 26-3.6 2.9-7.5-1.6-10.5-1.6-10.5z"/>
			</g>
			<g id="&lt;Group&gt;">
				<path id="&lt;Path&gt;" class="s8" d="m792.4 675.5c0 0-3.7-3.1 0.3-4.5 4-1.5 23.9-1.1 24.1 18.6 0 0-23.1 3.8-26-3.7-2.8-7.5 1.6-10.4 1.6-10.4z"/>
				<path id="&lt;Path&gt;" class="s9" d="m792.4 675.5c0 0-3.7-3.1 0.3-4.5 4-1.5 23.9-1.1 24.1 18.6 0 0-23.1 3.8-26-3.7-2.8-7.5 1.6-10.4 1.6-10.4z"/>
			</g>
			<g id="&lt;Group&gt;">
				<path id="&lt;Path&gt;" class="s8" d="m780.2 691.3c0 0-0.4-3.7 2.6-2.2 3 1.4 13.3 12.6 2.6 23.2 0 0-14.4-10.7-11.8-16.3 2.6-5.5 6.6-4.7 6.6-4.7z"/>
				<path id="&lt;Path&gt;" class="s9" d="m780.2 691.3c0 0-0.4-3.7 2.6-2.2 3 1.4 13.3 12.6 2.6 23.2 0 0-14.4-10.7-11.8-16.3 2.6-5.5 6.6-4.7 6.6-4.7z"/>
			</g>
			<g id="&lt;Group&gt;">
				<path id="&lt;Path&gt;" class="s8" d="m741.9 696.6c0 0 2.2-3-1.1-3.3-3.3-0.4-18 3.5-14.6 18.2 0 0 18-1.3 18.7-7.4 0.8-6.1-3-7.5-3-7.5z"/>
				<path id="&lt;Path&gt;" class="s9" d="m741.9 696.6c0 0 2.2-3-1.1-3.3-3.3-0.4-18 3.5-14.6 18.2 0 0 18-1.3 18.7-7.4 0.8-6.1-3-7.5-3-7.5z"/>
			</g>
			<path id="&lt;Path&gt;" class="s10" d="m802.5 834h-61.6l-6.6-67.3h74.8z"/>
			<path id="&lt;Path&gt;" class="s10" d="m812.4 774.1h-81.4v-14.9h81.4z"/>
			<path id="&lt;Path&gt;" class="s9" d="m812.4 774.1h-81.4v-14.9h81.4z"/>
		</g>
	</g>
	<g id="Device">
		<g id="&lt;Group&gt;">
			<g id="&lt;Group&gt;">
				<path id="&lt;Path&gt;" class="s8" d="m660.8 834h-185.7c-11.4 0-19.9-9.3-18.9-20.8l47.9-548.2c1-11.5 11.2-20.8 22.7-20.8h185.6c11.5 0 20 9.3 19 20.8l-48 548.2c-1 11.5-11.1 20.8-22.6 20.8z"/>
				<path id="&lt;Path&gt;" class="s11" d="m660.8 834h-185.7c-11.4 0-19.9-9.3-18.9-20.8l47.9-548.2c1-11.5 11.2-20.8 22.7-20.8h185.6c11.5 0 20 9.3 19 20.8l-48 548.2c-1 11.5-11.1 20.8-22.6 20.8z"/>
				<path id="&lt;Path&gt;" class="s10" d="m640.8 834h-185.7c-11.4 0-19.9-9.3-18.9-20.8l47.9-548.2c1-11.5 11.2-20.8 22.7-20.8h185.6c11.5 0 20 9.3 19 20.8l-48 548.2c-1 11.5-11.1 20.8-22.6 20.8z"/>
				<path id="&lt;Path&gt;" class="s8" d="m640.8 834h-185.7c-11.4 0-19.9-9.3-18.9-20.8l47.9-548.2c1-11.5 11.2-20.8 22.7-20.8h185.6c11.5 0 20 9.3 19 20.8l-48 548.2c-1 11.5-11.1 20.8-22.6 20.8z"/>
				<path id="&lt;Path&gt;" class="s10" d="m703.8 263.9l-48 549.3c-0.4 4.5-3.3 8-6.4 8h-201.2c-2.9 0-4.8-3.2-4.4-7.3l48.1-550.6c0.4-3.6 2.5-6.8 5-6.8h50.3c1.4 0 2.6 1.4 2.9 3.3l1.5 7.4c0.3 1.9 1.5 3.2 2.9 3.2h85.7c1.4 0 2.8-1.2 3.5-3.1l2.7-7.5c0.7-1.9 2.1-3.3 3.5-3.3h49.6c2.8 0 4.7 3.5 4.3 7.4z"/>
				<path id="&lt;Path&gt;" class="s8" d="m701.5 290.9l-41.3 471.3h-211.9l41.2-471.3z"/>
				<g id="&lt;Group&gt;">
					<g id="&lt;Group&gt;">
						<path id="&lt;Path&gt;" class="s12" d="m514 278.7h2.6l0.4-5.1h-2.6z"/>
						<path id="&lt;Path&gt;" class="s12" d="m509.7 278.7h2.6l0.6-6.7h-2.6z"/>
						<path id="&lt;Path&gt;" class="s12" d="m505.4 278.7h2.6l0.8-8.4h-2.6z"/>
						<path id="&lt;Path&gt;" class="s12" d="m501.2 278.7h2.6l0.9-10.1h-2.7z"/>
					</g>
					<g id="&lt;Group&gt;">
						<path id="&lt;Path&gt;" class="s12" d="m678.7 276.8h-1.6l0.5-5h1.5z"/>
						<path id="&lt;Path&gt;" class="s12" d="m679.6 278.7h12.4l0.7-8.7h-12.3z"/>
					</g>
				</g>
				<g id="&lt;Group&gt;">
					<path id="&lt;Path&gt;" class="s13" d="m598.4 257.3c-0.2 2.3-1.7 4.2-3.3 4.2-1.6 0-2.7-1.9-2.5-4.2 0.2-2.4 1.7-4.2 3.3-4.2 1.6 0 2.7 1.8 2.5 4.2z"/>
					<path id="&lt;Path&gt;" class="s13" d="m604.3 257.3c-0.1 1.4-1.1 2.6-2.1 2.6-1 0-1.8-1.2-1.6-2.6 0.1-1.5 1-2.7 2.1-2.7 1 0 1.7 1.2 1.6 2.7z"/>
				</g>
				<path id="&lt;Path&gt;" class="s14" d="m701.5 290.9l-5.8 65.3-0.9 11.3-4.6 52.4-0.7 8.1-6.5 74.3-0.7 8.1-6.3 71.3-0.9 10.3-14.9 170.2h-211.9l41.2-471.3z"/>
			</g>
			<g id="&lt;Group&gt;">
				<g id="&lt;Group&gt;">
					<path id="&lt;Path&gt;" class="s8" d="m499.2 407.1l-5.6 10.3 11.2 7.1z"/>
					<path id="&lt;Path&gt;" class="s8" d="m515.6 613.4l7.2-8-9.6-10.8z"/>
					<path id="&lt;Path&gt;" class="s8" d="m598.7 310.3l-0.5-13-11.8 5z"/>
					<path id="&lt;Path&gt;" class="s8" d="m478.9 608.4l-5.6 10.3 11.2 7.2z"/>
					<path id="&lt;Path&gt;" class="s8" d="m485.7 564.2l-4.2 11.2-8.7-7.4 7-12z"/>
					<path id="&lt;Path&gt;" class="s8" d="m573 723.2l9 0.8-1.2 14.3-10.6-4z"/>
					<path id="&lt;Path&gt;" class="s8" d="m500 480.8l5.6 1.6c0 0-8.4 7.9-4.5 14.3 4 6.3-2.8 11.9-2.8 11.9l-5-4.8c0 0 4.5-4.8 2.2-11.1-2.2-6.3 4.5-11.9 4.5-11.9z"/>
					<path id="&lt;Path&gt;" class="s8" d="m576.6 435.7l5.6 1.6c0 0-8.4 7.9-4.5 14.2 4 6.4-2.8 11.9-2.8 11.9l-5-4.7c0 0 4.5-4.8 2.2-11.1-2.2-6.4 4.5-11.9 4.5-11.9z"/>
					<path id="&lt;Path&gt;" class="s8" d="m500.6 360.4l-5.2 10.8 11.5 6.2z"/>
					<path id="&lt;Path&gt;" class="s8" d="m601.4 365.9l-5.2 10.8 11.5 6.2z"/>
					<path id="&lt;Path&gt;" class="s8" d="m552.8 348.8l3.1-12.2-12.2-2z"/>
					<path id="&lt;Path&gt;" class="s8" d="m550.5 397.5l1.6-12.5 9.9 3.3-4.1 14.5z"/>
					<path id="&lt;Path&gt;" class="s8" d="m668.1 379.5l1.6-12.5 9.9 3.3-4.1 14.5z"/>
					<path id="&lt;Path&gt;" class="s8" d="m659.9 453.2l1.6-12.5 9.9 3.3-4.1 14.5z"/>
					<path id="&lt;Path&gt;" class="s8" d="m631.9 437.7l-5.6 0.9c0 0 6.3-11.2 1.2-15.6-5.1-4.3 0.1-12.5 0.1-12.5l5.8 2.4c0 0-3.2 6.4 0.3 11.5 3.5 5.1-1.8 13.3-1.8 13.3z"/>
					<path id="&lt;Path&gt;" class="s8" d="m584.8 585.9l-5.6 10.3 11.2 7.2z"/>
					<path id="&lt;Path&gt;" class="s8" d="m549.8 625.9l-5.7 10.3 11.3 7.1z"/>
					<path id="&lt;Path&gt;" class="s8" d="m613.3 536.9l9 0.8-1.1 14.3-10.7-4z"/>
					<path id="&lt;Path&gt;" class="s8" d="m646.8 657.4l9 0.8-1.1 14.2-10.7-3.9z"/>
					<path id="&lt;Path&gt;" class="s8" d="m602.5 670.2l5.7 1.6c0 0-8.5 7.9-4.5 14.3 3.9 6.3-2.8 11.9-2.8 11.9l-5.1-4.8c0 0 4.5-4.8 2.3-11.1-2.3-6.4 4.4-11.9 4.4-11.9z"/>
					<path id="&lt;Path&gt;" class="s8" d="m652.1 612.8l-3.5 1.2c0 0 1.5-10.6-2.9-14.2-4.4-3.7-2.9-11.5-2.9-11.5l4.4 1.8c0 0-0.6 6.1 2.9 10.5 3.5 4.5 2 12.2 2 12.2z"/>
					<path id="&lt;Path&gt;" class="s8" d="m654.6 328.3l-3.6 1.2c0 0 1.5-10.6-2.9-14.3-4.3-3.6-2.9-11.4-2.9-11.4l4.4 1.8c0 0-0.6 6.1 2.9 10.5 3.5 4.4 2.1 12.2 2.1 12.2z"/>
					<path id="&lt;Path&gt;" class="s8" d="m515.3 729.6l-5.3 3c0 0 3.9-13.2-1.8-15.4-5.8-2.2-2.3-12.1-2.3-12.1h6.1c0 0-1.9 7.5 2.4 11.1 4.3 3.5 0.9 13.4 0.9 13.4z"/>
					<path id="&lt;Path&gt;" class="s8" d="m513 310.3c0 3.3-1.9 5.9-4.2 5.9-2.4 0-4.2-2.6-4.2-5.9 0-3.3 1.8-6 4.2-6 2.3 0 4.2 2.7 4.2 6z"/>
					<path id="&lt;Path&gt;" class="s8" d="m559.6 539.1c0 3.3-1.9 6-4.2 6-2.4 0-4.2-2.7-4.2-6 0-3.3 1.8-5.9 4.2-5.9 2.3 0 4.2 2.6 4.2 5.9z"/>
					<path id="&lt;Path&gt;" class="s8" d="m674 516.1c0 3.3-1.8 6-4.2 6-2.3 0-4.2-2.7-4.2-6 0-3.3 1.9-5.9 4.2-5.9 2.4 0 4.2 2.6 4.2 5.9z"/>
					<path id="&lt;Path&gt;" class="s8" d="m690.4 314.6c0 3.3-1.9 6-4.2 6-2.4 0-4.2-2.7-4.2-6 0-3.3 1.8-5.9 4.2-5.9 2.3 0 4.2 2.6 4.2 5.9z"/>
					<path id="&lt;Path&gt;" class="s8" d="m469.1 684.7l4.5-11.4-11.9-4.7z"/>
					<path id="&lt;Path&gt;" class="s8" d="m636.9 740.2l-2.3 12.6 12.3 0.4z"/>
					<path id="&lt;Path&gt;" class="s8" d="m464.2 749.5c-0.2-3.2 1.5-6.1 3.8-6.4 2.3-0.3 4.4 2.1 4.6 5.4 0.2 3.3-1.5 6.1-3.9 6.4-2.3 0.3-4.3-2.1-4.5-5.4z"/>
					<g id="&lt;Group&gt;" style="opacity: .5">
						<path id="&lt;Path&gt;" class="s6" d="m499.2 407.1l-5.6 10.3 11.2 7.1z"/>
						<path id="&lt;Path&gt;" class="s6" d="m515.6 613.4l7.2-8-9.6-10.8z"/>
						<path id="&lt;Path&gt;" class="s6" d="m598.7 310.3l-0.5-13-11.8 5z"/>
						<path id="&lt;Path&gt;" class="s6" d="m478.9 608.4l-5.6 10.3 11.2 7.2z"/>
						<path id="&lt;Path&gt;" class="s6" d="m485.7 564.2l-4.2 11.2-8.7-7.4 7-12z"/>
						<path id="&lt;Path&gt;" class="s6" d="m573 723.2l9 0.8-1.2 14.3-10.6-4z"/>
						<path id="&lt;Path&gt;" class="s6" d="m500 480.8l5.6 1.6c0 0-8.4 7.9-4.5 14.3 4 6.3-2.8 11.9-2.8 11.9l-5-4.8c0 0 4.5-4.8 2.2-11.1-2.2-6.3 4.5-11.9 4.5-11.9z"/>
						<path id="&lt;Path&gt;" class="s6" d="m576.6 435.7l5.6 1.6c0 0-8.4 7.9-4.5 14.2 4 6.4-2.8 11.9-2.8 11.9l-5-4.7c0 0 4.5-4.8 2.2-11.1-2.2-6.4 4.5-11.9 4.5-11.9z"/>
						<path id="&lt;Path&gt;" class="s6" d="m500.6 360.4l-5.2 10.8 11.5 6.2z"/>
						<path id="&lt;Path&gt;" class="s6" d="m601.4 365.9l-5.2 10.8 11.5 6.2z"/>
						<path id="&lt;Path&gt;" class="s6" d="m552.8 348.8l3.1-12.2-12.2-2z"/>
						<path id="&lt;Path&gt;" class="s6" d="m550.5 397.5l1.6-12.5 9.9 3.3-4.1 14.5z"/>
						<path id="&lt;Path&gt;" class="s6" d="m668.1 379.5l1.6-12.5 9.9 3.3-4.1 14.5z"/>
						<path id="&lt;Path&gt;" class="s6" d="m659.9 453.2l1.6-12.5 9.9 3.3-4.1 14.5z"/>
						<path id="&lt;Path&gt;" class="s6" d="m631.9 437.7l-5.6 0.9c0 0 6.3-11.2 1.2-15.6-5.1-4.3 0.1-12.5 0.1-12.5l5.8 2.4c0 0-3.2 6.4 0.3 11.5 3.5 5.1-1.8 13.3-1.8 13.3z"/>
						<path id="&lt;Path&gt;" class="s6" d="m584.8 585.9l-5.6 10.3 11.2 7.2z"/>
						<path id="&lt;Path&gt;" class="s6" d="m549.8 625.9l-5.7 10.3 11.3 7.1z"/>
						<path id="&lt;Path&gt;" class="s6" d="m613.3 536.9l9 0.8-1.1 14.3-10.7-4z"/>
						<path id="&lt;Path&gt;" class="s6" d="m646.8 657.4l9 0.8-1.1 14.2-10.7-3.9z"/>
						<path id="&lt;Path&gt;" class="s6" d="m602.5 670.2l5.7 1.6c0 0-8.5 7.9-4.5 14.3 3.9 6.3-2.8 11.9-2.8 11.9l-5.1-4.8c0 0 4.5-4.8 2.3-11.1-2.3-6.4 4.4-11.9 4.4-11.9z"/>
						<path id="&lt;Path&gt;" class="s6" d="m652.1 612.8l-3.5 1.2c0 0 1.5-10.6-2.9-14.2-4.4-3.7-2.9-11.5-2.9-11.5l4.4 1.8c0 0-0.6 6.1 2.9 10.5 3.5 4.5 2 12.2 2 12.2z"/>
						<path id="&lt;Path&gt;" class="s6" d="m654.6 328.3l-3.6 1.2c0 0 1.5-10.6-2.9-14.3-4.3-3.6-2.9-11.4-2.9-11.4l4.4 1.8c0 0-0.6 6.1 2.9 10.5 3.5 4.4 2.1 12.2 2.1 12.2z"/>
						<path id="&lt;Path&gt;" class="s6" d="m515.3 729.6l-5.3 3c0 0 3.9-13.2-1.8-15.4-5.8-2.2-2.3-12.1-2.3-12.1h6.1c0 0-1.9 7.5 2.4 11.1 4.3 3.5 0.9 13.4 0.9 13.4z"/>
						<path id="&lt;Path&gt;" class="s6" d="m513 310.3c0 3.3-1.9 5.9-4.2 5.9-2.4 0-4.2-2.6-4.2-5.9 0-3.3 1.8-6 4.2-6 2.3 0 4.2 2.7 4.2 6z"/>
						<path id="&lt;Path&gt;" class="s6" d="m559.6 539.1c0 3.3-1.9 6-4.2 6-2.4 0-4.2-2.7-4.2-6 0-3.3 1.8-5.9 4.2-5.9 2.3 0 4.2 2.6 4.2 5.9z"/>
						<path id="&lt;Path&gt;" class="s6" d="m674 516.1c0 3.3-1.8 6-4.2 6-2.3 0-4.2-2.7-4.2-6 0-3.3 1.9-5.9 4.2-5.9 2.4 0 4.2 2.6 4.2 5.9z"/>
						<path id="&lt;Path&gt;" class="s6" d="m690.4 314.6c0 3.3-1.9 6-4.2 6-2.4 0-4.2-2.7-4.2-6 0-3.3 1.8-5.9 4.2-5.9 2.3 0 4.2 2.6 4.2 5.9z"/>
						<path id="&lt;Path&gt;" class="s6" d="m469.1 684.7l4.5-11.4-11.9-4.7z"/>
						<path id="&lt;Path&gt;" class="s6" d="m636.9 740.2l-2.3 12.6 12.3 0.4z"/>
						<path id="&lt;Path&gt;" class="s6" d="m464.2 749.5c-0.2-3.2 1.5-6.1 3.8-6.4 2.3-0.3 4.4 2.1 4.6 5.4 0.2 3.3-1.5 6.1-3.9 6.4-2.3 0.3-4.3-2.1-4.5-5.4z"/>
					</g>
				</g>
				<g id="&lt;Group&gt;">
					<g id="&lt;Group&gt;">
						<path id="&lt;Path&gt;" class="s8" d="m599.1 683.6h-82c-12.1 0-21-9.5-19.9-21.3 1.1-11.7 11.7-21.2 23.7-21.2h82.1c12.1 0 20.9 9.5 19.9 21.2-1.1 11.8-11.7 21.3-23.8 21.3z"/>
					</g>
					<g id="&lt;Group&gt;">
						<path id="&lt;Compound Path&gt;" class="s8" d="m511.2 352.6c0.3-3.7 2.9-6.3 6.1-6.3 1.7 0 3 0.7 3.9 1.9l-1.1 1.1c-0.7-1-1.7-1.4-2.8-1.4-2.4 0-4.4 2-4.6 4.7-0.3 2.7 1.3 4.7 3.7 4.7q1.7 0 3.1-1.5l0.9 1.1c-1.1 1.2-2.6 1.9-4.2 1.9-3.2 0-5.3-2.6-5-6.2z"/>
						<path id="&lt;Compound Path&gt;" fill-rule="evenodd" class="s8" d="m521.8 352.6c0.4-3.6 3-6.3 6.2-6.3 3.2 0 5.3 2.7 5 6.3-0.3 3.6-2.9 6.2-6.1 6.2-3.3 0-5.4-2.7-5.1-6.2zm9.7 0c0.3-2.7-1.3-4.7-3.6-4.7-2.4 0-4.3 2-4.6 4.7-0.2 2.7 1.3 4.7 3.7 4.7 2.3 0 4.3-2 4.5-4.7z"/>
						<path id="&lt;Compound Path&gt;" class="s8" d="m544.9 346.4l-1.1 12.3h-1.2l-5.5-9.1-0.8 9.1h-1.5l1.1-12.3h1.2l5.5 9.2 0.8-9.2z"/>
						<path id="&lt;Compound Path&gt;" class="s8" d="m554.8 352.5h1.4l-0.4 4.8c-1.1 1-2.6 1.5-4.1 1.5-3.2 0-5.4-2.6-5-6.2 0.3-3.7 2.9-6.3 6.2-6.3 1.6 0 3 0.7 3.8 1.9l-1 1.1c-0.8-1-1.7-1.4-2.9-1.4-2.5 0-4.4 1.9-4.6 4.7-0.3 2.6 1.3 4.7 3.7 4.7 0.9 0 1.7-0.3 2.5-0.8z"/>
						<path id="&lt;Compound Path&gt;" fill-rule="evenodd" class="s8" d="m565.6 358.7l-1.9-3.8q-0.4 0-0.7 0.1h-2.6l-0.3 3.7h-1.5l1.1-12.3h4.1c2.7 0 4.2 1.7 4 4.3-0.2 1.9-1.2 3.3-2.7 3.9l2.1 4.1zm0.7-8c0.2-1.7-0.7-2.7-2.7-2.7h-2.5l-0.5 5.5h2.5c2 0 3-1 3.2-2.8z"/>
						<path id="&lt;Compound Path&gt;" fill-rule="evenodd" class="s8" d="m576.5 355.6h-5.6l-1.5 3.1h-1.5l5.9-12.3h1.5l3.6 12.3h-1.6zm-0.4-1.4l-1.7-6-2.8 6z"/>
						<path id="&lt;Compound Path&gt;" class="s8" d="m583 348h-3.6l0.2-1.6h8.7l-0.2 1.6h-3.6l-1 10.7h-1.5z"/>
						<path id="&lt;Compound Path&gt;" class="s8" d="m589 353.4l0.6-7h1.5l-0.6 6.9c-0.3 2.7 0.7 4 2.6 4 1.9 0 3.1-1.3 3.3-4l0.7-6.9h1.4l-0.6 7c-0.4 3.5-2.2 5.4-5 5.4-2.7 0-4.2-1.9-3.9-5.4z"/>
						<path id="&lt;Compound Path&gt;" class="s8" d="m601.6 346.4h1.5l-1 10.8h5.7l-0.1 1.5h-7.2z"/>
						<path id="&lt;Compound Path&gt;" fill-rule="evenodd" class="s8" d="m616.4 355.6h-5.6l-1.4 3.1h-1.5l5.8-12.3h1.5l3.7 12.3h-1.6zm-0.4-1.4l-1.7-6-2.8 6z"/>
						<path id="&lt;Compound Path&gt;" class="s8" d="m623 348h-3.6l0.1-1.6h8.7l-0.1 1.6h-3.6l-1 10.7h-1.5z"/>
						<path id="&lt;Compound Path&gt;" class="s8" d="m629.9 346.4h1.5l-1.2 12.3h-1.5z"/>
						<path id="&lt;Compound Path&gt;" fill-rule="evenodd" class="s8" d="m633.1 352.6c0.3-3.6 3-6.3 6.2-6.3 3.2 0 5.3 2.7 5 6.3-0.3 3.6-3 6.2-6.2 6.2-3.2 0-5.3-2.7-5-6.2zm9.7 0c0.2-2.7-1.3-4.7-3.7-4.7-2.3 0-4.2 2-4.5 4.7-0.2 2.7 1.3 4.7 3.7 4.7 2.3 0 4.2-2 4.5-4.7z"/>
						<path id="&lt;Compound Path&gt;" class="s8" d="m656.2 346.4l-1.1 12.3h-1.3l-5.4-9.1-0.9 9.1h-1.5l1.1-12.3h1.3l5.5 9.2 0.8-9.2z"/>
						<path id="&lt;Compound Path&gt;" class="s8" d="m657.4 357.3l0.7-1.4c0.7 0.8 2 1.4 3.3 1.4 1.8 0 2.7-0.8 2.8-1.9 0.3-2.9-6.3-1.1-5.9-5.6 0.2-1.9 1.6-3.5 4.4-3.5 1.2 0 2.5 0.4 3.3 1.1l-0.7 1.4c-0.8-0.7-1.8-1-2.8-1-1.7 0-2.6 0.9-2.7 1.9-0.3 3 6.3 1.1 5.9 5.6-0.2 1.9-1.6 3.5-4.4 3.5-1.6 0-3.1-0.6-3.9-1.5z"/>
					</g>
					<g id="&lt;Group&gt;">
						<path id="&lt;Compound Path&gt;" class="s6" d="m524.5 662.7h2.5l-0.5 5.5c-1.4 1.1-3.2 1.7-4.9 1.7-3.7 0-6.1-2.9-5.7-7 0.3-4.1 3.3-7 7-7 2.1 0 3.7 0.8 4.7 2.3l-1.9 1.9c-0.8-1.1-1.7-1.5-2.9-1.5-2.3 0-4 1.7-4.2 4.3-0.2 2.5 1.2 4.3 3.4 4.3 0.7 0 1.4-0.1 2.1-0.6z"/>
						<path id="&lt;Compound Path&gt;" class="s6" d="m530.1 656.1h2.7l-1.3 13.6h-2.7z"/>
						<path id="&lt;Compound Path&gt;" class="s6" d="m538 658.6l-0.3 3.6h5.4l-0.3 2.5h-5.4l-0.4 5h-2.7l1.2-13.6h8.8l-0.2 2.5z"/>
						<path id="&lt;Compound Path&gt;" class="s6" d="m548.4 658.7h-3.7l0.2-2.6h10.2l-0.3 2.6h-3.7l-1 11h-2.7z"/>
						<path id="&lt;Compound Path&gt;" class="s6" d="m559.2 668.3l1.1-2.3c0.9 0.8 2.4 1.4 3.8 1.4 1.5 0 2.3-0.6 2.3-1.5 0.3-2.5-6.7-0.8-6.2-5.8 0.2-2.3 2-4.2 5.3-4.2 1.5 0 2.9 0.4 3.9 1.2l-1 2.4c-1-0.8-2.1-1.1-3.2-1.1-1.6 0-2.2 0.7-2.3 1.5-0.2 2.5 6.7 0.8 6.2 5.8-0.2 2.3-2 4.2-5.3 4.2-1.8 0-3.7-0.6-4.6-1.6z"/>
						<path id="&lt;Compound Path&gt;" class="s6" d="m579.9 667.2l-0.3 2.5h-9l1.3-13.6h8.8l-0.3 2.5h-6.1l-0.3 3h5.4l-0.2 2.4h-5.4l-0.3 3.2z"/>
						<path id="&lt;Compound Path&gt;" class="s6" d="m593.7 656.1l-1.2 13.6h-2.2l-5.1-8.3-0.8 8.3h-2.6l1.2-13.6h2.3l5 8.2 0.8-8.2z"/>
						<path id="&lt;Compound Path&gt;" class="s6" d="m598.7 658.7h-3.8l0.3-2.6h10.1l-0.2 2.6h-3.7l-1.1 11h-2.6z"/>
					</g>
				</g>
				<g id="&lt;Group&gt;">
					<path id="&lt;Path&gt;" class="s8" d="m645.6 501.9c-4.4 50.9-39.6 92.3-78.6 92.3-39.1 0-67.2-41.4-62.8-92.3 4.3-51 39.5-92.3 78.6-92.3 39 0 67.1 41.3 62.8 92.3z"/>
					<path id="&lt;Path&gt;" class="s15" d="m645.6 501.9c-4.4 50.9-39.6 92.3-78.6 92.3-39.1 0-67.2-41.4-62.8-92.3 4.3-51 39.5-92.3 78.6-92.3 39 0 67.1 41.3 62.8 92.3z"/>
					<g id="&lt;Group&gt;">
						<path id="&lt;Path&gt;" class="s16" d="m465.8 508.1l23.4-16.5 15.7 8.7 44.9-8.4-2 17.3-43.4 1.8c0 0-20.4 12.5-24.4 13.1-4 0.6-14.2-16-14.2-16z"/>
						<path id="&lt;Path&gt;" class="s8" d="m645.6 501.4q-0.2 1.8-0.4 3.5l-113.4 8.7-0.8 0.1v-3.8l0.1-14.5 0.1-6.3 2.4-0.5 109.7-22.5c2.5 10.9 3.3 22.8 2.3 35.3z"/>
						<path id="&lt;Path&gt;" class="s17" d="m645.6 501.4q-0.2 1.8-0.4 3.5l-113.4 8.7-0.8 0.1v-3.8l0.1-14.5 0.1-6.3 2.4-0.5 109.7-22.5c2.5 10.9 3.3 22.8 2.3 35.3z"/>
						<path id="&lt;Path&gt;" class="s8" d="m525.9 488.4l7.8-1.4-2.2 31.3-8.6-1.1z"/>
						<path id="&lt;Path&gt;" class="s18" d="m525.9 488.4l7.8-1.4-2.2 31.3-8.6-1.1z"/>
					</g>
					<g id="&lt;Group&gt;">
						<g id="&lt;Group&gt;">
							<path id="&lt;Path&gt;" class="s10" d="m410.8 458.3l0.3-0.1v-0.1z"/>
							<path id="&lt;Path&gt;" class="s10" d="m533.2 432.8l-1.2 0.1-81.9 5.8-38.4 18.8h-0.6l12.5 75.2 77.9-5.5 42.4-20.6z"/>
						</g>
						<g id="&lt;Group&gt;">
							<path id="&lt;Path&gt;" class="s9" d="m421 462.8l3.3 2.7 4.2-1.2-1.5 4 2.4 3.6-4.3-0.2-2.6 3.4-1.2-4.2-4.1-1.4 3.7-2.4z"/>
							<path id="&lt;Path&gt;" class="s9" d="m465.8 465.9v4.3l3.5 2.5-4.1 1.3-1.2 4.2-2.6-3.5-4.3 0.1 2.6-3.5-1.5-4.1 4.1 1.3z"/>
							<path id="&lt;Path&gt;" class="s9" d="m467.6 512.6v4.3l3.6 2.4-4.1 1.4-1.3 4.2-2.5-3.5-4.4 0.1 2.6-3.5-1.5-4.1 4.1 1.3z"/>
							<path id="&lt;Path&gt;" class="s9" d="m447.8 502.3l0.1 4.3 3.5 2.4-4.1 1.4-1.2 4.1-2.6-3.5-4.3 0.2 2.5-3.5-1.4-4.1 4.1 1.3z"/>
							<path id="&lt;Path&gt;" class="s9" d="m469.3 499.3v2.5l2.1 1.5-2.4 0.8-0.8 2.4-1.5-2h-2.5l1.5-2-0.9-2.4 2.5 0.8z"/>
							<path id="&lt;Path&gt;" class="s9" d="m434.1 519.3v2.6l2.1 1.4-2.4 0.8-0.7 2.4-1.5-2-2.5 0.1 1.4-2.1-0.8-2.4 2.4 0.8z"/>
							<path id="&lt;Path&gt;" class="s9" d="m429.5 494.8v2.5l2.1 1.5-2.4 0.8-0.8 2.4-1.5-2.1-2.5 0.1 1.5-2-0.9-2.4 2.5 0.8z"/>
							<path id="&lt;Path&gt;" class="s9" d="m480.7 454.6v2.6l2.1 1.4-2.4 0.8-0.7 2.4-1.5-2h-2.5l1.5-2-0.9-2.4 2.4 0.8z"/>
							<path id="&lt;Path&gt;" class="s9" d="m436.2 475.1l2.9 4.9 5.7 0.4-3.8 4.3 1.3 5.6-5.2-2.3-4.9 3 0.6-5.7-4.4-3.7 5.6-1.2z"/>
							<path id="&lt;Path&gt;" class="s9" d="m474.3 482.9l5.3 2 4.8-3.2-0.4 5.7 4.6 3.5-5.6 1.5-1.9 5.4-3.1-4.8-5.7-0.2 3.6-4.4z"/>
							<path id="&lt;Path&gt;" class="s9" d="m486.7 506.6l2.9 4.9 5.7 0.5-3.8 4.3 1.3 5.5-5.2-2.3-4.9 3 0.6-5.7-4.4-3.7 5.6-1.2z"/>
						</g>
						<g id="&lt;Group&gt;">
							<path id="&lt;Path&gt;" class="s9" d="m497.2 454.8l2 2.4 2-1.6-0.4 4.2 1.6 3.3-2.2 0.2-1 3.7-1-4.1-2.2-1 1.6-2.7z"/>
							<path id="&lt;Path&gt;" class="s9" d="m520.4 453.7l0.5 4.4 2 2.1-2 1.7-0.2 4.3-1.6-3.3-2.2 0.6 0.9-3.8-1.1-3.9 2.2 0.9z"/>
							<path id="&lt;Path&gt;" class="s9" d="m525.8 500.3l0.4 4.3 2 2.1-2 1.8-0.2 4.2-1.6-3.2-2.2 0.5 0.9-3.8-1.1-3.9 2.2 0.9z"/>
							<path id="&lt;Path&gt;" class="s9" d="m514.7 491.8l0.4 4.3 2.1 2.1-2 1.8-0.3 4.2-1.6-3.2-2.2 0.5 1-3.7-1.1-4 2.2 1z"/>
							<path id="&lt;Path&gt;" class="s9" d="m525.4 486.8l0.2 2.6 1.2 1.2-1.1 1-0.2 2.5-0.9-1.9-1.3 0.3 0.5-2.2-0.6-2.3 1.3 0.6z"/>
							<path id="&lt;Path&gt;" class="s9" d="m509.3 510.2l0.2 2.5 1.2 1.2-1.1 1-0.2 2.6-0.9-2-1.3 0.3 0.5-2.1-0.6-2.4 1.3 0.6z"/>
							<path id="&lt;Path&gt;" class="s9" d="m504.6 486l0.2 2.6 1.2 1.2-1.1 1-0.2 2.5-0.9-1.9-1.3 0.3 0.6-2.2-0.7-2.3 1.3 0.6z"/>
							<path id="&lt;Path&gt;" class="s9" d="m527.1 441.1l0.2 2.5 1.2 1.3-1.2 1-0.1 2.5-0.9-1.9-1.3 0.3 0.5-2.2-0.6-2.3 1.3 0.5z"/>
							<path id="&lt;Path&gt;" class="s9" d="m506.2 465.7l1.9 4.7 3-0.2-1.6 4.7 1.3 5.4-2.9-1.8-2.2 3.5-0.3-5.8-2.6-3.3 2.8-1.7z"/>
							<path id="&lt;Path&gt;" class="s9" d="m526.4 469.9l2.9 1.6 2.1-3.7 0.4 5.8 2.7 3.1-2.7 2-0.5 5.5-2.1-4.5-2.9 0.4 1.4-4.8z"/>
							<path id="&lt;Path&gt;" class="s9" d="m535 492.5l1.9 4.7 3-0.1-1.6 4.6 1.2 5.5-2.9-1.8-2.2 3.4-0.2-5.7-2.6-3.3 2.7-1.8z"/>
						</g>
						<path id="&lt;Path&gt;" class="s17" d="m488.9 452.3l44.3-19.2 10.8 74.1-42.4 20.9z"/>
						<path id="&lt;Path&gt;" class="s9" d="m410.7 457.8l39.4-19.1 82.5-5.8-43.7 18.9z"/>
						<g id="&lt;Group&gt;">
							<path id="&lt;Path&gt;" class="s8" d="m529.3 514.6l-10.6-76.4-80.4 5.7-7.3 4.5 73.6-3.2 14.6 73.9z"/>
							<path id="&lt;Path&gt;" class="s8" d="m490.2 435.9l-36.7 18.3 9.9 75.7-11.6 0.8-13.4-75.2 41.1-18.9z"/>
							<path id="&lt;Path&gt;" class="s17" d="m518.8 438.9l-14.2 6.5 14.6 74 10.2-4.5z"/>
							<path id="&lt;Path&gt;" class="s19" d="m438.4 455.8l15.2-1.5 9.8 75.6-11.6 0.8z"/>
						</g>
						<g id="&lt;Group&gt;">
							<path id="&lt;Compound Path&gt;" fill-rule="evenodd" class="s8" d="m509 428.1c-1.7 10.7-25.5 16-36.6 17.9 2.5 1.9 5.6 4.4 5.6 4.4l-9.7 1.6c0.4-2.7-0.4-5-0.4-5-12.3 2-25.8 6.8-25.8 6.8l-14.5-0.7c4.9-2.3 13.3-4 20.4-5.1-19.2-1.2-21-10.9-13.7-14.6 9.2-4.8 32.2 10.1 32.2 10.1 10.7-17.8 44.7-29.5 42.5-15.4zm-43.8 16.7c0 0-28.7-12.5-30.7-8.7-2.1 3.8 17.9 11.4 30.7 8.7zm39.4-19.9c-7.5-4.3-35.6 19-35.6 19 9 0.3 43.1-14.8 35.6-19z"/>
							<path id="&lt;Compound Path&gt;" fill-rule="evenodd" class="s19" d="m509 428.1c-1.7 10.7-25.5 16-36.6 17.9 2.5 1.9 5.6 4.4 5.6 4.4l-9.7 1.6c0.4-2.7-0.4-5-0.4-5-12.3 2-25.8 6.8-25.8 6.8l-14.5-0.7c4.9-2.3 13.3-4 20.4-5.1-19.2-1.2-21-10.9-13.7-14.6 9.2-4.8 32.2 10.1 32.2 10.1 10.7-17.8 44.7-29.5 42.5-15.4zm-43.8 16.7c0 0-28.7-12.5-30.7-8.7-2.1 3.8 17.9 11.4 30.7 8.7zm39.4-19.9c-7.5-4.3-35.6 19-35.6 19 9 0.3 43.1-14.8 35.6-19z"/>
						</g>
					</g>
					<g id="&lt;Group&gt;">
						<path id="&lt;Path&gt;" class="s16" d="m512.5 508.5l26.1-11.9 13.7 11.4h45.7l-5.1 16.7-43-6.2c0 0-22.4 8.4-26.4 8.3-4-0.1-11-18.3-11-18.3z"/>
						<path id="&lt;Path&gt;" class="s8" d="m645.5 502.7q-0.1 1.1-0.3 2.2c-1.3 12-4.3 23.3-8.7 33.7l-60.6-10.5-0.7-0.2 1.1-5.6 2.8-14.3 0.8-4.2h2.3z"/>
						<path id="&lt;Path&gt;" class="s8" d="m575.2 500.2h7.9l-7.9 30.4-8.3-2.7z"/>
						<path id="&lt;Path&gt;" class="s14" d="m575.2 500.2h7.9l-7.9 30.4-8.3-2.7z"/>
					</g>
				</g>
			</g>
		</g>
	</g>
	<g id="Speech Bubble">
		<g id="&lt;Group&gt;">
			<path id="&lt;Path&gt;" class="s8" d="m384.5 297.6l-27-4.7c-4-0.7-6.7-4.5-6-8.5l4.6-27c0.7-4.1 4.6-6.8 8.6-6.1l27 4.7c4 0.7 6.7 4.5 6 8.5l-4.7 27.1c-0.7 4-4.5 6.7-8.5 6z"/>
			<path id="&lt;Path&gt;" class="s12" d="m387.4 268.3c-2.1-5.3-8-4.5-11.5-1.3-2.3-4.2-7.6-7-11.3-2.7-6.4 7.2 2.5 16.4 6.8 20.1q0.8 0.7 1.3 1.1 0.6-0.2 1.5-0.6c5.3-2.1 16.8-7.7 13.2-16.6z"/>
			<path id="&lt;Path&gt;" class="s8" d="m376 292.8c0 0-7.6 11.5-20.5 13.3 0 0 7.4-2.7 9.2-15.8z"/>
		</g>
	</g>
	<g id="Character">
		<g id="&lt;Group&gt;">
			<path id="&lt;Path&gt;" class="s20" d="m385.2 372.5l7.4-18.6c0 0-0.7-7.2 0-8.1 0.7-1 18.8-13.2 18.8-13.2 0 0 2.8 6.7 2.6 9.6-0.2 3-12.4 10.4-12.4 10.4l-7.4 18.2z"/>
			<path id="&lt;Path&gt;" class="s8" d="m399.6 362.3c0 0-24.3 55.2-34.3 60-6.9 3.2-30.4-0.1-44.5-2.6-6.5-1.1-11-2-11-2l8.6-11.5 6.6-8.8c0 0 21.8 9 30.3 10.6 8.4 1.6 33.5-51.5 33.5-51.5z"/>
			<path id="&lt;Path&gt;" class="s17" d="m320.8 419.7c-6.5-1.1-11-2-11-2l8.6-11.5c1.7 2.6 3.7 7.2 2.4 13.5z"/>
			<path id="&lt;Path&gt;" class="s10" d="m321.6 312.4c10.1 5.2 15.7 12.3 17.2 26.1 1.5 13.8-6.3 18.2 0 23.8 6.3 5.5 2.5 14-1.9 15.1-4.4 1.1 3.1 6.6 3.1 6.6l-3.1 2.2c0 0 0.7 2.2-5.2 0-6-2.2-3.4 2.7-12.8 3.8-9.4 1.1-27.2 2.8-34.7-6-7.5-8.7-4.5-22-8.5-27.5-4.1-5.5 5.6-35.3 17.5-41.9 12-6.5 28.4-2.2 28.4-2.2z"/>
			<path id="&lt;Path&gt;" class="s20" d="m210.9 314.6l6.5-18.9c0 0 5.1-5 5.2-6.2 0.2-1.2-5.6-22.3-5.6-22.3 0 0-6.5 3.3-8.3 5.7-1.8 2.4 2.7 15.9 2.7 15.9l-6.3 18.6z"/>
			<path id="&lt;Path&gt;" class="s20" d="m262 812.2h-13.2l4-18.2 3.8-16.8 16.5-2.6-5.9 20z"/>
			<path id="&lt;Path&gt;" class="s17" d="m267.1 795l-14.4-0.7 3.8-16.9 16.6-2.7z"/>
			<path id="&lt;Path&gt;" class="s20" d="m234.6 812.2h-13.2l4-18.2 3.8-16.8 16.5-2.6-5.9 20z"/>
			<path id="&lt;Path&gt;" class="s17" d="m239.7 795l-14.4-0.7 3.8-16.9 16.6-2.7z"/>
			<g id="&lt;Group&gt;">
				<path id="&lt;Path&gt;" class="s10" d="m210.7 462.8c0 0-0.7 1.4-1.8 4.1-4.9 12.3-18.6 51.1-13.5 96.2 3 26.6 32.5 74.6 36.8 100.7 5.1 30.4-8.2 84-4.8 123.3l21.1 1.9 6.3-4 18-2.7c0 0 47-106.7 46.1-143.6-0.7-29-46.1-132.9-46.1-132.9l4.3-38.4"/>
				<path id="&lt;Path&gt;" class="s17" d="m258.1 784.5l-3.3 0.5-5.4 3.4c3.4-12 33.1-115.8 33.6-138.6 0.6-24.3-33.9-110.4-33.9-110.4l8.8-16-1.3 24.3c0 0 32.7 67 35.3 102.1 2.4 33.6-31.1 127.1-33.8 134.7z"/>
			</g>
			<path id="&lt;Path&gt;" class="s10" d="m245 811.7c0.1-1.5 18-0.3 18-0.3 0 0 11 11.2 21.7 13.7 10.7 2.5 4.7 8.9-7.2 8.9-12 0-21.1 0-29.6 0-8.5 0-3.2-7.2-2.9-22.3z"/>
			<g id="&lt;Group&gt;">
				<path id="&lt;Compound Path&gt;" fill-rule="evenodd" class="s8" d="m265 813.7q-0.1-0.1-0.2-0.1 0-0.1-0.1-0.2 0 0 0-0.1 0 0 0 0 0-0.1 0-0.2c0.1-0.2 1.6-4.4 4-5.4q1.2-0.5 2.4 0.1 1.2 0.6 1.1 1.5c0 0.9-1.3 1.9-2.8 2.7 1.6-0.2 3.1-0.2 4.1 0.4q0.7 0.4 0.9 1.2c0.3 1.1-0.1 1.6-0.4 1.9-0.4 0.3-0.9 0.4-1.6 0.4-2.5 0-6.5-1.8-7.4-2.2zm1.6-0.3c2.7 1.1 5.9 2.1 6.8 1.4 0.1-0.1 0.3-0.3 0.1-1q-0.1-0.4-0.5-0.6c-0.5-0.3-1.3-0.4-2.1-0.4-1.4 0-3 0.3-4.3 0.6zm2.5-4.8c-1.4 0.6-2.5 2.6-3.1 3.8 2.7-1 5.2-2.4 5.3-3.2 0-0.2-0.4-0.4-0.6-0.6q-0.5-0.2-0.9-0.2-0.3 0-0.7 0.2z"/>
			</g>
			<path id="&lt;Path&gt;" class="s8" d="m248.5 781.9l29.7-4-2.5 11.1-24.5 3z"/>
			<path id="&lt;Path&gt;" class="s10" d="m217.7 811.7c0-1.5 17.9-0.3 17.9-0.3 0 0 11 11.2 21.7 13.7 10.7 2.5 4.8 8.9-7.2 8.9-12 0-21.1 0-29.6 0-8.5 0-3.2-7.2-2.8-22.3z"/>
			<g id="&lt;Group&gt;">
				<path id="&lt;Compound Path&gt;" fill-rule="evenodd" class="s8" d="m237.6 813.7q-0.1-0.1-0.1-0.1-0.1-0.1-0.1-0.2-0.1 0-0.1-0.1 0 0 0 0 0-0.1 0.1-0.2c0-0.2 1.5-4.4 4-5.4q1.1-0.5 2.3 0.1 1.2 0.6 1.2 1.5c-0.1 0.9-1.4 1.9-2.8 2.7 1.5-0.2 3-0.2 4 0.4q0.7 0.4 0.9 1.2c0.3 1.1 0 1.6-0.4 1.9-0.4 0.3-0.9 0.4-1.6 0.4-2.5 0-6.5-1.8-7.4-2.2zm1.6-0.3c2.7 1.1 6 2.1 6.8 1.4 0.1-0.1 0.3-0.3 0.1-1q-0.1-0.4-0.5-0.6c-0.5-0.3-1.2-0.4-2.1-0.4-1.4 0-3 0.3-4.3 0.6zm2.5-4.8c-1.4 0.6-2.5 2.6-3 3.8 2.6-1 5.2-2.4 5.2-3.2 0-0.2-0.4-0.4-0.6-0.6q-0.4-0.2-0.9-0.2-0.3 0-0.7 0.2z"/>
			</g>
			<path id="&lt;Path&gt;" class="s8" d="m223.1 781.9l31.7-4-2.7 11.1-26.1 3z"/>
			<g id="&lt;Group&gt;">
				<path id="&lt;Path&gt;" class="s21" d="m214.5 454.2l-3.1 8.9 62.6 16.5 3.7-10.5z"/>
				<path id="&lt;Path&gt;" class="s10" d="m231.4 473.1l-3.1-0.9 4.6-15.7 3 0.9z"/>
				<path id="&lt;Path&gt;" class="s6" d="m259.8 476.7l-13.7-3.5 2.6-10.4 13.8 3.4z"/>
				<path id="&lt;Path&gt;" class="s10" d="m270 482l-3.1-0.9 4.6-15.7 3.1 0.9z"/>
			</g>
			<path id="&lt;Path&gt;" class="s8" d="m325 397.4c-2.7 3.6-5.2 6.9-7.5 10.1-9.1 12.2-15.6 20.8-20.6 27.8-6.8 9.6-10.7 16-14.5 24.1-1.6 3.4-3.2 7.1-5 11.6l-62.9-16.8c7.1-26.3 13.6-45.2 18.7-58.5 1.8-4.5 3.3-8.3 4.7-11.7 1.4-3.3 2.7-6 3.7-8.4q0-0.1 0.1-0.3c3.2-7.2 11.1-10.9 18.7-8.9 4.5 1.2 9.8 2.8 14.7 4.4q13.7 5.1 26.6 12.1 12.1 6.4 23.3 14.5z"/>
			<g id="&lt;Group&gt;">
				<path id="&lt;Path&gt;" class="s20" d="m284.4 395.2c-10.6-12.1-9.7-20.3-9.7-20.3 13.9-0.5 18.5-18.4 18.5-18.4l12 15.3c-2.4 2.1-4.4 3.9-5.9 5.6-7.8 8.6-3.9 12.2-3.9 12.2-1.6 6.9-11 5.6-11 5.6z"/>
				<path id="&lt;Path&gt;" class="s17" d="m305.2 371.8c-2.4 2.1-4.4 3.9-5.9 5.6-5.5-7.7-6.1-20.9-6.1-20.9z"/>
			</g>
			<g id="&lt;Group&gt;">
				<path id="&lt;Path&gt;" class="s20" d="m318.3 315.2c16.2 4 19.3 13.9 16.4 30.9-3.6 21.2-11.8 34.9-31 25.5-26-12.7-12.3-62.9 14.6-56.4z"/>
				<path id="&lt;Path&gt;" class="s22" d="m324.5 342.6c0 0 1.2 4.8 3.1 7.9 0 0-2 1.9-4.8 0.8z"/>
				<g id="&lt;Group&gt;">
					<path id="&lt;Path&gt;" class="s10" d="m314.9 338.9c-0.3 1.3-1.3 2.2-2.2 2.1-0.9-0.2-1.3-1.5-1-2.8 0.2-1.4 1.2-2.3 2.1-2.1 0.9 0.2 1.4 1.4 1.1 2.8z"/>
					<path id="&lt;Path&gt;" class="s10" d="m313.4 336.1l3.2-0.5c0 0-2 2.1-3.2 0.5z"/>
				</g>
				<g id="&lt;Group&gt;">
					<path id="&lt;Path&gt;" class="s10" d="m331.6 342.2c-0.3 1.4-1.3 2.3-2.2 2.1-0.9-0.2-1.3-1.4-1.1-2.8 0.3-1.3 1.3-2.2 2.2-2 0.9 0.2 1.4 1.4 1.1 2.7z"/>
					<path id="&lt;Path&gt;" class="s10" d="m330.1 339.5l3.2-0.5c0 0-2 2.1-3.2 0.5z"/>
				</g>
				<g id="&lt;Group&gt;">
					<path id="&lt;Path&gt;" class="s23" d="m317.4 327.7c0 0-4.4-1.7-7.6 0.7"/>
				</g>
				<g id="&lt;Group&gt;">
					<path id="&lt;Path&gt;" class="s23" d="m329.4 329.8c0 0 3.1-0.3 6.1 2.9"/>
				</g>
				<path id="&lt;Path&gt;" class="s10" d="m294 338.2c0 0 10.8-11.5 12.1-22 0 0 35.3-5.3 29 27.7 0 0 10.1-28.2-17.5-35.6-27.7-7.4-37.5 33.3-26.1 48.9 0 0-4.3-11.8 2.5-19z"/>
				<path id="&lt;Path&gt;" class="s20" d="m295.8 342.3c0.5-2.7-1.1-7.7-6.1-8.4-5.2-0.7-10.1 9.1 1.8 14.6 1.7 0.8 3.2-0.7 4.3-6.2z"/>
				<path id="&lt;Path&gt;" class="s10" d="m344.8 351.1c-4.2-3.9-3.5-10.8-0.3-17.6 3.3-6.9-5.2-12-5.2-12 0 0-0.7-8.7-7.3-12.2-1.3-0.6-6.8 0-6.8 0-7.3-7.9-19-14.5-28.2-4.1-5.4 6.1-10.8-0.2-19.3 12.6-6.2 9.3-1.9 17.4-3.7 20.4-8.3 13.7 2.5 17.4 5.1 22.2 0 0 5.7-2.8 5.2-4.4-3.9-13.1 2.9-21.6 8.2-19.5 5.2 2.1 9 1.5 12.9-3.3 3.8-4.8 1.1-10 9.9-11.2 8.9-1.2 9.8-6.3 9.8-6.3 0 0-0.1 6.7 7.2 10.6 7.4 3.8 4.5 8.5 3.5 15.1-1.1 6.6 2.2 9.1 7.9 13.9 5.7 4.7-0.3 8.2-0.3 8.2 4.7-2.3 5.6-8.4 1.4-12.4z"/>
				<g id="&lt;Group&gt;">
					<path id="&lt;Path&gt;" class="s10" d="m321.6 358.6c-1.6 1.4-4 4.2-4 4.2q-0.4-0.3-0.9-0.5c-3.9-2.4-5-4.8-4.9-6.8 0-1 0.3-2 0.7-2.7 0.5-0.8 1-1.3 1-1.3 1.3 2.5 4.8 5 6.8 6.3 0.8 0.5 1.3 0.8 1.3 0.8z"/>
					<path id="&lt;Path&gt;" class="s6" d="m320.3 357.8l-1.2 1.2c-3.8-2.3-6.1-4.3-6.6-6.2 0.5-0.8 1-1.3 1-1.3 1.3 2.5 4.8 5 6.8 6.3z"/>
					<path id="&lt;Path&gt;" class="s24" d="m316.7 362.3c-3.9-2.4-5-4.8-4.9-6.8 1.3 0.9 2.8 2.1 3.8 3.5 0.9 1.2 1.1 2.3 1.1 3.3z"/>
				</g>
			</g>
			<path id="&lt;Path&gt;" class="s8" d="m280.5 365.9c0 0 11.3 14.4 24.7 14.7 0 0-6.6 10.8-4.5 16.3 0 0-8.5 8.7-20.1 1.1-11.6-7.6-13.4-28-13.4-28 0 0 8.3-0.4 13.3-4.1z"/>
			<path id="&lt;Path&gt;" class="s8" d="m256.6 365.9c0 0-24.8-6.1-42.2-8.7-17.4-2.7 3.7-57.4 3.7-57.4l-10.5-5.1c0 0-24.3 52.4-13.3 68.8 5.9 8.9 43.6 20.5 43.6 20.5z"/>
			<path id="&lt;Path&gt;" class="s10" d="m336.9 382.4c0 0 1.3-3.4 5.2 0 3.9 3.5 5-2 7.4-1.5 2.3 0.5 2.6-3.7 8.4-5 5.8-1.4 6.6-1.4 7.7-4 1-2.6 5.2-2.6 5.2-2.6 0 0-3.9-3.7-1-7 2.9-3.3-0.3-10.7-0.3-10.7 0 0 5.6-1.6 7.7 2.4 2.1 3.9 1.8 5 1.8 5 0 0 0.8-6.4-1-7.7 0 0 8.4 5.3 5 11.5-3.5 6.2-8.5 7.5-8.5 7.5 0 0-1.8 6.5-4.7 7.1-2.9 0.6-4.8 2.4-6.9 4-2.1 1.6-1.8 1.5-5.8 2.2-3.9 0.7-5.3 6.4-7.6 6.4-2.4 0.1-3.2-0.5-5.6 0-2.3 0.6-3.2 4.9-7 2.8-3.8-2.2-5.7-1.2-7.5-2.8-1.8-1.5-10.2 0.6-10.5-4.7-0.3-5.2 13.3-8.7 18-2.9z"/>
			<path id="&lt;Path&gt;" class="s17" d="m256.6 382.1c-0.7 0.9-13.1 16.8-23.4 13.6 1.8-4.5 3.3-8.3 4.7-11.7 0 0 12.7 3.6 18.7-1.9z"/>
			<path id="&lt;Path&gt;" class="s17" d="m271.1 369.5c0 0 4.1 17.7 15.1 22.2 11 4.6 13-0.8 13-0.8 0 0-1.1 15.5-13 9.7-13.1-6.4-18-19.3-15.1-31.1z"/>
			<path id="&lt;Path&gt;" class="s14" d="m276.3 448.8l-10.7-10.2-16.1 3.2 8.3-13.4-6.8-12.8 15.9 1.8 12-11.2 1.4 14.6 14.2 6-15 7.2z"/>
		</g>
	</g>
</svg>