<?xml version="1.0" encoding="UTF-8" standalone="no"?>
<!-- Generator: Adobe Illustrator 27.5.0, SVG Export Plug-In . SVG Version: 6.00 Build 0)  -->

<svg
   version="1.1"
   x="0px"
   y="0px"
   viewBox="0 0 199 155"
   xml:space="preserve"
   id="svg247"
   sodipodi:docname="horarios1.svg"
   inkscape:version="1.3.2 (091e20e, 2023-11-25, custom)"
   width="199"
   height="155"
   xmlns:inkscape="http://www.inkscape.org/namespaces/inkscape"
   xmlns:sodipodi="http://sodipodi.sourceforge.net/DTD/sodipodi-0.dtd"
   xmlns="http://www.w3.org/2000/svg"
   xmlns:svg="http://www.w3.org/2000/svg"><defs
   id="defs247" /><sodipodi:namedview
   id="namedview247"
   pagecolor="#ffffff"
   bordercolor="#000000"
   borderopacity="0.25"
   inkscape:showpageshadow="2"
   inkscape:pageopacity="0.0"
   inkscape:pagecheckerboard="true"
   inkscape:deskcolor="#d1d1d1"
   inkscape:zoom="3.284"
   inkscape:cx="93.026797"
   inkscape:cy="100.33496"
   inkscape:window-width="2560"
   inkscape:window-height="1017"
   inkscape:window-x="1912"
   inkscape:window-y="-8"
   inkscape:window-maximized="1"
   inkscape:current-layer="svg247" />

<g
   id="Background_Simple"
   style="display:none">
	<g
   style="display:inline"
   id="g41">
		<path
   style="fill:#407bff"
   d="m 241.936,74.075 c 7.832,-1.91 16.622,-1.622 26.341,1.643 15.617,5.247 27.043,19.004 34.173,33.856 13.796,28.739 17.651,60.899 27.547,90.911 2.714,8.23 5.923,16.453 11.228,23.305 22.071,28.507 82.754,12.137 82.176,62.137 -0.163,14.13 -7.771,27.655 -18.876,36.394 -32.69,25.724 -78.654,11.019 -113.588,-0.656 -32.732,-10.939 -61.068,-12.275 -93.872,0.819 -27.802,11.097 -56.895,29.991 -88.174,24.881 -31.807,-5.197 -46.032,-36.584 -40.707,-66.182 5.677,-31.551 30.416,-54.82 58.857,-67.405 16.966,-7.508 39.284,-12.096 52.582,-25.755 6.83,-7.015 9.803,-16.855 11.975,-26.402 3.458,-15.205 5.5,-30.795 10.651,-45.513 6.453,-18.439 19.682,-37.153 39.687,-42.033 z"
   id="path40" />
		<path
   style="opacity:0.9;fill:#ffffff"
   d="m 241.936,74.075 c 7.832,-1.91 16.622,-1.622 26.341,1.643 15.617,5.247 27.043,19.004 34.173,33.856 13.796,28.739 17.651,60.899 27.547,90.911 2.714,8.23 5.923,16.453 11.228,23.305 22.071,28.507 82.754,12.137 82.176,62.137 -0.163,14.13 -7.771,27.655 -18.876,36.394 -32.69,25.724 -78.654,11.019 -113.588,-0.656 -32.732,-10.939 -61.068,-12.275 -93.872,0.819 -27.802,11.097 -56.895,29.991 -88.174,24.881 -31.807,-5.197 -46.032,-36.584 -40.707,-66.182 5.677,-31.551 30.416,-54.82 58.857,-67.405 16.966,-7.508 39.284,-12.096 52.582,-25.755 6.83,-7.015 9.803,-16.855 11.975,-26.402 3.458,-15.205 5.5,-30.795 10.651,-45.513 6.453,-18.439 19.682,-37.153 39.687,-42.033 z"
   id="path41" />
	</g>
</g>





<g
   id="Background_Complete"
   transform="matrix(0.45873967,0,0,0.45873967,-14.605776,-40.634047)">
	<g
   id="g8">
		<g
   id="g2">
			<path
   style="fill:#ebebeb"
   d="M 238.401,337.8 H 45.302 c -3.147,0 -5.708,-2.561 -5.708,-5.708 V 60.66 c 0,-3.147 2.561,-5.708 5.708,-5.708 h 193.099 c 3.146,0 5.707,2.561 5.707,5.708 v 271.432 c 0,3.147 -2.561,5.708 -5.707,5.708 z M 45.302,55.203 c -3.01,0 -5.458,2.448 -5.458,5.458 v 271.432 c 0,3.01 2.448,5.458 5.458,5.458 h 193.099 c 3.009,0 5.457,-2.448 5.457,-5.458 V 60.66 c 0,-3.009 -2.448,-5.458 -5.457,-5.458 H 45.302 Z"
   id="path1" />
			<path
   style="fill:#ebebeb"
   d="M 454.698,337.8 H 261.599 c -3.146,0 -5.707,-2.561 -5.707,-5.708 V 60.66 c 0,-3.147 2.561,-5.708 5.707,-5.708 h 193.099 c 3.148,0 5.708,2.561 5.708,5.708 v 271.432 c 0,3.147 -2.561,5.708 -5.708,5.708 z M 261.599,55.203 c -3.009,0 -5.457,2.448 -5.457,5.458 v 271.432 c 0,3.01 2.448,5.458 5.457,5.458 h 193.099 c 3.01,0 5.458,-2.448 5.458,-5.458 V 60.66 c 0,-3.009 -2.448,-5.458 -5.458,-5.458 H 261.599 Z"
   id="path2" />
		</g>
		<g
   id="g7">
			<rect
   x="416.77899"
   y="398.49399"
   style="fill:#ebebeb"
   width="33.122002"
   height="0.25"
   id="rect2" />
			<rect
   x="322.52701"
   y="401.20801"
   style="fill:#ebebeb"
   width="8.6929998"
   height="0.25"
   id="rect3" />
			<rect
   x="396.586"
   y="389.20801"
   style="fill:#ebebeb"
   width="19.191999"
   height="0.25"
   id="rect4" />
			<rect
   x="52.459"
   y="390.888"
   style="fill:#ebebeb"
   width="43.193001"
   height="0.25"
   id="rect5" />
			<rect
   x="104.556"
   y="390.888"
   style="fill:#ebebeb"
   width="6.3330002"
   height="0.25"
   id="rect6" />
			<rect
   y="382.39801"
   style="fill:#ebebeb"
   width="500"
   height="0.25"
   id="rect7"
   x="0" />
		</g>
	</g>
	<path
   style="fill:#e6e6e6"
   d="m 395.28,244.46 v -0.01 c -0.06,-0.82 -0.15,-0.77 -0.04,-0.17 -0.1,-0.3 -0.07,0.65 0.06,2.67 0.04,-1.19 0.01,-2 -0.02,-2.49 z M 70.9,347.51 c -0.03,-0.59 -0.06,-1.18 -0.09,-1.77 -0.31,0.65 -0.36,1.33 0.09,1.77 z"
   id="path8" />
	<path
   style="fill:#f5f5f5"
   d="m 435.78,382.26 h 2.32 c 0,-0.01 0,-0.01 0,-0.02 -0.76,0.01 -1.53,0.01 -2.32,0.02 z"
   id="path9" />
	<path
   style="fill:#fafafa"
   d="m 300.75,359.88 c -1.74,2.73 -3.51,5.52 -5.41,8.57 0.12,-0.32 2.2,-5.85 4.35,-13.97 0.39,1.79 0.75,3.59 1.06,5.4 z"
   id="path10" />
	<path
   style="fill:#fafafa"
   d="m 303.78,355.09 c -0.81,4.26 -1.47,8.52 -1.91,12.78 -0.29,-2.67 -0.66,-5.34 -1.12,-7.99 1.01,-1.6 2.02,-3.18 3.03,-4.79 z"
   id="path11" />
	<path
   style="fill:#f5f5f5"
   d="m 423.69,382.29 12.09,-0.03 c -4,0.05 -8.22,0.16 -12.09,0.18 z"
   id="path12" />
	<path
   style="fill:#f5f5f5"
   d="m 451.38,298.53 c -0.03,-2.21 -0.08,-4.42 -0.15,-6.62 0.18,2.2 0.23,4.41 0.15,6.62 z"
   id="path13" />
	<ellipse
   id="_x3C_Path_x3E__359_"
   style="fill:#f5f5f5"
   cx="250"
   cy="415.69299"
   rx="193.88901"
   ry="11.323" />
	<g
   id="g66">
		<path
   style="fill:#e0e0e0"
   d="m 66.565,173.446 h 136.704 c 10.027,0 18.156,-8.129 18.156,-18.156 v -41.348 c 0,-10.028 -8.129,-18.157 -18.156,-18.157 H 66.565 c -10.028,0 -18.156,8.129 -18.156,18.157 v 41.348 c -10e-4,10.027 8.128,18.156 18.156,18.156 z"
   id="path14" />
		<path
   style="fill:#f5f5f5"
   d="m 75.681,174.019 h 136.704 c 10.028,0 18.156,-8.129 18.156,-18.156 v -41.348 c 0,-10.027 -8.129,-18.156 -18.156,-18.156 H 75.681 c -10.027,0 -18.156,8.129 -18.156,18.156 v 41.348 c 0,10.027 8.129,18.156 18.156,18.156 z"
   id="path15" />
		<path
   style="fill:#e0e0e0"
   d="m 65.456,132.655 h 156.138 v -16.292 c 0,-7.004 -5.678,-12.681 -12.681,-12.681 H 78.137 c -7.004,0 -12.681,5.677 -12.681,12.681 z"
   id="path16" />
		<path
   style="fill:#e0e0e0"
   d="m 78.137,165.549 h 130.776 c 7.004,0 12.681,-5.678 12.681,-12.681 V 136.576 H 65.456 v 16.292 c 0,7.004 5.677,12.681 12.681,12.681 z"
   id="path17" />
		<g
   id="g28">
			<rect
   x="106.925"
   y="109.29"
   style="fill:#e6e6e6"
   width="22.129"
   height="23.556999"
   id="rect17" />
			<rect
   x="129.054"
   y="109.29"
   style="fill:#f5f5f5"
   width="5.6680002"
   height="23.556999"
   id="rect18" />
			<rect
   x="101.123"
   y="105.657"
   style="fill:#e6e6e6"
   width="16.622999"
   height="27.188999"
   id="rect19" />
			<rect
   x="117.739"
   y="105.657"
   style="fill:#f5f5f5"
   width="4.8060002"
   height="27.188999"
   id="rect20" />
			<rect
   x="98.833"
   y="109.29"
   style="fill:#ebebeb"
   width="14.015"
   height="23.556999"
   id="rect21" />
			<rect
   x="112.848"
   y="109.29"
   style="fill:#f5f5f5"
   width="3.2019999"
   height="23.556999"
   id="rect22" />
			<rect
   x="82.994003"
   y="113.276"
   style="fill:#e6e6e6"
   width="18.382999"
   height="19.57"
   id="rect23" />
			<rect
   x="101.377"
   y="113.276"
   style="fill:#f5f5f5"
   width="4.7069998"
   height="19.57"
   id="rect24" />
			<rect
   x="78.174004"
   y="110.258"
   style="fill:#e6e6e6"
   width="13.81"
   height="22.587999"
   id="rect25" />
			<rect
   x="91.976997"
   y="110.258"
   style="fill:#f5f5f5"
   width="3.993"
   height="22.587999"
   id="rect26" />
			<rect
   x="74.499001"
   y="113.276"
   style="fill:#e6e6e6"
   width="13.415"
   height="19.57"
   id="rect27" />
			<rect
   x="87.919998"
   y="113.276"
   style="fill:#f0f0f0"
   width="2.6570001"
   height="19.57"
   id="rect28" />
		</g>
		<g
   id="g44">
			<rect
   x="175.789"
   y="141.10001"
   style="fill:#e6e6e6"
   width="22.129"
   height="23.556999"
   id="rect29" />
			<rect
   x="197.91701"
   y="141.10001"
   style="fill:#f5f5f5"
   width="5.6680002"
   height="23.556999"
   id="rect30" />
			<rect
   x="169.98599"
   y="137.468"
   style="fill:#e6e6e6"
   width="16.622999"
   height="27.188999"
   id="rect31" />
			<rect
   x="186.60201"
   y="137.468"
   style="fill:#f5f5f5"
   width="4.8060002"
   height="27.188999"
   id="rect32" />
			<rect
   x="100.295"
   y="141.10001"
   style="fill:#e6e6e6"
   width="22.129"
   height="23.556999"
   id="rect33" />
			<rect
   x="122.424"
   y="141.10001"
   style="fill:#f5f5f5"
   width="5.6680002"
   height="23.556999"
   id="rect34" />
			<rect
   x="94.491997"
   y="137.468"
   style="fill:#e6e6e6"
   width="16.622999"
   height="27.188999"
   id="rect35" />
			<rect
   x="111.108"
   y="137.468"
   style="fill:#f5f5f5"
   width="4.8060002"
   height="27.188999"
   id="rect36" />
			<rect
   x="167.696"
   y="141.10001"
   style="fill:#ebebeb"
   width="14.015"
   height="23.556999"
   id="rect37" />
			<rect
   x="181.711"
   y="141.10001"
   style="fill:#f5f5f5"
   width="3.2019999"
   height="23.556999"
   id="rect38" />
			<rect
   x="151.85699"
   y="145.08701"
   style="fill:#e6e6e6"
   width="18.382999"
   height="19.57"
   id="rect39" />
			<rect
   x="170.24001"
   y="145.08701"
   style="fill:#f5f5f5"
   width="4.7069998"
   height="19.57"
   id="rect40" />
			<rect
   x="147.037"
   y="142.069"
   style="fill:#e6e6e6"
   width="13.81"
   height="22.587999"
   id="rect41" />
			<rect
   x="160.84"
   y="142.069"
   style="fill:#f5f5f5"
   width="3.993"
   height="22.587999"
   id="rect42" />
			<rect
   x="143.362"
   y="145.08701"
   style="fill:#e6e6e6"
   width="13.415"
   height="19.57"
   id="rect43" />
			<rect
   x="156.784"
   y="145.08701"
   style="fill:#f0f0f0"
   width="2.6570001"
   height="19.57"
   id="rect44" />
		</g>
		<g
   id="g58">
			<g
   id="g56">
				<g
   id="g46">
					<g
   id="g45">
						<path
   style="fill:#ebebeb"
   d="m 175.971,110.008 c 0.471,-0.928 1.547,-1.465 2.525,-1.261 0.978,0.204 1.779,1.134 1.88,2.182 0.692,-0.517 1.681,-0.543 2.396,-0.063 0.715,0.48 1.113,1.437 0.964,2.319 0.78,-0.63 2.058,-0.37 2.561,0.521 0.503,0.891 0.113,2.203 -0.782,2.63 0.609,0.044 1.131,0.651 1.115,1.296 -0.016,0.645 -0.568,1.222 -1.178,1.232 0.617,0.014 1.184,0.557 1.259,1.204 0.075,0.647 -0.353,1.318 -0.949,1.488 0.627,0.278 0.785,1.308 0.274,1.782 -0.511,0.474 -1.456,0.174 -1.636,-0.519 -0.096,0.2 -0.391,0.247 -0.538,0.085 -0.147,-0.162 -0.09,-0.472 0.103,-0.564 -0.282,0.398 -1.003,0.213 -1.082,-0.277 0.212,1.135 -1.142,2.203 -2.111,1.664 0.28,0.474 -0.115,1.136 -0.625,1.284 -0.51,0.148 -1.047,-0.061 -1.526,-0.297 -0.479,-0.237 -0.968,-0.512 -1.497,-0.505 -0.464,0.007 -0.895,0.23 -1.339,0.373 -1.409,0.452 -3.038,0.022 -4.081,-1.077 -0.732,0.983 -2.467,0.719 -2.907,-0.443 -0.113,0.558 -0.606,1.003 -1.145,1.035 -0.538,0.032 -1.075,-0.353 -1.246,-0.894 -0.011,0.248 -0.022,0.497 -0.033,0.745 -1.015,0.24 -2.018,-1.07 -1.583,-2.07 -0.725,0.013 -1.411,-0.612 -1.504,-1.372 -0.094,-0.76 0.418,-1.55 1.122,-1.734 -1.195,-0.335 -2.106,-1.574 -2.119,-2.881 -0.013,-1.306 0.873,-2.565 2.061,-2.928 0.468,-0.143 1.018,-0.139 1.391,0.191 0.374,0.33 0.424,1.056 0.006,1.321 -0.359,-1.171 0.174,-2.575 1.199,-3.159 1.025,-0.584 2.427,-0.284 3.156,0.677 -0.355,-0.498 -0.362,-1.242 -0.016,-1.747 0.346,-0.505 1.017,-0.73 1.575,-0.529 0.139,-0.804 0.94,-1.412 1.706,-1.293 0.765,0.119 1.368,0.944 1.283,1.757 0.088,-0.679 1.143,-0.878 1.448,-0.273 0.429,-0.121 -0.127,0.1 -0.127,0.1 z"
   id="path44" />
					</g>
				</g>
				<g
   id="g55">
					<g
   id="g47">
						<path
   style="fill:#fafafa"
   d="m 175.687,117.568 c 0.313,-0.217 0.709,-0.335 1.083,-0.26 0.374,0.075 0.712,0.364 0.789,0.737 0.077,0.373 -0.156,0.801 -0.527,0.891 -0.451,0.109 -0.903,-0.263 -1.362,-0.198 -0.164,0.023 -0.315,0.101 -0.475,0.144 -0.66,0.176 -1.314,-0.255 -1.863,-0.663 -0.193,-0.144 -0.39,-0.292 -0.519,-0.495 -0.129,-0.203 -0.176,-0.476 -0.055,-0.683 0.169,-0.289 0.568,-0.332 0.901,-0.294 0.667,0.076 1.312,0.346 1.835,0.767 -0.017,-0.104 -0.035,-0.209 -0.051,-0.314 z"
   id="path46" />
					</g>
					<g
   id="g48">
						<path
   style="fill:#fafafa"
   d="m 166.091,117.001 c 0.179,-0.125 0.364,-0.253 0.577,-0.303 0.213,-0.05 0.463,-0.005 0.598,0.168 0.185,0.236 0.067,0.605 -0.167,0.792 -0.234,0.187 -0.545,0.239 -0.841,0.285 -0.304,0.047 -0.688,0.058 -0.838,-0.211 -0.109,-0.196 -0.021,-0.454 0.142,-0.608 0.164,-0.153 0.385,-0.226 0.598,-0.295 z"
   id="path47" />
					</g>
					<g
   id="g54">
						<path
   style="fill:#fafafa"
   d="m 181.25,112.01 c 0.611,0.255 1.083,0.821 1.226,1.467 0.043,0.195 0.037,0.441 -0.134,0.545 -0.121,0.074 -0.276,0.043 -0.414,0.01 -0.586,-0.139 -1.171,-0.278 -1.757,-0.417 0.28,0.108 0.567,0.22 0.791,0.42 0.224,0.2 0.374,0.511 0.301,0.802 -0.086,0.342 -0.461,0.553 -0.814,0.548 -0.353,-0.005 -0.681,-0.18 -0.968,-0.386 -0.306,-0.219 -0.605,-0.523 -0.611,-0.9 -0.006,-0.376 0.468,-0.726 0.757,-0.484 -0.669,-0.182 -1.309,-0.473 -1.886,-0.858 -0.209,-0.14 -0.414,-0.297 -0.546,-0.51 -0.132,-0.214 -0.176,-0.496 -0.055,-0.716 0.601,-1.091 1.359,0.509 1.729,0.652 0.701,0.269 1.492,-0.544 2.381,-0.173 z"
   id="path48" />
						<path
   style="fill:#fafafa"
   d="m 183.98,116.666 c 0.062,0.213 0.019,0.471 -0.154,0.609 -0.173,0.139 -0.481,0.092 -0.561,-0.115 0.392,0.122 0.811,0.263 1.055,0.593 0.245,0.33 0.184,0.907 -0.206,1.035 -0.244,0.08 -0.504,-0.04 -0.729,-0.163 -0.636,-0.348 -1.244,-0.748 -1.815,-1.196 0.174,0.402 -0.245,0.859 -0.682,0.896 -0.437,0.037 -0.845,-0.199 -1.22,-0.426 -0.46,-0.279 -0.987,-0.706 -0.866,-1.23 0.105,-0.456 0.689,-0.658 1.137,-0.524 0.449,0.134 0.786,0.496 1.1,0.843 -0.246,-0.359 0.104,-0.892 0.535,-0.95 0.419,-0.057 0.837,0.199 1.099,0.507 -0.488,-0.268 -0.598,-0.967 0.056,-1.048 0.427,-0.052 1.149,0.815 1.251,1.169 z"
   id="path49" />
						<path
   style="fill:#fafafa"
   d="m 170.574,115.098 c 0.369,-0.138 0.831,0.102 0.93,0.483 0.099,0.381 -0.187,0.816 -0.576,0.876 0.286,0.025 0.561,0.168 0.745,0.388 0.102,0.123 0.18,0.28 0.157,0.438 -0.034,0.237 -0.286,0.392 -0.525,0.4 -0.239,0.009 -0.466,-0.092 -0.684,-0.192 0.236,0.022 0.486,0.049 0.673,0.195 0.187,0.145 0.268,0.452 0.1,0.619 -0.141,0.14 -0.372,0.116 -0.563,0.063 -0.428,-0.12 -0.826,-0.344 -1.151,-0.648 -0.244,0.27 -0.605,0.465 -0.964,0.406 -0.359,-0.059 -0.663,-0.441 -0.551,-0.786 0.08,-0.247 0.338,-0.402 0.596,-0.434 0.257,-0.031 0.516,0.039 0.762,0.119 -0.252,-0.179 -0.52,-0.38 -0.613,-0.675 -0.092,-0.296 0.107,-0.693 0.417,-0.669 0.347,0.027 0.525,0.5 0.799,0.67 0.34,-0.315 -0.294,-0.976 0.448,-1.253 z"
   id="path50" />
						<g
   id="g51">
							<path
   style="fill:#fafafa"
   d="m 176.834,113.653 c 0.395,0.268 0.532,0.795 0.505,1.272 -0.03,0.526 -0.269,1.088 -0.752,1.299 -0.635,0.278 -1.428,-0.251 -1.545,-0.934 -0.116,-0.683 0.332,-1.378 0.947,-1.698 -0.001,0.001 0.45,-0.206 0.845,0.061 z"
   id="path51" />
						</g>
						<g
   id="g52">
							<path
   style="fill:#fafafa"
   d="m 172.4,113.086 c -0.055,0.047 -0.109,0.094 -0.163,0.141 0.269,-0.341 0.838,-0.386 1.158,-0.091 0.32,0.294 0.321,0.865 0.004,1.161 -0.317,0.296 -0.886,0.255 -1.158,-0.084 -0.458,0.213 -1.063,0.13 -1.385,-0.259 -0.322,-0.389 -0.249,-1.067 0.19,-1.317 0.44,-0.249 1.108,0.125 1.061,0.628 0.064,-0.071 0.127,-0.142 0.191,-0.212 z"
   id="path52" />
						</g>
						<g
   id="g53">
							<path
   style="fill:#fafafa"
   d="m 167.506,113.876 c 0.314,0.309 0.64,0.639 0.755,1.064 0.115,0.425 -0.075,0.966 -0.502,1.075 -0.424,0.108 -0.826,-0.242 -1.068,-0.607 -0.218,-0.329 -0.385,-0.739 -0.259,-1.114 0.126,-0.374 0.665,-0.596 0.935,-0.308 z"
   id="path53" />
						</g>
						<path
   style="fill:#fafafa"
   d="m 174.558,111.308 c 0.16,-0.356 0.667,-0.481 0.998,-0.275 0.332,0.207 0.454,0.672 0.309,1.035 -0.145,0.363 -0.517,0.609 -0.906,0.652 -0.481,0.053 -1.05,-0.336 -0.941,-0.808 -0.207,0.273 -0.58,0.382 -0.921,0.348 -0.342,-0.034 -0.659,-0.189 -0.956,-0.36 -0.404,-0.232 -0.835,-0.592 -0.792,-1.056 0.034,-0.37 0.392,-0.654 0.761,-0.689 0.37,-0.034 0.734,0.137 1.016,0.379 0.222,0.189 0.406,0.423 0.646,0.589 0.24,0.166 0.566,0.255 0.823,0.117 z"
   id="path54" />
					</g>
				</g>
			</g>
			<g
   id="g57">
				<polygon
   style="fill:#f0f0f0"
   points="180.663,132.843 181.85,120.62 167.348,120.62 168.535,132.843 "
   id="polygon56" />
				<polygon
   style="fill:#fafafa"
   points="182.909,121.251 183.206,119.625 166.112,119.625 166.409,121.251 "
   id="polygon57" />
			</g>
		</g>
		<g
   id="g65">
			<rect
   x="129.054"
   y="114.495"
   style="fill:#ffffff"
   width="5.6680002"
   height="2.6600001"
   id="rect58" />
			<rect
   x="110.993"
   y="149.733"
   style="fill:#ffffff"
   width="5.0560002"
   height="2.6600001"
   id="rect59" />
			<rect
   x="101.377"
   y="119.108"
   style="fill:#ffffff"
   width="4.7069998"
   height="7.6420002"
   id="rect60" />
			<rect
   x="198.39799"
   y="151.563"
   style="fill:#ffffff"
   width="4.7069998"
   height="4.1700001"
   id="rect61" />
			<rect
   x="123.386"
   y="127.785"
   style="fill:#ffffff"
   width="5.6680002"
   height="2.6600001"
   id="rect62" />
			<rect
   x="122.424"
   y="145.981"
   style="fill:#ffffff"
   width="5.6680002"
   height="13.227"
   id="rect63" />
			<rect
   x="170.24001"
   y="148.258"
   style="fill:#ffffff"
   width="4.7069998"
   height="13.227"
   id="rect64" />
			<rect
   x="88.355003"
   y="114.766"
   style="fill:#ffffff"
   width="1.788"
   height="16.59"
   id="rect65" />
		</g>
	</g>
	<g
   id="g99">
		<g
   id="g79">
			<rect
   x="271.302"
   y="102.195"
   style="fill:#e0e0e0"
   width="169.98801"
   height="176.80299"
   id="rect66" />
			<g
   id="g78">
				<g
   id="g72">
					<g
   id="g71">
						<path
   style="fill:#fafafa"
   d="m 443.521,279.314 v 29.445 c -1.043,0.007 -2.146,0.007 -3.307,0.007 -1.191,0 -2.431,0 -3.721,-0.007 -14.451,-0.014 -35.427,-0.211 -56.621,-0.986 -7.225,-0.261 -14.48,-0.592 -21.508,-1 -2.038,-0.127 -4.065,-0.254 -6.054,-0.388 -0.325,-0.021 -0.64,-0.042 -0.965,-0.063 -2.048,-0.141 -4.076,-0.289 -6.064,-0.444 -16.557,-1.31 -30.722,-3.198 -38.626,-5.91 h -0.01 c -0.01,-0.007 -0.01,-0.007 -0.02,-0.007 -0.285,-0.099 -0.561,-0.197 -0.837,-0.303 -0.227,-0.085 -0.443,-0.169 -0.65,-0.254 -0.236,-0.099 -0.473,-0.19 -0.699,-0.289 -0.226,-0.098 -0.443,-0.204 -0.66,-0.303 -0.207,-0.099 -0.394,-0.197 -0.581,-0.296 -0.197,-0.099 -0.374,-0.204 -0.551,-0.303 -0.177,-0.106 -0.345,-0.211 -0.502,-0.317 -0.167,-0.106 -0.315,-0.211 -0.463,-0.317 -0.177,-0.134 -0.345,-0.275 -0.492,-0.409 -0.089,-0.085 -0.177,-0.169 -0.266,-0.254 -0.108,-0.106 -0.207,-0.218 -0.295,-0.331 -0.187,-0.233 -0.335,-0.465 -0.443,-0.697 -0.059,-0.113 -0.099,-0.225 -0.138,-0.345 -0.039,-0.113 -0.059,-0.232 -0.079,-0.345 -0.079,-0.451 -0.029,-0.916 0.157,-1.395 0.039,-0.085 0.069,-0.169 0.118,-0.254 0.069,-0.141 0.148,-0.289 0.236,-0.43 0.039,-0.063 0.079,-0.12 0.128,-0.183 0.099,-0.148 0.216,-0.296 0.345,-0.451 0.541,-0.634 1.299,-1.289 2.293,-1.965 0,0 0.364,-0.141 1.162,-0.394 0.177,-0.049 0.384,-0.113 0.61,-0.183 0.768,-0.233 1.811,-0.521 3.14,-0.859 h 0.01 c 0.187,-0.049 0.374,-0.092 0.561,-0.141 0.197,-0.049 0.394,-0.099 0.6,-0.148 0.817,-0.204 1.733,-0.416 2.737,-0.641 0.502,-0.106 1.034,-0.218 1.585,-0.338 0.384,-0.085 0.788,-0.162 1.201,-0.246 1.053,-0.218 2.195,-0.437 3.416,-0.662 0.345,-0.063 0.689,-0.127 1.044,-0.19 0.64,-0.12 1.309,-0.24 2.008,-0.352 1.191,-0.211 2.461,-0.423 3.79,-0.627 0.846,-0.134 1.712,-0.268 2.618,-0.401 h 0.01 c 0.581,-0.085 1.171,-0.176 1.772,-0.261 2.441,-0.352 5.07,-0.704 7.924,-1.05 0.512,-0.07 1.043,-0.134 1.575,-0.197 1.988,-0.233 4.085,-0.465 6.27,-0.698 0.483,-0.049 0.975,-0.105 1.467,-0.155 0.699,-0.07 1.398,-0.141 2.116,-0.211 0.817,-0.078 1.644,-0.162 2.481,-0.24 0.315,-0.028 0.64,-0.063 0.965,-0.092 1.949,-0.183 3.967,-0.359 6.054,-0.528 0.118,-0.007 0.236,-0.021 0.354,-0.028 0.699,-0.056 1.408,-0.113 2.116,-0.169 2.51,-0.197 5.109,-0.387 7.816,-0.571 0,0 0,0 0.01,0 0.541,-0.035 1.083,-0.07 1.624,-0.106 0.719,-0.049 1.447,-0.099 2.185,-0.141 0.65,-0.042 1.299,-0.085 1.959,-0.12 0.64,-0.042 1.28,-0.077 1.929,-0.113 1.358,-0.085 2.737,-0.155 4.144,-0.233 3.888,-0.204 7.963,-0.395 12.226,-0.564 1.752,-0.07 3.544,-0.134 5.365,-0.197 1.29,-0.049 2.608,-0.092 3.937,-0.127 0.669,-0.021 1.329,-0.042 2.008,-0.063 1.043,-0.028 2.106,-0.056 3.17,-0.085 0.994,-0.028 1.989,-0.056 2.993,-0.078 1.27,-0.028 2.569,-0.056 3.868,-0.085 3.691,-0.077 7.511,-0.141 11.438,-0.183 1.496,-0.021 3.012,-0.035 4.538,-0.049 l 1.811,0.042 4.636,0.113 z"
   id="path66" />
						<g
   id="g67">
							<path
   style="fill:#ebebeb"
   d="m 443.52,263.186 v 26.754 l -7.028,-0.162 -6.93,-0.162 c -3.691,0.028 -7.285,0.078 -10.779,0.134 -1.162,0.021 -2.313,0.042 -3.465,0.063 -5.099,0.099 -9.991,0.218 -14.687,0.373 -1.083,0.028 -2.156,0.063 -3.219,0.106 -1.063,0.035 -2.107,0.07 -3.15,0.113 -0.797,0.028 -1.585,0.056 -2.372,0.092 -1.25,0.049 -2.49,0.099 -3.701,0.155 -1.142,0.049 -2.264,0.099 -3.386,0.155 -1.103,0.049 -2.205,0.106 -3.288,0.162 -0.719,0.035 -1.447,0.077 -2.156,0.113 -0.571,0.028 -1.132,0.056 -1.693,0.091 -2.815,0.155 -5.522,0.324 -8.141,0.493 -0.787,0.049 -1.565,0.106 -2.333,0.155 -0.768,0.056 -1.536,0.106 -2.284,0.162 -1.29,0.091 -2.55,0.183 -3.78,0.282 -0.394,0.028 -0.788,0.063 -1.172,0.092 -0.522,0.042 -1.024,0.077 -1.526,0.12 -0.02,0 -0.049,0.007 -0.069,0.007 -1.181,0.099 -2.333,0.197 -3.465,0.296 -0.453,0.035 -0.906,0.077 -1.348,0.12 -0.414,0.035 -0.827,0.078 -1.24,0.113 -0.256,0.021 -0.502,0.049 -0.748,0.063 -0.059,0.007 -0.108,0.014 -0.158,0.014 -0.02,0.007 -0.039,0.007 -0.059,0.007 v 0.007 c -0.138,0.007 -0.275,0.021 -0.423,0.035 -0.433,0.035 -0.856,0.078 -1.28,0.12 -0.384,0.035 -0.758,0.07 -1.132,0.113 h -0.03 c -0.866,0.091 -1.723,0.176 -2.559,0.26 -0.217,0.021 -0.433,0.042 -0.64,0.07 -0.236,0.028 -0.472,0.049 -0.699,0.07 -0.699,0.07 -1.388,0.141 -2.057,0.218 -1.978,0.218 -3.868,0.444 -5.67,0.662 -0.699,0.085 -1.388,0.169 -2.067,0.261 -0.64,0.077 -1.27,0.162 -1.89,0.247 -0.62,0.077 -1.23,0.162 -1.831,0.247 -0.561,0.077 -1.122,0.155 -1.664,0.232 -0.797,0.113 -1.565,0.225 -2.313,0.338 -0.315,0.042 -0.62,0.092 -0.925,0.141 -3.957,0.606 -7.324,1.198 -10.178,1.747 -0.433,0.085 -0.866,0.169 -1.28,0.254 -0.768,0.155 -1.496,0.31 -2.185,0.458 -0.551,0.113 -1.063,0.232 -1.565,0.345 -0.384,0.085 -0.768,0.169 -1.122,0.261 -0.305,0.07 -0.6,0.141 -0.886,0.211 -0.443,0.099 -0.857,0.204 -1.24,0.303 -0.374,0.099 -0.728,0.19 -1.053,0.275 h -0.01 c -2.707,0.719 -3.878,1.169 -3.878,1.169 -4.784,3.268 -4.469,4.649 -0.118,6.629 0.01,0 0.01,0.007 0.02,0.007 0.541,0.247 1.142,0.507 1.811,0.775 l -29.905,-0.021 -7.422,-0.007 h -0.896 V 250.83 c 0.305,0.07 0.601,0.148 0.896,0.232 2.668,0.761 5.05,1.817 7.422,3.043 7.087,3.621 14.204,8.629 29.363,11.102 6.231,1.021 12.246,-1.916 17.551,-4.466 5.306,-2.557 11.921,-5.016 17.797,-3.226 2.461,0.754 4.311,2.106 5.995,3.628 1.989,1.782 3.751,3.783 6.064,5.276 0.02,0.014 0.039,0.021 0.059,0.035 0.285,0.183 0.591,0.373 0.906,0.535 0.6,0.324 1.23,0.62 1.919,0.859 1.358,0.479 2.737,0.74 4.134,0.824 h 0.069 c 9.194,0.557 19.234,-6.107 28.901,-4.473 4.656,0.789 8.141,3.332 11.714,5.748 l 0.01,0.007 c 1.053,0.719 2.116,1.416 3.209,2.064 2.175,1.261 4.498,2.289 7.215,2.712 2.786,0.437 8.249,-1.803 13.269,-4.086 0.01,0 0.01,-0.007 0.01,-0.007 3.77,-1.726 7.274,-3.48 9.204,-4.156 1.496,-0.528 3.002,-1.078 4.528,-1.578 2.274,-0.759 4.607,-1.414 7.029,-1.717 z"
   id="path67" />
						</g>
						<path
   style="fill:#fafafa"
   d="m 436.493,279.145 7.028,0.169 v 10.623 l -7.028,-0.162 -6.93,-0.162 c -3.691,0.028 -7.284,0.078 -10.779,0.134 -1.161,0.021 -2.313,0.042 -3.465,0.063 -5.099,0.099 -9.991,0.218 -14.687,0.373 -1.083,0.028 -2.156,0.063 -3.219,0.106 -1.063,0.035 -2.107,0.07 -3.15,0.113 -0.797,0.028 -1.585,0.056 -2.372,0.092 -1.25,0.049 -2.491,0.099 -3.701,0.155 -1.142,0.049 -2.264,0.099 -3.386,0.155 -1.102,0.049 -2.205,0.106 -3.288,0.162 -0.719,0.035 -1.447,0.077 -2.156,0.113 -0.571,0.028 -1.132,0.056 -1.693,0.092 -2.815,0.155 -5.522,0.324 -8.141,0.493 -0.787,0.049 -1.565,0.106 -2.333,0.155 -0.768,0.056 -1.536,0.106 -2.284,0.162 -1.29,0.092 -2.55,0.183 -3.78,0.282 -0.394,0.028 -0.788,0.063 -1.171,0.092 -0.542,0.042 -1.073,0.085 -1.595,0.127 -1.181,0.099 -2.333,0.197 -3.465,0.296 -0.453,0.035 -0.906,0.077 -1.349,0.12 -0.413,0.035 -0.827,0.071 -1.24,0.106 -0.325,0.035 -0.65,0.064 -0.965,0.092 -0.138,0.014 -0.285,0.028 -0.423,0.042 -0.433,0.035 -0.856,0.078 -1.279,0.12 -0.384,0.035 -0.758,0.07 -1.132,0.113 h -0.03 c -0.866,0.092 -1.723,0.176 -2.559,0.261 -0.217,0.021 -0.433,0.042 -0.64,0.063 -0.935,0.099 -1.86,0.197 -2.756,0.296 -1.979,0.218 -3.869,0.444 -5.67,0.662 -0.699,0.084 -1.388,0.169 -2.067,0.261 -0.64,0.077 -1.27,0.162 -1.89,0.246 -0.62,0.078 -1.23,0.162 -1.831,0.247 -0.561,0.077 -1.122,0.155 -1.664,0.232 -0.797,0.113 -1.565,0.225 -2.313,0.338 -0.315,0.042 -0.62,0.092 -0.925,0.141 -3.957,0.606 -7.324,1.198 -10.178,1.747 -0.433,0.085 -0.866,0.169 -1.28,0.254 -0.768,0.155 -1.496,0.31 -2.185,0.458 -0.551,0.113 -1.063,0.232 -1.565,0.345 -0.384,0.085 -0.768,0.169 -1.122,0.261 -0.305,0.07 -0.6,0.141 -0.886,0.211 -0.443,0.099 -0.856,0.204 -1.24,0.303 -0.374,0.099 -0.728,0.19 -1.053,0.275 h -0.01 c -0.01,-0.007 -0.01,-0.007 -0.02,-0.007 -0.285,-0.099 -0.561,-0.197 -0.837,-0.303 -0.227,-0.085 -0.443,-0.169 -0.65,-0.254 -0.236,-0.099 -0.473,-0.19 -0.699,-0.289 -0.226,-0.098 -0.443,-0.204 -0.66,-0.303 -0.207,-0.099 -0.394,-0.197 -0.581,-0.296 -0.197,-0.099 -0.374,-0.204 -0.551,-0.303 -0.177,-0.106 -0.345,-0.211 -0.502,-0.317 -0.167,-0.106 -0.315,-0.211 -0.463,-0.317 -0.177,-0.134 -0.345,-0.275 -0.492,-0.409 -0.089,-0.085 -0.177,-0.169 -0.266,-0.254 -0.108,-0.106 -0.207,-0.218 -0.295,-0.331 -0.187,-0.233 -0.335,-0.465 -0.443,-0.697 -0.059,-0.113 -0.099,-0.225 -0.138,-0.345 -0.039,-0.113 -0.059,-0.232 -0.079,-0.345 -0.079,-0.451 -0.029,-0.916 0.157,-1.395 0.039,-0.085 0.069,-0.169 0.118,-0.254 0.069,-0.141 0.148,-0.289 0.236,-0.43 0.039,-0.063 0.079,-0.12 0.128,-0.183 0.099,-0.148 0.216,-0.296 0.345,-0.451 0.541,-0.634 1.299,-1.289 2.293,-1.965 0,0 0.364,-0.141 1.162,-0.394 0.177,-0.057 0.384,-0.12 0.61,-0.183 0.768,-0.233 1.811,-0.521 3.14,-0.859 h 0.01 c 0.187,-0.049 0.374,-0.092 0.561,-0.141 0.197,-0.049 0.394,-0.099 0.6,-0.148 0.817,-0.204 1.733,-0.416 2.737,-0.641 0.502,-0.106 1.034,-0.225 1.585,-0.338 0.384,-0.085 0.788,-0.162 1.201,-0.246 1.053,-0.218 2.195,-0.437 3.416,-0.662 0.345,-0.063 0.689,-0.127 1.044,-0.19 0.64,-0.12 1.309,-0.24 2.008,-0.352 1.191,-0.211 2.461,-0.423 3.79,-0.627 0.846,-0.134 1.712,-0.268 2.618,-0.401 h 0.01 c 0.581,-0.085 1.171,-0.176 1.772,-0.261 2.441,-0.352 5.07,-0.704 7.924,-1.05 0.512,-0.07 1.043,-0.134 1.575,-0.197 1.988,-0.233 4.085,-0.465 6.27,-0.698 0.483,-0.049 0.975,-0.105 1.467,-0.155 0.699,-0.07 1.398,-0.141 2.116,-0.211 0.817,-0.078 1.644,-0.162 2.481,-0.24 0.315,-0.028 0.64,-0.063 0.965,-0.092 1.949,-0.183 3.967,-0.359 6.054,-0.528 0.118,-0.007 0.236,-0.021 0.354,-0.028 0.699,-0.056 1.408,-0.113 2.116,-0.169 2.51,-0.197 5.109,-0.387 7.816,-0.571 0,0 0,0 0.01,0 0.541,-0.035 1.083,-0.07 1.624,-0.106 0.719,-0.049 1.447,-0.099 2.185,-0.141 0.65,-0.042 1.299,-0.085 1.959,-0.12 0.64,-0.042 1.28,-0.077 1.929,-0.113 1.358,-0.085 2.737,-0.155 4.144,-0.233 3.888,-0.204 7.963,-0.395 12.226,-0.564 1.752,-0.07 3.544,-0.134 5.365,-0.197 1.29,-0.049 2.608,-0.092 3.937,-0.127 0.669,-0.021 1.329,-0.042 2.008,-0.063 1.043,-0.028 2.106,-0.056 3.17,-0.085 0.994,-0.028 1.989,-0.056 2.993,-0.078 1.27,-0.028 2.569,-0.056 3.868,-0.085 3.691,-0.077 7.511,-0.141 11.438,-0.183 1.496,-0.021 3.012,-0.035 4.538,-0.049 l 1.811,0.042 z"
   id="path68" />
						<g
   id="g69">
							<path
   style="fill:#f0f0f0"
   d="m 266.256,308.664 h 0.679 0.216 l 7.422,0.007 70.707,0.063 3.721,0.007 h 2.343 0.059 0.551 0.354 l 2.874,0.007 h 2.963 0.216 0.069 l 78.06,0.07 3.721,0.007 h 2.953 0.354 v -0.063 -5.093 c -2.008,-0.472 -4.341,-0.923 -7.028,-1.324 -2.185,-0.324 -4.607,-0.606 -7.284,-0.845 -14.933,-1.317 -41.934,-4.057 -70.776,-7.086 -0.02,0 -0.049,-0.007 -0.069,-0.007 -2.008,-0.211 -4.036,-0.423 -6.054,-0.634 -0.305,-0.035 -0.6,-0.063 -0.906,-0.092 -0.02,-0.007 -0.039,-0.007 -0.059,-0.007 -0.945,-0.099 -1.89,-0.204 -2.835,-0.303 h -0.029 c -1.063,-0.113 -2.136,-0.225 -3.199,-0.338 -12.59,-1.324 -25.229,-2.677 -37.11,-3.945 h -0.01 c -12.324,-1.324 -23.822,-2.564 -33.587,-3.621 -2.599,-0.282 -5.079,-0.549 -7.422,-0.803 -0.305,-0.035 -0.6,-0.063 -0.896,-0.099 v 23.957 0.142 z"
   id="path69" />
						</g>
						<path
   style="fill:#ebebeb"
   d="m 443.521,257.153 v 27.945 c -2.038,0.176 -4.361,0.317 -7.028,0.395 -1.152,0.035 -2.363,0.056 -3.642,0.056 -4.43,0.028 -9.637,-0.113 -15.77,-0.5 -0.049,0 -0.089,0 -0.138,-0.007 -6.526,-0.402 -14.096,-1.085 -22.857,-2.134 -0.089,-0.007 -0.187,-0.021 -0.276,-0.028 -4.725,-0.57 -9.794,-1.24 -15.238,-2.036 0,0 0.689,-0.12 1.93,-0.416 3.681,-0.874 12.176,-3.254 21.764,-8.411 6.014,-3.233 12.462,-7.565 18.427,-13.293 1.024,-0.986 2.048,-1.824 3.071,-2.522 0.079,-0.049 0.158,-0.106 0.236,-0.155 0.344,-0.225 0.699,-0.444 1.044,-0.641 0.521,-0.31 1.043,-0.578 1.555,-0.81 3.435,-1.564 6.772,-1.662 9.893,-0.845 2.501,0.641 4.863,1.873 7.029,3.402 z"
   id="path70" />
						<path
   style="fill:#fafafa"
   d="m 416.939,285.043 v 0 c 6.345,-2.97 10.946,-7.504 12.928,-12.741 l 0.686,-1.812 2.311,15.14 c 0,-10e-4 -9.178,-0.009 -15.925,-0.587 z"
   id="path71" />
					</g>
					<path
   style="fill:#fafafa"
   d="m 426.596,254.594 c 0,0 -3.351,3.557 1.716,3.203 2.064,-0.144 -0.159,4.372 -3.517,9.773 -6.772,10.891 -14.787,16.984 -30.706,15.336 -5.742,-0.594 -25.435,-1.77 -25.435,-1.77 v 0 c 20.451,-5.679 39.271,-14.426 55.345,-25.091 0.688,-0.457 1.41,-0.858 2.103,-1.162 z"
   id="path72" />
				</g>
				<g
   id="g77">
					<g
   id="g74">
						<rect
   x="354.20499"
   y="103.963"
   style="fill:#fafafa"
   width="85.027"
   height="5.1479998"
   id="rect72" />
						<rect
   x="358.142"
   y="307.76999"
   style="fill:#fafafa"
   width="85.027"
   height="5.1479998"
   id="rect73" />
						<g
   id="g73">
							<path
   style="fill:#f5f5f5"
   d="m 351.403,109.114 v 173.408 c 0.295,-0.028 0.6,-0.056 0.906,-0.085 1.949,-0.183 3.967,-0.359 6.054,-0.528 V 109.114 Z M 351.344,98.935 V 317.307 H 443.52 V 98.935 Z m 85.147,213.349 H 358.362 V 103.965 h 78.129 z m -85.088,-203.17 v 173.408 c 0.295,-0.028 0.6,-0.056 0.906,-0.085 1.949,-0.183 3.967,-0.359 6.054,-0.528 V 109.114 Z"
   id="path73" />
						</g>
					</g>
					<g
   id="g76">
						<rect
   x="269.884"
   y="103.963"
   style="fill:#fafafa"
   width="85.027"
   height="5.1479998"
   id="rect74" />
						<rect
   x="266.931"
   y="307.76999"
   style="fill:#fafafa"
   width="85.027"
   height="5.1479998"
   id="rect75" />
						<g
   id="g75">
							<path
   style="fill:#f5f5f5"
   d="m 266.256,98.935 v 218.372 h 92.176 V 98.935 Z m 8.318,214.019 v -208.32 l 76.77,-0.669 h 0.059 v 208.319 h -0.059 l -72.724,0.634 z"
   id="path75" />
						</g>
					</g>
				</g>
			</g>
		</g>
		<g
   id="g98">
			<g
   id="g97">
				<g
   id="g80">
					<rect
   x="271.85501"
   y="101.513"
   style="fill:#e0e0e0"
   width="1.724"
   height="134.474"
   id="rect79" />
					<rect
   x="436.12601"
   y="101.513"
   style="fill:#e0e0e0"
   width="1.724"
   height="134.474"
   id="rect80" />
				</g>
				<polygon
   style="fill:#ebebeb"
   points="265.101,109.968 262.514,103.933 447.191,103.933 444.604,109.968 "
   id="polygon80" />
				<polygon
   style="fill:#ebebeb"
   points="265.101,118.255 262.514,112.219 447.191,112.219 444.604,118.255 "
   id="polygon81" />
				<polygon
   style="fill:#ebebeb"
   points="265.101,126.541 262.514,120.505 447.191,120.505 444.604,126.541 "
   id="polygon82" />
				<polygon
   style="fill:#ebebeb"
   points="265.101,134.827 262.514,128.792 447.191,128.792 444.604,134.827 "
   id="polygon83" />
				<polygon
   style="fill:#ebebeb"
   points="265.101,143.113 262.514,137.078 447.191,137.078 444.604,143.113 "
   id="polygon84" />
				<polygon
   style="fill:#ebebeb"
   points="265.101,151.4 262.514,145.364 447.191,145.364 444.604,151.4 "
   id="polygon85" />
				<polygon
   style="fill:#ebebeb"
   points="265.101,159.686 262.514,153.651 447.191,153.651 444.604,159.686 "
   id="polygon86" />
				<polygon
   style="fill:#ebebeb"
   points="265.101,167.973 262.514,161.937 447.191,161.937 444.604,167.973 "
   id="polygon87" />
				<polygon
   style="fill:#ebebeb"
   points="265.101,176.259 262.514,170.223 447.191,170.223 444.604,176.259 "
   id="polygon88" />
				<polygon
   style="fill:#ebebeb"
   points="265.101,184.545 262.514,178.51 447.191,178.51 444.604,184.545 "
   id="polygon89" />
				<polygon
   style="fill:#ebebeb"
   points="265.101,192.831 262.514,186.796 447.191,186.796 444.604,192.831 "
   id="polygon90" />
				<polygon
   style="fill:#ebebeb"
   points="265.101,201.118 262.514,195.082 447.191,195.082 444.604,201.118 "
   id="polygon91" />
				<polygon
   style="fill:#ebebeb"
   points="265.101,209.404 262.514,203.369 447.191,203.369 444.604,209.404 "
   id="polygon92" />
				<polygon
   style="fill:#ebebeb"
   points="265.101,217.691 262.514,211.655 447.191,211.655 444.604,217.691 "
   id="polygon93" />
				<polygon
   style="fill:#ebebeb"
   points="265.101,225.977 262.514,219.941 447.191,219.941 444.604,225.977 "
   id="polygon94" />
				<polygon
   style="fill:#ebebeb"
   points="265.101,234.263 262.514,228.227 447.191,228.227 444.604,234.263 "
   id="polygon95" />
				<rect
   x="262.51401"
   y="234.263"
   style="fill:#e0e0e0"
   width="184.677"
   height="3.4489999"
   id="rect95" />
				<rect
   x="258.06"
   y="96.373001"
   style="fill:#e0e0e0"
   width="193.586"
   height="8.0480003"
   id="rect96" />
				<path
   style="fill:#e0e0e0"
   d="m 259.463,177.384 v 0 c -0.768,0 -1.39,-0.622 -1.39,-1.39 v -46.937 c 0,-0.768 0.622,-1.39 1.39,-1.39 v 0 c 0.768,0 1.39,0.623 1.39,1.39 v 46.937 c 0,0.768 -0.623,1.39 -1.39,1.39 z"
   id="path96" />
				<rect
   x="258.95999"
   y="102.807"
   style="fill:#e0e0e0"
   width="1.006"
   height="27.877001"
   id="rect97" />
			</g>
		</g>
	</g>
</g><g
   id="Bed"
   transform="matrix(0.45873967,0,0,0.45873967,-14.605776,-40.634047)">
	<g
   id="g117">
		<g
   id="g103">
			<path
   style="fill:#263238"
   d="m 195.542,415.693 v 0 c 1.423,0 2.49,-0.828 2.734,-2.12 l 10.597,-56.289 h -18.426 l 0.32,53.821 c 0.013,2.316 2.378,4.588 4.775,4.588 z"
   id="path101" />
			<path
   style="opacity:0.2;fill:#ffffff"
   d="m 195.542,415.693 v 0 c 1.423,0 2.49,-0.828 2.734,-2.12 l 10.597,-56.289 h -18.426 l 0.32,53.821 c 0.013,2.316 2.378,4.588 4.775,4.588 z"
   id="path102" />
			<path
   style="fill:#263238"
   d="m 129.953,415.693 v 0 c 1.423,0 2.491,-0.828 2.734,-2.12 l 10.597,-56.289 h -18.426 l 0.32,53.821 c 0.013,2.316 2.378,4.588 4.775,4.588 z"
   id="path103" />
		</g>
		<g
   id="g116">
			<g
   id="g105">
				<path
   style="fill:#263238"
   d="m 130.551,332.829 c 1.805,-10.053 20.803,-24.664 58.578,-20.349 12.423,1.419 24.842,10.646 32.626,20.43 -3.737,2.632 -66.026,9.201 -91.204,-0.081 z"
   id="path104" />
				<path
   style="opacity:0.8;fill:#ffffff"
   d="m 130.551,332.829 c 1.805,-10.053 20.803,-24.664 58.578,-20.349 12.423,1.419 24.842,10.646 32.626,20.43 -3.737,2.632 -66.026,9.201 -91.204,-0.081 z"
   id="path105" />
			</g>
			<g
   id="g114">
				<g
   id="g113">
					<g
   id="g108">
						<path
   style="fill:#263238"
   d="m 373.673,415.693 v 0 c -1.423,0 -2.49,-0.828 -2.734,-2.12 l -10.597,-56.289 h 18.426 l -0.32,53.821 c -0.014,2.316 -2.379,4.588 -4.775,4.588 z"
   id="path106" />
						<path
   style="fill:#263238"
   d="m 439.262,415.693 v 0 c -1.423,0 -2.49,-0.828 -2.734,-2.12 l -10.597,-56.289 h 18.426 l -0.319,53.821 c -0.015,2.316 -2.38,4.588 -4.776,4.588 z"
   id="path107" />
						<path
   style="opacity:0.2;fill:#ffffff"
   d="m 439.262,415.693 v 0 c -1.423,0 -2.49,-0.828 -2.734,-2.12 l -10.597,-56.289 h 18.426 l -0.319,53.821 c -0.015,2.316 -2.38,4.588 -4.776,4.588 z"
   id="path108" />
					</g>
					<g
   id="g109">
						<path
   style="fill:#263238"
   d="M 390.153,371.301 H 122.989 c -7.381,0 -13.364,-5.983 -13.364,-13.364 v -11.135 c 0,-7.381 5.983,-13.364 13.364,-13.364 h 267.164 c 7.381,0 13.364,5.983 13.364,13.364 v 11.135 c 0,7.381 -5.983,13.364 -13.364,13.364 z"
   id="path109" />
					</g>
					<path
   style="opacity:0.7;fill:#ffffff"
   d="M 390.153,371.301 H 122.989 c -7.381,0 -13.364,-5.983 -13.364,-13.364 v -11.135 c 0,-7.381 5.983,-13.364 13.364,-13.364 h 267.164 c 7.381,0 13.364,5.983 13.364,13.364 v 11.135 c 0,7.381 -5.983,13.364 -13.364,13.364 z"
   id="path110" />
					<g
   id="g112">
						<path
   style="fill:#407bff"
   d="m 440.91,371.301 h -80.187 c -7.536,0 -13.646,-6.109 -13.646,-13.646 v -10.572 c 0,-7.536 6.109,-13.646 13.646,-13.646 h 80.187 c 7.536,0 13.646,6.109 13.646,13.646 v 10.572 c 0,7.536 -6.11,13.646 -13.646,13.646 z"
   id="path111" />
						<path
   style="opacity:0.3;fill:#ffffff"
   d="m 440.91,371.301 h -80.187 c -7.536,0 -13.646,-6.109 -13.646,-13.646 v -10.572 c 0,-7.536 6.109,-13.646 13.646,-13.646 h 80.187 c 7.536,0 13.646,6.109 13.646,13.646 v 10.572 c 0,7.536 -6.11,13.646 -13.646,13.646 z"
   id="path112" />
					</g>
				</g>
			</g>
			<path
   style="fill:#263238"
   d="m 456.062,387.65 c -14.776,-8.972 -22.993,0.378 -26.445,0.724 -6.307,0.64 -12.131,-2.928 -18.47,-3.274 -9.591,-0.514 -18.05,6.359 -27.631,5.74 -5.572,-0.367 -10.588,-3.253 -16.182,-3.295 -6.968,-0.063 -13.747,4.282 -20.285,3.725 -6.538,0.556 -13.338,-3.788 -20.306,-3.725 -5.583,0.042 -10.599,3.715 -16.171,4.082 -9.581,0.619 -18.04,-4.68 -27.631,-4.166 -6.339,0.346 -12.163,3.914 -18.47,3.274 -3.453,-0.346 -15.342,-4.397 -19.446,1.427 -0.598,-12.845 -0.157,-29.845 6.601,-41.494 6.758,-11.659 12.561,-19.393 37.926,-19.278 l 62.535,0.902 48.042,0.693 c 0.294,0 0.577,0.01 0.85,0.01 l 41.494,0.525 c 7.052,1.207 10.746,4.449 12.079,13.558 1.51,10.297 -2.499,13.413 1.51,40.572 z"
   id="path114" />
			<g
   id="g115">
				<path
   style="opacity:0.2"
   d="m 456.06,387.649 c -14.775,-8.967 -22.991,0.38 -26.443,0.726 -6.307,0.64 -12.131,-2.928 -18.47,-3.274 -9.591,-0.514 -18.05,6.359 -27.631,5.74 -5.572,-0.367 -10.588,-3.253 -16.182,-3.295 -6.968,-0.063 -13.747,4.282 -20.285,3.725 0.903,-0.073 1.805,-0.241 2.708,-0.525 -0.734,-11.428 -1.574,-23.58 -2.036,-35.029 -0.178,-4.492 -0.766,-9.948 0.672,-14.303 2.309,-7.01 8.448,-7.934 17.021,-8.322 6.003,-0.262 26.613,-0.189 35.565,-0.094 l 41.496,0.529 c 7.055,1.205 10.749,4.444 12.082,13.557 1.503,10.286 -2.505,13.402 1.503,40.565 z"
   id="path115" />
			</g>
		</g>
	</g>
</g><g
   id="Toys"
   transform="matrix(0.45873967,0,0,0.45873967,-14.605776,-40.634047)">
	<g
   id="g133">
		<g
   id="g131">
			<path
   style="fill:#407bff"
   d="m 103.434,276.254 c -0.024,1.855 1.461,3.378 3.316,3.402 1.855,0.024 3.378,-1.461 3.402,-3.316 0.023,-1.855 -1.461,-3.378 -3.316,-3.402 -1.856,-0.024 -3.379,1.461 -3.402,3.316 z"
   id="path117" />
			<path
   style="opacity:0.2;fill:#ffffff"
   d="m 103.434,276.254 c -0.024,1.855 1.461,3.378 3.316,3.402 1.855,0.024 3.378,-1.461 3.402,-3.316 0.023,-1.855 -1.461,-3.378 -3.316,-3.402 -1.856,-0.024 -3.379,1.461 -3.402,3.316 z"
   id="path118" />
			<path
   style="fill:#263238"
   d="m 97.203,277.15 c 0,0 0.032,2.024 1.107,1.863 0,0 1.761,3.071 4.289,3.475 l -0.058,4.86 c -0.015,0.83 -0.04,1.565 0.481,2.132 -0.21,0.961 -0.642,3.271 -1.39,5.254 -0.391,1.03 -0.769,1.973 -1.051,2.606 -0.696,1.546 -0.511,1.715 -0.511,1.715 0.637,0.5 4.24,0.201 4.24,0.201 0.4,-1.085 -1.526,-1.258 -1.526,-1.258 0,0 1.2,-2.203 1.421,-2.612 0,-0.005 0.005,-0.01 0.005,-0.015 1.018,-1.927 1.321,-3.091 1.683,-4.854 l 1.291,0.017 c 0.076,0.004 0.147,-0.003 0.223,-0.009 1.178,3.031 -0.352,7.425 -0.352,7.425 1.91,0.932 2.793,-0.666 2.793,-0.666 0,0 0.241,-1.244 0.334,-1.656 0.651,-2.907 0.303,-5.047 -0.306,-6.271 0.446,-0.535 0.465,-1.158 0.477,-1.907 l 0.062,-4.952 c 2.313,-0.594 3.949,-3.281 3.949,-3.281 1.071,0.188 1.156,-1.833 1.156,-1.833 -0.5,-2.987 -2.19,-1.281 -2.19,-1.281 -1.426,-0.197 -0.735,1.871 -0.735,1.871 -0.776,1.588 -2.246,2.04 -3.226,2.154 -0.348,-0.221 -0.751,-0.356 -1.191,-0.363 l -3.271,-0.042 c -0.466,-0.007 -0.904,0.133 -1.264,0.367 -0.938,-0.069 -2.701,-0.452 -3.534,-2.279 0,0 0.742,-2.048 -0.687,-1.886 0.001,10e-4 -1.646,-1.751 -2.219,1.225 z"
   id="path119" />
			<g
   id="g123">
				<path
   style="fill:#263238"
   d="m 105.986,277.805 2.595,0.033 c 0.668,0.009 1.217,-0.526 1.225,-1.194 l 0.008,-0.642 c 0.008,-0.668 -0.526,-1.216 -1.194,-1.225 l -2.595,-0.033 c -0.668,-0.009 -1.217,0.526 -1.225,1.194 l -0.008,0.642 c -0.009,0.668 0.525,1.216 1.194,1.225 z"
   id="path120" />
				<g
   id="g122">
					<path
   style="fill:#ffffff"
   d="m 108.149,276.228 c -0.003,0.243 0.13,0.441 0.297,0.443 0.167,0.002 0.305,-0.193 0.308,-0.436 0.003,-0.243 -0.13,-0.441 -0.297,-0.443 -0.167,-10e-4 -0.305,0.194 -0.308,0.436 z"
   id="path121" />
					<path
   style="fill:#ffffff"
   d="m 106.491,276.207 c -0.003,0.243 0.13,0.441 0.297,0.443 0.167,0.002 0.305,-0.193 0.308,-0.436 0.003,-0.243 -0.13,-0.441 -0.297,-0.443 -0.167,-0.001 -0.305,0.194 -0.308,0.436 z"
   id="path122" />
				</g>
			</g>
			<path
   style="opacity:0.6;fill:#ffffff"
   d="m 104.873,285.496 3.483,0.044 c 0.467,0.006 0.85,-0.368 0.856,-0.834 l 0.021,-1.653 c 0.006,-0.467 -0.368,-0.85 -0.834,-0.856 l -3.483,-0.044 c -0.467,-0.006 -0.85,0.367 -0.856,0.834 l -0.021,1.653 c -0.006,0.468 0.367,0.851 0.834,0.856 z"
   id="path123" />
			<g
   id="g127">
				<path
   style="fill:#407bff"
   d="m 107.67,295.12 c 1.18,0.269 2.106,0.19 2.698,0.063 -0.044,0.318 -0.102,0.646 -0.178,0.987 -0.092,0.412 -0.33,1.657 -0.33,1.657 0,0 2.126,-0.053 1.714,1.425 0,0 -3.633,0.322 -4.952,-0.286 0,-0.001 0.761,-1.991 1.048,-3.846 z"
   id="path124" />
				<path
   style="opacity:0.2;fill:#ffffff"
   d="m 107.67,295.12 c 1.18,0.269 2.106,0.19 2.698,0.063 -0.044,0.318 -0.102,0.646 -0.178,0.987 -0.092,0.412 -0.33,1.657 -0.33,1.657 0,0 2.126,-0.053 1.714,1.425 0,0 -3.633,0.322 -4.952,-0.286 0,-0.001 0.761,-1.991 1.048,-3.846 z"
   id="path125" />
				<path
   style="fill:#407bff"
   d="m 100.07,299.056 c 0.637,0.5 4.24,0.201 4.24,0.201 0.4,-1.085 -1.526,-1.258 -1.526,-1.258 0,0 1.2,-2.203 1.421,-2.612 -0.614,-0.07 -1.668,-0.425 -2.573,-0.652 -0.391,1.03 -0.769,1.973 -1.051,2.606 -0.696,1.546 -0.511,1.715 -0.511,1.715 z"
   id="path126" />
				<path
   style="opacity:0.2;fill:#ffffff"
   d="m 100.07,299.056 c 0.637,0.5 4.24,0.201 4.24,0.201 0.4,-1.085 -1.526,-1.258 -1.526,-1.258 0,0 1.2,-2.203 1.421,-2.612 -0.614,-0.07 -1.668,-0.425 -2.573,-0.652 -0.391,1.03 -0.769,1.973 -1.051,2.606 -0.696,1.546 -0.511,1.715 -0.511,1.715 z"
   id="path127" />
			</g>
			<path
   style="fill:#407bff"
   d="m 111.815,279.045 c 0.295,-0.283 0.564,-0.633 0.778,-1.073 0,0 -0.689,-2.067 0.739,-1.87 0,0 1.691,-1.707 2.189,1.28 0,0 -0.086,2.026 -1.156,1.833 0,0 -0.443,0.724 -1.19,1.503 -0.349,-0.767 -0.923,-1.329 -1.36,-1.673 z"
   id="path128" />
			<path
   style="opacity:0.2;fill:#ffffff"
   d="m 111.815,279.045 c 0.295,-0.283 0.564,-0.633 0.778,-1.073 0,0 -0.689,-2.067 0.739,-1.87 0,0 1.691,-1.707 2.189,1.28 0,0 -0.086,2.026 -1.156,1.833 0,0 -0.443,0.724 -1.19,1.503 -0.349,-0.767 -0.923,-1.329 -1.36,-1.673 z"
   id="path129" />
			<path
   style="fill:#407bff"
   d="m 97.2,277.149 c 0.574,-2.973 2.221,-1.223 2.221,-1.223 1.432,-0.161 0.691,1.888 0.691,1.888 0.257,0.564 0.602,0.989 0.985,1.311 -0.343,0.495 -0.835,1.074 -1.494,1.573 -0.814,-0.855 -1.294,-1.687 -1.294,-1.687 -1.075,0.165 -1.109,-1.862 -1.109,-1.862 z"
   id="path130" />
			<path
   style="opacity:0.2;fill:#ffffff"
   d="m 97.2,277.149 c 0.574,-2.973 2.221,-1.223 2.221,-1.223 1.432,-0.161 0.691,1.888 0.691,1.888 0.257,0.564 0.602,0.989 0.985,1.311 -0.343,0.495 -0.835,1.074 -1.494,1.573 -0.814,-0.855 -1.294,-1.687 -1.294,-1.687 -1.075,0.165 -1.109,-1.862 -1.109,-1.862 z"
   id="path131" />
		</g>
		<path
   style="fill:#407bff"
   d="m 105.724,279.729 2.286,0.037 0.002,-0.321 c 0.002,-0.268 -0.213,-0.487 -0.48,-0.491 l -1.31,-0.021 c -0.272,-0.004 -0.495,0.214 -0.496,0.485 z"
   id="path132" />
		<path
   style="opacity:0.1"
   d="m 105.724,279.729 2.286,0.037 0.002,-0.321 c 0.002,-0.268 -0.213,-0.487 -0.48,-0.491 l -1.31,-0.021 c -0.272,-0.004 -0.495,0.214 -0.496,0.485 z"
   id="path133" />
	</g>
</g><g
   id="Plant"
   transform="matrix(0.45873967,0,0,0.45873967,-14.605776,-40.634047)">
	<g
   id="g142">
		<polygon
   style="fill:#263238"
   points="91.504,386.112 91.449,384.328 89.532,382.927 91.497,383.389 92.161,381.3 92.49,383.299 94.655,382.469 92.489,384.314 "
   id="polygon133" />
		<polygon
   style="fill:#263238"
   points="80.428,395.526 82.978,396.682 84.577,397.966 82.811,397.708 81.096,398.875 81.894,397.021 "
   id="polygon134" />
		<path
   style="fill:#407bff"
   d="m 104.269,394.708 c 0,6.076 -4.926,16.766 -11.002,16.766 -6.076,0 -11.002,-10.69 -11.002,-16.766 0,-6.076 4.926,-11.002 11.002,-11.002 6.076,0 11.002,4.926 11.002,11.002 z"
   id="path134" />
		<path
   style="opacity:0.2;fill:#ffffff"
   d="m 104.269,394.708 c 0,6.076 -4.926,16.766 -11.002,16.766 -6.076,0 -11.002,-10.69 -11.002,-16.766 0,-6.076 4.926,-11.002 11.002,-11.002 6.076,0 11.002,4.926 11.002,11.002 z"
   id="path135" />
		<path
   style="opacity:0.2"
   d="m 102.056,388.11 c 0.178,0.855 0.273,1.74 0.273,2.648 0,7.154 -5.8,12.954 -12.954,12.954 -1.88,0 -3.661,-0.409 -5.273,-1.129 1.971,4.655 5.34,8.891 9.164,8.891 6.076,0 11.002,-10.69 11.002,-16.766 0.001,-2.479 -0.828,-4.758 -2.212,-6.598 z"
   id="path136" />
		<polygon
   style="fill:#263238"
   points="84.432,392.509 84.058,390.552 80.914,391.116 83.48,389.632 81.574,386.865 84.286,388.844 85.019,385.545 85.019,389.064 87.291,389.577 84.872,390.163 "
   id="polygon136" />
		<polygon
   style="fill:#263238"
   points="91.37,393.032 92.069,394.898 93.577,393.913 92.795,395.707 95.14,398.112 92.133,396.619 91.198,399.015 91.373,396.526 89.048,396.404 91.332,395.418 "
   id="polygon137" />
		<polygon
   style="fill:#263238"
   points="101.163,394.266 102.308,395.423 104.182,393.608 103.119,395.783 105.672,396.79 102.932,396.684 103.937,399.254 102.335,396.869 100.561,397.556 101.934,396.057 "
   id="polygon138" />
		<polygon
   style="fill:#263238"
   points="93.593,386.628 95.14,387.52 97.34,386.628 95.912,388.055 97.34,389.72 95.466,388.947 94.426,390.849 94.604,388.412 "
   id="polygon139" />
		<polygon
   style="fill:#263238"
   points="99.835,388.741 101.402,387.888 101.789,385.545 102.262,387.507 104.427,387.159 102.79,388.353 104.508,389.912 101.884,388.81 "
   id="polygon140" />
		<path
   style="fill:#263238"
   d="M 101.511,415.481 H 85.023 c -1.902,0 -3.444,-1.542 -3.444,-3.444 v -9.087 h 23.376 v 9.087 c 0,1.901 -1.542,3.444 -3.444,3.444 z"
   id="path140" />
		<path
   style="opacity:0.1;fill:#ffffff"
   d="M 101.511,415.481 H 85.023 c -1.902,0 -3.444,-1.542 -3.444,-3.444 v -9.087 h 23.376 v 9.087 c 0,1.901 -1.542,3.444 -3.444,3.444 z"
   id="path141" />
		<rect
   x="81.579002"
   y="402.94901"
   style="opacity:0.2"
   width="23.375999"
   height="2.444"
   id="rect141" />
		<path
   style="fill:#263238"
   d="M 105.299,402.949 H 81.235 c -0.694,0 -1.257,-0.563 -1.257,-1.257 v -0.368 c 0,-0.694 0.563,-1.257 1.257,-1.257 h 24.064 c 0.694,0 1.257,0.563 1.257,1.257 v 0.368 c 0,0.695 -0.563,1.257 -1.257,1.257 z"
   id="path142" />
	</g>
</g><g
   id="Clock"
   transform="matrix(0.45873967,0,0,0.45873967,-14.605776,-40.634047)">
	<g
   id="g170">
		<g
   id="g169">
			<g
   id="g148">
				<path
   style="fill:#407bff"
   d="m 88.122,315.161 h -4.684 c -0.842,0 -1.526,-0.683 -1.526,-1.526 v -13.373 c 0,-0.845 0.684,-1.526 1.526,-1.526 h 4.684 c -0.667,0 -1.21,0.54 -1.21,1.21 v 14.005 c 0,0.669 0.543,1.21 1.21,1.21 z"
   id="path143" />
				<path
   style="opacity:0.2"
   d="m 88.122,315.161 h -4.684 c -0.842,0 -1.526,-0.683 -1.526,-1.526 v -13.373 c 0,-0.845 0.684,-1.526 1.526,-1.526 h 4.684 c -0.667,0 -1.21,0.54 -1.21,1.21 v 14.005 c 0,0.669 0.543,1.21 1.21,1.21 z"
   id="path144" />
				<path
   style="fill:#407bff"
   d="M 121.677,298.733 H 88.123 c -0.667,0 -1.211,0.544 -1.211,1.211 v 14.008 c 0,0.667 0.544,1.211 1.211,1.211 h 33.553 c 0.667,0 1.211,-0.544 1.211,-1.211 v -14.008 c 0.001,-0.667 -0.543,-1.211 -1.21,-1.211 z m -0.483,13.99 c 0,0.57 -0.465,1.036 -1.036,1.036 H 89.58 c -0.57,0 -1.036,-0.465 -1.036,-1.036 v -11.41 c 0,-0.579 0.465,-1.036 1.036,-1.036 h 30.578 c 0.571,0 1.036,0.456 1.036,1.036 z"
   id="path145" />
				<path
   style="opacity:0.2;fill:#ffffff"
   d="M 121.677,298.733 H 88.123 c -0.667,0 -1.211,0.544 -1.211,1.211 v 14.008 c 0,0.667 0.544,1.211 1.211,1.211 h 33.553 c 0.667,0 1.211,-0.544 1.211,-1.211 v -14.008 c 0.001,-0.667 -0.543,-1.211 -1.21,-1.211 z m -0.483,13.99 c 0,0.57 -0.465,1.036 -1.036,1.036 H 89.58 c -0.57,0 -1.036,-0.465 -1.036,-1.036 v -11.41 c 0,-0.579 0.465,-1.036 1.036,-1.036 h 30.578 c 0.571,0 1.036,0.456 1.036,1.036 z"
   id="path146" />
				<path
   style="fill:#407bff"
   d="m 121.194,301.313 v 11.41 c 0,0.57 -0.465,1.036 -1.036,1.036 H 89.58 c -0.57,0 -1.036,-0.465 -1.036,-1.036 v -11.41 c 0,-0.579 0.465,-1.036 1.036,-1.036 h 30.578 c 0.571,0.001 1.036,0.457 1.036,1.036 z"
   id="path147" />
				<path
   style="fill:#263238"
   d="m 121.194,301.313 v 11.41 c 0,0.57 -0.465,1.036 -1.036,1.036 H 89.58 c -0.57,0 -1.036,-0.465 -1.036,-1.036 v -11.41 c 0,-0.579 0.465,-1.036 1.036,-1.036 h 30.578 c 0.571,0.001 1.036,0.457 1.036,1.036 z"
   id="path148" />
			</g>
			<g
   id="g168">
				<g
   id="g154">
					<path
   style="fill:#ffffff"
   d="m 93.167,306.574 h -0.242 c -0.257,0 -0.466,-0.208 -0.466,-0.466 v -3.415 c 0,-0.257 0.208,-0.466 0.466,-0.466 h 0.242 c 0.257,0 0.466,0.209 0.466,0.466 v 3.415 c 0,0.258 -0.209,0.466 -0.466,0.466 z"
   id="path149" />
					<path
   style="fill:#ffffff"
   d="m 93.167,311.611 h -0.242 c -0.257,0 -0.466,-0.209 -0.466,-0.466 v -3.415 c 0,-0.257 0.208,-0.466 0.466,-0.466 h 0.242 c 0.257,0 0.466,0.208 0.466,0.466 v 3.415 c 0,0.258 -0.209,0.466 -0.466,0.466 z"
   id="path150" />
					<path
   style="fill:#ffffff"
   d="m 98.687,311.611 h -0.242 c -0.257,0 -0.466,-0.209 -0.466,-0.466 v -3.415 c 0,-0.257 0.209,-0.466 0.466,-0.466 h 0.242 c 0.257,0 0.466,0.208 0.466,0.466 v 3.415 c 0,0.258 -0.209,0.466 -0.466,0.466 z"
   id="path151" />
					<path
   style="fill:#ffffff"
   d="m 97.98,306.837 v 0.242 c 0,0.257 -0.208,0.466 -0.466,0.466 h -3.416 c -0.257,0 -0.466,-0.208 -0.466,-0.466 v -0.242 c 0,-0.257 0.209,-0.466 0.466,-0.466 h 3.416 c 0.257,0 0.466,0.208 0.466,0.466 z"
   id="path152" />
					<path
   style="fill:#ffffff"
   d="m 97.98,301.776 v 0.242 c 0,0.257 -0.208,0.466 -0.466,0.466 h -3.416 c -0.257,0 -0.466,-0.208 -0.466,-0.466 v -0.242 c 0,-0.257 0.209,-0.466 0.466,-0.466 h 3.416 c 0.257,10e-4 0.466,0.209 0.466,0.466 z"
   id="path153" />
					<path
   style="fill:#ffffff"
   d="m 93.633,312.139 v -0.242 c 0,-0.257 0.209,-0.466 0.466,-0.466 h 3.416 c 0.257,0 0.466,0.208 0.466,0.466 v 0.242 c 0,0.257 -0.208,0.466 -0.466,0.466 h -3.416 c -0.258,-0.001 -0.466,-0.209 -0.466,-0.466 z"
   id="path154" />
				</g>
				<g
   id="g159">
					<path
   style="fill:#ffffff"
   d="m 111.738,306.574 h -0.242 c -0.257,0 -0.466,-0.208 -0.466,-0.466 v -3.415 c 0,-0.257 0.209,-0.466 0.466,-0.466 h 0.242 c 0.257,0 0.466,0.209 0.466,0.466 v 3.415 c 0,0.258 -0.209,0.466 -0.466,0.466 z"
   id="path155" />
					<path
   style="fill:#ffffff"
   d="m 117.258,311.611 h -0.242 c -0.257,0 -0.466,-0.209 -0.466,-0.466 v -3.415 c 0,-0.257 0.208,-0.466 0.466,-0.466 h 0.242 c 0.257,0 0.466,0.208 0.466,0.466 v 3.415 c 0,0.258 -0.209,0.466 -0.466,0.466 z"
   id="path156" />
					<path
   style="fill:#ffffff"
   d="m 116.551,306.837 v 0.242 c 0,0.257 -0.209,0.466 -0.466,0.466 h -3.415 c -0.257,0 -0.466,-0.208 -0.466,-0.466 v -0.242 c 0,-0.257 0.209,-0.466 0.466,-0.466 h 3.415 c 0.257,0 0.466,0.208 0.466,0.466 z"
   id="path157" />
					<path
   style="fill:#ffffff"
   d="m 116.551,301.776 v 0.242 c 0,0.257 -0.209,0.466 -0.466,0.466 h -3.415 c -0.257,0 -0.466,-0.208 -0.466,-0.466 v -0.242 c 0,-0.257 0.209,-0.466 0.466,-0.466 h 3.415 c 0.257,10e-4 0.466,0.209 0.466,0.466 z"
   id="path158" />
					<path
   style="fill:#ffffff"
   d="m 112.204,312.139 v -0.242 c 0,-0.257 0.209,-0.466 0.466,-0.466 h 3.415 c 0.257,0 0.466,0.208 0.466,0.466 v 0.242 c 0,0.257 -0.209,0.466 -0.466,0.466 h -3.415 c -0.258,-0.001 -0.466,-0.209 -0.466,-0.466 z"
   id="path159" />
				</g>
				<g
   id="g165">
					<path
   style="fill:#ffffff"
   d="m 103.407,306.574 h -0.242 c -0.257,0 -0.466,-0.208 -0.466,-0.466 v -3.415 c 0,-0.257 0.208,-0.466 0.466,-0.466 h 0.242 c 0.257,0 0.466,0.209 0.466,0.466 v 3.415 c -0.001,0.258 -0.209,0.466 -0.466,0.466 z"
   id="path160" />
					<path
   style="fill:#ffffff"
   d="m 108.926,306.574 h -0.242 c -0.257,0 -0.466,-0.208 -0.466,-0.466 v -3.415 c 0,-0.257 0.209,-0.466 0.466,-0.466 h 0.242 c 0.257,0 0.466,0.209 0.466,0.466 v 3.415 c 0,0.258 -0.208,0.466 -0.466,0.466 z"
   id="path161" />
					<path
   style="fill:#ffffff"
   d="m 103.407,311.611 h -0.242 c -0.257,0 -0.466,-0.209 -0.466,-0.466 v -3.415 c 0,-0.257 0.208,-0.466 0.466,-0.466 h 0.242 c 0.257,0 0.466,0.208 0.466,0.466 v 3.415 c -0.001,0.258 -0.209,0.466 -0.466,0.466 z"
   id="path162" />
					<path
   style="fill:#ffffff"
   d="m 108.926,311.611 h -0.242 c -0.257,0 -0.466,-0.209 -0.466,-0.466 v -3.415 c 0,-0.257 0.209,-0.466 0.466,-0.466 h 0.242 c 0.257,0 0.466,0.208 0.466,0.466 v 3.415 c 0,0.258 -0.208,0.466 -0.466,0.466 z"
   id="path163" />
					<path
   style="fill:#ffffff"
   d="m 108.219,301.776 v 0.242 c 0,0.257 -0.208,0.466 -0.466,0.466 h -3.416 c -0.257,0 -0.466,-0.208 -0.466,-0.466 v -0.242 c 0,-0.257 0.209,-0.466 0.466,-0.466 h 3.416 c 0.258,10e-4 0.466,0.209 0.466,0.466 z"
   id="path164" />
					<path
   style="fill:#ffffff"
   d="m 103.872,312.139 v -0.242 c 0,-0.257 0.209,-0.466 0.466,-0.466 h 3.416 c 0.257,0 0.466,0.208 0.466,0.466 v 0.242 c 0,0.257 -0.208,0.466 -0.466,0.466 h -3.416 c -0.257,-0.001 -0.466,-0.209 -0.466,-0.466 z"
   id="path165" />
				</g>
				<g
   id="g167">
					<path
   style="fill:#ffffff"
   d="m 101.513,305.836 v 0.273 c 0,0.259 -0.209,0.465 -0.465,0.465 h -0.244 c -0.256,0 -0.465,-0.206 -0.465,-0.465 v -0.273 c 0,-0.256 0.209,-0.465 0.465,-0.465 h 0.244 c 0.255,0 0.465,0.209 0.465,0.465 z"
   id="path166" />
					<path
   style="fill:#ffffff"
   d="m 101.513,307.729 v 0.273 c 0,0.258 -0.209,0.465 -0.465,0.465 h -0.244 c -0.256,0 -0.465,-0.206 -0.465,-0.465 v -0.273 c 0,-0.256 0.209,-0.465 0.465,-0.465 h 0.244 c 0.255,0 0.465,0.209 0.465,0.465 z"
   id="path167" />
				</g>
			</g>
		</g>
	</g>
</g><g
   id="Lamp"
   transform="matrix(0.45873967,0,0,0.45873967,-14.605776,-40.634047)">
	<g
   id="g171">
		<path
   style="fill:#407bff"
   d="m 68.728,367.115 v 43.577 h -9.361 v -43.577 h 9.361 m 5,-5 H 54.367 v 48.659 c 0,2.716 2.202,4.918 4.918,4.918 h 9.525 c 2.716,0 4.918,-2.202 4.918,-4.918 z"
   id="path170" />
	</g>
	<g
   id="g172">
		<path
   style="fill:#407bff"
   d="m 124.874,367.115 v 43.577 h -9.361 v -43.577 h 9.361 m 5,-5 h -19.361 v 49.101 c 0,2.472 2.004,4.477 4.477,4.477 h 10.408 c 2.472,0 4.477,-2.004 4.477,-4.477 v -49.101 z"
   id="path171" />
	</g>
	<g
   id="g175">
		<path
   style="fill:#407bff"
   d="m 131.135,320.325 v 45.922 c 0,2.89 -1.359,5.237 -3.032,5.237 H 56.021 c -1.673,0 -3.032,-2.347 -3.032,-5.237 v -45.922 c 0,-2.89 1.359,-5.237 3.032,-5.237 h 72.082 c 1.673,0 3.032,2.347 3.032,5.237 z"
   id="path172" />
		<path
   style="opacity:0.2;fill:#ffffff"
   d="m 131.135,320.325 v 45.922 c 0,2.89 -1.359,5.237 -3.032,5.237 H 56.021 c -1.673,0 -3.032,-2.347 -3.032,-5.237 v -45.922 c 0,-2.89 1.359,-5.237 3.032,-5.237 h 72.082 c 1.673,0 3.032,2.347 3.032,5.237 z"
   id="path173" />
		<g
   id="g174">
			<path
   style="opacity:0.2;fill:#ffffff"
   d="m 131.135,320.325 v 45.922 c 0,2.89 -1.154,5.237 -2.575,5.237 H 75.25 c -1.129,0 -2.046,-1.865 -2.046,-4.16 v -48.076 c 0,-2.303 0.917,-4.16 2.046,-4.16 h 53.31 c 1.421,0 2.575,2.347 2.575,5.237 z"
   id="path174" />
		</g>
	</g>
	<path
   style="opacity:0.3;fill:#ffffff"
   d="M 122.305,337.55 H 82.089 c -2.162,0 -3.915,-1.753 -3.915,-3.915 v -9.327 c 0,-2.162 1.753,-3.915 3.915,-3.915 h 40.216 c 2.162,0 3.915,1.753 3.915,3.915 v 9.327 c 0,2.162 -1.753,3.915 -3.915,3.915 z"
   id="path175" />
	<path
   style="opacity:0.3;fill:#ffffff"
   d="M 121.305,367.87 H 83.089 c -2.715,0 -4.915,-2.201 -4.915,-4.915 v -17.213 c 0,-2.715 2.201,-4.915 4.915,-4.915 h 38.216 c 2.715,0 4.915,2.201 4.915,4.915 v 17.213 c 0,2.714 -2.201,4.915 -4.915,4.915 z"
   id="path176" />
	<polygon
   style="fill:#ffffff"
   points="99.313,324.093 98.241,321.123 108.491,321.123 107.419,324.093 "
   id="polygon176" />
	<polygon
   style="fill:#ffffff"
   points="99.313,343.605 98.241,340.635 108.491,340.635 107.419,343.605 "
   id="polygon177" />
	<g
   id="g196">
		<ellipse
   style="opacity:0.2;fill:#407bff"
   cx="70.959999"
   cy="275.047"
   rx="18.142"
   ry="25.537001"
   id="ellipse177" />
		<path
   style="opacity:0.2;fill:#ffffff"
   d="m 70.897,257.532 c 10.019,0 11.743,7.726 11.743,17.257 0,9.531 -1.723,17.257 -11.743,17.257 -10.019,0 -12.057,-7.467 -12.057,-16.998 0,-9.531 2.038,-17.516 12.057,-17.516 z"
   id="path177" />
		<g
   id="g195">
			<g
   id="g179">
				<polygon
   style="fill:#407bff"
   points="74.563,257.532 79.009,292.045 63.414,292.045 67.862,257.532 68.851,249.85 73.574,249.85 "
   id="polygon178" />
				<polygon
   style="opacity:0.5;fill:#ffffff"
   points="74.563,257.532 79.009,292.045 63.414,292.045 67.862,257.532 68.851,249.85 73.574,249.85 "
   id="polygon179" />
			</g>
			<path
   style="opacity:0.2;fill:#ffffff"
   d="m 68.011,257.574 c 3.929,11.341 2.111,24.515 -4.745,34.367 l 15.744,0.104 c 0,0 -4.99,-5.134 -6.09,-17.236 -0.953,-10.489 1.643,-17.278 1.643,-17.278 z"
   id="path179" />
			<g
   id="g186">
				<g
   id="g184">
					<polygon
   style="fill:#263238"
   points="79.01,292.045 74.786,303.567 67.638,303.567 63.414,292.045 "
   id="polygon180" />
					<polygon
   style="opacity:0.2"
   points="79.01,292.045 74.786,303.567 67.638,303.567 63.414,292.045 "
   id="polygon181" />
					<polygon
   style="opacity:0.1;fill:#ffffff"
   points="79.01,292.045 74.786,303.567 67.638,303.567 63.414,292.045 "
   id="polygon182" />
					<polygon
   style="fill:#263238"
   points="63.414,315.088 67.638,303.567 74.786,303.567 79.01,315.088 "
   id="polygon183" />
					<polygon
   style="opacity:0.2;fill:#ffffff"
   points="63.414,315.088 67.638,303.567 74.786,303.567 79.01,315.088 "
   id="polygon184" />
				</g>
				<polygon
   style="fill:#263238"
   points="67.862,257.532 68.851,249.85 73.574,249.85 74.563,257.532 "
   id="polygon185" />
				<polygon
   style="opacity:0.1;fill:#ffffff"
   points="67.862,257.532 68.851,249.85 73.574,249.85 74.563,257.532 "
   id="polygon186" />
			</g>
			<path
   style="fill:#407bff"
   d="m 74.958,288.5 c -0.591,1.882 -2.282,2.671 -4.061,2.671 -1.779,0 -3.469,-0.79 -4.06,-2.671 -0.835,-2.655 0.816,-5.768 4.06,-5.768 3.244,0 4.895,3.113 4.061,5.768 z"
   id="path186" />
			<path
   style="opacity:0.1"
   d="m 74.958,288.5 c -0.591,1.882 -2.282,2.671 -4.061,2.671 -1.779,0 -3.469,-0.79 -4.06,-2.671 -0.835,-2.655 0.816,-5.768 4.06,-5.768 3.244,0 4.895,3.113 4.061,5.768 z"
   id="path187" />
			<g
   id="g189">
				<path
   style="fill:#407bff"
   d="m 74.942,288.694 c -0.587,1.866 -2.263,2.649 -4.026,2.649 -1.764,0 -3.44,-0.783 -4.026,-2.649 -0.828,-2.632 0.809,-5.72 4.026,-5.72 3.216,0 4.853,3.087 4.026,5.72 z"
   id="path188" />
				<path
   style="opacity:0.1;fill:#ffffff"
   d="m 74.692,287.445 c 0.185,1.1 -0.293,2.229 -1.232,2.831 -0.73,0.468 -1.626,0.681 -2.544,0.681 -0.537,0 -1.066,-0.073 -1.559,-0.226 -0.911,-0.285 -1.595,-1.035 -1.864,-1.951 -0.168,-0.57 -0.238,-1.168 -0.201,-1.762 0.054,-0.847 0.464,-1.811 1.295,-1.966 0.713,-0.13 1.382,0.394 2.103,0.444 0.845,0.056 1.668,-0.544 2.493,-0.349 0.472,0.113 0.853,0.476 1.087,0.901 0.236,0.424 0.34,0.908 0.42,1.386 0.001,0.003 0.002,0.007 0.002,0.011 z"
   id="path189" />
			</g>
			<path
   style="fill:#407bff"
   d="m 72.537,280.661 c 0.324,0.379 0.837,0.545 1.333,0.598 0.649,0.07 1.373,-0.055 1.802,-0.547 0.535,-0.614 0.396,-1.633 -0.174,-2.215 -0.532,-0.542 -1.779,-1.001 -2.488,-0.543 -0.804,0.519 -1.101,1.973 -0.473,2.707 z"
   id="path190" />
			<path
   style="opacity:0.1;fill:#ffffff"
   d="m 72.48,279.865 c -0.06,-0.404 0.307,-0.763 0.7,-0.877 0.392,-0.114 0.811,-0.057 1.219,-0.07 0.15,-0.005 0.306,-0.021 0.433,-0.102 0.126,-0.081 0.212,-0.244 0.159,-0.384 -0.051,-0.137 -0.206,-0.203 -0.347,-0.242 -1.389,-0.39 -2.384,0.195 -2.164,1.675 z"
   id="path191" />
			<path
   style="opacity:0.1;fill:#ffffff"
   d="m 75.275,280.184 c -0.23,0.122 -0.496,0.16 -0.757,0.155 -0.203,-0.004 -0.415,-0.033 -0.605,0.04 -0.19,0.073 -0.342,0.298 -0.25,0.48 0.079,0.157 0.284,0.195 0.46,0.199 0.419,0.01 0.855,-0.066 1.198,-0.307 0.176,-0.123 0.578,-0.534 0.5,-0.788 -0.098,-0.323 -0.377,0.131 -0.546,0.221 z"
   id="path192" />
			<path
   style="fill:#407bff"
   d="m 69.266,260.302 c -1.376,1.154 -1.181,3.365 -0.794,4.171 0.433,0.902 1.045,1.672 1.087,2.672 0.097,2.349 -2.193,4.176 -2.507,6.506 -0.141,1.05 0.189,2.205 1.021,2.86 0.833,0.655 2.011,0.454 2.87,-0.166 2.246,-1.621 -1.912,-7.172 1.365,-9.51 3.691,-2.632 1.202,-10.09 -3.042,-6.533 z"
   id="path193" />
			<path
   style="opacity:0.1;fill:#ffffff"
   d="m 72.272,261.67 c -0.333,0.151 -0.498,0.52 -0.447,0.882 0.154,1.095 -0.194,2.228 -0.602,3.271 -0.459,1.174 -1.008,2.355 -1.026,3.615 -0.018,1.213 0.463,2.411 0.89,3.547 -0.345,-1.555 -0.663,-3.269 -0.131,-4.771 0.31,-0.874 0.912,-1.64 1.686,-2.152 0.73,-0.483 1.425,-2.353 0.929,-3.64 -0.141,-0.364 -0.417,-0.692 -0.79,-0.808 -0.161,-0.049 -0.341,-0.02 -0.509,0.056 z"
   id="path194" />
			<path
   style="opacity:0.1;fill:#ffffff"
   d="m 68.352,270.864 c 1.347,-1.651 1.665,-4.077 0.789,-6.02 -0.195,-0.433 -0.446,-0.847 -0.55,-1.311 -0.104,-0.464 -0.147,-1.259 0.575,-1.372 0.354,-0.056 0.339,0.362 0.356,0.512 0.04,0.35 -0.09,0.681 0.035,1.584 0.122,0.875 0.083,1.123 0.183,2 0.097,0.852 0.111,1.559 -0.124,2.385 -0.235,0.827 -0.582,1.702 -1.264,2.222 z"
   id="path195" />
		</g>
	</g>
</g><g
   id="Character"
   transform="matrix(0.45873967,0,0,0.45873967,-14.605776,-40.634047)">
	<g
   id="g242">
		<g
   id="g218">
			<g
   id="g199">
				<g
   id="g197">
					<path
   style="fill:#ffb573"
   d="m 219.275,225.444 c -0.457,-5.296 -0.848,-10.634 -1.201,-15.943 -0.374,-5.293 -0.68,-10.66 -1.155,-15.764 l -0.022,-0.239 -0.006,-0.082 c 0.006,-0.03 -0.003,-0.08 -0.008,-0.131 -0.009,-0.102 -0.044,-0.242 -0.085,-0.394 -0.091,-0.314 -0.256,-0.701 -0.457,-1.118 -0.41,-0.839 -1.02,-1.769 -1.706,-2.689 -1.4,-1.842 -3.077,-3.721 -4.878,-5.512 -3.592,-3.597 -7.588,-7.127 -11.571,-10.473 l 3.006,-4.731 c 4.993,2.514 9.662,5.346 14.176,8.771 2.232,1.737 4.45,3.567 6.522,5.814 1.037,1.131 2.055,2.344 3.001,3.82 0.473,0.74 0.918,1.551 1.31,2.489 0.193,0.476 0.376,0.971 0.528,1.519 0.076,0.274 0.148,0.55 0.204,0.852 l 0.124,0.672 c 0.495,2.776 0.892,5.463 1.235,8.162 0.36,2.694 0.674,5.381 0.953,8.066 0.572,5.374 1.014,10.727 1.318,16.128 z"
   id="path196" />
				</g>
				<path
   style="fill:#407bff"
   d="m 231.203,234.921 c 3.503,-7.372 2.249,-19.451 2.249,-19.451 l -15.7,-5.741 c 0,0 -1.721,8.059 -0.298,17.537 1.499,9.982 10.213,15.095 13.749,7.655 z"
   id="path197" />
				<path
   style="opacity:0.6"
   d="m 231.203,234.921 c 3.503,-7.372 2.249,-19.451 2.249,-19.451 l -15.7,-5.741 c 0,0 -1.721,8.059 -0.298,17.537 1.499,9.982 10.213,15.095 13.749,7.655 z"
   id="path198" />
				<path
   style="fill:#ffb573"
   d="m 199.414,173.685 -5.107,-1.162 c -2.681,-0.61 -5.768,-6.342 -5.674,-7.549 l 0.357,-0.847 c 1.987,-3.217 3.479,-4.504 5.973,-1.827 0.401,0.43 1.613,1.742 2.584,2.406 1.827,1.247 4.008,3.289 4.585,4.322 z"
   id="path199" />
			</g>
			<path
   style="fill:#407bff"
   d="m 227.482,227.245 c 0,0 13.507,21.187 13.426,65.626 -12.253,2.42 -34.703,6.853 -40.666,8.03 -1.513,-6.187 -5.033,-37.862 -21.553,-65.805 0,0 12.815,-2.607 19.395,-4.239 5.147,-1.276 12.637,-2.928 17.287,-3.413 6.131,-0.64 12.111,-0.199 12.111,-0.199 z"
   id="path200" />
			<path
   style="opacity:0.6"
   d="m 227.482,227.245 c 0,0 13.507,21.187 13.426,65.626 -12.253,2.42 -34.703,6.853 -40.666,8.03 -1.513,-6.187 -5.033,-37.862 -21.553,-65.805 0,0 12.815,-2.607 19.395,-4.239 5.147,-1.276 12.637,-2.928 17.287,-3.413 6.131,-0.64 12.111,-0.199 12.111,-0.199 z"
   id="path201" />
			<g
   id="g205">
				<g
   id="g202">
					<path
   style="fill:#ffb573"
   d="m 185.564,238.335 -4.128,-8.679 c -1.43,-2.987 -2.79,-6.061 -3.995,-9.204 -1.194,-3.155 -2.267,-6.386 -3.127,-9.746 -0.829,-3.375 -1.462,-6.879 -1.512,-10.681 l -0.009,-0.665 0.152,-0.606 c 0.214,-0.855 0.575,-1.499 0.919,-1.982 0.333,-0.459 0.664,-0.789 0.937,-1.031 0.565,-0.492 0.992,-0.74 1.366,-0.95 0.737,-0.397 1.292,-0.599 1.814,-0.781 1.028,-0.343 1.893,-0.553 2.748,-0.739 1.692,-0.362 3.272,-0.598 4.845,-0.806 3.135,-0.41 6.197,-0.668 9.253,-0.904 3.053,-0.242 6.092,-0.431 9.129,-0.589 3.044,-0.172 6.05,-0.329 9.129,-0.441 l 0.255,9.969 c -2.928,0.059 -5.926,0.151 -8.884,0.283 -2.965,0.149 -5.924,0.328 -8.862,0.556 -2.934,0.238 -5.858,0.539 -8.678,0.937 -1.403,0.201 -2.794,0.432 -4.037,0.715 -0.612,0.14 -1.206,0.298 -1.598,0.447 -0.187,0.067 -0.331,0.145 -0.253,0.11 0.045,-0.027 0.154,-0.071 0.439,-0.314 0.132,-0.118 0.335,-0.31 0.556,-0.618 0.237,-0.329 0.511,-0.805 0.677,-1.477 l 0.143,-1.271 c 0.093,2.599 0.633,5.425 1.4,8.236 0.787,2.82 1.798,5.646 2.974,8.43 1.185,2.788 2.492,5.532 3.936,8.257 l 4.514,8.447 z"
   id="path202" />
				</g>
				<path
   style="fill:#ffb573"
   d="m 209.747,196.568 2.397,4.657 c 1.258,2.445 4.326,3.309 6.676,1.882 v 0 c 3.127,-1.9 3.014,-6.472 -0.2,-8.221 -1.61,-0.876 -3.357,-1.664 -5.04,-2.109 z"
   id="path203" />
				<path
   style="fill:#407bff"
   d="m 181.453,240.027 c -5.956,-8.409 -6.491,-14.487 -6.491,-14.487 l 12.63,-11.626 c 0,0 5.071,9.745 8.051,17.528 3.588,9.37 -9.596,15.07 -14.19,8.585 z"
   id="path204" />
				<path
   style="opacity:0.6"
   d="m 181.453,240.027 c -5.956,-8.409 -6.491,-14.487 -6.491,-14.487 l 12.63,-11.626 c 0,0 5.071,9.745 8.051,17.528 3.588,9.37 -9.596,15.07 -14.19,8.585 z"
   id="path205" />
			</g>
			<path
   style="fill:#ffb573"
   d="m 195.954,211.054 c 2.189,5.347 5.289,15.323 2.131,19.803 3.356,0.704 6.63,1.764 9.828,3.15 4.199,1.82 8.791,-2.094 7.484,-6.48 l -0.025,-0.084 c -6.495,-0.256 -7.243,-4.89 -7.016,-9.425 z"
   id="path206" />
			<path
   style="opacity:0.2"
   d="m 201.01,213.897 7.339,4.119 c -0.057,1.074 -0.054,2.151 0.073,3.174 -2.437,0.125 -6.206,-1.833 -6.947,-4.264 -0.37,-1.214 -0.553,-2.413 -0.465,-3.029 z"
   id="path207" />
			<path
   style="fill:#263238"
   d="m 209.954,188.219 c 6.191,1.29 6.452,14.73 4.147,16.523 -4.311,3.356 -11.825,-18.122 -4.147,-16.523 z"
   id="path208" />
			<path
   style="fill:#ffb573"
   d="m 193.639,202.814 c 1.95,7.44 2.713,11.894 7.28,15.008 6.87,4.685 15.485,-0.6 15.798,-8.472 0.281,-7.086 -2.954,-18.063 -10.918,-19.604 -7.847,-1.519 -14.11,5.628 -12.16,13.068 z"
   id="path209" />
			<g
   id="g210">
				<path
   style="fill:#263238"
   d="m 186.367,198.101 c 0.685,4.466 8.016,15.276 11.122,14.372 3.106,-0.904 2.626,-8.474 -0.192,-14.372 z"
   id="path210" />
			</g>
			<path
   style="fill:#263238"
   d="m 189.469,189.66 c -0.68,-0.848 -0.594,-2.149 0.031,-3.038 0.624,-0.889 1.684,-1.398 2.757,-1.572 1.073,-0.173 2.17,-0.047 3.244,0.113 0.671,0.1 1.512,0.139 1.857,-0.445 0.217,-0.367 0.129,-0.828 0.147,-1.255 0.057,-1.306 1.241,-2.382 2.532,-2.591 1.29,-0.209 2.614,0.309 3.647,1.11 1.033,0.801 1.933,1.951 2.712,3.001 0.518,-0.436 1.288,-0.474 1.925,-0.242 0.637,0.232 1.161,0.694 1.628,1.186 1.001,1.055 1.822,2.333 2.081,3.764 0.003,0.014 0.005,0.029 0.008,0.043 0.337,1.957 -1.128,3.736 -3.089,4.049 -1.429,0.228 -2.821,0.79 -4.128,1.435 -1.879,0.927 -3.675,2.048 -5.66,2.715 -2.796,0.941 -5.811,0.934 -8.761,0.917 -1.447,-0.008 -2.967,-0.035 -4.224,-0.752 -1.782,-1.017 -2.603,-3.418 -1.87,-5.334 0.732,-1.916 3.131,-3.387 5.163,-3.104 z"
   id="path211" />
			<path
   style="fill:#ffb573"
   d="m 191.877,211.788 c 1.41,1.52 3.391,2.248 5.095,2.284 2.563,0.055 3.21,-2.391 1.967,-4.477 -1.119,-1.878 -3.801,-4.17 -6.118,-3.229 -2.283,0.927 -2.557,3.683 -0.944,5.422 z"
   id="path212" />
			<path
   style="fill:#263238"
   d="m 210.669,212.013 c 0.121,0.613 0.544,1.046 0.945,0.967 0.401,-0.079 0.628,-0.64 0.507,-1.254 -0.121,-0.613 -0.544,-1.046 -0.945,-0.967 -0.402,0.079 -0.628,0.641 -0.507,1.254 z"
   id="path213" />
			<path
   style="fill:#263238"
   d="m 212.41,201.295 c 0.121,0.613 0.544,1.046 0.945,0.967 0.401,-0.079 0.628,-0.64 0.506,-1.254 -0.121,-0.613 -0.544,-1.046 -0.945,-0.967 -0.4,0.079 -0.627,0.641 -0.506,1.254 z"
   id="path214" />
			<path
   style="fill:#ed893e"
   d="m 210.267,202.035 c 0,0 2.093,3.262 3.965,4.666 -0.885,1.227 -2.821,1.128 -2.821,1.128 z"
   id="path215" />
			<path
   style="fill:#263238"
   d="m 203.783,202.25 c -0.085,0.033 -0.134,0.126 -0.111,0.216 0.025,0.098 0.125,0.158 0.223,0.132 2.659,-0.681 3.719,0.627 3.736,0.643 0.074,0.069 0.19,0.064 0.259,-0.011 0.069,-0.075 0.064,-0.191 -0.011,-0.259 -0.076,-0.07 -1.226,-1.458 -4.075,-0.728 -0.007,0.002 -0.014,0.004 -0.021,0.007 z"
   id="path216" />
			<path
   style="fill:#263238"
   d="m 202.991,200.829 c 0.091,-0.03 0.171,-0.095 0.216,-0.188 0.709,-1.457 2.016,-1.651 2.071,-1.658 0.199,-0.026 0.342,-0.211 0.315,-0.411 -0.026,-0.2 -0.208,-0.342 -0.409,-0.317 -0.071,0.009 -1.75,0.24 -2.638,2.065 -0.089,0.183 -0.013,0.402 0.169,0.491 0.091,0.043 0.189,0.047 0.276,0.018 z"
   id="path217" />
			<path
   style="fill:#263238"
   d="m 215.168,198.051 c 0.035,-0.018 0.068,-0.043 0.096,-0.073 0.139,-0.147 0.133,-0.38 -0.014,-0.519 -1.475,-1.396 -3.127,-1.02 -3.197,-1.003 -0.198,0.049 -0.319,0.246 -0.272,0.443 0.047,0.197 0.245,0.318 0.441,0.272 0.06,-0.013 1.348,-0.29 2.523,0.822 0.118,0.109 0.288,0.128 0.423,0.058 z"
   id="path218" />
		</g>
		<g
   id="g222">
			<path
   style="fill:#263238"
   d="m 281.125,307.142 c 0,0 3.609,13.228 -0.168,19.141 -3.777,5.913 -13.079,4.766 -13.079,4.766 0,0 -9.358,-20.809 13.247,-23.907 z"
   id="path219" />
			<path
   style="fill:#407bff"
   d="m 281.125,307.142 c 0,0 3.609,13.228 -0.168,19.141 -3.777,5.913 -13.079,4.766 -13.079,4.766 0,0 -9.358,-20.809 13.247,-23.907 z"
   id="path220" />
			<path
   style="opacity:0.4"
   d="m 281.125,307.142 c 0,0 3.609,13.228 -0.168,19.141 -3.777,5.913 -13.079,4.766 -13.079,4.766 0,0 -9.358,-20.809 13.247,-23.907 z"
   id="path221" />
			<path
   style="fill:#ffb573"
   d="m 238.365,319.033 36.649,8.116 9.154,2.026 4.576,1.013 1.133,0.249 0.572,0.108 c 0.292,0.06 0.587,0.155 0.884,0.268 0.298,0.113 0.594,0.256 0.885,0.423 0.77,0.523 1.54,1.014 2.279,1.467 1.478,0.912 2.82,1.677 3.773,2.343 0.397,0.26 1.087,0.786 1.711,1.247 0.632,0.464 1.258,0.937 1.876,1.421 1.246,0.954 2.46,1.95 3.692,2.923 2.444,1.971 4.966,3.849 7.582,5.575 l 7.837,5.107 c 5.215,3.418 10.478,6.77 15.719,10.151 10.511,6.722 21.089,13.349 31.769,19.829 l 5.39,-7.475 c -9.515,-8.082 -19.134,-16.017 -28.819,-23.857 -4.857,-3.9 -9.692,-7.829 -14.575,-11.692 l -7.31,-5.814 c -2.409,-1.947 -4.894,-3.765 -7.469,-5.478 -1.276,-0.87 -2.569,-1.717 -3.831,-2.607 -0.636,-0.438 -1.264,-0.886 -1.886,-1.344 l -0.936,-0.681 -0.515,-0.398 -0.595,-0.443 c -1.584,-1.138 -2.892,-2.009 -3.996,-2.835 -0.553,-0.414 -1.061,-0.812 -1.544,-1.212 -0.964,-0.753 -1.991,-1.438 -3.076,-2.039 -1.084,-0.602 -2.229,-1.114 -3.417,-1.534 -0.296,-0.107 -0.597,-0.203 -0.899,-0.297 l -0.775,-0.226 -1.119,-0.364 -4.428,-1.459 -8.854,-2.917 -35.382,-11.656 z"
   id="path222" />
		</g>
		<path
   style="fill:#263238"
   d="m 241.324,296.035 38.765,11.713 -0.334,0.307 c -7.608,1.028 -12.548,15.509 -11.185,22.886 v 0 c 0,0 -26.82,2.418 -34.703,-5.743 -7.883,-8.16 -10.498,-27.108 -10.498,-27.108 z"
   id="path223" />
		<path
   style="fill:#407bff"
   d="m 241.324,296.035 38.765,11.713 -0.334,0.307 c -7.608,1.028 -12.548,15.509 -11.185,22.886 v 0 c 0,0 -26.82,2.418 -34.703,-5.743 -7.883,-8.16 -10.498,-27.108 -10.498,-27.108 z"
   id="path224" />
		<path
   style="opacity:0.1"
   d="m 241.324,296.035 38.765,11.713 -0.334,0.307 c -7.608,1.028 -12.548,15.509 -11.185,22.886 v 0 c 0,0 -26.82,2.418 -34.703,-5.743 -7.883,-8.16 -10.498,-27.108 -10.498,-27.108 z"
   id="path225" />
		<g
   id="g226">
			<path
   style="fill:#407bff"
   d="m 276.12,305.075 5.159,2.246 c -5.883,5.647 -8.989,9.608 -9.638,17.569 -0.227,2.787 0.032,5.504 0.955,7.874 0,0 -2.659,-0.269 -6.197,-0.576 l -0.283,-4.231 c -0.028,-0.419 -0.046,-0.838 -0.055,-1.257 -0.158,-7.549 3.062,-14.778 8.458,-20.058 z"
   id="path226" />
		</g>
		<g
   style="opacity:0.2"
   id="g227">
			<path
   style="fill:#ffffff"
   d="m 276.12,305.075 5.159,2.246 c -5.883,5.647 -8.989,9.608 -9.638,17.569 -0.227,2.787 0.032,5.504 0.955,7.874 0,0 -2.659,-0.269 -6.197,-0.576 l -0.283,-4.231 c -0.028,-0.419 -0.046,-0.838 -0.055,-1.257 -0.158,-7.549 3.062,-14.778 8.458,-20.058 z"
   id="path227" />
		</g>
		<path
   style="fill:#407bff"
   d="m 199.945,303.474 42.184,-7.175 -0.643,-5.852 v 0 c -10.923,3.266 -25.521,5.024 -30.887,5.549 l -11.312,1.083 z"
   id="path228" />
		<path
   style="opacity:0.2;fill:#ffffff"
   d="m 199.945,303.474 42.184,-7.175 -0.643,-5.852 v 0 c -10.923,3.266 -25.521,5.024 -30.887,5.549 l -11.312,1.083 z"
   id="path229" />
		<g
   id="g241">
			<g
   id="g232">
				<path
   style="fill:#263238"
   d="m 268.205,315.628 c 0,0 2.999,12.273 -0.778,18.186 -3.777,5.913 -7.905,7.256 -7.905,7.256 0,0 -13.921,-22.343 8.683,-25.442 z"
   id="path230" />
				<path
   style="fill:#407bff"
   d="m 268.205,315.628 c 0,0 2.999,12.273 -0.778,18.186 -3.777,5.913 -7.905,7.256 -7.905,7.256 0,0 -13.921,-22.343 8.683,-25.442 z"
   id="path231" />
				<path
   style="opacity:0.4"
   d="m 268.205,315.628 c 0,0 2.999,12.273 -0.778,18.186 -3.777,5.913 -7.905,7.256 -7.905,7.256 0,0 -13.921,-22.343 8.683,-25.442 z"
   id="path232" />
			</g>
			<path
   style="fill:#ffb573"
   d="m 211.935,329.285 37.483,7.054 18.742,3.527 1.928,0.347 c 0.461,0.089 0.921,0.197 1.378,0.327 0.913,0.262 1.804,0.645 2.615,1.16 0.205,0.135 0.385,0.26 0.606,0.426 l 0.168,0.125 0.234,0.184 0.467,0.369 c 0.619,0.498 1.257,0.971 1.86,1.489 1.228,1.008 2.422,2.06 3.62,3.109 2.387,2.107 4.812,4.166 7.4,6.011 2.61,1.816 5.273,3.544 7.906,5.32 5.265,3.551 10.595,7.016 15.913,10.498 10.688,6.895 21.417,13.734 32.438,20.191 l 5.714,-7.507 c -9.158,-8.904 -18.606,-17.426 -28.097,-25.893 -4.771,-4.199 -9.531,-8.414 -14.355,-12.544 -2.411,-2.064 -4.793,-4.176 -7.228,-6.201 -2.457,-1.995 -5.077,-3.777 -7.734,-5.51 -1.325,-0.871 -2.653,-1.739 -3.947,-2.651 -0.658,-0.442 -1.281,-0.929 -1.923,-1.392 l -1.024,-0.76 c -0.409,-0.315 -0.874,-0.652 -1.325,-0.961 -1.809,-1.27 -3.715,-2.413 -5.721,-3.386 -1.002,-0.487 -2.032,-0.925 -3.084,-1.307 l -2.656,-0.915 -18.032,-6.207 -36.064,-12.415 z"
   id="path233" />
			<g
   id="g235">
				<g
   id="g234">
					<path
   style="fill:#ffb573"
   d="m 348.448,381.54 -5.578,5.921 c -0.264,0.259 -0.314,0.668 -0.118,0.982 l 4.36,7.005 c 0.452,0.727 1.475,0.831 2.075,0.222 2.495,-2.531 3.582,-3.889 6.779,-7.023 1.967,-1.928 7.384,-7.29 10.1,-9.953 2.656,-2.604 0.438,-5.696 -0.912,-4.849 -6.055,3.796 -12.263,6.933 -15.266,7.063 -0.541,0.024 -1.053,0.253 -1.44,0.632 z"
   id="path234" />
				</g>
			</g>
			<g
   id="g237">
				<g
   id="g236">
					<path
   style="fill:#ffb573"
   d="m 373.089,373.864 -5.578,5.921 c -0.264,0.259 -0.313,0.668 -0.118,0.982 l 4.36,7.005 c 0.452,0.727 1.475,0.831 2.075,0.222 2.495,-2.531 3.582,-3.889 6.78,-7.023 1.967,-1.928 7.384,-7.29 10.1,-9.953 2.656,-2.604 0.438,-5.696 -0.912,-4.849 -6.055,3.796 -12.263,6.933 -15.266,7.063 -0.542,0.024 -1.053,0.253 -1.441,0.632 z"
   id="path235" />
				</g>
			</g>
			<g
   id="g238">
				<path
   style="fill:#407bff"
   d="m 261.504,313.552 4.919,1.847 v 0 c -5.575,4.12 -9.01,10.616 -8.973,17.548 0.014,2.615 0.421,5.156 1.284,7.371 v 0 c 0,0 -46.893,-3.085 -54.776,-11.245 -7.883,-8.16 -4.011,-25.599 -4.011,-25.599 l 28.642,-4.872 2.578,2.709 c 6.655,4.992 11.67,6.419 19.646,8.786 z"
   id="path237" />
			</g>
			<g
   id="g239">
				<path
   style="fill:#407bff"
   d="m 263.047,313.382 5.159,2.246 c -5.883,5.648 -8.989,9.609 -9.638,17.569 -0.227,2.787 0.032,5.504 0.955,7.874 0,0 -2.659,-0.269 -6.197,-0.576 l -0.283,-4.231 c -0.028,-0.419 -0.046,-0.838 -0.055,-1.257 -0.159,-7.549 3.062,-14.778 8.458,-20.058 z"
   id="path238" />
			</g>
			<g
   style="opacity:0.4"
   id="g240">
				<path
   style="fill:#ffffff"
   d="m 263.047,313.382 5.159,2.246 c -5.883,5.648 -8.989,9.609 -9.638,17.569 -0.227,2.787 0.032,5.504 0.955,7.874 0,0 -2.659,-0.269 -6.197,-0.576 l -0.283,-4.231 c -0.028,-0.419 -0.046,-0.838 -0.055,-1.257 -0.159,-7.549 3.062,-14.778 8.458,-20.058 z"
   id="path239" />
			</g>
		</g>
	</g>
</g></svg>
