<?xml version="1.0" encoding="UTF-8" standalone="no"?>
<!-- Generator: Adobe Illustrator 27.5.0, SVG Export Plug-In . SVG Version: 6.00 Build 0)  -->

<svg
   version="1.1"
   x="0px"
   y="0px"
   viewBox="0 0 199 155"
   xml:space="preserve"
   id="svg247"
   sodipodi:docname="reportes.svg"
   inkscape:version="1.3 (0e150ed6c4, 2023-07-21)"
   width="199"
   height="155"
   xmlns:inkscape="http://www.inkscape.org/namespaces/inkscape"
   xmlns:sodipodi="http://sodipodi.sourceforge.net/DTD/sodipodi-0.dtd"
   xmlns="http://www.w3.org/2000/svg"
   xmlns:svg="http://www.w3.org/2000/svg"><defs
   id="defs247" /><sodipodi:namedview
   id="namedview247"
   pagecolor="#ffffff"
   bordercolor="#000000"
   borderopacity="0.25"
   inkscape:showpageshadow="2"
   inkscape:pageopacity="0.0"
   inkscape:pagecheckerboard="true"
   inkscape:deskcolor="#d1d1d1"
   inkscape:zoom="3.284"
   inkscape:cx="157.27771"
   inkscape:cy="87.241169"
   inkscape:window-width="2560"
   inkscape:window-height="1017"
   inkscape:window-x="1912"
   inkscape:window-y="-8"
   inkscape:window-maximized="1"
   inkscape:current-layer="svg247" />&#10;&#10;<g
   id="Background_Simple"
   style="display:none">&#10;	<g
   style="display:inline"
   id="g41">&#10;		<path
   style="fill:#407bff"
   d="m 241.936,74.075 c 7.832,-1.91 16.622,-1.622 26.341,1.643 15.617,5.247 27.043,19.004 34.173,33.856 13.796,28.739 17.651,60.899 27.547,90.911 2.714,8.23 5.923,16.453 11.228,23.305 22.071,28.507 82.754,12.137 82.176,62.137 -0.163,14.13 -7.771,27.655 -18.876,36.394 -32.69,25.724 -78.654,11.019 -113.588,-0.656 -32.732,-10.939 -61.068,-12.275 -93.872,0.819 -27.802,11.097 -56.895,29.991 -88.174,24.881 -31.807,-5.197 -46.032,-36.584 -40.707,-66.182 5.677,-31.551 30.416,-54.82 58.857,-67.405 16.966,-7.508 39.284,-12.096 52.582,-25.755 6.83,-7.015 9.803,-16.855 11.975,-26.402 3.458,-15.205 5.5,-30.795 10.651,-45.513 6.453,-18.439 19.682,-37.153 39.687,-42.033 z"
   id="path40" />&#10;		<path
   style="opacity:0.9;fill:#ffffff"
   d="m 241.936,74.075 c 7.832,-1.91 16.622,-1.622 26.341,1.643 15.617,5.247 27.043,19.004 34.173,33.856 13.796,28.739 17.651,60.899 27.547,90.911 2.714,8.23 5.923,16.453 11.228,23.305 22.071,28.507 82.754,12.137 82.176,62.137 -0.163,14.13 -7.771,27.655 -18.876,36.394 -32.69,25.724 -78.654,11.019 -113.588,-0.656 -32.732,-10.939 -61.068,-12.275 -93.872,0.819 -27.802,11.097 -56.895,29.991 -88.174,24.881 -31.807,-5.197 -46.032,-36.584 -40.707,-66.182 5.677,-31.551 30.416,-54.82 58.857,-67.405 16.966,-7.508 39.284,-12.096 52.582,-25.755 6.83,-7.015 9.803,-16.855 11.975,-26.402 3.458,-15.205 5.5,-30.795 10.651,-45.513 6.453,-18.439 19.682,-37.153 39.687,-42.033 z"
   id="path41" />&#10;	</g>&#10;</g>&#10;&#10;&#10;&#10;&#10;&#10;<g
   id="Shadow_1_"
   transform="matrix(0.48145925,0,0,0.48145925,-19.757136,-52.970239)">&#10;	<ellipse
   id="_x3C_Path_x3E__359_"
   style="fill:#f5f5f5"
   cx="250"
   cy="416.23801"
   rx="193.88901"
   ry="11.323" />&#10;</g><g
   id="Plant"
   transform="matrix(0.48145925,0,0,0.48145925,-19.757136,-52.970239)">&#10;	<g
   id="g137">&#10;		<path
   style="fill:none;stroke:#407bff;stroke-width:0.5;stroke-linecap:round;stroke-linejoin:round;stroke-miterlimit:10"
   d="m 96.191,310.745 c 0,0 -0.445,0.954 -1.329,1.286"
   id="path31" />&#10;		<path
   style="fill:none;stroke:#407bff;stroke-width:0.5;stroke-linecap:round;stroke-linejoin:round;stroke-miterlimit:10"
   d="m 88.965,306.064 c 0,0 1.269,1.957 0.418,2.553"
   id="path32" />&#10;		&#10;			<line
   style="fill:none;stroke:#407bff;stroke-width:0.5;stroke-linecap:round;stroke-linejoin:round;stroke-miterlimit:10"
   x1="81.723"
   y1="305.72299"
   x2="82.319"
   y2="308.34"
   id="line32" />&#10;		<g
   id="g42">&#10;			<path
   style="fill:#407bff"
   d="m 95.912,371.35 c 0,0 7.753,-9.228 12.715,-4.924 4.962,4.304 2.452,13.433 -3.271,13.727 -5.723,0.294 -9.445,-2.885 -9.445,-2.885 v -5.918 z"
   id="path33" />&#10;			<path
   style="opacity:0.4;fill:#ffffff;enable-background:new"
   d="m 95.912,371.35 c 0,0 7.753,-9.228 12.715,-4.924 4.962,4.304 2.452,13.433 -3.271,13.727 -5.723,0.294 -9.445,-2.885 -9.445,-2.885 v -5.918 z"
   id="path34" />&#10;			<path
   style="fill:#407bff"
   d="m 64.279,347.947 c 0,0 -6.513,-6.822 -10.544,-5.665 -4.032,1.157 -3.612,17.455 8.893,10.856 z"
   id="path35" />&#10;			<path
   style="opacity:0.5;fill:#ffffff;enable-background:new"
   d="m 64.279,347.947 c 0,0 -6.513,-6.822 -10.544,-5.665 -4.032,1.157 -3.612,17.455 8.893,10.856 z"
   id="path36" />&#10;			<path
   style="fill:#407bff"
   d="m 87.538,398.84 c 0,0 21.398,-29.274 4.032,-35.205 -17.366,-5.931 -20.468,23.553 -15.506,31.76 4.962,8.208 11.474,3.445 11.474,3.445 z"
   id="path37" />&#10;			<path
   style="fill:#407bff"
   d="m 77.614,338.906 c 0,0 -13.274,-30.82 6.388,-31.751 19.662,-0.93 21.804,30.56 -0.821,35.128 z"
   id="path38" />&#10;			<path
   style="opacity:0.5;fill:#ffffff;enable-background:new"
   d="m 87.538,398.84 c 0,0 21.398,-29.274 4.032,-35.205 -17.366,-5.931 -20.468,23.553 -15.506,31.76 4.962,8.208 11.474,3.445 11.474,3.445 z"
   id="path39" />&#10;			<path
   style="opacity:0.5;fill:#ffffff;enable-background:new"
   d="m 77.614,338.906 c 0,0 -13.274,-30.82 6.388,-31.751 19.662,-0.93 21.804,30.56 -0.821,35.128 z"
   id="path40-7" />&#10;			<path
   style="fill:#407bff"
   d="m 82.324,364.14 c 0,0 6.455,-27.213 -5.95,-29.384 -12.405,-2.171 -24.65,22.417 1.01,34.778 0,0 4.402,-2.731 4.94,-5.394 z"
   id="path41-4" />&#10;			<path
   style="opacity:0.4;fill:#ffffff;enable-background:new"
   d="m 82.324,364.14 c 0,0 6.455,-27.213 -5.95,-29.384 -12.405,-2.171 -24.65,22.417 1.01,34.778 0,0 4.402,-2.731 4.94,-5.394 z"
   id="path42" />&#10;		</g>&#10;		<g
   id="g43">&#10;			<polygon
   style="fill:#263238"
   points="99.942,417.675 102.942,394.689 67.014,394.689 70.014,417.675 "
   id="polygon42" />&#10;		</g>&#10;		<g
   style="opacity:0.2"
   id="g44">&#10;			<path
   d="m 84.255,336.703 c 0.852,-0.781 1.641,-1.625 2.382,-2.507 0.759,-0.864 1.469,-1.772 2.125,-2.714 1.319,-1.878 2.461,-3.88 3.288,-6.011 0.877,-2.117 1.295,-4.391 1.402,-6.666 v -1.716 c -0.06,-0.568 -0.156,-1.133 -0.229,-1.702 -0.038,-0.284 -0.065,-0.572 -0.113,-0.855 l -0.228,-0.831 -0.458,-1.67 c 0.811,2.149 1.498,4.427 1.414,6.781 -0.028,2.329 -0.462,4.668 -1.321,6.841 -0.883,2.161 -2.042,4.203 -3.445,6.056 -1.406,1.849 -3.006,3.554 -4.817,4.994 z"
   id="path43" />&#10;		</g>&#10;		<g
   style="opacity:0.2"
   id="g45">&#10;			<path
   d="m 88.965,310.255 c -2.14,0.693 -4.065,1.928 -5.663,3.46 -1.601,1.536 -2.851,3.411 -3.694,5.458 l -0.577,1.559 c -0.175,0.525 -0.268,1.076 -0.407,1.614 -0.322,1.07 -0.324,2.197 -0.506,3.297 -0.086,1.11 -0.065,2.231 -0.098,3.35 l 0.213,3.36 -0.458,-3.348 c -0.019,-1.126 -0.082,-2.258 -0.042,-3.388 l 0.16,-1.692 c 0.033,-0.568 0.152,-1.123 0.285,-1.676 0.134,-0.552 0.223,-1.116 0.395,-1.658 l 0.572,-1.61 c 0.903,-2.088 2.193,-4.031 3.896,-5.548 0.829,-0.78 1.791,-1.403 2.767,-1.972 1.011,-0.514 2.059,-0.956 3.157,-1.206 z"
   id="path44" />&#10;		</g>&#10;		<g
   style="opacity:0.2"
   id="g46">&#10;			<path
   d="m 73.928,336.703 c -1.384,0.626 -2.594,1.588 -3.6,2.7 -1.018,1.106 -1.827,2.395 -2.387,3.782 -1.08,2.767 -1.549,5.904 -0.594,8.751 0.373,1.448 1.068,2.796 1.771,4.12 0.774,1.291 1.609,2.548 2.542,3.738 0.913,1.204 1.911,2.344 2.951,3.446 1.028,1.113 2.106,2.183 3.245,3.187 -2.378,-1.89 -4.576,-4.022 -6.497,-6.394 -1.918,-2.362 -3.604,-4.989 -4.491,-7.957 -0.26,-0.729 -0.33,-1.508 -0.46,-2.27 -0.055,-0.383 -0.018,-0.776 -0.03,-1.163 -0.003,-0.389 -0.013,-0.778 0.057,-1.157 0.135,-1.531 0.543,-3.041 1.155,-4.45 1.222,-2.819 3.506,-5.201 6.338,-6.333 z"
   id="path45" />&#10;		</g>&#10;		<g
   style="opacity:0.2"
   id="g47">&#10;			<path
   d="m 77.615,338.906 c -0.439,2.067 -0.726,4.166 -0.803,6.261 -0.033,1.047 -0.006,2.096 0.141,3.122 0.138,1.024 0.421,2.041 0.964,2.887 0.566,0.886 1.054,1.911 1.304,2.951 0.261,1.045 0.397,2.111 0.443,3.176 0.096,2.131 -0.1,4.256 -0.499,6.334 0.123,-1.05 0.177,-2.106 0.193,-3.159 0.026,-1.052 0.019,-2.106 -0.078,-3.15 -0.175,-2.083 -0.573,-4.176 -1.786,-5.886 -0.586,-0.947 -0.862,-2.026 -0.991,-3.09 -0.13,-1.067 -0.168,-2.142 -0.074,-3.204 0.146,-2.127 0.568,-4.219 1.186,-6.242 z"
   id="path46" />&#10;		</g>&#10;		<g
   style="opacity:0.2"
   id="g48">&#10;			<path
   d="m 86.343,366.427 c -0.516,0.228 -0.872,0.681 -1.18,1.129 -0.314,0.452 -0.549,0.954 -0.781,1.452 -0.452,1.005 -0.814,2.051 -1.131,3.11 -0.631,2.119 -1.156,4.272 -1.589,6.445 -0.473,2.165 -0.851,4.35 -1.218,6.537 -0.185,1.093 -0.355,2.19 -0.509,3.288 -0.166,1.097 -0.326,2.196 -0.412,3.304 0.018,-2.226 0.258,-4.443 0.54,-6.649 0.289,-2.206 0.672,-4.399 1.109,-6.583 0.476,-2.175 0.997,-4.345 1.713,-6.46 0.365,-1.055 0.769,-2.099 1.276,-3.098 0.273,-0.489 0.548,-0.98 0.902,-1.418 0.348,-0.433 0.747,-0.868 1.28,-1.057 z"
   id="path47" />&#10;		</g>&#10;		<g
   style="opacity:0.2"
   id="g49">&#10;			<path
   d="m 92.423,367.371 c 0.855,1.892 1.349,3.944 1.585,6.016 0.233,2.077 0.117,4.193 -0.286,6.248 -0.433,2.045 -1.144,4.053 -2.243,5.835 -0.492,0.926 -1.157,1.736 -1.787,2.565 -0.299,0.427 -0.699,0.771 -1.055,1.148 l -1.099,1.101 c 1.348,-1.574 2.676,-3.164 3.606,-5.003 0.521,-0.886 0.893,-1.842 1.284,-2.788 0.184,-0.477 0.3,-0.978 0.454,-1.465 0.164,-0.486 0.264,-0.987 0.351,-1.492 0.433,-1.999 0.541,-4.066 0.394,-6.114 -0.155,-2.047 -0.543,-4.088 -1.204,-6.051 z"
   id="path48" />&#10;		</g>&#10;		<g
   style="opacity:0.2"
   id="g50">&#10;			<path
   d="m 59.228,351.271 c -0.571,0.139 -1.165,0.148 -1.752,0.097 -0.59,-0.049 -1.172,-0.202 -1.727,-0.428 -0.553,-0.232 -1.064,-0.577 -1.484,-1.006 -0.434,-0.419 -0.726,-0.958 -0.919,-1.505 0.377,0.45 0.724,0.89 1.176,1.219 0.444,0.328 0.908,0.627 1.423,0.832 1.021,0.434 2.129,0.655 3.283,0.791 z"
   id="path49" />&#10;		</g>&#10;		<g
   style="opacity:0.2"
   id="g51">&#10;			<path
   d="m 60.558,346.773 c -0.492,-0.329 -0.983,-0.637 -1.488,-0.905 -0.51,-0.257 -1.02,-0.509 -1.559,-0.649 -0.534,-0.154 -1.082,-0.21 -1.632,-0.167 -0.554,0.054 -1.071,0.288 -1.601,0.558 0.4,-0.432 0.922,-0.792 1.533,-0.936 0.606,-0.147 1.246,-0.096 1.837,0.065 0.592,0.168 1.136,0.454 1.623,0.804 0.486,0.35 0.935,0.749 1.287,1.23 z"
   id="path50" />&#10;		</g>&#10;		<g
   style="opacity:0.2"
   id="g52">&#10;			<path
   d="m 99.454,372.728 c 0.438,-0.712 0.98,-1.355 1.572,-1.95 0.592,-0.596 1.264,-1.12 2.002,-1.547 0.735,-0.418 1.578,-0.742 2.462,-0.712 0.882,0.007 1.714,0.408 2.285,1.015 -0.709,-0.448 -1.491,-0.698 -2.274,-0.631 -0.782,0.057 -1.537,0.359 -2.227,0.763 -1.401,0.796 -2.628,1.906 -3.82,3.062 z"
   id="path51" />&#10;		</g>&#10;		<g
   style="opacity:0.2"
   id="g53">&#10;			<path
   d="m 99.454,377.268 c 1.957,0.101 3.909,0.124 5.8,-0.189 0.946,-0.141 1.864,-0.436 2.671,-0.907 0.808,-0.474 1.426,-1.239 1.725,-2.186 -0.085,0.481 -0.193,0.976 -0.471,1.409 -0.103,0.239 -0.298,0.406 -0.467,0.597 -0.163,0.202 -0.361,0.359 -0.574,0.5 -0.829,0.594 -1.818,0.921 -2.8,1.079 -0.986,0.156 -1.982,0.203 -2.969,0.142 -0.984,-0.058 -1.964,-0.192 -2.915,-0.445 z"
   id="path52" />&#10;		</g>&#10;		<path
   style="fill:none;stroke:#407bff;stroke-width:0.5;stroke-linecap:round;stroke-linejoin:round;stroke-miterlimit:10"
   d="m 77.383,304.183 c 0,0 0.638,2.945 2.808,5.243"
   id="path53" />&#10;		<path
   style="fill:none;stroke:#407bff;stroke-width:0.5;stroke-linecap:round;stroke-linejoin:round;stroke-miterlimit:10"
   d="m 76.106,315.596 c 0,0 -2.468,-1.106 -4.425,-0.511"
   id="path54" />&#10;		&#10;			<line
   style="fill:none;stroke:#407bff;stroke-width:0.5;stroke-linecap:round;stroke-linejoin:round;stroke-miterlimit:10"
   x1="74.319"
   y1="320.53201"
   x2="71.681"
   y2="321.72299"
   id="line54" />&#10;		&#10;			<line
   style="fill:none;stroke:#407bff;stroke-width:0.5;stroke-linecap:round;stroke-linejoin:round;stroke-miterlimit:10"
   x1="74.745003"
   y1="327"
   x2="71.681"
   y2="327.42599"
   id="line55" />&#10;		<path
   style="fill:none;stroke:#407bff;stroke-width:0.5;stroke-linecap:round;stroke-linejoin:round;stroke-miterlimit:10"
   d="m 86.147,308.617 c 0,0 -0.12,-2.809 0.196,-3.66"
   id="path55" />&#10;		<path
   style="fill:none;stroke:#407bff;stroke-width:0.5;stroke-linecap:round;stroke-linejoin:round;stroke-miterlimit:10"
   d="m 93.043,306.787 c 0,0 0.17,2.426 -0.766,3.106"
   id="path56" />&#10;		<path
   style="fill:none;stroke:#407bff;stroke-width:0.5;stroke-linecap:round;stroke-linejoin:round;stroke-miterlimit:10"
   d="m 99.454,312.957 c 0,0 -2.922,1.191 -3.858,1.191"
   id="path57" />&#10;		<path
   style="fill:none;stroke:#407bff;stroke-width:0.5;stroke-linecap:round;stroke-linejoin:round;stroke-miterlimit:10"
   d="m 101.522,322.745 c 0,0 -2.835,-0.681 -3.998,-0.681"
   id="path58" />&#10;		<path
   style="fill:none;stroke:#407bff;stroke-width:0.5;stroke-linecap:round;stroke-linejoin:round;stroke-miterlimit:10"
   d="m 98.366,332.354 c 0,0 -0.643,-0.163 -2.175,-1.014"
   id="path59" />&#10;		<path
   style="fill:none;stroke:#407bff;stroke-width:0.5;stroke-linecap:round;stroke-linejoin:round;stroke-miterlimit:10"
   d="m 93.675,339.431 c 0,0 -0.122,-1.623 -2.165,-2.133"
   id="path60" />&#10;		<path
   style="fill:none;stroke:#407bff;stroke-width:0.5;stroke-linecap:round;stroke-linejoin:round;stroke-miterlimit:10"
   d="m 88.411,343 c 0,0 -1.447,-1.106 -2.067,-2.213"
   id="path61" />&#10;		<path
   style="fill:none;stroke:#407bff;stroke-width:0.5;stroke-linecap:round;stroke-linejoin:round;stroke-miterlimit:10"
   d="m 89.383,314.149 c 0,0 -1.033,1.277 -2.006,1.447"
   id="path62" />&#10;		<path
   style="fill:none;stroke:#407bff;stroke-width:0.5;stroke-linecap:round;stroke-linejoin:round;stroke-miterlimit:10"
   d="m 85.383,319.426 c 0,0 2.249,-0.681 2.997,0"
   id="path63" />&#10;		<path
   style="fill:none;stroke:#407bff;stroke-width:0.5;stroke-linecap:round;stroke-linejoin:round;stroke-miterlimit:10"
   d="m 87.377,324.367 c 0,0 -2.286,-0.941 -3.374,-1.622"
   id="path64" />&#10;		<path
   style="fill:none;stroke:#407bff;stroke-width:0.5;stroke-linecap:round;stroke-linejoin:round;stroke-miterlimit:10"
   d="m 81.723,328.957 c 0,0 2.894,-0.426 3.064,-1.532"
   id="path65" />&#10;		<path
   style="fill:none;stroke:#407bff;stroke-width:0.5;stroke-linecap:round;stroke-linejoin:round;stroke-miterlimit:10"
   d="m 82.66,334.621 c 0,0 -1.191,-1.508 -1.447,-2.267"
   id="path66" />&#10;		<path
   style="fill:none;stroke:#407bff;stroke-width:0.5;stroke-linecap:round;stroke-linejoin:round;stroke-miterlimit:10"
   d="m 79.525,312.957 c 0,0 -0.346,-1.532 -1.67,-1.787"
   id="path67" />&#10;		<path
   style="fill:none;stroke:#407bff;stroke-width:0.5;stroke-linecap:round;stroke-linejoin:round;stroke-miterlimit:10"
   d="m 77.043,318.149 c -0.511,-0.17 -0.944,0.285 -2.298,-0.34"
   id="path68" />&#10;		<path
   style="fill:none;stroke:#407bff;stroke-width:0.5;stroke-linecap:round;stroke-linejoin:round;stroke-miterlimit:10"
   d="m 76.587,323.556 c 0,0 -1.161,0.646 -1.842,0.811"
   id="path69" />&#10;		&#10;			<line
   style="fill:none;stroke:#407bff;stroke-width:0.5;stroke-linecap:round;stroke-linejoin:round;stroke-miterlimit:10"
   x1="76.586998"
   y1="330.909"
   x2="73.893997"
   y2="331.84698"
   id="line69" />&#10;		<path
   style="fill:none;stroke:#407bff;stroke-width:0.5;stroke-linecap:round;stroke-linejoin:round;stroke-miterlimit:10"
   d="m 87.851,336.703 c 0.681,0.85 1.532,2.202 1.532,2.202"
   id="path70" />&#10;		<path
   style="fill:none;stroke:#407bff;stroke-width:0.5;stroke-linecap:round;stroke-linejoin:round;stroke-miterlimit:10"
   d="m 91.511,332.352 c 0.936,0.094 2.165,0.605 2.165,0.605"
   id="path71" />&#10;		<path
   style="fill:none;stroke:#407bff;stroke-width:0.5;stroke-linecap:round;stroke-linejoin:round;stroke-miterlimit:10"
   d="m 94.863,325.979 c 0,0 1.414,-0.154 1.754,0.519"
   id="path72" />&#10;		<path
   style="fill:none;stroke:#407bff;stroke-width:0.5;stroke-linecap:round;stroke-linejoin:round;stroke-miterlimit:10"
   d="m 95.596,318.489 c 0,0 1.153,0.005 1.683,-0.338"
   id="path73" />&#10;		<path
   style="fill:none;stroke:#407bff;stroke-width:0.5;stroke-linecap:round;stroke-linejoin:round;stroke-miterlimit:10"
   d="m 70.916,334.148 c 0.247,0.461 0.447,0.946 0.595,1.447"
   id="path74" />&#10;		<path
   style="fill:none;stroke:#407bff;stroke-width:0.5;stroke-linecap:round;stroke-linejoin:round;stroke-miterlimit:10"
   d="m 65.314,336.351 c 0.674,1.029 1.465,1.982 2.353,2.834"
   id="path75" />&#10;		<path
   style="fill:none;stroke:#407bff;stroke-width:0.5;stroke-linecap:round;stroke-linejoin:round;stroke-miterlimit:10"
   d="m 62.928,340.855 c 0.67,0.525 1.339,1.05 2.009,1.575"
   id="path76" />&#10;		<path
   style="fill:none;stroke:#407bff;stroke-width:0.5;stroke-linecap:round;stroke-linejoin:round;stroke-miterlimit:10"
   d="m 61.398,355.289 c 0.796,0.235 1.691,0.107 2.389,-0.341"
   id="path77" />&#10;		<path
   style="fill:none;stroke:#407bff;stroke-width:0.5;stroke-linecap:round;stroke-linejoin:round;stroke-miterlimit:10"
   d="m 63.622,360.145 c 0.565,-0.392 1.074,-0.864 1.507,-1.398"
   id="path78" />&#10;		<path
   style="fill:none;stroke:#407bff;stroke-width:0.5;stroke-linecap:round;stroke-linejoin:round;stroke-miterlimit:10"
   d="m 67.034,364.043 c 0.373,-0.594 0.726,-1.199 1.059,-1.816"
   id="path79" />&#10;		<path
   style="fill:none;stroke:#407bff;stroke-width:0.5;stroke-linecap:round;stroke-linejoin:round;stroke-miterlimit:10"
   d="m 69.357,366.122 c 0.58,-0.59 1.09,-1.247 1.518,-1.954"
   id="path80" />&#10;		<path
   style="fill:none;stroke:#407bff;stroke-width:0.5;stroke-linecap:round;stroke-linejoin:round;stroke-miterlimit:10"
   d="m 74.905,369.642 c -0.334,-0.771 -0.347,-1.676 -0.034,-2.456"
   id="path81" />&#10;		<path
   style="fill:none;stroke:#407bff;stroke-width:0.5;stroke-linecap:round;stroke-linejoin:round;stroke-miterlimit:10"
   d="m 84.96,361.223 c -1.045,0.316 -2.157,0.408 -3.24,0.269"
   id="path82" />&#10;		<path
   style="fill:none;stroke:#407bff;stroke-width:0.5;stroke-linecap:round;stroke-linejoin:round;stroke-miterlimit:10"
   d="m 84.368,357.244 c -0.825,0.163 -1.691,0.109 -2.49,-0.155"
   id="path83" />&#10;		<path
   style="fill:none;stroke:#407bff;stroke-width:0.5;stroke-linecap:round;stroke-linejoin:round;stroke-miterlimit:10"
   d="m 84.778,352.894 c -0.624,-0.255 -1.249,-0.51 -1.873,-0.764"
   id="path84" />&#10;		<path
   style="fill:none;stroke:#407bff;stroke-width:0.5;stroke-linecap:round;stroke-linejoin:round;stroke-miterlimit:10"
   d="m 84.787,348.447 c -0.596,0 -1.191,0 -1.787,0"
   id="path85" />&#10;		<path
   style="fill:none;stroke:#407bff;stroke-width:0.5;stroke-linecap:round;stroke-linejoin:round;stroke-miterlimit:10"
   d="m 84.447,344.957 c -0.567,0 -1.135,0 -1.702,0"
   id="path86" />&#10;		<path
   style="fill:none;stroke:#407bff;stroke-width:0.5;stroke-linecap:round;stroke-linejoin:round;stroke-miterlimit:10"
   d="m 81.788,339.065 c -0.641,0.664 -1.282,1.327 -1.923,1.991"
   id="path87" />&#10;		<path
   style="fill:none;stroke:#407bff;stroke-width:0.5;stroke-linecap:round;stroke-linejoin:round;stroke-miterlimit:10"
   d="m 75.851,334.83 c 0.026,0.795 -0.006,1.591 -0.096,2.382"
   id="path88" />&#10;		<path
   style="fill:none;stroke:#407bff;stroke-width:0.5;stroke-linecap:round;stroke-linejoin:round;stroke-miterlimit:10"
   d="m 71.297,340.406 c 0.565,0.578 1.051,1.233 1.44,1.94"
   id="path89" />&#10;		<path
   style="fill:none;stroke:#407bff;stroke-width:0.5;stroke-linecap:round;stroke-linejoin:round;stroke-miterlimit:10"
   d="m 69.827,345.927 c 0.679,0.251 1.386,0.424 2.104,0.515"
   id="path90" />&#10;		<path
   style="fill:none;stroke:#407bff;stroke-width:0.5;stroke-linecap:round;stroke-linejoin:round;stroke-miterlimit:10"
   d="m 69.738,351.34 c 0.04,0.118 0.218,0.065 0.318,-0.009 0.509,-0.372 1.019,-0.744 1.528,-1.116"
   id="path91" />&#10;		<path
   style="fill:none;stroke:#407bff;stroke-width:0.5;stroke-linecap:round;stroke-linejoin:round;stroke-miterlimit:10"
   d="m 71.543,356.158 c 0.601,-0.383 1.166,-0.823 1.683,-1.314"
   id="path92" />&#10;		<path
   style="fill:none;stroke:#407bff;stroke-width:0.5;stroke-linecap:round;stroke-linejoin:round;stroke-miterlimit:10"
   d="m 74.187,361.099 c 0.348,-0.573 0.806,-1.078 1.342,-1.48"
   id="path93" />&#10;		<path
   style="fill:none;stroke:#407bff;stroke-width:0.5;stroke-linecap:round;stroke-linejoin:round;stroke-miterlimit:10"
   d="m 76.813,364.031 c 0.276,-0.73 0.346,-1.536 0.201,-2.302"
   id="path94" />&#10;		<path
   style="fill:none;stroke:#407bff;stroke-width:0.5;stroke-linecap:round;stroke-linejoin:round;stroke-miterlimit:10"
   d="m 80.462,345.742 c -0.537,0.427 -1.075,0.855 -1.612,1.282"
   id="path95" />&#10;		<path
   style="fill:none;stroke:#407bff;stroke-width:0.5;stroke-linecap:round;stroke-linejoin:round;stroke-miterlimit:10"
   d="m 80.872,350.83 c -0.369,0 -0.737,0 -1.106,0"
   id="path96" />&#10;		<path
   style="fill:none;stroke:#407bff;stroke-width:0.5;stroke-linecap:round;stroke-linejoin:round;stroke-miterlimit:10"
   d="m 63.504,345.557 c 0.385,0.693 0.902,1.311 1.516,1.811"
   id="path97" />&#10;		<path
   style="fill:none;stroke:#407bff;stroke-width:0.5;stroke-linecap:round;stroke-linejoin:round;stroke-miterlimit:10"
   d="m 63.069,352.591 c 0.552,-0.347 1.105,-0.695 1.658,-1.042"
   id="path98" />&#10;		<path
   style="fill:none;stroke:#407bff;stroke-width:0.5;stroke-linecap:round;stroke-linejoin:round;stroke-miterlimit:10"
   d="m 61.895,343.681 c 0.024,0.684 -0.034,1.372 -0.172,2.043"
   id="path99" />&#10;		<path
   style="fill:none;stroke:#407bff;stroke-width:0.5;stroke-linecap:round;stroke-linejoin:round;stroke-miterlimit:10"
   d="m 56.746,341.475 c 0.124,0.7 0.202,1.409 0.233,2.119"
   id="path100" />&#10;		<path
   style="fill:none;stroke:#407bff;stroke-width:0.5;stroke-linecap:round;stroke-linejoin:round;stroke-miterlimit:10"
   d="m 52.619,342.233 c 0.351,0.561 0.702,1.122 1.053,1.682"
   id="path101" />&#10;		<path
   style="fill:none;stroke:#407bff;stroke-width:0.5;stroke-linecap:round;stroke-linejoin:round;stroke-miterlimit:10"
   d="m 50.519,345.524 c 0.443,0.447 0.955,0.825 1.512,1.118"
   id="path102" />&#10;		<path
   style="fill:none;stroke:#407bff;stroke-width:0.5;stroke-linecap:round;stroke-linejoin:round;stroke-miterlimit:10"
   d="m 50.529,353.19 c 0.487,-0.276 1.02,-0.466 1.5,-0.755 0.48,-0.289 0.919,-0.707 1.056,-1.25"
   id="path103" />&#10;		<path
   style="fill:none;stroke:#407bff;stroke-width:0.5;stroke-linecap:round;stroke-linejoin:round;stroke-miterlimit:10"
   d="m 54.226,355.755 c 0.664,-0.403 1.281,-0.886 1.831,-1.435 0.209,-0.209 0.425,-0.491 0.332,-0.772"
   id="path104" />&#10;		<path
   style="fill:none;stroke:#407bff;stroke-width:0.5;stroke-linecap:round;stroke-linejoin:round;stroke-miterlimit:10"
   d="m 59.041,356.197 c 0.09,-0.651 0.077,-1.316 -0.041,-1.963"
   id="path105" />&#10;		<path
   style="fill:none;stroke:#407bff;stroke-width:0.5;stroke-linecap:round;stroke-linejoin:round;stroke-miterlimit:10"
   d="m 55.709,346.808 c 0.43,0.558 0.859,1.115 1.289,1.673"
   id="path106" />&#10;		<path
   style="fill:none;stroke:#407bff;stroke-width:0.5;stroke-linecap:round;stroke-linejoin:round;stroke-miterlimit:10"
   d="m 59.2,348.986 c 0.334,-0.346 0.654,-0.705 0.959,-1.077"
   id="path107" />&#10;		<path
   style="fill:none;stroke:#407bff;stroke-width:0.5;stroke-linecap:round;stroke-linejoin:round;stroke-miterlimit:10"
   d="m 90.181,361.541 c 0.353,0.92 0.483,1.925 0.376,2.904"
   id="path108" />&#10;		<path
   style="fill:none;stroke:#407bff;stroke-width:0.5;stroke-linecap:round;stroke-linejoin:round;stroke-miterlimit:10"
   d="m 95.798,363.595 c 0.017,1.141 -0.481,2.279 -1.33,3.041"
   id="path109" />&#10;		<path
   style="fill:none;stroke:#407bff;stroke-width:0.5;stroke-linecap:round;stroke-linejoin:round;stroke-miterlimit:10"
   d="m 83.756,363.175 c 0.282,0.62 0.65,1.2 1.09,1.719"
   id="path110" />&#10;		<path
   style="fill:none;stroke:#407bff;stroke-width:0.5;stroke-linecap:round;stroke-linejoin:round;stroke-miterlimit:10"
   d="m 74.419,372.996 c 1.001,0.32 1.989,0.676 2.964,1.068"
   id="path111" />&#10;		<path
   style="fill:none;stroke:#407bff;stroke-width:0.5;stroke-linecap:round;stroke-linejoin:round;stroke-miterlimit:10"
   d="m 72.57,378.801 c 0.725,0.934 2.052,1.35 3.18,0.999"
   id="path112" />&#10;		<path
   style="fill:none;stroke:#407bff;stroke-width:0.5;stroke-linecap:round;stroke-linejoin:round;stroke-miterlimit:10"
   d="m 72.782,386.133 c 0.812,-0.263 1.64,-0.478 2.478,-0.641"
   id="path113" />&#10;		<path
   style="fill:none;stroke:#407bff;stroke-width:0.5;stroke-linecap:round;stroke-linejoin:round;stroke-miterlimit:10"
   d="m 73.055,392.473 c 0.784,-0.39 1.568,-0.78 2.352,-1.169"
   id="path114" />&#10;		<path
   style="fill:none;stroke:#407bff;stroke-width:0.5;stroke-linecap:round;stroke-linejoin:round;stroke-miterlimit:10"
   d="m 93.121,393.751 c -1.28,-0.314 -2.514,-0.813 -3.653,-1.475"
   id="path115" />&#10;		<path
   style="fill:none;stroke:#407bff;stroke-width:0.5;stroke-linecap:round;stroke-linejoin:round;stroke-miterlimit:10"
   d="m 94.406,390.656 c -0.673,-0.3 -1.335,-0.622 -1.986,-0.967"
   id="path116" />&#10;		<path
   style="fill:none;stroke:#407bff;stroke-width:0.5;stroke-linecap:round;stroke-linejoin:round;stroke-miterlimit:10"
   d="m 97.136,385.677 c -1.079,-0.193 -2.158,-0.386 -3.237,-0.578"
   id="path117" />&#10;		<path
   style="fill:none;stroke:#407bff;stroke-width:0.5;stroke-linecap:round;stroke-linejoin:round;stroke-miterlimit:10"
   d="m 98.649,381.673 c -0.881,-0.263 -1.733,-0.62 -2.539,-1.062"
   id="path118" />&#10;		<path
   style="fill:none;stroke:#407bff;stroke-width:0.5;stroke-linecap:round;stroke-linejoin:round;stroke-miterlimit:10"
   d="m 98.656,365.47 c 0.514,0.85 0.914,1.768 1.186,2.724"
   id="path119" />&#10;		<path
   style="fill:none;stroke:#407bff;stroke-width:0.5;stroke-linecap:round;stroke-linejoin:round;stroke-miterlimit:10"
   d="m 103.938,364.787 c 0.131,0.796 0.261,1.592 0.392,2.389"
   id="path120" />&#10;		<path
   style="fill:none;stroke:#407bff;stroke-width:0.5;stroke-linecap:round;stroke-linejoin:round;stroke-miterlimit:10"
   d="m 111.285,366.089 c -0.692,0.838 -1.307,1.739 -1.834,2.689"
   id="path121" />&#10;		<path
   style="fill:none;stroke:#407bff;stroke-width:0.5;stroke-linecap:round;stroke-linejoin:round;stroke-miterlimit:10"
   d="m 112.678,371.654 c -0.618,0.655 -1.544,1.007 -2.441,0.925"
   id="path122" />&#10;		<path
   style="fill:none;stroke:#407bff;stroke-width:0.5;stroke-linecap:round;stroke-linejoin:round;stroke-miterlimit:10"
   d="m 110.12,380.769 c -1.209,-0.517 -2.267,-1.382 -3.014,-2.465"
   id="path123" />&#10;		<path
   style="fill:none;stroke:#407bff;stroke-width:0.5;stroke-linecap:round;stroke-linejoin:round;stroke-miterlimit:10"
   d="m 102.609,381.81 c -0.021,-0.908 0.005,-1.817 0.075,-2.723"
   id="path124" />&#10;		<path
   style="fill:none;stroke:#407bff;stroke-width:0.5;stroke-linecap:round;stroke-linejoin:round;stroke-miterlimit:10"
   d="m 102.242,372.958 c -0.035,0.545 -0.128,1.087 -0.278,1.612"
   id="path125" />&#10;		<path
   style="fill:none;stroke:#407bff;stroke-width:0.5;stroke-linecap:round;stroke-linejoin:round;stroke-miterlimit:10"
   d="m 106.919,371.595 c 0.064,0.857 -0.292,1.735 -0.934,2.305"
   id="path126" />&#10;		<path
   style="fill:none;stroke:#407bff;stroke-width:0.5;stroke-linecap:round;stroke-linejoin:round;stroke-miterlimit:10"
   d="m 97.886,373.404 c -0.661,-0.238 -1.341,-0.421 -2.032,-0.547"
   id="path127" />&#10;		<path
   style="fill:none;stroke:#407bff;stroke-width:0.5;stroke-linecap:round;stroke-linejoin:round;stroke-miterlimit:10"
   d="m 87.745,367.803 c 0.547,0.726 1.005,1.519 1.361,2.356"
   id="path128" />&#10;		<path
   style="fill:none;stroke:#407bff;stroke-width:0.5;stroke-linecap:round;stroke-linejoin:round;stroke-miterlimit:10"
   d="m 89.583,373.327 c -0.745,0.737 -1.79,1.162 -2.839,1.154"
   id="path129" />&#10;		<path
   style="fill:none;stroke:#407bff;stroke-width:0.5;stroke-linecap:round;stroke-linejoin:round;stroke-miterlimit:10"
   d="m 85.262,378.516 c 0.576,0.479 1.213,0.885 1.89,1.205"
   id="path130" />&#10;		<path
   style="fill:none;stroke:#407bff;stroke-width:0.5;stroke-linecap:round;stroke-linejoin:round;stroke-miterlimit:10"
   d="m 87.605,385.051 c -1.37,0.358 -2.909,0.696 -4.132,-0.017"
   id="path131" />&#10;		<path
   style="fill:none;stroke:#407bff;stroke-width:0.5;stroke-linecap:round;stroke-linejoin:round;stroke-miterlimit:10"
   d="m 83.183,389.567 c 0.327,-0.309 0.69,-0.579 1.079,-0.805"
   id="path132" />&#10;		<path
   style="fill:none;stroke:#407bff;stroke-width:0.5;stroke-linecap:round;stroke-linejoin:round;stroke-miterlimit:10"
   d="m 82.13,393.963 c 0.5,-0.607 1.077,-1.15 1.714,-1.611"
   id="path133" />&#10;		<path
   style="fill:none;stroke:#407bff;stroke-width:0.5;stroke-linecap:round;stroke-linejoin:round;stroke-miterlimit:10"
   d="m 79.923,370.417 c 0.582,0.603 1.095,1.272 1.526,1.99"
   id="path134" />&#10;		<path
   style="fill:none;stroke:#407bff;stroke-width:0.5;stroke-linecap:round;stroke-linejoin:round;stroke-miterlimit:10"
   d="m 78.323,378.303 c 0.366,0.094 0.733,0.189 1.099,0.283"
   id="path135" />&#10;		<path
   style="fill:none;stroke:#407bff;stroke-width:0.5;stroke-linecap:round;stroke-linejoin:round;stroke-miterlimit:10"
   d="m 77.55,383.435 c 0.458,0.16 0.915,0.319 1.373,0.479"
   id="path136" />&#10;		<path
   style="fill:none;stroke:#407bff;stroke-width:0.5;stroke-linecap:round;stroke-linejoin:round;stroke-miterlimit:10"
   d="m 77.276,390.386 c 0.402,-0.478 0.804,-0.957 1.205,-1.435"
   id="path137" />&#10;	</g>&#10;</g><g
   id="Speech_bubble_1"
   transform="matrix(0.48145925,0,0,0.48145925,-19.757136,-52.970239)">&#10;	<g
   id="g144">&#10;		<g
   id="g138">&#10;			<path
   style="fill:#407bff"
   d="m 93.191,113.38 h 32.521 c 6.176,0 11.183,5.006 11.183,11.183 v 13.495 c 0,6.176 -5.007,11.182 -11.182,11.182 h -5.478 l -1.298,8.029 -6.223,-8.029 H 93.19 c -6.175,0 -11.182,-5.007 -11.182,-11.182 v -13.495 c 0,-6.177 5.007,-11.183 11.183,-11.183 z"
   id="path138" />&#10;		</g>&#10;		<g
   style="opacity:0.3"
   id="g139">&#10;			<path
   d="m 93.191,113.38 h 32.521 c 6.176,0 11.183,5.006 11.183,11.183 v 13.495 c 0,6.176 -5.007,11.182 -11.182,11.182 h -5.478 l -1.298,8.029 -6.223,-8.029 H 93.19 c -6.175,0 -11.182,-5.007 -11.182,-11.182 v -13.495 c 0,-6.177 5.007,-11.183 11.183,-11.183 z"
   id="path139" />&#10;		</g>&#10;		<g
   id="g143">&#10;			<path
   style="fill:#ffffff"
   d="m 122.124,130.538 c 0,1.247 1.011,2.259 2.259,2.259 1.247,0 2.259,-1.011 2.259,-2.259 0,-1.247 -1.011,-2.259 -2.259,-2.259 -1.248,0 -2.259,1.011 -2.259,2.259 z"
   id="path140" />&#10;			<path
   style="fill:#ffffff"
   d="m 112.17,130.538 c 0,1.247 1.011,2.259 2.259,2.259 1.248,0 2.259,-1.011 2.259,-2.259 0,-1.247 -1.011,-2.259 -2.259,-2.259 -1.248,0 -2.259,1.011 -2.259,2.259 z"
   id="path141" />&#10;			<path
   style="fill:#ffffff"
   d="m 102.216,130.538 c 0,1.247 1.011,2.259 2.259,2.259 1.247,0 2.259,-1.011 2.259,-2.259 0,-1.247 -1.011,-2.259 -2.259,-2.259 -1.248,0 -2.259,1.011 -2.259,2.259 z"
   id="path142" />&#10;			<path
   style="fill:#ffffff"
   d="m 92.262,130.538 c 0,1.247 1.011,2.259 2.259,2.259 1.248,0 2.259,-1.011 2.259,-2.259 0,-1.247 -1.011,-2.259 -2.259,-2.259 -1.248,0 -2.259,1.011 -2.259,2.259 z"
   id="path143" />&#10;		</g>&#10;	</g>&#10;</g><g
   id="Display"
   transform="matrix(0.48145925,0,0,0.48145925,-19.757136,-52.970239)">&#10;	<g
   id="g217">&#10;		<g
   id="g146">&#10;			<path
   style="fill:#263238"
   d="m 270.118,413.063 v 3.771 c 0,0.47 -0.382,0.842 -0.852,0.842 H 162.801 c -3.937,0 -6.62,-3.976 -5.151,-7.619 l 33.739,-83.558 54.521,0.372 -1.861,10.842 -12.026,70.171 c -0.392,2.262 1.352,4.339 3.653,4.339 h 33.592 c 0.468,-0.003 0.85,0.369 0.85,0.84 z"
   id="path144" />&#10;			<path
   style="opacity:0.6;fill:#ffffff"
   d="m 270.118,413.063 v 3.771 c 0,0.47 -0.382,0.842 -0.852,0.842 H 162.801 c -3.937,0 -6.62,-3.976 -5.151,-7.619 l 20.919,-51.798 12.82,-31.76 54.521,0.372 -1.861,10.842 -5.23,30.517 -6.797,39.654 c -0.392,2.262 1.352,4.339 3.653,4.339 h 33.592 c 0.469,-0.003 0.851,0.369 0.851,0.84 z"
   id="path145" />&#10;			<path
   style="opacity:0.4;fill:#ffffff;enable-background:new"
   d="m 235.674,412.22 h -69.271 c -1.733,0 -2.909,-1.763 -2.244,-3.363 l 29.579,-71.146 h 50.309 l -12.026,70.171 c -0.391,2.262 1.352,4.338 3.653,4.338 z"
   id="path146" />&#10;			<polygon
   style="opacity:0.1;enable-background:new"
   points="191.388,326.498 245.909,326.87 244.048,337.711 238.818,368.228 178.568,358.258 "
   id="polygon146" />&#10;		</g>&#10;		<g
   id="g150">&#10;			<g
   id="g149">&#10;				<path
   style="fill:#263238"
   d="m 351.928,171.105 h -5.35 -241.712 -5.35 c -3.567,0 -6.459,2.892 -6.459,6.459 v 170.879 c 0,3.567 2.892,6.459 6.459,6.459 h 5.35 241.712 5.35 c 3.567,0 6.459,-2.892 6.459,-6.459 V 177.565 c 0,-3.568 -2.892,-6.46 -6.459,-6.46 z"
   id="path147" />&#10;				<path
   style="opacity:0.8;fill:#ffffff"
   d="m 351.928,171.105 h -5.35 -241.712 -5.35 c -3.567,0 -6.459,2.892 -6.459,6.459 v 170.879 c 0,3.567 2.892,6.459 6.459,6.459 h 5.35 241.712 5.35 c 3.567,0 6.459,-2.892 6.459,-6.459 V 177.565 c 0,-3.568 -2.892,-6.46 -6.459,-6.46 z"
   id="path148" />&#10;				<path
   style="opacity:0.2;enable-background:new"
   d="m 104.864,354.898 h -5.35 c -3.563,0 -6.452,-2.889 -6.452,-6.452 V 177.568 c 0,-3.574 2.889,-6.463 6.452,-6.463 h 5.35 c -3.563,0 -6.452,2.889 -6.452,6.463 v 170.879 c -0.001,3.562 2.888,6.451 6.452,6.451 z"
   id="path149" />&#10;			</g>&#10;		</g>&#10;		<g
   id="g151">&#10;			<rect
   x="104.235"
   y="176.655"
   style="fill:#407bff"
   width="248.33501"
   height="164.776"
   id="rect150" />&#10;		</g>&#10;		<g
   id="g152">&#10;			<path
   style="opacity:0.1;fill:#ffffff"
   d="m 326.685,177.429 c -34.336,34.4 -122.526,110.959 -222.453,105.299 V 177.429 Z"
   id="path151" />&#10;			<path
   style="opacity:0.1;fill:#ffffff"
   d="M 352.568,240.655 V 342.209 H 203.057 c 5.735,-20.512 17.195,-48.599 39.429,-68.673 39.997,-36.113 86.413,-36.006 110.082,-32.881 z"
   id="path152" />&#10;		</g>&#10;		<g
   id="g163">&#10;			<polygon
   style="opacity:0.3"
   points="270.363,318.76 270.363,249.326 274.256,249.326 261.799,236.869 249.342,249.326 253.236,249.326 253.236,318.76 "
   id="polygon152" />&#10;			<g
   id="g154">&#10;				<rect
   x="292.89099"
   y="241.14101"
   style="opacity:0.3"
   width="13.016"
   height="4.9819999"
   id="rect152" />&#10;				<polygon
   style="opacity:0.3"
   points="289.932,221.192 292.891,221.192 292.891,239.786 305.906,239.786 305.906,221.192 308.865,221.192 299.398,211.725 "
   id="polygon153" />&#10;				<rect
   x="292.89099"
   y="248.11501"
   style="opacity:0.3"
   width="13.016"
   height="3.612"
   id="rect153" />&#10;				<rect
   x="292.89099"
   y="255.96201"
   style="opacity:0.3"
   width="13.016"
   height="1.868"
   id="rect154" />&#10;			</g>&#10;			<g
   id="g157">&#10;				<rect
   x="219.27299"
   y="225.451"
   style="opacity:0.3"
   width="13.016"
   height="4.9819999"
   id="rect155" />&#10;				<polygon
   style="opacity:0.3"
   points="216.314,205.502 219.273,205.502 219.273,224.097 232.289,224.097 232.289,205.502 235.248,205.502 225.781,196.036 "
   id="polygon155" />&#10;				<rect
   x="219.27299"
   y="232.42599"
   style="opacity:0.3"
   width="13.016"
   height="3.612"
   id="rect156" />&#10;				<rect
   x="219.27299"
   y="240.27299"
   style="opacity:0.3"
   width="13.016"
   height="1.868"
   id="rect157" />&#10;			</g>&#10;			<g
   id="g160">&#10;				<rect
   x="312.69901"
   y="323.755"
   style="opacity:0.3"
   width="13.016"
   height="4.9819999"
   id="rect158" />&#10;				<polygon
   style="opacity:0.3"
   points="309.74,303.806 312.699,303.806 312.699,322.401 325.714,322.401 325.714,303.806 328.673,303.806 319.207,294.34 "
   id="polygon158" />&#10;				<rect
   x="312.69901"
   y="330.73001"
   style="opacity:0.3"
   width="13.016"
   height="3.612"
   id="rect159" />&#10;				<rect
   x="312.69901"
   y="338.577"
   style="opacity:0.3"
   width="13.016"
   height="1.868"
   id="rect160" />&#10;			</g>&#10;			<g
   id="g162">&#10;				&#10;					<circle
   transform="matrix(0.5257,-0.8507,0.8507,0.5257,-137.4082,368.5352)"
   style="fill:#407bff"
   cx="261.79901"
   cy="307.496"
   id="ellipse160"
   r="22.226999" />&#10;				&#10;					<circle
   transform="matrix(0.5257,-0.8507,0.8507,0.5257,-137.4082,368.5352)"
   style="opacity:0.1"
   cx="261.79901"
   cy="307.496"
   id="ellipse161"
   r="22.226999" />&#10;				<circle
   style="opacity:0.2"
   cx="261.79901"
   cy="307.496"
   r="19.365"
   id="circle161" />&#10;				<g
   style="opacity:0.6"
   id="g161">&#10;					<path
   style="fill:#407bff"
   d="m 262.975,316.353 v 2.772 h -2.03 v -2.746 c -2.424,-0.149 -4.775,-0.941 -6.061,-2.055 l 1.113,-2.498 c 1.213,0.989 3.068,1.706 4.948,1.88 v -4.948 c -2.746,-0.669 -5.69,-1.559 -5.69,-4.998 0,-2.524 1.831,-4.726 5.69,-5.097 v -2.796 h 2.03 v 2.748 c 1.83,0.099 3.686,0.643 5.023,1.509 l -1.015,2.498 c -1.311,-0.768 -2.698,-1.187 -4.008,-1.336 v 4.998 c 2.746,0.667 5.74,1.533 5.74,4.972 -10e-4,2.524 -1.856,4.702 -5.74,5.097 z m -2.03,-10.589 v -4.404 c -1.756,0.272 -2.498,1.162 -2.498,2.25 0,1.189 1.064,1.733 2.498,2.154 z m 4.602,5.716 c 0,-1.213 -1.089,-1.781 -2.573,-2.202 v 4.38 c 1.807,-0.273 2.573,-1.115 2.573,-2.178 z"
   id="path161" />&#10;				</g>&#10;			</g>&#10;		</g>&#10;		<g
   id="g216">&#10;			<g
   id="g165">&#10;				<path
   style="fill:#263238"
   d="m 182.978,181.694 c 1.561,5.518 -0.034,11.068 -3.561,12.397 -3.527,1.329 -7.651,-2.066 -9.212,-7.583 -1.56,-5.518 0.034,-11.068 3.561,-12.397 3.527,-1.33 7.651,2.065 9.212,7.583 z"
   id="path163" />&#10;				<path
   style="opacity:0.2;fill:#ffffff"
   d="m 182.978,181.694 c 1.561,5.518 -0.034,11.068 -3.561,12.397 -3.527,1.329 -7.651,-2.066 -9.212,-7.583 -1.56,-5.518 0.034,-11.068 3.561,-12.397 3.527,-1.33 7.651,2.065 9.212,7.583 z"
   id="path164" />&#10;				<path
   style="fill:none;stroke:#263238;stroke-width:1.1564;stroke-miterlimit:10"
   d="m 180.948,189.052 c 0,0 4.524,5.373 5.114,7.89 0.59,2.517 -2.175,3.439 -4.305,3.893"
   id="path165" />&#10;			</g>&#10;			<path
   style="fill:#263238"
   d="m 216.402,341.411 h -16.193 c 0.092,-1.725 0.184,-3.523 0.286,-5.36 0.092,-1.685 0.204,-3.4 0.306,-5.126 0.031,-0.429 0.061,-0.858 0.092,-1.286 0.97,-14.059 2.573,-28.16 5.105,-28.119 0.327,0.01 0.664,0.255 1.031,0.766 0.408,0.592 0.827,1.368 1.235,2.307 3.176,7.27 6.188,24.086 8.138,36.818 z"
   id="path166" />&#10;			<g
   id="g167">&#10;				<path
   style="fill:#407bff"
   d="m 210.051,341.411 h -85.99 c 0,-8.485 -0.031,-19.481 -0.541,-32.06 -0.409,-10.159 -1.123,-21.37 -2.41,-33.112 -0.745,-6.728 -1.664,-13.651 -2.808,-20.635 -0.664,-4.013 -1.399,-8.066 -2.215,-12.109 -1.154,-5.708 -2.471,-11.435 -3.992,-17.133 0,0 6.555,-1.787 14.968,-3.39 1.746,-0.337 3.584,-0.664 5.452,-0.96 1.593,-0.255 3.216,-0.49 4.85,-0.694 0.02,-0.01 0.041,-0.01 0.072,-0.01 0,0 0,0 0.01,0 0.51,-0.072 1.031,-0.133 1.552,-0.194 1.195,-0.133 2.451,-0.276 3.757,-0.419 0,0 0,-0.01 0.01,0 1.96,-0.204 4.013,-0.419 6.116,-0.613 6.779,-0.633 14.059,-1.154 20.022,-1.276 0.541,-0.01 1.082,-0.01 1.603,-0.02 1.021,-0.01 1.991,0 2.91,0.02 1.062,0.02 2.89,0.112 3.737,0.153 h 0.01 c 0.276,0.02 0.449,0.031 0.449,0.031 l 11.844,3.849 8.311,2.706 c 0,0 0.388,1.777 1.031,5.115 v 0.01 c 0.756,3.931 1.858,10.016 3.084,17.919 1.225,7.831 2.573,17.449 3.808,28.507 0,0 0,0.01 0.01,0.02 0.939,8.383 1.828,17.592 2.563,27.476 0.276,3.676 0.521,7.453 0.756,11.313 0.255,4.36 0.47,8.842 0.654,13.416 0.02,0.429 0.041,0.868 0.051,1.307 0.061,1.644 0.123,3.308 0.173,4.983 0.062,1.92 0.113,3.85 0.153,5.8 z"
   id="path167" />&#10;			</g>&#10;			<g
   style="opacity:0.7"
   id="g168">&#10;				<path
   style="fill:#ffffff"
   d="m 210.051,341.411 h -85.99 c 0,-8.485 -0.031,-19.481 -0.541,-32.06 -0.409,-10.159 -1.123,-21.37 -2.41,-33.112 -0.745,-6.728 -1.664,-13.651 -2.808,-20.635 -0.664,-4.013 -1.399,-8.066 -2.215,-12.109 -1.154,-5.708 -2.471,-11.435 -3.992,-17.133 0,0 6.555,-1.787 14.968,-3.39 1.746,-0.337 3.584,-0.664 5.452,-0.96 1.593,-0.255 3.216,-0.49 4.85,-0.694 0.02,-0.01 0.041,-0.01 0.072,-0.01 0,0 0,0 0.01,0 0.51,-0.072 1.031,-0.133 1.552,-0.194 1.195,-0.133 2.451,-0.276 3.757,-0.419 0,0 0,-0.01 0.01,0 1.96,-0.204 4.013,-0.419 6.116,-0.613 6.779,-0.633 14.059,-1.154 20.022,-1.276 0.541,-0.01 1.082,-0.01 1.603,-0.02 1.021,-0.01 1.991,0 2.91,0.02 1.062,0.02 2.89,0.112 3.737,0.153 h 0.01 c 0.276,0.02 0.449,0.031 0.449,0.031 l 11.844,3.849 8.311,2.706 c 0,0 0.388,1.777 1.031,5.115 v 0.01 c 0.756,3.931 1.858,10.016 3.084,17.919 1.225,7.831 2.573,17.449 3.808,28.507 0,0 0,0.01 0.01,0.02 0.939,8.383 1.828,17.592 2.563,27.476 0.276,3.676 0.521,7.453 0.756,11.313 0.255,4.36 0.47,8.842 0.654,13.416 0.02,0.429 0.041,0.868 0.051,1.307 0.061,1.644 0.123,3.308 0.173,4.983 0.062,1.92 0.113,3.85 0.153,5.8 z"
   id="path168" />&#10;			</g>&#10;			<polygon
   style="fill:#263238"
   points="210.94,335.561 211.655,341.411 128.095,341.411 129.728,332.243 137.447,331.957 200.893,329.639 209.674,329.323 210.184,329.302 210.337,330.609 210.348,330.609 "
   id="polygon168" />&#10;			<polygon
   style="opacity:0.4;fill:#ffffff"
   points="210.94,335.561 211.655,341.411 128.095,341.411 129.728,332.243 137.447,331.957 200.893,329.639 209.674,329.323 210.184,329.302 210.337,330.609 210.348,330.609 "
   id="polygon169" />&#10;			<g
   id="g172">&#10;				<polygon
   points="130.782,333.279 158.291,332.354 158.442,338.043 129.301,339.431 "
   id="polygon170" />&#10;				<polygon
   points="160.13,332.296 201.296,330.909 201.862,335.985 160.199,337.962 "
   id="polygon171" />&#10;				<polygon
   points="210.35,330.608 210.94,335.557 203.62,335.904 203.123,330.851 "
   id="polygon172" />&#10;				<path
   style="fill:none;stroke:#ffffff;stroke-width:1.1564;stroke-miterlimit:10"
   d="m 176.61,332.51 0.357,3.966 c 0.035,0.386 0.366,0.677 0.753,0.662 l 8.108,-0.312 c 0.411,-0.016 0.727,-0.369 0.698,-0.779 l -0.284,-3.93 c -0.028,-0.39 -0.359,-0.688 -0.75,-0.675 l -8.181,0.276 c -0.418,0.013 -0.738,0.376 -0.701,0.792 z"
   id="path172" />&#10;				&#10;					<line
   style="fill:none;stroke:#ffffff;stroke-width:1.1564;stroke-linecap:round;stroke-linejoin:round;stroke-miterlimit:10"
   x1="183.40601"
   y1="334.10501"
   x2="185.103"
   y2="334.013"
   id="line172" />&#10;			</g>&#10;			<g
   id="g173">&#10;				<path
   style="fill:#ebb376"
   d="M 285.008,264.186 301.364,262 291.353,246.678 c 0,0 -14.476,2.831 -12.704,10.227 z"
   id="path173" />&#10;				<polygon
   style="fill:#ebb376"
   points="301.364,262 314.075,251.724 300.994,241.473 291.353,246.678 "
   id="polygon173" />&#10;			</g>&#10;			<path
   style="fill:#263238"
   d="m 199.068,221.722 c 11.121,1.912 36.719,52.68 36.719,52.68 l 43.168,-23.236 9.908,13.947 c 0,0 -45.114,37.353 -56.924,34.912 -11.809,-2.441 -34.199,-33.012 -34.199,-33.012 z"
   id="path174" />&#10;			<path
   style="opacity:0.2;fill:#ffffff"
   d="m 288.866,265.113 c 0,0 -45.12,37.35 -56.927,34.91 -4.348,-0.902 -10.13,-5.608 -15.692,-11.205 -9.563,-9.598 -18.502,-21.809 -18.502,-21.809 l 0.301,-10.21 1.017,-35.072 c 11.124,1.908 36.726,52.671 36.726,52.671 l 43.166,-23.231 z"
   id="path175" />&#10;			<path
   style="opacity:0.2"
   d="m 216.247,288.818 c -9.563,-9.598 -18.502,-21.809 -18.502,-21.809 l 0.301,-10.21 2.093,-10.962 c 0,0 11.784,16.709 16.108,42.981 z"
   id="path176" />&#10;			<g
   id="g178">&#10;				<path
   style="fill:#ebb376"
   d="m 141.697,220.169 c 0,0 21,10.508 26.423,9.322 3.799,-0.829 8.024,-8.208 8.024,-8.208 -3.072,-0.845 -5.339,-2.05 -6.933,-3.524 -4.836,-4.387 -3.954,-11.117 -2.075,-17.494 l -20.383,-18.729 c 0.685,4.452 1.294,10.401 1.264,16.375 0.005,0.021 0.005,0.021 0.005,0.021 -0.019,8.933 -1.501,17.955 -6.325,22.237 z"
   id="path177" />&#10;				<path
   style="opacity:0.2"
   d="m 148.017,197.911 c 0.005,0.021 0.005,0.021 0.005,0.021 3.636,9.272 10.132,19.497 21.19,19.828 -4.836,-4.387 -3.954,-11.117 -2.075,-17.494 l -20.383,-18.729 c 0.685,4.451 1.293,10.4 1.263,16.374 z"
   id="path178" />&#10;			</g>&#10;			<g
   id="g181">&#10;				<path
   style="fill:#263238"
   d="m 141.654,280.375 v 0.051 c 0,0.031 0,0.041 0,0.041 -0.01,0.837 -0.031,1.685 -0.051,2.563 v 0.072 c -0.061,2.185 -0.143,4.492 -0.266,6.902 v 0.143 c -0.071,1.409 -0.153,2.859 -0.245,4.349 0,0.061 0,0.122 -0.01,0.184 -0.061,0.96 -0.122,1.94 -0.184,2.93 -0.327,4.85 -0.766,10.037 -1.297,15.468 -0.102,1.062 -0.214,2.134 -0.327,3.216 -0.143,1.338 -0.286,2.695 -0.429,4.053 -0.123,1.092 -0.245,2.185 -0.378,3.298 -0.327,2.726 -0.664,5.503 -1.021,8.311 -0.051,0.368 -0.102,0.735 -0.143,1.103 -0.02,0.112 -0.031,0.235 -0.051,0.347 -0.255,1.879 -0.511,3.778 -0.776,5.687 -0.112,0.776 -0.225,1.542 -0.327,2.318 h -14.345 c 0.01,-0.245 0.02,-0.5 0.03,-0.745 0.163,-4.676 0.215,-9.332 0.061,-13.804 -0.061,-1.807 -0.153,-3.584 -0.276,-5.33 -0.03,-0.459 -0.071,-0.929 -0.102,-1.409 -0.113,-1.429 -0.245,-2.93 -0.398,-4.503 -0.654,-6.769 -1.613,-14.754 -2.737,-23.116 0,-0.051 -0.01,-0.092 -0.021,-0.133 -0.173,-1.297 -0.347,-2.593 -0.531,-3.9 -0.051,-0.439 -0.122,-0.888 -0.184,-1.338 -0.122,-0.868 -0.235,-1.736 -0.357,-2.604 -0.143,-0.97 -0.276,-1.94 -0.419,-2.92 v -0.01 c -0.194,-1.338 -0.388,-2.685 -0.582,-4.023 -0.143,-0.98 -0.286,-1.96 -0.429,-2.93 -0.266,-1.777 -0.531,-3.553 -0.796,-5.299 -0.459,-3.094 -0.919,-6.136 -1.379,-9.077 -0.194,-1.225 -0.388,-2.44 -0.572,-3.635 -0.194,-1.195 -0.378,-2.369 -0.551,-3.512 -0.092,-0.572 -0.184,-1.133 -0.276,-1.685 -0.225,-1.409 -0.439,-2.787 -0.653,-4.125 -0.082,-0.531 -0.174,-1.052 -0.255,-1.572 -0.133,-0.848 -0.266,-1.664 -0.398,-2.471 -0.071,-0.429 -0.133,-0.837 -0.204,-1.256 -0.041,-0.235 -0.082,-0.47 -0.112,-0.704 -0.112,-0.664 -0.214,-1.307 -0.317,-1.93 -0.153,-0.919 -0.296,-1.807 -0.439,-2.645 -0.061,-0.398 -0.133,-0.796 -0.194,-1.174 -0.041,-0.235 -0.072,-0.47 -0.113,-0.704 -0.857,-5.126 -1.388,-8.199 -1.388,-8.199 0,0 0,-0.01 0.01,0 0,-0.01 0,-0.01 0,-0.01 0,0 0,0 0.01,0 0.01,0 0.031,-0.01 0.061,-0.02 0.153,-0.072 0.551,-0.225 1.205,-0.449 0.184,-0.061 0.388,-0.133 0.613,-0.214 0.153,-0.051 0.327,-0.112 0.51,-0.163 1.726,-0.572 4.37,-1.358 7.852,-2.175 1.511,-0.347 3.165,-0.704 4.982,-1.062 0.572,-0.102 1.154,-0.214 1.756,-0.316 0.796,-0.143 1.623,-0.286 2.481,-0.419 2.542,-0.398 5.33,-0.766 8.331,-1.072 0.419,-0.041 0.848,-0.082 1.287,-0.122 h 0.01 c 0,0 0.041,0.225 0.122,0.674 0.061,0.368 0.143,0.888 0.245,1.552 -0.01,0.01 0,0.01 0.01,0.02 0,0.041 0.011,0.092 0.011,0.143 0.01,0.031 0.02,0.061 0.02,0.102 0.041,0.245 0.082,0.511 0.123,0.796 0.143,0.919 0.306,2.011 0.48,3.257 0.031,0.214 0.061,0.429 0.092,0.653 0.061,0.439 0.123,0.888 0.184,1.358 0.061,0.47 0.133,0.97 0.194,1.48 0.061,0.5 0.133,1.021 0.194,1.552 0.347,2.798 0.715,6.034 1.062,9.638 0.041,0.429 0.082,0.878 0.123,1.327 0.102,1.184 0.214,2.41 0.316,3.665 0.02,0.225 0.041,0.449 0.051,0.684 0.082,0.909 0.153,1.838 0.214,2.777 0.031,0.398 0.061,0.786 0.082,1.184 0.031,0.398 0.061,0.807 0.082,1.205 0.031,0.408 0.061,0.817 0.082,1.225 0.041,0.653 0.081,1.317 0.122,1.991 0.02,0.327 0.031,0.664 0.051,1.001 0.031,0.531 0.061,1.072 0.092,1.623 0.01,0.286 0.02,0.582 0.041,0.878 0.31,6.527 0.463,13.593 0.341,20.954 z"
   id="path179" />&#10;				<path
   style="opacity:0.2;fill:#ffffff"
   d="m 141.664,280.385 c -0.01,0.02 -0.01,0.031 -0.01,0.041 0,0.02 0.01,0.031 0.01,0.031 -0.01,0.837 -0.031,1.695 -0.061,2.573 v 0.072 c -0.051,2.185 -0.143,4.492 -0.266,6.902 v 0.143 c -0.071,1.409 -0.153,2.859 -0.245,4.349 0,0.061 0,0.122 -0.01,0.184 -0.051,0.96 -0.112,1.94 -0.184,2.93 -0.327,4.85 -0.766,10.037 -1.297,15.468 -0.102,1.062 -0.214,2.134 -0.327,3.216 -0.143,1.338 -0.286,2.695 -0.429,4.053 -0.123,1.092 -0.255,2.185 -0.378,3.298 -0.327,2.726 -0.664,5.503 -1.021,8.311 -0.051,0.368 -0.102,0.735 -0.143,1.103 h -0.01 c -0.01,0.112 -0.031,0.235 -0.041,0.347 -0.255,1.879 -0.511,3.778 -0.776,5.687 -0.112,0.776 -0.225,1.542 -0.327,2.318 h -14.345 c -0.01,0.112 -0.01,0.214 -0.021,0.327 0.01,-0.112 0.01,-0.225 0.01,-0.327 0.01,-0.245 0.02,-0.5 0.041,-0.745 0.163,-4.676 0.215,-9.332 0.061,-13.804 -0.051,-1.807 -0.143,-3.594 -0.265,-5.33 -0.031,-0.459 -0.071,-0.929 -0.112,-1.409 -0.113,-1.429 -0.245,-2.93 -0.398,-4.503 -0.633,-6.769 -1.603,-14.754 -2.737,-23.116 0,-0.051 -0.01,-0.092 -0.021,-0.133 -0.092,-0.694 -0.184,-1.378 -0.276,-2.073 -0.082,-0.613 -0.163,-1.215 -0.255,-1.827 -0.051,-0.439 -0.122,-0.888 -0.184,-1.338 -0.112,-0.868 -0.235,-1.736 -0.357,-2.604 -0.143,-0.97 -0.276,-1.94 -0.419,-2.92 v -0.01 c -0.194,-1.338 -0.388,-2.685 -0.582,-4.023 -0.143,-0.98 -0.286,-1.96 -0.429,-2.93 -0.266,-1.777 -0.531,-3.553 -0.796,-5.299 -0.459,-3.094 -0.919,-6.136 -1.379,-9.077 -0.092,-0.541 -0.174,-1.062 -0.255,-1.593 -0.102,-0.684 -0.214,-1.368 -0.316,-2.042 -0.194,-1.195 -0.378,-2.369 -0.551,-3.512 -0.092,-0.572 -0.184,-1.133 -0.276,-1.685 -0.225,-1.409 -0.439,-2.787 -0.653,-4.125 -0.082,-0.531 -0.174,-1.062 -0.255,-1.572 -0.133,-0.848 -0.266,-1.664 -0.398,-2.471 -0.071,-0.429 -0.133,-0.837 -0.204,-1.256 -0.041,-0.235 -0.082,-0.47 -0.112,-0.704 -0.112,-0.664 -0.214,-1.307 -0.317,-1.93 -0.153,-0.919 -0.296,-1.807 -0.439,-2.645 -0.061,-0.398 -0.133,-0.796 -0.194,-1.174 -0.041,-0.235 -0.072,-0.47 -0.113,-0.704 -0.817,-4.952 -1.337,-7.995 -1.378,-8.199 0,-0.01 0,-0.01 0,-0.01 0,0 0,0 0.01,0 0.01,0 0.031,-0.01 0.061,-0.02 0.153,-0.072 0.551,-0.225 1.205,-0.449 0.184,-0.072 0.388,-0.133 0.613,-0.214 0.153,-0.051 0.327,-0.112 0.51,-0.163 1.726,-0.572 4.37,-1.358 7.852,-2.175 1.511,-0.347 3.165,-0.704 4.982,-1.062 0.572,-0.102 1.154,-0.214 1.756,-0.316 0.796,-0.143 1.623,-0.286 2.481,-0.419 2.542,-0.398 5.33,-0.766 8.331,-1.072 0.429,-0.051 0.858,-0.092 1.287,-0.133 0,0 0,0 0,0.01 0,0.01 0.01,0.031 0.01,0.051 v 0.01 c 0.02,0.102 0.061,0.306 0.112,0.613 0.061,0.368 0.143,0.888 0.255,1.552 0,0.051 0.01,0.112 0.021,0.163 0.01,0.031 0.02,0.061 0.02,0.102 0.031,0.245 0.072,0.511 0.123,0.796 0.133,0.909 0.296,2.001 0.48,3.257 0.031,0.214 0.061,0.429 0.092,0.653 0.051,0.429 0.112,0.888 0.184,1.358 0.061,0.47 0.133,0.97 0.194,1.48 0.061,0.5 0.123,1.021 0.194,1.552 0.347,2.798 0.715,6.034 1.062,9.638 0.041,0.439 0.082,0.878 0.123,1.327 0.102,1.184 0.214,2.41 0.316,3.665 0.02,0.225 0.041,0.449 0.051,0.684 0.082,0.909 0.153,1.838 0.214,2.777 0.031,0.398 0.061,0.786 0.082,1.184 0.031,0.398 0.061,0.807 0.082,1.205 0.031,0.408 0.061,0.817 0.082,1.225 0.041,0.653 0.081,1.317 0.122,1.991 0.02,0.327 0.031,0.664 0.051,1.001 0.031,0.541 0.061,1.082 0.092,1.623 0.01,0.286 0.02,0.582 0.041,0.878 0.079,1.671 0.146,3.38 0.202,5.118 0.166,5.057 0.23,10.369 0.147,15.847 z"
   id="path180" />&#10;				<path
   style="opacity:0.2;fill:#ffffff"
   d="m 137.322,220.634 c 0,0 4.867,26.941 4.336,59.744 -0.008,0.066 -0.004,0.087 -0.004,0.087 l -18.983,-39.346 10.775,-3.325 -12.33,-4.189 6.58,-11.773 c 2.911,-0.452 6.128,-0.882 9.626,-1.198 z"
   id="path181" />&#10;			</g>&#10;			<g
   id="g184">&#10;				<path
   style="fill:#263238"
   d="m 218.495,341.411 h -4.656 c -1.368,-7.75 -2.971,-16.316 -4.819,-25.505 -0.939,-4.646 -1.95,-9.444 -3.022,-14.386 -1.266,-5.84 -2.634,-11.864 -4.094,-18.051 -0.653,-2.777 -1.317,-5.452 -1.95,-8.005 -0.745,-2.971 -1.491,-5.789 -2.216,-8.454 -11.17,-41.096 -19.563,-47.62 -20.124,-48.018 l 7.627,0.96 13.825,1.766 v 0.01 c 2.777,9.138 5.493,22.166 8.045,36.92 1.348,7.831 2.655,16.142 3.9,24.617 v 0.01 c 2.92,19.93 5.493,40.728 7.484,58.136 z"
   id="path182" />&#10;				<path
   style="opacity:0.2;fill:#ffffff"
   d="m 218.495,341.411 h -4.656 c -1.368,-7.75 -2.971,-16.316 -4.819,-25.505 -0.939,-4.646 -1.95,-9.444 -3.022,-14.386 -1.266,-5.84 -2.634,-11.864 -4.094,-18.051 -0.653,-2.777 -1.317,-5.452 -1.95,-8.005 -0.745,-2.971 -1.491,-5.789 -2.216,-8.454 -11.17,-41.096 -19.563,-47.62 -20.124,-48.018 l 7.627,0.96 13.825,1.766 v 0.01 c 2.777,9.138 5.493,22.166 8.045,36.92 1.348,7.831 2.655,16.142 3.9,24.617 v 0.01 c 2.92,19.93 5.493,40.728 7.484,58.136 z"
   id="path183" />&#10;				<path
   style="opacity:0.2;fill:#ffffff"
   d="m 188.836,234.615 9.208,3.418 c 0,0 2.851,24.461 1.907,37.428 -12.264,-48.68 -21.729,-56.037 -22.334,-56.47 l 7.625,0.955 c 3.408,2.15 8.742,5.94 12.302,10.591 z"
   id="path184" />&#10;			</g>&#10;			<g
   id="g197">&#10;				<path
   style="fill:#263238"
   d="m 173.16,156.21 c 0,0 10.661,6.762 7.037,25.686 -3.625,18.923 -26.491,-18.714 -7.037,-25.686 z"
   id="path185" />&#10;				<path
   style="fill:#ebb376"
   d="m 140.9,180.466 c 2.68,14.634 0.855,17.241 9.218,23.849 12.579,9.939 31.178,9.968 32.047,-5.288 0.782,-13.732 -0.742,-38.262 -15.89,-42.265 -14.925,-3.944 -28.055,9.07 -25.375,23.704 z"
   id="path186" />&#10;				<path
   style="fill:#263238"
   d="m 158.919,179.832 c 0.199,1.252 0.786,1.294 1.604,1.156 0.818,-0.138 1.558,-0.402 1.359,-1.654 -0.199,-1.252 -1.024,-2.156 -1.842,-2.018 -0.818,0.137 -1.32,1.264 -1.121,2.516 z"
   id="path187" />&#10;				<path
   style="fill:#263238"
   d="m 174.413,178.958 c 0.199,1.252 0.786,1.294 1.604,1.156 0.818,-0.137 1.558,-0.402 1.359,-1.654 -0.199,-1.252 -1.024,-2.156 -1.842,-2.018 -0.818,0.137 -1.32,1.264 -1.121,2.516 z"
   id="path188" />&#10;				<path
   style="fill:#d58745"
   d="m 171.968,178.673 c 0,0 2.743,5.358 5.429,7.799 -1.561,1.781 -4.547,1.357 -4.547,1.357 z"
   id="path189" />&#10;				<path
   style="fill:#263238"
   d="m 155.918,174.464 c -0.124,-0.012 -0.245,-0.055 -0.353,-0.131 -0.335,-0.236 -0.412,-0.701 -0.173,-1.038 2.398,-3.373 5.838,-3.295 5.983,-3.29 0.412,0.014 0.73,0.359 0.712,0.77 -0.018,0.41 -0.363,0.731 -0.773,0.719 v 0 c -0.113,-0.003 -2.796,-0.036 -4.71,2.656 -0.162,0.228 -0.428,0.34 -0.686,0.314 z"
   id="path190" />&#10;				<path
   style="fill:#263238"
   d="m 179.792,172.401 c -0.231,0.068 -0.491,0.021 -0.687,-0.146 -2.49,-2.127 -5.076,-1.411 -5.185,-1.379 -0.394,0.114 -0.805,-0.111 -0.917,-0.505 -0.112,-0.394 0.112,-0.807 0.505,-0.925 0.143,-0.04 3.446,-0.995 6.566,1.669 0.312,0.266 0.347,0.737 0.08,1.052 -0.1,0.116 -0.226,0.195 -0.362,0.234 z"
   id="path191" />&#10;				<path
   style="fill:#263238"
   d="m 143.596,190.271 c 6.864,3.67 5.083,-3.294 4.585,-3.995 -2.178,-3.067 -0.485,-7.454 1.6,-13.635 0.928,-2.75 0.048,-7.165 0.048,-7.165 0,0 -8.356,-1.35 -13.277,0.055 -5.081,1.451 -5.136,5.578 -5.136,5.578 1.514,12.931 6.65,16.205 12.18,19.162 z"
   id="path192" />&#10;				<path
   style="fill:#ebb376"
   d="m 135.344,191.118 c 1.871,3.369 4.888,5.563 7.644,6.388 4.147,1.242 5.872,-2.877 4.427,-7.191 -1.3,-3.883 -5.024,-9.209 -9.046,-8.546 -3.961,0.654 -5.164,5.498 -3.025,9.349 z"
   id="path193" />&#10;				<g
   id="g196">&#10;					<path
   style="fill:#263238"
   d="m 174.927,192.201 c -0.806,2.304 -1.417,6.535 -1.417,6.535 -0.393,0.014 -0.787,0.028 -1.18,0.021 -5.339,0.053 -7.834,-1.687 -8.98,-3.632 -0.623,-1.066 -0.83,-2.208 -0.876,-3.139 -0.064,-1.077 0.135,-1.86 0.135,-1.86 2.848,1.663 7.829,1.997 10.497,2.065 1.117,0.039 1.821,0.01 1.821,0.01 z"
   id="path194" />&#10;					<path
   style="fill:#ffffff"
   d="m 173.107,192.19 -0.468,1.916 c -5.029,0.037 -8.575,-0.611 -10.165,-2.12 -0.064,-1.077 0.135,-1.86 0.135,-1.86 2.848,1.663 7.829,1.997 10.498,2.064 z"
   id="path195" />&#10;					<path
   style="fill:#de5753"
   d="m 172.331,198.757 c -5.339,0.053 -7.834,-1.687 -8.98,-3.632 1.82,0.052 4.009,0.318 5.941,1.117 1.479,0.605 2.414,1.553 3.039,2.515 z"
   id="path196" />&#10;				</g>&#10;				<path
   style="fill:#263238"
   d="m 131.695,173.127 c 0,0 -6.378,-8.041 3.66,-16.282 10.038,-8.241 26.463,-9.665 35.891,-6.665 9.428,3 2.851,11.025 -6.958,14.711 -5.368,2.018 -7.659,1.153 -7.659,1.153 0,0 2.83,0.274 6.721,-3.564 0,0 -13.497,0.328 -15.431,8.578 -1.935,8.251 -16.224,2.069 -16.224,2.069 z"
   id="path197" />&#10;			</g>&#10;			<path
   style="opacity:0.2"
   d="m 118.085,290.298 c -0.567,-4.198 -1.168,-8.476 -1.792,-12.72 -0.405,-2.764 -0.809,-5.527 -1.226,-8.233 0.44,-1.122 0.902,-2.186 1.596,-3.064 0,0 3.781,10.048 1.422,24.017 z"
   id="path198" />&#10;			<path
   style="fill:#407bff"
   d="m 161.439,232.176 7.255,5.681 c 0,0 5.563,35.22 5.346,65.668 l 6.37,6.81 4.711,-8.051 c 0,0 -8.448,-49.575 -13.238,-64.428 l 4.261,-8.273 -8.019,-0.09 z"
   id="path199" />&#10;			<g
   id="g205">&#10;				<g
   id="g200">&#10;					<path
   style="fill:#407bff"
   d="m 168.125,229.494 c 0,0 -3.567,4.909 -7.801,9.82 -6.875,-2.775 -23.064,-10.381 -23.002,-18.681 0.708,-2.476 6.849,-4.525 6.849,-4.525 0,0 7.588,8.292 23.954,13.386 z"
   id="path200" />&#10;				</g>&#10;				<g
   id="g201">&#10;					<path
   style="fill:#407bff"
   d="m 168.125,229.494 c 0,0 5.492,3.562 9.268,8.363 4.587,-3.553 0.833,-18.671 -1.092,-20.215 -4.036,-1.984 -8.537,-1.476 -8.537,-1.476 0,0 4.042,6.678 0.361,13.328 z"
   id="path201" />&#10;				</g>&#10;				<g
   style="opacity:0.6"
   id="g204">&#10;					<g
   id="g202">&#10;						<path
   style="fill:#ffffff"
   d="m 168.125,229.494 c 0,0 -3.567,4.909 -7.801,9.82 -6.875,-2.775 -23.064,-10.381 -23.002,-18.681 0.708,-2.476 6.849,-4.525 6.849,-4.525 0,0 7.588,8.292 23.954,13.386 z"
   id="path202" />&#10;					</g>&#10;					<g
   id="g203">&#10;						<path
   style="fill:#ffffff"
   d="m 168.125,229.494 c 0,0 5.492,3.562 9.268,8.363 4.587,-3.553 0.833,-18.671 -1.092,-20.215 -4.036,-1.984 -8.537,-1.476 -8.537,-1.476 0,0 4.042,6.678 0.361,13.328 z"
   id="path203" />&#10;					</g>&#10;				</g>&#10;			</g>&#10;			<path
   style="fill:#263238"
   d="m 118.66,271.421 -0.347,1.981 -1.44,8.199 v 0.01 l -4.778,27.2 0.766,32.601 h -8.628 V 231.234 c 1.307,-2.563 2.644,-4.196 3.982,-4.584 v 0.01 c 0,0 0,-0.01 0.01,0 0.214,0.235 4.799,5.483 7.862,16.837 0.939,3.461 1.725,7.484 2.215,12.109 0.491,4.655 0.665,9.913 0.358,15.815 z"
   id="path205" />&#10;			<path
   style="opacity:0.2;fill:#ffffff"
   d="m 118.66,271.421 -0.347,1.981 -1.44,8.199 v 0.01 l -4.778,27.2 0.766,32.601 h -8.628 V 231.234 c 1.307,-2.563 2.644,-4.196 3.982,-4.584 v 0.01 c 0,0 0,-0.01 0.01,0 0.214,0.235 4.799,5.483 7.862,16.837 0.939,3.461 1.725,7.484 2.215,12.109 0.491,4.655 0.665,9.913 0.358,15.815 z"
   id="path206" />&#10;			<g
   id="g215">&#10;				<path
   style="fill:#263238"
   d="m 147.3,186.073 c 1.561,5.517 -0.034,11.068 -3.561,12.397 -3.527,1.329 -7.651,-2.066 -9.212,-7.583 -1.56,-5.518 0.034,-11.068 3.561,-12.397 3.527,-1.33 7.651,2.065 9.212,7.583 z"
   id="path207" />&#10;				<path
   style="opacity:0.2;fill:#ffffff"
   d="m 147.3,186.073 c 1.561,5.517 -0.034,11.068 -3.561,12.397 -3.527,1.329 -7.651,-2.066 -9.212,-7.583 -1.56,-5.518 0.034,-11.068 3.561,-12.397 3.527,-1.33 7.651,2.065 9.212,7.583 z"
   id="path208" />&#10;				<path
   style="fill:#263238"
   d="m 139.941,183.737 c 0,0 -2.618,-27.527 11.212,-34.102 0,0 -1.88,-0.368 -3.87,0.54 -1.99,0.908 -13.944,5.873 -11.941,33.328 z"
   id="path209" />&#10;				<path
   style="opacity:0.4;fill:#ffffff"
   d="m 139.778,180.503 c 0.046,2.012 0.162,3.238 0.162,3.238 l -4.602,-0.243 c -0.046,-0.59 -0.081,-1.168 -0.104,-1.734 -1.387,-25.925 10.106,-30.701 12.049,-31.591 1.989,-0.902 3.874,-0.532 3.874,-0.532 -10.905,5.18 -11.587,23.392 -11.379,30.862 z"
   id="path210" />&#10;				<path
   style="fill:#263238"
   d="m 183.253,201.535 -2.574,0.548 c -0.465,0.099 -0.923,-0.198 -1.022,-0.663 l -0.056,-0.264 c -0.099,-0.465 0.198,-0.923 0.663,-1.022 l 2.574,-0.548 c 0.465,-0.099 0.923,0.198 1.022,0.663 l 0.056,0.264 c 0.099,0.465 -0.198,0.923 -0.663,1.022 z"
   id="path211" />&#10;				<path
   style="opacity:0.2;fill:#ffffff"
   d="m 183.253,201.535 -2.574,0.548 c -0.465,0.099 -0.923,-0.198 -1.022,-0.663 l -0.056,-0.264 c -0.099,-0.465 0.198,-0.923 0.663,-1.022 l 2.574,-0.548 c 0.465,-0.099 0.923,0.198 1.022,0.663 l 0.056,0.264 c 0.099,0.465 -0.198,0.923 -0.663,1.022 z"
   id="path212" />&#10;				<path
   style="opacity:0.2"
   d="m 139.94,183.741 -4.602,-0.243 c -0.046,-0.59 -0.081,-1.168 -0.104,-1.734 0,0 1.229,-2.27 4.544,-1.26 0.046,2.011 0.162,3.237 0.162,3.237 z"
   id="path213" />&#10;				<path
   style="fill:#263238"
   d="m 143.795,187.725 c 1.173,4.149 -0.025,8.322 -2.677,9.322 -2.652,1 -5.753,-1.553 -6.926,-5.702 -1.173,-4.149 0.025,-8.322 2.677,-9.322 2.652,-1 5.753,1.553 6.926,5.702 z"
   id="path214" />&#10;				<path
   style="opacity:0.4;fill:#ffffff"
   d="m 143.795,187.725 c 1.173,4.149 -0.025,8.322 -2.677,9.322 -2.652,1 -5.753,-1.553 -6.926,-5.702 -1.173,-4.149 0.025,-8.322 2.677,-9.322 2.652,-1 5.753,1.553 6.926,5.702 z"
   id="path215" />&#10;			</g>&#10;		</g>&#10;	</g>&#10;</g><g
   id="Screen_3"
   transform="matrix(0.48145925,0,0,0.48145925,-19.757136,-52.970239)">&#10;	<g
   id="g225">&#10;		<path
   style="fill:#407bff"
   d="m 376.883,240.741 h -60.142 c -1.41,0 -2.553,-1.143 -2.553,-2.553 v -56.197 c 0,-1.41 1.143,-2.553 2.553,-2.553 h 60.142 c 1.41,0 2.553,1.143 2.553,2.553 v 56.197 c 0,1.41 -1.143,2.553 -2.553,2.553 z"
   id="path217" />&#10;		<path
   style="opacity:0.7;fill:#ffffff"
   d="m 376.883,240.741 h -60.142 c -1.41,0 -2.553,-1.143 -2.553,-2.553 v -56.197 c 0,-1.41 1.143,-2.553 2.553,-2.553 h 60.142 c 1.41,0 2.553,1.143 2.553,2.553 v 56.197 c 0,1.41 -1.143,2.553 -2.553,2.553 z"
   id="path218" />&#10;		<g
   id="g220">&#10;			<circle
   style="fill:#407bff"
   cx="346.81201"
   cy="210.09"
   r="21.158001"
   id="circle218" />&#10;			<path
   style="opacity:0.3;fill:#ffffff"
   d="m 346.812,210.09 h 21.158 c 0,11.607 -9.551,21.158 -21.158,21.158 -11.607,0 -21.158,-9.551 -21.158,-21.158 0,-11.607 9.551,-21.158 21.158,-21.158 2.668,0 5.313,0.505 7.793,1.488 z"
   id="path219" />&#10;			<path
   style="opacity:0.3;fill:#ffffff"
   d="m 346.812,210.09 -0.564,21.151 c -11.39,-0.304 -20.594,-9.757 -20.594,-21.151 0,-11.607 9.551,-21.158 21.158,-21.158 2.668,0 5.313,0.505 7.793,1.488 z"
   id="path220" />&#10;		</g>&#10;		<circle
   style="fill:#ffffff"
   cx="346.81201"
   cy="210.09"
   r="13.198"
   id="circle220" />&#10;		<rect
   x="320.65601"
   y="186.395"
   style="fill:#ffffff"
   width="9.5059996"
   height="4.9759998"
   id="rect220" />&#10;		<rect
   x="363.21701"
   y="229.802"
   style="fill:#ffffff"
   width="9.5059996"
   height="4.9759998"
   id="rect221" />&#10;		<rect
   x="362.23401"
   y="184.569"
   style="fill:#ffffff"
   width="9.5059996"
   height="4.9759998"
   id="rect222" />&#10;		&#10;			<line
   style="fill:none;stroke:#ffffff;stroke-width:0.4814;stroke-miterlimit:10"
   x1="325.409"
   y1="188.883"
   x2="333.61301"
   y2="197.924"
   id="line222" />&#10;		&#10;			<line
   style="fill:none;stroke:#ffffff;stroke-width:0.4814;stroke-miterlimit:10"
   x1="366.987"
   y1="187.44901"
   x2="361.414"
   y2="199.5"
   id="line223" />&#10;		&#10;			<line
   style="fill:none;stroke:#ffffff;stroke-width:0.4814;stroke-miterlimit:10"
   x1="367.97"
   y1="232.28999"
   x2="360.55301"
   y2="221.27901"
   id="line224" />&#10;		<path
   style="fill:#ffffff"
   d="m 334.253,197.924 c 0,0.353 -0.287,0.64 -0.64,0.64 -0.353,0 -0.64,-0.286 -0.64,-0.64 0,-0.354 0.286,-0.64 0.64,-0.64 0.354,0 0.64,0.286 0.64,0.64 z"
   id="path224" />&#10;		<circle
   style="fill:#ffffff"
   cx="361.414"
   cy="199.5"
   r="0.63999999"
   id="circle224" />&#10;		<path
   style="fill:#ffffff"
   d="m 361.193,221.279 c 0,0.353 -0.287,0.64 -0.64,0.64 -0.353,0 -0.64,-0.287 -0.64,-0.64 0,-0.354 0.286,-0.64 0.64,-0.64 0.354,0 0.64,0.286 0.64,0.64 z"
   id="path225" />&#10;	</g>&#10;</g><g
   id="Screen_2"
   transform="matrix(0.48145925,0,0,0.48145925,-19.757136,-52.970239)">&#10;	<g
   id="g243">&#10;		<path
   style="fill:#407bff"
   d="m 368.48,332.921 h -76.512 c -1.41,0 -2.553,-1.143 -2.553,-2.553 v -56.197 c 0,-1.41 1.143,-2.553 2.553,-2.553 h 76.512 c 1.41,0 2.553,1.143 2.553,2.553 v 56.197 c 0,1.41 -1.143,2.553 -2.553,2.553 z"
   id="path226" />&#10;		<path
   style="opacity:0.7;fill:#ffffff"
   d="m 368.48,332.921 h -76.512 c -1.41,0 -2.553,-1.143 -2.553,-2.553 v -56.197 c 0,-1.41 1.143,-2.553 2.553,-2.553 h 76.512 c 1.41,0 2.553,1.143 2.553,2.553 v 56.197 c 0,1.41 -1.143,2.553 -2.553,2.553 z"
   id="path227" />&#10;		<g
   id="g242">&#10;			<path
   style="opacity:0.1"
   d="m 362.509,285.182 v -0.241 h -3.82 v -3.589 h -0.241 v 3.589 h -6.391 v -3.589 h -0.241 v 3.589 h -6.392 v -3.589 h -0.241 v 3.589 h -6.392 v -3.589 h -0.241 v 3.589 h -6.392 v -3.589 h -0.241 v 3.589 h -6.391 v -3.589 h -0.241 v 3.589 h -6.392 v -3.589 h -0.241 v 3.589 h -6.392 v -3.589 h -0.241 v 3.589 h -6.392 v -3.589 h -0.241 v 3.589 h -7.183 v 0.241 h 7.183 v 6.085 h -7.183 v 0.241 h 7.183 v 6.085 h -7.183 v 0.241 h 7.183 v 6.085 h -7.183 v 0.241 h 7.183 v 6.085 h -7.183 v 0.241 h 7.183 v 6.085 h -7.183 v 0.241 h 7.183 v 6.78 h 0.241 v -6.78 h 6.392 v 6.78 h 0.241 v -6.78 h 6.392 v 6.78 h 0.241 v -6.78 h 6.392 v 6.78 h 0.241 v -6.78 h 6.391 v 6.78 h 0.241 v -6.78 h 6.392 v 6.78 h 0.241 v -6.78 h 6.392 v 6.78 h 0.241 v -6.78 h 6.392 v 6.78 h 0.241 v -6.78 h 6.391 v 6.78 h 0.241 v -6.78 h 3.82 v -0.241 h -3.82 v -6.085 h 3.82 v -0.241 h -3.82 v -6.085 h 3.82 v -0.241 h -3.82 v -6.085 h 3.82 v -0.241 h -3.82 v -6.085 h 3.82 v -0.241 h -3.82 v -6.085 z m -10.692,0 v 6.085 h -6.392 v -6.085 z m -26.289,12.651 h 6.391 v 6.085 h -6.391 z m -0.241,6.085 h -6.392 v -6.085 h 6.392 z m 6.873,-6.085 h 6.392 v 6.085 h -6.392 z m 6.633,0 h 6.392 v 6.085 h -6.392 z m 0,-0.241 v -6.085 h 6.392 v 6.085 z m -0.241,0 h -6.392 v -6.085 h 6.392 z m -6.633,0 h -6.391 v -6.085 h 6.391 z m -6.632,0 h -6.392 v -6.085 h 6.392 z m -6.632,0 h -6.392 v -6.085 h 6.392 z m 0,0.241 v 6.085 h -6.392 v -6.085 z m 0,6.326 v 6.085 h -6.392 v -6.085 z m 0.241,0 h 6.392 v 6.085 h -6.392 z m 6.632,0 h 6.391 v 6.085 h -6.391 z m 6.632,0 h 6.392 v 6.085 h -6.392 z m 6.633,0 h 6.392 v 6.085 h -6.392 z m 6.632,0 h 6.392 v 6.085 h -6.392 z m 0,-0.241 v -6.085 h 6.392 v 6.085 z m 0,-6.326 v -6.085 h 6.392 v 6.085 z m -0.241,-12.41 v 6.085 h -6.392 v -6.085 z m -6.632,0 v 6.085 h -6.392 v -6.085 z m -6.633,0 v 6.085 h -6.391 v -6.085 z m -6.632,0 v 6.085 h -6.392 v -6.085 z m -6.632,0 v 6.085 h -6.392 v -6.085 z m -13.024,0 h 6.392 v 6.085 h -6.392 z m 0,6.326 h 6.392 v 6.085 h -6.392 z m 0,6.325 h 6.392 v 6.085 h -6.392 z m 0,6.326 h 6.392 v 6.085 h -6.392 z m 0,12.41 v -6.085 h 6.392 v 6.085 z m 6.632,0 v -6.085 h 6.392 v 6.085 z m 6.633,0 v -6.085 h 6.392 v 6.085 z m 6.632,0 v -6.085 h 6.391 v 6.085 z m 6.632,0 v -6.085 h 6.392 v 6.085 z m 6.633,0 v -6.085 h 6.392 v 6.085 z m 6.632,0 v -6.085 h 6.392 v 6.085 z m 13.024,0 h -6.391 v -6.085 h 6.391 z m 0,-6.326 h -6.391 v -6.085 h 6.391 z m 0,-6.325 h -6.391 v -6.085 h 6.391 z m 0,-6.326 h -6.391 v -6.085 h 6.391 z m 0,-6.325 h -6.391 v -6.085 h 6.391 z"
   id="path228" />&#10;			<path
   style="fill:#ffffff"
   d="m 306.963,320.338 c 0,0.868 -0.704,1.573 -1.572,1.573 -0.868,0 -1.573,-0.704 -1.573,-1.573 0,-0.868 0.704,-1.572 1.573,-1.572 0.868,0 1.572,0.704 1.572,1.572 z"
   id="path229" />&#10;			<polyline
   style="fill:none;stroke:#ffffff;stroke-width:0.9629;stroke-miterlimit:10"
   points="298.64,323.033 305.39,320.338      312.023,316.809 318.655,314.135 325.287,310.243 338.552,313.526 345.184,310.243 358.689,304.159    "
   id="polyline229" />&#10;			<polyline
   style="fill:none;stroke:#263238;stroke-width:0.9629;stroke-miterlimit:10"
   points="362.241,323.033 297.939,323.033      297.939,280.949    "
   id="polyline230" />&#10;			<polyline
   style="fill:none;stroke:#407bff;stroke-width:0.9629;stroke-miterlimit:10"
   points="297.939,323.033 305.39,316.569      312.023,307.99 318.896,310.243 325.528,304.159 338.552,310.484 345.184,303.918 358.449,291.508    "
   id="polyline231" />&#10;			<path
   style="fill:#ffffff;stroke:#407bff;stroke-width:0.9629;stroke-miterlimit:10"
   d="m 306.963,316.569 c 0,0.868 -0.704,1.572 -1.572,1.572 -0.868,0 -1.573,-0.704 -1.573,-1.572 0,-0.868 0.704,-1.572 1.573,-1.572 0.868,-0.001 1.572,0.703 1.572,1.572 z"
   id="path231" />&#10;			<path
   style="fill:#ffffff"
   d="m 313.595,316.569 c 0,0.868 -0.704,1.572 -1.572,1.572 -0.868,0 -1.573,-0.704 -1.573,-1.572 0,-0.868 0.704,-1.572 1.573,-1.572 0.868,-0.001 1.572,0.703 1.572,1.572 z"
   id="path232" />&#10;			<circle
   style="fill:#ffffff"
   cx="318.655"
   cy="314.13501"
   r="1.572"
   id="circle232" />&#10;			<path
   style="fill:#ffffff"
   d="m 326.86,310.484 c 0,0.868 -0.704,1.572 -1.572,1.572 -0.868,0 -1.572,-0.704 -1.572,-1.572 0,-0.868 0.704,-1.572 1.572,-1.572 0.868,0 1.572,0.704 1.572,1.572 z"
   id="path233" />&#10;			<path
   style="fill:#ffffff"
   d="m 340.124,313.526 c 0,0.868 -0.704,1.572 -1.573,1.572 -0.868,0 -1.572,-0.704 -1.572,-1.572 0,-0.868 0.704,-1.572 1.572,-1.572 0.869,0 1.573,0.704 1.573,1.572 z"
   id="path234" />&#10;			<path
   style="fill:#ffffff"
   d="m 346.757,310.484 c 0,0.868 -0.704,1.572 -1.573,1.572 -0.868,0 -1.572,-0.704 -1.572,-1.572 0,-0.868 0.704,-1.572 1.572,-1.572 0.869,0 1.573,0.704 1.573,1.572 z"
   id="path235" />&#10;			<path
   style="fill:#ffffff"
   d="m 360.021,304.159 c 0,0.868 -0.704,1.572 -1.572,1.572 -0.868,0 -1.572,-0.704 -1.572,-1.572 0,-0.868 0.704,-1.573 1.572,-1.573 0.868,0 1.572,0.704 1.572,1.573 z"
   id="path236" />&#10;			<path
   style="fill:#ffffff;stroke:#407bff;stroke-width:0.9629;stroke-miterlimit:10"
   d="m 313.595,307.99 c 0,0.868 -0.704,1.573 -1.572,1.573 -0.868,0 -1.573,-0.704 -1.573,-1.573 0,-0.869 0.704,-1.572 1.573,-1.572 0.868,-0.001 1.572,0.703 1.572,1.572 z"
   id="path237" />&#10;			<path
   style="fill:#ffffff;stroke:#407bff;stroke-width:0.9629;stroke-miterlimit:10"
   d="m 320.468,310.243 c 0,0.868 -0.704,1.572 -1.573,1.572 -0.868,0 -1.572,-0.704 -1.572,-1.572 0,-0.868 0.704,-1.572 1.572,-1.572 0.869,0 1.573,0.704 1.573,1.572 z"
   id="path238" />&#10;			<path
   style="fill:#ffffff;stroke:#407bff;stroke-width:0.9629;stroke-miterlimit:10"
   d="m 327.101,304.159 c 0,0.868 -0.704,1.572 -1.572,1.572 -0.868,0 -1.573,-0.704 -1.573,-1.572 0,-0.868 0.704,-1.573 1.573,-1.573 0.868,0 1.572,0.704 1.572,1.573 z"
   id="path239" />&#10;			<path
   style="fill:#ffffff;stroke:#407bff;stroke-width:0.9629;stroke-miterlimit:10"
   d="m 340.124,310.484 c 0,0.868 -0.704,1.572 -1.573,1.572 -0.868,0 -1.572,-0.704 -1.572,-1.572 0,-0.868 0.704,-1.572 1.572,-1.572 0.869,0 1.573,0.704 1.573,1.572 z"
   id="path240" />&#10;			<path
   style="fill:#ffffff;stroke:#407bff;stroke-width:0.9629;stroke-miterlimit:10"
   d="m 346.757,303.918 c 0,0.868 -0.704,1.572 -1.573,1.572 -0.868,0 -1.572,-0.704 -1.572,-1.572 0,-0.868 0.704,-1.573 1.572,-1.573 0.869,0 1.573,0.704 1.573,1.573 z"
   id="path241" />&#10;			<path
   style="fill:#ffffff;stroke:#407bff;stroke-width:0.9629;stroke-miterlimit:10"
   d="m 360.021,291.508 c 0,0.868 -0.704,1.573 -1.572,1.573 -0.868,0 -1.572,-0.704 -1.572,-1.573 0,-0.868 0.704,-1.572 1.572,-1.572 0.868,-10e-4 1.572,0.703 1.572,1.572 z"
   id="path242" />&#10;		</g>&#10;	</g>&#10;</g><g
   id="Screen_1"
   transform="matrix(0.48145925,0,0,0.48145925,-19.757136,-52.970239)">&#10;	<g
   id="g252">&#10;		<path
   style="fill:#407bff"
   d="m 288.63,215.918 h -76.512 c -1.41,0 -2.553,-1.143 -2.553,-2.553 v -56.197 c 0,-1.41 1.143,-2.553 2.553,-2.553 h 76.512 c 1.41,0 2.553,1.143 2.553,2.553 v 56.197 c 0.001,1.41 -1.142,2.553 -2.553,2.553 z"
   id="path243" />&#10;		<path
   style="opacity:0.7;fill:#ffffff"
   d="m 288.63,215.918 h -76.512 c -1.41,0 -2.553,-1.143 -2.553,-2.553 v -56.197 c 0,-1.41 1.143,-2.553 2.553,-2.553 h 76.512 c 1.41,0 2.553,1.143 2.553,2.553 v 56.197 c 0.001,1.41 -1.142,2.553 -2.553,2.553 z"
   id="path244" />&#10;		<g
   id="g251">&#10;			<path
   style="opacity:0.1"
   d="m 282.659,168.179 v -0.241 h -3.82 v -3.589 h -0.241 v 3.589 h -6.391 v -3.589 h -0.241 v 3.589 h -6.392 v -3.589 h -0.241 v 3.589 h -6.392 v -3.589 H 258.7 v 3.589 h -6.392 v -3.589 h -0.241 v 3.589 h -6.391 v -3.589 h -0.241 v 3.589 h -6.392 v -3.589 h -0.241 v 3.589 h -6.392 v -3.589 h -0.241 v 3.589 h -6.392 v -3.589 h -0.241 v 3.589 h -7.182 v 0.241 h 7.182 v 6.085 h -7.182 v 0.241 h 7.182 v 6.085 h -7.182 v 0.241 h 7.182 v 6.085 h -7.182 v 0.241 h 7.182 v 6.085 h -7.182 v 0.241 h 7.182 v 6.085 h -7.182 v 0.241 h 7.182 v 6.78 h 0.241 v -6.78 h 6.392 v 6.78 h 0.241 v -6.78 h 6.392 v 6.78 h 0.241 v -6.78 h 6.392 v 6.78 h 0.241 v -6.78 h 6.391 v 6.78 h 0.241 v -6.78 h 6.392 v 6.78 h 0.241 v -6.78 h 6.392 v 6.78 h 0.241 v -6.78 h 6.392 v 6.78 h 0.241 v -6.78 h 6.391 v 6.78 h 0.241 v -6.78 h 3.82 v -0.241 h -3.82 v -6.085 h 3.82 v -0.241 h -3.82 v -6.085 h 3.82 v -0.241 h -3.82 v -6.085 h 3.82 v -0.241 h -3.82 v -6.085 h 3.82 v -0.241 h -3.82 v -6.085 z m -10.692,0 v 6.085 h -6.392 v -6.085 z m -26.289,12.651 h 6.391 v 6.085 h -6.391 z m -0.24,6.085 h -6.392 v -6.085 h 6.392 z m 6.872,-6.085 h 6.392 v 6.085 h -6.392 z m 6.633,0 h 6.392 v 6.085 h -6.392 z m 0,-0.241 v -6.085 h 6.392 v 6.085 z m -0.241,0 h -6.392 v -6.085 h 6.392 z m -6.632,0 h -6.391 v -6.085 h 6.391 z m -6.632,0 h -6.392 v -6.085 h 6.392 z m -6.633,0 h -6.392 v -6.085 h 6.392 z m 0,0.241 v 6.085 h -6.392 v -6.085 z m 0,6.326 v 6.085 h -6.392 v -6.085 z m 0.241,0 h 6.392 v 6.085 h -6.392 z m 6.632,0 h 6.391 v 6.085 h -6.391 z m 6.632,0 h 6.392 v 6.085 h -6.392 z m 6.633,0 h 6.392 v 6.085 h -6.392 z m 6.632,0 h 6.392 v 6.085 h -6.392 z m 0,-0.241 v -6.085 h 6.392 v 6.085 z m 0,-6.326 v -6.085 h 6.392 v 6.085 z m -0.24,-12.41 v 6.085 h -6.392 v -6.085 z m -6.633,0 v 6.085 h -6.392 v -6.085 z m -6.632,0 v 6.085 h -6.391 v -6.085 z m -6.632,0 v 6.085 h -6.392 v -6.085 z m -6.633,0 v 6.085 h -6.392 v -6.085 z m -13.024,0 h 6.392 v 6.085 h -6.392 z m 0,6.326 h 6.392 v 6.085 h -6.392 z m 0,6.325 h 6.392 v 6.085 h -6.392 z m 0,6.326 h 6.392 v 6.085 h -6.392 z m 0,12.41 v -6.085 h 6.392 v 6.085 z m 6.633,0 v -6.085 h 6.392 v 6.085 z m 6.632,0 v -6.085 h 6.392 v 6.085 z m 6.632,0 v -6.085 h 6.391 v 6.085 z m 6.632,0 v -6.085 h 6.392 v 6.085 z m 6.633,0 v -6.085 h 6.392 v 6.085 z m 6.632,0 v -6.085 h 6.392 v 6.085 z m 13.024,0 h -6.391 v -6.085 h 6.391 z m 0,-6.326 h -6.391 v -6.085 h 6.391 z m 0,-6.325 h -6.391 v -6.085 h 6.391 z m 0,-6.326 h -6.391 v -6.085 h 6.391 z m 0,-6.325 h -6.391 v -6.085 h 6.391 z"
   id="path245" />&#10;			<g
   id="g250">&#10;				<rect
   x="222.465"
   y="202.217"
   style="fill:#407bff"
   width="5.0809999"
   height="3.813"
   id="rect245" />&#10;				<rect
   x="232.298"
   y="195.17999"
   style="fill:#407bff"
   width="5.0809999"
   height="10.85"
   id="rect246" />&#10;				<rect
   x="242.132"
   y="187.364"
   style="fill:#407bff"
   width="5.0809999"
   height="18.666"
   id="rect247" />&#10;				<rect
   x="251.966"
   y="190.73801"
   style="fill:#407bff"
   width="5.0809999"
   height="15.292"
   id="rect248" />&#10;				<rect
   x="261.79901"
   y="184.601"
   style="fill:#407bff"
   width="5.0809999"
   height="21.429001"
   id="rect249" />&#10;				<rect
   x="271.633"
   y="169.646"
   style="fill:#407bff"
   width="5.0809999"
   height="36.383999"
   id="rect250" />&#10;			</g>&#10;			<polyline
   style="fill:none;stroke:#263238;stroke-width:0.9629;stroke-miterlimit:10"
   points="282.391,206.03 218.09,206.03      218.09,163.946    "
   id="polyline250" />&#10;		</g>&#10;	</g>&#10;</g><g
   id="Speech_bubble_2"
   transform="matrix(0.48145925,0,0,0.48145925,-19.757136,-52.970239)">&#10;	<g
   id="g256">&#10;		<g
   id="g253">&#10;			&#10;				<circle
   transform="matrix(0.7071,-0.7071,0.7071,0.7071,23.1978,332.4078)"
   style="fill:#407bff"
   cx="412.85101"
   cy="138.202"
   id="ellipse252"
   r="17.955" />&#10;		</g>&#10;		<g
   id="g254">&#10;			<path
   style="fill:#ffffff"
   d="m 415.507,134.39 c 0,-1.511 -1.295,-2.536 -3.372,-2.536 -1.997,0 -3.453,0.755 -4.397,2.077 l -2.617,-1.7 c 1.511,-2.05 3.939,-3.292 7.311,-3.292 3.965,0 6.609,1.808 6.609,4.91 0,4.398 -4.613,4.802 -4.613,7.985 h -3.426 c -0.001,-3.991 4.505,-4.747 4.505,-7.444 z m -4.937,11.789 c 0,-1.16 0.891,-2.077 2.158,-2.077 1.241,0 2.131,0.917 2.131,2.077 0,1.16 -0.89,2.105 -2.131,2.105 -1.268,-0.001 -2.158,-0.945 -2.158,-2.105 z"
   id="path253" />&#10;		</g>&#10;		<g
   id="g255">&#10;			<polygon
   style="fill:#407bff"
   points="415.308,154.354 412.85,151.026 410.393,154.354 412.85,161.682 "
   id="polygon254" />&#10;		</g>&#10;	</g>&#10;</g><g
   id="Character"
   transform="matrix(0.48145925,0,0,0.48145925,-19.757136,-52.970239)">&#10;	<g
   id="g309">&#10;		<path
   style="fill:#407bff"
   d="m 396.751,226.57 c 0,0 -1.22,1.45 -3.03,3.48 -1.62,1.79 -3.7,4.03 -5.83,6.11 -3.87,3.77 -7.91,7.01 -9.55,6.03 -3.15,-1.87 -1.4,-6.89 -1.4,-6.89 0,0 10.97,-20.17 17.78,-23.31 4.36,-2.01 10.87,-1.13 10.87,-1.13 0.71,1.9 -8.84,15.71 -8.84,15.71 z"
   id="path256" />&#10;		<path
   style="opacity:0.2"
   d="m 393.72,230.05 c -1.62,1.79 -3.7,4.03 -5.83,6.11 0.97,-9.6 5.58,-15.16 5.58,-15.16 0.841,1.5 0.781,5.07 0.25,9.05 z"
   id="path257" />&#10;		<path
   style="fill:#263238"
   d="m 428.92,218.999 c 3.483,-3.897 1.361,-10.958 2.447,-25.049 1.087,-14.091 -7.762,-16.003 -7.762,-16.003 0,0 -1.216,-6.956 -7.77,-6.622 -6.554,0.333 -19.368,3.398 -19.498,18.499 -0.13,15.101 -2.193,17.191 -5.687,20.235 -3.494,3.044 3.755,9.208 2.371,12.09 0,0 13.497,5.829 32.463,4.66 0,0 -0.682,-3.203 3.436,-7.81 z"
   id="path258" />&#10;		<g
   id="g262">&#10;			<path
   style="fill:#407bff"
   d="m 430.652,403.368 -0.786,1.086 -1.559,-0.667 -0.972,4.768 -6.577,9.113 c 0,0 -2.503,0.398 -0.531,-4.78 0.089,-0.236 0.161,-0.495 0.208,-0.784 0.585,-3.097 -0.703,-9.036 -0.703,-9.036 l 3.609,-5 c 0,0 0.376,0.006 1.016,0.111 1.495,0.247 4.485,0.97 6.295,5.189 z"
   id="path259" />&#10;			<path
   style="opacity:0.2"
   d="m 430.652,403.368 -0.786,1.086 -1.559,-0.667 -0.972,4.768 -6.577,9.113 c 0,0 -2.503,0.398 -0.531,-4.78 0.089,-0.236 0.161,-0.495 0.208,-0.784 0.585,-3.097 -0.703,-9.036 -0.703,-9.036 l 3.609,-5 c 0,0 0.376,0.006 1.016,0.111 1.495,0.247 4.485,0.97 6.295,5.189 z"
   id="path260" />&#10;			<path
   style="fill:#ebb376"
   d="m 424.357,398.178 c 0.008,0.005 0.015,0.011 0.015,0.011 -1.212,0.129 -0.149,5.467 -0.637,8.461 -0.44,2.672 -1.601,5.192 -3.301,5.453 0.585,-3.097 -1.526,-10.156 -1.526,-10.156 l 2.902,-4.021 c 10e-4,0 1.907,0.148 2.547,0.252 z"
   id="path261" />&#10;			<path
   style="opacity:0.2"
   d="m 424.357,398.178 c 0.008,0.005 0.015,0.011 0.015,0.011 -1.212,0.129 -0.149,5.467 -0.637,8.461 -0.44,2.672 -1.601,5.192 -3.301,5.453 0.585,-3.097 -1.526,-10.156 -1.526,-10.156 l 2.902,-4.021 c 10e-4,0 1.907,0.148 2.547,0.252 z"
   id="path262" />&#10;		</g>&#10;		<g
   id="g264">&#10;			<path
   style="fill:#407bff"
   d="m 420.584,417.329 -1.34,-0.002 -0.372,-1.654 -4.435,2.003 h -11.239 c 0,0 -1.787,-1.797 3.565,-3.228 0.243,-0.065 0.496,-0.159 0.758,-0.29 2.854,-1.338 6.915,-5.858 6.915,-5.858 h 6.167 c 0,0 0.215,0.309 0.505,0.889 0.673,1.356 1.837,4.203 -0.524,8.14 z"
   id="path263" />&#10;			<path
   style="fill:#ebb376"
   d="m 421.108,409.188 c 0,0.009 0,0.019 0,0.019 -0.814,-0.908 -4.52,3.079 -7.233,4.436 -2.424,1.207 -5.147,1.74 -6.354,0.515 2.854,-1.338 7.342,-7.181 7.342,-7.181 h 4.959 c 0,-10e-4 0.996,1.631 1.286,2.211 z"
   id="path264" />&#10;		</g>&#10;		<path
   style="fill:#263238"
   d="m 386.612,344.444 c 3.01,5.549 6.049,11.52 8.971,17.5 3.843,7.893 7.471,15.804 10.569,22.883 3.265,7.461 5.922,13.981 7.578,18.51 1.569,0.176 6.304,-2.647 7.667,-5.206 0,0 -3.353,-21.824 -11.03,-42.815 -3.059,-8.363 -6.804,-16.589 -11.304,-23.246 18.393,-52.335 13.883,-71.953 13.883,-71.953 l -21.314,-0.951 c 0,0 -3.226,19.491 -5.804,39.482 0,0 0,0 0,0.01 -1.343,10.481 -2.51,21.099 -2.941,29.119 v 0.078 c -0.314,5.774 0.971,11.51 3.725,16.589 z"
   id="path265" />&#10;		<path
   style="opacity:0.2"
   d="m 404.184,316.503 c 2.698,-8.895 4.643,-16.598 6.016,-23.205 -1.363,-5.167 -3.299,-9.591 -5.93,-12.251 -10e-4,0 -3.786,14.396 -0.086,35.456 z"
   id="path266" />&#10;		<path
   style="opacity:0.2"
   d="m 406.152,384.827 c 3.265,7.461 5.922,13.981 7.578,18.51 1.569,0.176 6.304,-2.647 7.667,-5.206 0,0 -3.353,-21.824 -11.03,-42.815 -1.558,8.667 -3.303,19.619 -4.215,29.511 z"
   id="path267" />&#10;		<g
   id="g268">&#10;			<path
   style="fill:#263238"
   d="m 399.761,256.8 c 0,0 6.205,48.015 9.761,71.123 3.735,24.268 4.209,63.208 3.275,79.077 1.359,0.79 6.315,1.745 8.992,0.908 0,0 12.655,-49.081 4.249,-77.588 7.654,-56.151 -3.423,-69.901 -3.423,-69.901 z"
   id="path268" />&#10;		</g>&#10;		<path
   style="opacity:0.7;fill:#ffffff"
   d="m 401.829,226.568 c 9.128,-8.569 20.589,-14.353 20.589,-14.353 -0.676,-0.079 -1.372,-0.147 -2.069,-0.206 -5.245,-0.431 -9.539,-0.745 -14.216,-0.48 -1.177,0.069 -2.382,0.167 -3.569,0.265 v 0.01 c -2.941,6.734 -0.735,14.764 -0.735,14.764 z"
   id="path269" />&#10;		<g
   id="g273">&#10;			<path
   style="fill:#407bff"
   d="m 422.418,256.8 c 0.647,-7.284 3.255,-20.634 7.745,-34.654 1.461,-4.559 -1.016,-9.706 -1.016,-9.706 0,0 -6.111,-0.157 -6.729,-0.225 -0.676,-0.079 -1.372,-0.147 -2.069,-0.206 -5.245,-0.431 -9.539,-0.745 -14.216,-0.48 -1.177,0.069 -2.382,0.167 -3.569,0.265 -0.382,0.039 -4.679,0.078 -5.052,0.118 0,0 -5.949,6.804 -6.312,12.314 -0.196,3.079 -0.657,5.402 -0.49,12.765 0.029,5 0.391,11.598 0.724,18.627 z"
   id="path270" />&#10;			<path
   style="opacity:0.8;fill:#ffffff"
   d="m 422.418,256.8 c 0.647,-7.284 3.255,-20.634 7.745,-34.654 1.461,-4.559 -1.016,-9.706 -1.016,-9.706 0,0 -6.111,-0.157 -6.729,-0.225 -0.676,-0.079 -1.372,-0.147 -2.069,-0.206 -5.245,-0.431 -9.539,-0.745 -14.216,-0.48 -1.177,0.069 -2.382,0.167 -3.569,0.265 -0.382,0.039 -4.679,0.078 -5.052,0.118 0,0 -5.949,6.804 -6.312,12.314 -0.196,3.079 -0.657,5.402 -0.49,12.765 0.029,5 0.391,11.598 0.724,18.627 z"
   id="path271" />&#10;			<path
   style="fill:#263238"
   d="m 422.418,256.8 -31.026,-2.092 c 0,0 -0.933,9.317 -0.716,9.184 0.216,-0.134 33.211,1.163 33.211,1.163 z"
   id="path272" />&#10;			<polygon
   points="422.418,260.174 422.136,257.312 391.435,255.617 391.435,258.526 "
   id="polygon272" />&#10;			<path
   style="fill:none;stroke:#ffffff;stroke-width:0.5;stroke-miterlimit:10"
   d="m 405.441,258.926 0.133,-1.706 c 0.025,-0.325 -0.217,-0.608 -0.542,-0.634 l -3.363,-0.262 c -0.343,-0.027 -0.635,0.244 -0.635,0.588 v 1.796 c 0,0.314 0.245,0.572 0.558,0.589 l 3.229,0.172 c 0.321,0.016 0.595,-0.224 0.62,-0.543 z"
   id="path273" />&#10;		</g>&#10;		<path
   style="fill:#407bff"
   d="m 419.897,278.114 10.726,-1.941 -6.245,-23.069 c 0,0 1.598,-5.726 3.363,-12.295 0.853,-3.196 1.745,-6.588 2.5,-9.608 1.098,-4.353 1.922,-7.961 1.98,-9.137 0.196,-3.677 -3.078,-9.628 -3.078,-9.628 l -7.745,-1.255 c 0,0 -7.059,7.794 -7.52,22.726 -0.462,14.922 6.019,44.207 6.019,44.207 z"
   id="path274" />&#10;		<path
   style="fill:#407bff"
   d="m 403.717,211.185 c 0,0 -6.723,11.722 -8.274,20.384 -1.551,8.662 -5.818,45.509 -5.818,45.509 l -2.327,-1.164 3.232,-21.979 c 0,0 -1.164,-25.478 -0.259,-30.71 0.905,-5.232 6.762,-12.041 6.762,-12.041 h 6.684 z"
   id="path275" />&#10;		<g
   id="g279">&#10;			<path
   style="fill:#407bff"
   d="m 407.052,210.629 -0.459,-0.41 c 0,0 -6.561,0.801 -12.573,8.312 l 2.327,2.275 -3.976,3.2 1.893,15.451 c 0,0 6.058,-20.59 8.676,-25.535 10e-4,0 2.187,-2.342 4.112,-3.293 z"
   id="path276" />&#10;			<path
   style="opacity:0.2"
   d="m 407.052,210.629 -0.459,-0.382 c 0,0 -6.561,0.773 -12.573,8.284 l 2.327,2.275 -3.976,3.2 1.893,15.451 c 0,0 6.058,-20.59 8.676,-25.535 10e-4,0 2.187,-2.342 4.112,-3.293 z"
   id="path277" />&#10;			<path
   style="fill:#407bff"
   d="m 419.896,211.185 c 0,0 -7.49,8.266 -5.822,29.985 l 7.325,-15.613 -2.651,-4.266 6.206,-5.818 c 0,0 -3.255,-6.17 -5.555,-5.558 z"
   id="path278" />&#10;			<path
   style="opacity:0.2"
   d="m 419.896,211.185 c 0,0 -7.49,8.266 -5.822,29.985 l 7.325,-15.613 -2.651,-4.266 6.206,-5.818 c 0,0 -3.255,-6.17 -5.555,-5.558 z"
   id="path279" />&#10;		</g>&#10;		<g
   id="g283">&#10;			<path
   style="fill:#ebb376"
   d="m 404.298,213.534 1.726,10.294 13.54,-11.844 c -2.863,-3.157 -1.059,-11.481 0.333,-16.02 l -3.834,2.873 -5.706,4.265 c 0.137,0.951 0.01,2.255 -0.275,3.51 -0.431,1.814 -1.206,3.52 -2.059,3.882 z"
   id="path280" />&#10;			<path
   style="opacity:0.2"
   d="m 410.082,206.612 c 2.275,-0.51 5.255,-2.863 5.736,-5.187 0.196,-0.98 0.284,-1.941 0.245,-2.588 l -5.706,4.265 c 0.137,0.951 0.01,2.255 -0.275,3.51 z"
   id="path281" />&#10;			<path
   style="fill:#407bff"
   d="m 418.895,209.382 c 0,0 -5.793,4.476 -12.592,13.914 0,0 -0.609,-9.422 1.723,-12.797 l -0.486,-0.58 c 0,0 -4.976,1.875 -8.962,7.107 l 4.493,-1.422 3.067,8.307 9.247,-7.63 6.218,1.077 c -0.001,-0.002 -0.317,-6.134 -2.708,-7.976 z"
   id="path282" />&#10;			<path
   style="opacity:0.7;fill:#ffffff"
   d="m 418.895,209.382 c 0,0 -5.793,4.476 -12.592,13.914 0,0 -0.609,-9.422 1.723,-12.797 l -0.486,-0.58 c 0,0 -4.976,1.875 -8.962,7.107 l 4.493,-1.422 3.067,8.307 9.247,-7.63 6.218,1.077 c -0.001,-0.002 -0.317,-6.134 -2.708,-7.976 z"
   id="path283" />&#10;		</g>&#10;		<path
   style="opacity:0.2"
   d="m 426.318,239.034 c 0.324,0.824 0.824,1.392 1.422,1.775 0.853,-3.196 1.745,-6.588 2.5,-9.608 -1.98,-2.392 -3.657,-4.392 -3.657,-4.392 0,0 -2.285,7.088 -0.265,12.225 z"
   id="path284" />&#10;		<path
   style="fill:#407bff"
   d="m 429.143,212.44 c 4.245,0.513 17.238,32.783 16.463,37.883 -0.776,5.1 -28.725,2.779 -28.725,2.779 v -7.764 l 16.313,-3.287 -5.647,-11.073 c 0,0 -1.7,-5.166 -1.227,-9.947 0.475,-4.782 2.823,-8.591 2.823,-8.591 z"
   id="path285" />&#10;		<g
   id="g290">&#10;			<path
   style="fill:#263238"
   d="m 404.689,259.612 21.443,-2.602 c 0.826,-0.1 1.395,-0.832 1.269,-1.634 L 423.635,227.8 c -0.125,-0.803 -0.896,-1.372 -1.723,-1.271 l -21.443,2.602 c -0.826,0.1 -1.395,0.832 -1.269,1.634 l 3.766,27.576 c 0.126,0.802 0.897,1.372 1.723,1.271 z"
   id="path286" />&#10;			<path
   style="opacity:0.6;fill:#ffffff"
   d="m 404.689,259.612 21.443,-2.602 c 0.826,-0.1 1.395,-0.832 1.269,-1.634 L 423.635,227.8 c -0.125,-0.803 -0.896,-1.372 -1.723,-1.271 l -21.443,2.602 c -0.826,0.1 -1.395,0.832 -1.269,1.634 l 3.766,27.576 c 0.126,0.802 0.897,1.372 1.723,1.271 z"
   id="path287" />&#10;			<path
   style="opacity:0.2;fill:#ffffff"
   d="m 405.586,259.504 20.547,-2.493 c 0.826,-0.1 1.395,-0.832 1.269,-1.634 l -3.766,-27.576 c -0.125,-0.803 -0.896,-1.372 -1.723,-1.271 l -20.547,2.493 c -0.826,0.1 -1.395,0.832 -1.269,1.635 l 3.766,27.576 c 0.125,0.801 0.896,1.37 1.723,1.27 z"
   id="path288" />&#10;			<path
   style="fill:#263238"
   d="m 413.804,240.718 c 1.279,-0.155 2.473,0.726 2.667,1.968 0.194,1.243 -0.686,2.376 -1.965,2.531 -1.279,0.155 -2.473,-0.726 -2.667,-1.969 1.279,-0.155 2.159,-1.288 1.965,-2.53 z"
   id="path289" />&#10;			<path
   style="opacity:0.3"
   d="m 406.519,230.622 11.326,-1.374 c 0.553,-0.067 1,-0.455 1.127,-0.979 l 0.345,-1.425 -14.951,1.814 0.769,1.29 c 0.282,0.474 0.831,0.741 1.384,0.674 z"
   id="path290" />&#10;		</g>&#10;		<path
   style="fill:#ebb376"
   d="m 404.903,244.387 6.38,1.827 1.337,4.225 c -0.612,3.433 -7.214,1.967 -7.214,1.967 l -1.353,0.852 c -1.098,0.692 -2.547,0.049 -2.772,-1.229 l -0.701,-3.993 c -0.117,-0.665 0.143,-1.34 0.675,-1.755 l 2.022,-1.577 c 0.461,-0.36 1.065,-0.477 1.626,-0.317 z"
   id="path291" />&#10;		<path
   style="fill:#407bff"
   d="m 442.138,236.999 c 2.239,6.128 3.747,11.488 3.468,13.323 -0.776,5.1 -33.508,1.954 -33.508,1.954 l -0.814,-6.063 21.911,-4.163 z"
   id="path292" />&#10;		<g
   id="g306">&#10;			<path
   style="fill:#ebb376"
   d="m 410.594,179.01 c -7.346,0.508 -9.439,4.604 -9.454,12.212 -0.019,9.507 2.543,16.084 11.589,13.429 12.285,-3.606 10.065,-26.484 -2.135,-25.641 z"
   id="path293" />&#10;			<path
   style="fill:#d58745"
   d="m 405.86,190.483 c 0,0 -0.885,1.989 -1.927,3.194 0,0 0.698,0.956 1.994,0.697 z"
   id="path294" />&#10;			<g
   id="g296">&#10;				<path
   style="fill:#263238"
   d="m 410.315,189.572 c 0.028,0.605 0.377,1.079 0.78,1.061 0.403,-0.018 0.707,-0.523 0.68,-1.128 -0.027,-0.604 -0.376,-1.079 -0.78,-1.061 -0.403,0.018 -0.708,0.523 -0.68,1.128 z"
   id="path295" />&#10;				<path
   style="fill:#263238"
   d="m 411.164,188.466 -1.338,-0.456 c 0,0 0.705,1.076 1.338,0.456 z"
   id="path296" />&#10;			</g>&#10;			<g
   id="g298">&#10;				<path
   style="fill:#263238"
   d="m 402.795,189.789 c 0.027,0.605 0.377,1.079 0.779,1.061 0.403,-0.018 0.707,-0.523 0.68,-1.128 -0.027,-0.604 -0.377,-1.079 -0.78,-1.061 -0.402,0.019 -0.707,0.523 -0.679,1.128 z"
   id="path297" />&#10;				<path
   style="fill:#263238"
   d="m 403.644,188.683 -1.338,-0.456 c 0,0 0.705,1.076 1.338,0.456 z"
   id="path298" />&#10;			</g>&#10;			<path
   style="fill:none;stroke:#263238;stroke-width:0.7;stroke-linecap:round;stroke-linejoin:round;stroke-miterlimit:10"
   d="m 410.038,184.494 c 0,0 2.046,-0.411 3.263,0.891"
   id="path299" />&#10;			<path
   style="fill:none;stroke:#263238;stroke-width:0.7;stroke-linecap:round;stroke-linejoin:round;stroke-miterlimit:10"
   d="m 404.677,184.552 c 0,0 -1.331,-0.391 -2.886,0.806"
   id="path300" />&#10;			<path
   style="fill:#263238"
   d="m 419.478,190.837 c 0,0 -3.852,-5.799 -3.654,-10.494 0,0 -14.969,-4.942 -14.667,9.885 0,0 -2.329,-13.023 10.28,-14.188 12.589,-1.163 13.831,17.314 7.69,23.27 0,0 2.737,-4.844 0.351,-8.473 z"
   id="path301" />&#10;			<path
   style="fill:none;stroke:#263238;stroke-width:0.5;stroke-linecap:round;stroke-linejoin:round;stroke-miterlimit:10"
   d="m 411.048,195.384 c 0,0 -1.03,2.805 -4.186,2.154"
   id="path302" />&#10;			<g
   id="g305">&#10;				<g
   id="g303">&#10;					<path
   style="fill:#263238"
   d="m 420.749,189.536 -7.331,0.013 c -0.019,-0.22 -0.061,-0.443 -0.133,-0.665 -0.554,-1.727 -2.525,-2.783 -4.395,-2.355 -1.478,0.339 -2.441,1.507 -2.513,2.834 -0.306,-0.224 -0.605,-0.33 -0.891,-0.302 -0.165,0.015 -0.294,0.074 -0.406,0.145 -0.024,-0.17 -0.05,-0.34 -0.105,-0.51 -0.553,-1.727 -2.525,-2.783 -4.395,-2.355 -1.869,0.428 -2.94,2.182 -2.387,3.909 0.553,1.727 2.525,2.783 4.395,2.355 1.469,-0.337 2.431,-1.494 2.513,-2.811 0.01,-0.018 0.163,-0.295 0.454,-0.329 0.235,-0.022 0.526,0.141 0.843,0.464 0.024,0.169 0.05,0.339 0.105,0.508 0.554,1.727 2.526,2.784 4.395,2.356 1.479,-0.339 2.442,-1.509 2.513,-2.837 l 7.358,-0.013 c 0.018,0 0.036,-0.002 0.053,-0.006 0.096,-0.022 0.164,-0.102 0.159,-0.198 -0.005,-0.113 -0.109,-0.204 -0.232,-0.203 z m -18.288,2.673 c -1.634,0.374 -3.357,-0.549 -3.84,-2.058 -0.484,-1.509 0.452,-3.041 2.086,-3.415 1.634,-0.374 3.357,0.549 3.841,2.058 0.483,1.509 -0.453,3.041 -2.087,3.415 z m 8.31,0.188 c -1.634,0.374 -3.357,-0.549 -3.841,-2.058 -0.484,-1.509 0.452,-3.041 2.086,-3.416 1.634,-0.374 3.357,0.549 3.841,2.058 0.484,1.509 -0.452,3.042 -2.086,3.416 z"
   id="path303" />&#10;				</g>&#10;				<g
   style="opacity:0.3;enable-background:new"
   id="g304">&#10;					<path
   style="fill:#ffffff"
   d="m 420.749,189.536 -7.331,0.013 c -0.019,-0.22 -0.061,-0.443 -0.133,-0.665 -0.554,-1.727 -2.525,-2.783 -4.395,-2.355 -1.478,0.339 -2.441,1.507 -2.513,2.834 -0.306,-0.224 -0.605,-0.33 -0.891,-0.302 -0.165,0.015 -0.294,0.074 -0.406,0.145 -0.024,-0.17 -0.05,-0.34 -0.105,-0.51 -0.553,-1.727 -2.525,-2.783 -4.395,-2.355 -1.869,0.428 -2.94,2.182 -2.387,3.909 0.553,1.727 2.525,2.783 4.395,2.355 1.469,-0.337 2.431,-1.494 2.513,-2.811 0.01,-0.018 0.163,-0.295 0.454,-0.329 0.235,-0.022 0.526,0.141 0.843,0.464 0.024,0.169 0.05,0.339 0.105,0.508 0.554,1.727 2.526,2.784 4.395,2.356 1.479,-0.339 2.442,-1.509 2.513,-2.837 l 7.358,-0.013 c 0.018,0 0.036,-0.002 0.053,-0.006 0.096,-0.022 0.164,-0.102 0.159,-0.198 -0.005,-0.113 -0.109,-0.204 -0.232,-0.203 z m -18.288,2.673 c -1.634,0.374 -3.357,-0.549 -3.84,-2.058 -0.484,-1.509 0.452,-3.041 2.086,-3.415 1.634,-0.374 3.357,0.549 3.841,2.058 0.483,1.509 -0.453,3.041 -2.087,3.415 z m 8.31,0.188 c -1.634,0.374 -3.357,-0.549 -3.841,-2.058 -0.484,-1.509 0.452,-3.041 2.086,-3.416 1.634,-0.374 3.357,0.549 3.841,2.058 0.484,1.509 -0.452,3.042 -2.086,3.416 z"
   id="path304" />&#10;				</g>&#10;			</g>&#10;			<path
   style="fill:#ebb376"
   d="m 418.385,192.471 c -0.033,-1.186 1.05,-3.272 3.266,-3.184 2.294,0.091 3.702,4.69 -1.883,6.205 -0.802,0.217 -1.315,-0.546 -1.383,-3.021 z"
   id="path305" />&#10;		</g>&#10;		<path
   style="opacity:0.2"
   d="m 382.442,238.701 c 0,0 16.497,-21.667 15.07,-26.79 -1.427,-5.123 -11.129,10.962 -11.129,10.962 z"
   id="path306" />&#10;		<path
   style="opacity:0.2"
   d="m 406.63,204.86 c -2.1,-0.71 -3.48,-2.42 -4.33,-4.83 l 2.31,-0.72 z"
   id="path307" />&#10;		<g
   id="g308">&#10;			<path
   style="fill:#ebb376"
   d="m 393.475,209.038 4.189,-6.3 4.301,7.205 c 0,0 -4.077,5.396 -6.768,3.178 z"
   id="path308" />&#10;			<polygon
   style="fill:#ebb376"
   points="397.663,202.738 404.453,199.567 406.047,207.018 401.964,209.943 "
   id="polygon308" />&#10;		</g>&#10;		<path
   style="fill:#407bff"
   d="m 382.841,238.362 -4.5,3.83 c 0,0 -4.133,0.143 -4.979,-4.468 -1.404,-7.66 19.7,-29.676 19.7,-29.676 l 4.093,5.562 z"
   id="path309" />&#10;	</g>&#10;</g></svg>
