<svg version="1.2" xmlns="http://www.w3.org/2000/svg" viewBox="0 0 1000 1000" width="1000" height="1000">
	<title>6123484</title>
	<style>
		.s0 { fill: #ebebeb } 
		.s1 { fill: #fafafa } 
		.s2 { fill: #f5f5f5 } 
		.s3 { fill: #e0e0e0 } 
		.s4 { fill: none;stroke: #e0e0e0;stroke-miterlimit:10;stroke-width: 2 } 
		.s5 { fill: #f0f0f0 } 
		.s6 { fill: #f0f0f0;stroke: #e0e0e0;stroke-linecap: round;stroke-linejoin: round;stroke-width: 4 } 
		.s7 { fill: #407bff } 
		.s8 { opacity: .5;fill: #000000 } 
		.s9 { opacity: .2;fill: #000000 } 
		.s10 { fill: #ffffff } 
		.s11 { opacity: .5;fill: #ffffff } 
		.s12 { opacity: .2;fill: #ffffff } 
		.s13 { opacity: .3;fill: #ffffff } 
		.s14 { fill: #263238 } 
		.s15 { opacity: .6;fill: #ffffff } 
		.s16 { opacity: .7;fill: #ffffff } 
		.s17 { fill: #ce7a63 } 
		.s18 { opacity: .4;fill: #000000 } 
		.s19 { fill: #ba4d3c } 
		.s20 { opacity: .4;fill: #ffffff } 
		.s21 { opacity: .1;fill: #ffffff } 
		.s22 { opacity: .05;fill: #ffffff } 
	</style>
	<g id="Background Complete">
		<g id="&lt;Group&gt;">
			<path id="&lt;Path&gt;" class="s0" d="m1000 765.3h-1000v-0.5h1000z"/>
			<path id="&lt;Path&gt;" class="s0" d="m833.6 797h66.2v0.5h-66.2z"/>
			<path id="&lt;Path&gt;" class="s0" d="m645.1 802.4h17.3v0.5h-17.3z"/>
			<path id="&lt;Path&gt;" class="s0" d="m793.2 778.4h38.4v0.5h-38.4z"/>
			<path id="&lt;Path&gt;" class="s0" d="m104.9 781.8h86.4v0.5h-86.4z"/>
			<path id="&lt;Path&gt;" class="s0" d="m209.1 781.8h12.7v0.5h-12.7z"/>
			<path id="&lt;Path&gt;" class="s0" d="m262.9 790.2h187.4v0.5h-187.4z"/>
			<path id="&lt;Compound Path&gt;" fill-rule="evenodd" class="s0" d="m474 675.6h-386.2c-6.3 0-11.4-5.1-11.4-11.4v-542.9c0-6.3 5.1-11.4 11.4-11.4h386.2c6.3 0 11.4 5.1 11.4 11.4v542.9c0 6.3-5.1 11.4-11.4 11.4zm-386.2-565.2c-6 0-10.9 4.9-10.9 10.9v542.9c0 6 4.9 10.9 10.9 10.9h386.2c6 0 10.9-4.9 10.9-10.9v-542.9c0-6-4.9-10.9-10.9-10.9z"/>
			<path id="&lt;Compound Path&gt;" fill-rule="evenodd" class="s0" d="m906.6 675.6h-386.2c-6.3 0-11.4-5.1-11.4-11.4v-542.9c0-6.3 5.1-11.4 11.4-11.4h386.2c6.3 0 11.4 5.1 11.4 11.4v542.9c0 6.3-5.1 11.4-11.4 11.4zm-386.2-565.2c-6 0-10.9 4.9-10.9 10.9v542.9c0 6 4.9 10.9 10.9 10.9h386.2c6 0 10.9-4.9 10.9-10.9v-542.9c0-6-4.9-10.9-10.9-10.9z"/>
		</g>
		<g id="&lt;Group&gt;">
			<g id="&lt;Group&gt;">
				<path id="&lt;Path&gt;" class="s0" d="m622.9 640.4h-183.9v-414.3h183.9z"/>
				<path id="&lt;Path&gt;" class="s1" d="m445.9 632.6v-398.7h170.1v398.7z"/>
				<path id="&lt;Path&gt;" class="s2" d="m532.9 231.9h-3.9v404.6h3.9z"/>
				<path id="&lt;Path&gt;" class="s3" d="m627.2 240.2h-192.4v-19.5h192.4z"/>
				<g id="&lt;Group&gt;">
					<path id="&lt;Path&gt;" class="s2" d="m627.2 244.7h-192.4v-2.3h192.4z"/>
					<path id="&lt;Path&gt;" class="s2" d="m627.2 250h-192.4v-2.3h192.4z"/>
					<path id="&lt;Path&gt;" class="s2" d="m627.2 255.2h-192.4v-2.3h192.4z"/>
					<path id="&lt;Path&gt;" class="s2" d="m627.2 260.5h-192.4v-2.4h192.4z"/>
					<path id="&lt;Path&gt;" class="s2" d="m627.2 265.7h-192.4v-2.3h192.4z"/>
					<path id="&lt;Path&gt;" class="s2" d="m627.2 270.9h-192.4v-2.3h192.4z"/>
					<path id="&lt;Path&gt;" class="s2" d="m627.2 276.2h-192.4v-2.3h192.4z"/>
					<path id="&lt;Path&gt;" class="s2" d="m627.2 281.4h-192.4v-2.3h192.4z"/>
					<path id="&lt;Path&gt;" class="s2" d="m627.2 286.7h-192.4v-2.3h192.4z"/>
					<path id="&lt;Path&gt;" class="s2" d="m627.2 291.9h-192.4v-2.3h192.4z"/>
					<path id="&lt;Path&gt;" class="s2" d="m627.2 297.2h-192.4v-2.3h192.4z"/>
					<path id="&lt;Path&gt;" class="s2" d="m627.2 302.4h-192.4v-2.3h192.4z"/>
					<path id="&lt;Path&gt;" class="s2" d="m627.2 307.7h-192.4v-2.4h192.4z"/>
					<path id="&lt;Path&gt;" class="s2" d="m627.2 312.9h-192.4v-2.3h192.4z"/>
					<path id="&lt;Path&gt;" class="s2" d="m627.2 318.1h-192.4v-2.3h192.4z"/>
					<path id="&lt;Path&gt;" class="s2" d="m627.2 323.4h-192.4v-2.3h192.4z"/>
					<path id="&lt;Path&gt;" class="s2" d="m627.2 328.6h-192.4v-2.3h192.4z"/>
					<path id="&lt;Path&gt;" class="s2" d="m627.2 333.9h-192.4v-2.3h192.4z"/>
				</g>
			</g>
			<g id="&lt;Group&gt;">
				<path id="&lt;Path&gt;" class="s0" d="m840.6 640.4h-183.9v-414.3h183.9z"/>
				<path id="&lt;Path&gt;" class="s1" d="m663.7 632.6v-398.7h170v398.7z"/>
				<path id="&lt;Path&gt;" class="s2" d="m750.6 231.9h-3.9v404.6h3.9z"/>
				<path id="&lt;Path&gt;" class="s3" d="m844.9 240.2h-192.4v-19.5h192.4z"/>
				<g id="&lt;Group&gt;">
					<path id="&lt;Path&gt;" class="s2" d="m844.9 244.7h-192.4v-2.3h192.4z"/>
					<path id="&lt;Path&gt;" class="s2" d="m844.9 250h-192.4v-2.3h192.4z"/>
					<path id="&lt;Path&gt;" class="s2" d="m844.9 255.2h-192.4v-2.3h192.4z"/>
					<path id="&lt;Path&gt;" class="s2" d="m844.9 260.5h-192.4v-2.4h192.4z"/>
					<path id="&lt;Path&gt;" class="s2" d="m844.9 265.7h-192.4v-2.3h192.4z"/>
					<path id="&lt;Path&gt;" class="s2" d="m844.9 270.9h-192.4v-2.3h192.4z"/>
					<path id="&lt;Path&gt;" class="s2" d="m844.9 276.2h-192.4v-2.3h192.4z"/>
					<path id="&lt;Path&gt;" class="s2" d="m844.9 281.4h-192.4v-2.3h192.4z"/>
					<path id="&lt;Path&gt;" class="s2" d="m844.9 286.7h-192.4v-2.3h192.4z"/>
					<path id="&lt;Path&gt;" class="s2" d="m844.9 291.9h-192.4v-2.3h192.4z"/>
					<path id="&lt;Path&gt;" class="s2" d="m844.9 297.2h-192.4v-2.3h192.4z"/>
					<path id="&lt;Path&gt;" class="s2" d="m844.9 302.4h-192.4v-2.3h192.4z"/>
					<path id="&lt;Path&gt;" class="s2" d="m844.9 307.7h-192.4v-2.4h192.4z"/>
					<path id="&lt;Path&gt;" class="s2" d="m844.9 312.9h-192.4v-2.3h192.4z"/>
					<path id="&lt;Path&gt;" class="s2" d="m844.9 318.1h-192.4v-2.3h192.4z"/>
					<path id="&lt;Path&gt;" class="s2" d="m844.9 323.4h-192.4v-2.3h192.4z"/>
					<path id="&lt;Path&gt;" class="s2" d="m844.9 328.6h-192.4v-2.3h192.4z"/>
					<path id="&lt;Path&gt;" class="s2" d="m844.9 333.9h-192.4v-2.3h192.4z"/>
				</g>
			</g>
			<g id="&lt;Group&gt;">
				<path id="&lt;Path&gt;" class="s3" d="m369.8 464v-179.8h-231.4v179.8z"/>
				<path id="&lt;Path&gt;" class="s0" d="m141.6 460.8h225v-173.4h-225z"/>
				<path id="&lt;Path&gt;" class="s4" d="m250.4 318.7v24.2"/>
				<path id="&lt;Path&gt;" class="s4" d="m195.4 420.8v-77.9h102v44.7"/>
				<path id="&lt;Path&gt;" class="s4" d="m271 411.3v-23.7h56.1v24.6"/>
				<path id="&lt;Path&gt;" class="s2" d="m276.2 327.6h-51.6v-17.7h51.6z"/>
				<path id="&lt;Path&gt;" class="s2" d="m322.8 371.8h-49.2v-19.3h49.2z"/>
				<path id="&lt;Path&gt;" class="s2" d="m287.9 421.3h-33.8v-19.9h33.8z"/>
				<path id="&lt;Path&gt;" class="s2" d="m345.2 419.7h-36.2v-15.1h36.2z"/>
				<path id="&lt;Path&gt;" class="s2" d="m227.5 382.4h-55.9v-25.8h55.9z"/>
				<path id="&lt;Path&gt;" class="s2" d="m213.2 430.2h-35.7v-18.9h35.7z"/>
				<path id="&lt;Path&gt;" class="s2" d="m250.4 351.3l-7.7-7.7 7.7-7.8 7.7 7.8z"/>
				<path id="&lt;Path&gt;" class="s2" d="m297.4 395.3l-7.7-7.7 7.7-7.7 7.7 7.7z"/>
			</g>
			<g id="&lt;Group&gt;">
				<path id="&lt;Path&gt;" class="s3" d="m221.5 226.3c0 18 14.6 32.6 32.6 32.6 18 0 32.6-14.6 32.6-32.6 0-18-14.6-32.6-32.6-32.6-18 0-32.6 14.6-32.6 32.6z"/>
				<path id="&lt;Path&gt;" class="s5" d="m226.4 226.3c0 15.3 12.4 27.7 27.7 27.7 15.3 0 27.8-12.4 27.8-27.7 0-15.3-12.5-27.7-27.8-27.7-15.3 0-27.7 12.4-27.7 27.7z"/>
				<path id="&lt;Path&gt;" class="s6" d="m255.4 207.3v19.4l12.9-7.3"/>
			</g>
		</g>
	</g>
	<g id="Shadow">
		<path id="&lt;Path&gt; 359 " class="s2" d="m887.8 832.5c0 12.5-173.6 22.6-387.8 22.6-214.2 0-387.8-10.1-387.8-22.6 0-12.5 173.6-22.7 387.8-22.7 214.2 0 387.8 10.2 387.8 22.7z"/>
	</g>
	<g id="Viruses">
		<g id="&lt;Group&gt;">
			<path id="&lt;Path&gt;" class="s7" d="m847 449.5c0 129.4-105 234.3-234.4 234.3-129.5 0-234.4-104.9-234.4-234.3 0-129.5 104.9-234.4 234.4-234.4 129.4 0 234.4 104.9 234.4 234.4z"/>
			<path id="&lt;Path&gt;" class="s8" d="m840.7 449.5c0 125.9-102.1 228.1-228.1 228.1-126 0-228.1-102.2-228.1-228.1 0-126 102.1-228.2 228.1-228.2 126 0 228.1 102.2 228.1 228.2z"/>
			<g id="&lt;Group&gt;">
				<g id="&lt;Group&gt;">
					<path id="&lt;Path&gt;" class="s7" d="m641.3 481.5c-1.2 0-2.2 0.7-2.8 1.7l-9.1 0.6c-0.2-4-1-7.7-2.3-11.2l10.5-5c0.5 0.3 1 0.5 1.7 0.5 1.7 0 3.2-1.4 3.2-3.2 0-1.8-1.5-3.2-3.2-3.2-1.7 0-3 1.2-3.2 2.8l-10.3 4.9c-1.5-3.2-3.4-6.2-5.7-8.9l8.8-8.7q0.3 0.1 0.6 0.1c1.8 0 3.2-1.4 3.2-3.2 0-1.8-1.4-3.2-3.2-3.2-1.7 0-3.2 1.4-3.2 3.2q0 0.3 0.1 0.7l-8.6 8.6c-2.4-2.3-5-4.3-7.9-6l4.8-9.7c1.6-0.2 2.9-1.5 2.9-3.2 0-1.7-1.5-3.2-3.2-3.2-1.8 0-3.2 1.5-3.2 3.2 0 0.6 0.2 1.2 0.4 1.7l-4.7 9.6c-2.8-1.3-5.6-2.3-8.6-3l1.6-9.9c1.1-0.5 1.9-1.7 1.9-3 0-1.7-1.4-3.2-3.2-3.2-1.8 0-3.2 1.5-3.2 3.2 0 1 0.4 1.8 1.1 2.4l-1.6 10c-1.6-0.2-3.3-0.4-4.9-0.4-2.4 0-4.8 0.3-7.1 0.7l-1.9-9c0.6-0.6 0.9-1.4 0.9-2.3 0-1.7-1.4-3.1-3.2-3.1-1.7 0-3.1 1.4-3.1 3.1 0 1.4 0.8 2.6 2 3l2 9.1c-4 1-7.6 2.7-11 4.8l-5.2-7.9q0.3-0.6 0.3-1.3c0-1.7-1.4-3.2-3.2-3.2-1.8 0-3.2 1.5-3.2 3.2 0 1.8 1.4 3.2 3.2 3.2q0 0 0 0l5.3 8c-3.3 2.6-6.2 5.6-8.6 9.1l-8.7-6q0 0 0-0.1c0-1.7-1.4-3.2-3.2-3.2-1.8 0-3.2 1.5-3.2 3.2 0 1.8 1.4 3.2 3.2 3.2q0.7 0 1.3-0.2l8.8 6c-2 3.6-3.4 7.5-4.3 11.6l-6-1.2c-0.5-1.2-1.6-2.1-3-2.1-1.8 0-3.2 1.4-3.2 3.2 0 1.8 1.4 3.2 3.2 3.2 0.9 0 1.7-0.4 2.3-1l6.2 1.3q-0.2 2.1-0.2 4.3c0 2.6 0.2 5.1 0.7 7.5l-6.7 1.2c-0.5-0.6-1.4-1-2.3-1-1.8 0-3.2 1.4-3.2 3.2 0 1.8 1.4 3.2 3.2 3.2 1.3 0 2.5-0.8 3-2l6.8-1.2c1.1 3.8 2.7 7.3 4.8 10.6l-6.9 4.4q-0.6-0.3-1.3-0.3c-1.8 0-3.2 1.5-3.2 3.2 0 1.8 1.4 3.2 3.2 3.2 1.8 0 3.2-1.4 3.2-3.2q0 0 0 0l7-4.5c2.4 3 5.2 5.7 8.4 8l-4.7 6.8q0 0-0.1 0c-1.7 0-3.2 1.4-3.2 3.2 0 1.8 1.5 3.2 3.2 3.2 1.8 0 3.2-1.4 3.2-3.2q0-0.7-0.2-1.2l4.7-6.9c4.1 2.4 8.7 4.1 13.6 4.9l-0.8 6.6c-1.1 0.6-1.8 1.6-1.8 2.9 0 1.8 1.4 3.2 3.2 3.2 1.7 0 3.2-1.4 3.2-3.2 0-1-0.5-1.8-1.2-2.4l0.8-6.7c1 0 2 0.1 3 0.1 4 0 7.9-0.6 11.6-1.7l2.5 6.8c-0.4 0.5-0.6 1.1-0.6 1.9 0 1.7 1.4 3.1 3.2 3.1 1.7 0 3.2-1.4 3.2-3.1 0-1.6-1.1-2.9-2.6-3.2l-2.5-6.7c3.7-1.5 7-3.5 10.1-5.9l6.3 6.6q-0.1 0.4-0.1 0.8c0 1.7 1.4 3.2 3.2 3.2 1.7 0 3.1-1.5 3.1-3.2 0-1.8-1.4-3.2-3.1-3.2q-0.4 0-0.6 0l-6.3-6.5c3.2-3.1 5.9-6.7 7.9-10.7l9 3.6c0.2 1.5 1.5 2.6 3.1 2.6 1.8 0 3.2-1.5 3.2-3.2 0-1.8-1.4-3.2-3.2-3.2-0.7 0-1.3 0.2-1.9 0.6l-8.8-3.5c1.7-4.2 2.7-8.8 2.8-13.6l9.3-0.6c0.5 0.8 1.5 1.3 2.5 1.3 1.8 0 3.2-1.4 3.2-3.2 0-1.8-1.4-3.2-3.2-3.2z"/>
					<path id="&lt;Path&gt;" class="s9" d="m590 522c-19.8 0-35.9-16.1-35.9-35.9 0-19.7 16.1-35.8 35.9-35.8 19.7 0 35.8 16.1 35.8 35.8 0 19.8-16.1 35.9-35.8 35.9z"/>
					<g id="&lt;Group&gt;" style="opacity: .5">
						<path id="&lt;Path&gt;" class="s10" d="m606 481.5c-2.3 0-4.2 1.9-4.2 4.2 0 2.3 1.9 4.2 4.2 4.2 2.3 0 4.2-1.9 4.2-4.2 0-2.3-1.9-4.2-4.2-4.2z"/>
						<path id="&lt;Path&gt;" class="s10" d="m600.5 495.2c-1.9 0-3.4 1.5-3.4 3.4 0 1.8 1.5 3.3 3.4 3.3 1.8 0 3.3-1.5 3.3-3.3 0-1.9-1.5-3.4-3.3-3.4z"/>
						<path id="&lt;Path&gt;" class="s10" d="m583.3 493.8c4.3 0 7.8-3.5 7.8-7.7 0-4.3-3.5-7.8-7.8-7.8-4.3 0-7.7 3.5-7.7 7.8 0 4.2 3.4 7.7 7.7 7.7z"/>
						<path id="&lt;Path&gt;" class="s10" d="m591.6 469.6c1.7 0 3.1-1.4 3.1-3.1 0-1.7-1.4-3.2-3.1-3.2-1.8 0-3.2 1.5-3.2 3.2 0 1.7 1.4 3.1 3.2 3.1z"/>
						<path id="&lt;Path&gt;" class="s10" d="m608.3 472.8c0.9 0 1.6-0.7 1.6-1.6 0-0.9-0.7-1.6-1.6-1.6-0.9 0-1.6 0.7-1.6 1.6 0 0.9 0.7 1.6 1.6 1.6z"/>
						<path id="&lt;Path&gt;" class="s10" d="m598.5 478.2c0-0.9-0.7-1.6-1.5-1.6-0.9 0-1.6 0.7-1.6 1.6 0 0.8 0.7 1.5 1.6 1.5 0.8 0 1.5-0.7 1.5-1.5z"/>
						<path id="&lt;Path&gt;" class="s10" d="m572.5 475.6c2.5 0 4.5-2.1 4.5-4.6 0-2.5-2-4.5-4.5-4.5-2.5 0-4.6 2-4.6 4.5 0 2.5 2.1 4.6 4.6 4.6z"/>
						<path id="&lt;Path&gt;" class="s10" d="m566.6 494c0-1.7-1.4-3.1-3.1-3.1-1.6 0-3 1.4-3 3.1 0 1.6 1.4 3 3 3 1.7 0 3.1-1.4 3.1-3z"/>
						<path id="&lt;Path&gt;" class="s10" d="m582.6 510c-0.9 0-1.6 0.7-1.6 1.6 0 0.8 0.7 1.6 1.6 1.6 0.8 0 1.6-0.8 1.6-1.6 0-0.9-0.8-1.6-1.6-1.6z"/>
						<path id="&lt;Path&gt;" class="s10" d="m593.8 504c0-2.1-1.7-3.8-3.8-3.8-2 0-3.7 1.7-3.7 3.8 0 2 1.7 3.7 3.7 3.7 2.1 0 3.8-1.7 3.8-3.7z"/>
						<path id="&lt;Path&gt;" class="s10" d="m574.8 500.2c-2.2 0-3.9 1.8-3.9 3.9 0 2.2 1.7 4 3.9 4 2.2 0 3.9-1.8 3.9-4 0-2.1-1.7-3.9-3.9-3.9z"/>
						<path id="&lt;Path&gt;" class="s10" d="m602.8 510.8c-0.5 0-1 0.5-1 1.1 0 0.5 0.5 1 1 1 0.6 0 1-0.5 1-1 0-0.6-0.4-1.1-1-1.1z"/>
						<path id="&lt;Path&gt;" class="s10" d="m617.4 492.7c-2.1 0-3.8 1.7-3.8 3.8 0 2 1.7 3.7 3.8 3.7 2 0 3.7-1.7 3.7-3.7 0-2.1-1.7-3.8-3.7-3.8z"/>
						<path id="&lt;Path&gt;" class="s10" d="m611.8 501.9c-1 0-1.9 0.9-1.9 2 0 1.1 0.9 1.9 1.9 1.9 1.1 0 2-0.8 2-1.9 0-1.1-0.9-2-2-2z"/>
						<path id="&lt;Path&gt;" class="s10" d="m614.8 485.3c1.9 0 3.5-1.6 3.5-3.5 0-2-1.6-3.6-3.5-3.6-2 0-3.6 1.6-3.6 3.6 0 1.9 1.6 3.5 3.6 3.5z"/>
						<path id="&lt;Path&gt;" class="s10" d="m602.3 466.5c2 0 3.7-1.7 3.7-3.7 0-2-1.7-3.6-3.7-3.6-2 0-3.7 1.6-3.7 3.6 0 2 1.7 3.7 3.7 3.7z"/>
						<path id="&lt;Path&gt;" class="s10" d="m582.6 469.3c0 0.6 0.5 1.2 1.1 1.2 0.7 0 1.2-0.6 1.2-1.2 0-0.7-0.5-1.2-1.2-1.2-0.6 0-1.1 0.5-1.1 1.2z"/>
						<path id="&lt;Path&gt;" class="s10" d="m581.9 462.4c1.3 0 2.3-1 2.3-2.2 0-1.2-1-2.2-2.3-2.2-1.2 0-2.2 1-2.2 2.2 0 1.2 1 2.2 2.2 2.2z"/>
						<path id="&lt;Path&gt;" class="s10" d="m594.6 459.9c1.1 0 2-0.8 2-1.9 0-1.1-0.9-2-2-2-1 0-1.9 0.9-1.9 2 0 1.1 0.9 1.9 1.9 1.9z"/>
						<path id="&lt;Path&gt;" class="s10" d="m569.9 481.8c-0.5 0-1 0.4-1 0.9 0 0.6 0.5 1 1 1 0.5 0 1-0.4 1-1 0-0.5-0.5-0.9-1-0.9z"/>
						<path id="&lt;Path&gt;" class="s10" d="m564.5 479.7c0.4 0 0.7-0.3 0.7-0.7 0-0.5-0.3-0.8-0.7-0.8-0.5 0-0.8 0.3-0.8 0.8 0 0.4 0.3 0.7 0.8 0.7z"/>
						<path id="&lt;Path&gt;" class="s10" d="m570.9 493.4c0 0.3 0.3 0.6 0.6 0.6 0.4 0 0.6-0.3 0.6-0.6 0-0.4-0.2-0.7-0.6-0.7-0.3 0-0.6 0.3-0.6 0.7z"/>
						<path id="&lt;Path&gt;" class="s10" d="m565.6 501.9c-1 0-1.9 0.9-1.9 2 0 1.1 0.9 1.9 1.9 1.9 1.1 0 2-0.8 2-1.9 0-1.1-0.9-2-2-2z"/>
						<path id="&lt;Path&gt;" class="s10" d="m592.4 512.9c-1.2 0-2.2 1-2.2 2.2 0 1.3 1 2.3 2.2 2.3 1.2 0 2.2-1 2.2-2.3 0-1.2-1-2.2-2.2-2.2z"/>
						<path id="&lt;Path&gt;" class="s10" d="m594.7 493.4c-0.5 0-0.9 0.4-0.9 0.9 0 0.5 0.4 0.9 0.9 0.9 0.4 0 0.8-0.4 0.8-0.9 0-0.5-0.4-0.9-0.8-0.9z"/>
						<path id="&lt;Path&gt;" class="s10" d="m583.4 498.7c-0.8 0-1.5 0.7-1.5 1.5 0 0.8 0.7 1.5 1.5 1.5 0.9 0 1.5-0.7 1.5-1.5 0-0.8-0.6-1.5-1.5-1.5z"/>
						<path id="&lt;Path&gt;" class="s10" d="m615.6 471c0.5 0 0.9-0.4 0.9-0.8 0-0.5-0.4-0.9-0.9-0.9-0.5 0-0.8 0.4-0.8 0.9 0 0.4 0.3 0.8 0.8 0.8z"/>
					</g>
				</g>
				<g id="&lt;Group&gt;">
					<path id="&lt;Path&gt;" class="s7" d="m677.4 333.7c-1.3 0-2.4 0.8-2.9 1.8l-35.1 2q-0.3-2.6-1.1-5.1l10.1-3.8c0.6 0.5 1.3 0.7 2.1 0.7 1.9 0 3.4-1.5 3.4-3.4 0-1.9-1.5-3.5-3.4-3.5-1.7 0-3 1.2-3.4 2.8l-10.2 3.8c-1.3-2.7-2.9-5.1-5-7.2l20.1-20q0.4 0.1 0.7 0.1c1.9 0 3.5-1.5 3.5-3.4 0-1.9-1.6-3.5-3.5-3.5-1.9 0-3.4 1.6-3.4 3.5q0 0.3 0.1 0.7l-20.2 20.1q-1.9-1.5-4-2.7l6-11.3c1.8-0.1 3.1-1.6 3.1-3.4 0-1.9-1.5-3.4-3.4-3.4-1.9 0-3.4 1.5-3.4 3.4 0 0.6 0.1 1.2 0.4 1.7l-6.1 11.5q-2.6-1-5.4-1.4l4.4-27.3c1.2-0.6 2-1.8 2-3.2 0-1.9-1.5-3.4-3.4-3.4-1.9 0-3.4 1.5-3.4 3.4 0 1 0.4 1.9 1.1 2.5l-4.4 27.6q-0.4 0-0.7 0-2.9 0-5.6 0.6l-8.4-40.6c0.6-0.6 1-1.5 1-2.5 0-1.9-1.5-3.4-3.4-3.4-1.9 0-3.5 1.5-3.5 3.4 0 1.5 1 2.7 2.3 3.2l8.4 40.9q-3.2 1.1-6 2.9l-6.5-9.6q0.3-0.6 0.3-1.3c0-1.9-1.5-3.5-3.4-3.5-1.9 0-3.5 1.6-3.5 3.5 0 1.9 1.6 3.4 3.5 3.4q0 0 0 0l6.6 9.8q-2.4 2.1-4.3 4.7l-24.1-16.4q0 0 0-0.1c0-1.9-1.6-3.4-3.5-3.4-1.9 0-3.4 1.5-3.4 3.4 0 1.9 1.5 3.5 3.4 3.5q0.8-0.1 1.4-0.3l24.2 16.4q-1.5 2.9-2.3 6.1l-23.5-4.9c-0.5-1.2-1.7-2.2-3.2-2.2-1.9 0-3.4 1.6-3.4 3.5 0 1.9 1.5 3.4 3.4 3.4 1 0 1.8-0.4 2.5-1l23.5 4.8q-0.2 1.7-0.3 3.4 0.1 1.3 0.2 2.5l-10.5 1.8c-0.7-0.7-1.6-1.2-2.6-1.2-1.9 0-3.4 1.6-3.4 3.5 0 1.9 1.5 3.4 3.4 3.4 1.4 0 2.7-0.9 3.2-2.1l10.4-1.8q0.8 3.4 2.4 6.4l-20.5 13.2q-0.7-0.3-1.4-0.3c-1.9 0-3.5 1.5-3.5 3.5 0 1.9 1.6 3.4 3.5 3.4 1.9 0 3.4-1.5 3.4-3.4q0-0.1 0-0.1l20.3-13.1q1.9 2.8 4.4 5l-21.1 30.7q-0.1 0-0.1 0c-1.9 0-3.5 1.5-3.5 3.4 0 1.9 1.6 3.5 3.5 3.5 1.9 0 3.4-1.6 3.4-3.5q0-0.7-0.3-1.3l21.1-30.5c2.5 1.7 5.3 3 8.4 3.8l-2.6 20.3c-1.1 0.5-1.9 1.7-1.9 3.1 0 1.9 1.5 3.4 3.4 3.4 1.9 0 3.5-1.5 3.5-3.4 0-1.1-0.5-2-1.3-2.6l2.5-20.1q1.7 0.2 3.5 0.2 3.1 0 6-0.6l3.9 10.8c-0.4 0.5-0.7 1.3-0.7 2 0 1.9 1.5 3.5 3.5 3.5 1.9 0 3.4-1.6 3.4-3.5 0-1.6-1.2-3-2.7-3.3l-3.9-10.6c2.5-0.9 4.9-2.2 7-3.8l24.3 25.8q-0.1 0.4-0.1 0.9c0 1.9 1.6 3.4 3.5 3.4 1.9 0 3.4-1.5 3.4-3.4 0-1.9-1.5-3.5-3.4-3.5q-0.3 0-0.7 0.1l-24.2-25.7c2.2-2.1 4-4.6 5.4-7.4l7.7 3.1c0.4 1.5 1.8 2.7 3.4 2.7 1.9 0 3.5-1.5 3.5-3.4 0-1.9-1.6-3.4-3.5-3.4-0.7 0-1.4 0.2-2 0.6l-7.6-3c0.9-2.8 1.5-5.7 1.5-8.8l35-2c0.6 0.9 1.6 1.4 2.7 1.4 1.9 0 3.5-1.5 3.5-3.4 0-1.9-1.6-3.5-3.5-3.5z"/>
					<path id="&lt;Path&gt;" class="s9" d="m612 365c-13.3 0-24-10.7-24-24 0-13.2 10.7-24 24-24 13.2 0 24 10.8 24 24 0 13.3-10.8 24-24 24z"/>
					<g id="&lt;Group&gt;" style="opacity: .5">
						<path id="&lt;Path&gt;" class="s10" d="m612.6 325.9c-1.6 0-2.8 1.3-2.8 2.9 0 1.6 1.2 2.9 2.8 2.9 1.6 0 2.9-1.3 2.9-2.9 0-1.6-1.3-2.9-2.9-2.9z"/>
						<path id="&lt;Path&gt;" class="s10" d="m605.9 340.3c0.9 0 1.6-0.7 1.6-1.6 0-0.8-0.7-1.5-1.6-1.5-0.8 0-1.5 0.7-1.5 1.5 0 0.9 0.7 1.6 1.5 1.6z"/>
						<path id="&lt;Path&gt;" class="s10" d="m622.3 338.7c-2.4 0-4.3 2-4.3 4.3 0 2.4 1.9 4.3 4.3 4.3 2.3 0 4.3-1.9 4.3-4.3 0-2.3-2-4.3-4.3-4.3z"/>
						<path id="&lt;Path&gt;" class="s10" d="m605.5 352.4c-1.3 0-2.4 1-2.4 2.3 0 1.3 1.1 2.4 2.4 2.4 1.3 0 2.4-1.1 2.4-2.4 0-1.3-1.1-2.3-2.4-2.3z"/>
						<path id="&lt;Path&gt;" class="s10" d="m615.2 347.1c0-1.5-1.2-2.7-2.7-2.7-1.5 0-2.7 1.2-2.7 2.7 0 1.5 1.2 2.7 2.7 2.7 1.5 0 2.7-1.2 2.7-2.7z"/>
						<path id="&lt;Path&gt;" class="s10" d="m595.3 337.2c-2.6 0-4.7 2.1-4.7 4.7 0 2.6 2.1 4.7 4.7 4.7 2.6 0 4.7-2.1 4.7-4.7 0-2.6-2.1-4.7-4.7-4.7z"/>
						<path id="&lt;Path&gt;" class="s10" d="m621.8 354.7c-1.1 0-1.9 0.9-1.9 1.9 0 1.1 0.8 2 1.9 2 1 0 1.9-0.9 1.9-2 0-1-0.9-1.9-1.9-1.9z"/>
						<path id="&lt;Path&gt;" class="s10" d="m627.4 325.9c-2 0-3.7 1.7-3.7 3.7 0 2.1 1.7 3.7 3.7 3.7 2.1 0 3.7-1.6 3.7-3.7 0-2-1.6-3.7-3.7-3.7z"/>
						<path id="&lt;Path&gt;" class="s10" d="m618.7 322.7c0-0.5-0.4-0.9-0.9-0.9-0.5 0-0.9 0.4-0.9 0.9 0 0.5 0.4 0.9 0.9 0.9 0.5 0 0.9-0.4 0.9-0.9z"/>
						<path id="&lt;Path&gt;" class="s10" d="m600.3 329.6c-0.8 0-1.4 0.6-1.4 1.4 0 0.8 0.6 1.4 1.4 1.4 0.8 0 1.4-0.6 1.4-1.4 0-0.8-0.6-1.4-1.4-1.4z"/>
						<path id="&lt;Path&gt;" class="s10" d="m618.9 336.9c0.5 0 1-0.5 1-1.1 0-0.5-0.5-1-1-1-0.6 0-1.1 0.5-1.1 1 0 0.6 0.5 1.1 1.1 1.1z"/>
						<path id="&lt;Path&gt;" class="s10" d="m607.9 320.7c-1.1 0-2 0.8-2 1.9 0 1.1 0.9 1.9 2 1.9 1 0 1.9-0.8 1.9-1.9 0-1.1-0.9-1.9-1.9-1.9z"/>
						<path id="&lt;Path&gt;" class="s10" d="m598.2 351c-0.6 0-1.1 0.5-1.1 1.1 0 0.6 0.5 1.1 1.1 1.1 0.6 0 1.1-0.5 1.1-1.1 0-0.6-0.5-1.1-1.1-1.1z"/>
						<path id="&lt;Path&gt;" class="s10" d="m614 359.3c-0.9 0-1.5 0.7-1.5 1.5 0 0.9 0.6 1.5 1.5 1.5 0.8 0 1.5-0.6 1.5-1.5 0-0.8-0.7-1.5-1.5-1.5z"/>
						<path id="&lt;Path&gt;" class="s10" d="m630.2 351c-0.3 0-0.6 0.3-0.6 0.6 0 0.3 0.3 0.5 0.6 0.5 0.3 0 0.5-0.2 0.5-0.5 0-0.3-0.2-0.6-0.5-0.6z"/>
						<path id="&lt;Path&gt;" class="s10" d="m632.4 340.3c-0.2 0-0.4 0.1-0.4 0.3 0 0.2 0.2 0.4 0.4 0.4 0.2 0 0.4-0.2 0.4-0.4 0-0.2-0.2-0.3-0.4-0.3z"/>
						<path id="&lt;Path&gt;" class="s10" d="m621.8 351.6c0-0.3-0.3-0.6-0.6-0.6-0.3 0-0.6 0.3-0.6 0.6 0 0.3 0.3 0.6 0.6 0.6 0.3 0 0.6-0.3 0.6-0.6z"/>
						<path id="&lt;Path&gt;" class="s10" d="m614 355.3c0 0.3 0.2 0.6 0.6 0.6 0.3 0 0.6-0.3 0.6-0.6 0-0.3-0.3-0.6-0.6-0.6-0.4 0-0.6 0.3-0.6 0.6z"/>
						<path id="&lt;Path&gt;" class="s10" d="m605.2 346.6c0.4 0 0.7-0.3 0.7-0.7 0-0.4-0.3-0.8-0.7-0.8-0.4 0-0.8 0.4-0.8 0.8 0 0.4 0.4 0.7 0.8 0.7z"/>
						<path id="&lt;Path&gt;" class="s10" d="m603.8 359.3c-0.4 0-0.7 0.3-0.7 0.6 0 0.4 0.3 0.7 0.7 0.7 0.3 0 0.6-0.3 0.6-0.7 0-0.3-0.3-0.6-0.6-0.6z"/>
						<path id="&lt;Path&gt;" class="s10" d="m607.5 330.4c0-0.4-0.4-0.8-0.8-0.8-0.4 0-0.8 0.4-0.8 0.8 0 0.4 0.4 0.7 0.8 0.7 0.4 0 0.8-0.3 0.8-0.7z"/>
						<path id="&lt;Path&gt;" class="s10" d="m595.7 334.4c0.7 0 1.4-0.6 1.4-1.4 0-0.7-0.7-1.3-1.4-1.3-0.8 0-1.4 0.6-1.4 1.3 0 0.8 0.6 1.4 1.4 1.4z"/>
						<path id="&lt;Path&gt;" class="s10" d="m628.8 335.8c-0.2 0-0.5 0.3-0.5 0.6 0 0.2 0.3 0.5 0.5 0.5 0.3 0 0.5-0.3 0.5-0.5 0-0.3-0.2-0.6-0.5-0.6z"/>
					</g>
				</g>
				<g id="&lt;Group&gt;">
					<path id="&lt;Path&gt;" class="s7" d="m772.6 486.5c-1 0-2 0.4-2.6 1.2l-5.7-0.6q0.7-6.9 0.3-13.8l5.8-0.4c0.5 0.8 1.5 1.3 2.5 1.3 1.6-0.1 2.8-1.6 2.7-3.4-0.1-1.7-1.6-3-3.2-2.8-1 0.1-1.8 0.8-2.3 1.7l-5.8 0.5c-0.5-4.6-1.3-9.1-2.5-13.6l5.6-1.5c0.7 0.7 1.7 1 2.7 0.7 1.6-0.4 2.5-2.1 2.1-3.8-0.6-1.7-2.3-2.6-3.8-2.1-1 0.3-1.7 1.1-1.9 2.1l-5.6 1.7c-1.4-4.4-3.2-8.6-5.3-12.7l5.2-2.7c0.9 0.5 2 0.6 2.9 0.1 1.5-0.7 1.9-2.6 1.1-4.1-0.9-1.6-2.7-2.2-4.1-1.4-0.9 0.6-1.4 1.5-1.4 2.5l-5.1 3c-2.3-4-5-7.8-8-11.3l4.5-3.8c0.9 0.3 2 0.1 2.8-0.5 1.2-1 1.3-3 0.1-4.4-1.2-1.3-3.2-1.4-4.3-0.3-0.8 0.8-1 1.8-0.8 2.8l-4.3 4c-3.1-3.3-6.6-6.3-10.3-9l3.3-4.8c1 0.1 2-0.3 2.6-1.2 1-1.3 0.5-3.1-1-4.1-1.5-1-3.4-0.7-4.3 0.7-0.5 0.9-0.5 2 0 2.9l-3.1 4.9q-1-0.6-2-1.2c-3.4-2-6.8-3.5-10.3-4.6l1.8-5.6c1-0.3 1.8-0.9 2.2-1.9 0.3-0.7 0.2-1.5-0.2-2.3-0.4-0.6-1.2-1.2-2.1-1.5-1.8-0.5-3.6 0.5-3.9 2-0.2 1 0.1 2.1 0.8 2.8l-1.4 5.7c-3.2-0.8-6.2-1.3-9.1-1.3q-2 0-3.9 0.3l-0.8-5.8c0.7-0.7 1.3-1.6 1.2-2.6-0.1-1.7-1.9-2.8-4-2.4-2 0.4-3.3 2.2-2.8 3.7 0.3 1 1.2 1.7 2.2 2l1.4 5.6q-5.6 1.5-9.9 5.5-0.5 0.4-0.8 0.8l-4.3-4.1c0.2-1 0.1-2.1-0.6-2.8-1.1-1.2-3.3-1-4.7 0.7-1.5 1.8-1.3 4.1 0.1 4.9 0.9 0.5 2 0.4 2.9 0l4.9 3.4c-1.7 2.3-2.6 4.8-2.9 7.6q-0.2 1.9 0.1 3.7l-5.8 0.9c-0.7-0.9-1.6-1.4-2.6-1.4-1.6 0.1-2.8 2.1-2.3 4.3 0.5 2.2 2.3 3.4 3.8 2.8 1-0.4 1.6-1.3 1.9-2.3l5.6-1.7c1.4 4.7 4.5 8.5 6.7 10.9l-4.2 4c-1-0.2-2-0.1-2.8 0.6-0.6 0.6-0.9 1.3-0.9 2.2 0.1 0.8 0.5 1.6 1.1 2.2 1.2 1.3 3.1 1.2 4.2 0.1 0.7-0.8 0.9-1.8 0.7-2.8l4.1-4.2q0.9 0.9 1.9 1.8c2.9 2.8 5.8 5.7 8.3 8.9l-4.6 3.6c-0.9-0.3-1.9-0.1-2.7 0.6-1.2 1-1.5 2.7-0.8 3.7 0.7 0.9 2.2 1.1 3.7 0.3 0.8-0.5 1.4-1.3 1.5-2.3l4.9-3.1c1.4 2.2 2.6 4.6 3.4 7.3 0.8 2.5 1.1 5.2 1.2 7.9l-5.8 0.2c-0.6-0.8-1.5-1.2-2.6-1.1-1.6 0.2-2.8 1.2-2.8 2.4 0 1.1 1.2 2.3 2.8 2.5 1 0.1 1.9-0.3 2.5-1l5.9 0.4c-0.4 5.1-1.9 10.2-4.5 15l-5.1-2.8c-0.1-0.9-0.7-1.8-1.7-2.2-1.4-0.7-3-0.4-3.7 0.6-0.7 1.2-0.2 2.8 1.1 3.8 0.9 0.5 1.9 0.6 2.7 0.3l5 3.2c-2.8 4.2-6 8-9.4 11.6l-4.3-4c0.2-1-0.1-2-0.9-2.7-1.2-1-3-1-4.1 0.1-1 1.1-1 3 0.2 4.1 0.7 0.7 1.7 1 2.7 0.7l4.2 4.1q-0.8 0.9-1.6 1.7l-1.6 1.7q-0.9 0.9-1.7 1.8c-1.7 1.7-3.3 3.3-4.5 5l-4.8-3.4c0.1-1-0.2-2.1-1.1-2.7-1.2-1-3.3-0.6-4.5 1.5-1.3 2.1-0.7 4.5 0.8 5 1 0.3 2.1 0 2.9-0.7l5.4 2.5q-0.6 1.2-0.9 2.6c-0.6 3 0 6 1.3 8.6l-5.3 2.6c-0.9-0.6-2-0.9-2.9-0.6-1.6 0.6-2.1 2.8-1 4.8 1.2 2 3.3 2.6 4.6 1.6 0.8-0.6 1.1-1.7 1-2.7l4.9-3.4c1 1.4 2.1 2.7 3.3 3.7 2.1 1.7 4.3 3.2 6.6 4.4l-2.8 5.2c-1 0-2 0.5-2.5 1.4-0.8 1.4-0.1 3.3 1.7 4.2 1.8 0.8 3.7 0.2 4.3-1.3 0.4-1 0.1-2-0.5-2.9l2.4-5.4q6 2.6 12.7 2.8l-0.1 5.9c-0.9 0.4-1.5 1.3-1.6 2.4-0.1 1.5 1.5 3 3.4 2.9 2 0 3.4-1.5 3.2-3.1-0.1-1-0.7-1.8-1.6-2.3l-0.4-5.9c4.3-0.3 8.7-1.3 13-3l2.2 5.5c-0.6 0.8-0.9 1.8-0.5 2.8 0.5 1.5 2.4 2.2 4.1 1.5 1.8-0.8 2.5-2.6 1.8-4.1-0.5-0.9-1.4-1.4-2.4-1.5l-2.5-5.4c4-1.8 7.9-4.3 11.5-7.2l3.7 4.6c-0.3 0.9-0.2 2 0.4 2.8 0.9 1.3 2.9 1.5 4.3 0.3 1.4-1.2 1.6-3.2 0.5-4.3-0.7-0.8-1.7-1.1-2.7-0.9l-3.9-4.4c3.4-3 6.6-6.4 9.3-10.1l4.7 3.5c-0.1 1 0.3 2 1.1 2.6 1.3 1 3.2 0.7 4.3-0.8 1-1.5 0.7-3.4-0.7-4.3-0.8-0.6-1.9-0.6-2.8-0.2l-4.9-3.2c2.1-3.1 3.9-6.4 5.3-9.8q0.5-1.2 1-2.3l5.4 2c0.2 1 0.8 1.9 1.8 2.2 1.5 0.7 3.2-0.2 3.8-1.9 0.6-1.7-0.1-3.4-1.7-3.9-0.9-0.3-2-0.1-2.8 0.6l-5.5-1.9q2.2-6.6 3.2-13.4l5.8 0.8c0.3 0.9 1.1 1.6 2.1 1.8 1.6 0.3 3.2-0.9 3.4-2.7 0.2-1.8-1-3.3-2.6-3.5z"/>
					<path id="&lt;Path&gt;" class="s9" d="m710.7 540.7c-7.4 0-14.2-2.6-20.2-7.6-2.8-2.3-5.5-6.7-4.6-11 0.5-2.8 2.8-5.1 5.6-7.9q0.9-0.9 1.8-1.8l1.6-1.7c5.1-5.4 10.5-11 14.6-17.8 5.8-9.5 7.4-20.7 4.5-30.7-2.7-9.1-9.1-15.2-14.7-20.6-1.3-1.2-2.5-2.3-3.7-3.5-2.7-2.8-7.3-8.4-6.7-14.6 0.3-3 1.7-5.8 4.2-8.1 3.7-3.5 8.5-5.2 14.1-5.2 6.2 0 13.5 2.1 20.3 6.1 29.3 16.9 41.8 57.7 27.8 90.9-8 19.1-27.2 33.5-44.6 33.5z"/>
					<g id="&lt;Group&gt;" style="opacity: .5">
						<path id="&lt;Path&gt;" class="s10" d="m716.4 433.5c2.4 0 4.4-2 4.4-4.4 0-2.5-2-4.5-4.4-4.5-2.5 0-4.5 2-4.5 4.5 0 2.4 2 4.4 4.5 4.4z"/>
						<path id="&lt;Path&gt;" class="s10" d="m726.3 447.5c1.6 0 2.9-1.3 2.9-2.9 0-1.6-1.3-2.9-2.9-2.9-1.6 0-2.9 1.3-2.9 2.9 0 1.6 1.3 2.9 2.9 2.9z"/>
						<path id="&lt;Path&gt;" class="s10" d="m735.3 444.6c2.2 0 4.1-1.8 4.1-4 0-2.3-1.9-4.1-4.1-4.1-2.2 0-4 1.8-4 4.1 0 2.2 1.8 4 4 4z"/>
						<path id="&lt;Path&gt;" class="s10" d="m737.9 469.4c0 3.3 2.7 6 6 6 3.3 0 6-2.7 6-6 0-3.4-2.7-6.1-6-6.1-3.3 0-6 2.7-6 6.1z"/>
						<path id="&lt;Path&gt;" class="s10" d="m741.8 489.9c0-2.9-2.3-5.3-5.3-5.3-2.9 0-5.2 2.4-5.2 5.3 0 2.9 2.3 5.3 5.2 5.3 3 0 5.3-2.4 5.3-5.3z"/>
						<path id="&lt;Path&gt;" class="s10" d="m731.3 513.2c-1.2 0-2.1 0.9-2.1 2.1 0 1.1 0.9 2.1 2.1 2.1 1.1 0 2.1-1 2.1-2.1 0-1.2-1-2.1-2.1-2.1z"/>
						<path id="&lt;Path&gt;" class="s10" d="m712.7 522c1.3 0 2.3-1.1 2.3-2.3 0-1.3-1-2.3-2.3-2.3-1.2 0-2.3 1-2.3 2.3 0 1.2 1.1 2.3 2.3 2.3z"/>
						<path id="&lt;Path&gt;" class="s10" d="m698.2 529c-0.8 0-1.5 0.7-1.5 1.6 0 0.8 0.7 1.5 1.5 1.5 0.9 0 1.5-0.7 1.5-1.5 0-0.9-0.6-1.6-1.5-1.6z"/>
						<path id="&lt;Path&gt;" class="s10" d="m724.4 502c0-1.8-1.4-3.3-3.3-3.3-1.8 0-3.3 1.5-3.3 3.3 0 1.9 1.5 3.4 3.3 3.4 1.9 0 3.3-1.5 3.3-3.4z"/>
						<path id="&lt;Path&gt;" class="s10" d="m737.9 502.8c0 0.4 0.3 0.7 0.7 0.7 0.4 0 0.8-0.3 0.8-0.7 0-0.4-0.4-0.8-0.8-0.8-0.4 0-0.7 0.4-0.7 0.8z"/>
						<path id="&lt;Path&gt;" class="s10" d="m746 491.7c1.1 0 2-0.9 2-2.1 0-1.1-0.9-2-2-2-1.2 0-2.1 0.9-2.1 2 0 1.2 0.9 2.1 2.1 2.1z"/>
						<path id="&lt;Path&gt;" class="s10" d="m736.6 473.1c0-3.6-2.9-6.6-6.6-6.6-3.7 0-6.6 3-6.6 6.6 0 3.7 2.9 6.6 6.6 6.6 3.7 0 6.6-2.9 6.6-6.6z"/>
						<path id="&lt;Path&gt;" class="s10" d="m740.8 455.9c0-1.2-0.9-2.1-2.1-2.1-1.1 0-2.1 0.9-2.1 2.1 0 1.1 1 2.1 2.1 2.1 1.2 0 2.1-1 2.1-2.1z"/>
						<path id="&lt;Path&gt;" class="s10" d="m702.4 419.9c-3.1 0-5.7 2.6-5.7 5.8 0 3.2 2.6 5.7 5.7 5.7 3.2 0 5.8-2.5 5.8-5.7 0-3.2-2.6-5.8-5.8-5.8z"/>
						<path id="&lt;Path&gt;" class="s10" d="m720.1 442.1c0-1.4-1.1-2.6-2.5-2.6-1.4 0-2.6 1.2-2.6 2.6 0 1.4 1.2 2.5 2.6 2.5 1.4 0 2.5-1.1 2.5-2.5z"/>
						<path id="&lt;Path&gt;" class="s10" d="m712.9 527.6c-2.6 0-4.7 2.1-4.7 4.7 0 2.6 2.1 4.7 4.7 4.7 2.6 0 4.7-2.1 4.7-4.7 0-2.6-2.1-4.7-4.7-4.7z"/>
						<path id="&lt;Path&gt;" class="s10" d="m701.1 514.1c-2.5 0-4.4 1.9-4.4 4.4 0 2.4 1.9 4.3 4.4 4.3 2.4 0 4.3-1.9 4.3-4.3 0-2.5-1.9-4.4-4.3-4.4z"/>
						<path id="&lt;Path&gt;" class="s10" d="m726.1 515.4c0-1.4-1.1-2.5-2.5-2.5-1.4 0-2.5 1.1-2.5 2.5 0 1.4 1.1 2.5 2.5 2.5 1.4 0 2.5-1.1 2.5-2.5z"/>
						<path id="&lt;Path&gt;" class="s10" d="m726 522.8c-1.3 0-2.4 1.1-2.4 2.4 0 1.3 1.1 2.4 2.4 2.4 1.3 0 2.3-1.1 2.3-2.4 0-1.3-1-2.4-2.3-2.4z"/>
						<path id="&lt;Path&gt;" class="s10" d="m743.5 508.1c-2.7 0-4.9 2.2-4.9 4.9 0 2.7 2.2 4.9 4.9 4.9 2.7 0 4.9-2.2 4.9-4.9 0-2.7-2.2-4.9-4.9-4.9z"/>
						<path id="&lt;Path&gt;" class="s10" d="m732.3 500.2c-2.2 0-4 1.8-4 3.9 0 2.2 1.8 4 4 4 2.1 0 3.9-1.8 3.9-4 0-2.1-1.8-3.9-3.9-3.9z"/>
						<path id="&lt;Path&gt;" class="s10" d="m714.2 508.3c0-1.3-1.1-2.5-2.5-2.5-1.4 0-2.5 1.2-2.5 2.5 0 1.4 1.1 2.5 2.5 2.5 1.4 0 2.5-1.1 2.5-2.5z"/>
						<path id="&lt;Path&gt;" class="s10" d="m722.2 492.7c0 1.7 1.4 3.1 3.1 3.1 1.7 0 3-1.4 3-3.1 0-1.7-1.3-3.1-3-3.1-1.7 0-3.1 1.4-3.1 3.1z"/>
						<path id="&lt;Path&gt;" class="s10" d="m747.7 483.4c0-1-0.8-1.9-1.9-1.9-1 0-1.9 0.9-1.9 1.9 0 1.1 0.9 1.9 1.9 1.9 1.1 0 1.9-0.8 1.9-1.9z"/>
						<path id="&lt;Path&gt;" class="s10" d="m750 454.7c2.3 0 4.2-1.8 4.2-4.1 0-2.3-1.9-4.2-4.2-4.2-2.3 0-4.2 1.9-4.2 4.2 0 2.3 1.9 4.1 4.2 4.1z"/>
						<path id="&lt;Path&gt;" class="s10" d="m726.7 462.8c2.5 0 4.5-2 4.5-4.5 0-2.5-2-4.5-4.5-4.5-2.5 0-4.5 2-4.5 4.5 0 2.5 2 4.5 4.5 4.5z"/>
						<path id="&lt;Path&gt;" class="s10" d="m727.9 431.5c0.7 0 1.3-0.6 1.3-1.2 0-0.7-0.6-1.2-1.3-1.2-0.6 0-1.2 0.5-1.2 1.2 0 0.6 0.6 1.2 1.2 1.2z"/>
						<path id="&lt;Path&gt;" class="s10" d="m713.9 418.6c0.6 0 1.1-0.6 1.1-1.2 0-0.6-0.5-1.2-1.1-1.2-0.6 0-1.2 0.6-1.2 1.2 0 0.6 0.6 1.2 1.2 1.2z"/>
						<path id="&lt;Path&gt;" class="s10" d="m710.2 440.6c1.2 0 2.1-0.9 2.1-2 0-1.2-0.9-2.1-2.1-2.1-1.1 0-2 0.9-2 2.1 0 1.1 0.9 2 2 2z"/>
						<path id="&lt;Path&gt;" class="s10" d="m724.7 424.4c0.8 0 1.4-0.6 1.4-1.4 0-0.7-0.6-1.3-1.4-1.3-0.7 0-1.3 0.6-1.3 1.3 0 0.8 0.6 1.4 1.3 1.4z"/>
						<path id="&lt;Path&gt;" class="s10" d="m736.5 450.9c0-0.4-0.2-0.6-0.6-0.6-0.3 0-0.6 0.2-0.6 0.6 0 0.3 0.3 0.6 0.6 0.6 0.4 0 0.6-0.3 0.6-0.6z"/>
						<path id="&lt;Path&gt;" class="s10" d="m739.5 433.5c0.9 0 1.6-0.7 1.6-1.6 0-0.9-0.7-1.6-1.6-1.6-0.9 0-1.6 0.7-1.6 1.6 0 0.9 0.7 1.6 1.6 1.6z"/>
						<path id="&lt;Path&gt;" class="s10" d="m717.1 452.3c0-0.8-0.7-1.4-1.5-1.4-0.8 0-1.4 0.6-1.4 1.4 0 0.8 0.6 1.5 1.4 1.5 0.8 0 1.5-0.7 1.5-1.5z"/>
						<path id="&lt;Path&gt;" class="s10" d="m753 463c0 0.3 0.3 0.5 0.6 0.5 0.3 0 0.6-0.2 0.6-0.5 0-0.3-0.3-0.6-0.6-0.6-0.3 0-0.6 0.3-0.6 0.6z"/>
						<path id="&lt;Path&gt;" class="s10" d="m757.1 473.1c-1.6 0-2.9 1.3-2.9 2.9 0 1.6 1.3 3 2.9 3 1.6 0 2.9-1.4 2.9-3 0-1.6-1.3-2.9-2.9-2.9z"/>
						<path id="&lt;Path&gt;" class="s10" d="m751.8 496.5c-1 0-1.8 0.8-1.8 1.8 0 1 0.8 1.8 1.8 1.8 1 0 1.8-0.8 1.8-1.8 0-1-0.8-1.8-1.8-1.8z"/>
						<path id="&lt;Path&gt;" class="s10" d="m754.2 489.6c-0.3 0-0.6 0.3-0.6 0.7 0 0.3 0.3 0.6 0.6 0.6 0.4 0 0.7-0.3 0.7-0.6 0-0.4-0.3-0.7-0.7-0.7z"/>
						<path id="&lt;Path&gt;" class="s10" d="m720.1 483.1c0 0.8 0.7 1.5 1.6 1.5 0.9 0 1.6-0.7 1.6-1.5 0-0.9-0.7-1.6-1.6-1.6-0.9 0-1.6 0.7-1.6 1.6z"/>
						<path id="&lt;Path&gt;" class="s10" d="m717.8 493.3c0 0.3 0.2 0.5 0.5 0.5 0.3 0 0.6-0.2 0.6-0.5 0-0.3-0.3-0.6-0.6-0.6-0.3 0-0.5 0.3-0.5 0.6z"/>
						<path id="&lt;Path&gt;" class="s10" d="m729.2 482.5c0 0.6 0.4 1.1 1 1.1 0.6 0 1-0.5 1-1.1 0-0.5-0.4-1-1-1-0.6 0-1 0.5-1 1z"/>
						<path id="&lt;Path&gt;" class="s10" d="m739.4 477.5c0 0.5 0.4 0.9 0.8 0.9 0.5 0 0.9-0.4 0.9-0.9 0-0.5-0.4-0.9-0.9-0.9-0.4 0-0.8 0.4-0.8 0.9z"/>
						<path id="&lt;Path&gt;" class="s10" d="m749.4 500.2c-0.9 0-1.7 0.7-1.7 1.7 0 0.9 0.8 1.6 1.7 1.6 0.9 0 1.7-0.7 1.7-1.6 0-1-0.8-1.7-1.7-1.7z"/>
						<path id="&lt;Path&gt;" class="s10" d="m738.3 522.6c-0.2 0-0.4 0.2-0.4 0.4 0 0.3 0.2 0.4 0.4 0.4 0.2 0 0.4-0.1 0.4-0.4 0-0.2-0.2-0.4-0.4-0.4z"/>
						<path id="&lt;Path&gt;" class="s10" d="m703.2 511.6c0.5 0 0.8-0.4 0.8-0.8 0-0.5-0.3-0.8-0.8-0.8-0.4 0-0.8 0.3-0.8 0.8 0 0.4 0.4 0.8 0.8 0.8z"/>
						<path id="&lt;Path&gt;" class="s10" d="m713.8 497c-0.9 0-1.5 0.7-1.5 1.5 0 0.9 0.6 1.6 1.5 1.6 0.8 0 1.5-0.7 1.5-1.6 0-0.8-0.7-1.5-1.5-1.5z"/>
						<path id="&lt;Path&gt;" class="s10" d="m703.9 438.8c0-0.4-0.3-0.8-0.7-0.8-0.4 0-0.8 0.4-0.8 0.8 0 0.4 0.4 0.7 0.8 0.7 0.4 0 0.7-0.3 0.7-0.7z"/>
						<path id="&lt;Path&gt;" class="s10" d="m706.8 415.8c0.8 0 1.4-0.6 1.4-1.4 0-0.7-0.6-1.3-1.4-1.3-0.7 0-1.4 0.6-1.4 1.3 0 0.8 0.7 1.4 1.4 1.4z"/>
					</g>
				</g>
				<g id="&lt;Group&gt;">
					<path id="&lt;Path&gt;" class="s7" d="m525.3 522.3c-1.9-2-4.1-3.9-6.4-5.5q-1.8-1.1-3.8-2.1c-1.3-0.5-2.8-0.9-4-1.2-2.6-0.9-4.7-2.6-6.3-4.7-3.2-4.4-4.9-9.7-6.8-15-0.9-2.6-1.8-5.3-2.9-7.9q-0.4-0.9-0.8-1.8c1.6-1.7 3-3.8 4-6.1 5.1-11.6-2.2-39.3 7.3-56.2 9.5-17 20-39.6 0.9-45.4-8.5-2.6-23.5 3.6-31.9 33.6-8.4 30-8.6 54.5-2.3 70.2 2 5 4.8 7.7 7.9 8.8 0.2 3.9 0.5 7.8 1.3 11.6q0.5 2.2 1.2 4.3c0.3 0.8 0.5 1.5 0.9 2.2l0.6 1 0.6 0.9c1.4 2.4 2.7 4.8 3.5 7.4 0.8 2.7 1 5.4 0.2 8-0.7 2.7-2.4 4.9-4.4 6.9-2 2.1-3.7 4.6-4.5 7.4-0.3 1.4-0.5 2.9-0.3 4.3q0.1 1.1 0.5 2.1 0.2 0.6 0.5 1c0.1 0.3 0.4 0.7 0.8 0.5-0.4 0.2-0.6-0.3-0.8-0.5q-0.2-0.5-0.4-1-0.3-1-0.4-2.1c0-1.4 0.2-2.8 0.6-4.1 0.9-2.7 2.6-5 4.6-6.9 2.2-1.9 4.2-4.2 5.2-7.1 0.5-1.4 0.7-3 0.8-4.5q0-2.2-0.6-4.4c-0.7-2.9-1.9-5.6-3.3-8.2l-0.6-0.9-0.4-0.9c-0.3-0.6-0.4-1.3-0.7-1.9q-0.5-1.9-0.8-4c-0.6-3.4-0.7-7-0.7-10.5q0.8-0.1 1.6-0.2 0.1 1 0.3 2c0.5 2.9 1.4 5.8 2.9 8.5 1.5 2.7 3.6 4.7 5.6 6.7 2 2 4 3.9 5.8 6 1.8 2.1 3.3 4.4 4 7 0.3 1.3 0.5 2.6 0.3 4 0 0.6-0.1 1.4-0.2 2.1 0 0.7-0.1 1.4-0.1 2.2 0.1 2.8 0.6 5.7 1.6 8.3 0.6 1.4 1.2 2.6 2.1 3.8 0.8 1.1 2 2.1 3.4 2.2-1.4-0.1-2.5-1.2-3.2-2.4-0.8-1.1-1.4-2.4-1.8-3.7-0.9-2.7-1.2-5.5-1.1-8.2 0-0.7 0.1-1.4 0.1-2.1 0.1-0.7 0.3-1.3 0.3-2.1 0.3-1.4 0.2-2.9 0-4.4-0.7-2.9-2.2-5.5-3.9-7.8-1.8-2.3-3.7-4.4-5.6-6.5-1.8-2.1-3.7-4.2-4.9-6.4-1.5-3.1-2.1-6.7-2.3-10.2q1.7-0.7 3.2-1.9 0.2 0.3 0.4 0.7c1.2 2.5 2.3 5 3.3 7.6 2.2 5.2 4.2 10.6 8 15.1 1.9 2.3 4.4 4.2 7.3 4.9 1.5 0.3 2.6 0.5 4 1 1.2 0.5 2.5 1.1 3.7 1.8 2.3 1.4 4.6 3.1 6.6 5 1 1 2 2 2.8 3.1 0.8 1.1 1.8 2.2 1.8 3.7 0.1-1.5-0.8-2.7-1.6-3.9-0.8-1.1-1.7-2.2-2.7-3.2z"/>
					<path id="&lt;Path&gt;" class="s9" d="m484.1 485.8c-4.4 0.4-7-3.6-8.4-7-6.3-15.7-5.4-39.8 2.4-67.8 7.8-27.7 20.1-31 23.7-31.3q1.9-0.2 3.6 0.3c3.8 1.1 6.2 3 7.3 5.7 3.7 9.2-6.5 27.4-10.4 34.2-5.9 10.7-5.8 24.5-5.7 36.7 0.1 8.1 0.2 15.7-1.7 19.9-2.2 5.1-6.6 8.9-10.8 9.3z"/>
					<g id="&lt;Group&gt;" style="opacity: .5">
						<path id="&lt;Path&gt;" class="s10" d="m499.5 389.5c-3.7 0.4-6.3 3.6-6 7.2 0.4 3.6 3.6 6.3 7.2 5.9 3.6-0.3 6.3-3.6 5.9-7.2-0.3-3.6-3.5-6.2-7.1-5.9z"/>
						<path id="&lt;Path&gt;" class="s10" d="m485 467.2c-3.3 0.3-5.8 3.3-5.5 6.6 0.4 3.4 3.3 5.8 6.7 5.5 3.3-0.3 5.7-3.3 5.4-6.6-0.3-3.4-3.3-5.8-6.6-5.5z"/>
						<path id="&lt;Path&gt;" class="s10" d="m485 433.8c0.1 1 1 1.7 2 1.6 1-0.1 1.7-0.9 1.6-1.9-0.1-1-1-1.7-2-1.6-0.9 0.1-1.7 0.9-1.6 1.9z"/>
						<path id="&lt;Path&gt;" class="s10" d="m488.2 417c1.7-0.1 2.9-1.6 2.7-3.2-0.2-1.7-1.6-2.9-3.3-2.7-1.6 0.2-2.8 1.6-2.7 3.3 0.2 1.6 1.7 2.8 3.3 2.6z"/>
						<path id="&lt;Path&gt;" class="s10" d="m481.9 456.2c2.2-0.2 3.9-2.2 3.7-4.4-0.3-2.2-2.2-3.8-4.5-3.6-2.2 0.2-3.8 2.2-3.6 4.4 0.2 2.2 2.2 3.8 4.4 3.6z"/>
						<path id="&lt;Path&gt;" class="s10" d="m490.8 459.4c-0.8 0.1-1.4 0.9-1.3 1.7 0 0.8 0.8 1.4 1.6 1.3 0.8-0.1 1.4-0.8 1.3-1.6 0-0.8-0.8-1.4-1.6-1.4z"/>
						<path id="&lt;Path&gt;" class="s10" d="m502.2 408.6c-0.5 0.1-0.8 0.5-0.8 1.1 0.1 0.5 0.5 0.9 1 0.8 0.5 0 0.9-0.5 0.9-1-0.1-0.5-0.5-0.9-1.1-0.9z"/>
						<path id="&lt;Path&gt;" class="s10" d="m496.3 418.9c-0.3 0-0.6 0.3-0.6 0.6 0.1 0.4 0.4 0.6 0.7 0.6 0.3 0 0.6-0.3 0.6-0.7-0.1-0.3-0.4-0.6-0.7-0.5z"/>
						<path id="&lt;Path&gt;" class="s10" d="m484.9 431c1.9-0.2 3.3-1.8 3.1-3.7-0.2-1.9-1.9-3.3-3.7-3.1-1.9 0.2-3.3 1.9-3.1 3.7 0.2 1.9 1.9 3.3 3.7 3.1z"/>
						<path id="&lt;Path&gt;" class="s10" d="m488.7 436.9c-2.5 0.2-4.4 2.4-4.1 5 0.2 2.5 2.5 4.3 5 4.1 2.5-0.2 4.4-2.5 4.1-5-0.2-2.5-2.5-4.4-5-4.1z"/>
						<path id="&lt;Path&gt;" class="s10" d="m481.3 439.6c0.6-0.1 1-0.5 0.9-1.1 0-0.6-0.5-1-1.1-0.9-0.5 0-0.9 0.5-0.9 1.1 0.1 0.5 0.6 1 1.1 0.9z"/>
						<path id="&lt;Path&gt;" class="s10" d="m497.9 424.6c-0.2 0.1-0.4 0.3-0.4 0.5 0 0.2 0.2 0.4 0.5 0.4 0.2 0 0.4-0.2 0.4-0.5-0.1-0.2-0.3-0.4-0.5-0.4z"/>
						<path id="&lt;Path&gt;" class="s10" d="m487.3 421.8c0.1 1.2 1.1 2 2.2 1.9 1.2-0.1 2-1.1 1.9-2.3-0.1-1.1-1.1-1.9-2.3-1.8-1.1 0.1-1.9 1.1-1.8 2.2z"/>
						<path id="&lt;Path&gt;" class="s10" d="m479.5 463c0.1 1.2 1.1 2 2.3 1.9 1.2-0.1 2.1-1.1 2-2.3-0.2-1.2-1.2-2.1-2.4-2-1.2 0.2-2 1.2-1.9 2.4z"/>
						<path id="&lt;Path&gt;" class="s10" d="m491.3 451.3c-0.6 0-0.9 0.5-0.9 1 0.1 0.5 0.5 0.9 1 0.9 0.6-0.1 0.9-0.6 0.9-1.1-0.1-0.5-0.5-0.9-1-0.8z"/>
						<path id="&lt;Path&gt;" class="s10" d="m491.9 466.4c-0.5 0-0.8 0.5-0.8 0.9 0.1 0.5 0.5 0.9 0.9 0.8 0.5 0 0.9-0.5 0.8-0.9 0-0.5-0.4-0.8-0.9-0.8z"/>
						<path id="&lt;Path&gt;" class="s10" d="m491.4 400.9c1.1-0.1 1.9-1.1 1.8-2.2-0.1-1.1-1.1-1.9-2.2-1.8-1.1 0.1-1.8 1.1-1.7 2.2 0.1 1.1 1 1.9 2.1 1.8z"/>
						<path id="&lt;Path&gt;" class="s10" d="m495.5 405c-2 0.2-3.5 2-3.3 4 0.2 2 2 3.4 4 3.2 2-0.2 3.4-1.9 3.3-3.9-0.2-2-2-3.5-4-3.3z"/>
						<path id="&lt;Path&gt;" class="s10" d="m503.8 386.6c0.6 0 1-0.6 1-1.2-0.1-0.6-0.6-1-1.2-1-0.7 0.1-1.1 0.6-1 1.2 0 0.6 0.6 1.1 1.2 1z"/>
						<path id="&lt;Path&gt;" class="s10" d="m509.4 388.5c-0.5 0.1-0.8 0.5-0.8 1 0 0.5 0.5 0.8 0.9 0.8 0.5-0.1 0.9-0.5 0.8-1 0-0.5-0.5-0.8-0.9-0.8z"/>
						<path id="&lt;Path&gt;" class="s10" d="m486.3 407.8c0.6 0 1-0.5 0.9-1 0-0.6-0.5-1-1-0.9-0.6 0-1 0.5-0.9 1 0 0.6 0.5 1 1 0.9z"/>
						<path id="&lt;Path&gt;" class="s10" d="m494.2 426.7c-1.3 0.1-2.2 1.2-2 2.4 0.1 1.2 1.2 2.1 2.4 2 1.2-0.1 2.1-1.2 2-2.4-0.1-1.2-1.2-2.1-2.4-2z"/>
						<path id="&lt;Path&gt;" class="s10" d="m479.9 419c0.4 0 0.6-0.3 0.6-0.6-0.1-0.3-0.4-0.6-0.7-0.5-0.3 0-0.5 0.3-0.5 0.6 0 0.3 0.3 0.6 0.6 0.5z"/>
						<path id="&lt;Path&gt;" class="s10" d="m477.9 445.7c0.6 0 1-0.6 1-1.2-0.1-0.5-0.6-1-1.2-0.9-0.6 0-1 0.6-1 1.2 0.1 0.5 0.6 1 1.2 0.9z"/>
						<path id="&lt;Path&gt;" class="s10" d="m476.4 467c-0.5 0-0.9 0.5-0.9 1 0.1 0.5 0.5 0.8 1 0.8 0.5 0 0.9-0.5 0.8-1 0-0.5-0.4-0.9-0.9-0.8z"/>
						<path id="&lt;Path&gt;" class="s10" d="m475.7 453.7c-0.8 0.1-1.5 0.9-1.4 1.7 0.1 0.9 0.9 1.5 1.7 1.4 0.9-0.1 1.5-0.8 1.4-1.7-0.1-0.8-0.8-1.5-1.7-1.4z"/>
						<path id="&lt;Path&gt;" class="s10" d="m477.6 431.7c0.6 0 1.1-0.6 1-1.2-0.1-0.6-0.6-1-1.2-0.9-0.6 0-1 0.6-0.9 1.1 0 0.6 0.5 1.1 1.1 1z"/>
					</g>
				</g>
				<g id="&lt;Group&gt;">
					<path id="&lt;Path&gt;" class="s7" d="m619.4 584.5q-0.4-0.3-0.8-0.6c-7.6-5.7 2.3-14.2 8.1-16.2 12.5-4.2 28.1 0.4 34 12.7 2.8 5.9 3.3 13.4 0.6 19.4-1.1 2.3-2.9 4.3-5.2 5.3-8.1 3.3-15.3-5.3-20.7-9.8-5-4.1-10.8-7-16-10.8z"/>
					<path id="&lt;Path&gt;" class="s9" d="m652.4 602.1c-3.9 0-8-3.7-11.7-7-1-1-2-1.9-2.9-2.6-3.1-2.6-6.4-4.6-9.6-6.6-2.3-1.5-4.5-2.9-6.6-4.4l-0.8-0.5c-1.4-1.1-1.3-1.8-1.2-2.2 0.4-2.7 5-6.5 8.3-7.6 2.6-0.9 5.4-1.3 8.2-1.3 9.4 0 17.7 4.8 21.2 12.1 2.5 5.2 2.7 11.6 0.6 16.3-0.8 1.6-1.9 2.8-3.2 3.4q-1.1 0.4-2.3 0.4z"/>
					<path id="&lt;Path&gt;" class="s7" d="m595.7 573.2c2.3-1.7 5.1-2.6 7.8-2.1 5 1 6.7 6.1 8.8 10.2 5.5 11 20.6 9.9 26.8 20.5 1.2 2.2 2 4.8 1.6 7.3-1 6.6-9.2 7.8-14.6 8.3-14.8 1.4-34.8-3.9-39-20.2-1.5-6.1-0.3-13.1 3.2-18.4 1.4-2 3.2-4.1 5.4-5.6z"/>
					<path id="&lt;Path&gt;" class="s9" d="m621.5 613.9c-12.1 0-27.4-4.6-30.8-17.6-1.3-5.2-0.3-10.9 2.7-15.5 1.2-1.8 2.8-3.5 4.4-4.6 1-0.7 2.6-1.5 4.1-1.5q0.5 0 0.9 0.1c2.3 0.4 3.6 2.7 5.3 6.4q0.4 0.9 0.9 1.8c3.3 6.7 9.6 9.6 15.2 12.2 4.7 2.2 9.2 4.3 11.6 8.5 1 1.7 1.4 3.4 1.2 4.8-0.4 2.9-3.9 4.5-11.2 5.2q-2.1 0.2-4.3 0.2z"/>
					<g id="&lt;Group&gt;" style="opacity: .5">
						<path id="&lt;Path&gt;" class="s10" d="m605.2 596.2c-2.3 0-4.1 1.8-4.1 4 0 2.2 1.8 4.1 4.1 4.1 2.2 0 4-1.9 4-4.1 0-2.2-1.8-4-4-4z"/>
						<path id="&lt;Path&gt;" class="s10" d="m617.7 602.1c-1 0-1.9 0.9-1.9 1.9 0 1 0.9 1.8 1.9 1.8 1 0 1.9-0.8 1.9-1.8 0-1-0.9-1.9-1.9-1.9z"/>
						<path id="&lt;Path&gt;" class="s10" d="m627.8 605.8c-0.5 0-0.9 0.5-0.9 1 0 0.6 0.4 1 0.9 1 0.6 0 1-0.4 1-1 0-0.5-0.4-1-1-1z"/>
						<path id="&lt;Path&gt;" class="s10" d="m612.5 591.9c0.6 0 1.1-0.4 1.1-1.1 0-0.6-0.5-1.1-1.1-1.1-0.6 0-1.1 0.5-1.1 1.1 0 0.7 0.5 1.1 1.1 1.1z"/>
						<path id="&lt;Path&gt;" class="s10" d="m602.9 587.9c0 1 0.9 1.8 1.9 1.8 1 0 1.9-0.8 1.9-1.8 0-1.1-0.9-1.9-1.9-1.9-1 0-1.9 0.8-1.9 1.9z"/>
						<path id="&lt;Path&gt;" class="s10" d="m598.9 589.7c-0.6 0-1.1 0.5-1.1 1.1 0 0.7 0.5 1.1 1.1 1.1 0.6 0 1.1-0.4 1.1-1.1 0-0.6-0.5-1.1-1.1-1.1z"/>
						<path id="&lt;Path&gt;" class="s10" d="m602.9 581.8c0.6 0 1-0.4 1-0.9 0-0.5-0.4-0.9-1-0.9-0.5 0-0.9 0.4-0.9 0.9 0 0.5 0.4 0.9 0.9 0.9z"/>
						<path id="&lt;Path&gt;" class="s10" d="m596.7 595.1c-1.2 0-2.2 0.9-2.2 2.2 0 1.2 1 2.2 2.2 2.2 1.2 0 2.2-1 2.2-2.2 0-1.3-1-2.2-2.2-2.2z"/>
						<path id="&lt;Path&gt;" class="s10" d="m611.4 607.8c-1.2 0-2.2 1-2.2 2.2 0 1.2 1 2.2 2.2 2.2 1.2 0 2.2-1 2.2-2.2 0-1.2-1-2.2-2.2-2.2z"/>
						<path id="&lt;Path&gt;" class="s10" d="m625.3 600.2c-0.9 0-1.6 0.7-1.6 1.6 0 0.9 0.7 1.6 1.6 1.6 0.9 0 1.6-0.7 1.6-1.6 0-0.9-0.7-1.6-1.6-1.6z"/>
						<path id="&lt;Path&gt;" class="s10" d="m614.2 596.2c-0.3 0-0.6 0.2-0.6 0.5 0 0.3 0.3 0.6 0.6 0.6 0.3 0 0.5-0.3 0.5-0.6 0-0.3-0.2-0.5-0.5-0.5z"/>
						<path id="&lt;Path&gt;" class="s10" d="m622.4 609c-0.5 0-0.9 0.4-0.9 0.9 0 0.4 0.4 0.8 0.9 0.8 0.4 0 0.8-0.4 0.8-0.8 0-0.5-0.4-0.9-0.8-0.9z"/>
						<path id="&lt;Path&gt;" class="s10" d="m597.9 582.9c-1.4 0-2.5 1.1-2.5 2.5 0 1.4 1.1 2.5 2.5 2.5 1.3 0 2.5-1.1 2.5-2.5 0-1.4-1.2-2.5-2.5-2.5z"/>
						<path id="&lt;Path&gt;" class="s10" d="m595.1 590.5c0-0.4-0.3-0.8-0.7-0.8-0.5 0-0.8 0.4-0.8 0.8 0 0.4 0.3 0.8 0.8 0.8 0.4 0 0.7-0.4 0.7-0.8z"/>
						<path id="&lt;Path&gt;" class="s10" d="m621 596.7c-1.2 0-2.2 1-2.2 2.2 0 1.2 1 2.2 2.2 2.2 1.2 0 2.2-1 2.2-2.2 0-1.2-1-2.2-2.2-2.2z"/>
						<path id="&lt;Path&gt;" class="s10" d="m603.4 605.9c-0.7 0-1.4 0.6-1.4 1.3 0 0.8 0.7 1.4 1.4 1.4 0.8 0 1.4-0.6 1.4-1.4 0-0.7-0.6-1.3-1.4-1.3z"/>
						<path id="&lt;Path&gt;" class="s10" d="m634.7 606.8c-0.3 0-0.5 0.2-0.5 0.5 0 0.3 0.2 0.5 0.5 0.5 0.3 0 0.5-0.2 0.5-0.5 0-0.3-0.2-0.5-0.5-0.5z"/>
						<path id="&lt;Path&gt;" class="s10" d="m650.8 581.2c0-2.3-1.8-4.2-4.1-4.2-2.3 0-4.2 1.9-4.2 4.2 0 2.3 1.9 4.2 4.2 4.2 2.3 0 4.1-1.9 4.1-4.2z"/>
						<path id="&lt;Path&gt;" class="s10" d="m650.4 594.3c-0.5 0-0.9 0.4-0.9 0.9 0 0.5 0.4 1 0.9 1 0.5 0 0.9-0.5 0.9-1 0-0.5-0.4-0.9-0.9-0.9z"/>
						<path id="&lt;Path&gt;" class="s10" d="m630.9 577c-1.1 0-2.1 1-2.1 2.1 0 1.2 1 2.1 2.1 2.1 1.2 0 2.1-0.9 2.1-2.1 0-1.1-0.9-2.1-2.1-2.1z"/>
						<path id="&lt;Path&gt;" class="s10" d="m640.1 585.4c-0.3 0-0.6 0.3-0.6 0.7 0 0.3 0.3 0.6 0.6 0.6 0.4 0 0.7-0.3 0.7-0.6 0-0.4-0.3-0.7-0.7-0.7z"/>
						<path id="&lt;Path&gt;" class="s10" d="m636.4 574.7c-0.7 0-1.2 0.5-1.2 1.2 0 0.6 0.5 1.1 1.2 1.1 0.6 0 1.1-0.5 1.1-1.1 0-0.7-0.5-1.2-1.1-1.2z"/>
						<path id="&lt;Path&gt;" class="s10" d="m656 587.9c-1.8 0-3.2 1.4-3.2 3.2 0 1.8 1.4 3.2 3.2 3.2 1.8 0 3.2-1.4 3.2-3.2 0-1.8-1.4-3.2-3.2-3.2z"/>
						<path id="&lt;Path&gt;" class="s10" d="m645 591.9c-0.7 0-1.2 0.6-1.2 1.2 0 0.7 0.5 1.2 1.2 1.2 0.6 0 1.1-0.5 1.1-1.2 0-0.6-0.5-1.2-1.1-1.2z"/>
						<path id="&lt;Path&gt;" class="s10" d="m650.8 599.5c-0.2 0-0.4 0.1-0.4 0.3 0 0.2 0.2 0.4 0.4 0.4 0.2 0 0.3-0.2 0.3-0.4 0-0.2-0.1-0.3-0.3-0.3z"/>
						<path id="&lt;Path&gt;" class="s10" d="m649.5 590.2c0 0.2 0.2 0.4 0.4 0.4 0.3 0 0.5-0.2 0.5-0.4 0-0.3-0.2-0.5-0.5-0.5-0.2 0-0.4 0.2-0.4 0.5z"/>
						<path id="&lt;Path&gt;" class="s10" d="m634.7 584.5c-0.3 0-0.5 0.2-0.5 0.5 0 0.3 0.2 0.5 0.5 0.5 0.3 0 0.5-0.2 0.5-0.5 0-0.3-0.2-0.5-0.5-0.5z"/>
						<path id="&lt;Path&gt;" class="s10" d="m641.2 591.1c-0.2 0-0.4 0.2-0.4 0.4 0 0.3 0.2 0.4 0.4 0.4 0.3 0 0.5-0.1 0.5-0.4 0-0.2-0.2-0.4-0.5-0.4z"/>
						<path id="&lt;Path&gt;" class="s10" d="m642.1 574.7c-0.3 0-0.4 0.2-0.4 0.4 0 0.2 0.1 0.4 0.4 0.4 0.2 0 0.4-0.2 0.4-0.4 0-0.2-0.2-0.4-0.4-0.4z"/>
						<path id="&lt;Path&gt;" class="s10" d="m640.8 581.9c0-0.5-0.4-1-1-1-0.5 0-1 0.5-1 1 0 0.6 0.5 1 1 1 0.6 0 1-0.4 1-1z"/>
						<path id="&lt;Path&gt;" class="s10" d="m622.6 577c-0.6 0-1.1 0.5-1.1 1.1 0 0.6 0.5 1 1.1 1 0.5 0 1-0.4 1-1 0-0.6-0.5-1.1-1-1.1z"/>
						<path id="&lt;Path&gt;" class="s10" d="m629.2 575.5c0.3 0 0.4-0.2 0.4-0.4 0-0.2-0.1-0.4-0.4-0.4-0.2 0-0.4 0.2-0.4 0.4 0 0.2 0.2 0.4 0.4 0.4z"/>
						<path id="&lt;Path&gt;" class="s10" d="m627.2 581.8c0.1 0 0.3-0.1 0.3-0.3 0-0.1-0.2-0.3-0.3-0.3-0.2 0-0.3 0.2-0.3 0.3 0 0.2 0.1 0.3 0.3 0.3z"/>
						<path id="&lt;Path&gt;" class="s10" d="m632 584.2c-0.6 0-1.1 0.5-1.1 1.1 0 0.6 0.5 1 1.1 1 0.5 0 1-0.4 1-1 0-0.6-0.5-1.1-1-1.1z"/>
					</g>
				</g>
				<g id="&lt;Group&gt;">
					<path id="&lt;Path&gt;" class="s7" d="m716.6 286.6c1.2-0.5 2.5-0.6 3.8 0.1 4 2.1 2.6 8.7 2.3 12.3-0.3 3.8-0.8 7.7-0.4 11.5 0.4 3.9 2.1 7.6 2.9 11.5 0.3 1.7 0.4 3.5-0.4 5-1.2 2.2-3.9 3.1-6.2 2.4-4.2-1.3-5.4-6.1-6.1-9.9-0.9-5.1-1.8-10.2-2-15.4-0.1-5 0.2-12.2 4-16.1 0.6-0.6 1.3-1.1 2.1-1.4z"/>
					<path id="&lt;Path&gt;" class="s9" d="m720.2 325.9q-0.3 0-0.5-0.1c-1.7-0.5-2.8-2.6-3.6-6.9-0.8-4.6-1.7-9.8-1.8-14.9-0.2-6.7 0.7-11.3 2.8-13.4 0.3-0.3 0.6-0.5 0.9-0.6q0.3-0.1 0.5-0.1c1.4 0.7 0.9 4.9 0.7 7q-0.2 1-0.2 1.9-0.1 1-0.2 2.1c-0.3 3.2-0.5 6.5-0.2 9.9 0.2 2.7 1 5.1 1.7 7.4 0.5 1.5 0.9 3 1.2 4.5 0.3 1.5 0.2 2.3 0 2.6-0.2 0.4-0.8 0.6-1.3 0.6z"/>
					<path id="&lt;Path&gt;" class="s7" d="m760.6 392.5c-1.1 0.6-2.5 0.8-3.8 0.2-4.1-1.9-3.1-8.6-3.1-12.2 0-3.8 0.3-7.7-0.3-11.4-0.7-4-2.7-7.5-3.7-11.3-0.4-1.7-0.6-3.5 0.1-5.1 1-2.2 3.7-3.3 6-2.7 4.3 1 5.8 5.7 6.7 9.4 1.3 5 2.5 10.1 3 15.2 0.5 5.1 0.7 12.3-2.9 16.4-0.5 0.6-1.2 1.2-2 1.5z"/>
					<path id="&lt;Path&gt;" class="s9" d="m758.5 389.4q0 0-0.1-0.1c-1.3-0.5-1.1-4.8-1-6.9q0-1 0-1.9 0-1 0.1-2.1c0-3.2 0.1-6.6-0.5-9.9-0.4-2.6-1.3-5-2.2-7.2-0.6-1.6-1.1-3-1.5-4.5-0.4-1.5-0.3-2.2-0.1-2.6 0.2-0.4 0.7-0.7 1.4-0.7q0.2 0 0.4 0.1c1.6 0.4 2.9 2.4 3.9 6.7 1.2 4.5 2.4 9.6 2.9 14.7 0.6 6.7 0 11.3-2 13.5-0.2 0.3-0.5 0.6-0.8 0.7q-0.3 0.1-0.5 0.2z"/>
					<path id="&lt;Path&gt;" class="s7" d="m726.3 323.9q0.8-0.2 1.6-0.3c3-0.2 5.9 1.1 8.5 2.6 5.2 3 10.4 6.6 14.1 11.4 1.9 2.5 3.5 6.1 3.9 9.3 0.5 4.1-2.5 6.8-6.4 4.7-6.9-3.6-11.8-10.8-18.7-14.8-1.7-0.9-3.4-1.7-4.8-2.8-1.4-1.2-2.5-2.9-2.6-4.7 0-2.5 2-4.6 4.4-5.4z"/>
					<path id="&lt;Path&gt;" class="s9" d="m750.6 348.6c-0.1 0-0.4 0-0.8-0.2-3.2-1.7-5.9-4.3-8.8-7-3-2.8-6.1-5.6-9.9-7.8q-0.6-0.3-1.2-0.6c-1.1-0.7-2.2-1.2-3-1.9-0.7-0.6-1.2-1.4-1.2-1.9-0.1-0.6 0.8-1.4 1.8-1.7q0.4-0.1 0.7-0.2 0.2 0 0.4 0c2 0 4.3 1.2 6 2.1 6.1 3.6 10.1 6.8 12.9 10.4 1.6 2.1 2.9 5.1 3.2 7.6 0.1 0.7 0 1.1-0.1 1.2z"/>
				</g>
				<g id="&lt;Group&gt;">
					<path id="&lt;Path&gt;" class="s7" d="m693 265.1c0.6 1.2 0.7 2.5 0.1 3.8-2 4.1-8.7 2.9-12.3 2.7-3.8-0.1-7.7-0.5-11.4 0-4 0.6-7.6 2.5-11.5 3.3-1.6 0.4-3.5 0.5-5-0.2-2.2-1.1-3.2-3.8-2.6-6.1 1.2-4.2 5.9-5.6 9.7-6.4 5-1.1 10.1-2.2 15.3-2.5 5-0.3 12.3-0.3 16.2 3.4 0.7 0.5 1.2 1.2 1.5 2z"/>
					<path id="&lt;Path&gt;" class="s9" d="m653.9 270.1q-0.1-0.3 0-0.6c0.5-1.6 2.6-2.8 6.9-3.7 4.5-1 9.7-2.1 14.7-2.4 6.8-0.4 11.3 0.4 13.5 2.4 0.3 0.3 0.5 0.6 0.7 0.9q0.1 0.2 0.1 0.4c-0.7 1.4-4.9 1.1-7 0.9q-1 0-1.9-0.1-1 0-2.1-0.1c-3.2-0.1-6.5-0.3-9.9 0.1-2.7 0.4-5 1.2-7.3 2-1.6 0.6-3 1.1-4.5 1.4-1.5 0.3-2.2 0.2-2.6 0.1-0.4-0.3-0.6-0.8-0.6-1.3z"/>
					<path id="&lt;Path&gt;" class="s7" d="m531.7 432.8c-1.3-0.2-2.5-0.8-3.2-2-2.3-4 2.3-8.9 4.4-11.8 2.2-3.1 4.6-6.2 6.3-9.6 1.7-3.6 2.1-7.7 3.5-11.4 0.6-1.6 1.4-3.2 2.9-4.1 2.1-1.3 4.9-0.6 6.5 1.2 2.9 3.3 1.5 8 0.2 11.6-1.9 4.8-3.8 9.7-6.3 14.2-2.5 4.4-6.5 10.4-11.8 11.7-0.8 0.2-1.7 0.3-2.5 0.2z"/>
					<path id="&lt;Path&gt;" class="s9" d="m548.9 397.2q0.3 0.2 0.5 0.4c1.1 1.3 0.9 3.7-0.6 7.8-1.7 4.3-3.6 9.3-6.1 13.6-3.3 5.9-6.5 9.3-9.4 10-0.3 0.1-0.7 0.2-1 0.1q-0.3 0-0.5-0.1c-0.8-1.3 1.8-4.7 3-6.4q0.7-0.8 1.2-1.5 0.6-0.8 1.2-1.7c1.9-2.6 3.9-5.3 5.3-8.4 1.2-2.4 1.8-4.8 2.4-7.2 0.4-1.6 0.7-3.1 1.3-4.5 0.5-1.5 1-2 1.3-2.2 0.4-0.2 1-0.1 1.4 0.1z"/>
					<path id="&lt;Path&gt;" class="s7" d="m584.6 632.9c-0.1 1.3-0.7 2.5-1.8 3.3-3.7 2.7-9-1.6-12.1-3.4-3.3-1.9-6.5-4.1-10.1-5.5-3.7-1.4-7.8-1.4-11.6-2.5-1.6-0.5-3.3-1.2-4.3-2.6-1.5-2-1-4.9 0.7-6.6 3-3.2 7.8-2.1 11.5-1.1 4.9 1.5 10 3 14.6 5.1 4.6 2.2 11 5.6 12.7 10.8 0.3 0.8 0.4 1.6 0.4 2.5z"/>
					<path id="&lt;Path&gt;" class="s9" d="m580.7 633.1q0 0.1-0.1 0.1c-1.1 0.8-4.7-1.5-6.4-2.6q-0.9-0.6-1.6-1-0.9-0.5-1.8-1.1c-2.8-1.7-5.6-3.4-8.8-4.6-2.5-1-5-1.4-7.4-1.8-1.6-0.2-3.1-0.5-4.6-0.9-1.5-0.4-2.1-0.9-2.3-1.2-0.2-0.3-0.2-1 0.1-1.5q0.1-0.2 0.3-0.4c1.1-1.2 3.6-1.2 7.8 0 4.4 1.3 9.5 2.8 14.1 4.9 6.1 2.9 9.7 5.8 10.7 8.6 0.1 0.3 0.2 0.7 0.2 1q-0.1 0.3-0.2 0.5z"/>
					<path id="&lt;Path&gt;" class="s7" d="m450.2 420c-1.1 0.6-2.4 0.9-3.8 0.4-4.3-1.5-3.8-8.2-4.1-11.9-0.3-3.7-0.4-7.6-1.3-11.3-1-3.9-3.3-7.2-4.6-11-0.6-1.6-0.9-3.4-0.4-5 0.8-2.4 3.4-3.6 5.8-3.3 4.3 0.7 6.3 5.2 7.5 8.9 1.7 4.8 3.3 9.8 4.2 14.9 0.9 5 1.7 12.1-1.5 16.5-0.5 0.7-1.1 1.3-1.8 1.8z"/>
					<path id="&lt;Path&gt;" class="s9" d="m447.8 416.9q0 0.1-0.1 0c-1.3-0.4-1.5-4.7-1.6-6.8q0-1-0.1-1.8-0.1-1.1-0.1-2.2c-0.3-3.2-0.5-6.5-1.3-9.8-0.7-2.6-1.8-4.9-2.8-7-0.7-1.5-1.4-2.9-1.9-4.3-0.5-1.5-0.5-2.2-0.4-2.6 0.2-0.4 0.7-0.8 1.3-0.8q0.3 0 0.5 0c1.7 0.3 3.1 2.2 4.5 6.4 1.5 4.4 3.2 9.4 4.1 14.3 1.2 6.7 0.9 11.3-0.9 13.7-0.2 0.3-0.5 0.6-0.7 0.8q-0.3 0.1-0.5 0.1z"/>
					<path id="&lt;Path&gt;" class="s7" d="m801.7 407.8c1.3-0.3 2.6-0.2 3.8 0.7 3.6 2.8 1 9.1 0.1 12.6-0.9 3.7-2 7.4-2.3 11.2-0.3 4 0.8 7.9 0.9 11.9 0 1.7-0.2 3.5-1.3 4.8-1.5 2-4.3 2.4-6.5 1.3-3.9-2-4.3-6.9-4.3-10.7 0-5.2-0.1-10.4 0.7-15.5 0.7-5.1 2.2-12.1 6.6-15.3 0.7-0.5 1.5-0.8 2.3-1z"/>
					<path id="&lt;Path&gt;" class="s9" d="m803 411.4q0.1 0 0.2 0c1.1 0.9-0.1 5-0.7 7q-0.3 1-0.5 1.8-0.2 1-0.5 2.1c-0.8 3.1-1.7 6.3-1.9 9.7-0.2 2.7 0.1 5.1 0.4 7.5 0.2 1.7 0.4 3.2 0.5 4.7 0 1.6-0.3 2.3-0.5 2.6-0.3 0.3-0.9 0.5-1.5 0.3q-0.2 0-0.4-0.1c-1.5-0.8-2.3-3.1-2.3-7.5 0-4.6-0.1-9.9 0.7-14.9 0.9-6.7 2.7-11 5.1-12.7 0.3-0.3 0.7-0.4 1-0.5q0.3-0.1 0.4 0z"/>
					<path id="&lt;Path&gt;" class="s7" d="m437.8 491.7c1.2-0.3 2.6-0.2 3.7 0.7 3.6 2.8 1 9.1 0.2 12.6-1 3.7-2.1 7.4-2.4 11.2-0.3 4 0.9 7.9 0.9 11.8 0 1.7-0.2 3.6-1.2 4.9-1.5 2-4.4 2.4-6.6 1.3-3.8-2-4.2-6.9-4.3-10.8 0-5.1 0-10.3 0.7-15.5 0.7-5 2.3-12 6.7-15.2 0.7-0.5 1.5-0.8 2.3-1z"/>
					<path id="&lt;Path&gt;" class="s9" d="m439.1 495.3q0 0 0.1 0c1.1 0.9-0.1 5-0.6 7q-0.3 1-0.5 1.8-0.3 1-0.6 2c-0.8 3.2-1.6 6.4-1.9 9.8-0.2 2.7 0.1 5.1 0.5 7.5 0.2 1.7 0.4 3.2 0.4 4.7 0 1.6-0.3 2.3-0.5 2.6-0.3 0.3-0.9 0.5-1.5 0.3q-0.2 0-0.4-0.1c-1.5-0.8-2.2-3.1-2.3-7.5 0-4.6 0-9.9 0.7-14.9 1-6.7 2.7-11 5.1-12.8 0.3-0.2 0.7-0.3 1-0.4q0.3-0.1 0.5 0z"/>
					<path id="&lt;Path&gt;" class="s7" d="m739.6 573.9c0.8 1 1.3 2.3 1.1 3.6-0.8 4.6-7.5 5.3-11.1 6.2-3.6 0.9-7.4 1.6-10.9 3.2-3.7 1.6-6.6 4.4-10.1 6.4-1.4 0.8-3.1 1.5-4.8 1.2-2.5-0.4-4.2-2.8-4.2-5.2-0.1-4.3 4-7 7.4-8.9 4.5-2.4 9.1-4.9 14-6.7 4.7-1.7 11.7-3.7 16.5-1.3 0.8 0.4 1.5 0.9 2.1 1.5z"/>
					<path id="&lt;Path&gt;" class="s9" d="m737 576.8q0 0 0 0.1c-0.2 1.4-4.4 2.3-6.4 2.7q-1 0.2-1.9 0.5-1 0.2-2 0.5c-3.2 0.7-6.4 1.5-9.5 2.9-2.5 1.1-4.5 2.5-6.4 3.9-1.4 1-2.6 1.9-4 2.6-1.3 0.8-2.1 0.9-2.4 0.8-0.5-0.1-0.9-0.5-1.1-1.1q0-0.3 0-0.5c-0.1-1.7 1.6-3.4 5.5-5.5 4.1-2.2 8.7-4.8 13.4-6.5 6.4-2.3 11-2.8 13.7-1.5 0.3 0.2 0.6 0.4 0.9 0.7q0.2 0.2 0.2 0.4z"/>
					<path id="&lt;Path&gt;" class="s7" d="m515.8 261.4q0.8-0.3 1.6-0.3c3-0.3 5.9 1.1 8.5 2.6 5.2 3 10.3 6.5 14 11.3 2 2.6 3.5 6.2 3.9 9.4 0.6 4.1-2.5 6.7-6.3 4.7-7-3.7-11.9-10.9-18.8-14.8-1.6-0.9-3.3-1.7-4.7-2.9-1.4-1.2-2.6-2.9-2.6-4.7-0.1-2.5 2-4.5 4.4-5.3z"/>
					<path id="&lt;Path&gt;" class="s9" d="m540 286.1c-0.1 0-0.3-0.1-0.8-0.3-3.1-1.6-5.9-4.2-8.8-6.9-3-2.8-6.1-5.7-9.9-7.8q-0.6-0.4-1.2-0.7c-1.1-0.6-2.1-1.2-2.9-1.8-0.8-0.7-1.3-1.4-1.3-2 0-0.6 0.8-1.3 1.8-1.7q0.4-0.1 0.8-0.1 0.2 0 0.4 0c2 0 4.2 1.1 5.9 2.1 6.2 3.5 10.2 6.7 13 10.4 1.6 2 2.8 5.1 3.2 7.6 0 0.7-0.1 1-0.2 1.2z"/>
				</g>
				<g id="&lt;Group&gt;">
					<path id="&lt;Path&gt;" class="s7" d="m696.6 351.2c1.7 0.9 2.9 2.5 3.1 4.3 0.1 0.7 0.1 1.4 0.2 2.1 0.5 2.2 3 3.3 5.3 3.4 3 0.1 9.5-2 10.8 2.3 0.5 1.8-0.8 3.7-2.4 4.9-2.2 1.7-5.1 3.1-5.2 6.3 0 2.9 4.2 4.9 0.8 7.7-1.4 1.2-3.3 1.6-4.8 2.6-1.9 1.1-3.2 3-4.7 4.5-1.5 1.6-3.5 2.9-5.7 2.7-1.6-0.2-3-1.3-4.3-2.4q-7.5-6.1-14.9-12.2c-1.9-1.6-4-4.3-2.4-6.2 1-1.3 3-1.1 4.5-0.4 1.5 0.6 2.9 1.7 4.5 1.9 2.1 0.3 4.4-1.2 4.9-3.4 0.5-1.8-0.2-3.7-0.6-5.6-0.7-2.9-0.6-6 0.8-8.7 1.3-2.6 4.1-4.6 7-4.6 1.1 0 2.2 0.3 3.1 0.8z"/>
					<path id="&lt;Path&gt;" class="s9" d="m694.5 387.4q-0.1 0-0.3 0c-3.2 0.1-7.9-4-10.1-6-0.9-0.7-1.7-1.6-2.1-2.7-1.4-4.2 7.9-7.6 8.2-12.5 0.3-3.3-2.3-7-0.2-10.1 3.9-6 6.3 3.3 8.1 5.3 2 2.4 12.8 3.2 10.5 6.8-0.6 0.9-1.5 1.5-2.2 2.2-2 2.1-0.6 5.2-1.1 7.7-0.3 2.2-0.6 1.9-2.4 3.5-2.2 1.9-5.2 5.5-8.4 5.8z"/>
					<g id="&lt;Group&gt;" style="opacity: .5">
						<path id="&lt;Path&gt;" class="s10" d="m692.9 375.1c-1.8 0-3.3 1.5-3.3 3.4 0 1.8 1.5 3.3 3.3 3.3 1.9 0 3.4-1.5 3.4-3.3 0-1.9-1.5-3.4-3.4-3.4z"/>
						<path id="&lt;Path&gt;" class="s10" d="m701.8 367.2c-1 0-1.7 0.8-1.7 1.8 0 1 0.7 1.8 1.7 1.8 1 0 1.8-0.8 1.8-1.8 0-1-0.8-1.8-1.8-1.8z"/>
						<path id="&lt;Path&gt;" class="s10" d="m693 359.9c0.8 0 1.4-0.6 1.4-1.4 0-0.8-0.6-1.4-1.4-1.4-0.8 0-1.4 0.6-1.4 1.4 0 0.8 0.6 1.4 1.4 1.4z"/>
						<path id="&lt;Path&gt;" class="s10" d="m695.1 366.1c-0.6 0-1.1 0.5-1.1 1.2 0 0.6 0.5 1.1 1.1 1.1 0.7 0 1.2-0.5 1.2-1.1 0-0.7-0.5-1.2-1.2-1.2z"/>
						<path id="&lt;Path&gt;" class="s10" d="m699.4 373.6c0.4 0 0.7-0.3 0.7-0.6 0-0.4-0.3-0.7-0.7-0.7-0.3 0-0.6 0.3-0.6 0.7 0 0.3 0.3 0.6 0.6 0.6z"/>
						<path id="&lt;Path&gt;" class="s10" d="m687.9 376.9c-0.4 0-0.7 0.4-0.7 0.8 0 0.4 0.3 0.8 0.7 0.8 0.5 0 0.8-0.4 0.8-0.8 0-0.4-0.3-0.8-0.8-0.8z"/>
						<path id="&lt;Path&gt;" class="s10" d="m699.8 378.5c-0.6 0-1 0.4-1 1 0 0.6 0.4 1.1 1 1.1 0.6 0 1.1-0.5 1.1-1.1 0-0.6-0.5-1-1.1-1z"/>
					</g>
				</g>
				<g id="&lt;Group&gt;">
					<path id="&lt;Path&gt;" class="s7" d="m516.4 315.3c-0.8-1.4-2.9-2.3-6.5-3.1-3.2-0.6-5.7-4-8.6-4.2-3.4-0.2-3.4 2.8-5.4 4.5-3.4 2.8-8.5 2-9.7 6.4-0.9 3.4 2.3 5.9 0.3 9.4-1.8 3.1-6.7 5.5-6.9 9.5-0.3 5.4 7.2 9.9 11.7 6.9 6.3-4.3 12.4 2.6 18.7 0.6 8.5-2.7 7.2-11.5 3.7-16.9-1-1.6 0.1-3.6 1-5.3 1.9-3.7 2.6-6.1 1.7-7.8z"/>
					<path id="&lt;Path&gt;" class="s9" d="m507.5 341.6q-1.1 0.1-2.6-0.1c-5-0.5-8.4-2.9-13.5-0.9-1.8 0.7-3.8 1.4-5.6 0.7-6.1-2.3 4.1-10.8 4.3-14.4 0.1-4.9-0.2-8.2 4.2-11 3.2-2 8.6-3.8 12.4-2.9 8.6 2.2 4.3 8.3 3.6 13.9-0.6 4.8 5.4 14.4-2.8 14.7z"/>
					<path id="&lt;Path&gt;" class="s11" d="m505.1 328.1c0 2-1.6 3.6-3.6 3.6-2 0-3.5-1.6-3.5-3.6 0-2 1.5-3.6 3.5-3.6 2 0 3.6 1.6 3.6 3.6z"/>
					<path id="&lt;Path&gt;" class="s11" d="m495.7 335.7c0 0.7-0.6 1.3-1.3 1.3-0.7 0-1.3-0.6-1.3-1.3 0-0.7 0.6-1.3 1.3-1.3 0.7 0 1.3 0.6 1.3 1.3z"/>
					<path id="&lt;Path&gt;" class="s11" d="m505.9 338c0 0.6-0.5 1.1-1.1 1.1-0.6 0-1.1-0.5-1.1-1.1 0-0.6 0.5-1.1 1.1-1.1 0.6 0 1.1 0.5 1.1 1.1z"/>
					<path id="&lt;Path&gt;" class="s11" d="m506.8 320.6c0 0.8-0.7 1.5-1.5 1.5-0.9 0-1.6-0.7-1.6-1.5 0-0.9 0.7-1.6 1.6-1.6 0.8 0 1.5 0.7 1.5 1.6z"/>
					<path id="&lt;Path&gt;" class="s11" d="m498.9 322.2c0 0.3-0.2 0.5-0.5 0.5-0.2 0-0.4-0.2-0.4-0.5 0-0.2 0.2-0.4 0.4-0.4 0.3 0 0.5 0.2 0.5 0.4z"/>
					<path id="&lt;Path&gt;" class="s11" d="m494.9 331.4c0 0.9-0.8 1.7-1.8 1.7-0.9 0-1.7-0.8-1.7-1.7 0-1 0.8-1.8 1.7-1.8 1 0 1.8 0.8 1.8 1.8z"/>
					<path id="&lt;Path&gt;" class="s11" d="m501.6 335.2c0 1-0.8 1.8-1.8 1.8-1 0-1.8-0.8-1.8-1.8 0-1 0.8-1.9 1.8-1.9 1 0 1.8 0.9 1.8 1.9z"/>
					<path id="&lt;Path&gt;" class="s11" d="m491 337.8c0 0.5-0.4 0.9-0.9 0.9-0.5 0-0.9-0.4-0.9-0.9 0-0.5 0.4-0.9 0.9-0.9 0.5 0 0.9 0.4 0.9 0.9z"/>
					<path id="&lt;Path&gt;" class="s11" d="m503 318c0 1.4-1.1 2.6-2.5 2.6-1.4 0-2.5-1.2-2.5-2.6 0-1.3 1.1-2.5 2.5-2.5 1.4 0 2.5 1.2 2.5 2.5z"/>
				</g>
				<g id="&lt;Group&gt;">
					<path id="&lt;Path&gt;" class="s7" d="m555.3 559.4c-1-0.3-2.2-0.5-3.2-0.8-5.8-1.6-5.1-6.7-8.8-10-4.6-4.1-10.2 1-15 1.9-4.1 0.8-7.8-1.1-5.8 5.1 0.5 1.7 0.4 4.2-1.4 4.6-0.6 0.1-1.3-0.1-2-0.3-6.7-1.6-14.2 8.5-8.7 13.8 3.5 3.5 8.2 0.9 12.4 1.6 2.6 0.4 5.2 2 6 4.5 0.5 1.2 0.5 2.5 0.8 3.8 1.8 5.7 10 5.2 14.4 3.4 1.6-0.7 3-2.1 3.3-3.8 0.5-3.9-2.5-5.9-0.3-9.7 1.6-2.7 5.8-4.1 8.1-6.2 1.7-1.6 3.6-4.1 2.4-6.2-0.4-0.9-1.2-1.3-2.2-1.7z"/>
					<path id="&lt;Path&gt;" class="s9" d="m537.7 584.7c-1.2 0-2.5 0-3.4-0.7-2.1-1.7-1.6-5.5-3.1-7.7-1.8-2.6-4.8-4.2-7.8-4.7q-1.1-0.2-2.3-0.2c-1.1 0-2.2 0.2-3.2 0.3-0.9 0.1-1.7 0.1-2.5 0.1-1.3 0-1.9-0.2-2.4-0.7-4.3-4.2 3.3-6.7 6.4-7.3 2.5-0.4 3.9 0.3 5.5-2.2 1.4-2 0.5-5 2.3-6.9 2.2-2.6 8.8-4 12.1-4 0.6 0 1 0.2 1.5 0.7 0.9 0.8 1.5 1.9 2.2 3.2 1.3 2.8 3.7 4.3 6.4 5.9 7 4.5-3.3 7-5.6 11.2-2.1 3.5 2.2 9.5-1.9 12-1.2 0.7-2.6 0.9-4 1q-0.1 0-0.2 0z"/>
					<g id="&lt;Group&gt;" style="opacity: .5">
						<path id="&lt;Path&gt;" class="s10" d="m535.6 555.6c-2.9 0-5.3 2.4-5.3 5.3 0 2.9 2.4 5.3 5.3 5.3 2.9 0 5.3-2.4 5.3-5.3 0-2.9-2.4-5.3-5.3-5.3z"/>
						<path id="&lt;Path&gt;" class="s10" d="m537.1 569.9c-0.8 0-1.5 0.7-1.5 1.6 0 0.8 0.7 1.5 1.5 1.5 0.9 0 1.6-0.7 1.6-1.5 0-0.9-0.7-1.6-1.6-1.6z"/>
						<path id="&lt;Path&gt;" class="s10" d="m539.5 580c-0.3 0-0.6 0.3-0.6 0.6 0 0.3 0.3 0.6 0.6 0.6 0.4 0 0.7-0.3 0.7-0.6 0-0.3-0.3-0.6-0.7-0.6z"/>
						<path id="&lt;Path&gt;" class="s10" d="m516.4 567.6c-0.7 0-1.2 0.5-1.2 1.2 0 0.6 0.5 1.1 1.2 1.1 0.6 0 1.1-0.5 1.1-1.1 0-0.7-0.5-1.2-1.1-1.2z"/>
						<path id="&lt;Path&gt;" class="s10" d="m527.6 566.2c-1.4 0-2.6 1.2-2.6 2.6 0 1.5 1.2 2.7 2.6 2.7 1.5 0 2.7-1.2 2.7-2.7 0-1.4-1.2-2.6-2.7-2.6z"/>
						<path id="&lt;Path&gt;" class="s10" d="m546.2 562.7c-0.8 0-1.4 0.6-1.4 1.3 0 0.8 0.6 1.4 1.4 1.4 0.8 0 1.4-0.6 1.4-1.4 0-0.7-0.6-1.3-1.4-1.3z"/>
						<path id="&lt;Path&gt;" class="s10" d="m536.9 575.5c-0.7 0-1.3 0.6-1.3 1.3 0 0.7 0.6 1.3 1.3 1.3 0.7 0 1.2-0.6 1.2-1.3 0-0.7-0.5-1.3-1.2-1.3z"/>
					</g>
				</g>
			</g>
		</g>
	</g>
	<g id="Plant">
		<g id="&lt;Group&gt;">
			<g id="&lt;Group&gt;">
				<path id="&lt;Path&gt;" class="s7" d="m778.3 743.2c0 0-15.5-18.5-25.5-9.9-9.9 8.7-4.9 26.9 6.6 27.5 11.4 0.6 18.9-5.8 18.9-5.8z"/>
				<path id="&lt;Path&gt;" class="s12" d="m778.3 743.2c0 0-15.5-18.5-25.5-9.9-9.9 8.7-4.9 26.9 6.6 27.5 11.4 0.6 18.9-5.8 18.9-5.8z"/>
				<path id="&lt;Path&gt;" class="s7" d="m841.5 696.4c0 0 13-13.7 21.1-11.3 8.1 2.3 7.2 34.9-17.8 21.7z"/>
				<path id="&lt;Path&gt;" class="s13" d="m841.5 696.4c0 0 13-13.7 21.1-11.3 8.1 2.3 7.2 34.9-17.8 21.7z"/>
				<path id="&lt;Path&gt;" class="s7" d="m795 798.2c0 0-42.8-58.6-8.1-70.4 34.8-11.9 41 47.1 31.1 63.5-10 16.4-23 6.9-23 6.9z"/>
				<path id="&lt;Path&gt;" class="s7" d="m814.9 678.3c0 0 26.5-61.6-12.8-63.5-39.3-1.9-43.6 61.1 1.6 70.3z"/>
				<path id="&lt;Path&gt;" class="s13" d="m795 798.2c0 0-42.8-58.6-8.1-70.4 34.8-11.9 41 47.1 31.1 63.5-10 16.4-23 6.9-23 6.9z"/>
				<path id="&lt;Path&gt;" class="s13" d="m814.9 678.3c0 0 26.5-61.6-12.8-63.5-39.3-1.9-43.6 61.1 1.6 70.3z"/>
				<path id="&lt;Path&gt;" class="s7" d="m805.4 728.8c0 0-12.9-54.5 11.9-58.8 24.8-4.3 49.3 44.8-2 69.6 0 0-8.8-5.5-9.9-10.8z"/>
				<path id="&lt;Path&gt;" class="s12" d="m805.4 728.8c0 0-12.9-54.5 11.9-58.8 24.8-4.3 49.3 44.8-2 69.6 0 0-8.8-5.5-9.9-10.8z"/>
			</g>
			<g id="&lt;Group&gt;">
				<path id="&lt;Path&gt;" class="s14" d="m764.2 789.9h71.9l-6 45.9h-59.9z"/>
			</g>
			<g id="&lt;Group&gt;">
				<path id="&lt;Path&gt;" class="s7" d="m801.6 673.9c-3.8-2.7-7.1-6.1-10-9.8-2.9-3.6-5.2-7.7-7-12.1-1.8-4.4-2.6-9.2-2.6-13.9-0.1-4.7 1.4-9.3 3.2-13.5q-0.3 1.7-0.7 3.3l-0.5 1.7c0 0.6-0.1 1.1-0.1 1.7-0.1 1.1-0.3 2.3-0.4 3.4l0.1 3.4c0.3 4.5 1.1 9 2.8 13.2 1.7 4.2 3.9 8.1 6.5 11.9q1.9 2.9 4.1 5.5c1.4 1.8 3 3.5 4.6 5.2z"/>
			</g>
			<g id="&lt;Group&gt;">
				<path id="&lt;Path&gt;" class="s7" d="m792.1 621c2.3 0.4 4.4 1.2 6.5 2.2 2 1.1 3.9 2.3 5.7 3.9 3.5 3 6.1 6.9 7.9 11.2 1.8 4.3 2.6 8.9 2.8 13.4 0 2.3-0.1 4.6-0.2 6.8-0.4 2.3-0.7 4.5-1.2 6.7 0-2.3 0.1-4.5 0.2-6.7-0.1-2.3-0.1-4.5-0.3-6.7-0.5-2.2-0.5-4.4-1.2-6.5-0.2-1.1-0.4-2.2-0.8-3.2l-1.1-3.1c-3.3-8-9.8-14.8-18.3-18z"/>
			</g>
			<g id="&lt;Group&gt;">
				<path id="&lt;Path&gt;" class="s7" d="m822.2 673.9c5.8 2.1 10.5 6.8 13.1 12.5 1.2 2.9 2.1 5.9 2.4 9 0.2 0.8 0.1 1.6 0.1 2.4 0 0.8 0.1 1.6 0 2.4-0.3 1.5-0.4 3.1-1 4.6-0.8 3-2.3 5.8-3.7 8.5-1.7 2.6-3.4 5.2-5.4 7.5-4 4.7-8.4 8.9-13.3 12.5 2.2-2.1 4.3-4.2 6.3-6.5 2-2.2 4-4.5 5.8-7 3.5-4.8 6.8-9.9 8.4-15.6 0.5-1.4 0.7-2.8 0.9-4.2 0.1-0.8 0.1-1.5 0.1-2.2 0-0.7 0-1.4-0.1-2.2-0.2-2.9-0.9-5.8-2-8.6-1-2.7-2.6-5.3-4.6-7.5-1.9-2.3-4.3-4.2-7-5.6z"/>
			</g>
			<g id="&lt;Group&gt;">
				<path id="&lt;Path&gt;" class="s7" d="m814.9 678.3c1.4 4 2.3 8.2 2.7 12.5 0.2 2.1 0.2 4.3 0 6.5-0.3 2.1-0.9 4.4-2.1 6.3-2.3 3.4-3.1 7.4-3.6 11.6-0.2 2-0.3 4.1-0.3 6.2 0 2.1 0 4.2 0.1 6.4-1-4.2-1.4-8.4-1.3-12.7q0-3.3 0.8-6.5c0.3-1 0.6-2.1 1-3.1 0.4-1 1.2-2.1 1.6-2.9 1.1-1.6 1.6-3.6 1.9-5.6 0.3-2 0.4-4.1 0.4-6.2q-0.1-3.1-0.4-6.2c-0.2-2.1-0.5-4.2-0.8-6.3z"/>
			</g>
			<g id="&lt;Group&gt;">
				<path id="&lt;Path&gt;" class="s7" d="m797.4 733.3c1.1 0.4 1.9 1.2 2.7 2.1 0.7 0.8 1.3 1.8 1.9 2.8 1 2 1.9 4.1 2.7 6.2 1.5 4.2 2.6 8.5 3.5 12.9 0.9 4.4 1.7 8.8 2.1 13.2 0.5 4.5 0.9 8.9 0.7 13.4q-0.4-3.3-1-6.6-0.6-3.3-1.2-6.5c-0.8-4.4-1.6-8.8-2.5-13.1q-1.4-6.5-3.1-12.9c-0.6-2.1-1.3-4.2-2.1-6.2-0.4-1-0.9-2-1.5-2.9-0.6-0.9-1.2-1.8-2.2-2.4z"/>
			</g>
			<g id="&lt;Group&gt;">
				<path id="&lt;Path&gt;" class="s7" d="m785.2 735.2c-1.1 4-1.7 8.1-2 12.2-0.2 4 0.1 8.1 0.9 12.1 0.8 3.9 2.1 7.8 4 11.4 1.8 3.6 4.3 6.9 6.9 10.2q-1.2-1.1-2.3-2.1c-0.7-0.8-1.6-1.4-2.2-2.3-1.3-1.6-2.7-3.2-3.7-5.1-1.2-1.7-2-3.7-2.9-5.6-0.4-1-0.6-2-1-3-0.3-1.1-0.6-2.1-0.8-3.1-0.8-4.2-1-8.5-0.4-12.7 0.5-4.1 1.7-8.2 3.5-12z"/>
			</g>
			<g id="&lt;Group&gt;">
				<path id="&lt;Path&gt;" class="s7" d="m851.6 703c2.3-0.6 4.4-1.2 6.4-2 1-0.4 1.9-0.9 2.8-1.5 0.9-0.6 1.6-1.3 2.6-2.1-0.2 1.1-0.7 2.3-1.6 3.3-0.8 0.9-1.9 1.6-3 2.1-1.2 0.5-2.4 0.8-3.6 0.8-1.2 0.1-2.4-0.1-3.6-0.6z"/>
			</g>
			<g id="&lt;Group&gt;">
				<path id="&lt;Path&gt;" class="s7" d="m849 694c0.5-1.1 1.4-2 2.3-2.8 1-0.7 2.1-1.3 3.3-1.7 1.3-0.3 2.7-0.4 3.9 0 1.3 0.3 2.4 1.2 3 2.2-1.2-0.4-2.2-0.7-3.2-0.7q-1.6 0-3.1 0.4c-1 0.3-2 0.7-3.1 1.2z"/>
			</g>
			<g id="&lt;Group&gt;">
				<path id="&lt;Path&gt;" class="s7" d="m771.2 746c-2.7-2.1-5.2-4.2-7.9-5.7-1.3-0.8-2.8-1.4-4.2-1.6-1.5-0.2-3 0.1-4.6 0.9 1-1.4 2.8-2.4 4.6-2.5 1.9-0.1 3.7 0.6 5.2 1.4q2.3 1.4 4 3.3c1.1 1.2 2.2 2.6 2.9 4.2z"/>
			</g>
			<g id="&lt;Group&gt;">
				<path id="&lt;Path&gt;" class="s7" d="m771.2 755c-1.9 0.7-3.9 1.1-5.9 1.3q-2.9 0.3-6-0.2c-2-0.3-4-1-5.7-2.3-1.7-1.2-2.9-3.3-2.8-5.3 0.8 1.8 2.1 3.2 3.6 4 1.6 0.8 3.4 1.4 5.3 1.7 3.7 0.6 7.5 0.6 11.5 0.8z"/>
			</g>
		</g>
	</g>
	<g id="Books">
		<g id="&lt;Group&gt;">
			<g id="&lt;Group&gt;">
				<path id="&lt;Path&gt;" class="s14" d="m693.7 835.8v-65.5l-54.6-5.5-58.7 4.4 5.5 66.6z"/>
				<path id="&lt;Path&gt;" class="s11" d="m693.7 835.8v-65.5l-63.2 4 1.6 61.5z"/>
				<path id="&lt;Path&gt;" class="s13" d="m632.1 835.8l-1.6-61.5-50.1-5.1 5.5 66.6z"/>
				<g id="&lt;Group&gt;">
					<path id="&lt;Path&gt;" class="s14" d="m630.5 774.3l24.2 11.4 61.2-5.7-22.2-9.7z"/>
					<path id="&lt;Path&gt;" class="s15" d="m630.5 774.3l24.2 11.4 61.2-5.7-22.2-9.7z"/>
				</g>
				<path id="&lt;Path&gt;" class="s14" d="m630.5 774.3l-22 12.2-45.9-8.1 17.8-9.2z"/>
				<path id="&lt;Path&gt;" class="s11" d="m630.5 774.3l-22 12.2-45.9-8.1 17.8-9.2z"/>
				<g id="&lt;Group&gt;">
					<path id="&lt;Path&gt;" class="s7" d="m626.4 773.9l-4.6-0.5-3.3-0.3-21.1-2.2-17-38.5c0 0 6.8-11.2 18.4-7.6l4.7 11.3 4.7-7.3z"/>
					<path id="&lt;Path&gt;" class="s7" d="m682.7 749.1l-2.2 11.7-1.9 10.4-35.6 2.3 0.1-1.1 4.5-33.3z"/>
					<path id="&lt;Path&gt;" class="s11" d="m626.4 773.9l-4.6-0.5-3.3-0.3-21.1-2.2-17-38.5c0 0 6.8-11.2 18.4-7.6l4.7 11.3 4.7-7.3z"/>
					<path id="&lt;Path&gt;" class="s11" d="m682.7 749.1l-2.2 11.7-1.9 10.4-35.6 2.3 0.1-1.1 4.5-33.3z"/>
					<path id="&lt;Path&gt;" class="s9" d="m621.8 773.4l-3.3-0.3-15-37 4.7-7.3c7.9 20.7 11.7 35.4 13.6 44.6z"/>
					<path id="&lt;Path&gt;" class="s9" d="m680.5 760.8l-1.9 10.4-35.6 2.3 0.1-1.1c4.8-2.3 24-11.2 37.4-11.6z"/>
				</g>
			</g>
			<g id="&lt;Group&gt;">
				<g id="&lt;Group&gt;">
					<path id="&lt;Path&gt;" class="s7" d="m599.1 822v11.9h2v1.9h-89.2c-4.3 0-7.9-3.5-7.9-7.8 0-2.2 0.9-4.2 2.3-5.6 1.5-1.4 3.5-2.3 5.6-2.3h89.2v1.9z"/>
					<path id="&lt;Path&gt;" class="s13" d="m599.1 822v11.9h2v1.9h-45.1c-4.3 0-7.8-3.5-7.8-7.8 0-2.2 0.8-4.2 2.3-5.6 1.4-1.4 3.3-2.3 5.5-2.3h45.1v1.9z"/>
					<path id="&lt;Path&gt;" class="s16" d="m599.1 822v11.9h-43.1c-3.2 0-5.9-2.7-5.9-5.9 0-1.6 0.6-3.1 1.7-4.3 1.2-1.1 2.7-1.7 4.2-1.7z"/>
				</g>
				<g id="&lt;Group&gt;">
					<path id="&lt;Path&gt;" class="s14" d="m608.7 806.2v11.9h1.9v2h-89.1c-4.4 0-7.9-3.6-7.9-7.9 0-2.2 0.9-4.2 2.3-5.6 1.4-1.4 3.4-2.3 5.6-2.3h89.1v1.9z"/>
					<path id="&lt;Path&gt;" class="s13" d="m608.7 806.2v11.9h1.9v2h-45c-4.3 0-7.9-3.6-7.9-7.9 0-2.2 0.9-4.2 2.3-5.6 1.5-1.4 3.4-2.3 5.6-2.3h45v1.9z"/>
					<path id="&lt;Path&gt;" class="s16" d="m608.7 806.2v11.9h-43.1c-3.2 0-5.9-2.6-5.9-5.9 0-1.6 0.6-3.1 1.7-4.2 1.1-1.2 2.6-1.8 4.2-1.8z"/>
				</g>
				<g id="&lt;Group&gt;">
					<path id="&lt;Path&gt;" class="s7" d="m596.7 790.4v12h1.9v1.9h-89.2c-4.3 0-7.8-3.5-7.8-7.9 0-2.2 0.8-4.1 2.3-5.6 1.4-1.4 3.4-2.3 5.5-2.3h89.2v1.9z"/>
					<path id="&lt;Path&gt;" class="s13" d="m596.7 790.4v12h1.9v1.9h-45c-4.4 0-7.9-3.5-7.9-7.9 0-2.2 0.9-4.1 2.3-5.6 1.4-1.4 3.4-2.3 5.6-2.3h45v1.9z"/>
					<path id="&lt;Path&gt;" class="s16" d="m596.7 790.4v12h-43.1c-3.3 0-6-2.7-6-6 0-1.6 0.6-3.1 1.7-4.2 1.2-1.1 2.7-1.8 4.3-1.8z"/>
				</g>
			</g>
		</g>
	</g>
	<g id="Character">
		<g id="&lt;Group&gt;">
			<g id="&lt;Group&gt;">
				<g id="&lt;Group&gt;">
					<path id="&lt;Path&gt;" class="s17" d="m360.3 566.6l18.5-5.6-7.4-15.3c0 0-13.6 2.2-16 13.2z"/>
					<path id="&lt;Path&gt;" class="s17" d="m388.6 551.2l-8.2-10-9 4.5 7.4 15.3z"/>
				</g>
				<path id="&lt;Path&gt;" class="s14" d="m341 440.6c-6.6-3.1-20.2-1.8-25.9 13-5.8 14.7 0.1 33.1-1.6 51.4-1.8 18.2-5.3 25.5 2.7 29.5 7.9 4 9.8-4.7 15.7-3.2 5.9 1.4 17.7 6.7 20.2-2.6 2.6-9.2 0.6-10.5 7.4-12.1 6.8-1.6 8.1-15.3 6.5-21.4-1.6-6 9.5-10-0.5-30.8-10-20.9-24.5-23.8-24.5-23.8z"/>
				<g id="&lt;Group&gt;">
					<path id="&lt;Path&gt;" class="s7" d="m321.5 510.8c6.2 6.7 2.1 45.7 6.7 46.8 4.5 1.1 29.5-4.6 29.5-4.6l3.8 16.2c0 0-39 13.9-47 10.7-8.1-3.3-13.4-41.1-13.4-41.1z"/>
					<path id="&lt;Path&gt;" class="s15" d="m361.5 569.2c0 0-39 13.9-47 10.7-2.6-1-4.8-5.5-6.8-11.2-4.2-12.2-6.6-29.9-6.6-29.9l7.9-10.9 12.5-17.1c6.2 6.7 2.1 45.7 6.7 46.8 4.5 1.1 29.5-4.6 29.5-4.6z"/>
					<path id="&lt;Path&gt;" class="s9" d="m317.7 525.2c0 0-0.2 25.2-10 43.5-4.2-12.2-6.6-29.9-6.6-29.9l7.9-10.9c2.7-1.4 5.6-2.3 8.7-2.7z"/>
				</g>
				<g id="&lt;Group&gt;">
					<path id="&lt;Path&gt;" class="s7" d="m315.3 501.3c0 0 8.8 24.3-28.9 87-4.5 7.4-7.8 32.5-7.8 32.5l-37.3-25.2c0 0 29-88.2 74-94.3z"/>
					<path id="&lt;Path&gt;" class="s16" d="m315.3 501.3c0 0 8.8 24.3-28.9 87-4.5 7.4-7.8 32.5-7.8 32.5l-37.3-25.2c0 0 29-88.2 74-94.3z"/>
					<path id="&lt;Path&gt;" class="s18" d="m315.3 501.3c0 0 8.8 24.3-28.9 87-4.5 7.4-7.8 32.5-7.8 32.5l-37.3-25.2c0 0 29-88.2 74-94.3z"/>
				</g>
				<path id="&lt;Path&gt;" class="s14" d="m331.7 835.8c-11 0-12.4-0.1-18.6-0.3-5.3-0.2-6.6 0.4-10.8 0.3-3.6 0-3.5-3.4-2.4-7.4 0.6-1.9 1.4-6.1 2.2-9.3l16.1-1.1c2.3 4.3 7.4 10.5 13.6 11.3 5.9 0.8 4.3 6.5-0.1 6.5z"/>
				<g id="&lt;Group&gt;">
					<path id="&lt;Path&gt;" class="s14" d="m261.9 536.1c0 0 14.3 90.7 20.1 134.7 6.1 46.2 26 117.3 36.1 145.7-2 2.2-11.3 3.8-16.6 3.7 0 0-57-86.2-48.3-136.2-43.8-98.2-31-129.1-31-129.1z"/>
					<path id="&lt;Path&gt;" class="s15" d="m318.1 816.5c-2 2.2-11.3 3.8-16.6 3.7 0 0-57-86.2-48.3-136.2-4.7-10.5-8.7-20.3-12.2-29.3-14.2-36.7-19-61.4-20.2-77-1.3-16.4 1.4-22.8 1.4-22.8l39.7-18.8c0 0 14.3 90.7 20.1 134.7 6.1 46.2 26 117.3 36.1 145.7z"/>
				</g>
				<path id="&lt;Path&gt;" class="s7" d="m315.2 804.1c1.1 2.5 3 6.8 4.8 9.9 0.6 1.2 0.5 2.5-0.2 3-5.9 4.3-16.3 5.7-19.6 6.1-0.7 0.1-1.4-0.4-1.9-1.3l-4.8-9.2c-0.6-1.2-0.5-2.7 0.4-3l19.1-7c0.8-0.3 1.7 0.4 2.2 1.5z"/>
				<path id="&lt;Path&gt;" class="s9" d="m241 654.7c-14.2-36.7-19-61.4-20.2-77 8.1-2.7 13.9-4.2 13.9-4.2 0 0 13 28.8 6.3 81.2z"/>
				<path id="&lt;Path&gt;" class="s14" d="m237.7 835.8c-11 0-12.5-0.1-18.7-0.3-5.3-0.2-6.6 0.4-10.8 0.3-3.6 0-3.4-3.4-2.3-7.4 0.5-1.9 1.4-6.1 2.1-9.3l16.1-1.1c2.3 4.3 7.4 10.5 13.6 11.3 6 0.8 4.3 6.5 0 6.5z"/>
				<g id="&lt;Group&gt;">
					<path id="&lt;Path&gt;" class="s14" d="m249.3 534.5c0 0-11.7 91.1-18.5 134.9-7.1 46-8 119.9-6.2 150-2.6 1.5-11.9 0.4-17-1.1 0 0-30.5-98.8-8.1-144.3-14.5-106.5 6.5-132.6 6.5-132.6z"/>
					<path id="&lt;Path&gt;" class="s15" d="m249.3 534.5c0 0-11.7 91.1-18.5 134.9-7.1 46-8 119.9-6.2 150-2.6 1.5-11.9 0.4-17-1.1 0 0-30.5-98.8-8.1-144.3-14.5-106.5 6.5-132.6 6.5-132.6z"/>
				</g>
				<path id="&lt;Path&gt;" class="s7" d="m225.3 806.7c0.3 2.6 0.9 7.3 1.7 10.8 0.3 1.3-0.1 2.6-0.9 2.9-6.9 2.4-17.3 0.9-20.6 0.3-0.6-0.1-1.2-0.8-1.4-1.8l-2-10.1c-0.3-1.4 0.3-2.7 1.2-2.8l20.3-1.4c0.8-0.1 1.6 0.8 1.7 2.1z"/>
				<path id="&lt;Path&gt;" class="s7" d="m312.3 535.7c-9.6 12-46.8 23.3-46.8 23.3l-44.6-26.4c13.4-10.1 26.5-24 48-56.8 4.9-7.6 14.9-8.9 21.3-2.9 1.8 1.7 3.6 3.4 5.3 5.3 6.9 7.2 12.5 13.1 17.7 20.3 1.7 2.4 3.5 5 5.1 7.4 5.7 8.9 0.6 21.6-6 29.8z"/>
				<path id="&lt;Path&gt;" class="s14" d="m223.2 530.9l46.1 28.1-1.6 14.5-66.8-20.9c0 0 6.4-14.8 22.3-21.7z"/>
				<path id="&lt;Path&gt;" class="s15" d="m223.2 530.9l46.1 28.1-1.6 14.5-66.8-20.9c0 0 6.4-14.8 22.3-21.7z"/>
				<g id="&lt;Group&gt;">
					<path id="&lt;Path&gt;" class="s7" d="m315.3 501.3c0 0 8 9.1 7.6 13.5-1.2 11.7-37.1 75-37.1 75 0 0 21.4-51.3 29.5-88.5z"/>
					<path id="&lt;Path&gt;" class="s16" d="m322.9 514.8c-0.4 3.5-3.7 11.4-8.3 20.9-2.1 4.4-4.5 9.2-7 14-10 19.2-21.2 39-21.8 40.1 0.4-0.9 6.7-16.2 13.7-36q0.1 0 0.1-0.1 0.1-0.3 0.1-0.5 0.5-1.4 1-2.8c1.8-5 3.6-10.4 5.4-15.8 3.6-11.2 6.9-22.8 9.2-33.3 0 0 0.7 0.9 1.8 2.3 2.3 2.9 6.1 8.2 5.8 11.2z"/>
					<path id="&lt;Path&gt;" class="s7" d="m314.9 499.1c0 0 4.1 5.4 3.2 13.8l-3.9 1.9 0.9 10.2c0 0-8.8 19.3-15.6 28.9 0 0 13.2-40.9 15.4-54.8z"/>
					<path id="&lt;Path&gt;" class="s15" d="m318.1 512.9l-3.9 1.9 0.9 10.2c0 0-2 4.5-4.9 10.1-2.4 4.9-5.4 10.6-8.3 15.2-0.8 1.3-1.6 2.5-2.4 3.6q0 0 0-0.1 0.1 0 0.1-0.1 0.1-0.3 0.1-0.5c0.2-0.6 0.5-1.5 0.9-2.7 1.1-3.5 2.9-9.4 4.9-16 3.8-12.5 8.2-27.9 9.4-35.4 0 0 1.2 1.6 2.2 4.5 0.8 2.3 1.4 5.5 1 9.3z"/>
				</g>
				<g id="&lt;Group&gt;">
					<path id="&lt;Path&gt;" class="s17" d="m324.1 466.6v1.3l-0.6 18.8q-0.1 0.1-0.2 0.1 0 0 0 0c-3.3 1.2-6.4 2.7-8.1 4.9-1.8 2.3-2.2 5.4 0.1 9.6 0 0 0.4 4-9.2 3.6-2.1-18.3-8.5-23.9-8.5-23.9 8.7 1.4 20.6-8.4 26.5-14.4z"/>
					<path id="&lt;Path&gt;" class="s9" d="m324.1 467.9l-0.6 18.8q-0.1 0-0.2 0.1 0 0 0 0c-3.3 1.2-6.4 2.7-8.1 4.9-0.6-6.5 0.8-18.5 8.9-23.8z"/>
					<path id="&lt;Path&gt;" class="s7" d="m305.4 500.7c-4.4-3.8-12.2 0.6-12.2 0.6 0 0-1.6-16.9 0.7-24.7 2.1 0.9 5.7 1.7 5.7 1.7 0 0 6.1 17.7 5.8 22.4z"/>
					<path id="&lt;Path&gt;" class="s7" d="m310.4 504.7c0 0 2.2 1.2 1.4 8.3 6.9-8 4.2-16.6 4.2-16.6 0 0-0.5-1.5-2-2.4-0.3 0.5-0.5 2-0.2 3.5 0.7 2.9-3.4 7.2-3.4 7.2z"/>
					<path id="&lt;Path&gt;" class="s9" d="m305.4 500.7c-4.4-3.8-12.2 0.6-12.2 0.6 0 0-1.6-16.9 0.7-24.7 2.1 0.9 5.7 1.7 5.7 1.7 0 0 6.1 17.7 5.8 22.4z"/>
					<path id="&lt;Path&gt;" class="s9" d="m310.4 504.7c0 0 2.2 1.2 1.4 8.3 6.9-8 4.2-16.6 4.2-16.6 0 0-0.5-1.5-2-2.4-0.3 0.5-0.5 2-0.2 3.5 0.7 2.9-3.4 7.2-3.4 7.2z"/>
				</g>
				<g id="&lt;Group&gt;">
					<path id="&lt;Path&gt;" class="s17" d="m336.4 453.2c-11.4 8.5-16.5 11.8-19 21.9-3.9 15.2 8.1 27.8 21.7 23 12.2-4.3 28.9-17.4 26.8-32.5-2.1-14.8-18-20.9-29.5-12.4z"/>
					<path id="&lt;Path&gt;" class="s14" d="m370.6 459.3c3 10-1.7 27.4-8.3 15.5-4 1.4-6.6-6-6.4-12.1-2.7 1.8-10.2-1.1-10.8-8.4-0.7 4.6-10.7 8.4-13 3.9-2.2-4.5-8.2-13.5 8.9-17.6 17.1-4.2 26.4 8.1 29.6 18.7z"/>
					<path id="&lt;Path&gt;" class="s14" d="m349.9 482.9c-1 0.7-1.4 1.8-1.1 2.4 0.4 0.7 1.5 0.7 2.5 0 1-0.7 1.5-1.7 1.1-2.4-0.4-0.7-1.5-0.6-2.5 0z"/>
					<path id="&lt;Path&gt;" class="s14" d="m352.2 482.6l2.1 2c0 0-2.6 0-2.1-2z"/>
					<path id="&lt;Path&gt;" class="s19" d="m345.5 480.5c0 0-3.3 4.6-4.3 7.8-2-0.5-2.7-3.1-2.7-3.1z"/>
					<path id="&lt;Path&gt;" class="s14" d="m332.5 476.1q-0.5-0.8-1.1-1.6c-0.1-0.2-0.3-0.2-0.5-0.1-0.1 0.1-0.1 0.4 0 0.5 3.1 4.1 1.8 8.4 1.8 8.4-0.1 0.2 0 0.4 0.2 0.5 0.2 0 0.4-0.1 0.4-0.3 0.1-0.1 1.1-3.6-0.8-7.4z"/>
					<path id="&lt;Path&gt;" class="s17" d="m324.3 455.5c-1.6 2.9-1.8 6.2-1 8.7 1.1 3.7 5.1 3.1 7.7 0.1 2.3-2.8 4.5-8 1.9-10.7-2.4-2.7-6.7-1.5-8.6 1.9z"/>
					<path id="&lt;Path&gt;" class="s14" d="m345.1 467q0 0.3 0.3 0.4c2.5 1.6 2.5 4.1 2.5 4.2 0 0.4 0.3 0.7 0.7 0.6 0.3 0 0.7-0.3 0.7-0.7 0-0.1 0-3.4-3.2-5.3-0.3-0.2-0.7-0.1-0.9 0.3q-0.2 0.2-0.1 0.5z"/>
					<path id="&lt;Path&gt;" class="s14" d="m359.5 483.8q0.1 0.2 0.3 0.4c0.4 0.1 0.8 0 1-0.4 1.7-3.5 0.3-6.3 0.2-6.5-0.2-0.3-0.6-0.4-0.9-0.2-0.3 0.2-0.5 0.6-0.3 1 0.1 0.1 1.2 2.3-0.2 5.1q-0.2 0.3-0.1 0.6z"/>
					<path id="&lt;Path&gt;" class="s14" d="m343.3 473.2l2.1 2c0 0-2.6 0-2.1-2z"/>
					<path id="&lt;Path&gt;" class="s14" d="m344.4 474.2c0 0 0.8-3.6-2.8-4.5 0 0 2.2 1.4 1.7 4.1z"/>
				</g>
				<g id="&lt;Group&gt;">
					<path id="&lt;Path&gt;" class="s7" d="m293.9 476.6c0 0-16.9 55.3-73.4 92.1 0 0-11.5 11.5-19.6 26.9 0 0-12.1-2.1-16.1-9.3 0 0 6.1-49.2 35.5-57.7 0 0 42.8-48.4 50.5-57.6 7.8-9.1 21-1 23.1 5.6z"/>
					<path id="&lt;Path&gt;" class="s16" d="m293.9 476.6c0 0-5.2 17.1-19.5 38.6-4.1 6-8.8 12.4-14.3 18.8q-0.1 0.1-0.1 0.1-0.2 0.2-0.4 0.4-0.3 0.4-0.7 0.9c-10.1 11.5-22.7 23.1-38.4 33.3 0 0-11.5 11.5-19.6 26.9 0 0-12.1-2.1-16.1-9.3 0 0 6.1-49.2 35.5-57.7 0 0 42.8-48.4 50.5-57.6 6.9-8 17.9-2.7 21.9 3.2 0.5 0.8 0.9 1.6 1.2 2.4z"/>
					<path id="&lt;Path&gt;" class="s7" d="m292.2 474.2c4-0.5 5.4 2.4 5.4 2.4 0 0-5.9 26.2-38 57.9 0 0 13.3-15.7 19-42.8l8.6-3.4-3.7-9.3c0 0 4.9-4.3 8.7-4.8z"/>
					<path id="&lt;Path&gt;" class="s15" d="m297.6 476.6c0 0-4.2 18.5-24.5 43.2-3.8 4.7-8.2 9.5-13.3 14.5q0.1-0.1 0.2-0.2 0 0 0.1-0.1c1.5-2 7.3-9.8 12.4-22.3 2.3-5.7 4.5-12.4 6.1-20l8.6-3.4-3.7-9.3c0 0 4.9-4.3 8.8-4.8q0.2 0 0.4 0c3.6-0.3 4.9 2.4 4.9 2.4z"/>
				</g>
			</g>
			<g id="&lt;Group&gt;">
				<path id="&lt;Path&gt;" class="s14" d="m441.3 595.3h-6.2v240.5h6.2z"/>
				<path id="&lt;Path&gt;" class="s20" d="m441.3 595.3v240.5h-6.2v-240.5z"/>
				<path id="&lt;Path&gt;" class="s9" d="m441.3 595.3v45.5l-6.2-1.9v-43.6z"/>
				<path id="&lt;Path&gt;" class="s14" d="m374.3 595.3h-6.3v240.5h6.3z"/>
				<path id="&lt;Path&gt;" class="s20" d="m374.3 595.3v240.5h-6.3v-240.5z"/>
				<path id="&lt;Path&gt;" class="s9" d="m368 595.3h6.3v25l-6.3-2z"/>
				<path id="&lt;Path&gt;" class="s14" d="m328.2 595.3v240.5h-6.2v-240.5z"/>
				<path id="&lt;Path&gt;" class="s14" d="m395.2 595.3h-6.2v240.5h6.2z"/>
				<path id="&lt;Path&gt;" class="s11" d="m328.2 595.3v240.5h-6.2v-240.5z"/>
				<path id="&lt;Path&gt;" class="s11" d="m395.2 595.3v240.5h-6.2v-240.5z"/>
				<path id="&lt;Path&gt;" class="s14" d="m444.4 589.2v12.1h-124.7v-12.1z"/>
				<path id="&lt;Path&gt;" class="s11" d="m444.4 589.2v12.1h-124.7v-12.1z"/>
				<path id="&lt;Path&gt;" class="s12" d="m392.1 586.3v249.2h-3.1v-234.2h-60.8v234.2h-6.2v-234.2h-2.3v-9.2h-2.6c-1.6 0-3-1.3-3-2.9 0-1.6 1.4-2.9 3-2.9z"/>
				<path id="&lt;Path&gt;" class="s14" d="m450 589.2c0 1.6-1.3 2.9-3 2.9h-129.9c-1.6 0-3-1.3-3-2.9 0-1.6 1.4-2.9 3-2.9h129.9c1.7 0 3 1.3 3 2.9z"/>
				<path id="&lt;Path&gt;" class="s15" d="m450 589.2c0 1.6-1.3 2.9-3 2.9h-129.9c-1.6 0-3-1.3-3-2.9 0-1.6 1.4-2.9 3-2.9h129.9c1.7 0 3 1.3 3 2.9z"/>
				<path id="&lt;Path&gt;" class="s15" d="m395.5 589.2c0 1.6-1.3 2.9-2.9 2.9h-75.5c-1.6 0-3-1.3-3-2.9 0-1.6 1.4-2.9 3-2.9h75.5c1.6 0 2.9 1.3 2.9 2.9z"/>
			</g>
			<g id="&lt;Group&gt;">
				<path id="&lt;Path&gt;" class="s14" d="m360.5 534.7l3.4 8.7 1-0.4-3.7-8.8z"/>
				<path id="&lt;Path&gt;" class="s12" d="m360.5 534.7l3.4 8.7 1-0.4-3.7-8.8z"/>
				<path id="&lt;Path&gt;" class="s14" d="m391 579.1h-29.6v3.5h29.6z"/>
				<path id="&lt;Path&gt;" class="s21" d="m391 579.1h-29.6v3.5h29.6z"/>
				<path id="&lt;Path&gt;" class="s14" d="m368.5 573.7l21.6-8.6 0.9 2.3-21.2 8.5z"/>
				<path id="&lt;Path&gt;" class="s21" d="m368.5 573.7l21.6-8.6 0.9 2.3-21.2 8.5z"/>
				<path id="&lt;Path&gt;" class="s14" d="m382.4 547.2l1.4 3.9-10.3 3.9-2-3.9z"/>
				<path id="&lt;Path&gt;" class="s22" d="m382.4 547.2l1.4 3.9-10.3 3.9-2-3.9z"/>
				<path id="&lt;Path&gt;" class="s14" d="m358.3 551.4l2.2 5.4 35.6-13.4-2.7-5.5z"/>
				<path id="&lt;Path&gt;" class="s14" d="m371.5 555l13.1-4.9 1.1 3-12.8 4.9z"/>
				<path id="&lt;Path&gt;" class="s12" d="m358.3 551.4l2.2 5.4 35.6-13.4-2.7-5.5z"/>
				<path id="&lt;Path&gt;" class="s21" d="m371.5 555l13.1-4.9 1.1 3-12.8 4.9z"/>
				<path id="&lt;Path&gt;" class="s14" d="m372.9 531.6l2.3 7.1-4.3 1.4-3.2-7.2c0 0 2.8-2.7 5.2-1.3z"/>
				<path id="&lt;Path&gt;" class="s14" d="m377.5 523.9l8.2 5.8-2.3 3.9-8.2-4.4c0 0-0.6-3.7 2.3-5.3z"/>
				<path id="&lt;Path&gt;" class="s22" d="m372.9 531.6l2.3 7.1-4.3 1.4-3.2-7.2c0 0 2.8-2.7 5.2-1.3z"/>
				<path id="&lt;Path&gt;" class="s22" d="m377.5 523.9l8.2 5.8-2.3 3.9-8.2-4.4c0 0-0.6-3.7 2.3-5.3z"/>
				<path id="&lt;Path&gt;" class="s7" d="m344.3 518.8l11.4-3.5 7.4 20.6-10.1 4-0.3-0.2c-1.5-1.1-3.5-1.3-5.2-0.6l-2 0.7c-1.2 0.5-1.9 1.8-1.7 3.1 0.9 6.5 3.9 12.6 8.4 17.4 0.7 0.8 1.7 1 2.7 0.6l2.8-1.3c1.4-0.7 2.3-1.9 2.6-3.4l15.3-5.7 0.7 2-7.3 2.8-1.3 8.5 4.2 12.8-6.4 2.5c0 0-21.7-7.3-27.5-25.4-5.7-18.2 6.3-34.9 6.3-34.9z"/>
				<path id="&lt;Path&gt;" class="s16" d="m344.3 518.8l11.4-3.5 7.4 20.6-10.1 4-0.3-0.2c-1.5-1.1-3.5-1.3-5.2-0.6l-2 0.7c-1.2 0.5-1.9 1.8-1.7 3.1 0.9 6.5 3.9 12.6 8.4 17.4 0.7 0.8 1.7 1 2.7 0.6l2.8-1.3c1.4-0.7 2.3-1.9 2.6-3.4l15.3-5.7 0.7 2-7.3 2.8-1.3 8.5 4.2 12.8-6.4 2.5c0 0-21.7-7.3-27.5-25.4-5.7-18.2 6.3-34.9 6.3-34.9z"/>
				<path id="&lt;Path&gt;" class="s14" d="m358.3 534.7c0 1.8-1.4 3.2-3.2 3.2-1.7 0-3.1-1.4-3.1-3.2 0-1.7 1.4-3.1 3.1-3.1 1.8 0 3.2 1.4 3.2 3.1z"/>
				<path id="&lt;Path&gt;" class="s7" d="m373.5 525.4l-2.2 3.3-5.2 2.1-5.1-1-8.4-21.5-0.6-1.7 2-3-6.4-16.9 7.5-2.9 6.1 17.1 3.6 1.4 0.6 1.5z"/>
				<path id="&lt;Path&gt;" class="s11" d="m373.5 525.4l-2.2 3.3-5.2 2.1-5.1-1-8.4-21.5-0.6-1.7 2-3-6.4-16.9 7.5-2.9 6.1 17.1 3.6 1.4 0.6 1.5z"/>
				<path id="&lt;Path&gt;" class="s14" d="m365.4 503.8l-12.8 4.5-0.6-1.7 2-3-6.4-16.9 7.5-2.9 6.1 17.1 3.6 1.4z"/>
				<path id="&lt;Path&gt;" class="s14" d="m369.8 531.6l3.7 0.4 2.4-2v-5.5z"/>
				<path id="&lt;Path&gt;" class="s14" d="m377.2 569.2l1.8 3.9 12.9-5-1.7-3.8z"/>
				<path id="&lt;Path&gt;" class="s7" d="m345.3 582.6l9.1-15.9c1-1.7 2.9-2.8 4.9-2.7 2.8 0.2 5 2.4 5.1 5.2l0.5 13.4z"/>
				<path id="&lt;Path&gt;" class="s11" d="m345.3 582.6l9.1-15.9c1-1.7 2.9-2.8 4.9-2.7 2.8 0.2 5 2.4 5.1 5.2l0.5 13.4z"/>
				<path id="&lt;Path&gt;" class="s14" d="m361.9 569.9c0 1.8-1.4 3.2-3.2 3.2-1.7 0-3.1-1.4-3.1-3.2 0-1.8 1.4-3.2 3.1-3.2 1.8 0 3.2 1.4 3.2 3.2z"/>
				<path id="&lt;Path&gt;" class="s14" d="m397.3 586.8h-59.8v-4.7h59.8z"/>
				<path id="&lt;Path&gt;" class="s14" d="m361.2 520c0 3-2.5 5.4-5.5 5.4-3 0-5.4-2.4-5.4-5.4 0-3 2.4-5.5 5.4-5.5 3 0 5.5 2.5 5.5 5.5z"/>
				<path id="&lt;Path&gt;" class="s21" d="m358.3 534.7c0 1.8-1.4 3.2-3.2 3.2-1.7 0-3.1-1.4-3.1-3.2 0-1.7 1.4-3.1 3.1-3.1 1.8 0 3.2 1.4 3.2 3.1z"/>
				<path id="&lt;Path&gt;" class="s12" d="m365.4 503.8l-12.8 4.5-0.6-1.7 2-3-6.4-16.9 7.5-2.9 6.1 17.1 3.6 1.4z"/>
				<path id="&lt;Path&gt;" class="s21" d="m369.8 531.6l3.7 0.4 2.4-2v-5.5z"/>
				<path id="&lt;Path&gt;" class="s12" d="m377.2 569.2l1.8 3.9 12.9-5-1.7-3.8z"/>
				<path id="&lt;Path&gt;" class="s21" d="m361.9 569.9c0 1.8-1.4 3.2-3.2 3.2-1.7 0-3.1-1.4-3.1-3.2 0-1.8 1.4-3.2 3.1-3.2 1.8 0 3.2 1.4 3.2 3.2z"/>
				<path id="&lt;Path&gt;" class="s12" d="m397.3 586.8h-59.8v-4.7h59.8z"/>
				<path id="&lt;Path&gt;" class="s12" d="m361.2 520c0 3-2.5 5.4-5.5 5.4-3 0-5.4-2.4-5.4-5.4 0-3 2.4-5.5 5.4-5.5 3 0 5.5 2.5 5.5 5.5z"/>
				<path id="&lt;Path&gt;" class="s11" d="m358.4 520c0 1.5-1.2 2.7-2.7 2.7-1.5 0-2.7-1.2-2.7-2.7 0-1.5 1.2-2.8 2.7-2.8 1.5 0 2.7 1.3 2.7 2.8z"/>
				<path id="&lt;Path&gt;" class="s14" d="m364.9 531.6l11.6-11.2 2.6 2.7-11.8 11.6z"/>
				<path id="&lt;Path&gt;" class="s12" d="m364.9 531.6l11.6-11.2 2.6 2.7-11.8 11.6z"/>
			</g>
			<g id="&lt;Group&gt;">
				<path id="&lt;Path&gt;" class="s17" d="m322.4 529.8l18.8-4.9 1.6 16.9c0 0-12.7 5.3-20.5-2.9z"/>
				<path id="&lt;Path&gt;" class="s17" d="m354.7 528.1l-1.9 12.9-10 0.8-1.6-16.9z"/>
			</g>
			<path id="&lt;Path&gt;" class="s9" d="m274.4 515.2c-0.9 1.3-1.2 2.9-1.3 4.6-3.8 4.7-8.2 9.5-13.3 14.5 0 0.1-0.1 0.1-0.1 0.2q-0.1 0-0.1 0-0.3 0.4-0.7 0.9c-4.2-19.6 4.1-41.4 4.1-41.4l9.5 17.7z"/>
			<path id="&lt;Path&gt;" class="s9" d="m314.6 535.7c-2.1 4.4-4.5 9.2-7 14l-5.7 0.6-1.2 0.1-0.1 0.1c1.1-3.5 2.9-9.4 4.9-16l0.6 0.1 4.1 0.5z"/>
			<g id="&lt;Group&gt;">
				<path id="&lt;Path&gt;" class="s7" d="m278 466.8c16.1-1 6.5 48 10.2 53.2 3.7 5.1 40.2 5.4 40.2 5.4l-3.7 20.2c0 0-40.4 2.8-50.6-3-15.4-8.7-15.4-35.3-10.1-58.5 2.4-10.4 9.8-17.1 14-17.3z"/>
				<path id="&lt;Path&gt;" class="s16" d="m278 466.8c16.1-1 6.5 48 10.2 53.2 3.7 5.1 40.2 5.4 40.2 5.4l-3.7 20.2c0 0-40.4 2.8-50.6-3-15.4-8.7-15.4-35.3-10.1-58.5 2.4-10.4 9.8-17.1 14-17.3z"/>
			</g>
		</g>
	</g>
</svg>