<?xml version="1.0" encoding="UTF-8" standalone="no"?>
<!-- Generator: Adobe Illustrator 27.5.0, SVG Export Plug-In . SVG Version: 6.00 Build 0)  -->

<svg
   version="1.1"
   x="0px"
   y="0px"
   viewBox="0 0 199 155"
   xml:space="preserve"
   id="svg247"
   sodipodi:docname="cambiar-contraseña.svg"
   inkscape:version="1.3 (0e150ed6c4, 2023-07-21)"
   width="199"
   height="155"
   xmlns:inkscape="http://www.inkscape.org/namespaces/inkscape"
   xmlns:sodipodi="http://sodipodi.sourceforge.net/DTD/sodipodi-0.dtd"
   xmlns="http://www.w3.org/2000/svg"
   xmlns:svg="http://www.w3.org/2000/svg"><defs
   id="defs247" /><sodipodi:namedview
   id="namedview247"
   pagecolor="#ffffff"
   bordercolor="#000000"
   borderopacity="0.25"
   inkscape:showpageshadow="2"
   inkscape:pageopacity="0.0"
   inkscape:pagecheckerboard="true"
   inkscape:deskcolor="#d1d1d1"
   inkscape:zoom="2.3221387"
   inkscape:cx="275.82332"
   inkscape:cy="106.15214"
   inkscape:window-width="2560"
   inkscape:window-height="1017"
   inkscape:window-x="1912"
   inkscape:window-y="-8"
   inkscape:window-maximized="1"
   inkscape:current-layer="svg247" />&#10;&#10;<g
   id="Background_Simple"
   style="display:none">&#10;	<g
   style="display:inline"
   id="g41">&#10;		<path
   style="fill:#407bff"
   d="m 241.936,74.075 c 7.832,-1.91 16.622,-1.622 26.341,1.643 15.617,5.247 27.043,19.004 34.173,33.856 13.796,28.739 17.651,60.899 27.547,90.911 2.714,8.23 5.923,16.453 11.228,23.305 22.071,28.507 82.754,12.137 82.176,62.137 -0.163,14.13 -7.771,27.655 -18.876,36.394 -32.69,25.724 -78.654,11.019 -113.588,-0.656 -32.732,-10.939 -61.068,-12.275 -93.872,0.819 -27.802,11.097 -56.895,29.991 -88.174,24.881 -31.807,-5.197 -46.032,-36.584 -40.707,-66.182 5.677,-31.551 30.416,-54.82 58.857,-67.405 16.966,-7.508 39.284,-12.096 52.582,-25.755 6.83,-7.015 9.803,-16.855 11.975,-26.402 3.458,-15.205 5.5,-30.795 10.651,-45.513 6.453,-18.439 19.682,-37.153 39.687,-42.033 z"
   id="path40" />&#10;		<path
   style="opacity:0.9;fill:#ffffff"
   d="m 241.936,74.075 c 7.832,-1.91 16.622,-1.622 26.341,1.643 15.617,5.247 27.043,19.004 34.173,33.856 13.796,28.739 17.651,60.899 27.547,90.911 2.714,8.23 5.923,16.453 11.228,23.305 22.071,28.507 82.754,12.137 82.176,62.137 -0.163,14.13 -7.771,27.655 -18.876,36.394 -32.69,25.724 -78.654,11.019 -113.588,-0.656 -32.732,-10.939 -61.068,-12.275 -93.872,0.819 -27.802,11.097 -56.895,29.991 -88.174,24.881 -31.807,-5.197 -46.032,-36.584 -40.707,-66.182 5.677,-31.551 30.416,-54.82 58.857,-67.405 16.966,-7.508 39.284,-12.096 52.582,-25.755 6.83,-7.015 9.803,-16.855 11.975,-26.402 3.458,-15.205 5.5,-30.795 10.651,-45.513 6.453,-18.439 19.682,-37.153 39.687,-42.033 z"
   id="path41" />&#10;	</g>&#10;</g>&#10;&#10;&#10;&#10;&#10;&#10;<g
   id="Background_Complete"
   transform="matrix(0.49475557,0,0,0.44336011,-27.675539,-27.906578)">&#10;	<g
   id="g8">&#10;		<rect
   y="382.39801"
   style="fill:#ebebeb"
   width="500"
   height="0.25"
   id="rect1"
   x="0" />&#10;		<rect
   x="290.20801"
   y="389.20801"
   style="fill:#ebebeb"
   width="25.459"
   height="0.25"
   id="rect2" />&#10;		<rect
   x="395.11099"
   y="394.61899"
   style="fill:#ebebeb"
   width="60.333"
   height="0.25"
   id="rect3" />&#10;		<rect
   x="222.459"
   y="389.33301"
   style="fill:#ebebeb"
   width="62.333"
   height="0.25"
   id="rect4" />&#10;		<rect
   x="169"
   y="396.814"
   style="fill:#ebebeb"
   width="13.041"
   height="0.25"
   id="rect5" />&#10;		<rect
   x="194.70799"
   y="396.814"
   style="fill:#ebebeb"
   width="59.375999"
   height="0.25"
   id="rect6" />&#10;		<rect
   x="52.459"
   y="392.59201"
   style="fill:#ebebeb"
   width="38.453999"
   height="0.25"
   id="rect7" />&#10;		<path
   style="fill:#ebebeb"
   d="M 237.014,337.8 H 43.915 c -3.147,0 -5.708,-2.561 -5.708,-5.708 V 60.66 c 0,-3.147 2.561,-5.708 5.708,-5.708 h 193.099 c 3.146,0 5.707,2.561 5.707,5.708 v 271.432 c 0,3.147 -2.561,5.708 -5.707,5.708 z M 43.915,55.203 c -3.01,0 -5.458,2.448 -5.458,5.458 v 271.432 c 0,3.01 2.448,5.458 5.458,5.458 h 193.099 c 3.009,0 5.457,-2.448 5.457,-5.458 V 60.66 c 0,-3.009 -2.448,-5.458 -5.457,-5.458 H 43.915 Z"
   id="path7" />&#10;		<path
   style="fill:#ebebeb"
   d="M 453.31,337.8 H 260.212 c -3.147,0 -5.707,-2.561 -5.707,-5.708 V 60.66 c 0,-3.147 2.561,-5.708 5.707,-5.708 H 453.31 c 3.148,0 5.708,2.561 5.708,5.708 v 271.432 c 0.001,3.147 -2.56,5.708 -5.708,5.708 z M 260.212,55.203 c -3.009,0 -5.457,2.448 -5.457,5.458 v 271.432 c 0,3.01 2.448,5.458 5.457,5.458 H 453.31 c 3.01,0 5.458,-2.448 5.458,-5.458 V 60.66 c 0,-3.009 -2.448,-5.458 -5.458,-5.458 H 260.212 Z"
   id="path8" />&#10;	</g>&#10;	<g
   id="g35">&#10;		<g
   id="g20">&#10;			<g
   id="g10">&#10;				<polygon
   style="fill:#e6e6e6"
   points="125.53,249.167 191.931,249.167 195.962,295.667 129.561,295.667 "
   id="polygon8" />&#10;				<polygon
   style="fill:#f0f0f0"
   points="128.97,249.167 195.37,249.167 199.401,295.667 133.001,295.667 "
   id="polygon9" />&#10;				<polygon
   style="fill:#ffffff"
   points="186.293,259.152 188.506,285.681 142.077,285.681 139.863,259.152 "
   id="polygon10" />&#10;			</g>&#10;			<g
   id="g19">&#10;				<rect
   x="203.099"
   y="295.66699"
   style="fill:#e6e6e6"
   width="7.7909999"
   height="86.730003"
   id="rect10" />&#10;				<rect
   x="207.938"
   y="295.66699"
   style="fill:#f0f0f0"
   width="5.4109998"
   height="86.730003"
   id="rect11" />&#10;				&#10;					<rect
   x="137.939"
   y="295.66699"
   transform="rotate(180,175.64375,300.45305)"
   style="fill:#f0f0f0"
   width="75.408997"
   height="9.573"
   id="rect12" />&#10;				<rect
   x="132.814"
   y="305.23901"
   style="fill:#e6e6e6"
   width="7.7909999"
   height="77.156998"
   id="rect13" />&#10;				<rect
   x="137.653"
   y="305.23901"
   style="fill:#f0f0f0"
   width="5.4109998"
   height="77.156998"
   id="rect14" />&#10;				<rect
   x="77.357002"
   y="305.23901"
   style="fill:#e6e6e6"
   width="7.7909999"
   height="77.156998"
   id="rect15" />&#10;				<rect
   x="82.195999"
   y="305.23901"
   style="fill:#f0f0f0"
   width="5.4109998"
   height="77.156998"
   id="rect16" />&#10;				<rect
   x="153.79601"
   y="305.23901"
   style="fill:#e6e6e6"
   width="7.7909999"
   height="77.156998"
   id="rect17" />&#10;				<rect
   x="158.63499"
   y="305.23901"
   style="fill:#f0f0f0"
   width="5.4109998"
   height="77.156998"
   id="rect18" />&#10;				<rect
   x="77.357002"
   y="295.66699"
   style="fill:#e6e6e6"
   width="60.582001"
   height="9.573"
   id="rect19" />&#10;			</g>&#10;		</g>&#10;		<g
   id="g24">&#10;			<g
   id="g23">&#10;				<rect
   x="129.508"
   y="79.414001"
   style="fill:#e0e0e0"
   width="234.33"
   height="130.45599"
   id="rect20" />&#10;				<rect
   x="130.69099"
   y="79.414001"
   style="fill:#f5f5f5"
   width="246.015"
   height="130.45599"
   id="rect21" />&#10;				&#10;					<rect
   x="192.49001"
   y="25.653"
   transform="rotate(90,253.6989,144.6413)"
   style="fill:#ffffff"
   width="122.417"
   height="237.976"
   id="rect22" />&#10;				<polygon
   style="fill:#f5f5f5"
   points="201.846,83.433 156.916,205.85 231.066,205.85 275.996,83.433 "
   id="polygon22" />&#10;				<polygon
   style="fill:#f5f5f5"
   points="291.434,83.433 246.505,205.85 302.441,205.85 347.37,83.433 "
   id="polygon23" />&#10;			</g>&#10;		</g>&#10;		<g
   id="g32">&#10;			<g
   id="g31">&#10;				<rect
   x="418.19199"
   y="257.80301"
   style="fill:#e6e6e6"
   width="19.919001"
   height="124.595"
   id="rect24" />&#10;				<polygon
   style="fill:#fafafa"
   points="438.111,372.805 427.382,372.805 432.874,382.398 438.111,382.398 "
   id="polygon24" />&#10;				<rect
   x="234.535"
   y="257.80301"
   style="fill:#e6e6e6"
   width="19.919001"
   height="124.595"
   id="rect25" />&#10;				<rect
   x="249.883"
   y="257.80301"
   style="fill:#fafafa"
   width="188.228"
   height="122.007"
   id="rect26" />&#10;				<path
   style="fill:#e6e6e6"
   d="M 434.548,297.169 H 253.446 v -34.458 h 181.102 z m -180.102,-1 H 433.548 V 263.711 H 254.446 Z"
   id="path26" />&#10;				<path
   style="fill:#e6e6e6"
   d="M 402.667,279.441 H 288.845 c -5.286,0 -10.375,-4.264 -13.96,-11.698 l -0.346,-0.717 h 142.435 l -0.346,0.717 c -3.585,7.434 -8.674,11.698 -13.961,11.698 z M 276.141,268.026 c 3.384,6.631 7.984,10.415 12.704,10.415 h 113.822 c 4.72,0 9.321,-3.784 12.705,-10.415 z"
   id="path27" />&#10;				<polygon
   style="fill:#fafafa"
   points="249.883,372.805 260.612,372.805 255.121,382.398 249.883,382.398 "
   id="polygon27" />&#10;				<path
   style="fill:#e6e6e6"
   d="M 434.548,336.036 H 253.446 v -34.458 h 181.102 z m -180.102,-1 H 433.548 V 302.578 H 254.446 Z"
   id="path28" />&#10;				<path
   style="fill:#e6e6e6"
   d="M 402.667,318.307 H 288.845 c -5.286,0 -10.375,-4.264 -13.96,-11.698 l -0.346,-0.717 h 142.435 l -0.346,0.717 c -3.585,7.435 -8.674,11.698 -13.961,11.698 z M 276.141,306.892 c 3.384,6.631 7.984,10.415 12.704,10.415 h 113.822 c 4.721,0 9.321,-3.784 12.705,-10.415 z"
   id="path29" />&#10;				<path
   style="fill:#e6e6e6"
   d="M 434.548,374.902 H 253.446 v -34.459 h 181.102 z m -180.102,-1 H 433.548 V 341.443 H 254.446 Z"
   id="path30" />&#10;				<path
   style="fill:#e6e6e6"
   d="M 402.667,357.173 H 288.845 c -5.286,0 -10.375,-4.264 -13.96,-11.698 l -0.346,-0.717 h 142.435 l -0.346,0.717 c -3.585,7.435 -8.674,11.698 -13.961,11.698 z M 276.141,345.758 c 3.384,6.631 7.984,10.415 12.704,10.415 h 113.822 c 4.721,0 9.321,-3.784 12.705,-10.415 z"
   id="path31" />&#10;			</g>&#10;		</g>&#10;		<g
   id="g34">&#10;			<polygon
   style="fill:#e6e6e6"
   points="119.435,276.701 118.157,295.667 99.322,295.667 98.045,276.701 96.497,276.701 96.497,274.283 120.983,274.283 120.983,276.701 "
   id="polygon32" />&#10;			<path
   style="fill:#e6e6e6"
   d="m 114.784,227.211 c -1.548,-11.297 -16.795,-14.524 -36.142,-14.938 -18.411,-0.393 -24.308,-6.908 -24.308,-6.908 0,0 0.058,26.379 26.587,35.93 25.191,9.069 35.414,-2.767 33.863,-14.084 z"
   id="path32" />&#10;			<path
   style="fill:#e6e6e6"
   d="m 105.379,252.824 c 0.323,-4.647 7.742,-13.186 25.587,-9.304 12.904,2.807 17.701,-3.882 17.701,-3.882 0,0 -1.195,18.879 -20.601,24.555 -18.428,5.39 -23.256,-3.197 -22.687,-11.369 z"
   id="path33" />&#10;			<path
   style="fill:#e6e6e6"
   d="m 109.45,281.404 c 0.195,0 0.389,-0.083 0.526,-0.244 1.294,-1.529 0.235,-5.19 -1.229,-10.258 -1.88,-6.504 -4.219,-14.597 -2.238,-20.475 1.118,-3.318 2.502,-6.243 3.839,-9.073 2.801,-5.924 5.22,-11.04 3.202,-16.383 -0.134,-0.356 -0.531,-0.535 -0.887,-0.401 -0.355,0.134 -0.535,0.531 -0.401,0.887 1.811,4.796 -0.382,9.435 -3.159,15.308 -1.292,2.731 -2.755,5.827 -3.899,9.221 -2.119,6.286 0.287,14.609 2.22,21.297 1.14,3.944 2.318,8.021 1.501,8.987 -0.245,0.29 -0.209,0.724 0.081,0.97 0.129,0.11 0.287,0.164 0.444,0.164 z"
   id="path34" />&#10;		</g>&#10;	</g>&#10;</g><g
   id="Shadow_1_"
   transform="matrix(0.41616709,0,0,0.41616709,-5.8403977,-24.686561)">&#10;	<ellipse
   id="_x3C_Path_x3E__191_"
   style="fill:#f5f5f5"
   cx="250"
   cy="416.23801"
   rx="193.88901"
   ry="11.323" />&#10;</g><g
   id="Login"
   transform="matrix(0.41616709,0,0,0.41616709,-5.8403977,-24.686561)">&#10;	<g
   id="g46">&#10;		<polygon
   style="fill:#407bff"
   points="107.96,361.048 100.188,132.681 242.188,132.681 249.96,361.048 "
   id="polygon36" />&#10;		<g
   id="g38">&#10;			<polygon
   style="fill:#407bff"
   points="115.047,353.961 107.274,125.594 249.274,125.594 257.047,353.961 "
   id="polygon37" />&#10;			<polygon
   style="opacity:0.3;fill:#ffffff"
   points="115.047,353.961 107.274,125.594 249.274,125.594 257.047,353.961 "
   id="polygon38" />&#10;		</g>&#10;		<g
   id="g39">&#10;			&#10;				<ellipse
   transform="matrix(0.7011,-0.7131,0.7131,0.7011,-82.3091,185.8367)"
   style="fill:#407bff"
   cx="180.50301"
   cy="191.093"
   rx="39.269001"
   ry="40.629002"
   id="ellipse38" />&#10;			<path
   style="fill:#ffffff"
   d="m 213.469,191.089 c 0.194,5.693 -1.068,11.038 -3.449,15.703 -5.211,10.275 -15.862,17.263 -28.395,17.263 -12.532,0 -23.659,-6.988 -29.57,-17.263 -2.698,-4.664 -4.324,-10.009 -4.518,-15.703 -0.62,-18.21 13.635,-32.966 31.844,-32.966 18.209,0 33.468,14.756 34.088,32.966 z"
   id="path38" />&#10;			<path
   style="opacity:0.6;fill:#407bff"
   d="m 210.019,206.792 c -5.211,10.275 -15.862,17.263 -28.395,17.263 -12.532,0 -23.659,-6.988 -29.57,-17.263 8.111,-5.544 17.96,-8.781 28.683,-8.781 10.725,0 20.794,3.236 29.282,8.781 z"
   id="path39" />&#10;			&#10;				<ellipse
   transform="matrix(0.7011,-0.7131,0.7131,0.7011,-74.3786,182.1882)"
   style="opacity:0.6;fill:#407bff"
   cx="180.119"
   cy="179.811"
   rx="14.437"
   ry="14.937"
   id="ellipse39" />&#10;		</g>&#10;		<polygon
   style="fill:#ffffff"
   points="137.94,271.261 137.327,253.261 227.912,253.261 228.524,271.261 "
   id="polygon39" />&#10;		<polygon
   style="fill:#ffffff"
   points="139.035,303.434 138.422,285.434 229.007,285.434 229.62,303.434 "
   id="polygon40" />&#10;		<path
   style="fill:#407bff"
   d="m 194.658,287.908 -21.829,2.968 c -0.897,0.122 -1.487,0.939 -1.317,1.807 l 2.866,14.628 c 0.171,0.874 1.042,1.486 1.939,1.365 l 21.829,-2.968 c 0.897,-0.122 1.488,-0.933 1.317,-1.807 l -2.866,-14.628 c -0.17,-0.869 -1.042,-1.487 -1.939,-1.365 z m -6.272,14.819 -3.952,0.538 -0.398,-4.721 c -0.841,-0.371 -1.45,-1.117 -1.622,-1.996 -0.28,-1.43 0.686,-2.755 2.153,-2.955 1.462,-0.199 2.883,0.802 3.164,2.232 0.172,0.879 -0.121,1.747 -0.776,2.322 z"
   id="path40-6" />&#10;		<path
   style="fill:#407bff"
   d="m 192.504,287.124 v 0 c -0.798,0.108 -1.568,-0.434 -1.72,-1.211 l -0.281,-1.432 c -0.772,-3.941 -4.54,-6.916 -8.619,-6.561 -4.36,0.38 -7.283,4.23 -6.467,8.394 l 0.322,1.645 c 0.152,0.777 -0.371,1.495 -1.169,1.603 v 0 c -0.798,0.108 -1.568,-0.434 -1.72,-1.211 l -0.273,-1.396 c -1.076,-5.492 2.381,-10.772 7.974,-11.745 5.88,-1.024 11.678,2.942 12.799,8.665 l 0.322,1.645 c 0.152,0.777 -0.371,1.495 -1.168,1.604 z"
   id="path41-4" />&#10;		<polygon
   style="fill:#407bff"
   points="155.703,328.639 155.305,316.922 214.268,316.922 214.667,328.639 "
   id="polygon41" />&#10;		<path
   style="fill:#263238"
   d="m 186.218,262.261 c 0.062,1.818 -1.362,3.292 -3.18,3.292 -1.818,0 -3.342,-1.474 -3.404,-3.292 -0.062,-1.818 1.362,-3.292 3.18,-3.292 1.818,0 3.342,1.474 3.404,3.292 z"
   id="path42" />&#10;		<path
   style="fill:#263238"
   d="m 172.045,262.261 c 0.062,1.818 -1.362,3.292 -3.18,3.292 -1.818,0 -3.342,-1.474 -3.404,-3.292 -0.062,-1.818 1.362,-3.292 3.18,-3.292 1.818,0 3.342,1.474 3.404,3.292 z"
   id="path43" />&#10;		<path
   style="fill:#263238"
   d="m 157.872,262.261 c 0.062,1.818 -1.362,3.292 -3.18,3.292 -1.818,0 -3.342,-1.474 -3.404,-3.292 -0.062,-1.818 1.362,-3.292 3.18,-3.292 1.818,0 3.342,1.474 3.404,3.292 z"
   id="path44" />&#10;		<path
   style="fill:#263238"
   d="m 200.391,262.261 c 0.062,1.818 -1.362,3.292 -3.18,3.292 -1.818,0 -3.342,-1.474 -3.404,-3.292 -0.062,-1.818 1.362,-3.292 3.18,-3.292 1.818,0 3.342,1.474 3.404,3.292 z"
   id="path45" />&#10;		<path
   style="fill:#263238"
   d="m 214.564,262.261 c 0.062,1.818 -1.362,3.292 -3.18,3.292 -1.818,0 -3.342,-1.474 -3.404,-3.292 -0.062,-1.818 1.362,-3.292 3.18,-3.292 1.818,0 3.343,1.474 3.404,3.292 z"
   id="path46" />&#10;	</g>&#10;</g><g
   id="Character_1_"
   transform="matrix(0.41616709,0,0,0.41616709,-5.8403977,-24.686561)">&#10;	<g
   id="g81">&#10;		<path
   style="fill:#ff8b7b"
   d="m 333.91,174.281 c 1.333,2.135 2.435,4.184 3.579,6.311 1.139,2.106 2.169,4.273 3.18,6.456 1.989,4.383 3.769,8.905 5.099,13.731 0.178,0.592 0.314,1.22 0.462,1.835 l 0.219,0.925 0.109,0.462 0.13,0.762 c 0.286,2.032 0.035,3.689 -0.312,5.151 -0.717,2.914 -1.873,5.238 -3.112,7.456 -2.529,4.391 -5.481,8.131 -8.886,11.673 l -4.211,-3.188 c 2.076,-3.94 4.128,-8.068 5.637,-12.037 0.731,-1.974 1.346,-3.983 1.526,-5.632 0.087,-0.811 0.029,-1.508 -0.083,-1.767 l -0.395,-1.222 c -0.164,-0.502 -0.31,-1.001 -0.508,-1.507 -1.441,-4.035 -3.274,-8.088 -5.269,-12.084 -1.967,-3.981 -4.147,-8.034 -6.293,-11.817 z"
   id="path47" />&#10;		<path
   style="fill:#ff8b7b"
   d="m 331.236,224.425 -4.591,2.437 5.278,6.18 c 0,0 3.295,-2.229 3.444,-5.633 z"
   id="path48" />&#10;		<polygon
   style="fill:#ff8b7b"
   points="326.122,235.16 331.923,233.043 326.644,226.863 320.466,230.673 "
   id="polygon48" />&#10;		<path
   style="fill:#263238"
   d="m 301.151,141.564 c -0.113,0.556 -0.499,0.947 -0.863,0.873 -0.363,-0.074 -0.566,-0.584 -0.453,-1.14 0.113,-0.556 0.499,-0.947 0.863,-0.873 0.363,0.074 0.566,0.585 0.453,1.14 z"
   id="path49" />&#10;		<path
   style="fill:#ff5652"
   d="m 300.703,142.522 c 0,0 -1.916,2.95 -3.622,4.215 0.797,1.118 2.555,1.038 2.555,1.038 z"
   id="path50" />&#10;		<path
   style="fill:#ff8b7b"
   d="m 298.901,162.138 0.043,-6.554 8.68,1.049 c 0,0 -0.149,5.636 -4.996,7.293 z"
   id="path51" />&#10;		<polygon
   style="fill:#ff8b7b"
   points="307.508,152.62 307.625,156.633 298.944,155.584 301.396,150.864 "
   id="polygon51" />&#10;		<path
   style="opacity:0.2"
   d="m 307.51,152.62 -6.11,-1.76 -1.19,2.28 c 0.15,3.87 2.51,7.05 5.64,8.48 1.7,-2.23 1.77,-4.99 1.77,-4.99 z"
   id="path52" />&#10;		<path
   style="fill:#263238"
   d="m 303.814,138.891 c 0.081,0 0.162,-0.029 0.226,-0.089 0.135,-0.125 0.143,-0.336 0.018,-0.471 -1.251,-1.354 -2.769,-1.113 -2.835,-1.102 -0.181,0.031 -0.303,0.203 -0.272,0.384 0.031,0.181 0.205,0.302 0.383,0.273 v 0 c 0.05,-0.008 1.237,-0.182 2.235,0.898 0.066,0.071 0.155,0.107 0.245,0.107 z"
   id="path53" />&#10;		<path
   style="fill:#ff8b7b"
   d="m 316.591,151.683 c -1.009,5.146 -1.618,12.275 1.982,15.709 0,0 -1.407,5.22 -10.968,5.22 -10.514,0 -5.058,-4.581 -5.058,-4.581 4.37,-1.356 4.332,-6.334 3.332,-10.333 z"
   id="path54" />&#10;		<path
   style="fill:#407bff"
   d="m 320.542,170.833 c 0.936,-1.326 0.899,-5.515 -0.101,-6.254 -1.614,-1.193 -8.517,-1.467 -17.816,0.671 1.001,4.058 -1.143,6.185 -1.143,6.185 z"
   id="path55" />&#10;		<path
   style="fill:#407bff"
   d="m 351.795,408.237 c -0.706,0.153 -1.411,0.193 -1.751,-0.096 -0.143,-0.122 -0.286,-0.354 -0.161,-0.774 0.066,-0.221 0.21,-0.386 0.429,-0.49 0.95,-0.453 3.132,0.436 3.225,0.474 0.061,0.025 0.101,0.083 0.103,0.149 0.002,0.066 -0.035,0.126 -0.094,0.155 -0.334,0.161 -1.042,0.429 -1.751,0.582 z m -1.144,-1.124 c -0.072,0.016 -0.137,0.037 -0.195,0.065 -0.132,0.063 -0.215,0.156 -0.253,0.284 -0.089,0.3 0.022,0.394 0.059,0.425 0.378,0.322 1.783,0.025 2.772,-0.371 -0.672,-0.236 -1.758,-0.538 -2.383,-0.403 z"
   id="path56" />&#10;		<path
   style="fill:#407bff"
   d="m 353.509,407.668 c -0.027,0.006 -0.055,0.005 -0.082,-0.003 -0.795,-0.232 -2.496,-1.441 -2.517,-2.238 -0.004,-0.145 0.047,-0.407 0.426,-0.539 0.246,-0.086 0.494,-0.066 0.738,0.059 0.94,0.48 1.534,2.428 1.559,2.511 0.018,0.059 0.002,0.122 -0.041,0.165 -0.024,0.023 -0.052,0.038 -0.083,0.045 z m -1.991,-2.486 c -0.024,0.005 -0.049,0.012 -0.073,0.02 -0.206,0.072 -0.203,0.173 -0.202,0.216 0.012,0.472 1.135,1.42 1.958,1.804 -0.206,-0.562 -0.676,-1.671 -1.278,-1.978 -0.138,-0.071 -0.271,-0.091 -0.405,-0.062 z"
   id="path57" />&#10;		<path
   style="fill:#407bff"
   d="m 299.865,409.417 c -0.903,0 -1.775,-0.124 -2.067,-0.53 -0.102,-0.142 -0.183,-0.384 0.014,-0.728 0.11,-0.193 0.288,-0.324 0.528,-0.39 1.171,-0.318 3.629,1.082 3.733,1.142 0.06,0.035 0.092,0.103 0.081,0.171 -0.011,0.068 -0.064,0.123 -0.132,0.137 -0.449,0.09 -1.316,0.198 -2.157,0.198 z m -1.116,-1.364 c -0.117,0 -0.226,0.012 -0.322,0.038 -0.154,0.042 -0.26,0.118 -0.326,0.233 -0.118,0.207 -0.075,0.31 -0.032,0.368 0.327,0.455 2.105,0.465 3.413,0.28 -0.653,-0.334 -1.911,-0.919 -2.733,-0.919 z"
   id="path58" />&#10;		<path
   style="fill:#407bff"
   d="m 301.989,409.223 c -0.023,0 -0.046,-0.005 -0.068,-0.015 -0.849,-0.381 -2.531,-1.902 -2.402,-2.698 0.03,-0.187 0.163,-0.419 0.62,-0.466 0.342,-0.035 0.651,0.062 0.924,0.286 0.895,0.735 1.084,2.629 1.092,2.71 0.006,0.059 -0.021,0.117 -0.069,0.151 -0.028,0.021 -0.063,0.032 -0.097,0.032 z m -1.716,-2.852 c -0.033,0 -0.066,0.002 -0.1,0.005 -0.3,0.03 -0.319,0.148 -0.325,0.187 -0.077,0.477 1.065,1.673 1.932,2.193 -0.09,-0.553 -0.341,-1.687 -0.928,-2.169 -0.177,-0.144 -0.368,-0.216 -0.579,-0.216 z"
   id="path59" />&#10;		<polygon
   style="fill:#ff8b7b"
   points="302.69,409.056 301.99,392.768 309.023,392.768 309.724,409.056 "
   id="polygon59" />&#10;		<polygon
   style="fill:#ff8b7b"
   points="354.475,407.288 347.573,392.117 354.447,390.628 361.349,405.8 "
   id="polygon60" />&#10;		<path
   style="fill:#263238"
   d="m 353.814,406.598 7.723,-1.672 c 0.281,-0.061 0.567,0.082 0.687,0.343 l 2.681,5.817 c 0.278,0.603 -0.09,1.311 -0.742,1.44 -2.706,0.537 -4.05,0.663 -7.447,1.398 -2.09,0.452 -6.807,1.602 -9.692,2.226 -2.822,0.611 -3.88,-2.147 -2.755,-2.661 5.046,-2.305 7.154,-4.335 8.52,-6.227 0.247,-0.341 0.614,-0.575 1.025,-0.664 z"
   id="path60" />&#10;		<path
   style="fill:#263238"
   d="m 302.736,408.242 h 7.681 c 0.288,0 0.536,0.2 0.599,0.48 l 1.389,6.252 c 0.144,0.648 -0.348,1.262 -1.012,1.251 -2.771,-0.047 -6.775,-0.21 -10.257,-0.21 -4.072,0 -7.589,0.222 -12.365,0.222 -2.888,0 -3.689,-2.919 -2.48,-3.184 5.503,-1.204 9.995,-1.333 14.75,-4.264 0.518,-0.318 1.088,-0.547 1.695,-0.547 z"
   id="path61" />&#10;		<g
   id="g63">&#10;			<path
   style="fill:#407bff"
   d="m 331.167,168.982 c 6.592,1.511 12.028,18.341 12.028,18.341 l -13.238,10.09 c 0,0 -4.859,-4.581 -7.021,-12.999 -2.267,-8.821 1.49,-16.977 8.231,-15.432 z"
   id="path62" />&#10;			<path
   style="opacity:0.4"
   d="m 331.167,168.982 c 6.592,1.511 12.028,18.341 12.028,18.341 l -13.238,10.09 c 0,0 -4.859,-4.581 -7.021,-12.999 -2.267,-8.821 1.49,-16.977 8.231,-15.432 z"
   id="path63" />&#10;		</g>&#10;		<path
   style="fill:#ff8b7b"
   d="m 296.502,189.067 c -1.645,1.775 -3.285,3.354 -4.984,4.979 -0.843,0.808 -1.705,1.6 -2.586,2.377 l -1.328,1.163 -0.334,0.289 c -0.162,0.139 -0.359,0.304 -0.57,0.465 -0.44,0.325 -0.922,0.704 -1.932,1.141 -0.535,0.206 -1.223,0.479 -2.432,0.503 -0.575,0.009 -1.355,-0.091 -2.1,-0.373 -0.761,-0.282 -1.497,-0.77 -2.001,-1.272 -1.046,-1.051 -1.362,-1.973 -1.568,-2.59 -0.191,-0.636 -0.246,-1.09 -0.285,-1.487 -0.063,-0.776 -0.023,-1.301 0.02,-1.787 0.047,-0.48 0.113,-0.895 0.186,-1.287 0.294,-1.542 0.71,-2.786 1.161,-4.032 0.457,-1.233 0.963,-2.417 1.554,-3.614 0.635,-1.274 1.248,-2.198 1.859,-3.263 2.471,-4.13 5.371,-7.902 8.452,-11.457 3.148,-3.531 6.452,-6.759 10.251,-9.717 l 3.681,3.787 c -2.586,3.459 -5.128,7.166 -7.477,10.822 -2.347,3.683 -4.524,7.433 -6.398,11.246 -0.432,0.942 -0.965,1.974 -1.265,2.762 -0.351,0.861 -0.673,1.786 -0.938,2.697 -0.262,0.9 -0.473,1.838 -0.568,2.526 -0.022,0.166 -0.033,0.311 -0.033,0.395 -0.003,0.077 0.017,0.12 0.007,-0.093 -0.01,-0.116 -0.021,-0.289 -0.129,-0.655 -0.122,-0.348 -0.312,-1.007 -1.154,-1.859 -0.406,-0.399 -1.016,-0.817 -1.648,-1.043 -0.611,-0.239 -1.25,-0.309 -1.684,-0.307 -0.925,0.021 -1.338,0.21 -1.612,0.308 -0.49,0.212 -0.5,0.269 -0.495,0.247 l 0.384,-0.35 1.201,-1.1 2.391,-2.239 c 1.582,-1.491 3.174,-3.081 4.677,-4.557 z"
   id="path64" />&#10;		<path
   style="opacity:0.2"
   d="m 325.517,181.358 c 3.581,3.543 4.749,9.996 5.027,15.606 l -0.584,0.45 c 0,0 -4.864,-4.586 -7.028,-13.002 -0.134,-0.526 -0.249,-1.053 -0.345,-1.57 z"
   id="path65" />&#10;		<g
   id="g67">&#10;			<path
   style="fill:#407bff"
   d="m 289.508,176.035 c -1.438,7.599 -2.338,23.203 1.837,54.105 h 37.621 c 0.259,-5.775 -3.37,-33.947 2.201,-61.158 0,0 -6.449,-1.294 -12.594,-1.59 -4.807,-0.232 -11.767,-0.385 -15.993,0.001 -1.764,0.161 -3.495,0.416 -5.038,0.689 -4.068,0.719 -7.266,3.894 -8.034,7.953 z"
   id="path66" />&#10;			<path
   style="opacity:0.4"
   d="m 289.508,176.035 c -1.438,7.599 -2.338,23.203 1.837,54.105 h 37.621 c 0.259,-5.775 -3.37,-33.947 2.201,-61.158 0,0 -6.449,-1.294 -12.594,-1.59 -4.807,-0.232 -11.767,-0.385 -15.993,0.001 -1.764,0.161 -3.495,0.416 -5.038,0.689 -4.068,0.719 -7.266,3.894 -8.034,7.953 z"
   id="path67" />&#10;		</g>&#10;		<path
   style="opacity:0.2"
   d="m 295.265,187.266 -6.798,-1.628 c -0.211,4.117 -0.23,9.22 0.077,15.53 3.131,-3.562 7.123,-9.115 6.721,-13.902 z"
   id="path68" />&#10;		<g
   id="g69">&#10;			<polygon
   style="opacity:0.2"
   points="302.351,401.168 309.388,401.168 309.028,392.772 301.991,392.772 "
   id="polygon68" />&#10;			<polygon
   style="opacity:0.2"
   points="347.573,392.121 351.134,399.941 358.012,398.452 354.451,390.632 "
   id="polygon69" />&#10;		</g>&#10;		<path
   style="fill:#ff8b7b"
   d="m 319.934,144.155 c -1.807,6.743 -2.522,10.781 -6.683,13.585 -6.259,4.217 -14.051,-0.623 -14.295,-7.77 -0.219,-6.433 2.773,-16.379 10.008,-17.738 7.129,-1.338 12.777,5.18 10.97,11.923 z"
   id="path69" />&#10;		<path
   style="fill:#263238"
   d="m 304.147,144.414 c -0.334,-0.904 -1.892,-7.872 -0.43,-9.681 1.463,-1.809 18.111,-0.508 20.573,1.915 4.084,4.019 1.251,7.606 -3.22,12.234 -3.363,3.48 -3.492,7.403 -5.188,7.978 -2.972,1.009 -7.581,0.061 -8.505,-3.112 -0.924,-3.172 -3.23,-9.334 -3.23,-9.334 z"
   id="path70" />&#10;		<path
   style="fill:#263238"
   d="m 322.274,128.722 c -5.885,-2.506 -16.917,0.266 -22.875,-1.17 -0.213,3.085 1.649,8.032 7.606,9.362 0,0 8.457,1.649 15,1.383 6.543,-0.266 5.266,-7.447 0.269,-9.575 z"
   id="path71" />&#10;		<path
   style="fill:#263238"
   d="m 323.194,136.861 c 0,0 3.639,0.41 6.222,-1.194 1.105,2.659 -4.944,3.389 -6.222,1.194 z"
   id="path72" />&#10;		<path
   style="fill:#ff8b7b"
   d="m 307.354,144.691 c -0.109,1.825 -0.956,3.542 -1.976,4.666 -1.533,1.689 -3.133,0.638 -3.405,-1.42 -0.245,-1.852 0.258,-4.963 2.133,-5.894 1.847,-0.919 3.372,0.561 3.248,2.648 z"
   id="path73" />&#10;		<path
   style="fill:#407bff"
   d="m 304.69,230.14 c 0,0 7.982,53.753 12.365,73.891 4.799,22.053 30.531,95.014 30.531,95.014 l 12.591,-2.726 c 0,0 -17.993,-59.458 -22.021,-90.289 -3.094,-23.682 -9.19,-75.89 -9.19,-75.89 z"
   id="path74" />&#10;		<path
   style="fill:#263238"
   d="m 344.571,394.842 c -0.054,0.012 2.347,4.553 2.347,4.553 l 14.166,-3.067 -1.194,-4.259 z"
   id="path75" />&#10;		<path
   style="opacity:0.3"
   d="m 309.735,249.292 c 9.23,1.81 8.253,36.23 7.143,53.933 -2.662,-12.514 -6.558,-36.594 -9.22,-53.684 0.612,-0.306 1.302,-0.402 2.077,-0.249 z"
   id="path76" />&#10;		<path
   style="fill:#407bff"
   d="m 291.345,230.14 c 0,0 -0.969,52.59 -0.204,74.039 0.796,22.311 8.589,95.363 8.589,95.363 h 11.915 c 0,0 0.437,-71.748 0.967,-93.66 0.578,-23.887 3.462,-75.742 3.462,-75.742 z"
   id="path77" />&#10;		<path
   style="fill:#263238"
   d="m 297.437,394.796 c -0.055,0 0.672,4.947 0.672,4.947 h 14.494 l 0.392,-4.415 z"
   id="path78" />&#10;		<g
   id="g80">&#10;			<path
   style="fill:#407bff"
   d="m 304.252,178.342 c 3.373,9.089 -16.442,19.795 -16.442,19.795 l -8.578,-11.028 c 0,0 5.723,-11.39 12.746,-16.525 8.675,-6.343 9.706,0.839 12.274,7.758 z"
   id="path79" />&#10;			<path
   style="opacity:0.4"
   d="m 304.252,178.342 c 3.373,9.089 -16.442,19.795 -16.442,19.795 l -8.578,-11.028 c 0,0 5.723,-11.39 12.746,-16.525 8.675,-6.343 9.706,0.839 12.274,7.758 z"
   id="path80" />&#10;		</g>&#10;	</g>&#10;</g><g
   id="Thinking"
   transform="matrix(0.41616709,0,0,0.41616709,-5.8403977,-24.686561)">&#10;	<g
   id="g83">&#10;		<ellipse
   style="fill:#407bff"
   cx="381.875"
   cy="86.333"
   rx="36.087002"
   ry="23"
   id="ellipse81" />&#10;		<path
   style="fill:#ffffff"
   d="m 368.846,97.91 c -2.005,0 -3.962,-0.6 -5.662,-1.759 -2.28,-1.554 -3.795,-3.91 -4.266,-6.634 -0.898,-5.207 2.56,-10.395 7.709,-11.565 v 0 c 4.24,-0.961 8.546,0.846 10.823,4.517 l 23.167,-4.781 c 1.877,-0.387 3.784,0.732 4.246,2.497 0.245,0.938 0.1,1.907 -0.41,2.729 -0.511,0.822 -1.313,1.381 -2.26,1.577 l -0.608,0.126 c -0.182,0.037 -0.33,0.147 -0.418,0.309 -0.088,0.16 -0.101,0.349 -0.035,0.519 l 0.408,1.062 c 0.277,0.719 0.019,1.528 -0.616,1.923 -0.494,0.308 -0.83,0.836 -0.897,1.414 -0.082,0.708 -0.555,1.253 -1.204,1.387 l -0.477,0.098 c -0.647,0.132 -1.297,-0.178 -1.654,-0.796 -0.418,-0.722 -1.248,-1.094 -2.068,-0.924 -0.823,0.17 -1.442,0.841 -1.542,1.67 -0.085,0.709 -0.558,1.253 -1.205,1.386 l -0.467,0.096 c -0.641,0.133 -1.297,-0.179 -1.654,-0.796 -0.293,-0.504 -0.813,-0.856 -1.392,-0.942 -0.739,-0.11 -1.298,-0.75 -1.329,-1.522 l -0.046,-1.137 c -0.007,-0.185 -0.091,-0.349 -0.236,-0.462 -0.145,-0.114 -0.319,-0.155 -0.507,-0.119 l -7.382,1.524 c -0.626,4.183 -3.779,7.532 -7.951,8.393 -0.689,0.139 -1.381,0.21 -2.067,0.21 z m -1.998,-18.983 c -4.639,1.054 -7.754,5.729 -6.943,10.42 0.423,2.455 1.788,4.577 3.843,5.978 2.055,1.401 4.527,1.896 6.964,1.393 3.865,-0.798 6.762,-3.968 7.206,-7.888 l 0.041,-0.36 8.085,-1.669 c 0.467,-0.097 0.95,0.017 1.325,0.311 0.375,0.293 0.6,0.734 0.62,1.21 l 0.046,1.137 c 0.011,0.288 0.216,0.535 0.476,0.573 0.891,0.133 1.659,0.654 2.11,1.43 0.11,0.19 0.319,0.373 0.588,0.318 l 0.467,-0.096 c 0.265,-0.055 0.388,-0.307 0.414,-0.525 0.149,-1.256 1.087,-2.273 2.333,-2.53 1.242,-0.256 2.501,0.308 3.135,1.402 0.11,0.19 0.318,0.375 0.587,0.318 l 0.478,-0.098 c 0.265,-0.055 0.387,-0.306 0.411,-0.523 0.104,-0.892 0.602,-1.674 1.364,-2.147 0.224,-0.139 0.313,-0.446 0.21,-0.714 L 400.2,85.804 c -0.171,-0.445 -0.138,-0.939 0.091,-1.357 0.229,-0.417 0.627,-0.712 1.094,-0.808 l 0.608,-0.126 c 0.676,-0.139 1.248,-0.539 1.612,-1.124 0.364,-0.586 0.468,-1.278 0.293,-1.948 -0.33,-1.258 -1.713,-2.054 -3.078,-1.77 l -23.869,4.926 -0.18,-0.314 c -2.003,-3.499 -5.985,-5.251 -9.923,-4.356 z m 2.011,15.286 c -1.238,0 -2.449,-0.36 -3.508,-1.056 -1.43,-0.941 -2.407,-2.381 -2.752,-4.056 -0.347,-1.678 -0.02,-3.389 0.921,-4.817 0.94,-1.427 2.381,-2.403 4.057,-2.749 1.678,-0.347 3.389,-0.021 4.816,0.918 1.427,0.938 2.403,2.38 2.749,4.059 0.347,1.675 0.02,3.385 -0.918,4.813 -0.939,1.43 -2.381,2.408 -4.06,2.754 v 0 c -0.434,0.09 -0.871,0.134 -1.305,0.134 z m 0.03,-11.813 c -0.369,0 -0.74,0.038 -1.11,0.114 -1.414,0.292 -2.63,1.116 -3.423,2.32 -0.793,1.205 -1.069,2.648 -0.777,4.065 0.292,1.413 1.116,2.628 2.323,3.422 1.206,0.793 2.649,1.07 4.063,0.778 v 0 c 1.416,-0.292 2.632,-1.118 3.425,-2.324 0.792,-1.205 1.067,-2.647 0.775,-4.062 -0.293,-1.417 -1.116,-2.634 -2.32,-3.426 -0.891,-0.583 -1.912,-0.887 -2.956,-0.887 z"
   id="path81" />&#10;		<ellipse
   style="opacity:0.6;fill:#407bff"
   cx="352.495"
   cy="115.258"
   rx="11.861"
   ry="7.5599999"
   id="ellipse82" />&#10;		<ellipse
   style="opacity:0.3;fill:#407bff"
   cx="333.629"
   cy="122.817"
   rx="4.869"
   ry="3.1029999"
   id="ellipse83" />&#10;	</g>&#10;</g></svg>
