<?xml version="1.0" encoding="UTF-8" standalone="no"?>
<!-- Generator: Adobe Illustrator 27.5.0, SVG Export Plug-In . SVG Version: 6.00 Build 0)  -->

<svg
   version="1.1"
   x="0px"
   y="0px"
   viewBox="0 0 199 155"
   xml:space="preserve"
   id="svg247"
   sodipodi:docname="sede-ubicacion.svg"
   inkscape:version="1.3 (0e150ed6c4, 2023-07-21)"
   width="199"
   height="155"
   xmlns:inkscape="http://www.inkscape.org/namespaces/inkscape"
   xmlns:sodipodi="http://sodipodi.sourceforge.net/DTD/sodipodi-0.dtd"
   xmlns="http://www.w3.org/2000/svg"
   xmlns:svg="http://www.w3.org/2000/svg"><defs
   id="defs247" /><sodipodi:namedview
   id="namedview247"
   pagecolor="#ffffff"
   bordercolor="#000000"
   borderopacity="0.25"
   inkscape:showpageshadow="2"
   inkscape:pageopacity="0.0"
   inkscape:pagecheckerboard="true"
   inkscape:deskcolor="#d1d1d1"
   inkscape:zoom="3.284"
   inkscape:cx="92.72229"
   inkscape:cy="70.493301"
   inkscape:window-width="2560"
   inkscape:window-height="1017"
   inkscape:window-x="1912"
   inkscape:window-y="-8"
   inkscape:window-maximized="1"
   inkscape:current-layer="svg247" />&#10;&#10;<g
   id="Background_Simple"
   style="display:none">&#10;	<g
   style="display:inline"
   id="g41">&#10;		<path
   style="fill:#407bff"
   d="m 241.936,74.075 c 7.832,-1.91 16.622,-1.622 26.341,1.643 15.617,5.247 27.043,19.004 34.173,33.856 13.796,28.739 17.651,60.899 27.547,90.911 2.714,8.23 5.923,16.453 11.228,23.305 22.071,28.507 82.754,12.137 82.176,62.137 -0.163,14.13 -7.771,27.655 -18.876,36.394 -32.69,25.724 -78.654,11.019 -113.588,-0.656 -32.732,-10.939 -61.068,-12.275 -93.872,0.819 -27.802,11.097 -56.895,29.991 -88.174,24.881 -31.807,-5.197 -46.032,-36.584 -40.707,-66.182 5.677,-31.551 30.416,-54.82 58.857,-67.405 16.966,-7.508 39.284,-12.096 52.582,-25.755 6.83,-7.015 9.803,-16.855 11.975,-26.402 3.458,-15.205 5.5,-30.795 10.651,-45.513 6.453,-18.439 19.682,-37.153 39.687,-42.033 z"
   id="path40" />&#10;		<path
   style="opacity:0.9;fill:#ffffff"
   d="m 241.936,74.075 c 7.832,-1.91 16.622,-1.622 26.341,1.643 15.617,5.247 27.043,19.004 34.173,33.856 13.796,28.739 17.651,60.899 27.547,90.911 2.714,8.23 5.923,16.453 11.228,23.305 22.071,28.507 82.754,12.137 82.176,62.137 -0.163,14.13 -7.771,27.655 -18.876,36.394 -32.69,25.724 -78.654,11.019 -113.588,-0.656 -32.732,-10.939 -61.068,-12.275 -93.872,0.819 -27.802,11.097 -56.895,29.991 -88.174,24.881 -31.807,-5.197 -46.032,-36.584 -40.707,-66.182 5.677,-31.551 30.416,-54.82 58.857,-67.405 16.966,-7.508 39.284,-12.096 52.582,-25.755 6.83,-7.015 9.803,-16.855 11.975,-26.402 3.458,-15.205 5.5,-30.795 10.651,-45.513 6.453,-18.439 19.682,-37.153 39.687,-42.033 z"
   id="path41" />&#10;	</g>&#10;</g>&#10;&#10;&#10;&#10;&#10;&#10;<g
   id="Background_2"
   transform="matrix(0.45322936,0,0,0.45322936,-27.55048,-23.867818)">&#10;	<g
   id="g47">&#10;		<g
   id="g11">&#10;			<g
   id="g10">&#10;				<g
   id="g9">&#10;					<rect
   y="382.39801"
   style="fill:#d1e3ff"
   width="500"
   height="0.25"
   id="rect1"
   x="0" />&#10;					<rect
   x="386.77802"
   y="393.68799"
   style="fill:#d1e3ff"
   width="37.333"
   height="0.25"
   id="rect2" />&#10;					<rect
   x="363.01501"
   y="393.81299"
   style="fill:#d1e3ff"
   width="16.429001"
   height="0.25"
   id="rect3" />&#10;					<rect
   x="265"
   y="394.16699"
   style="fill:#d1e3ff"
   width="19.5"
   height="0.25"
   id="rect4" />&#10;					<rect
   x="192.222"
   y="398.51401"
   style="fill:#d1e3ff"
   width="43.528"
   height="0.25"
   id="rect5" />&#10;					<rect
   x="83.386002"
   y="394.29199"
   style="fill:#d1e3ff"
   width="31.172001"
   height="0.25"
   id="rect6" />&#10;					<rect
   x="120.111"
   y="394.29199"
   style="fill:#d1e3ff"
   width="30.389"
   height="0.25"
   id="rect7" />&#10;					<rect
   x="58.553001"
   y="388.09698"
   style="fill:#d1e3ff"
   width="9.8369999"
   height="0.25"
   id="rect8" />&#10;					<path
   style="fill:#d1e3ff"
   d="M 237.014,337.8 H 43.915 c -3.147,0 -5.708,-2.561 -5.708,-5.708 V 60.66 c 0,-3.147 2.561,-5.708 5.708,-5.708 h 193.099 c 3.146,0 5.707,2.561 5.707,5.708 v 271.432 c 0,3.147 -2.561,5.708 -5.707,5.708 z M 43.915,55.203 c -3.01,0 -5.458,2.448 -5.458,5.458 v 271.432 c 0,3.01 2.448,5.458 5.458,5.458 h 193.099 c 3.009,0 5.457,-2.448 5.457,-5.458 V 60.66 c 0,-3.009 -2.448,-5.458 -5.457,-5.458 H 43.915 Z"
   id="path8" />&#10;					<path
   style="fill:#d1e3ff"
   d="M 453.31,337.8 H 260.212 c -3.146,0 -5.707,-2.561 -5.707,-5.708 V 60.66 c 0,-3.147 2.561,-5.708 5.707,-5.708 H 453.31 c 3.148,0 5.708,2.561 5.708,5.708 v 271.432 c 0.001,3.147 -2.56,5.708 -5.708,5.708 z M 260.212,55.203 c -3.009,0 -5.457,2.448 -5.457,5.458 v 271.432 c 0,3.01 2.448,5.458 5.457,5.458 H 453.31 c 3.01,0 5.458,-2.448 5.458,-5.458 V 60.66 c 0,-3.009 -2.448,-5.458 -5.458,-5.458 H 260.212 Z"
   id="path9" />&#10;				</g>&#10;			</g>&#10;		</g>&#10;		<g
   id="g46">&#10;			<g
   id="g28">&#10;				<polygon
   style="fill:#f3f8ff"
   points="341.555,188.063 328.063,159.717 328.063,382.398 341.555,382.398 "
   id="polygon11" />&#10;				<polygon
   style="fill:#e3eeff"
   points="321.06,188.063 328.063,159.717 328.063,382.398 321.06,382.398 "
   id="polygon12" />&#10;				<polygon
   style="fill:#f3f8ff"
   points="359.053,247.173 297.174,233 297.174,382.398 359.053,382.398 "
   id="polygon13" />&#10;				&#10;					<rect
   x="265.06"
   y="233"
   transform="rotate(180,281.11735,307.6992)"
   style="fill:#e3eeff"
   width="32.113998"
   height="149.39799"
   id="rect13" />&#10;				<g
   id="g22">&#10;					<rect
   x="222.88901"
   y="113.624"
   style="fill:#f3f8ff"
   width="52.667"
   height="268.77499"
   id="rect14" />&#10;					&#10;						<rect
   x="195.55499"
   y="113.624"
   transform="rotate(180,209.22205,248.0111)"
   style="fill:#e3eeff"
   width="27.333"
   height="268.77499"
   id="rect15" />&#10;					<rect
   x="222.88901"
   y="99.867996"
   style="fill:#f3f8ff"
   width="45.580002"
   height="13.755"
   id="rect16" />&#10;					<rect
   x="222.88901"
   y="110.535"
   style="fill:#e3eeff"
   width="45.580002"
   height="3.089"
   id="rect17" />&#10;					&#10;						<rect
   x="202.642"
   y="99.867996"
   transform="rotate(180,212.76535,106.74615)"
   style="fill:#e3eeff"
   width="20.247"
   height="13.755"
   id="rect18" />&#10;					<rect
   x="222.88901"
   y="86.112999"
   style="fill:#f3f8ff"
   width="38.493"
   height="13.755"
   id="rect19" />&#10;					<rect
   x="222.88901"
   y="96.779999"
   style="fill:#e3eeff"
   width="38.493"
   height="3.089"
   id="rect20" />&#10;					&#10;						<rect
   x="209.729"
   y="86.112999"
   transform="rotate(180,216.30865,92.9909)"
   style="fill:#e3eeff"
   width="13.16"
   height="13.755"
   id="rect21" />&#10;					&#10;						<rect
   x="234.27699"
   y="66.889999"
   transform="rotate(180,235.55535,76.50165)"
   style="fill:#e3eeff"
   width="2.556"
   height="19.223"
   id="rect22" />&#10;				</g>&#10;				<rect
   x="165.821"
   y="137.688"
   style="fill:#f3f8ff"
   width="38.459999"
   height="244.71001"
   id="rect23" />&#10;				&#10;					<rect
   x="145.86099"
   y="137.688"
   transform="rotate(180,155.841,260.04325)"
   style="fill:#e3eeff"
   width="19.959999"
   height="244.71001"
   id="rect24" />&#10;				<rect
   x="400.28601"
   y="201.222"
   style="fill:#f3f8ff"
   width="29.166"
   height="181.17599"
   id="rect25" />&#10;				&#10;					<rect
   x="385.14899"
   y="201.222"
   transform="rotate(180,392.71775,291.8103)"
   style="fill:#e3eeff"
   width="15.137"
   height="181.17599"
   id="rect26" />&#10;				<rect
   x="108.741"
   y="223.66701"
   style="fill:#f3f8ff"
   width="26.563999"
   height="158.73199"
   id="rect27" />&#10;				<polygon
   style="fill:#e3eeff"
   points="94.955,259 108.741,223.667 108.741,382.398 94.955,382.398 "
   id="polygon27" />&#10;				<rect
   x="81.257004"
   y="255.66701"
   style="fill:#f3f8ff"
   width="21.688"
   height="126.732"
   id="rect28" />&#10;				<polygon
   style="fill:#e3eeff"
   points="70.001,277.618 81.257,255.667 81.257,382.398 70.001,382.398 "
   id="polygon28" />&#10;			</g>&#10;			<g
   id="g33">&#10;				<path
   style="fill:#e3eeff"
   d="m 45.962,382.398 c 0,0 -0.733,-7.216 -8.706,-10.931 3.268,5.231 2.556,10.931 2.556,10.931 z"
   id="path28" />&#10;				<g
   id="g32">&#10;					<path
   style="fill:#e3eeff"
   d="m 342.628,382.398 c 0,0 0.733,-7.216 8.706,-10.931 -3.268,5.231 -2.556,10.931 -2.556,10.931 z"
   id="path29" />&#10;					<path
   style="fill:#e3eeff"
   d="m 426.99,382.398 c 0,0 0.492,-12.801 5.843,-16.515 -2.194,5.231 -1.715,16.515 -1.715,16.515 z"
   id="path30" />&#10;					<path
   style="fill:#e3eeff"
   d="m 429,382.398 c 0,0 -0.492,-7.349 -5.843,-9.482 2.194,3.003 1.715,9.482 1.715,9.482 z"
   id="path31" />&#10;					<path
   style="fill:#e3eeff"
   d="m 338.048,382.398 c 0,0 0.534,-12.118 10.239,-16.515 -4.337,6.216 -4.089,16.515 -4.089,16.515 z"
   id="path32" />&#10;				</g>&#10;			</g>&#10;			<g
   id="g45">&#10;				<polygon
   style="fill:#d1e3ff"
   points="437.298,350.607 444.359,300.806 448.882,300.806 441.82,350.607 441.114,355.591 436.592,355.591 "
   id="polygon33" />&#10;				<polygon
   style="fill:#d1e3ff"
   points="243.309,350.607 250.371,300.806 254.894,300.806 247.832,350.607 247.126,355.591 242.603,355.591 "
   id="polygon34" />&#10;				<polygon
   style="fill:#d1e3ff"
   points="414.645,355.591 415.351,350.607 419.887,350.607 419.181,355.591 415.365,382.44 410.842,382.44 "
   id="polygon35" />&#10;				<polygon
   style="fill:#d1e3ff"
   points="220.657,355.591 221.363,350.607 225.885,350.607 225.179,355.591 221.376,382.44 216.854,382.44 "
   id="polygon36" />&#10;				<polygon
   style="fill:#d1e3ff"
   points="253.991,355.591 253.285,350.607 248.749,350.607 249.456,355.591 253.271,382.44 257.794,382.44 "
   id="polygon37" />&#10;				<polygon
   style="fill:#d1e3ff"
   points="447.979,355.591 447.273,350.607 442.751,350.607 443.457,355.591 447.26,382.44 451.782,382.44 "
   id="polygon38" />&#10;				<g
   id="g40">&#10;					<polygon
   style="fill:#e3eeff"
   points="455.392,307.737 248.058,307.737 251.907,293.869 459.241,293.869 "
   id="polygon39" />&#10;					<polygon
   style="fill:#d1e3ff"
   points="450.657,307.737 243.323,307.737 247.173,293.869 454.507,293.869 "
   id="polygon40" />&#10;				</g>&#10;				<g
   id="g42">&#10;					<polygon
   style="fill:#e3eeff"
   points="452.504,325.033 245.171,325.033 249.02,311.166 456.354,311.166 "
   id="polygon41" />&#10;					<polygon
   style="fill:#d1e3ff"
   points="447.77,325.033 240.436,325.033 244.286,311.166 451.62,311.166 "
   id="polygon42" />&#10;				</g>&#10;				<g
   id="g44">&#10;					<polygon
   style="fill:#e3eeff"
   points="449.617,342.352 242.283,342.352 246.133,328.485 453.467,328.485 "
   id="polygon43" />&#10;					<polygon
   style="fill:#d1e3ff"
   points="444.883,342.352 237.549,342.352 241.399,328.485 448.732,328.485 "
   id="polygon44" />&#10;				</g>&#10;				<rect
   x="218.687"
   y="350.60699"
   style="fill:#d1e3ff"
   width="206.41499"
   height="4.9840002"
   id="rect44" />&#10;				<rect
   x="425.10199"
   y="350.60699"
   style="fill:#e3eeff"
   width="28.370001"
   height="4.9840002"
   id="rect45" />&#10;			</g>&#10;		</g>&#10;	</g>&#10;</g><g
   id="Objects"
   transform="matrix(0.48314687,0,0,0.48314687,-23.045051,-53.234917)">&#10;	<ellipse
   style="fill:#f0f6ff"
   cx="250"
   cy="416.23801"
   rx="193.88901"
   ry="11.323"
   id="ellipse47" />&#10;	<g
   id="g90">&#10;		<g
   id="g55">&#10;			<g
   id="g54">&#10;				<polygon
   style="opacity:0.7;fill:#9fc6ff"
   points="244.694,127.039 143.651,114.694 151.864,403.043 239.454,412.861 "
   id="polygon47" />&#10;				<polygon
   style="opacity:0.7;fill:#9fc6ff"
   points="346.52,116.38 244.694,127.039 239.454,412.861 327.632,405.396 "
   id="polygon48" />&#10;				<polygon
   style="opacity:0.7;fill:#9fc6ff"
   points="447.201,128.762 346.52,116.38 327.632,405.396 414.95,415.237 "
   id="polygon49" />&#10;				<path
   style="fill:#ffffff"
   d="m 232.556,313.535 c 0.02,-6.904 -5.729,-12.478 -12.709,-12.159 -5.881,0.269 -10.833,4.88 -11.487,10.731 -0.481,4.305 1.297,8.218 4.298,10.716 1.704,1.418 3.155,3.115 4.404,4.946 l 1.89,2.77 2.343,-2.413 c 1.527,-1.572 3.215,-2.999 5.119,-4.083 3.656,-2.08 6.13,-6 6.142,-10.508 z"
   id="path49" />&#10;				<path
   style="fill:#ffffff"
   d="m 417.699,161.231 c 0.02,-6.904 -5.729,-12.478 -12.709,-12.159 -5.881,0.269 -10.833,4.88 -11.487,10.731 -0.481,4.305 1.297,8.218 4.298,10.716 1.704,1.418 3.155,3.115 4.404,4.946 l 1.89,2.77 2.343,-2.413 c 1.527,-1.572 3.215,-2.999 5.12,-4.083 3.655,-2.08 6.129,-5.999 6.141,-10.508 z"
   id="path50" />&#10;				<path
   style="fill:#d4e9ff"
   d="m 244.169,125.403 103.039,-10.785 101.879,12.53 -32.634,289.884 -88.357,-9.957 -89.228,7.554 -88.632,-9.934 -8.311,-291.782 z m 12.541,247.494 72.923,-51.219 0.292,-0.205 15.861,-8.784 -13.72,-10.506 -93.049,-33.355 -18.369,-10.639 -27.089,63.871 49.925,42.11 z m -73.769,-59.791 25.767,-61.831 -50.06,-28.993 1.572,71.659 z m 61.43,-172.094 -1.465,-0.178 -86.275,-10.493 1.663,75.793 55.982,32.652 22.379,-38.013 28.154,-61.878 -18.977,1.966 z m 37.178,-3.852 -32.783,70.882 -22.514,37.729 18.058,10.532 94.318,34.019 19.865,15.331 23.571,-13.054 -11.737,-159.287 -23.658,-2.896 z m 103.318,-2.069 10.087,150.368 24.38,-13.501 13.874,-130.948 z m -56.42,259.964 1.292,0.146 75.63,8.555 12.273,-115.833 -80.921,44.457 -68.797,47.915 26.63,17.569 -0.067,0.093 32.662,-2.792 z m -89.792,7.675 36.531,-3.123 -39.246,-25.71 -75.35,-63.059 1.828,83.315 z"
   id="path51" />&#10;				<path
   style="fill:#407bff"
   d="m 357.88,314.938 c -0.213,0 -0.425,-0.068 -0.601,-0.203 l -22.447,-17.229 -93.514,-34.108 c -0.058,-0.021 -0.114,-0.047 -0.167,-0.079 l -23.364,-13.902 -26.044,62.388 c -0.21,0.503 -0.788,0.744 -1.291,0.53 -0.503,-0.209 -0.74,-0.787 -0.53,-1.29 l 26.481,-63.438 c 0.11,-0.264 0.33,-0.467 0.601,-0.557 0.272,-0.089 0.569,-0.058 0.814,0.089 l 24.262,14.437 93.569,34.129 c 0.095,0.034 0.184,0.083 0.263,0.144 l 22.055,16.928 30.771,-17.011 -9.714,-127.079 c -0.041,-0.544 0.366,-1.018 0.909,-1.059 0.528,-0.049 1.018,0.365 1.06,0.909 l 9.762,127.711 c 0.029,0.385 -0.169,0.752 -0.507,0.939 l -31.891,17.631 c -0.149,0.079 -0.313,0.12 -0.477,0.12 z"
   id="path52" />&#10;				<path
   style="fill:#407bff"
   d="m 383.081,168.874 c -0.144,1.674 -1.618,2.914 -3.292,2.77 -1.674,-0.144 -2.915,-1.618 -2.77,-3.292 0.144,-1.674 1.618,-2.914 3.292,-2.77 1.674,0.144 2.914,1.618 2.77,3.292 z"
   id="path53" />&#10;				<path
   style="fill:#407bff"
   d="m 193.865,311.684 c -0.144,1.674 -1.618,2.914 -3.293,2.77 -1.674,-0.144 -2.914,-1.618 -2.77,-3.292 0.144,-1.674 1.618,-2.914 3.292,-2.77 1.675,0.144 2.915,1.618 2.771,3.292 z"
   id="path54" />&#10;			</g>&#10;			<polygon
   style="opacity:0.3;fill:#14365b"
   points="347.207,114.618 244.169,125.403 238.866,414.628 328.094,407.074 "
   id="polygon54" />&#10;		</g>&#10;		<g
   id="g89">&#10;			<g
   id="g85">&#10;				<path
   style="fill:#0053cc"
   d="m 168.566,203.842 -6.262,-8.709 c -0.437,-0.608 -0.247,-1.393 0.424,-1.744 l 22.981,-12.034 c 0.67,-0.351 1.577,-0.141 2.014,0.468 l 6.262,8.709 c 0.437,0.608 0.247,1.393 -0.424,1.744 L 170.58,204.31 c -0.67,0.351 -1.577,0.141 -2.014,-0.468 z"
   id="path55" />&#10;				<path
   style="fill:#407bff"
   d="m 167.796,202.772 -6.262,-8.709 c -0.437,-0.608 -0.247,-1.393 0.424,-1.744 l 22.981,-12.034 c 0.67,-0.351 1.577,-0.141 2.014,0.468 l 6.262,8.709 c 0.437,0.608 0.247,1.393 -0.424,1.744 L 169.81,203.24 c -0.67,0.351 -1.576,0.14 -2.014,-0.468 z"
   id="path56" />&#10;				<polygon
   style="fill:#dce9ff"
   points="192,191.62 181.67,197.03 180.72,197.53 176.08,199.96 175.09,200.48 171.38,202.42 163.53,191.5 164.44,191.02 165.41,190.52 174.34,185.84 177.13,184.37 184.14,180.7 186.74,184.31 187.4,185.24 190.96,190.18 191.52,190.95 "
   id="polygon56" />&#10;				<path
   style="fill:#ffffff"
   d="m 191.52,190.95 -0.56,-0.77 -7.72,3.54 -2.74,1.9 -0.94,-1.13 -2.032,-5.74 -2.648,-1.73 0.92,-1.71 11.6,-0.07 -0.66,-0.93 -9.61,0.06 -2.79,1.47 -2.099,4.113 -3.721,3.637 -3.11,-3.069 -0.97,0.5 5.37,5.33 5.28,4.13 0.99,-0.52 -0.72,-0.56 4.82,-2.53 0.54,0.66 0.95,-0.5 -0.56,-0.68 2.75,-1.89 z m -16.98,7.81 -3.92,-3.07 -1.37,-1.37 3.941,-3.947 1.179,-2.412 2.228,1.33 1.982,5.66 0.02,0.03 0.96,1.15 z"
   id="path57" />&#10;				<path
   style="fill:#ff8b7b"
   d="m 110.842,185.181 c -0.15,0.286 -0.387,0.748 -0.578,1.151 l -0.605,1.274 c -0.4,0.859 -0.779,1.74 -1.141,2.628 -0.706,1.785 -1.41,3.582 -2.008,5.417 -1.181,3.673 -2.108,7.43 -2.725,11.232 -0.179,0.949 -0.264,1.905 -0.403,2.86 -0.022,0.15 -0.039,0.3 -0.059,0.45 -0.011,0.087 -0.023,0.174 -0.034,0.261 -0.015,0.114 -0.046,0.206 -0.005,0.321 0.06,0.168 0.241,0.28 0.387,0.367 0.438,0.258 1.144,0.523 1.936,0.686 1.603,0.338 3.499,0.44 5.411,0.431 1.907,-0.01 3.93,-0.135 5.828,-0.313 l 1.065,4.106 c -1.063,0.419 -2.054,0.737 -3.101,1.044 -1.037,0.306 -2.089,0.582 -3.166,0.795 -2.156,0.432 -4.383,0.734 -6.855,0.591 -1.237,-0.089 -2.558,-0.256 -3.999,-0.825 -0.717,-0.286 -1.471,-0.677 -2.202,-1.242 -0.73,-0.56 -1.425,-1.328 -1.933,-2.212 -0.519,-0.883 -0.818,-1.861 -0.948,-2.763 -0.067,-0.453 -0.097,-0.892 -0.1,-1.312 l 0.011,-0.588 0.025,-0.406 c 0.078,-1.082 0.106,-2.175 0.231,-3.253 0.425,-4.327 1.273,-8.602 2.513,-12.758 0.628,-2.075 1.306,-4.139 2.142,-6.152 0.414,-1.008 0.847,-2.009 1.314,-3.007 0.233,-0.498 0.468,-0.999 0.729,-1.495 0.266,-0.513 0.504,-0.96 0.854,-1.568 z"
   id="path58" />&#10;				<path
   style="fill:#ff8b7b"
   d="m 116.195,211.729 6.171,-5.786 0.45,8.506 c 0,0 -4.568,2.839 -7.585,1.1 z"
   id="path59" />&#10;				<polygon
   style="fill:#ff8b7b"
   points="129.38,205.316 129.372,212.457 122.816,214.449 122.366,205.943 "
   id="polygon59" />&#10;				<path
   style="fill:#0053cc"
   d="m 105.746,412.222 c -0.774,0 -1.62,-0.16 -2.212,-0.3 -0.077,-0.019 -0.136,-0.081 -0.149,-0.159 -0.014,-0.078 0.02,-0.156 0.086,-0.2 0.287,-0.189 2.826,-1.834 3.805,-1.389 0.154,0.069 0.348,0.223 0.395,0.558 0.063,0.443 -0.048,0.798 -0.329,1.054 -0.358,0.325 -0.952,0.436 -1.596,0.436 z m -1.651,-0.583 c 1.457,0.29 2.554,0.24 2.979,-0.147 0.18,-0.164 0.247,-0.395 0.203,-0.706 -0.024,-0.167 -0.101,-0.222 -0.165,-0.251 -0.51,-0.235 -1.98,0.477 -3.017,1.104 z"
   id="path60" />&#10;				<path
   style="fill:#0053cc"
   d="m 103.58,411.927 c -0.035,0 -0.069,-0.009 -0.1,-0.026 -0.061,-0.036 -0.098,-0.102 -0.098,-0.172 0,-0.102 0.011,-2.514 0.922,-3.32 0.242,-0.214 0.522,-0.305 0.84,-0.266 0.496,0.06 0.631,0.373 0.667,0.554 0.189,0.944 -1.334,2.752 -2.133,3.205 -0.031,0.016 -0.065,0.025 -0.098,0.025 z m 1.425,-3.396 c -0.163,0 -0.307,0.058 -0.439,0.174 -0.543,0.48 -0.73,1.835 -0.776,2.638 0.796,-0.636 1.746,-1.993 1.631,-2.568 -0.019,-0.095 -0.073,-0.207 -0.326,-0.237 -0.031,-0.005 -0.06,-0.007 -0.09,-0.007 z"
   id="path61" />&#10;				<path
   style="fill:#0053cc"
   d="m 143.85,412.223 c -0.923,0 -1.925,-0.158 -2.637,-0.3 -0.083,-0.017 -0.146,-0.083 -0.158,-0.166 -0.012,-0.084 0.03,-0.165 0.105,-0.204 0.377,-0.196 3.716,-1.901 4.743,-1.339 0.199,0.108 0.315,0.291 0.337,0.527 0.036,0.395 -0.085,0.721 -0.358,0.966 -0.432,0.387 -1.2,0.516 -2.032,0.516 z m -1.978,-0.582 c 1.855,0.308 3.233,0.229 3.743,-0.228 0.178,-0.16 0.253,-0.367 0.228,-0.636 -0.009,-0.103 -0.05,-0.17 -0.131,-0.215 -0.558,-0.306 -2.468,0.42 -3.84,1.079 z"
   id="path62" />&#10;				<path
   style="fill:#0053cc"
   d="m 141.251,411.927 c -0.04,0 -0.08,-0.012 -0.114,-0.036 -0.058,-0.04 -0.089,-0.108 -0.083,-0.178 0.008,-0.096 0.201,-2.351 1.254,-3.227 0.323,-0.269 0.692,-0.386 1.099,-0.343 0.549,0.056 0.708,0.335 0.745,0.56 0.155,0.948 -1.82,2.755 -2.819,3.206 -0.026,0.012 -0.054,0.018 -0.082,0.018 z m 1.997,-3.396 c -0.252,0 -0.477,0.085 -0.686,0.259 -0.692,0.576 -0.97,1.928 -1.067,2.584 1.018,-0.616 2.358,-2.038 2.266,-2.607 -0.008,-0.048 -0.031,-0.192 -0.394,-0.229 -0.041,-0.005 -0.08,-0.007 -0.119,-0.007 z"
   id="path63" />&#10;				<path
   style="fill:#ff8b7b"
   d="m 121.414,152.11 c 0.974,4.97 3.176,15.037 -0.301,18.354 0,0 1.359,5.042 10.594,5.042 10.155,0 4.853,-5.041 4.853,-5.041 -5.543,-1.324 -5.4,-5.436 -4.434,-9.298 z"
   id="path64" />&#10;				<path
   style="fill:#0f264c"
   d="m 140.845,140.56 c -0.076,0 -0.152,-0.021 -0.219,-0.067 -0.183,-0.121 -0.232,-0.368 -0.11,-0.55 1.215,-1.824 3.049,-1.806 3.126,-1.83 0.219,0.002 0.395,0.182 0.393,0.401 -0.003,0.219 -0.193,0.416 -0.399,0.393 -0.068,0 -1.491,0.022 -2.459,1.475 -0.077,0.115 -0.203,0.178 -0.332,0.178 z"
   id="path65" />&#10;				<path
   style="fill:#ff5652"
   d="m 143.269,145.239 c 0,0 1.146,2.909 2.408,4.312 -0.892,0.833 -2.408,0.452 -2.408,0.452 z"
   id="path66" />&#10;				<path
   style="fill:#0f264c"
   d="m 142.664,144.078 c 0,0.676 0.358,1.223 0.8,1.223 0.442,0 0.8,-0.548 0.8,-1.223 0,-0.676 -0.358,-1.223 -0.8,-1.223 -0.442,0 -0.8,0.548 -0.8,1.223 z"
   id="path67" />&#10;				<path
   style="fill:#0f264c"
   d="m 143.269,142.892 1.623,-0.468 c -0.001,0.001 -0.833,1.268 -1.623,0.468 z"
   id="path68" />&#10;				<polygon
   style="fill:#ff8b7b"
   points="132.041,411.729 140.417,411.729 140.977,392.331 132.6,392.331 "
   id="polygon68" />&#10;				<polygon
   style="fill:#ff8b7b"
   points="93.983,411.729 102.359,411.729 105.052,392.331 96.676,392.331 "
   id="polygon69" />&#10;				<path
   style="fill:#14365b"
   d="m 102.879,410.759 h -9.41 c -0.342,0 -0.62,0.238 -0.668,0.572 l -1.072,7.445 c -0.111,0.772 0.553,1.503 1.343,1.49 3.281,-0.056 4.862,-0.249 9,-0.249 2.546,0 6.266,0.264 9.781,0.264 3.439,0 3.703,-3.477 2.239,-3.791 -6.564,-1.412 -7.601,-3.359 -9.813,-5.216 -0.399,-0.335 -0.899,-0.515 -1.4,-0.515 z"
   id="path69" />&#10;				<path
   style="fill:#14365b"
   d="m 140.704,410.759 h -9.41 c -0.342,0 -0.62,0.238 -0.668,0.572 l -1.072,7.445 c -0.111,0.772 0.553,1.503 1.343,1.49 3.281,-0.056 4.862,-0.249 9,-0.249 2.546,0 7.812,0.264 11.328,0.264 3.439,0 3.703,-3.477 2.239,-3.791 -6.564,-1.412 -9.148,-3.359 -11.359,-5.216 -0.399,-0.335 -0.9,-0.515 -1.401,-0.515 z"
   id="path70" />&#10;				<g
   id="g71">&#10;					<polygon
   style="fill:#ea7063"
   points="140.975,392.336 140.688,402.335 132.308,402.335 132.595,392.336 "
   id="polygon70" />&#10;					<polygon
   style="fill:#ea7063"
   points="96.673,392.336 105.053,392.336 103.661,402.335 95.281,402.335 "
   id="polygon71" />&#10;				</g>&#10;				<path
   style="fill:#407bff"
   d="m 150.719,172.61 c 0,0 3.99,1.406 -4.003,50.555 -13.499,0 -27.451,0 -34.019,0 0.571,-13.846 0.587,-22.383 -6.03,-50.798 0,0 7.128,-1.551 14.446,-1.903 5.725,-0.276 10.415,-0.459 15.448,0.001 6.634,0.605 14.158,2.145 14.158,2.145 z"
   id="path71" />&#10;				<polygon
   style="fill:#236ae8"
   points="149.722,200.722 150.458,187.96 143.917,194.208 "
   id="polygon72" />&#10;				<path
   style="fill:#ff8b7b"
   d="m 169.578,201.338 c -1.274,1.755 -2.631,3.547 -3.981,5.233 -1.355,1.678 -2.769,3.324 -4.179,4.589 -0.189,0.168 -0.383,0.327 -0.575,0.477 l -0.306,-0.91 c -0.314,-1.03 -0.639,-2.049 -0.927,-3.109 -1.196,-4.204 -2.255,-8.537 -3.285,-12.878 l -2.97,-13.059 -8.385,1.741 c 0.903,4.513 1.914,8.93 3.079,13.36 0.571,2.212 1.175,4.424 1.798,6.634 0.664,2.207 1.327,4.408 2.088,6.622 0.364,1.102 0.796,2.213 1.207,3.321 l 0.677,1.677 c 0.09,0.228 0.293,0.704 0.519,1.112 0.216,0.414 0.518,0.88 0.893,1.342 0.404,0.472 0.882,0.963 1.578,1.383 0.68,0.417 1.527,0.714 2.344,0.797 1.673,0.157 2.873,-0.363 3.711,-0.805 1.69,-0.952 2.59,-1.981 3.479,-2.989 1.699,-2.017 2.922,-4.065 4.056,-6.151 0.563,-1.041 1.082,-2.094 1.562,-3.163 0.488,-1.072 0.948,-2.118 1.372,-3.254 z"
   id="path72" />&#10;				<path
   style="fill:#407bff"
   d="m 150.719,172.61 c 3.452,0.879 5.867,15.086 5.867,15.086 l -13.318,9.057 c 0,0 -5.317,-16.919 -2.661,-20.715 2.766,-3.953 5.074,-4.711 10.112,-3.428 z"
   id="path73" />&#10;				<path
   style="fill:#ff8b7b"
   d="m 171.51,204.538 7.47,-2.689 -4.835,-3.967 c 0,0 -5.707,0.732 -5.812,5.305 z"
   id="path74" />&#10;				<polygon
   style="fill:#ff8b7b"
   points="183.146,199.188 184.084,197.239 174.145,197.882 178.979,201.849 "
   id="polygon74" />&#10;				<polygon
   style="fill:#ff8b7b"
   points="176.153,196.625 177.375,193.765 175.646,193.958 170.672,199.175 177.113,197.69 "
   id="polygon75" />&#10;				<path
   style="fill:#ff8b7b"
   d="m 119.948,141.759 c 0.509,8.298 0.548,11.821 4.739,16.079 6.304,6.406 16.384,3.966 18.364,-4.317 1.782,-7.455 0.649,-19.772 -7.473,-23.074 -8.002,-3.253 -16.14,3.014 -15.63,11.312 z"
   id="path75" />&#10;				<path
   style="fill:#0053cc"
   d="m 137.73,223.17 c 0,0 -0.84,9.94 -2.19,23.87 0,0.01 0,0.01 0,0.01 -1.64,17.04 -4.03,40.04 -6.56,58.2 -0.38,2.72 -0.77,5.34 -1.15,7.81 -4.08,26.17 -22.15,87.34 -22.15,87.34 H 94.26 c 0,0 9.42,-59.08 11.48,-84.96 5.24,-65.5 -3.94,-77.09 6.96,-92.27 z"
   id="path76" />&#10;				<path
   style="fill:#004daa"
   d="m 135.54,247.04 c 0,0.01 0,0.01 0,0.01 -1.64,17.04 -4.03,40.04 -6.56,58.2 -2.53,-7.74 -7.137,-34.803 -3.107,-58.583 2.43,-14.34 7.137,-8.067 9.667,0.373 z"
   id="path77" />&#10;				<path
   style="fill:#0053cc"
   d="m 146.716,223.165 c 0,0 6.607,64.524 6.058,90.068 -0.571,26.569 -10.307,87.165 -10.307,87.165 h -11.326 c 0,0 1.792,-59.044 0.791,-85.138 -1.092,-28.447 -10.127,-92.096 -10.127,-92.096 h 24.911 z"
   id="path78" />&#10;				<polygon
   style="fill:#407bff"
   points="107,400.982 92.945,400.982 92.687,396.156 108.083,395.75 "
   id="polygon78" />&#10;				<polygon
   style="fill:#407bff"
   points="143.92,400.982 129.865,400.982 129.333,395.75 145.003,395.75 "
   id="polygon79" />&#10;				<path
   style="fill:#407bff"
   d="m 106.666,172.367 c -3.48,0.763 -8.166,13.549 -8.166,13.549 l 14.674,8.474 c 0,0 4.298,-10.038 2.635,-14.362 -1.732,-4.501 -5.03,-8.562 -9.143,-7.661 z"
   id="path79" />&#10;				<path
   style="fill:#0f264c"
   d="m 127.049,127.019 c -11.585,-0.853 -15.733,7.474 -13.752,17.543 2.168,11.02 -1.63,15.882 -5.951,19.939 -3.368,3.163 -4.621,9.029 -1.79,16.684 2.333,6.31 -0.629,9.923 0.055,15.191 0.735,5.651 10.211,8.094 15.501,2.513 5.11,-5.391 3.909,-9.061 8.415,-10.778 7.18,-2.736 13.826,-7.224 12.07,-15.403 -1.134,-5.281 -7.709,-8.9 -5.742,-15.759 2.224,-7.752 11.19,-28.458 -8.806,-29.93 z"
   id="path80" />&#10;				<path
   style="fill:#0f264c"
   d="m 118.291,129.25 19.652,14.828 c 0.182,-2.537 2.765,-6.676 4.599,-9.208 2.833,-3.912 -12.417,-19.037 -24.251,-5.62 z"
   id="path81" />&#10;				<path
   style="fill:#ff8b7b"
   d="m 135.403,145.099 c -0.008,1.687 0.698,3.292 1.605,4.353 1.364,1.596 2.961,0.664 3.347,-1.228 0.348,-1.703 0.058,-4.586 -1.68,-5.491 -1.712,-0.891 -3.263,0.437 -3.272,2.366 z"
   id="path82" />&#10;				<path
   style="fill:#0f264c"
   d="m 112.187,221.169 -1.534,3.045 c -0.119,0.236 0.161,0.477 0.554,0.477 h 35.677 c 0.307,0 0.561,-0.15 0.58,-0.343 l 0.307,-3.045 c 0.021,-0.211 -0.245,-0.39 -0.58,-0.39 h -34.45 c -0.253,0 -0.477,0.103 -0.554,0.256 z"
   id="path83" />&#10;				<path
   style="fill:#9fc6ff"
   d="m 116.814,225.021 h -0.923 c -0.184,0 -0.324,-0.095 -0.311,-0.21 l 0.433,-3.956 c 0.013,-0.116 0.173,-0.211 0.357,-0.211 h 0.923 c 0.184,0 0.324,0.095 0.311,0.211 l -0.433,3.956 c -0.013,0.115 -0.173,0.21 -0.357,0.21 z"
   id="path84" />&#10;				<path
   style="fill:#9fc6ff"
   d="m 139.178,225.021 h -0.923 c -0.184,0 -0.324,-0.095 -0.311,-0.21 l 0.433,-3.956 c 0.013,-0.116 0.173,-0.211 0.357,-0.211 h 0.923 c 0.184,0 0.324,0.095 0.311,0.211 l -0.433,3.956 c -0.013,0.115 -0.173,0.21 -0.357,0.21 z"
   id="path85" />&#10;			</g>&#10;			<g
   id="g88">&#10;				<path
   style="fill:#ffffff"
   d="m 190.401,159.995 c -0.581,-6.973 -6.87,-12.101 -13.889,-11.171 -5.914,0.783 -10.514,5.869 -10.665,11.833 -0.111,4.388 2.024,8.185 5.271,10.446 1.844,1.284 3.456,2.87 4.877,4.611 l 2.149,2.632 2.156,-2.64 c 1.405,-1.72 2.985,-3.308 4.814,-4.567 3.51,-2.419 5.666,-6.591 5.287,-11.144 z"
   id="path86" />&#10;				<path
   style="fill:#0f264c"
   d="m 178.88,169.91 c -2.81,0.24 -5.43,-0.86 -7.23,-2.77 -0.01,-0.01 -0.01,-0.01 -0.02,-0.02 -0.44,-0.47 -0.83,-0.99 -1.17,-1.55 -0.66,-1.13 -1.09,-2.42 -1.21,-3.82 -0.41,-4.91 3.24,-9.22 8.16,-9.63 3.61,-0.3 6.91,1.59 8.55,4.58 0.09,0.15 0.17,0.3 0.24,0.46 0.46,0.95 0.75,2 0.84,3.12 0.41,4.91 -3.24,9.22 -8.16,9.63 z"
   id="path87" />&#10;				<path
   style="fill:#407bff"
   d="m 178.88,169.91 c -2.81,0.24 -5.43,-0.86 -7.23,-2.77 -0.01,-0.01 -0.01,-0.01 -0.02,-0.02 -0.23,-0.3 -0.44,-0.61 -0.63,-0.93 -0.44,-0.94 -0.72,-1.97 -0.82,-3.07 -0.4,-4.91 3.25,-9.22 8.16,-9.64 3.02,-0.25 5.82,1.04 7.62,3.22 0.09,0.15 0.17,0.3 0.24,0.46 0.46,0.95 0.75,2 0.84,3.12 0.41,4.91 -3.24,9.22 -8.16,9.63 z"
   id="path88" />&#10;			</g>&#10;		</g>&#10;	</g>&#10;</g></svg>
