<?xml version="1.0" encoding="UTF-8" standalone="no"?>
<!-- Generator: Adobe Illustrator 27.5.0, SVG Export Plug-In . SVG Version: 6.00 Build 0)  -->

<svg
   version="1.1"
   x="0px"
   y="0px"
   viewBox="0 0 199 155"
   xml:space="preserve"
   id="svg247"
   sodipodi:docname="pagos.svg"
   inkscape:version="1.3 (0e150ed6c4, 2023-07-21)"
   width="199"
   height="155"
   xmlns:inkscape="http://www.inkscape.org/namespaces/inkscape"
   xmlns:sodipodi="http://sodipodi.sourceforge.net/DTD/sodipodi-0.dtd"
   xmlns="http://www.w3.org/2000/svg"
   xmlns:svg="http://www.w3.org/2000/svg"><defs
   id="defs247" /><sodipodi:namedview
   id="namedview247"
   pagecolor="#ffffff"
   bordercolor="#000000"
   borderopacity="0.25"
   inkscape:showpageshadow="2"
   inkscape:pageopacity="0.0"
   inkscape:pagecheckerboard="true"
   inkscape:deskcolor="#d1d1d1"
   inkscape:zoom="3.284"
   inkscape:cx="108.86115"
   inkscape:cy="55.876979"
   inkscape:window-width="2560"
   inkscape:window-height="1017"
   inkscape:window-x="1912"
   inkscape:window-y="-8"
   inkscape:window-maximized="1"
   inkscape:current-layer="svg247" />&#10;&#10;<g
   id="Background_Simple"
   style="display:none">&#10;	<g
   style="display:inline"
   id="g41">&#10;		<path
   style="fill:#407bff"
   d="m 241.936,74.075 c 7.832,-1.91 16.622,-1.622 26.341,1.643 15.617,5.247 27.043,19.004 34.173,33.856 13.796,28.739 17.651,60.899 27.547,90.911 2.714,8.23 5.923,16.453 11.228,23.305 22.071,28.507 82.754,12.137 82.176,62.137 -0.163,14.13 -7.771,27.655 -18.876,36.394 -32.69,25.724 -78.654,11.019 -113.588,-0.656 -32.732,-10.939 -61.068,-12.275 -93.872,0.819 -27.802,11.097 -56.895,29.991 -88.174,24.881 -31.807,-5.197 -46.032,-36.584 -40.707,-66.182 5.677,-31.551 30.416,-54.82 58.857,-67.405 16.966,-7.508 39.284,-12.096 52.582,-25.755 6.83,-7.015 9.803,-16.855 11.975,-26.402 3.458,-15.205 5.5,-30.795 10.651,-45.513 6.453,-18.439 19.682,-37.153 39.687,-42.033 z"
   id="path40" />&#10;		<path
   style="opacity:0.9;fill:#ffffff"
   d="m 241.936,74.075 c 7.832,-1.91 16.622,-1.622 26.341,1.643 15.617,5.247 27.043,19.004 34.173,33.856 13.796,28.739 17.651,60.899 27.547,90.911 2.714,8.23 5.923,16.453 11.228,23.305 22.071,28.507 82.754,12.137 82.176,62.137 -0.163,14.13 -7.771,27.655 -18.876,36.394 -32.69,25.724 -78.654,11.019 -113.588,-0.656 -32.732,-10.939 -61.068,-12.275 -93.872,0.819 -27.802,11.097 -56.895,29.991 -88.174,24.881 -31.807,-5.197 -46.032,-36.584 -40.707,-66.182 5.677,-31.551 30.416,-54.82 58.857,-67.405 16.966,-7.508 39.284,-12.096 52.582,-25.755 6.83,-7.015 9.803,-16.855 11.975,-26.402 3.458,-15.205 5.5,-30.795 10.651,-45.513 6.453,-18.439 19.682,-37.153 39.687,-42.033 z"
   id="path41" />&#10;	</g>&#10;</g>&#10;&#10;&#10;&#10;&#10;&#10;<g
   id="Shadow_1_"
   transform="matrix(0.4708352,0,0,0.4708352,-16.9723,-48.903942)">&#10;	<ellipse
   id="_x3C_Path_x3E__217_"
   style="fill:#f5f5f5"
   cx="250"
   cy="416.23801"
   rx="193.88901"
   ry="11.323" />&#10;</g><g
   id="Post"
   transform="matrix(0.4708352,0,0,0.4708352,-16.9723,-48.903942)">&#10;	<g
   id="g75">&#10;		<g
   id="g51">&#10;			<rect
   x="153.444"
   y="109.263"
   style="fill:#407bff"
   width="8.2220001"
   height="1"
   id="rect43" />&#10;			<rect
   x="118.111"
   y="109.263"
   style="fill:#407bff"
   width="28.222"
   height="1"
   id="rect44" />&#10;			<path
   style="fill:#407bff"
   d="m 112.583,266.672 h 201.296 c 4.553,0 7.946,-3.725 7.54,-8.278 L 309.18,121.041 c -0.406,-4.553 -4.463,-8.278 -9.016,-8.278 H 98.869 c -4.553,0 -7.946,3.725 -7.54,8.278 l 12.239,137.353 c 0.405,4.553 4.463,8.278 9.015,8.278 z"
   id="path44" />&#10;			<g
   id="g50">&#10;				<g
   id="g46">&#10;					<path
   style="fill:#407bff"
   d="m 113.229,266.672 h 201.296 c 4.553,0 7.946,-3.725 7.54,-8.278 L 309.826,121.041 c -0.406,-4.553 -4.463,-8.278 -9.016,-8.278 H 99.515 c -4.553,0 -7.946,3.725 -7.54,8.278 l 12.239,137.353 c 0.405,4.553 4.462,8.278 9.015,8.278 z"
   id="path45" />&#10;					<path
   style="opacity:0.2"
   d="m 113.229,266.672 h 201.296 c 4.553,0 7.946,-3.725 7.54,-8.278 L 309.826,121.041 c -0.406,-4.553 -4.463,-8.278 -9.016,-8.278 H 99.515 c -4.553,0 -7.946,3.725 -7.54,8.278 l 12.239,137.353 c 0.405,4.553 4.462,8.278 9.015,8.278 z"
   id="path46" />&#10;				</g>&#10;				<path
   style="fill:#407bff"
   d="M 301.179,116.902 H 99.883 c -0.228,0 -0.452,0.009 -0.674,0.028 -5.138,0.424 -3.953,8.25 1.24,8.25 h 201.639 c 5.193,0 4.983,-7.827 -0.23,-8.25 -0.225,-0.019 -0.451,-0.028 -0.679,-0.028 z"
   id="path47" />&#10;				<path
   style="fill:#fafafa"
   d="m 103.468,123.438 c -1.299,0 -2.45,-1.056 -2.565,-2.354 -0.058,-0.65 0.144,-1.263 0.568,-1.727 0.422,-0.462 1.011,-0.716 1.658,-0.716 1.299,0 2.449,1.056 2.565,2.354 0.058,0.65 -0.144,1.263 -0.567,1.727 -0.422,0.462 -1.011,0.716 -1.659,0.716 z m -0.338,-3.795 c -0.363,0 -0.69,0.139 -0.92,0.391 -0.233,0.254 -0.343,0.596 -0.31,0.963 0.071,0.795 0.774,1.442 1.569,1.442 0.364,0 0.691,-0.139 0.921,-0.391 0.232,-0.254 0.342,-0.596 0.309,-0.963 v 0 c -0.071,-0.795 -0.775,-1.442 -1.569,-1.442 z"
   id="path48" />&#10;				<path
   style="fill:#fafafa"
   d="m 109.924,123.438 c -1.299,0 -2.45,-1.056 -2.565,-2.354 -0.058,-0.65 0.144,-1.263 0.568,-1.727 0.422,-0.462 1.011,-0.716 1.658,-0.716 1.299,0 2.449,1.056 2.565,2.354 v 0 c 0.058,0.65 -0.144,1.263 -0.568,1.727 -0.422,0.463 -1.011,0.716 -1.658,0.716 z m -0.339,-3.795 c -0.363,0 -0.69,0.139 -0.92,0.391 -0.233,0.254 -0.343,0.596 -0.31,0.963 0.071,0.795 0.774,1.442 1.569,1.442 0.363,0 0.691,-0.139 0.921,-0.391 0.232,-0.254 0.342,-0.596 0.31,-0.963 v 0 c -0.071,-0.795 -0.775,-1.442 -1.57,-1.442 z"
   id="path49" />&#10;				<path
   style="fill:#fafafa"
   d="m 116.379,123.438 c -1.298,0 -2.449,-1.056 -2.565,-2.354 -0.058,-0.65 0.144,-1.263 0.568,-1.727 0.422,-0.461 1.012,-0.716 1.659,-0.716 1.298,0 2.449,1.056 2.565,2.354 v 0 c 0.058,0.65 -0.144,1.263 -0.568,1.727 -0.422,0.463 -1.012,0.716 -1.659,0.716 z m -0.338,-3.795 c -0.363,0 -0.69,0.139 -0.921,0.391 -0.232,0.254 -0.342,0.596 -0.31,0.963 0.071,0.795 0.775,1.442 1.569,1.442 0.364,0 0.691,-0.139 0.921,-0.391 0.232,-0.254 0.342,-0.596 0.31,-0.963 v 0 c -0.071,-0.795 -0.775,-1.442 -1.569,-1.442 z"
   id="path50" />&#10;			</g>&#10;			<path
   style="fill:#ffffff"
   d="m 116.357,252.963 h 192.596 c 1.657,0 2.881,-1.344 2.734,-3.001 L 301.622,137.007 c -0.148,-1.657 -1.611,-3.001 -3.268,-3.001 H 105.757 c -1.657,0 -2.881,1.344 -2.734,3.001 l 10.065,112.955 c 0.148,1.658 1.612,3.001 3.269,3.001 z"
   id="path51" />&#10;		</g>&#10;		<g
   id="g74">&#10;			<path
   style="fill:#263238"
   d="m 183.251,342.798 c 2.684,8.192 -0.961,14.834 -9.161,14.833 45.426,0 90.852,0 136.278,0 8.198,0 11.846,-6.642 9.161,-14.833 -45.426,10e-4 -90.852,10e-4 -136.278,0 z"
   id="path52" />&#10;			<g
   id="g73">&#10;				<g
   id="g54">&#10;					<path
   style="fill:#407bff"
   d="m 124.887,142.354 c 29.208,66.815 6.625,133.63 28.697,200.444 0,0 0,0 0,0 2.683,8.192 12.321,14.834 20.506,14.833 8.199,0 11.845,-6.642 9.161,-14.833 40.482,0 80.963,0 121.444,0 -22.071,-66.815 0.512,-133.63 -28.697,-200.444 -50.37,0 -100.74,0 -151.111,0 z"
   id="path53" />&#10;					<path
   style="opacity:0.8;fill:#ffffff"
   d="m 124.887,142.354 c 29.208,66.815 6.625,133.63 28.697,200.444 0,0 0,0 0,0 2.683,8.192 12.321,14.834 20.506,14.833 8.199,0 11.845,-6.642 9.161,-14.833 40.482,0 80.963,0 121.444,0 -22.071,-66.815 0.512,-133.63 -28.697,-200.444 -50.37,0 -100.74,0 -151.111,0 z"
   id="path54" />&#10;				</g>&#10;				<g
   id="g72">&#10;					<path
   style="fill:#407bff"
   d="m 189.334,193.021 c -12.25,0 -24.5,0 -36.75,0 -1.685,-12.25 -4.29,-24.5 -8.413,-36.75 12.25,0 24.5,0 36.75,0 4.122,12.25 6.728,24.5 8.413,36.75 z"
   id="path55" />&#10;					<path
   style="opacity:0.6;fill:#407bff"
   d="m 288.321,332.577 c -27.333,0 -54.667,0 -82,0 -3.556,-13.373 -5.521,-26.745 -6.666,-40.118 27.333,0 54.666,0 82,0 1.146,13.372 3.11,26.745 6.666,40.118 z"
   id="path56" />&#10;					<g
   style="opacity:0.8"
   id="g59">&#10;						<path
   style="fill:#407bff"
   d="m 269.35,160.352 c -27.333,0 -54.667,0 -82,0 -0.422,-1.361 -0.861,-2.721 -1.318,-4.081 27.333,0 54.666,0 82,0 0.457,1.36 0.897,2.721 1.318,4.081 z"
   id="path57" />&#10;						<path
   style="fill:#407bff"
   d="m 272.288,170.967 c -27.333,0 -54.667,0 -82,0 -0.334,-1.361 -0.683,-2.721 -1.049,-4.081 27.333,0 54.667,0 82,0 0.366,1.36 0.715,2.721 1.049,4.081 z"
   id="path58" />&#10;						<path
   style="fill:#407bff"
   d="m 256.142,181.582 c -21.185,0 -42.371,0 -63.556,0 -0.257,-1.36 -0.528,-2.721 -0.813,-4.081 21.185,0 42.37,0 63.556,0 0.285,1.36 0.555,2.721 0.813,4.081 z"
   id="path59" />&#10;					</g>&#10;					<g
   style="opacity:0.2"
   id="g71">&#10;						<path
   style="fill:#407bff"
   d="m 277.934,206.262 c -27.334,0 -54.667,0 -82,0 -0.081,-0.896 -0.164,-1.793 -0.253,-2.689 27.334,0 54.667,0 82,0 0.089,0.896 0.172,1.792 0.253,2.689 z"
   id="path60" />&#10;						<path
   style="fill:#407bff"
   d="m 278.488,213.255 c -27.333,0 -54.667,0 -82,0 -0.062,-0.896 -0.128,-1.793 -0.196,-2.689 27.333,0 54.667,0 82,0 0.068,0.897 0.134,1.793 0.196,2.689 z"
   id="path61" />&#10;						<path
   style="fill:#407bff"
   d="m 256.135,220.249 c -19.74,0 -39.481,0 -59.222,0 -0.047,-0.896 -0.097,-1.793 -0.15,-2.689 19.741,0 39.481,0 59.222,0 0.053,0.897 0.103,1.793 0.15,2.689 z"
   id="path62" />&#10;						<path
   style="fill:#407bff"
   d="m 279.233,227.244 c -27.333,0 -54.667,0 -82,0 -0.035,-0.896 -0.073,-1.793 -0.112,-2.689 27.333,0 54.667,0 82,0 0.039,0.896 0.077,1.792 0.112,2.689 z"
   id="path63" />&#10;						<path
   style="fill:#407bff"
   d="m 279.474,234.238 c -27.333,0 -54.667,0 -82,0 -0.027,-0.896 -0.055,-1.793 -0.084,-2.689 27.333,0 54.667,0 82,0 0.029,0.896 0.057,1.792 0.084,2.689 z"
   id="path64" />&#10;						<path
   style="fill:#407bff"
   d="m 216.381,241.232 c -6.241,0 -12.481,0 -18.722,0 -0.021,-0.897 -0.043,-1.793 -0.066,-2.689 6.241,0 12.481,0 18.722,0 0.023,0.896 0.045,1.792 0.066,2.689 z"
   id="path65" />&#10;						<path
   style="fill:#407bff"
   d="m 279.813,248.226 c -27.333,0 -54.667,0 -82,0 -0.019,-0.896 -0.037,-1.793 -0.057,-2.689 27.333,0 54.667,0 82,0 0.019,0.896 0.038,1.792 0.057,2.689 z"
   id="path66" />&#10;						<path
   style="fill:#407bff"
   d="m 279.961,255.22 c -27.333,0 -54.667,0 -82,0 -0.02,-0.896 -0.039,-1.793 -0.058,-2.689 27.333,0 54.667,0 82,0 0.019,0.896 0.038,1.792 0.058,2.689 z"
   id="path67" />&#10;						<path
   style="fill:#407bff"
   d="m 280.127,262.214 c -27.333,0 -54.667,0 -82,0 -0.023,-0.897 -0.046,-1.793 -0.068,-2.689 27.333,0 54.667,0 82,0 0.022,0.896 0.045,1.792 0.068,2.689 z"
   id="path68" />&#10;						<path
   style="fill:#407bff"
   d="m 280.336,269.208 c -27.333,0 -54.667,0 -82,0 -0.03,-0.896 -0.06,-1.793 -0.087,-2.689 27.333,0 54.667,0 82,0 0.028,0.896 0.057,1.792 0.087,2.689 z"
   id="path69" />&#10;						<path
   style="fill:#407bff"
   d="m 280.613,276.202 c -27.333,0 -54.667,0 -82,0 -0.041,-0.896 -0.079,-1.793 -0.116,-2.689 27.333,0 54.667,0 82,0 0.037,0.896 0.075,1.792 0.116,2.689 z"
   id="path70" />&#10;						<path
   style="fill:#407bff"
   d="m 233.593,283.196 c -11.537,0 -23.074,0 -34.611,0 -0.054,-0.896 -0.106,-1.793 -0.154,-2.689 11.537,0 23.074,0 34.611,0 0.049,0.896 0.1,1.792 0.154,2.689 z"
   id="path71" />&#10;					</g>&#10;				</g>&#10;			</g>&#10;		</g>&#10;	</g>&#10;</g><g
   id="Character_1_"
   transform="matrix(0.4708352,0,0,0.4708352,-16.9723,-48.903942)">&#10;	<g
   id="g103">&#10;		<path
   style="fill:#ff8b7b"
   d="m 368.31,162.916 c 0.898,1.097 1.66,2.072 2.431,3.135 0.768,1.043 1.518,2.092 2.253,3.155 1.464,2.129 2.86,4.305 4.168,6.554 1.297,2.258 2.569,4.535 3.678,6.943 1.134,2.39 2.183,4.846 3.018,7.462 l 0.321,0.974 0.08,0.243 0.123,0.42 c 0.092,0.317 0.152,0.618 0.207,0.922 0.213,1.214 0.176,2.282 0.069,3.245 -0.244,1.92 -0.797,3.438 -1.387,4.837 -1.196,2.773 -2.713,5.03 -4.268,7.194 -3.183,4.277 -6.685,7.944 -10.601,11.388 l -4.069,-3.724 c 2.68,-3.967 5.344,-8.119 7.515,-12.201 1.09,-2.028 2.028,-4.117 2.604,-5.984 0.279,-0.921 0.429,-1.808 0.409,-2.363 -0.003,-0.27 -0.045,-0.457 -0.081,-0.46 -0.009,0 -0.011,-0.003 -0.017,0.019 -0.01,-0.012 0.018,0.059 -0.016,-0.023 l -0.082,-0.193 -0.328,-0.77 c -1.739,-4.107 -4.096,-8.192 -6.616,-12.175 -1.266,-1.995 -2.605,-3.961 -3.956,-5.918 -1.33,-1.94 -2.808,-3.923 -4.134,-5.701 z"
   id="path75" />&#10;		<path
   style="fill:#ff8b7b"
   d="m 366.846,214.41 -6.698,1.943 5.338,6.245 c 0,0 4.515,-2.138 4.059,-5.667 z"
   id="path76" />&#10;		<polygon
   style="fill:#ff8b7b"
   points="365.486,222.598 360.148,216.354 355.345,221.724 361.419,226.56 "
   id="polygon76" />&#10;		<path
   style="fill:#263238"
   d="m 331.33,130.693 c 0,0.592 -0.314,1.073 -0.701,1.073 -0.387,0 -0.701,-0.48 -0.701,-1.073 0,-0.593 0.314,-1.073 0.701,-1.073 0.387,0 0.701,0.481 0.701,1.073 z"
   id="path77" />&#10;		<path
   style="fill:#a02724"
   d="m 331.071,131.766 c 0,0 -1.347,3.418 -2.831,5.068 1.048,0.979 2.831,0.531 2.831,0.531 z"
   id="path78" />&#10;		<path
   style="fill:#263238"
   d="m 333.43,127.41 c -0.071,0 -0.142,-0.021 -0.203,-0.066 -1.259,-0.907 -2.46,-0.459 -2.472,-0.454 -0.179,0.069 -0.381,-0.02 -0.45,-0.199 -0.069,-0.179 0.02,-0.381 0.199,-0.45 0.063,-0.024 1.568,-0.587 3.13,0.539 0.156,0.112 0.191,0.33 0.079,0.486 -0.068,0.094 -0.175,0.144 -0.283,0.144 z"
   id="path79" />&#10;		<path
   style="fill:#ff8b7b"
   d="m 350.455,137.525 c -1.054,5.374 -2.105,15.222 1.655,18.808 0,0 -1.469,5.452 -11.455,5.452 -10.981,0 -5.248,-5.451 -5.248,-5.451 5.993,-1.431 5.838,-5.878 4.794,-10.053 z"
   id="path80" />&#10;		<path
   style="fill:#407bff"
   d="m 353.548,158.204 c 0.787,-1.726 1.654,-3.701 -0.139,-4.319 -1.972,-0.681 -12.768,-1.375 -16.49,-0.097 -3.722,1.278 -2.667,4.778 -2.667,4.778 z"
   id="path81" />&#10;		<path
   style="fill:#407bff"
   d="m 388.264,395.021 c -0.574,0.487 -1.205,0.872 -1.66,0.772 -0.191,-0.042 -0.438,-0.186 -0.529,-0.634 -0.048,-0.236 0.004,-0.458 0.154,-0.663 0.655,-0.888 3.1,-1.139 3.204,-1.15 0.068,-0.007 0.134,0.027 0.168,0.087 0.034,0.059 0.03,0.134 -0.01,0.189 -0.228,0.314 -0.749,0.909 -1.327,1.399 z m -1.606,-0.473 c -0.059,0.05 -0.109,0.102 -0.149,0.156 -0.091,0.123 -0.121,0.25 -0.093,0.387 0.065,0.32 0.214,0.352 0.263,0.363 0.507,0.11 1.655,-0.854 2.372,-1.706 -0.735,0.112 -1.884,0.368 -2.393,0.8 z"
   id="path82" />&#10;		<path
   style="fill:#407bff"
   d="m 389.564,393.653 c -0.022,0.018 -0.048,0.032 -0.077,0.038 -0.847,0.177 -3.009,-0.099 -3.42,-0.824 -0.074,-0.132 -0.157,-0.398 0.127,-0.706 0.184,-0.2 0.423,-0.304 0.709,-0.309 1.102,-0.021 2.608,1.482 2.671,1.546 0.045,0.045 0.062,0.111 0.043,0.173 -0.009,0.032 -0.028,0.061 -0.053,0.082 z m -3.058,-1.311 c -0.02,0.017 -0.039,0.035 -0.057,0.055 -0.154,0.167 -0.102,0.259 -0.08,0.299 0.243,0.428 1.744,0.75 2.691,0.698 -0.466,-0.417 -1.445,-1.207 -2.151,-1.193 -0.161,0.002 -0.294,0.049 -0.403,0.141 z"
   id="path83" />&#10;		<path
   style="fill:#407bff"
   d="m 333.178,409.114 c -0.942,0 -1.853,-0.13 -2.158,-0.553 -0.107,-0.148 -0.191,-0.401 0.014,-0.761 0.115,-0.202 0.301,-0.339 0.552,-0.407 1.222,-0.333 3.79,1.131 3.899,1.193 0.063,0.036 0.097,0.108 0.085,0.179 -0.012,0.072 -0.066,0.128 -0.138,0.143 -0.469,0.093 -1.375,0.206 -2.254,0.206 z m -1.164,-1.425 c -0.122,0 -0.236,0.012 -0.337,0.04 -0.16,0.044 -0.272,0.123 -0.34,0.244 -0.123,0.216 -0.079,0.323 -0.034,0.385 0.342,0.475 2.199,0.485 3.565,0.293 -0.682,-0.351 -1.996,-0.962 -2.854,-0.962 z"
   id="path84" />&#10;		<path
   style="fill:#407bff"
   d="m 335.398,408.911 c -0.024,0 -0.048,-0.005 -0.071,-0.015 -0.887,-0.398 -2.643,-1.986 -2.509,-2.817 0.031,-0.195 0.17,-0.438 0.648,-0.486 0.355,-0.036 0.68,0.064 0.965,0.298 0.935,0.767 1.133,2.746 1.14,2.83 0.006,0.062 -0.021,0.122 -0.072,0.158 -0.029,0.021 -0.065,0.032 -0.101,0.032 z m -1.792,-2.978 c -0.034,0 -0.069,0.002 -0.105,0.005 -0.313,0.032 -0.333,0.155 -0.34,0.196 -0.081,0.498 1.113,1.747 2.018,2.291 -0.094,-0.578 -0.356,-1.762 -0.97,-2.265 -0.184,-0.152 -0.383,-0.227 -0.603,-0.227 z"
   id="path85" />&#10;		<polygon
   style="fill:#ff8b7b"
   points="335.398,391.724 342.744,391.724 343.476,408.737 336.13,408.737 "
   id="polygon85" />&#10;		<polygon
   style="fill:#ff8b7b"
   points="381.998,377.837 389.106,375.981 396.978,391.508 389.871,393.365 "
   id="polygon86" />&#10;		<path
   style="fill:#263238"
   d="m 389.318,392.518 6.293,-5.34 c 0.229,-0.194 0.562,-0.203 0.802,-0.022 l 5.331,4.04 c 0.553,0.419 0.562,1.252 0.025,1.692 -2.229,1.827 -3.406,2.603 -6.173,4.952 -1.702,1.445 -6.834,6.406 -9.185,8.401 -2.299,1.951 -4.631,-0.069 -3.847,-1.096 3.515,-4.606 5.809,-9.095 6.137,-11.51 0.059,-0.437 0.282,-0.833 0.617,-1.117 z"
   id="path86" />&#10;		<path
   style="fill:#263238"
   d="m 336.178,407.886 h 8.023 c 0.3,0 0.56,0.209 0.625,0.502 l 1.451,6.53 c 0.15,0.677 -0.364,1.319 -1.057,1.307 -2.894,-0.049 -7.076,-0.219 -10.713,-0.219 -4.253,0 -6.111,0.232 -11.099,0.232 -3.016,0 -3.853,-3.049 -2.591,-3.325 5.747,-1.257 8.625,-1.392 13.591,-4.454 0.54,-0.333 1.136,-0.573 1.77,-0.573 z"
   id="path87" />&#10;		<path
   style="fill:#ff8b7b"
   d="m 325.931,172.646 c -2.445,4.326 -5.001,8.417 -7.745,12.492 -2.748,4.053 -5.639,8.033 -8.818,11.894 -0.389,0.484 -0.808,0.961 -1.217,1.439 l -0.615,0.717 -0.307,0.358 -0.515,0.546 c -1.405,1.423 -2.813,2.273 -4.164,2.959 -2.698,1.345 -5.261,2.06 -7.806,2.634 -5.091,1.087 -9.999,1.458 -15.069,1.354 l -0.55,-5.488 c 4.459,-1.201 9.034,-2.535 13.158,-4.137 2.041,-0.814 4.027,-1.725 5.521,-2.728 0.73,-0.498 1.319,-1.032 1.546,-1.374 l 0.845,-1.16 c 0.335,-0.463 0.675,-0.915 1.001,-1.394 2.652,-3.762 5.204,-7.695 7.697,-11.681 2.499,-3.963 4.99,-8.037 7.391,-11.995 z"
   id="path88" />&#10;		<path
   style="fill:#263238"
   d="m 365.872,157.994 c 6.885,1.579 14.782,20.351 14.782,20.351 l -13.829,9.478 c 0,0 -5.239,-7.329 -9.134,-15.529 -4.081,-8.592 1.141,-15.914 8.181,-14.3 z"
   id="path89" />&#10;		<path
   style="opacity:0.3"
   d="m 360.938,169.964 6.54,17.409 -0.65,0.45 c 0,0 -2.83,-3.97 -5.89,-9.33 z"
   id="path90" />&#10;		<path
   style="fill:#263238"
   d="m 324.716,158.372 c 0,0 -7.819,8.832 -0.435,63.497 11.839,0 33.532,0 39.293,0 0.271,-6.032 -3.519,-35.456 2.298,-63.876 0,0 -6.735,-1.352 -13.154,-1.661 -5.021,-0.242 -12.29,-0.402 -16.703,0.001 -5.819,0.531 -11.299,2.039 -11.299,2.039 z"
   id="path91" />&#10;		<path
   style="opacity:0.3"
   d="m 329.078,174.176 c -0.13,0.16 -0.99,9.03 -7.76,16.82 -0.16,-3.52 -0.22,-6.68 -0.21,-9.51 z"
   id="path92" />&#10;		<path
   style="fill:#263238"
   d="m 332.466,164.328 c 0.969,6.956 -12.737,24.726 -12.737,24.726 l -13.772,-9.479 c 0,0 3.818,-9.793 10.251,-16.21 7.344,-7.327 15.204,-6.608 16.258,0.963 z"
   id="path93" />&#10;		<path
   style="fill:#ff8b7b"
   d="m 279.567,201.489 -7.695,-0.931 0.212,9.382 c 0,0 6.061,0.52 9.356,-3.694 z"
   id="path94" />&#10;		<polygon
   style="fill:#ff8b7b"
   points="272.084,209.939 271.872,200.558 264.189,202.846 267.185,210.439 "
   id="polygon94" />&#10;		<g
   id="g96">&#10;			<polygon
   style="opacity:0.2"
   points="343.159,401.294 342.749,391.729 335.4,391.729 335.81,401.294 "
   id="polygon95" />&#10;			<polygon
   style="opacity:0.2"
   points="386.361,386.437 393.171,383.987 389.11,375.985 381.999,377.842 "
   id="polygon96" />&#10;		</g>&#10;		<path
   style="fill:#ff8b7b"
   d="m 351.094,129.437 c -0.447,7.277 -0.339,11.559 -4.014,15.294 -5.529,5.618 -14.511,2.286 -16.248,-4.978 -1.563,-6.538 -0.569,-17.341 6.554,-20.237 7.018,-2.853 14.155,2.644 13.708,9.921 z"
   id="path96" />&#10;		<path
   style="fill:#263238"
   d="m 337.955,132.833 c -3.84,-0.778 -2.445,-5.398 -1.5,-6.755 -1.278,-0.245 -1.667,-2.134 -0.722,-2.968 -1.611,0 -5.681,-0.278 -5.452,-5.055 0.229,-4.778 3.229,-4.222 4.341,-1.5 0.667,-2.5 3.722,-5.445 7.889,-4.389 4.167,1.055 0.499,3.167 0.499,3.167 0,0 9.1,-1.833 7.834,2.833 3.936,0.222 9.667,3.859 6.778,7.013 1.714,3.376 1.444,5.686 -0.722,6.586 -0.747,4.067 -5.064,11.846 -8.342,11.846 -2.667,0.001 -10.381,-3.667 -10.603,-10.778 z"
   id="path97" />&#10;		<path
   style="fill:#ff8b7b"
   d="m 341.23,131.416 c -0.317,1.883 -1.388,3.572 -2.572,4.625 -1.781,1.583 -3.325,0.313 -3.378,-1.854 -0.048,-1.951 0.822,-5.125 2.872,-5.883 2.021,-0.748 3.44,0.958 3.078,3.112 z"
   id="path98" />&#10;		<path
   style="fill:#407bff"
   d="m 338.219,221.87 c 0,0 8.337,56.142 12.914,77.175 5.012,23.033 30.517,84.658 30.517,84.658 l 12.798,-4.127 c 0,0 -18.416,-55.638 -21.276,-78.443 -3.104,-24.75 -9.599,-79.263 -9.599,-79.263 z"
   id="path99" />&#10;		<path
   style="fill:#263238"
   d="m 378.931,380.993 c -0.055,0.018 2.936,4.473 2.936,4.473 l 14.379,-4.735 -1.706,-4.293 z"
   id="path100" />&#10;		<path
   style="opacity:0.3"
   d="m 343.488,241.873 c 9.64,1.89 8.62,37.84 7.46,56.33 -2.78,-13.07 -6.85,-38.22 -9.63,-56.07 0.64,-0.32 1.36,-0.42 2.17,-0.26 z"
   id="path101" />&#10;		<path
   style="fill:#407bff"
   d="m 324.28,221.87 c 0,0 -3.481,54.927 -2.682,77.33 0.831,23.302 11.44,99.601 11.44,99.601 h 12.445 c 0,0 -2.013,-74.937 -1.459,-97.822 0.604,-24.949 6.086,-79.108 6.086,-79.108 h -25.83 z"
   id="path102" />&#10;		<path
   style="fill:#263238"
   d="m 330.643,393.843 c -0.058,0 0.702,5.167 0.702,5.167 h 15.138 l 0.409,-4.611 z"
   id="path103" />&#10;	</g>&#10;</g></svg>
