<?xml version="1.0" encoding="UTF-8" standalone="no"?>
<!-- Generator: Adobe Illustrator 27.5.0, SVG Export Plug-In . SVG Version: 6.00 Build 0)  -->

<svg
   version="1.1"
   x="0px"
   y="0px"
   viewBox="0 0 199 155"
   xml:space="preserve"
   id="svg247"
   sodipodi:docname="asistencia.svg"
   inkscape:version="1.3 (0e150ed6c4, 2023-07-21)"
   width="199"
   height="155"
   xmlns:inkscape="http://www.inkscape.org/namespaces/inkscape"
   xmlns:sodipodi="http://sodipodi.sourceforge.net/DTD/sodipodi-0.dtd"
   xmlns="http://www.w3.org/2000/svg"
   xmlns:svg="http://www.w3.org/2000/svg"><defs
   id="defs247" /><sodipodi:namedview
   id="namedview247"
   pagecolor="#ffffff"
   bordercolor="#000000"
   borderopacity="0.25"
   inkscape:showpageshadow="2"
   inkscape:pageopacity="0.0"
   inkscape:pagecheckerboard="true"
   inkscape:deskcolor="#d1d1d1"
   inkscape:zoom="2.3221387"
   inkscape:cx="200.03112"
   inkscape:cy="57.059469"
   inkscape:window-width="2560"
   inkscape:window-height="1017"
   inkscape:window-x="1912"
   inkscape:window-y="-8"
   inkscape:window-maximized="1"
   inkscape:current-layer="svg247" />&#10;&#10;<g
   id="Background_Simple"
   style="display:none">&#10;	<g
   style="display:inline"
   id="g41">&#10;		<path
   style="fill:#407bff"
   d="m 241.936,74.075 c 7.832,-1.91 16.622,-1.622 26.341,1.643 15.617,5.247 27.043,19.004 34.173,33.856 13.796,28.739 17.651,60.899 27.547,90.911 2.714,8.23 5.923,16.453 11.228,23.305 22.071,28.507 82.754,12.137 82.176,62.137 -0.163,14.13 -7.771,27.655 -18.876,36.394 -32.69,25.724 -78.654,11.019 -113.588,-0.656 -32.732,-10.939 -61.068,-12.275 -93.872,0.819 -27.802,11.097 -56.895,29.991 -88.174,24.881 -31.807,-5.197 -46.032,-36.584 -40.707,-66.182 5.677,-31.551 30.416,-54.82 58.857,-67.405 16.966,-7.508 39.284,-12.096 52.582,-25.755 6.83,-7.015 9.803,-16.855 11.975,-26.402 3.458,-15.205 5.5,-30.795 10.651,-45.513 6.453,-18.439 19.682,-37.153 39.687,-42.033 z"
   id="path40" />&#10;		<path
   style="opacity:0.9;fill:#ffffff"
   d="m 241.936,74.075 c 7.832,-1.91 16.622,-1.622 26.341,1.643 15.617,5.247 27.043,19.004 34.173,33.856 13.796,28.739 17.651,60.899 27.547,90.911 2.714,8.23 5.923,16.453 11.228,23.305 22.071,28.507 82.754,12.137 82.176,62.137 -0.163,14.13 -7.771,27.655 -18.876,36.394 -32.69,25.724 -78.654,11.019 -113.588,-0.656 -32.732,-10.939 -61.068,-12.275 -93.872,0.819 -27.802,11.097 -56.895,29.991 -88.174,24.881 -31.807,-5.197 -46.032,-36.584 -40.707,-66.182 5.677,-31.551 30.416,-54.82 58.857,-67.405 16.966,-7.508 39.284,-12.096 52.582,-25.755 6.83,-7.015 9.803,-16.855 11.975,-26.402 3.458,-15.205 5.5,-30.795 10.651,-45.513 6.453,-18.439 19.682,-37.153 39.687,-42.033 z"
   id="path41" />&#10;	</g>&#10;</g>&#10;&#10;&#10;&#10;&#10;&#10;<g
   id="Background_complete"
   transform="matrix(0.44639794,0,0,0.44639794,-43.344099,-19.023253)">&#10;	<path
   style="fill:#e0e0e0"
   d="m 291.698,185.636 c -4.454,6.782 -7.45,14.233 -9.045,21.918 l -12.239,1.153 -10e-4,23.703 12.241,1.153 c 1.594,7.683 4.591,15.134 9.045,21.918 l -7.818,9.442 16.761,16.761 9.442,-7.817 c 6.784,4.454 14.234,7.45 21.917,9.044 l 1.152,12.241 23.703,-10e-4 1.153,-12.238 c 7.684,-1.596 15.135,-4.592 21.919,-9.045 l 9.442,7.817 16.761,-16.761 -7.817,-9.443 c 4.453,-6.784 7.449,-14.234 9.044,-21.917 l 12.238,-1.153 0.002,-23.703 -12.239,-1.154 c -1.596,-7.683 -4.592,-15.133 -9.046,-21.916 l 7.817,-9.443 -16.761,-16.76 -9.442,7.817 c -6.785,-4.454 -14.235,-7.451 -21.917,-9.046 l -1.153,-12.24 -23.703,0.001 -1.152,12.239 c -7.684,1.596 -15.134,4.59 -21.917,9.045 l -9.443,-7.818 -16.761,16.761 z m 75.997,12.232 c 12.529,12.531 12.53,32.848 0,45.379 -12.532,12.532 -32.85,12.531 -45.38,10e-4 -12.531,-12.531 -12.53,-32.848 10e-4,-45.38 12.531,-12.529 32.848,-12.53 45.379,0 z"
   id="path1" />&#10;	<path
   style="fill:#e0e0e0"
   d="m 183.555,144.195 c -2.507,3.817 -4.193,8.01 -5.091,12.335 l -6.888,0.649 -0.001,13.34 6.889,0.649 c 0.897,4.324 2.584,8.517 5.091,12.336 l -4.4,5.314 9.433,9.433 5.314,-4.399 c 3.818,2.507 8.011,4.193 12.335,5.09 l 0.648,6.889 13.34,-10e-4 0.649,-6.888 c 4.325,-0.898 8.518,-2.584 12.336,-5.091 l 5.314,4.399 9.433,-9.433 -4.399,-5.314 c 2.506,-3.818 4.192,-8.011 5.09,-12.335 l 6.888,-0.649 0.001,-13.34 -6.888,-0.649 c -0.898,-4.324 -2.585,-8.517 -5.091,-12.334 l 4.399,-5.314 -9.433,-9.433 -5.314,4.399 c -3.818,-2.507 -8.011,-4.194 -12.335,-5.091 l -0.649,-6.889 -13.34,0.001 -0.648,6.889 c -4.324,0.898 -8.517,2.583 -12.335,5.09 l -5.315,-4.4 -9.433,9.433 z m 42.772,6.884 c 7.052,7.052 7.052,18.487 0,25.54 -7.053,7.053 -18.488,7.052 -25.54,0 -7.053,-7.053 -7.052,-18.487 0,-25.54 7.053,-7.051 18.487,-7.052 25.54,0 z"
   id="path2" />&#10;	<path
   style="fill:#e0e0e0"
   d="m 219.544,86.221 c -1.253,1.908 -2.095,4.004 -2.544,6.165 l -3.443,0.324 v 6.667 L 217,99.701 c 0.449,2.161 1.291,4.257 2.544,6.165 l -2.199,2.656 4.715,4.714 2.656,-2.199 c 1.908,1.253 4.004,2.096 6.165,2.544 l 0.324,3.443 h 6.667 l 0.324,-3.442 c 2.161,-0.449 4.257,-1.292 6.165,-2.544 l 2.656,2.199 4.715,-4.714 -2.199,-2.656 c 1.253,-1.908 2.095,-4.004 2.544,-6.165 l 3.442,-0.324 0.001,-6.667 -3.443,-0.325 c -0.449,-2.161 -1.292,-4.257 -2.544,-6.165 l 2.199,-2.656 -4.714,-4.714 -2.656,2.199 c -1.908,-1.253 -4.004,-2.096 -6.165,-2.545 l -0.324,-3.443 h -6.667 l -0.324,3.443 c -2.161,0.449 -4.257,1.291 -6.165,2.544 l -2.656,-2.199 -4.715,4.715 z m 21.377,3.441 c 3.524,3.525 3.525,9.24 0,12.764 -3.525,3.525 -9.24,3.525 -12.764,0 -3.525,-3.525 -3.525,-9.239 0,-12.764 3.524,-3.525 9.238,-3.525 12.764,0 z"
   id="path3" />&#10;	<g
   id="g8">&#10;		<g
   id="g4">&#10;			<path
   style="fill:#e6e6e6"
   d="m 165.565,282.327 -43.025,8.465 c -1.903,0.374 -3.749,-0.865 -4.124,-2.768 l -11.262,-57.24 c -0.374,-1.903 0.865,-3.749 2.768,-4.123 l 43.025,-8.465 c 1.903,-0.374 3.749,0.865 4.124,2.768 l 11.262,57.24 c 0.374,1.902 -0.865,3.748 -2.768,4.123 z"
   id="path4" />&#10;		</g>&#10;		<path
   style="fill:#f0f0f0"
   d="m 149.002,237.904 -27.962,5.501 c -0.962,0.189 -1.895,-0.437 -2.084,-1.399 l -0.153,-0.776 c -0.189,-0.962 0.437,-1.895 1.399,-2.084 l 27.962,-5.501 c 0.962,-0.189 1.895,0.437 2.084,1.398 l 0.153,0.777 c 0.188,0.962 -0.438,1.895 -1.399,2.084 z"
   id="path5" />&#10;		<path
   style="fill:#f0f0f0"
   d="m 151.145,248.799 -27.962,5.502 c -0.962,0.189 -1.894,-0.437 -2.084,-1.399 l -0.153,-0.777 c -0.189,-0.962 0.437,-1.894 1.399,-2.084 l 27.962,-5.502 c 0.962,-0.189 1.895,0.437 2.084,1.399 l 0.153,0.777 c 0.189,0.962 -0.437,1.895 -1.399,2.084 z"
   id="path6" />&#10;		<path
   style="fill:#f0f0f0"
   d="m 153.289,259.694 -27.962,5.502 c -0.962,0.189 -1.895,-0.437 -2.084,-1.399 l -0.153,-0.777 c -0.189,-0.962 0.437,-1.895 1.399,-2.084 l 27.962,-5.502 c 0.962,-0.189 1.895,0.437 2.084,1.399 l 0.153,0.776 c 0.189,0.963 -0.437,1.896 -1.399,2.085 z"
   id="path7" />&#10;		<path
   style="fill:#f0f0f0"
   d="m 140.558,273.516 -13.087,2.575 c -0.962,0.189 -1.894,-0.437 -2.084,-1.398 l -0.153,-0.777 c -0.189,-0.962 0.437,-1.895 1.399,-2.084 l 13.087,-2.575 c 0.962,-0.189 1.895,0.437 2.084,1.399 l 0.153,0.777 c 0.188,0.961 -0.438,1.894 -1.399,2.083 z"
   id="path8" />&#10;	</g>&#10;	<g
   id="g13">&#10;		<g
   id="g9">&#10;			<path
   style="fill:#e6e6e6"
   d="m 207.447,339.934 -27.23,-3.251 c -1.926,-0.23 -3.301,-1.977 -3.071,-3.903 l 4.414,-36.971 c 0.23,-1.926 1.977,-3.3 3.903,-3.071 l 27.23,3.251 c 1.926,0.23 3.301,1.977 3.071,3.903 l -4.414,36.971 c -0.23,1.926 -1.977,3.301 -3.903,3.071 z"
   id="path9" />&#10;		</g>&#10;		<path
   style="fill:#f0f0f0"
   d="m 206.902,307.966 -18.628,-2.224 c -0.806,-0.096 -1.381,-0.827 -1.285,-1.633 v 0 c 0.096,-0.806 0.827,-1.381 1.633,-1.285 l 18.628,2.224 c 0.806,0.096 1.381,0.827 1.285,1.633 v 0 c -0.096,0.806 -0.828,1.381 -1.633,1.285 z"
   id="path10" />&#10;		<path
   style="fill:#f0f0f0"
   d="m 206.01,315.431 -18.628,-2.224 c -0.806,-0.096 -1.381,-0.828 -1.285,-1.633 v 0 c 0.096,-0.806 0.827,-1.381 1.633,-1.285 l 18.628,2.224 c 0.806,0.096 1.381,0.827 1.285,1.633 v 0 c -0.096,0.806 -0.827,1.382 -1.633,1.285 z"
   id="path11" />&#10;		<path
   style="fill:#f0f0f0"
   d="m 205.119,322.897 -18.628,-2.224 c -0.806,-0.096 -1.381,-0.827 -1.285,-1.633 v 0 c 0.096,-0.806 0.827,-1.381 1.633,-1.285 l 18.628,2.224 c 0.806,0.096 1.381,0.827 1.285,1.633 v 0 c -0.096,0.806 -0.827,1.381 -1.633,1.285 z"
   id="path12" />&#10;		<path
   style="fill:#f0f0f0"
   d="m 194.035,329.146 -8.436,-1.007 c -0.806,-0.096 -1.381,-0.827 -1.285,-1.633 v 0 c 0.096,-0.806 0.827,-1.381 1.633,-1.285 l 8.436,1.007 c 0.806,0.096 1.381,0.828 1.285,1.633 v 0 c -0.096,0.806 -0.827,1.381 -1.633,1.285 z"
   id="path13" />&#10;	</g>&#10;	<g
   id="g18">&#10;		<g
   id="g14">&#10;			<path
   style="fill:#e6e6e6"
   d="M 658.121,225.114 625.926,212.9 c -1.813,-0.688 -2.726,-2.716 -2.038,-4.529 l 16.403,-43.235 c 0.688,-1.813 2.716,-2.725 4.529,-2.038 l 32.196,12.215 c 1.813,0.688 2.726,2.716 2.038,4.529 l -16.403,43.235 c -0.688,1.813 -2.716,2.725 -4.53,2.037 z"
   id="path14" />&#10;		</g>&#10;		<path
   style="fill:#f0f0f0"
   d="m 666.383,187.47 -21.67,-8.222 c -0.759,-0.288 -1.141,-1.136 -0.853,-1.895 l 0.212,-0.559 c 0.288,-0.759 1.136,-1.141 1.895,-0.853 l 21.67,8.222 c 0.759,0.288 1.141,1.136 0.853,1.895 l -0.212,0.559 c -0.288,0.759 -1.136,1.141 -1.895,0.853 z"
   id="path15" />&#10;		<path
   style="fill:#f0f0f0"
   d="m 663.173,195.931 -21.67,-8.221 c -0.759,-0.288 -1.141,-1.136 -0.853,-1.895 l 0.212,-0.559 c 0.288,-0.759 1.136,-1.141 1.895,-0.853 l 21.67,8.221 c 0.759,0.288 1.141,1.136 0.853,1.895 l -0.212,0.559 c -0.288,0.759 -1.136,1.141 -1.895,0.853 z"
   id="path16" />&#10;		<path
   style="fill:#f0f0f0"
   d="m 659.963,204.392 -21.67,-8.221 c -0.759,-0.288 -1.141,-1.136 -0.853,-1.895 l 0.212,-0.559 c 0.288,-0.759 1.136,-1.141 1.895,-0.853 l 21.67,8.221 c 0.759,0.288 1.141,1.136 0.853,1.895 l -0.212,0.559 c -0.287,0.759 -1.136,1.141 -1.895,0.853 z"
   id="path17" />&#10;		<path
   style="fill:#f0f0f0"
   d="m 645.202,208.47 -10.119,-3.839 c -0.759,-0.288 -1.141,-1.136 -0.853,-1.895 l 0.212,-0.559 c 0.288,-0.759 1.136,-1.141 1.895,-0.853 l 10.119,3.839 c 0.759,0.288 1.141,1.136 0.853,1.895 l -0.212,0.559 c -0.287,0.759 -1.136,1.141 -1.895,0.853 z"
   id="path18" />&#10;	</g>&#10;	<g
   id="g21">&#10;		<path
   style="fill:#e0e0e0"
   d="m 397.751,83.073 h -10.145 c -0.868,0 -1.571,-0.704 -1.571,-1.571 V 68.92 c 0,-0.868 0.703,-1.571 1.571,-1.571 h 10.145 c 0.868,0 1.571,0.703 1.571,1.571 v 12.581 c 0,0.868 -0.704,1.572 -1.571,1.572 z"
   id="path19" />&#10;		<path
   style="fill:#e0e0e0"
   d="M 417.735,83.073 H 407.59 c -0.868,0 -1.571,-0.704 -1.571,-1.571 v -24.81 c 0,-0.868 0.704,-1.571 1.571,-1.571 h 10.145 c 0.868,0 1.571,0.704 1.571,1.571 v 24.81 c 0,0.867 -0.703,1.571 -1.571,1.571 z"
   id="path20" />&#10;		<path
   style="fill:#e0e0e0"
   d="m 439.249,83.423 h -10.145 c -0.868,0 -1.571,-0.703 -1.571,-1.571 V 44.615 c 0,-0.868 0.703,-1.571 1.571,-1.571 h 10.145 c 0.868,0 1.571,0.703 1.571,1.571 v 37.237 c 0,0.867 -0.703,1.571 -1.571,1.571 z"
   id="path21" />&#10;	</g>&#10;	<path
   style="fill:#e0e0e0"
   d="m 476.598,274.398 c -2.412,3.673 -4.034,7.708 -4.898,11.87 l -6.628,0.624 -10e-4,12.836 6.629,0.624 c 0.863,4.161 2.486,8.195 4.898,11.87 l -4.234,5.113 9.077,9.077 5.113,-4.233 c 3.674,2.412 7.708,4.034 11.869,4.898 l 0.624,6.629 12.836,-0.001 0.624,-6.627 c 4.161,-0.865 8.196,-2.487 11.87,-4.898 l 5.113,4.233 9.077,-9.077 -4.233,-5.114 c 2.411,-3.674 4.034,-7.708 4.898,-11.869 l 6.628,-0.624 10e-4,-12.836 -6.628,-0.625 c -0.864,-4.161 -2.487,-8.195 -4.899,-11.868 l 4.233,-5.114 -9.077,-9.076 -5.113,4.233 c -3.674,-2.412 -7.709,-4.035 -11.869,-4.899 l -0.624,-6.628 -12.836,0.001 -0.624,6.628 c -4.161,0.864 -8.195,2.486 -11.869,4.898 l -5.114,-4.234 -9.077,9.077 z m 41.156,6.625 c 6.785,6.786 6.786,17.789 0,24.575 -6.787,6.786 -17.79,6.786 -24.575,0 -6.786,-6.786 -6.786,-17.788 0,-24.575 6.786,-6.786 17.789,-6.786 24.575,0 z"
   id="path22" />&#10;	<path
   style="fill:#e0e0e0"
   d="m 556.069,304.777 c -1.138,1.733 -1.904,3.637 -2.311,5.601 l -3.128,0.294 v 6.057 l 3.128,0.295 c 0.407,1.963 1.173,3.867 2.311,5.601 l -1.998,2.413 4.283,4.283 2.413,-1.997 c 1.734,1.138 3.637,1.904 5.6,2.311 l 0.295,3.128 h 6.057 l 0.295,-3.127 c 1.964,-0.408 3.867,-1.173 5.601,-2.311 l 2.413,1.997 4.283,-4.283 -1.997,-2.413 c 1.138,-1.733 1.903,-3.637 2.311,-5.601 l 3.127,-0.295 v -6.057 l -3.128,-0.295 c -0.408,-1.963 -1.174,-3.867 -2.312,-5.6 l 1.997,-2.413 -4.283,-4.283 -2.413,1.997 c -1.734,-1.138 -3.637,-1.904 -5.601,-2.312 l -0.295,-3.128 h -6.057 l -0.295,3.128 c -1.963,0.408 -3.867,1.173 -5.6,2.311 l -2.413,-1.998 -4.283,4.283 z m 19.42,3.126 c 3.202,3.202 3.202,8.394 0,11.596 -3.202,3.202 -8.394,3.202 -11.596,0 -3.202,-3.202 -3.202,-8.393 0,-11.596 3.202,-3.201 8.394,-3.202 11.596,0 z"
   id="path23" />&#10;	<path
   style="fill:#f5f5f5"
   d="m 502.209,212.604 c -1.138,1.733 -1.904,3.637 -2.311,5.601 l -3.128,0.294 v 6.057 l 3.128,0.295 c 0.407,1.963 1.173,3.867 2.311,5.601 l -1.998,2.413 4.283,4.283 2.413,-1.997 c 1.733,1.138 3.637,1.904 5.601,2.311 l 0.294,3.128 h 6.057 l 0.295,-3.127 c 1.964,-0.408 3.867,-1.173 5.601,-2.311 l 2.413,1.997 4.283,-4.283 -1.997,-2.413 c 1.138,-1.734 1.904,-3.637 2.311,-5.601 l 3.127,-0.295 V 218.5 l -3.128,-0.295 c -0.408,-1.963 -1.174,-3.867 -2.312,-5.6 l 1.997,-2.413 -4.283,-4.283 -2.413,1.997 c -1.734,-1.138 -3.637,-1.904 -5.601,-2.312 l -0.295,-3.128 H 512.8 l -0.294,3.128 c -1.963,0.408 -3.867,1.173 -5.6,2.311 l -2.413,-1.998 -4.283,4.283 z m 19.42,3.126 c 3.202,3.202 3.202,8.394 0,11.596 -3.202,3.202 -8.394,3.202 -11.596,0 -3.202,-3.202 -3.202,-8.394 0,-11.596 3.202,-3.202 8.393,-3.202 11.596,0 z"
   id="path24" />&#10;	<path
   style="fill:#f5f5f5"
   d="m 551.597,234.841 c -2.137,3.254 -3.574,6.828 -4.34,10.515 l -5.872,0.553 v 11.372 l 5.873,0.553 c 0.765,3.686 2.202,7.26 4.339,10.515 l -3.751,4.53 8.041,8.041 4.53,-3.75 c 3.255,2.137 6.829,3.574 10.515,4.339 l 0.553,5.873 11.372,-0.001 0.553,-5.871 c 3.687,-0.766 7.261,-2.203 10.516,-4.34 l 4.53,3.75 8.041,-8.041 -3.75,-4.53 c 2.136,-3.255 3.574,-6.829 4.339,-10.515 l 5.871,-0.553 10e-4,-11.372 -5.872,-0.553 c -0.766,-3.686 -2.203,-7.26 -4.34,-10.514 l 3.75,-4.53 -8.041,-8.041 -4.53,3.75 c -3.255,-2.137 -6.829,-3.575 -10.515,-4.34 l -0.553,-5.872 -11.372,0.001 -0.553,5.872 c -3.686,0.766 -7.26,2.202 -10.515,4.339 l -4.53,-3.751 -8.041,8.041 z m 36.46,5.869 c 6.011,6.012 6.011,15.759 0,21.771 -6.012,6.012 -15.76,6.012 -21.771,0 -6.012,-6.012 -6.011,-15.759 0,-21.771 6.012,-6.011 15.759,-6.012 21.771,0 z"
   id="path25" />&#10;	<path
   style="fill:#f5f5f5"
   d="m 146.271,76.236 c -1.867,2.842 -3.122,5.965 -3.791,9.186 l -5.13,0.483 -0.001,9.934 5.13,0.483 c 0.668,3.22 1.924,6.343 3.791,9.186 l -3.277,3.957 7.025,7.025 3.957,-3.276 c 2.843,1.867 5.965,3.122 9.186,3.79 l 0.483,5.13 9.934,-0.001 0.483,-5.129 c 3.221,-0.669 6.343,-1.924 9.186,-3.791 l 3.957,3.276 7.025,-7.025 -3.276,-3.957 c 1.866,-2.843 3.122,-5.965 3.79,-9.186 l 5.129,-0.483 10e-4,-9.934 -5.13,-0.484 c -0.669,-3.22 -1.925,-6.342 -3.791,-9.185 l 3.276,-3.958 -7.025,-7.024 -3.957,3.276 c -2.844,-1.867 -5.966,-3.123 -9.186,-3.791 l -0.483,-5.13 h -9.934 l -0.483,5.13 c -3.22,0.669 -6.343,1.924 -9.185,3.791 l -3.958,-3.276 -7.025,7.025 z m 31.851,5.127 c 5.251,5.252 5.251,13.767 0,19.019 -5.252,5.252 -13.768,5.252 -19.019,0 -5.252,-5.252 -5.252,-13.767 0,-19.019 5.252,-5.251 13.767,-5.252 19.019,0 z"
   id="path26" />&#10;	<g
   id="g43">&#10;		<g
   id="g38">&#10;			<g
   id="g35">&#10;				<g
   id="g31">&#10;					<g
   id="g28">&#10;						<g
   id="g27">&#10;							<path
   style="fill:#e0e0e0"
   d="M 673.734,317.179 H 492.988 c -3.232,0 -5.862,-2.63 -5.862,-5.862 V 48.043 c 0,-3.232 2.63,-5.862 5.862,-5.862 h 180.746 c 3.232,0 5.862,2.629 5.862,5.862 v 263.273 c 0,3.233 -2.63,5.863 -5.862,5.863 z M 492.988,42.432 c -3.095,0 -5.612,2.517 -5.612,5.612 v 263.273 c 0,3.095 2.518,5.612 5.612,5.612 h 180.746 c 3.095,0 5.612,-2.518 5.612,-5.612 V 48.043 c 0,-3.094 -2.518,-5.612 -5.612,-5.612 H 492.988 Z"
   id="path27" />&#10;						</g>&#10;					</g>&#10;					<g
   id="g30">&#10;						<g
   id="g29">&#10;							<path
   style="fill:#e0e0e0"
   d="M 465.306,317.179 H 284.56 c -3.232,0 -5.862,-2.63 -5.862,-5.862 V 48.043 c 0,-3.232 2.629,-5.862 5.862,-5.862 h 180.747 c 3.232,0 5.862,2.629 5.862,5.862 v 263.273 c -10e-4,3.233 -2.631,5.863 -5.863,5.863 z M 284.56,42.432 c -3.094,0 -5.612,2.517 -5.612,5.612 v 263.273 c 0,3.095 2.518,5.612 5.612,5.612 h 180.747 c 3.095,0 5.612,-2.518 5.612,-5.612 V 48.043 c 0,-3.094 -2.518,-5.612 -5.612,-5.612 H 284.56 Z"
   id="path28" />&#10;						</g>&#10;					</g>&#10;				</g>&#10;				<g
   id="g34">&#10;					<g
   id="g33">&#10;						<g
   id="g32">&#10;							<path
   style="fill:#e0e0e0"
   d="M 257.012,317.179 H 76.266 c -3.232,0 -5.862,-2.63 -5.862,-5.862 V 48.043 c 0,-3.232 2.629,-5.862 5.862,-5.862 h 180.746 c 3.232,0 5.862,2.629 5.862,5.862 v 263.273 c 10e-4,3.233 -2.629,5.863 -5.862,5.863 z M 76.266,42.432 c -3.094,0 -5.612,2.517 -5.612,5.612 v 263.273 c 0,3.095 2.518,5.612 5.612,5.612 h 180.746 c 3.095,0 5.612,-2.518 5.612,-5.612 V 48.043 c 0,-3.094 -2.518,-5.612 -5.612,-5.612 H 76.266 Z"
   id="path31" />&#10;						</g>&#10;					</g>&#10;				</g>&#10;			</g>&#10;			<g
   id="g37">&#10;				<g
   id="g36">&#10;					<rect
   y="378.24899"
   style="fill:#e0e0e0"
   width="750"
   height="0.12"
   id="rect35"
   x="0" />&#10;				</g>&#10;			</g>&#10;		</g>&#10;		<g
   id="g42">&#10;			<rect
   x="653.62598"
   y="407.625"
   style="fill:#ebebeb"
   width="55.729"
   height="0.421"
   id="rect38" />&#10;			<rect
   x="495.04401"
   y="412.19"
   style="fill:#ebebeb"
   width="14.627"
   height="0.421"
   id="rect39" />&#10;			<rect
   x="40.645"
   y="394.827"
   style="fill:#ebebeb"
   width="72.674004"
   height="0.421"
   id="rect40" />&#10;			<rect
   x="128.299"
   y="394.827"
   style="fill:#ebebeb"
   width="10.656"
   height="0.421"
   id="rect41" />&#10;			<rect
   x="173.586"
   y="401.931"
   style="fill:#ebebeb"
   width="157.61301"
   height="0.421"
   id="rect42" />&#10;		</g>&#10;	</g>&#10;</g><g
   id="Shadow"
   transform="matrix(0.29909038,0,0,0.29909038,-13.830447,-0.80778233)">&#10;	<g
   id="g46">&#10;		<g
   id="g45">&#10;			<path
   style="fill:#f5f5f5"
   d="m 629.379,460.639 c 0,3.387 -113.889,6.132 -254.379,6.132 -140.49,0 -254.379,-2.746 -254.379,-6.132 0,-3.387 113.889,-6.132 254.379,-6.132 140.49,0 254.379,2.745 254.379,6.132 z"
   id="path45" />&#10;		</g>&#10;	</g>&#10;</g><g
   id="Chart"
   transform="matrix(0.29909038,0,0,0.29909038,-13.830447,-0.80778233)">&#10;	<g
   id="g60">&#10;		<g
   id="g47">&#10;			<path
   style="fill:#407bff"
   d="M 180.542,194.194 H 75.363 c -2.262,0 -4.095,-1.833 -4.095,-4.095 v -59.093 c 0,-2.261 1.833,-4.095 4.095,-4.095 h 105.179 c 2.261,0 4.095,1.833 4.095,4.095 v 59.093 c 0,2.262 -1.833,4.095 -4.095,4.095 z"
   id="path46" />&#10;			<path
   style="opacity:0.8;fill:#ffffff"
   d="M 180.542,194.194 H 75.363 c -2.262,0 -4.095,-1.833 -4.095,-4.095 v -59.093 c 0,-2.261 1.833,-4.095 4.095,-4.095 h 105.179 c 2.261,0 4.095,1.833 4.095,4.095 v 59.093 c 0,2.262 -1.833,4.095 -4.095,4.095 z"
   id="path47" />&#10;		</g>&#10;		<path
   style="fill:none;stroke:#263238;stroke-width:0.5;stroke-miterlimit:10"
   d="m 88.313,164.284 c 0.492,-0.443 13.761,-13.544 13.761,-13.544 l 13.087,6.441 12.792,-15.051 13.087,18.858 12.764,-8.329"
   id="path48" />&#10;		<rect
   x="86.277"
   y="170.18201"
   style="fill:#407bff"
   width="6.1350002"
   height="13.595"
   id="rect48" />&#10;		<rect
   x="98.908997"
   y="161.198"
   style="fill:#407bff"
   width="6.1350002"
   height="22.577999"
   id="rect49" />&#10;		<rect
   x="111.782"
   y="163.46899"
   style="fill:#407bff"
   width="6.1360002"
   height="20.308001"
   id="rect50" />&#10;		<rect
   x="124.885"
   y="150.739"
   style="fill:#407bff"
   width="6.1360002"
   height="33.036999"
   id="rect51" />&#10;		<rect
   x="138.12801"
   y="168.257"
   style="fill:#407bff"
   width="6.1360002"
   height="15.519"
   id="rect52" />&#10;		<path
   style="fill:#407bff"
   d="m 92.641,162.744 c 0,1.821 -1.476,3.296 -3.296,3.296 -1.821,0 -3.296,-1.476 -3.296,-3.296 0,-1.821 1.476,-3.296 3.296,-3.296 1.82,-0.001 3.296,1.475 3.296,3.296 z"
   id="path52" />&#10;		<path
   style="fill:#407bff"
   d="m 105.273,150.739 c 0,1.82 -1.476,3.296 -3.296,3.296 -1.82,0 -3.296,-1.476 -3.296,-3.296 0,-1.821 1.476,-3.296 3.296,-3.296 1.82,0 3.296,1.476 3.296,3.296 z"
   id="path53" />&#10;		<path
   style="fill:#407bff"
   d="m 118.457,156.151 c 0,1.821 -1.476,3.296 -3.296,3.296 -1.821,0 -3.296,-1.476 -3.296,-3.296 0,-1.82 1.476,-3.296 3.296,-3.296 1.821,0 3.296,1.476 3.296,3.296 z"
   id="path54" />&#10;		<path
   style="fill:#407bff"
   d="m 131.249,142.13 c 0,1.82 -1.476,3.296 -3.296,3.296 -1.82,0 -3.296,-1.476 -3.296,-3.296 0,-1.821 1.476,-3.296 3.296,-3.296 1.82,-0.001 3.296,1.475 3.296,3.296 z"
   id="path55" />&#10;		<path
   style="fill:#407bff"
   d="m 144.336,160.987 c 0,1.82 -1.476,3.296 -3.296,3.296 -1.821,0 -3.296,-1.476 -3.296,-3.296 0,-1.821 1.476,-3.296 3.296,-3.296 1.82,0 3.296,1.476 3.296,3.296 z"
   id="path56" />&#10;		<rect
   x="151.242"
   y="160.47701"
   style="fill:#407bff"
   width="6.1360002"
   height="23.299999"
   id="rect56" />&#10;		<rect
   x="98.908997"
   y="161.198"
   style="opacity:0.3"
   width="6.1350002"
   height="22.577999"
   id="rect57" />&#10;		<rect
   x="124.885"
   y="150.739"
   style="opacity:0.3"
   width="6.1360002"
   height="33.036999"
   id="rect58" />&#10;		<rect
   x="151.242"
   y="160.47701"
   style="opacity:0.3"
   width="6.1360002"
   height="23.299999"
   id="rect59" />&#10;		<rect
   x="164.815"
   y="168.257"
   style="fill:#407bff"
   width="6.1350002"
   height="15.519"
   id="rect60" />&#10;		&#10;			<line
   style="fill:none;stroke:#263238;stroke-width:0.5;stroke-miterlimit:10"
   x1="153.80299"
   y1="152.658"
   x2="167.883"
   y2="160.47701"
   id="line60" />&#10;		<path
   style="fill:#407bff"
   d="m 157.835,152.658 c 0,1.82 -1.476,3.296 -3.296,3.296 -1.82,0 -3.296,-1.476 -3.296,-3.296 0,-1.821 1.476,-3.296 3.296,-3.296 1.82,0 3.296,1.476 3.296,3.296 z"
   id="path60" />&#10;		<circle
   style="fill:#407bff"
   cx="167.883"
   cy="160.47701"
   r="3.296"
   id="circle60" />&#10;	</g>&#10;</g><g
   id="Box"
   transform="matrix(0.29909038,0,0,0.29909038,-13.830447,-0.80778233)">&#10;	<g
   id="g73">&#10;		<circle
   style="fill:#ffffff;stroke:#263238;stroke-miterlimit:10"
   cx="651.67102"
   cy="364.78201"
   r="57.094002"
   id="circle61" />&#10;		<g
   id="g72">&#10;			<rect
   x="623.83002"
   y="354.35999"
   style="fill:#407bff"
   width="56.501999"
   height="39.901001"
   id="rect61" />&#10;			<rect
   x="623.83002"
   y="354.35999"
   style="opacity:0.3"
   width="26.757"
   height="39.901001"
   id="rect62" />&#10;			<polygon
   style="fill:#407bff"
   points="623.83,354.36 614.631,369.81 641.2,369.81 650.587,354.36 "
   id="polygon62" />&#10;			<polygon
   style="fill:#407bff"
   points="650.587,354.36 660.472,369.81 688.712,369.81 680.332,354.36 "
   id="polygon63" />&#10;			<polygon
   style="opacity:0.3"
   points="650.587,354.36 660.472,369.81 688.712,369.81 680.332,354.36 "
   id="polygon64" />&#10;			<g
   id="g65">&#10;				<g
   id="g64">&#10;					<path
   style="fill:#263238"
   d="m 642.046,344.707 c -2.29,-3.215 -4.58,-6.431 -6.87,-9.646 -0.278,-0.39 -0.928,-0.016 -0.648,0.378 2.29,3.215 4.58,6.431 6.87,9.646 0.278,0.39 0.928,0.016 0.648,-0.378 z"
   id="path64" />&#10;				</g>&#10;			</g>&#10;			<g
   id="g67">&#10;				<g
   id="g66">&#10;					<path
   style="fill:#263238"
   d="m 651.461,344.427 c -0.09,-5.242 -0.179,-10.484 -0.269,-15.726 -0.008,-0.482 -0.758,-0.484 -0.75,0 0.09,5.242 0.179,10.484 0.269,15.726 0.009,0.482 0.759,0.484 0.75,0 z"
   id="path65" />&#10;				</g>&#10;			</g>&#10;			<g
   id="g69">&#10;				<g
   id="g68">&#10;					<path
   style="fill:#263238"
   d="m 660.88,344.754 c 1.682,-2.995 3.364,-5.989 5.046,-8.984 0.237,-0.421 -0.411,-0.8 -0.648,-0.378 -1.682,2.994 -3.364,5.989 -5.046,8.983 -0.236,0.422 0.411,0.8 0.648,0.379 z"
   id="path67" />&#10;				</g>&#10;			</g>&#10;			<g
   id="g71">&#10;				<g
   id="g70">&#10;					<path
   style="fill:#263238"
   d="m 666.92,333.244 c -0.021,-0.021 -0.042,-0.042 -0.063,-0.063 -0.034,-0.036 -0.074,-0.062 -0.121,-0.078 -0.045,-0.023 -0.093,-0.034 -0.145,-0.032 -0.052,-0.002 -0.1,0.009 -0.144,0.032 -0.046,0.015 -0.087,0.041 -0.121,0.078 -0.02,0.025 -0.039,0.051 -0.059,0.076 -0.034,0.059 -0.051,0.122 -0.051,0.189 0.005,0.033 0.009,0.066 0.013,0.1 0.018,0.064 0.05,0.119 0.096,0.165 0.021,0.021 0.042,0.042 0.063,0.063 0.034,0.037 0.074,0.062 0.121,0.078 0.045,0.023 0.093,0.034 0.144,0.032 0.052,0.002 0.1,-0.009 0.144,-0.032 0.047,-0.015 0.087,-0.041 0.121,-0.078 0.019,-0.025 0.039,-0.051 0.059,-0.076 0.034,-0.059 0.051,-0.122 0.051,-0.189 -0.004,-0.033 -0.009,-0.066 -0.013,-0.1 -0.016,-0.063 -0.048,-0.118 -0.095,-0.165 z"
   id="path69" />&#10;				</g>&#10;			</g>&#10;		</g>&#10;	</g>&#10;</g><g
   id="Character_1"
   transform="matrix(0.29909038,0,0,0.29909038,-13.830447,-0.80778233)">&#10;	<g
   id="g151">&#10;		<g
   id="g85">&#10;			<g
   id="g77">&#10;				<path
   style="fill:#407bff"
   d="m 542.776,187.217 11.213,52.8 c 0.51,2.404 -1.975,4.338 -4.18,3.253 l -39.165,-19.274 c -1.711,-0.842 -2.182,-3.063 -0.961,-4.527 l 27.952,-33.527 c 1.573,-1.887 4.63,-1.129 5.141,1.275 z"
   id="path73" />&#10;				<path
   style="opacity:0.3"
   d="m 542.776,187.217 11.213,52.8 c 0.51,2.404 -1.975,4.338 -4.18,3.253 l -39.165,-19.274 c -1.711,-0.842 -2.182,-3.063 -0.961,-4.527 l 27.952,-33.527 c 1.573,-1.887 4.63,-1.129 5.141,1.275 z"
   id="path74" />&#10;				<g
   id="g75">&#10;					<path
   style="fill:#407bff"
   d="m 545.224,231.121 -4.35,-30.174 c 18.664,-2.69 34.755,-14.386 43.046,-31.286 13.825,-28.18 2.146,-62.353 -26.034,-76.177 -28.18,-13.825 -62.353,-2.146 -76.177,26.034 -5.984,12.197 -7.411,26.146 -4.018,39.277 l -29.517,7.626 c -5.211,-20.176 -3.022,-41.601 6.166,-60.33 21.228,-43.271 73.702,-61.205 116.974,-39.977 43.271,21.228 61.204,73.702 39.976,116.974 -12.73,25.949 -37.428,43.905 -66.066,48.033 z"
   id="path75" />&#10;				</g>&#10;				<g
   style="opacity:0.3"
   id="g76">&#10;					<path
   d="m 545.224,231.121 -4.35,-30.174 c 18.664,-2.69 34.755,-14.386 43.046,-31.286 13.825,-28.18 2.146,-62.353 -26.034,-76.177 -28.18,-13.825 -62.353,-2.146 -76.177,26.034 -5.984,12.197 -7.411,26.146 -4.018,39.277 l -29.517,7.626 c -5.211,-20.176 -3.022,-41.601 6.166,-60.33 21.228,-43.271 73.702,-61.205 116.974,-39.977 43.271,21.228 61.204,73.702 39.976,116.974 -12.73,25.949 -37.428,43.905 -66.066,48.033 z"
   id="path76" />&#10;				</g>&#10;			</g>&#10;			<g
   id="g84">&#10;				<g
   id="g83">&#10;					<g
   id="g81">&#10;						&#10;							<circle
   transform="matrix(0.9628,-0.2701,0.2701,0.9628,-17.7895,150.1528)"
   style="fill:#407bff"
   cx="536.60797"
   cy="139.705"
   id="ellipse77"
   r="35.333" />&#10;						&#10;							<circle
   transform="matrix(0.9628,-0.2701,0.2701,0.9628,-17.7895,150.1528)"
   style="opacity:0.3"
   cx="536.60797"
   cy="139.705"
   id="ellipse78"
   r="35.333" />&#10;						&#10;							<circle
   transform="matrix(0.7825,-0.6227,0.6227,0.7825,30.5126,362.9359)"
   style="fill:#407bff"
   cx="534.75201"
   cy="137.793"
   id="ellipse79"
   r="35.333" />&#10;						&#10;							<circle
   transform="matrix(0.5136,-0.858,0.858,0.5136,141.8593,525.842)"
   style="fill:#ffffff"
   cx="534.75201"
   cy="137.793"
   id="ellipse80"
   r="29.354" />&#10;						<g
   id="g80">&#10;							<path
   d="m 520.663,158.621 3.899,-5.777 c 0.114,0.077 0.229,0.153 0.345,0.227 l -3.757,5.87 c -0.163,-0.104 -0.326,-0.211 -0.487,-0.32 z m -7.784,-8.424 c -0.096,-0.17 -0.191,-0.341 -0.283,-0.514 l 6.148,-3.282 c 0.065,0.121 0.131,0.241 0.198,0.36 z m 19.074,12.587 0.765,-6.927 0.432,0.044 -0.636,6.94 c -0.188,-0.017 -0.375,-0.036 -0.561,-0.057 z m -22.337,-24.167 c -0.006,-0.193 -0.01,-0.386 -0.013,-0.579 l 6.97,-0.069 0.008,0.42 z m 34.262,22.605 -2.537,-6.491 0.392,-0.157 2.778,6.392 -0.166,0.069 c -0.112,0.046 -0.289,0.117 -0.467,0.187 z m -31.766,-34.367 c 0.084,-0.175 0.171,-0.349 0.258,-0.521 l 6.208,3.169 c -0.063,0.122 -0.124,0.247 -0.184,0.371 z m 36.396,22.82 c 0.086,-0.099 0.171,-0.2 0.255,-0.301 l 5.382,4.429 c -0.127,0.155 -0.256,0.307 -0.388,0.458 z m -24.58,-26.486 -4.135,-5.609 0.453,-0.327 4.037,5.68 z m 28.52,18.749 0.092,-0.415 6.816,1.457 c -0.04,0.186 -0.081,0.373 -0.125,0.558 z m -20.487,-22.108 -1.075,-6.886 c 0.185,-0.029 0.371,-0.056 0.556,-0.081 l 0.951,6.903 z m 20.389,13.414 c -0.034,-0.131 -0.069,-0.261 -0.106,-0.391 l 6.701,-1.915 c 0.054,0.19 0.106,0.38 0.155,0.57 z m -11.728,-12.651 2.25,-6.596 c 0.189,0.065 0.376,0.131 0.564,0.201 l -2.438,6.53 c -0.125,-0.048 -0.25,-0.093 -0.376,-0.135 z m 7.604,4.997 -0.283,-0.305 5.057,-4.796 c 0.133,0.141 0.265,0.282 0.394,0.425 z"
   id="path80" />&#10;						</g>&#10;					</g>&#10;					<g
   id="g82">&#10;						<polyline
   style="fill:none;stroke:#000000;stroke-linecap:round;stroke-linejoin:round;stroke-miterlimit:10"
   points="        527.364,126.881 534.37,138.934 545.705,127.907       "
   id="polyline81" />&#10;						<path
   d="m 536.415,139.48 c -0.798,0.91 -2.183,1.001 -3.093,0.203 -0.91,-0.798 -1.001,-2.183 -0.203,-3.093 0.798,-0.91 2.183,-1.001 3.093,-0.203 0.91,0.798 1.001,2.183 0.203,3.093 z"
   id="path81" />&#10;					</g>&#10;				</g>&#10;				<path
   style="opacity:0.3"
   d="m 515.162,118.898 c 11.633,-11.292 30.216,-11.016 41.508,0.617 2.775,2.858 4.842,6.139 6.223,9.625 -1.309,-4.367 -3.638,-8.499 -7.033,-11.996 -11.292,-11.632 -29.876,-11.909 -41.509,-0.617 -8.774,8.517 -11.079,21.181 -6.84,31.883 -3.044,-10.158 -0.483,-21.615 7.651,-29.512 z"
   id="path83" />&#10;			</g>&#10;		</g>&#10;		<g
   id="g95">&#10;			<g
   id="g87">&#10;				<g
   id="g86">&#10;					<path
   style="fill:#407bff"
   d="m 240.241,347.492 c -25.497,-28.277 -39.538,-64.835 -39.538,-102.939 0,-69.81 47.097,-130.964 114.531,-148.715 l -11.331,14.226 19.855,18.153 c -52.74,13.882 -89.573,61.721 -89.573,116.336 0,29.807 10.981,58.402 30.922,80.518 z"
   id="path85" />&#10;				</g>&#10;				<path
   style="fill:#407bff"
   d="m 243.546,349.408 c 1.242,-0.31 42.228,0 42.228,0 l -20.667,-24.337 -24.866,22.421 z"
   id="path86" />&#10;			</g>&#10;			<g
   style="opacity:0.3"
   id="g89">&#10;				<g
   id="g88">&#10;					<path
   d="m 240.241,347.492 c -25.497,-28.277 -39.538,-64.835 -39.538,-102.939 0,-69.81 47.097,-130.964 114.531,-148.715 l -11.331,14.226 19.855,18.153 c -52.74,13.882 -89.573,61.721 -89.573,116.336 0,29.807 10.981,58.402 30.922,80.518 z"
   id="path87" />&#10;				</g>&#10;				<path
   d="m 243.546,349.408 c 1.242,-0.31 42.228,0 42.228,0 l -20.667,-24.337 -24.866,22.421 z"
   id="path88" />&#10;			</g>&#10;			<g
   id="g94">&#10;				<g
   id="g92">&#10;					<g
   id="g90">&#10;						<path
   style="fill:#407bff"
   d="m 546.132,403.89 v -53.978 c 0,-2.457 2.833,-3.833 4.764,-2.314 l 34.307,26.989 c 1.498,1.179 1.498,3.449 0,4.628 l -34.307,26.989 c -1.931,1.52 -4.764,0.144 -4.764,-2.314 z"
   id="path89" />&#10;					</g>&#10;					<g
   id="g91">&#10;						<rect
   x="361.008"
   y="360.85599"
   style="fill:#407bff"
   width="190.689"
   height="32.09"
   id="rect90" />&#10;					</g>&#10;				</g>&#10;				<path
   style="opacity:0.3"
   d="m 584.903,374.587 -34.307,-26.989 c -1.932,-1.52 -4.765,-0.144 -4.765,2.314 v 10.944 H 352.894 v 32.09 h 192.938 v 10.944 c 0,2.457 2.833,3.833 4.765,2.314 l 34.307,-26.989 c 1.498,-1.178 1.498,-3.449 -10e-4,-4.628 z"
   id="path92" />&#10;				<path
   style="fill:#407bff"
   d="m 352.851,90.872 v 32.893 c 65.16,0 118.172,53.012 118.172,118.172 0,65.16 -53.012,118.172 -118.172,118.172 H 141.735 v 32.893 h 211.116 c 83.297,0 151.064,-67.767 151.064,-151.065 0,-83.298 -67.767,-151.065 -151.064,-151.065 z"
   id="path93" />&#10;				<path
   style="fill:#407bff"
   d="m 359.243,80.439 -0.109,53.978 c -0.005,2.457 -2.841,3.828 -4.769,2.304 l -34.253,-27.058 c -1.496,-1.182 -1.491,-3.452 0.009,-4.628 l 34.361,-26.92 c 1.936,-1.515 4.766,-0.133 4.761,2.324 z"
   id="path94" />&#10;			</g>&#10;		</g>&#10;		<path
   style="opacity:0.3"
   d="m 359.216,361.053 c 0.654,0 -13.399,8.901 -22.896,8.824 l -0.897,24.014 h -6.284 l -12.013,-32.09 z"
   id="path95" />&#10;		<g
   id="g150">&#10;			<g
   id="g115">&#10;				<g
   id="g114">&#10;					<path
   style="fill:#263238"
   d="m 347.626,194.909 c 4.407,6.96 6.026,11.172 6.713,18.01 0.803,7.992 0.768,15.082 -0.924,17.218 -2.22,2.802 -27.461,6.507 -41.696,6.59 -0.516,0.003 -1.152,-4.488 -1.152,-4.488 0,0 -1.811,4.499 -2.48,4.5 -3.885,0.004 -6.377,-0.024 -6.377,-0.024 0,0 2.907,-6.765 5.741,-30.814 1.384,-11.746 12.892,-16.943 19.759,-18.14 11.445,-1.994 20.416,7.148 20.416,7.148 z"
   id="path96" />&#10;					<path
   style="fill:#263238"
   d="m 314.88,218.99 c -4.018,-6.259 -8.512,-23.42 6.736,-29.486 19.034,-7.572 28.269,4.364 30.5,16.512 2.231,12.147 -4.234,21.706 -17.059,21.372 -12.826,-0.334 -17.398,-4.069 -20.177,-8.398 z"
   id="path97" />&#10;					<g
   id="g111">&#10;						<g
   id="g109">&#10;							<g
   id="g98">&#10;								<path
   style="fill:#ebb373"
   d="m 346.708,242.07 c 0,0 -4.282,3.293 -9.796,8.044 -1.148,0.99 -2.413,1.846 -3.752,2.557 -3.613,1.919 -6.906,3.017 -7.798,1.275 -0.198,-0.383 -0.351,-0.798 -0.464,-1.233 -0.757,-2.917 -0.447,-7.017 1.911,-8.894 2.658,-2.116 3.94,-3.926 3.461,-6.79 -0.252,-1.624 -0.839,-3.3 -1.526,-4.928 l 2.092,-2.446 10.941,-11.042 c -0.273,7.372 -0.832,19.454 4.931,23.457 z"
   id="path98" />&#10;							</g>&#10;							<path
   style="opacity:0.2"
   d="m 330.359,237.657 c 3.009,-1.786 6.311,-4.885 5.915,-8.424 -0.176,-1.491 -0.498,-2.903 -0.855,-3.808 l -6.112,8.092 c 0.502,1.304 0.685,2.166 1.052,4.14 z"
   id="path99" />&#10;							<path
   style="fill:#ebb373"
   d="m 344.875,206.766 c -1.03,11.242 -1.228,16.009 -7.03,21.904 -8.726,8.866 -22.15,5.884 -24.461,-5.259 -2.08,-10.029 -0.047,-26.728 10.99,-31.452 10.872,-4.655 21.53,3.566 20.501,14.807 z"
   id="path100" />&#10;							<path
   style="fill:#263238"
   d="m 330.78,210.839 c -0.063,1.132 -0.759,2.064 -1.554,2.08 -0.795,0.017 -1.389,-0.887 -1.326,-2.02 0.063,-1.132 0.759,-2.064 1.554,-2.08 0.795,-0.017 1.388,0.888 1.326,2.02 z"
   id="path101" />&#10;							<path
   style="fill:#263238"
   d="m 319.093,210.634 c -0.063,1.081 -0.747,1.97 -1.528,1.987 -0.781,0.016 -1.364,-0.846 -1.301,-1.927 0.063,-1.081 0.747,-1.97 1.528,-1.987 0.781,-0.017 1.363,0.846 1.301,1.927 z"
   id="path102" />&#10;							<path
   style="fill:#263238"
   d="m 332.369,206.688 c -0.154,0.031 -0.314,0.004 -0.443,-0.087 -1.996,-1.424 -4.065,-0.664 -4.089,-0.655 -0.307,0.113 -0.635,-0.02 -0.729,-0.308 -0.093,-0.287 0.083,-0.615 0.393,-0.733 0.108,-0.04 2.705,-0.997 5.182,0.771 0.247,0.176 0.278,0.527 0.069,0.782 -0.101,0.123 -0.239,0.202 -0.383,0.23 z"
   id="path103" />&#10;							<path
   style="fill:#263238"
   d="m 315.116,205.175 c -0.124,-0.058 -0.223,-0.16 -0.269,-0.294 -0.095,-0.276 0.069,-0.581 0.366,-0.682 2.981,-1.011 5.029,0.436 5.116,0.499 0.243,0.176 0.28,0.509 0.082,0.744 -0.197,0.235 -0.552,0.283 -0.795,0.109 -0.079,-0.058 -1.685,-1.157 -4.056,-0.353 -0.154,0.052 -0.313,0.039 -0.444,-0.023 z"
   id="path104" />&#10;							<path
   style="fill:#263238"
   d="m 335.482,196.771 c -3.576,3.756 -1.798,17.943 8.242,19.796 11.566,-2.722 2.432,-31.006 -8.242,-19.796 z"
   id="path105" />&#10;							<path
   style="fill:#263238"
   d="m 322.056,221.134 c 0.915,1.409 2.016,4.138 2.016,4.138 0.265,-0.055 0.531,-0.11 0.792,-0.179 3.579,-0.838 4.963,-2.409 5.411,-3.896 0.242,-0.815 0.195,-1.612 0.073,-2.242 -0.133,-0.731 -0.395,-1.222 -0.395,-1.222 -1.632,1.578 -4.908,2.615 -6.681,3.097 -0.741,0.208 -1.216,0.304 -1.216,0.304 z"
   id="path106" />&#10;							<path
   style="fill:#ffffff"
   d="m 323.272,220.829 0.626,1.205 c 3.369,-0.797 5.634,-1.81 6.45,-3.079 -0.133,-0.731 -0.395,-1.222 -0.395,-1.222 -1.632,1.577 -4.908,2.615 -6.681,3.096 z"
   id="path107" />&#10;							<path
   style="fill:#dc5753"
   d="m 324.864,225.093 c 3.579,-0.838 4.963,-2.409 5.411,-3.896 -1.208,0.333 -2.629,0.868 -3.79,1.718 -0.89,0.646 -1.361,1.432 -1.621,2.178 z"
   id="path108" />&#10;							<path
   style="fill:#e4873e"
   d="m 322.244,209.844 c 0,0 -2.118,5.067 -4.327,7.547 1.438,1.39 4.004,0.659 4.004,0.659 z"
   id="path109" />&#10;						</g>&#10;						<path
   style="fill:#263238"
   d="m 327.21,208.285 2.58,0.609 c -1.169,1.315 -2.58,-0.609 -2.58,-0.609 z"
   id="path110" />&#10;						<path
   style="fill:#263238"
   d="m 315.68,208.172 2.58,0.609 c -1.169,1.315 -2.58,-0.609 -2.58,-0.609 z"
   id="path111" />&#10;					</g>&#10;					<path
   style="fill:#263238"
   d="m 324.451,189.548 c -4.439,1.506 -9.155,9.189 -9.941,12.145 6.313,1.034 23.33,-4.88 23.33,-4.88 0,0 11.355,3.136 5.603,-2.621 -5.751,-5.758 -18.992,-4.644 -18.992,-4.644 z"
   id="path112" />&#10;					<path
   style="fill:#ebb373"
   d="m 348.276,215.928 c -1.328,2.305 -3.485,3.753 -5.464,4.249 -2.976,0.746 -4.512,-4.038 -3.497,-7.019 0.914,-2.684 3.838,-4.46 6.734,-3.875 2.854,0.577 3.745,4.009 2.227,6.645 z"
   id="path113" />&#10;					<path
   style="fill:none;stroke:#263238;stroke-width:0.5;stroke-miterlimit:10"
   d="m 309.062,203.741 c -0.633,4.949 -1.276,9.942 -2.945,14.644 -1.668,4.702 -5.133,14.4 -9.282,17.17"
   id="path114" />&#10;				</g>&#10;				<circle
   style="fill:#407bff"
   cx="344.005"
   cy="219.883"
   r="2.096"
   id="circle114" />&#10;				&#10;					<path
   style="opacity:0.1;fill:none;stroke:#000000;stroke-width:0.5;stroke-linecap:round;stroke-linejoin:round;stroke-miterlimit:10"
   d="m 345.922,212.722 c -0.992,-0.28 -2.107,-0.079 -2.939,0.528 -0.832,0.608 -1.363,1.609 -1.398,2.639"
   id="path115" />&#10;			</g>&#10;			<g
   id="g119">&#10;				<path
   style="fill:#ebb373"
   d="m 258.266,314.454 c 0.559,-1.55 4.555,-6.739 6.684,-8.674 2.129,-1.935 9.66,-6.166 9.66,-6.166 l 6.362,6.023 c 0,0 -0.597,3.451 -3.152,4.718 -1.473,0.731 -3.004,1.321 -3.004,1.321 0,0 0.019,1.35 -0.331,2.767 -0.388,1.57 -1.197,3.422 -2.472,3.035 -1.273,-0.387 -0.697,-4.659 -0.608,-5.274 -0.094,0.623 -0.813,4.963 -2.576,4.675 -1.701,-0.278 -0.852,-4.782 -0.852,-4.782 0,0 -0.61,2.044 -0.93,3.087 -0.32,1.042 -1.612,1.693 -2.293,0.271 -0.79,-1.648 -0.295,-4.023 -0.295,-4.023 0,0 -1.245,1.147 -3.348,3.803 -1.514,1.911 -3.318,0.53 -2.845,-0.781 z"
   id="path116" />&#10;				&#10;					<path
   style="opacity:0.1;fill:none;stroke:#000000;stroke-width:0.5;stroke-linecap:round;stroke-linejoin:round;stroke-miterlimit:10"
   d="m 271.259,313.012 c 0.163,-0.808 0.328,-1.621 0.638,-2.384 0.31,-0.763 0.778,-1.483 1.446,-1.965"
   id="path117" />&#10;				&#10;					<path
   style="opacity:0.1;fill:none;stroke:#000000;stroke-width:0.5;stroke-linecap:round;stroke-linejoin:round;stroke-miterlimit:10"
   d="m 267.742,312.72 c 0.163,-0.808 0.327,-1.621 0.638,-2.385 0.31,-0.763 0.778,-1.483 1.446,-1.965"
   id="path118" />&#10;				&#10;					<path
   style="opacity:0.1;fill:none;stroke:#000000;stroke-width:0.5;stroke-linecap:round;stroke-linejoin:round;stroke-miterlimit:10"
   d="m 264.456,311.574 c 0.163,-0.808 0.327,-1.621 0.638,-2.384 0.31,-0.763 0.778,-1.483 1.446,-1.965"
   id="path119" />&#10;			</g>&#10;			<g
   id="g122">&#10;				<path
   style="fill:#ebb373"
   d="m 307.995,258.744 c 0,0.71 -2.002,26.218 -2.002,26.218 -1.419,2.661 -30.634,12.801 -34.373,16.513 l 6.815,7.012 c 0,0 34.759,-7.012 40.371,-11.092 4.788,-3.481 4.385,-9.588 4.385,-17.927 0,-8.339 2.91,-19.99 2.91,-19.99 z"
   id="path120" />&#10;				<path
   style="fill:#407bff"
   d="m 321.226,243.672 c -13.781,2.357 -15.673,22.757 -15.673,22.757 l -2.094,16.199 -7.816,5.703 7.307,15.61 c 0,0 15.604,-5.94 22.465,-10 6.861,-4.061 7.039,-35.182 7.039,-35.182 z"
   id="path121" />&#10;				<path
   style="opacity:0.2"
   d="m 318.753,296.409 c 0.257,0.116 -5.774,3.479 -5.774,3.479 -0.071,0.042 -2.178,-8.907 -2.249,-8.865 -3.32,-14.998 -1.075,-26.951 -1.075,-26.951 2.517,5.233 8.461,27.953 9.098,32.337 z"
   id="path122" />&#10;			</g>&#10;			<g
   id="g124">&#10;				<path
   style="fill:#263238"
   d="m 321.782,314.867 c 11.485,-1.147 26.426,-2.064 45.87,-2.502 0,0 14.497,34.145 -2.694,44.346 -5.195,3.082 -13.768,4.301 -23.204,4.502 -10.948,0.233 -19.971,-8.541 -19.971,-19.492 v -26.854 z"
   id="path123" />&#10;				<path
   style="fill:#263238"
   d="m 359.333,342.99 v 16.043 c -14.298,4.124 -43.975,2.554 -61.616,1.114 -7.944,-0.649 -14.053,-7.284 -14.053,-15.255 v -13.163 c 0,-4.364 2.698,-8.266 6.783,-9.803 8.552,-3.217 24.115,-8.01 40.395,-7.759 15.785,0.245 28.491,13.036 28.491,28.823 z"
   id="path124" />&#10;			</g>&#10;			<g
   id="g127">&#10;				<path
   style="fill:#407bff"
   d="m 370.241,312.365 c -2.222,-2.932 -7.367,-9.944 -8.019,-17.323 -10e-4,-0.021 -0.002,-0.042 -0.003,-0.063 -0.04,-0.474 -0.064,-0.948 -0.065,-1.424 -0.117,-3.137 -0.098,-6.853 0.109,-11.311 0.028,-0.696 0.07,-1.434 0.111,-2.172 0.126,-2.34 0.307,-4.86 0.53,-7.603 0.418,-4.916 1.017,-10.527 1.824,-16.905 0.181,-1.476 1.572,-3.765 1.78,-5.325 0.933,-6.948 -5.401,-11.97 -12.238,-11.691 -1.824,0.07 -3.76,0.195 -5.723,0.39 -7.673,0.724 -13.967,1.379 -20.637,2.966 -2.214,0.515 -4.498,1.142 -6.684,1.769 -7.854,2.256 -11.474,12.31 -11.572,20.4 -0.097,7.54 5.191,22.93 8.813,36.447 0.533,7.754 -3.702,11.977 -2.427,14.68 1.275,2.703 38.756,-4.641 54.2,4.568 10e-4,-10e-4 2.372,-4.274 10e-4,-7.403 z"
   id="path125" />&#10;				<path
   style="opacity:0.3;fill:#ffffff"
   d="m 370.241,312.365 c -2.222,-2.932 -7.367,-9.944 -8.019,-17.323 -10e-4,-0.021 -0.002,-0.042 -0.003,-0.063 -0.04,-0.474 -0.064,-0.948 -0.065,-1.424 -0.117,-3.137 -0.098,-6.853 0.109,-11.311 0.028,-0.696 0.07,-1.434 0.111,-2.172 0.126,-2.34 0.307,-4.86 0.53,-7.603 0.418,-4.916 1.017,-10.527 1.824,-16.905 0.181,-1.476 1.572,-3.765 1.78,-5.325 0.933,-6.948 -5.401,-11.97 -12.238,-11.691 -1.824,0.07 -3.76,0.195 -5.723,0.39 -7.673,0.724 -13.967,1.379 -20.637,2.966 -2.214,0.515 -4.498,1.142 -6.684,1.769 -7.854,2.256 -11.474,12.31 -11.572,20.4 -0.097,7.54 5.191,22.93 8.813,36.447 0.533,7.754 -3.702,11.977 -2.427,14.68 1.275,2.703 38.756,-4.641 54.2,4.568 10e-4,-10e-4 2.372,-4.274 10e-4,-7.403 z"
   id="path126" />&#10;				<path
   style="opacity:0.2"
   d="m 364.271,302.568 c 0,0 -13.227,2.905 -19.382,3.185 -6.155,0.28 -19.473,4.476 -19.473,4.476 l -4.737,2.938 -1.669,-3.908 7.974,-7.211 35.003,-7.095 c 0.427,2.925 2.034,7.026 2.284,7.615 z"
   id="path127" />&#10;				<polygon
   style="opacity:0.2"
   points="349.123,259.003 347.452,281.617 339.954,288.966 345.201,293.047 352.338,288.741 356.03,276.025 "
   id="polygon127" />&#10;			</g>&#10;			<g
   id="g136">&#10;				<g
   id="g129">&#10;					<path
   style="fill:#263238"
   d="m 292.564,465.439 17.553,-7.744 5.551,-6.198 1.719,2.334 2.098,-0.915 c 0.978,-7.791 -2.807,-11.434 -4.795,-13.09 -0.142,-0.126 -0.347,-0.268 -0.583,-0.457 -0.079,-0.063 -0.158,-0.126 -0.237,-0.174 -0.032,-0.016 -0.063,-0.047 -0.094,-0.063 -0.079,-0.063 -0.174,-0.126 -0.268,-0.205 -0.015,-0.016 -0.031,-0.016 -0.063,-0.031 v -0.016 c -0.047,-0.032 -0.094,-0.063 -0.158,-0.095 l -9.636,4.258 c 0,0 -0.158,0.505 -0.457,1.325 -0.962,2.712 -3.343,8.895 -5.977,12.191 -0.111,0.142 -0.221,0.284 -0.332,0.41 -0.315,0.378 -0.647,0.71 -0.978,0.978 -7.381,5.93 -3.343,7.492 -3.343,7.492 z"
   id="path128" />&#10;					<path
   style="fill:#ebb373"
   d="m 296.848,456.923 c 2.745,1.072 6.624,-1.64 9.573,-5.189 1.656,-2.003 3.249,-5.205 4.652,-7.791 0.915,-1.672 1.751,-3.091 2.476,-3.769 0.41,-0.363 0.789,-0.521 1.12,-0.363 0,0 -0.016,-0.016 -0.016,-0.032 -0.142,-0.126 -0.347,-0.268 -0.583,-0.457 -0.063,-0.048 -0.142,-0.111 -0.237,-0.174 -0.032,-0.016 -0.063,-0.047 -0.094,-0.063 -0.079,-0.063 -0.174,-0.126 -0.268,-0.205 -0.015,-0.016 -0.032,-0.016 -0.063,-0.031 v -0.016 c -0.047,-0.032 -0.094,-0.063 -0.157,-0.094 -1.009,-0.757 -2.129,-1.53 -2.129,-1.53 l -9.065,2.269 0.706,3.471 c -1.009,3.58 -3.138,10.393 -5.583,13.563 -0.112,0.143 -0.222,0.285 -0.332,0.411 z"
   id="path129" />&#10;				</g>&#10;				<path
   style="fill:#ebb373"
   d="m 282.091,389.422 c 5.596,13.899 14.285,31.609 20.698,53.817 0.125,0.404 0.237,0.809 0.349,1.213 0.125,0.432 0.251,0.85 0.376,1.282 l 6.622,-1.617 0.29,-1.152 c 0,0 2.288,-1.777 1.899,-2.18 -0.254,-0.262 -0.083,-0.753 -0.126,-1.171 V 439.6 c -1.784,-15.488 -8.657,-72.339 -15.474,-84.147 0,0 7.723,1.436 13.578,0.446 4.224,-0.711 9.34,-29.917 9.34,-29.917 0,0 -10.762,-3.095 -21.803,-3.095 h -0.153 c 0,0 -21.703,6.42 -27.221,11.282 -5.186,4.569 -5.963,12.056 -3.087,20.955 2.636,8.161 7.778,17.077 14.712,34.298 z"
   id="path130" />&#10;				<path
   style="opacity:0.1"
   d="m 275.889,341.194 c 1.285,-5.05 10.583,-9.99 20.189,-12.638 1.56,-2.021 -2.431,-4.409 -2.431,-4.409 l 18.908,-1.711 3.3,2.375 5.642,1.175 -5.027,22.592 -20.656,3.617 13.067,60.638 1.544,11.981 c 0,0 -22.132,-47.507 -26.762,-57.609 -4.629,-10.101 -10.001,-17.255 -7.774,-26.011 z"
   id="path131" />&#10;				<path
   style="fill:#ebb373"
   d="m 319.646,325.987 c 0,0 -29.507,6.251 -35.271,10.804 -4.909,3.877 -5.042,8.939 -3.451,13.718 4.398,13.212 20.176,35.243 38.237,98.475 l 10.349,-3.25 c -0.992,-10e-4 -3.593,-33.014 -4.361,-59.53 -0.362,-12.508 -6.776,-23.293 -9.286,-27.649 0,0 10.547,1.424 16.4,0.442 7.521,-1.26 12.276,-26.355 -12.617,-33.01 z"
   id="path132" />&#10;				<path
   style="opacity:0.2"
   d="m 316.471,359.741 c 0,0 -3.915,-6.493 -8.796,-9.231 0,0 6.007,0.392 9.761,8.235 l -1.574,-0.189 z"
   id="path133" />&#10;				<g
   id="g135">&#10;					<path
   style="fill:#263238"
   d="m 333.022,459.349 -2.156,0.47 -1.792,-2.982 c -0.218,-0.363 -0.715,-0.433 -1.025,-0.146 l -6.129,5.677 -16.74,3.674 c 0,0 -3.727,-3.94 4.595,-6.451 0.397,-0.12 0.742,-0.431 1.117,-0.734 4.118,-3.159 9.055,-11.863 9.055,-11.863 l 9.918,-2.177 c 0,0 0.455,0.421 1.126,1.251 1.564,1.946 4.44,6.116 2.031,13.281 z"
   id="path134" />&#10;					<path
   style="fill:#ebb373"
   d="m 330.992,446.069 c 0.003,0.015 0.007,0.03 0.007,0.03 -1.63,-1.172 -6.183,6.547 -10.069,9.688 -3.472,2.797 -7.664,4.616 -10.038,3.07 4.118,-3.159 9.274,-14.142 9.274,-14.142 l 7.976,-1.75 c 10e-4,0 2.179,2.274 2.85,3.104 z"
   id="path135" />&#10;				</g>&#10;			</g>&#10;			<g
   id="g142">&#10;				<g
   id="g138">&#10;					<path
   style="fill:#263238"
   d="m 300.596,330.263 29.094,-11.068 c 0.647,-0.246 0.49,-1.285 -0.196,-1.293 l -46.692,-0.559 c -0.113,-0.001 -0.224,0.031 -0.321,0.094 l -17.954,11.627 c -0.535,0.346 -0.309,1.237 0.314,1.237 h 35.552 c 0.07,0 0.138,-0.013 0.203,-0.038 z"
   id="path136" />&#10;					<path
   style="opacity:0.7;fill:#ffffff"
   d="m 300.596,330.263 29.094,-11.068 c 0.647,-0.246 0.49,-1.285 -0.196,-1.293 l -46.692,-0.559 c -0.113,-0.001 -0.224,0.031 -0.321,0.094 l -17.954,11.627 c -0.535,0.346 -0.309,1.237 0.314,1.237 h 35.552 c 0.07,0 0.138,-0.013 0.203,-0.038 z"
   id="path137" />&#10;					<polygon
   style="opacity:0.7;fill:#ffffff"
   points="300.701,326.965 319.462,320.048 297.484,319.589 "
   id="polygon137" />&#10;					<path
   style="opacity:0.3"
   d="m 329.69,319.196 -29.094,11.068 c -0.065,0.025 -0.134,0.037 -0.203,0.037 h -0.453 l -0.547,-1.604 30.101,-10.795 c 0.686,0.009 0.844,1.048 0.196,1.294 z"
   id="path138" />&#10;				</g>&#10;				<g
   id="g141">&#10;					<path
   style="fill:#263238"
   d="m 262.618,330.301 h 37.879 c 0.654,-0.004 1.179,-0.433 1.174,-0.958 -10e-4,-0.099 -0.021,-0.197 -0.06,-0.29 L 284.76,290.421 c -0.426,-1.103 -1.694,-1.857 -3.133,-1.863 h -37.903 c -0.641,0 -1.16,0.417 -1.16,0.932 0,0.108 0.023,0.215 0.069,0.316 l 16.851,38.632 c 0.433,1.1 1.698,1.852 3.134,1.863 z"
   id="path139" />&#10;					<path
   style="opacity:0.7;fill:#ffffff"
   d="m 243.725,288.558 h 37.903 c 1.439,0.005 2.708,0.759 3.133,1.863 l 16.851,38.632 c 0.039,0.094 0.059,0.192 0.06,0.29 0.006,0.525 -0.52,0.953 -1.174,0.958 h -37.879 c -1.437,-0.011 -2.702,-0.763 -3.134,-1.863 l -16.851,-38.632 c -0.046,-0.101 -0.069,-0.208 -0.069,-0.316 0,-0.515 0.519,-0.932 1.16,-0.932 z"
   id="path140" />&#10;					<path
   style="fill:#ffffff"
   d="m 267.2,310.29 c 0.819,1.854 2.478,3.127 3.715,2.868 1.237,-0.259 1.567,-1.949 0.773,-3.808 -0.795,-1.859 -2.473,-3.103 -3.71,-2.844 -1.237,0.259 -1.607,1.881 -0.778,3.784 z"
   id="path141" />&#10;				</g>&#10;				<path
   style="opacity:0.3"
   d="m 281.402,288.558 h 0.225 c 1.439,0.005 2.708,0.759 3.133,1.863 l 16.851,38.632 c 0.039,0.094 0.059,0.192 0.06,0.29 0.006,0.525 -0.52,0.953 -1.174,0.958 h -1.213 z"
   id="path142" />&#10;			</g>&#10;			<g
   id="g149">&#10;				<path
   style="fill:#ebb373"
   d="m 349.854,256.867 c 0,0.71 2.278,25.977 2.278,25.977 -1.419,2.661 -30.634,12.801 -34.373,16.513 l 6.815,7.012 c 0,0 34.759,-7.012 40.371,-11.092 4.788,-3.481 4.385,-9.588 4.385,-17.927 0,-8.339 -1.823,-20.483 -1.823,-20.483 z"
   id="path143" />&#10;				<path
   style="fill:#407bff"
   d="m 352.801,241.276 c -7.176,2.997 -1.698,41.421 -1.698,41.421 l -7.064,2.989 4.341,16.36 c 0,0 8.699,-1.651 17.392,-3.424 9.189,-1.874 10.536,-23.087 5.937,-40.266 -4.599,-17.178 -10.513,-20.586 -18.908,-17.08 z"
   id="path144" />&#10;				<g
   id="g148">&#10;					<path
   style="fill:#ebb373"
   d="m 305.559,317.755 c 0.161,-1.64 2.761,-7.651 4.35,-10.049 1.588,-2.398 7.85,-8.349 7.85,-8.349 l 7.646,4.276 c 0,0 0.268,3.492 -1.897,5.348 -1.249,1.07 -2.587,2.018 -2.587,2.018 0,0 0.35,1.304 0.358,2.763 0.009,1.617 -0.32,3.612 -1.651,3.549 -1.329,-0.062 -1.82,-4.345 -1.884,-4.963 0.062,0.627 0.431,5.011 -1.349,5.164 -1.717,0.148 -2,-4.427 -2,-4.427 0,0 -0.09,2.132 -0.144,3.221 -0.054,1.089 -1.147,2.037 -2.156,0.826 -1.17,-1.404 -1.274,-3.828 -1.274,-3.828 0,0 -0.925,1.418 -2.312,4.508 -0.998,2.225 -3.086,1.329 -2.95,-0.057 z"
   id="path145" />&#10;					&#10;						<path
   style="opacity:0.1;fill:none;stroke:#000000;stroke-width:0.5;stroke-linecap:round;stroke-linejoin:round;stroke-miterlimit:10"
   d="m 317.8,313.167 c -0.04,-0.823 -0.08,-1.652 0.033,-2.468 0.113,-0.816 0.39,-1.628 0.92,-2.26"
   id="path146" />&#10;					&#10;						<path
   style="opacity:0.1;fill:none;stroke:#000000;stroke-width:0.5;stroke-linecap:round;stroke-linejoin:round;stroke-miterlimit:10"
   d="m 314.32,313.746 c -0.04,-0.823 -0.081,-1.652 0.033,-2.468 0.113,-0.816 0.39,-1.628 0.919,-2.26"
   id="path147" />&#10;					&#10;						<path
   style="opacity:0.1;fill:none;stroke:#000000;stroke-width:0.5;stroke-linecap:round;stroke-linejoin:round;stroke-miterlimit:10"
   d="m 310.853,313.443 c -0.04,-0.823 -0.081,-1.652 0.033,-2.468 0.113,-0.816 0.39,-1.628 0.919,-2.26"
   id="path148" />&#10;				</g>&#10;			</g>&#10;		</g>&#10;	</g>&#10;</g><g
   id="Light_Bulb"
   transform="matrix(0.29909038,0,0,0.29909038,-13.830447,-0.80778233)">&#10;	<g
   id="g162">&#10;		<circle
   style="fill:#ffffff;stroke:#263238;stroke-miterlimit:10"
   cx="106.993"
   cy="364.78201"
   r="57.094002"
   id="circle151" />&#10;		<g
   id="g161">&#10;			<g
   id="g156">&#10;				<path
   style="fill:#263238"
   d="m 117.811,401.272 c 0,3.729 -5.185,6.719 -11.49,6.618 -6.305,-0.101 -11.367,-3.147 -11.322,-6.876 0.045,-3.729 5.185,-6.719 11.479,-6.607 6.294,0.112 11.377,3.147 11.333,6.865 z"
   id="path151" />&#10;				<path
   style="fill:#263238"
   d="m 122.738,388.975 c 0.619,-0.587 0.991,-1.388 1.041,-2.24 0,-3.651 -7.694,-6.719 -17.28,-6.809 -9.586,-0.09 -17.392,2.766 -17.437,6.417 0.038,0.846 0.394,1.645 0.997,2.24 -0.181,0.347 -0.284,0.729 -0.302,1.12 0.024,0.853 0.392,1.661 1.019,2.24 -0.203,0.363 -0.315,0.771 -0.325,1.187 0.025,0.86 0.406,1.672 1.053,2.24 -0.226,0.363 -0.35,0.781 -0.358,1.209 0.054,0.849 0.46,1.637 1.12,2.173 -0.237,0.364 -0.368,0.786 -0.381,1.221 0,3.035 6.395,5.599 14.368,5.667 7.974,0.067 14.458,-2.24 14.491,-5.342 -0.002,-0.436 -0.126,-0.863 -0.358,-1.232 0.657,-0.529 1.063,-1.309 1.12,-2.15 -0.004,-0.424 -0.116,-0.84 -0.325,-1.21 0.649,-0.545 1.052,-1.328 1.12,-2.173 -0.003,-0.418 -0.107,-0.829 -0.302,-1.198 0.648,-0.55 1.051,-1.336 1.12,-2.184 -0.036,-0.416 -0.166,-0.818 -0.381,-1.176 z"
   id="path152" />&#10;				<path
   style="opacity:0.3;fill:#ffffff;enable-background:new"
   d="m 122.738,388.975 c 0.619,-0.587 0.991,-1.388 1.041,-2.24 0,-3.651 -7.694,-6.719 -17.28,-6.809 -9.586,-0.09 -17.392,2.766 -17.437,6.417 0.038,0.846 0.394,1.645 0.997,2.24 -0.181,0.347 -0.284,0.729 -0.302,1.12 0.024,0.853 0.392,1.661 1.019,2.24 -0.203,0.363 -0.315,0.771 -0.325,1.187 0.025,0.86 0.406,1.672 1.053,2.24 -0.226,0.363 -0.35,0.781 -0.358,1.209 0.054,0.849 0.46,1.637 1.12,2.173 -0.237,0.364 -0.368,0.786 -0.381,1.221 0,3.035 6.395,5.599 14.368,5.667 7.974,0.067 14.458,-2.24 14.491,-5.342 -0.002,-0.436 -0.126,-0.863 -0.358,-1.232 0.657,-0.529 1.063,-1.309 1.12,-2.15 -0.004,-0.424 -0.116,-0.84 -0.325,-1.21 0.649,-0.545 1.052,-1.328 1.12,-2.173 -0.003,-0.418 -0.107,-0.829 -0.302,-1.198 0.648,-0.55 1.051,-1.336 1.12,-2.184 -0.036,-0.416 -0.166,-0.818 -0.381,-1.176 z"
   id="path153" />&#10;				<path
   style="fill:#407bff"
   d="m 137.117,356.723 c 0.199,-16.964 -13.391,-30.878 -30.355,-31.077 -16.964,-0.199 -30.878,13.391 -31.077,30.355 -0.108,9.206 3.918,17.975 10.971,23.892 1.298,1.07 1.978,2.716 1.814,4.39 -0.006,0.082 -0.006,0.164 0,0.246 0,3.707 7.839,6.809 17.56,6.921 9.721,0.112 17.661,-2.811 17.705,-6.529 0,-0.078 0,-0.157 0,-0.235 -0.151,-1.71 0.569,-3.381 1.915,-4.446 7.147,-5.73 11.354,-14.358 11.467,-23.517 z"
   id="path154" />&#10;				<path
   style="opacity:0.7;fill:#ffffff;enable-background:new"
   d="m 137.117,356.723 c 0.199,-16.964 -13.391,-30.878 -30.355,-31.077 -16.964,-0.199 -30.878,13.391 -31.077,30.355 -0.108,9.206 3.918,17.975 10.971,23.892 1.298,1.07 1.978,2.716 1.814,4.39 -0.006,0.082 -0.006,0.164 0,0.246 0,3.707 7.839,6.809 17.56,6.921 9.721,0.112 17.661,-2.811 17.705,-6.529 0,-0.078 0,-0.157 0,-0.235 -0.151,-1.71 0.569,-3.381 1.915,-4.446 7.147,-5.73 11.354,-14.358 11.467,-23.517 z"
   id="path155" />&#10;				<path
   style="opacity:0.2;fill:#ffffff;enable-background:new"
   d="m 122.672,338.883 c 0,5.98 -6.999,10.841 -15.678,10.841 -8.679,0 -15.678,-4.86 -15.678,-10.841 0,-5.98 6.999,-10.852 15.678,-10.852 8.678,0 15.678,4.861 15.678,10.852 z"
   id="path156" />&#10;			</g>&#10;			<path
   style="fill:none;stroke:#ffffff;stroke-linecap:round;stroke-linejoin:round;stroke-miterlimit:10"
   d="m 82.995,368.039 c -2.673,-4.584 -3.735,-10.086 -2.961,-15.335 0.775,-5.249 3.382,-10.21 7.265,-13.826"
   id="path157" />&#10;			<g
   id="g158">&#10;				<path
   style="fill:#263238"
   d="m 92.215,398.824 c 8.867,3.733 19.108,3.856 28.063,0.341 -8.821,3.823 -19.337,3.694 -28.063,-0.341 z"
   id="path158" />&#10;			</g>&#10;			<g
   id="g159">&#10;				<path
   style="fill:#263238"
   d="m 92.006,395.527 c 8.867,3.733 19.108,3.855 28.063,0.341 -8.821,3.823 -19.337,3.694 -28.063,-0.341 z"
   id="path159" />&#10;			</g>&#10;			<g
   id="g160">&#10;				<path
   style="fill:#263238"
   d="m 91.798,392.23 c 8.867,3.732 19.108,3.855 28.063,0.341 -8.822,3.824 -19.337,3.695 -28.063,-0.341 z"
   id="path160" />&#10;			</g>&#10;			<path
   style="fill:none;stroke:#263238;stroke-miterlimit:10"
   d="m 99.758,384.941 c 2.356,-8.021 2.77,-16.771 1.184,-25.034 -0.256,-1.336 -0.859,-2.945 -2.058,-2.975 -1.072,-0.027 -1.777,1.291 -2.008,2.485 -0.818,4.222 1.371,8.51 4.17,11.426 1.516,1.579 3.353,2.955 5.404,3.056 2.058,0.101 4.023,-1.118 5.513,-2.74 2.852,-3.105 4.272,-7.968 3.239,-12.306 -0.437,-1.834 -1.739,-3.805 -3.377,-3.455 -0.987,0.211 -1.709,1.254 -1.963,2.361 -0.254,1.107 -0.13,2.277 0.015,3.41 1.043,8.167 3.037,16.175 5.912,23.749"
   id="path161" />&#10;		</g>&#10;	</g>&#10;</g><g
   id="Character_2_00000164471631664118870440000013567350606425697931_"
   transform="matrix(0.29909038,0,0,0.29909038,-13.830447,-0.80778233)">&#10;	<g
   id="g262">&#10;		<g
   id="g195">&#10;			<path
   style="fill:#263238;enable-background:new"
   d="m 422.526,410.165 c 0,0 98.635,-23.108 103.326,-2.564 6.697,29.326 -64.469,49.054 -102.374,47.846 -37.904,-1.208 -0.952,-45.282 -0.952,-45.282 z"
   id="path162" />&#10;			<path
   style="opacity:0.2;enable-background:new"
   d="m 422.526,410.165 c 0,0 98.635,-23.108 103.326,-2.564 6.697,29.326 -64.469,49.054 -102.374,47.846 -37.904,-1.208 -0.952,-45.282 -0.952,-45.282 z"
   id="path163" />&#10;			<path
   style="opacity:0.7;enable-background:new"
   d="m 493.488,413.94 -46.321,29.438 6.182,8.785 c 0,0 -3.256,4.825 -9.455,-9.998 l 28.658,-18.944 c 0,0 -8.97,-0.9 -8.745,-2.303 0.381,-2.303 20.087,-6.684 29.074,-8.658 0.464,-0.167 0.975,0.073 1.143,0.537 0.169,0.463 -0.072,0.975 -0.536,1.143 z"
   id="path164" />&#10;			<path
   style="opacity:0.7;enable-background:new"
   d="m 445.488,440.06 8.035,13.02 c -9.909,1.73 -19.972,2.523 -30.044,2.366 -3.311,-0.02 -6.591,-0.615 -9.68,-1.754 l -2.823,-5.162 6.078,-12.226 z"
   id="path165" />&#10;			<g
   id="g194">&#10;				<g
   id="g168">&#10;					<g
   id="g167">&#10;						<g
   id="g166">&#10;							<g
   id="g165">&#10;								<polygon
   style="fill:#b97964"
   points="460.824,434.883 440.221,447.949 443.913,457.948 468.103,447.078 "
   id="polygon165" />&#10;							</g>&#10;						</g>&#10;					</g>&#10;				</g>&#10;				<g
   id="g192">&#10;					<g
   id="g191">&#10;						<g
   id="g190">&#10;							<g
   id="g189">&#10;								<g
   id="g188">&#10;									<g
   id="g187">&#10;										<g
   id="g174">&#10;											<g
   id="g173">&#10;												<g
   id="g172">&#10;													<g
   id="g171">&#10;														<g
   id="g170">&#10;															<g
   id="g169">&#10;																<path
   style="fill:#263238"
   d="m 428.88,451.298 2.022,7.192 c 0,0 1.519,0.32 1.992,1.833 0.266,0.85 -0.36,3.194 -0.36,3.194 l 5.415,19.818 c 0.029,-0.008 1.359,-0.367 1.887,-0.748 0.643,-0.464 1.165,-0.94 1.583,-1.422 1.463,-1.691 1.624,-4.14 1.679,-5.954 0.091,-3.041 1.839,-11.924 1.839,-11.924 0,0 0.667,-2.314 3.111,-4.353 1.363,-1.137 1.993,-2.572 1.866,-3.461 -0.257,-1.813 -1.559,-2.493 -3.254,-2.289 l -1.969,0.24 c -1.407,-1.048 -1.839,-2.82 -0.948,-4.528 0,0 1.164,-4.317 -0.646,-3.591 -1.033,0.415 -5.581,2.444 -9.222,3.94 -0.848,0.349 -1.652,0.678 -2.356,0.967 v 0.002 c -1.565,0.641 -2.639,1.084 -2.639,1.084 z"
   id="path168" />&#10;															</g>&#10;														</g>&#10;													</g>&#10;												</g>&#10;											</g>&#10;										</g>&#10;										<g
   id="g178">&#10;											<g
   id="g177">&#10;												<g
   id="g176">&#10;													<g
   id="g175">&#10;														<path
   style="fill:#407bff"
   d="m 444.176,468.023 c 0.056,-0.111 0.026,-0.25 -0.067,-0.336 -0.425,-0.391 -0.95,-0.672 -1.544,-0.796 -0.313,-0.065 -0.456,0.437 -0.14,0.503 0.528,0.11 0.991,0.355 1.363,0.696 0.124,0.114 0.31,0.086 0.385,-0.063 0.002,-10e-4 0.003,-0.002 0.003,-0.004 z"
   id="path174" />&#10;													</g>&#10;												</g>&#10;											</g>&#10;										</g>&#10;										<g
   id="g182">&#10;											<g
   id="g181">&#10;												<g
   id="g180">&#10;													<g
   id="g179">&#10;														<path
   style="fill:#407bff"
   d="m 444.581,466.269 c 0.056,-0.111 0.026,-0.25 -0.067,-0.336 -0.426,-0.391 -0.95,-0.672 -1.544,-0.796 -0.313,-0.065 -0.456,0.437 -0.14,0.504 0.527,0.11 0.99,0.355 1.363,0.696 0.125,0.114 0.31,0.086 0.385,-0.063 0.002,-0.002 0.003,-0.003 0.003,-0.005 z"
   id="path178" />&#10;													</g>&#10;												</g>&#10;											</g>&#10;										</g>&#10;										<g
   id="g186">&#10;											<g
   id="g185">&#10;												<g
   id="g184">&#10;													<g
   id="g183">&#10;														<path
   style="fill:#407bff"
   d="m 444.917,464.483 c 0.056,-0.111 0.026,-0.25 -0.067,-0.336 -0.425,-0.391 -0.95,-0.672 -1.544,-0.796 -0.313,-0.065 -0.456,0.437 -0.14,0.504 0.528,0.11 0.99,0.355 1.363,0.696 0.125,0.114 0.31,0.086 0.385,-0.063 0.002,-0.002 0.003,-0.004 0.003,-0.005 z"
   id="path182" />&#10;													</g>&#10;												</g>&#10;											</g>&#10;										</g>&#10;									</g>&#10;								</g>&#10;							</g>&#10;						</g>&#10;					</g>&#10;				</g>&#10;				<g
   id="g193">&#10;					<path
   style="opacity:0.2;fill:#ffffff;enable-background:new"
   d="m 431.518,450.211 v 0.002 c -1.564,0.642 -2.638,1.084 -2.638,1.084 l 2.022,7.192 c 0,0 1.519,0.32 1.992,1.833 0.266,0.85 -0.36,3.194 -0.36,3.194 l 5.415,19.818 c 0.029,-0.008 1.359,-0.367 1.887,-0.748 0.296,-0.213 0.559,-0.429 0.805,-0.647 l -8.729,-31.889 c -0.13,0.053 -0.271,0.111 -0.394,0.161 z"
   id="path192" />&#10;				</g>&#10;				<path
   style="fill:none;stroke:#407bff;stroke-width:0.25;stroke-miterlimit:10"
   d="m 444.638,464.362 c 0.671,-0.248 1.346,-0.497 2.05,-0.624 0.704,-0.127 1.445,-0.126 2.118,0.119 0.313,0.114 0.637,0.318 0.704,0.644 0.071,0.342 -0.174,0.675 -0.458,0.878 -0.547,0.391 -1.268,0.486 -1.929,0.361 -0.661,-0.125 -1.938,-0.987 -2.485,-1.378"
   id="path193" />&#10;				<path
   style="fill:none;stroke:#407bff;stroke-width:0.25;stroke-miterlimit:10"
   d="m 444.615,464.278 c 0.561,-0.444 1.124,-0.892 1.599,-1.427 0.474,-0.535 0.859,-1.169 0.999,-1.871 0.065,-0.326 0.059,-0.709 -0.184,-0.936 -0.255,-0.239 -0.667,-0.202 -0.988,-0.065 -0.618,0.264 -1.075,0.831 -1.311,1.46 -0.237,0.629 -0.165,2.168 -0.115,2.839"
   id="path194" />&#10;			</g>&#10;		</g>&#10;		<path
   style="fill:#b97964"
   d="m 463.278,347.408 c 0,0 3.602,32.069 4.565,33.789 3.255,5.818 24.821,15.794 24.821,15.794 l 10.996,-2.303 7.879,6.58 -5.195,4.069 -6.095,-2.303 c -3.326,0.594 -6.699,0.889 -10.078,0.883 -5.68,0 -33.069,-6.942 -37.641,-14.578 -4.572,-7.637 -6.672,-42.998 -6.672,-42.998 z"
   id="path195" />&#10;		<g
   id="g220">&#10;			<path
   style="fill:#407bff"
   d="m 445.391,360.013 c 0,0 -8.45,-28.163 2.078,-35.982 10.528,-7.819 18.901,30.903 18.901,30.903 z"
   id="path196" />&#10;			<path
   style="opacity:0.5;fill:#ffffff"
   d="m 445.391,360.013 c 0,0 -8.45,-28.163 2.078,-35.982 10.528,-7.819 18.901,30.903 18.901,30.903 z"
   id="path197" />&#10;			<path
   style="fill:#407bff"
   d="m 452.059,411.526 -0.082,-37.328 -0.802,-51.111 -22.055,-4.784 -19.194,-0.847 -21.841,9.994 -0.51,12.541 c 0,0 2.498,57.588 2.358,59.324 -0.172,2.128 -6.367,15.486 -6.367,15.486 27.593,6.288 68.927,-1.372 68.493,-3.275 z"
   id="path198" />&#10;			<path
   style="opacity:0.5;fill:#ffffff"
   d="m 452.059,411.526 -0.082,-37.328 -0.802,-51.111 -22.055,-4.784 -19.194,-0.847 -21.841,9.994 -0.51,12.541 c 0,0 2.498,57.588 2.358,59.324 -0.172,2.128 -6.367,15.486 -6.367,15.486 27.593,6.288 68.927,-1.372 68.493,-3.275 z"
   id="path199" />&#10;			<g
   id="g213">&#10;				<g
   id="g200">&#10;					<path
   style="fill:#263238"
   d="m 450.023,287.382 c 1.211,-0.116 2.25,-1.21 2.304,-2.425 0.054,-1.215 -0.885,-2.397 -2.081,-2.619 l -5.655,-0.567 c 0.269,3.63 0.538,7.26 0.807,10.889 1.094,0.282 2.272,0.339 3.341,-0.027 1.069,-0.367 2.009,-1.2 2.331,-2.283 0.324,-1.082 -0.077,-2.387 -1.047,-2.968 z"
   id="path200" />&#10;				</g>&#10;				<g
   id="g202">&#10;					<path
   style="fill:#b97964"
   d="m 428.416,308.316 -12.15,-15.289 c 0,0 -0.005,0.012 -0.008,0.053 -0.003,1.445 -0.049,3.097 -0.168,4.859 -0.005,0.012 -1.305,-0.624 -1.31,-0.612 -0.52,7.944 -3.661,21.495 -3.516,22.667 l 12.768,6.344 h 2.565 l 0.209,-7.493 c -1.283,-3.235 -0.073,-7.007 1.61,-10.529 z"
   id="path201" />&#10;					<path
   style="opacity:0.2"
   d="m 426.597,313.473 -7.685,-6.074 c -0.191,3.091 1.424,7.948 7.587,10.473 -0.364,-1.859 -0.242,-3.177 0.098,-4.399 z"
   id="path202" />&#10;				</g>&#10;				<g
   id="g210">&#10;					<path
   style="fill:#b97964"
   d="m 418.86,285.448 c -2.515,10.289 -3.462,15.23 0.053,21.951 5.286,10.11 18.199,10.197 23.752,0.839 4.999,-8.423 8.271,-23.832 -0.413,-30.83 -8.556,-6.894 -20.878,-2.248 -23.392,8.04 z"
   id="path203" />&#10;					<path
   style="fill:#263238"
   d="m 421.031,271.484 c 3.113,-5.133 11.264,-5.966 14.276,-1.914 0.45,0.605 -4.419,0.752 -3.862,0.725 l -2.854,8.105 c -0.557,-0.319 -1.951,0.016 -3.138,1.687 0,0 -1.836,11.15 -7.613,14.269 -5.674,-7.828 -5.026,-22.857 3.191,-22.872 z"
   id="path204" />&#10;					<path
   style="fill:#b97964"
   d="m 412.259,292.626 c 0,2.85 1.325,5.424 3.019,7.041 2.548,2.432 5.506,0.551 6.208,-2.718 0.632,-2.943 0.068,-7.754 -3.168,-8.948 -3.188,-1.175 -6.059,1.367 -6.059,4.625 z"
   id="path205" />&#10;					<path
   style="fill:#263238"
   d="m 432.791,294.07 c -0.321,1.033 -0.031,2.035 0.647,2.239 0.678,0.203 1.488,-0.469 1.809,-1.502 0.321,-1.033 0.031,-2.035 -0.647,-2.239 -0.678,-0.204 -1.488,0.469 -1.809,1.502 z"
   id="path206" />&#10;					<path
   style="fill:#263238"
   d="m 442.924,297.362 c -0.321,1.033 -0.031,2.035 0.647,2.239 0.678,0.203 1.488,-0.469 1.81,-1.503 0.321,-1.033 0.031,-2.036 -0.647,-2.239 -0.679,-0.202 -1.489,0.47 -1.81,1.503 z"
   id="path207" />&#10;					<path
   style="fill:#a24e3f"
   d="m 439.357,294.602 c 0,0 1.284,4.708 1.872,7.503 0.141,0.669 -0.359,1.321 -1.042,1.34 -1.489,0.04 -2.886,-0.794 -2.886,-0.794 z"
   id="path208" />&#10;					<path
   style="fill:#263238"
   d="m 431.711,287.872 c 0.136,0.112 0.328,0.15 0.506,0.083 2.122,-0.8 3.647,0.274 3.662,0.285 0.227,0.164 0.545,0.114 0.711,-0.111 0.166,-0.225 0.115,-0.54 -0.11,-0.704 -0.08,-0.058 -1.99,-1.404 -4.622,-0.411 -0.263,0.099 -0.395,0.39 -0.296,0.65 0.032,0.084 0.084,0.154 0.149,0.208 z"
   id="path209" />&#10;					<path
   style="fill:#263238"
   d="m 448.301,292.662 c 0.095,-0.014 0.187,-0.055 0.265,-0.125 0.209,-0.187 0.229,-0.508 0.045,-0.716 -1.852,-2.09 -4.153,-1.74 -4.259,-1.737 -0.276,0.044 -0.467,0.303 -0.427,0.579 0.04,0.276 0.295,0.464 0.569,0.424 0.095,-0.018 1.872,-0.266 3.358,1.412 0.117,0.131 0.288,0.186 0.449,0.163 z"
   id="path210" />&#10;				</g>&#10;				<g
   id="g211">&#10;					<path
   style="fill:#263238"
   d="m 431.939,304.756 c 0.353,0.289 0.731,0.545 1.13,0.766 0.129,0.069 0.289,0.034 0.379,-0.082 v 0 c 0.059,-0.139 0.004,-0.3 -0.126,-0.375 -2.065,-1.109 -3.476,-3.138 -3.798,-5.46 -0.017,-0.144 -0.141,-0.252 -0.287,-0.247 -0.132,-0.007 -0.245,0.095 -0.251,0.227 -10e-4,0.02 0,0.04 0.005,0.06 0.243,2.035 1.308,3.882 2.948,5.111 z"
   id="path211" />&#10;				</g>&#10;				<g
   id="g212">&#10;					<path
   style="fill:#263238"
   d="m 455.124,279.708 c -0.692,-2.055 -3.139,-2.918 -5.302,-3.073 1.357,-0.026 2.424,-1.403 2.427,-2.76 0.003,-1.357 -0.837,-2.602 -1.905,-3.44 -1.907,-1.497 -4.626,-1.886 -6.876,-0.982 0.426,-0.206 0.579,-0.773 0.442,-1.226 -0.137,-0.453 -0.493,-0.805 -0.869,-1.092 -2.29,-1.749 -5.837,-1.574 -7.943,0.392 -0.736,-2.49 -3.619,-4.119 -6.131,-3.464 -2.45,0.638 -7.067,1.13 -7.781,7.401 -2.077,-1.477 -5.301,-1.163 -6.944,0.822 -1.776,2.145 -1.316,5.761 0.941,7.392 -1.12,-0.472 -2.512,0.255 -2.973,1.38 -0.461,1.124 -0.104,2.47 0.677,3.401 0.781,0.93 1.923,1.494 3.092,1.827 1.101,0.314 2.291,0.442 3.384,0.103 1.093,-0.339 2.066,-1.216 2.284,-2.339 0.185,1.178 1.422,2.052 2.608,1.927 1.186,-0.125 2.185,-1.153 2.38,-2.329 0.194,-1.177 -0.367,-2.418 -1.316,-3.14 1.349,1.307 3.96,0.793 4.712,-0.929 1,1.92 2.426,3.732 4.414,4.589 1.988,0.857 4.607,0.496 5.878,-1.256 0.646,0.752 1.305,1.516 2.14,2.05 0.835,0.534 1.889,0.814 2.833,0.512 0.945,-0.302 1.687,-1.301 1.487,-2.272 1.562,1.302 3.761,1.978 5.684,1.318 1.924,-0.662 3.306,-2.885 2.657,-4.812 z"
   id="path212" />&#10;				</g>&#10;			</g>&#10;			<path
   style="fill:#407bff"
   d="m 420.807,325.729 c 0,0 5.355,4.768 8.096,-1.395 l 1.428,1.112 c 0,0 -0.139,4.585 -2.736,6.118 0.63,2.544 11.501,39.567 13.447,58.227 l -2.972,7.566 -7.894,-6.231 c 0,0 -3.832,-32.014 -5.144,-59.212 -3.161,-1.071 -5.662,-3.442 -6.823,-6.468 z"
   id="path213" />&#10;			<polygon
   style="opacity:0.2"
   points="427.715,326.351 432.356,329.961 433.115,319.126 431.641,318.811 430.415,326.114 428.208,324.831 "
   id="polygon213" />&#10;			<path
   style="opacity:0.2"
   d="m 405.352,319.549 c -0.078,0.036 10.929,13.457 10.929,13.457 l 3.736,-2.845 2.569,-2.176 0.667,-0.82 -14.569,-10.12 c 0,0 -1.953,1.994 -2.154,1.994 -0.201,0 -1.178,0.51 -1.178,0.51 z"
   id="path214" />&#10;			<polygon
   style="fill:#407bff"
   points="426.029,328.208 422.218,326.859 416.667,331.125 406.135,319.321 411.459,314.568 "
   id="polygon214" />&#10;			<path
   style="fill:#407bff"
   d="m 426.029,328.208 c -0.323,-0.616 0.315,-12.763 0.315,-12.763 l 6.013,3.286 c -0.274,-0.056 -0.455,10.242 -0.621,10.242 -0.167,0 -3.42,-3.517 -3.42,-3.517 z"
   id="path215" />&#10;			<path
   style="fill:#263238"
   d="M 423.054,331.028"
   id="path216" />&#10;			<polygon
   style="opacity:0.2"
   points="451.667,358.493 450.539,334.42 455.923,357.463 "
   id="polygon216" />&#10;			<path
   style="opacity:0.2"
   d="m 404.975,362 c 0.68,-0.133 4.119,-1.26 4.119,-1.26 l -7.645,-21.269 10.496,23.529 -6.31,2.511 z"
   id="path217" />&#10;			<polygon
   style="opacity:0.5;fill:#ffffff"
   points="426.029,328.208 422.218,326.859 416.667,331.125 406.135,319.321 411.459,314.568 "
   id="polygon217" />&#10;			<path
   style="opacity:0.5;fill:#ffffff"
   d="m 426.029,328.208 c -0.323,-0.616 0.315,-12.763 0.315,-12.763 l 6.013,3.286 c -0.274,-0.056 -0.455,10.242 -0.621,10.242 -0.167,0 -3.42,-3.517 -3.42,-3.517 z"
   id="path218" />&#10;			<polygon
   style="opacity:0.3;fill:#ffffff"
   points="443.856,362.705 448.673,358.505 447.792,347.163 434.291,348.115 436.736,360.125 "
   id="polygon218" />&#10;			<path
   style="fill:#407bff"
   d="m 426.894,327.166 -2.254,0.55 c -0.007,-0.003 -0.086,0.142 -0.031,0.052 0.031,-0.052 -1.233,4.27 -1.233,4.27 0.364,0.322 1.576,2.416 1.716,2.382 0.14,-0.034 3.133,-0.312 3.133,-0.312 l 1.086,-3.169 c 0,-0.001 -2.435,-3.8 -2.417,-3.773 z"
   id="path219" />&#10;			<path
   style="opacity:0.2"
   d="m 426.894,327.166 -2.254,0.55 c -0.007,-0.003 -0.086,0.142 -0.031,0.052 0.031,-0.052 -1.233,4.27 -1.233,4.27 0.364,0.322 1.576,2.416 1.716,2.382 0.14,-0.034 3.133,-0.312 3.133,-0.312 l 1.086,-3.169 c 0,-0.001 -2.435,-3.8 -2.417,-3.773 z"
   id="path220" />&#10;		</g>&#10;		<g
   id="g224">&#10;			<path
   style="fill:#b97964"
   d="m 402.02,344.361 c 0,0 5.351,35.603 8.441,38.931 5.222,5.624 31.092,20.547 31.092,20.547 l 12.912,-4.527 c 0.905,-0.297 1.906,-0.135 2.645,0.43 l 8.828,6.738 -0.843,0.711 c -0.364,0.307 -0.891,0.369 -1.321,0.156 l -1.372,-0.683 1.534,1.504 -0.486,0.41 c -0.483,0.408 -1.154,0.554 -1.775,0.388 l -3.948,-1.059 3.643,2.425 c -0.813,0.686 -1.945,0.924 -2.984,0.627 l -5.775,-1.646 c -3.938,0.901 -7.951,1.476 -11.991,1.718 -6.8,0.419 -38.913,-10.802 -44.898,-19.017 -5.985,-8.215 -12.157,-42.326 -12.157,-42.326 z"
   id="path221" />&#10;			<g
   id="g223">&#10;				<path
   style="fill:#407bff"
   d="m 384.933,368.046 c 0,0 -8.002,-32.267 2.526,-40.086 10.528,-7.819 20.956,33.002 20.956,33.002 z"
   id="path222" />&#10;				<path
   style="opacity:0.5;fill:#ffffff"
   d="m 384.933,368.046 c 0,0 -8.002,-32.267 2.526,-40.086 10.528,-7.819 20.956,33.002 20.956,33.002 z"
   id="path223" />&#10;			</g>&#10;		</g>&#10;		<g
   id="g229">&#10;			<g
   id="g225">&#10;				<path
   style="fill:#263238"
   d="m 471.109,409.06 h -19.86 -21.073 c 0,0.005 0,0.009 0,0.013 0.01,1.563 1.756,2.824 3.898,2.816 h 21.055 12.044 c 0.018,0 0.037,0 0.056,0 0.001,0 0.002,0 0.003,0 h 33.519 c 2.125,-0.015 3.835,-1.28 3.825,-2.83 h -33.467 z"
   id="path224" />&#10;			</g>&#10;			<path
   style="fill:#263238"
   d="M 501.365,411.73 H 463.97 c -0.645,-0.004 -1.164,-0.428 -1.159,-0.946 0.001,-0.097 0.021,-0.194 0.059,-0.286 l 16.635,-38.138 c 0.42,-1.089 1.673,-1.834 3.093,-1.839 h 37.418 c 0.633,0 1.146,0.412 1.145,0.92 0,0.106 -0.023,0.212 -0.068,0.312 l -16.635,38.138 c -0.427,1.086 -1.675,1.828 -3.093,1.839 z"
   id="path225" />&#10;			<path
   style="opacity:0.7;fill:#ffffff;enable-background:new"
   d="m 520.016,370.521 h -37.417 c -1.421,0.005 -2.673,0.75 -3.093,1.839 l -16.008,36.7 H 451.25 430.177 c 0,0.004 0,0.009 0,0.013 0.01,1.563 1.756,2.824 3.898,2.816 h 21.055 12.044 c 0.018,0 0.037,0 0.056,0 10e-4,0 0.002,0 0.003,0 h 33.519 c 0.674,-0.005 1.297,-0.146 1.845,-0.371 0.87,-0.293 1.566,-0.874 1.861,-1.627 l 16.635,-38.138 c 0.045,-0.1 0.068,-0.206 0.068,-0.312 0.001,-0.508 -0.512,-0.92 -1.145,-0.92 z"
   id="path226" />&#10;			<path
   style="fill:#ffffff"
   d="m 497.544,390.825 c -0.808,1.83 -2.446,3.087 -3.667,2.831 -1.221,-0.256 -1.547,-1.924 -0.763,-3.759 0.784,-1.835 2.441,-3.063 3.662,-2.807 1.222,0.256 1.586,1.857 0.768,3.735 z"
   id="path227" />&#10;			<g
   style="opacity:0.3"
   id="g228">&#10;				&#10;					<line
   style="fill:none;stroke:#000000;stroke-width:0;stroke-linecap:round;stroke-linejoin:round"
   x1="462.811"
   y1="409.06"
   x2="463.49701"
   y2="409.06"
   id="line227" />&#10;				<path
   d="m 479.505,372.36 -16.008,36.7 h 1.733 l 17.368,-38.539 c -1.42,0.005 -2.673,0.75 -3.093,1.839 z"
   id="path228" />&#10;			</g>&#10;		</g>&#10;		<g
   id="g261">&#10;			<g
   id="g259">&#10;				<g
   id="g233">&#10;					<g
   id="g232">&#10;						<g
   id="g231">&#10;							<g
   id="g230">&#10;								<polygon
   style="fill:#b97964"
   points="481.437,451.36 505.523,455.237 509.388,445.303 484.072,437.405 "
   id="polygon229" />&#10;							</g>&#10;						</g>&#10;					</g>&#10;				</g>&#10;				<g
   id="g257">&#10;					<g
   id="g256">&#10;						<g
   id="g255">&#10;							<g
   id="g254">&#10;								<g
   id="g253">&#10;									<g
   id="g252">&#10;										<g
   id="g239">&#10;											<g
   id="g238">&#10;												<g
   id="g237">&#10;													<g
   id="g236">&#10;														<g
   id="g235">&#10;															<g
   id="g234">&#10;																<path
   style="fill:#263238"
   d="m 516.234,460.248 3.253,-6.725 c 0,0 -0.925,-1.246 -0.276,-2.693 0.365,-0.813 2.387,-2.153 2.387,-2.153 l 9.085,-18.427 c -0.027,-0.013 -1.261,-0.626 -1.908,-0.691 -0.789,-0.079 -1.495,-0.069 -2.128,0.015 -2.216,0.296 -3.961,2.023 -5.204,3.345 -2.085,2.216 -9.282,7.708 -9.282,7.708 0,0 -2.033,1.291 -5.214,1.197 -1.774,-0.052 -3.197,0.605 -3.691,1.354 -1.01,1.527 -0.486,2.9 0.919,3.871 l 1.633,1.125 c 0.358,1.718 -0.493,3.33 -2.292,4.018 0,0 -3.734,2.46 -1.897,3.116 1.048,0.374 5.799,1.87 9.516,3.165 0.867,0.301 1.686,0.587 2.405,0.838 l 0.001,-0.002 c 1.595,0.559 2.693,0.939 2.693,0.939 z"
   id="path233" />&#10;															</g>&#10;														</g>&#10;													</g>&#10;												</g>&#10;											</g>&#10;										</g>&#10;										<g
   id="g243">&#10;											<g
   id="g242">&#10;												<g
   id="g241">&#10;													<g
   id="g240">&#10;														<path
   style="fill:#407bff"
   d="m 515.87,437.586 c -0.115,0.047 -0.185,0.17 -0.172,0.296 0.06,0.575 0.266,1.133 0.628,1.619 0.191,0.257 0.631,-0.025 0.438,-0.284 -0.322,-0.432 -0.506,-0.922 -0.559,-1.425 -0.018,-0.168 -0.175,-0.27 -0.33,-0.208 -10e-4,10e-4 -0.003,10e-4 -0.005,0.002 z"
   id="path239" />&#10;													</g>&#10;												</g>&#10;											</g>&#10;										</g>&#10;										<g
   id="g247">&#10;											<g
   id="g246">&#10;												<g
   id="g245">&#10;													<g
   id="g244">&#10;														<path
   style="fill:#407bff"
   d="m 514.404,438.631 c -0.115,0.046 -0.185,0.17 -0.172,0.296 0.06,0.575 0.266,1.133 0.628,1.619 0.191,0.256 0.631,-0.025 0.438,-0.284 -0.322,-0.432 -0.506,-0.922 -0.559,-1.425 -0.018,-0.168 -0.175,-0.27 -0.33,-0.208 -10e-4,0 -0.003,10e-4 -0.005,0.002 z"
   id="path243" />&#10;													</g>&#10;												</g>&#10;											</g>&#10;										</g>&#10;										<g
   id="g251">&#10;											<g
   id="g250">&#10;												<g
   id="g249">&#10;													<g
   id="g248">&#10;														<path
   style="fill:#407bff"
   d="m 512.968,439.745 c -0.115,0.046 -0.186,0.17 -0.172,0.296 0.059,0.575 0.266,1.133 0.628,1.619 0.191,0.256 0.631,-0.025 0.438,-0.284 -0.322,-0.432 -0.506,-0.922 -0.559,-1.425 -0.018,-0.168 -0.175,-0.27 -0.33,-0.208 -10e-4,0.001 -0.003,0.001 -0.005,0.002 z"
   id="path247" />&#10;													</g>&#10;												</g>&#10;											</g>&#10;										</g>&#10;									</g>&#10;								</g>&#10;							</g>&#10;						</g>&#10;					</g>&#10;				</g>&#10;				<path
   style="opacity:0.2;fill:#ffffff;enable-background:new"
   d="m 519.212,450.831 c 0.365,-0.813 2.387,-2.152 2.387,-2.152 l 9.085,-18.427 c -0.027,-0.013 -1.261,-0.626 -1.908,-0.691 -0.363,-0.036 -0.703,-0.049 -1.031,-0.049 l -14.606,29.661 c 0.132,0.046 0.275,0.096 0.401,0.14 l 0.001,-10e-4 c 1.596,0.557 2.694,0.937 2.694,0.937 l 3.253,-6.725 c -0.001,-10e-4 -0.925,-1.247 -0.276,-2.693 z"
   id="path257" />&#10;				<path
   style="fill:none;stroke:#407bff;stroke-width:0.25;stroke-miterlimit:10"
   d="m 513.098,440.021 c -0.667,-0.259 -1.337,-0.52 -1.949,-0.892 -0.611,-0.372 -1.165,-0.864 -1.506,-1.493 -0.159,-0.293 -0.266,-0.66 -0.1,-0.949 0.174,-0.303 0.578,-0.39 0.925,-0.354 0.669,0.07 1.272,0.477 1.683,1.009 0.411,0.532 0.797,2.024 0.947,2.679"
   id="path258" />&#10;				<path
   style="fill:none;stroke:#407bff;stroke-width:0.25;stroke-miterlimit:10"
   d="m 513.059,440.099 c -0.714,-0.039 -1.433,-0.078 -2.143,0.009 -0.71,0.087 -1.418,0.306 -1.988,0.738 -0.265,0.201 -0.515,0.492 -0.483,0.823 0.033,0.348 0.365,0.593 0.697,0.704 0.638,0.212 1.355,0.091 1.949,-0.224 0.595,-0.315 1.561,-1.515 1.968,-2.05"
   id="path259" />&#10;			</g>&#10;			<path
   style="fill:#263238"
   d="m 390.925,440.377 c -5.195,-8.272 -16.936,-30.693 6.891,-35.061 23.827,-4.368 103.435,33.464 103.435,33.464 l -5.044,15.193 -74.096,-11.68 c 0,0 10.139,13.535 -2.158,12.918 -17.888,-1.77 -22.182,-6.049 -29.028,-14.834 z"
   id="path260" />&#10;			<path
   style="opacity:0.7;enable-background:new"
   d="m 423.869,442.7 -20.328,-6.396 c 0,0 17.053,10.433 23.309,11.674 z"
   id="path261" />&#10;		</g>&#10;	</g>&#10;</g></svg>
