<?xml version="1.0" encoding="UTF-8" standalone="no"?>
<!-- Created with Inkscape (http://www.inkscape.org/) -->

<svg
   width="1280mm"
   height="998mm"
   viewBox="0 0 1280 998"
   version="1.1"
   id="svg1"
   inkscape:version="1.3 (0e150ed6c4, 2023-07-21)"
   sodipodi:docname="MenuPrincipal.svg"
   xmlns:inkscape="http://www.inkscape.org/namespaces/inkscape"
   xmlns:sodipodi="http://sodipodi.sourceforge.net/DTD/sodipodi-0.dtd"
   xmlns="http://www.w3.org/2000/svg"
   xmlns:svg="http://www.w3.org/2000/svg">
  <sodipodi:namedview
     id="namedview1"
     pagecolor="#ffffff"
     bordercolor="#000000"
     borderopacity="0.25"
     inkscape:showpageshadow="2"
     inkscape:pageopacity="0.0"
     inkscape:pagecheckerboard="true"
     inkscape:deskcolor="#d1d1d1"
     inkscape:document-units="mm"
     inkscape:zoom="0.12929276"
     inkscape:cx="970.66533"
     inkscape:cy="2393.7922"
     inkscape:window-width="2560"
     inkscape:window-height="1017"
     inkscape:window-x="1912"
     inkscape:window-y="-8"
     inkscape:window-maximized="1"
     inkscape:current-layer="layer1" />
  <defs
     id="defs1" />
  <g
     inkscape:label="Capa 1"
     inkscape:groupmode="layer"
     id="layer1">
    <g
       id="Background_Complete"
       transform="matrix(2.4990007,0,0,2.4990007,19.755015,-125.25043)">&#10;	<g
   id="g8">&#10;		<rect
   y="382.39801"
   style="fill:#ebebeb"
   width="500"
   height="0.25"
   id="rect1"
   x="0" />
&#10;		<rect
   x="416.77899"
   y="398.49399"
   style="fill:#ebebeb"
   width="33.122002"
   height="0.25"
   id="rect2" />
&#10;		<rect
   x="322.52701"
   y="401.20801"
   style="fill:#ebebeb"
   width="8.6929998"
   height="0.25"
   id="rect3" />
&#10;		<rect
   x="396.586"
   y="389.20801"
   style="fill:#ebebeb"
   width="19.191999"
   height="0.25"
   id="rect4" />
&#10;		<rect
   x="52.459"
   y="390.888"
   style="fill:#ebebeb"
   width="43.193001"
   height="0.25"
   id="rect5" />
&#10;		<rect
   x="104.556"
   y="390.888"
   style="fill:#ebebeb"
   width="6.3330002"
   height="0.25"
   id="rect6" />
&#10;		<rect
   x="131.47099"
   y="395.11099"
   style="fill:#ebebeb"
   width="93.676003"
   height="0.25"
   id="rect7" />
&#10;		<path
   style="fill:#ebebeb"
   d="M 237.014,337.8 H 43.915 c -3.147,0 -5.708,-2.561 -5.708,-5.708 V 60.66 c 0,-3.147 2.561,-5.708 5.708,-5.708 h 193.099 c 3.146,0 5.707,2.561 5.707,5.708 v 271.432 c 0,3.147 -2.561,5.708 -5.707,5.708 z M 43.915,55.203 c -3.01,0 -5.458,2.448 -5.458,5.458 v 271.432 c 0,3.01 2.448,5.458 5.458,5.458 h 193.099 c 3.009,0 5.457,-2.448 5.457,-5.458 V 60.66 c 0,-3.009 -2.448,-5.458 -5.457,-5.458 H 43.915 Z"
   id="path7" />
&#10;		<path
   style="fill:#ebebeb"
   d="M 453.31,337.8 H 260.212 c -3.147,0 -5.707,-2.561 -5.707,-5.708 V 60.66 c 0,-3.147 2.561,-5.708 5.707,-5.708 H 453.31 c 3.148,0 5.708,2.561 5.708,5.708 v 271.432 c 0.001,3.147 -2.56,5.708 -5.708,5.708 z M 260.212,55.203 c -3.009,0 -5.457,2.448 -5.457,5.458 v 271.432 c 0,3.01 2.448,5.458 5.457,5.458 H 453.31 c 3.01,0 5.458,-2.448 5.458,-5.458 V 60.66 c 0,-3.009 -2.448,-5.458 -5.458,-5.458 H 260.212 Z"
   id="path8" />
&#10;	</g>
&#10;	<g
   id="g88">&#10;		<g
   id="g17">&#10;			&#10;				<rect
   x="85.990997"
   y="74.961998"
   transform="rotate(90,148.76895,155.75015)"
   style="fill:#e0e0e0"
   width="125.557"
   height="161.576"
   id="rect8" />
&#10;			&#10;				<rect
   x="70.220001"
   y="95.211998"
   transform="rotate(180,148.76895,155.75035)"
   style="fill:#ebebeb"
   width="157.097"
   height="121.078"
   id="rect9" />
&#10;			<line
   style="fill:none;stroke:#e0e0e0;stroke-miterlimit:10"
   x1="146.133"
   y1="117.083"
   x2="146.133"
   y2="133.967"
   id="line9" />
&#10;			<polyline
   style="fill:none;stroke:#e0e0e0;stroke-miterlimit:10"
   points="107.739,188.321 107.739,133.967 179.005,133.967      179.005,165.147    "
   id="polyline9" />
&#10;			<polyline
   style="fill:none;stroke:#e0e0e0;stroke-miterlimit:10"
   points="160.566,181.741 160.566,165.147 199.743,165.147      199.743,182.321    "
   id="polyline10" />
&#10;			<rect
   x="128.11301"
   y="110.879"
   style="fill:#f5f5f5"
   width="36.041"
   height="12.407"
   id="rect10" />
&#10;			<rect
   x="162.36099"
   y="140.64799"
   style="fill:#f5f5f5"
   width="34.351002"
   height="13.478"
   id="rect11" />
&#10;			<rect
   x="148.769"
   y="174.789"
   style="fill:#f5f5f5"
   width="23.594"
   height="13.904"
   id="rect12" />
&#10;			<rect
   x="187.11099"
   y="177.03999"
   style="fill:#f5f5f5"
   width="25.266001"
   height="10.561"
   id="rect13" />
&#10;			<rect
   x="91.158997"
   y="143.502"
   style="fill:#f5f5f5"
   width="39.026001"
   height="18.007"
   id="rect14" />
&#10;			<rect
   x="95.277"
   y="181.741"
   style="fill:#f5f5f5"
   width="24.924"
   height="13.16"
   id="rect15" />
&#10;			&#10;				<rect
   x="142.328"
   y="130.60001"
   transform="matrix(0.7071,0.7071,-0.7071,0.7071,137.8383,-63.9654)"
   style="fill:#f5f5f5"
   width="7.6100001"
   height="7.6100001"
   id="rect16" />
&#10;			&#10;				<rect
   x="175.19901"
   y="161.341"
   transform="matrix(0.7071,0.7071,-0.7071,0.7071,169.2055,-78.2051)"
   style="fill:#f5f5f5"
   width="7.6100001"
   height="7.6100001"
   id="rect17" />
&#10;		</g>
&#10;		<g
   id="g28">&#10;			<rect
   x="295.367"
   y="114.119"
   style="fill:#e0e0e0"
   width="99.595001"
   height="5.1170001"
   id="rect18" />
&#10;			<rect
   x="299.95099"
   y="95.257004"
   style="fill:#ebebeb"
   width="4.388"
   height="18.862"
   id="rect19" />
&#10;			<rect
   x="321.16699"
   y="95.257004"
   style="fill:#ebebeb"
   width="4.388"
   height="18.862"
   id="rect20" />
&#10;			&#10;				<rect
   x="346.88599"
   y="95.021004"
   transform="matrix(0.9855,-0.1698,0.1698,0.9855,-12.6685,60.8041)"
   style="fill:#ebebeb"
   width="4.388"
   height="18.862"
   id="rect21" />
&#10;			<rect
   x="305.38699"
   y="97.742996"
   style="fill:#ebebeb"
   width="4.388"
   height="16.377001"
   id="rect22" />
&#10;			<rect
   x="315.47299"
   y="97.742996"
   style="fill:#ebebeb"
   width="4.388"
   height="16.377001"
   id="rect23" />
&#10;			<rect
   x="340.92899"
   y="97.742996"
   style="fill:#ebebeb"
   width="4.388"
   height="16.377001"
   id="rect24" />
&#10;			&#10;				<rect
   x="328.758"
   y="97.461998"
   transform="matrix(0.9762,-0.2169,0.2169,0.9762,-15.0361,74.2906)"
   style="fill:#ebebeb"
   width="4.388"
   height="16.377001"
   id="rect25" />
&#10;			<rect
   x="311.375"
   y="94.32"
   style="fill:#ebebeb"
   width="2.194"
   height="19.799"
   id="rect26" />
&#10;			<rect
   x="337.474"
   y="94.32"
   style="fill:#ebebeb"
   width="2.194"
   height="19.799"
   id="rect27" />
&#10;			<rect
   x="364.026"
   y="99.190002"
   style="fill:#ebebeb"
   width="21.379"
   height="14.76"
   id="rect28" />
&#10;		</g>
&#10;		<g
   id="g39">&#10;			&#10;				<rect
   x="295.367"
   y="152.32001"
   transform="rotate(180,345.16405,154.87895)"
   style="fill:#e0e0e0"
   width="99.595001"
   height="5.1170001"
   id="rect29" />
&#10;			&#10;				<rect
   x="385.98999"
   y="133.45799"
   transform="rotate(180,388.1836,142.8892)"
   style="fill:#ebebeb"
   width="4.388"
   height="18.862"
   id="rect30" />
&#10;			&#10;				<rect
   x="364.77301"
   y="133.45799"
   transform="rotate(180,366.96735,142.8892)"
   style="fill:#ebebeb"
   width="4.388"
   height="18.862"
   id="rect31" />
&#10;			&#10;				<rect
   x="339.05399"
   y="133.222"
   transform="matrix(-0.9855,-0.1698,0.1698,-0.9855,653.3099,341.1924)"
   style="fill:#ebebeb"
   width="4.388"
   height="18.862"
   id="rect32" />
&#10;			&#10;				<rect
   x="380.55301"
   y="135.944"
   transform="rotate(180,382.7468,144.13205)"
   style="fill:#ebebeb"
   width="4.388"
   height="16.377001"
   id="rect33" />
&#10;			&#10;				<rect
   x="370.46799"
   y="135.944"
   transform="rotate(180,372.66165,144.13205)"
   style="fill:#ebebeb"
   width="4.388"
   height="16.377001"
   id="rect34" />
&#10;			&#10;				<rect
   x="345.01199"
   y="135.944"
   transform="rotate(180,347.20565,144.13205)"
   style="fill:#ebebeb"
   width="4.388"
   height="16.377001"
   id="rect35" />
&#10;			&#10;				<rect
   x="357.18201"
   y="135.66299"
   transform="matrix(-0.9762,-0.2169,0.2169,-0.9762,679.0001,362.2189)"
   style="fill:#ebebeb"
   width="4.388"
   height="16.377001"
   id="rect36" />
&#10;			&#10;				<rect
   x="376.759"
   y="132.521"
   transform="rotate(180,377.8558,142.42095)"
   style="fill:#ebebeb"
   width="2.194"
   height="19.799"
   id="rect37" />
&#10;			&#10;				<rect
   x="350.66101"
   y="132.521"
   transform="rotate(180,351.75765,142.42095)"
   style="fill:#ebebeb"
   width="2.194"
   height="19.799"
   id="rect38" />
&#10;			&#10;				<rect
   x="304.923"
   y="137.39101"
   transform="rotate(180,315.6127,144.77125)"
   style="fill:#ebebeb"
   width="21.379"
   height="14.76"
   id="rect39" />
&#10;		</g>
&#10;		<g
   id="g55">&#10;			<rect
   x="317.29401"
   y="182.52901"
   style="fill:#f5f5f5"
   width="55.855"
   height="199.13499"
   id="rect40" />
&#10;			<rect
   x="322.10999"
   y="188.214"
   style="fill:#ebebeb"
   width="46.222"
   height="188.944"
   id="rect41" />
&#10;			<rect
   x="330.52499"
   y="193.76601"
   style="fill:#e0e0e0"
   width="29.392"
   height="1.946"
   id="rect42" />
&#10;			<rect
   x="330.52499"
   y="202.18401"
   style="fill:#e0e0e0"
   width="29.392"
   height="1.946"
   id="rect43" />
&#10;			<rect
   x="330.52499"
   y="210.601"
   style="fill:#e0e0e0"
   width="29.392"
   height="1.946"
   id="rect44" />
&#10;			<rect
   x="330.52499"
   y="219.019"
   style="fill:#e0e0e0"
   width="29.392"
   height="1.946"
   id="rect45" />
&#10;			<rect
   x="330.52499"
   y="227.437"
   style="fill:#e0e0e0"
   width="29.392"
   height="1.946"
   id="rect46" />
&#10;			<rect
   x="330.52499"
   y="235.855"
   style="fill:#e0e0e0"
   width="29.392"
   height="1.946"
   id="rect47" />
&#10;			<rect
   x="330.52499"
   y="244.272"
   style="fill:#e0e0e0"
   width="29.392"
   height="1.946"
   id="rect48" />
&#10;			<rect
   x="330.52499"
   y="312.73199"
   style="fill:#e0e0e0"
   width="29.392"
   height="1.946"
   id="rect49" />
&#10;			<rect
   x="330.52499"
   y="321.14899"
   style="fill:#e0e0e0"
   width="29.392"
   height="1.946"
   id="rect50" />
&#10;			<rect
   x="330.52499"
   y="329.56699"
   style="fill:#e0e0e0"
   width="29.392"
   height="1.946"
   id="rect51" />
&#10;			<rect
   x="330.52499"
   y="337.98499"
   style="fill:#e0e0e0"
   width="29.392"
   height="1.946"
   id="rect52" />
&#10;			<rect
   x="330.52499"
   y="346.40302"
   style="fill:#e0e0e0"
   width="29.392"
   height="1.946"
   id="rect53" />
&#10;			<rect
   x="330.52499"
   y="354.82001"
   style="fill:#e0e0e0"
   width="29.392"
   height="1.946"
   id="rect54" />
&#10;			<rect
   x="330.52499"
   y="363.23801"
   style="fill:#e0e0e0"
   width="29.392"
   height="1.946"
   id="rect55" />
&#10;			<path
   style="fill:#e0e0e0"
   d="m 361.364,273.085 c 0,1.795 -1.455,3.249 -3.25,3.249 -1.795,0 -3.249,-1.455 -3.249,-3.249 0,-1.794 1.455,-3.25 3.249,-3.25 1.795,0.001 3.25,1.455 3.25,3.25 z"
   id="path55" />
&#10;		</g>
&#10;		<g
   id="g71">&#10;			<rect
   x="259.79401"
   y="182.52901"
   style="fill:#f5f5f5"
   width="55.855"
   height="199.13499"
   id="rect56" />
&#10;			<rect
   x="264.60999"
   y="188.214"
   style="fill:#ebebeb"
   width="46.222"
   height="188.944"
   id="rect57" />
&#10;			<rect
   x="273.02499"
   y="193.76601"
   style="fill:#e0e0e0"
   width="29.392"
   height="1.946"
   id="rect58" />
&#10;			<rect
   x="273.02499"
   y="202.18401"
   style="fill:#e0e0e0"
   width="29.392"
   height="1.946"
   id="rect59" />
&#10;			<rect
   x="273.02499"
   y="210.601"
   style="fill:#e0e0e0"
   width="29.392"
   height="1.946"
   id="rect60" />
&#10;			<rect
   x="273.02499"
   y="219.019"
   style="fill:#e0e0e0"
   width="29.392"
   height="1.946"
   id="rect61" />
&#10;			<rect
   x="273.02499"
   y="227.437"
   style="fill:#e0e0e0"
   width="29.392"
   height="1.946"
   id="rect62" />
&#10;			<rect
   x="273.02499"
   y="235.855"
   style="fill:#e0e0e0"
   width="29.392"
   height="1.946"
   id="rect63" />
&#10;			<rect
   x="273.02499"
   y="244.272"
   style="fill:#e0e0e0"
   width="29.392"
   height="1.946"
   id="rect64" />
&#10;			<rect
   x="273.02499"
   y="312.73199"
   style="fill:#e0e0e0"
   width="29.392"
   height="1.946"
   id="rect65" />
&#10;			<rect
   x="273.02499"
   y="321.14899"
   style="fill:#e0e0e0"
   width="29.392"
   height="1.946"
   id="rect66" />
&#10;			<rect
   x="273.02499"
   y="329.56699"
   style="fill:#e0e0e0"
   width="29.392"
   height="1.946"
   id="rect67" />
&#10;			<rect
   x="273.02499"
   y="337.98499"
   style="fill:#e0e0e0"
   width="29.392"
   height="1.946"
   id="rect68" />
&#10;			<rect
   x="273.02499"
   y="346.40302"
   style="fill:#e0e0e0"
   width="29.392"
   height="1.946"
   id="rect69" />
&#10;			<rect
   x="273.02499"
   y="354.82001"
   style="fill:#e0e0e0"
   width="29.392"
   height="1.946"
   id="rect70" />
&#10;			<rect
   x="273.02499"
   y="363.23801"
   style="fill:#e0e0e0"
   width="29.392"
   height="1.946"
   id="rect71" />
&#10;			<path
   style="fill:#e0e0e0"
   d="m 303.864,273.085 c 0,1.795 -1.455,3.249 -3.25,3.249 -1.795,0 -3.249,-1.455 -3.249,-3.249 0,-1.794 1.455,-3.25 3.249,-3.25 1.795,0.001 3.25,1.455 3.25,3.25 z"
   id="path71" />
&#10;		</g>
&#10;		<g
   id="g87">&#10;			<rect
   x="374.79401"
   y="182.52901"
   style="fill:#f5f5f5"
   width="55.855"
   height="199.13499"
   id="rect72" />
&#10;			<rect
   x="379.60999"
   y="188.214"
   style="fill:#ebebeb"
   width="46.222"
   height="188.944"
   id="rect73" />
&#10;			<rect
   x="388.02499"
   y="193.76601"
   style="fill:#e0e0e0"
   width="29.392"
   height="1.946"
   id="rect74" />
&#10;			<rect
   x="388.02499"
   y="202.18401"
   style="fill:#e0e0e0"
   width="29.392"
   height="1.946"
   id="rect75" />
&#10;			<rect
   x="388.02499"
   y="210.601"
   style="fill:#e0e0e0"
   width="29.392"
   height="1.946"
   id="rect76" />
&#10;			<rect
   x="388.02499"
   y="219.019"
   style="fill:#e0e0e0"
   width="29.392"
   height="1.946"
   id="rect77" />
&#10;			<rect
   x="388.02499"
   y="227.437"
   style="fill:#e0e0e0"
   width="29.392"
   height="1.946"
   id="rect78" />
&#10;			<rect
   x="388.02499"
   y="235.855"
   style="fill:#e0e0e0"
   width="29.392"
   height="1.946"
   id="rect79" />
&#10;			<rect
   x="388.02499"
   y="244.272"
   style="fill:#e0e0e0"
   width="29.392"
   height="1.946"
   id="rect80" />
&#10;			<rect
   x="388.02499"
   y="312.73199"
   style="fill:#e0e0e0"
   width="29.392"
   height="1.946"
   id="rect81" />
&#10;			<rect
   x="388.02499"
   y="321.14899"
   style="fill:#e0e0e0"
   width="29.392"
   height="1.946"
   id="rect82" />
&#10;			<rect
   x="388.02499"
   y="329.56699"
   style="fill:#e0e0e0"
   width="29.392"
   height="1.946"
   id="rect83" />
&#10;			<rect
   x="388.02499"
   y="337.98499"
   style="fill:#e0e0e0"
   width="29.392"
   height="1.946"
   id="rect84" />
&#10;			<rect
   x="388.02499"
   y="346.40302"
   style="fill:#e0e0e0"
   width="29.392"
   height="1.946"
   id="rect85" />
&#10;			<rect
   x="388.02499"
   y="354.82001"
   style="fill:#e0e0e0"
   width="29.392"
   height="1.946"
   id="rect86" />
&#10;			<rect
   x="388.02499"
   y="363.23801"
   style="fill:#e0e0e0"
   width="29.392"
   height="1.946"
   id="rect87" />
&#10;			<path
   style="fill:#e0e0e0"
   d="m 418.864,273.085 c 0,1.795 -1.455,3.249 -3.25,3.249 -1.795,0 -3.249,-1.455 -3.249,-3.249 0,-1.794 1.455,-3.25 3.249,-3.25 1.795,0.001 3.25,1.455 3.25,3.25 z"
   id="path87" />
&#10;		</g>
&#10;	</g>
&#10;</g>
    <g
       id="Shadow_1_"
       transform="matrix(2.8474419,0,0,2.8474419,-62.100561,-236.48549)">&#10;	<ellipse
   id="_x3C_Path_x3E__359_"
   style="fill:#f5f5f5"
   cx="250"
   cy="416.23801"
   rx="193.88901"
   ry="11.323" />
&#10;</g>
    <g
       id="Plant"
       transform="matrix(3.1344324,0,0,3.1344324,-116.93929,-354.47086)">&#10;	<g
   id="g95">&#10;		<path
   style="fill:#407bff"
   d="m 93.91,402.727 c 0,0 -5.266,-24.885 4.324,-38.366 9.59,-13.48 -8.668,-0.155 -10.768,12.463 0,0 -3.147,-22.562 6.156,-38.436 9.303,-15.874 -8.103,-2.84 -9.581,13.516 0,0 -2.85,-20.129 1.424,-31.44 4.274,-11.311 -3.162,-4.038 -6.021,3.053 -2.859,7.09 0.892,24.648 0.892,24.648 0,0 -7.46,-32.466 -14.522,-29.882 -7.062,2.584 10.557,23.855 13.001,34.921 0,0 -8.327,-14.891 -14.644,-11.791 -6.317,3.1 9.784,4.642 17.156,26.846 l 2.59,10.411 c 0,0 -7.662,-14.696 -12.672,-10.06 -5.01,4.636 14.855,12.638 19.471,34.912 z"
   id="path90" />
&#10;		<path
   style="fill:#407bff"
   d="m 92.879,404.16 c 0,0 -1.107,-31.375 -16.61,-44.663 -15.503,-13.288 10.335,-2.768 16.61,11.719 0,0 -2.953,-27.961 -18.825,-44.202 -15.872,-16.241 8.859,-5.816 15.503,13.333 0,0 -2.584,-24.958 -11.074,-37.232 -8.49,-12.275 2.584,-5.778 8.121,1.863 5.537,7.641 6.275,29.788 6.275,29.788 0,0 -0.738,-41.108 8.49,-40.117 9.228,0.991 -5.537,31.718 -5.168,45.699 0,0 5.537,-20.317 14.027,-18.486 8.49,1.831 -10.335,8.475 -12.55,37.266 v 13.241 c 0,0 4.799,-19.885 12.181,-15.825 7.382,4.06 -14.027,19.563 -12.919,47.616 z"
   id="path91" />
&#10;		<path
   style="opacity:0.2;fill:#ffffff;enable-background:new"
   d="m 92.879,404.16 c 0,0 -1.107,-31.375 -16.61,-44.663 -15.503,-13.288 10.335,-2.768 16.61,11.719 0,0 -2.953,-27.961 -18.825,-44.202 -15.872,-16.241 8.859,-5.816 15.503,13.333 0,0 -2.584,-24.958 -11.074,-37.232 -8.49,-12.275 2.584,-5.778 8.121,1.863 5.537,7.641 6.275,29.788 6.275,29.788 0,0 -0.738,-41.108 8.49,-40.117 9.228,0.991 -5.537,31.718 -5.168,45.699 0,0 5.537,-20.317 14.027,-18.486 8.49,1.831 -10.335,8.475 -12.55,37.266 v 13.241 c 0,0 4.799,-19.885 12.181,-15.825 7.382,4.06 -14.027,19.563 -12.919,47.616 z"
   id="path92" />
&#10;		<path
   style="fill:#263238"
   d="M 106.419,418.242 H 82.827 c -6.072,0 -10.994,-4.922 -10.994,-10.994 v -4.923 h 45.581 v 4.923 c 0,6.072 -4.923,10.994 -10.995,10.994 z"
   id="path93" />
&#10;		<path
   style="fill:#263238"
   d="m 65.864,399.703 v 3.475 c 0,2.326 1.885,4.211 4.211,4.211 h 49.096 c 2.326,0 4.211,-1.885 4.211,-4.211 v -3.475 z"
   id="path94" />
&#10;		<path
   style="opacity:0.2;fill:#ffffff;enable-background:new"
   d="m 65.864,399.703 v 3.475 c 0,2.326 1.885,4.211 4.211,4.211 h 49.096 c 2.326,0 4.211,-1.885 4.211,-4.211 v -3.475 z"
   id="path95" />
&#10;	</g>
&#10;</g>
    <g
       id="Trash_bin"
       transform="matrix(3.1344324,0,0,3.1344324,-116.93929,-354.47086)">&#10;	<g
   id="g101">&#10;		<g
   id="g97">&#10;			<path
   style="fill:#407bff"
   d="m 419.411,398.701 c 0.796,-1.335 -0.326,-3.345 -1.881,-3.368 0.681,-1.917 0.009,-4.233 -1.592,-5.487 -0.202,-0.158 -0.434,-0.307 -0.691,-0.307 -0.275,-10e-4 -0.519,0.167 -0.742,0.327 -1.465,1.052 -2.929,2.104 -4.394,3.157 -0.335,0.241 -0.682,0.495 -0.872,0.862 -0.898,1.74 2.34,3.97 1.008,5.406 -0.382,0.412 -0.998,0.498 -1.475,0.796 -1.046,0.654 -1.172,2.089 -1.659,3.222 -0.487,1.133 -2.187,2.012 -2.837,0.964 0.48,-1.087 -0.973,-2.023 -2.153,-2.161 -1.164,-0.136 -2.412,-0.202 -3.064,-1.31 -1.674,1.463 -5.422,-2.619 -5.336,-4.265 -1.376,0.105 -2.313,1.394 -2.615,2.682 -0.312,1.337 -0.119,2.731 -0.141,4.102 -0.042,2.665 -0.902,5.276 -0.855,7.94 0.037,2.074 0.838,4.377 2.737,5.211 0.914,0.402 1.947,0.402 2.945,0.396 7.207,-0.046 14.414,-0.092 21.621,-0.138 0.519,-0.003 1.06,-0.012 1.52,-0.252 0.975,-0.509 1.182,-1.79 1.272,-2.887 0.387,-4.697 0.774,-9.394 1.161,-14.091 -0.652,-0.266 -1.305,-0.533 -1.957,-0.799 z"
   id="path96" />
&#10;			<path
   style="opacity:0.3;fill:#ffffff;enable-background:new"
   d="m 419.411,398.701 c 0.796,-1.335 -0.326,-3.345 -1.881,-3.368 0.681,-1.917 0.009,-4.233 -1.592,-5.487 -0.202,-0.158 -0.434,-0.307 -0.691,-0.307 -0.275,-10e-4 -0.519,0.167 -0.742,0.327 -1.465,1.052 -2.929,2.104 -4.394,3.157 -0.335,0.241 -0.682,0.495 -0.872,0.862 -0.898,1.74 2.34,3.97 1.008,5.406 -0.382,0.412 -0.998,0.498 -1.475,0.796 -1.046,0.654 -1.172,2.089 -1.659,3.222 -0.487,1.133 -2.187,2.012 -2.837,0.964 0.48,-1.087 -0.973,-2.023 -2.153,-2.161 -1.164,-0.136 -2.412,-0.202 -3.064,-1.31 -1.674,1.463 -5.422,-2.619 -5.336,-4.265 -1.376,0.105 -2.313,1.394 -2.615,2.682 -0.312,1.337 -0.119,2.731 -0.141,4.102 -0.042,2.665 -0.902,5.276 -0.855,7.94 0.037,2.074 0.838,4.377 2.737,5.211 0.914,0.402 1.947,0.402 2.945,0.396 7.207,-0.046 14.414,-0.092 21.621,-0.138 0.519,-0.003 1.06,-0.012 1.52,-0.252 0.975,-0.509 1.182,-1.79 1.272,-2.887 0.387,-4.697 0.774,-9.394 1.161,-14.091 -0.652,-0.266 -1.305,-0.533 -1.957,-0.799 z"
   id="path97" />
&#10;		</g>
&#10;		<g
   id="g100">&#10;			<g
   id="g98">&#10;				<path
   style="fill:#407bff"
   d="m 420.673,375.849 h -2.428 -6.684 -2.436 -6.676 -2.436 -6.676 -2.436 -3.776 l 0.276,3.389 0.197,2.42 0.512,6.298 0.292,3.618 0.386,4.816 0.165,2.065 0.055,0.615 0.197,2.428 0.268,3.326 0.166,2.065 0.173,2.097 0.197,2.428 0.15,1.837 0.165,2.065 0.071,0.899 h 4.414 3.728 5.384 3.728 5.384 3.728 4.422 l 0.071,-0.899 0.165,-2.057 0.15,-1.852 0.197,-2.428 0.173,-2.089 0.165,-2.065 0.268,-3.334 0.197,-2.42 0.048,-0.615 0.165,-2.065 0.394,-4.816 0.292,-3.61 0.504,-6.306 0.197,-2.42 0.276,-3.389 h -3.772 z m 2.018,2.222 v 0 l -0.646,-0.646 h 0.702 z m -0.166,2.058 -0.063,0.82 -3.003,3.003 -3.444,-3.445 3.082,-3.082 h 0.725 z m -0.866,10.735 -2.199,2.199 -3.444,-3.445 3.444,-3.437 2.381,2.38 z m -31.924,-2.301 v 0 l 2.38,-2.38 3.444,3.437 -3.444,3.445 -2.191,-2.199 z m 28.613,-3.5 -3.445,3.445 -3.444,-3.445 3.444,-3.444 z m -5.415,-7.638 h 3.941 l -1.971,1.971 z m 0.851,12.194 -3.437,3.445 -3.444,-3.445 3.444,-3.437 z m -11.437,4.556 3.445,-3.437 3.437,3.437 -3.437,3.445 z m 2.325,4.556 -3.445,3.445 -3.436,-3.437 3.445,-3.444 z m 5.675,-3.437 3.437,3.444 -3.437,3.437 -3.444,-3.445 z m -4.556,-6.786 -3.445,-3.445 3.445,-3.444 3.437,3.444 z m -1.119,1.111 -3.436,3.445 -3.445,-3.445 3.445,-3.437 z m -8,-1.111 -3.437,-3.445 3.437,-3.444 3.444,3.444 z m 0,2.23 3.444,3.437 -3.444,3.445 -3.437,-3.445 z m 3.444,12.557 -3.444,3.437 -3.437,-3.437 3.437,-3.445 z m 1.111,1.111 3.445,3.445 -3.436,3.445 -3.445,-3.445 z m 1.12,-1.111 3.445,-3.445 3.437,3.445 -3.437,3.437 z m 8,1.111 3.437,3.445 -3.437,3.445 -3.444,-3.445 z m 4.556,4.556 3.445,3.445 -2.231,2.231 h -2.428 l -2.231,-2.231 z m -3.444,-5.667 3.444,-3.445 3.445,3.445 -3.445,3.437 z m 0,-9.12 3.444,-3.437 3.445,3.437 -3.445,3.445 z m 2.325,-13.668 -3.437,3.445 -3.444,-3.445 3.082,-3.082 h 0.725 z m -7.993,-1.111 -1.971,-1.971 h 3.933 z m -1.119,1.111 -3.436,3.445 -3.445,-3.445 3.082,-3.082 h 0.725 z m -6.03,-3.082 -1.971,1.971 -1.962,-1.971 z m -6.164,0 3.082,3.082 -3.444,3.445 -2.995,-3.003 -0.063,-0.82 2.696,-2.704 z m -2.948,0 -0.639,0.639 v 0 l -0.055,-0.639 z m -0.213,5.951 1.687,1.687 -1.435,1.435 z m 0.938,11.548 -0.134,-1.632 v 0 l 0.883,0.883 z m 0.166,2.073 1.695,-1.702 3.444,3.444 -3.444,3.437 -1.387,-1.387 z m 0.512,6.369 -0.008,-0.15 0.079,0.079 z m 0.599,7.338 -0.434,-5.281 1.017,-1.017 3.444,3.445 -3.444,3.437 z m 0.316,3.933 -0.063,-0.788 0.331,-0.331 1.119,1.119 z m 1.387,-2.23 3.437,-3.445 3.444,3.445 -2.23,2.231 h -2.428 z m 6.881,2.23 1.119,-1.119 1.119,1.119 z m 4.461,0 -2.23,-2.231 3.445,-3.445 3.437,3.445 -2.223,2.231 z m 4.651,0 1.119,-1.119 1.119,1.119 z m 10.499,0 h -1.387 l 1.119,-1.119 0.331,0.331 z m 0.324,-3.933 -0.591,0.583 -3.444,-3.437 3.444,-3.445 1.017,1.017 z m 0.606,-7.496 -0.016,0.158 -0.071,-0.071 z m 0.197,-2.42 -1.395,1.387 -3.444,-3.437 3.444,-3.444 1.703,1.702 z m 0.473,-5.856 -0.757,-0.757 0.891,-0.883 z m 0.939,-11.564 -0.252,3.137 -1.443,-1.443 z"
   id="path98" />
&#10;			</g>
&#10;			<g
   style="opacity:0.6;enable-background:new"
   id="g99">&#10;				<path
   style="fill:#ffffff"
   d="m 420.673,375.849 h -2.428 -6.684 -2.436 -6.676 -2.436 -6.676 -2.436 -3.776 l 0.276,3.389 0.197,2.42 0.512,6.298 0.292,3.618 0.386,4.816 0.165,2.065 0.055,0.615 0.197,2.428 0.268,3.326 0.166,2.065 0.173,2.097 0.197,2.428 0.15,1.837 0.165,2.065 0.071,0.899 h 4.414 3.728 5.384 3.728 5.384 3.728 4.422 l 0.071,-0.899 0.165,-2.057 0.15,-1.852 0.197,-2.428 0.173,-2.089 0.165,-2.065 0.268,-3.334 0.197,-2.42 0.048,-0.615 0.165,-2.065 0.394,-4.816 0.292,-3.61 0.504,-6.306 0.197,-2.42 0.276,-3.389 h -3.772 z m 2.018,2.222 v 0 l -0.646,-0.646 h 0.702 z m -0.166,2.058 -0.063,0.82 -3.003,3.003 -3.444,-3.445 3.082,-3.082 h 0.725 z m -0.866,10.735 -2.199,2.199 -3.444,-3.445 3.444,-3.437 2.381,2.38 z m -31.924,-2.301 v 0 l 2.38,-2.38 3.444,3.437 -3.444,3.445 -2.191,-2.199 z m 28.613,-3.5 -3.445,3.445 -3.444,-3.445 3.444,-3.444 z m -5.415,-7.638 h 3.941 l -1.971,1.971 z m 0.851,12.194 -3.437,3.445 -3.444,-3.445 3.444,-3.437 z m -11.437,4.556 3.445,-3.437 3.437,3.437 -3.437,3.445 z m 2.325,4.556 -3.445,3.445 -3.436,-3.437 3.445,-3.444 z m 5.675,-3.437 3.437,3.444 -3.437,3.437 -3.444,-3.445 z m -4.556,-6.786 -3.445,-3.445 3.445,-3.444 3.437,3.444 z m -1.119,1.111 -3.436,3.445 -3.445,-3.445 3.445,-3.437 z m -8,-1.111 -3.437,-3.445 3.437,-3.444 3.444,3.444 z m 0,2.23 3.444,3.437 -3.444,3.445 -3.437,-3.445 z m 3.444,12.557 -3.444,3.437 -3.437,-3.437 3.437,-3.445 z m 1.111,1.111 3.445,3.445 -3.436,3.445 -3.445,-3.445 z m 1.12,-1.111 3.445,-3.445 3.437,3.445 -3.437,3.437 z m 8,1.111 3.437,3.445 -3.437,3.445 -3.444,-3.445 z m 4.556,4.556 3.445,3.445 -2.231,2.231 h -2.428 l -2.231,-2.231 z m -3.444,-5.667 3.444,-3.445 3.445,3.445 -3.445,3.437 z m 0,-9.12 3.444,-3.437 3.445,3.437 -3.445,3.445 z m 2.325,-13.668 -3.437,3.445 -3.444,-3.445 3.082,-3.082 h 0.725 z m -7.993,-1.111 -1.971,-1.971 h 3.933 z m -1.119,1.111 -3.436,3.445 -3.445,-3.445 3.082,-3.082 h 0.725 z m -6.03,-3.082 -1.971,1.971 -1.962,-1.971 z m -6.164,0 3.082,3.082 -3.444,3.445 -2.995,-3.003 -0.063,-0.82 2.696,-2.704 z m -2.948,0 -0.639,0.639 v 0 l -0.055,-0.639 z m -0.213,5.951 1.687,1.687 -1.435,1.435 z m 0.938,11.548 -0.134,-1.632 v 0 l 0.883,0.883 z m 0.166,2.073 1.695,-1.702 3.444,3.444 -3.444,3.437 -1.387,-1.387 z m 0.512,6.369 -0.008,-0.15 0.079,0.079 z m 0.599,7.338 -0.434,-5.281 1.017,-1.017 3.444,3.445 -3.444,3.437 z m 0.316,3.933 -0.063,-0.788 0.331,-0.331 1.119,1.119 z m 1.387,-2.23 3.437,-3.445 3.444,3.445 -2.23,2.231 h -2.428 z m 6.881,2.23 1.119,-1.119 1.119,1.119 z m 4.461,0 -2.23,-2.231 3.445,-3.445 3.437,3.445 -2.223,2.231 z m 4.651,0 1.119,-1.119 1.119,1.119 z m 10.499,0 h -1.387 l 1.119,-1.119 0.331,0.331 z m 0.324,-3.933 -0.591,0.583 -3.444,-3.437 3.444,-3.445 1.017,1.017 z m 0.606,-7.496 -0.016,0.158 -0.071,-0.071 z m 0.197,-2.42 -1.395,1.387 -3.444,-3.437 3.444,-3.444 1.703,1.702 z m 0.473,-5.856 -0.757,-0.757 0.891,-0.883 z m 0.939,-11.564 -0.252,3.137 -1.443,-1.443 z"
   id="path99" />
&#10;			</g>
&#10;		</g>
&#10;		<path
   style="fill:#407bff"
   d="m 386.621,378.831 h 38.334 c 0.908,0 1.643,-0.736 1.643,-1.643 v -1.102 c 0,-0.908 -0.736,-1.643 -1.643,-1.643 h -38.334 c -0.908,0 -1.643,0.736 -1.643,1.643 v 1.102 c 0,0.907 0.736,1.643 1.643,1.643 z"
   id="path100" />
&#10;		<path
   style="fill:#407bff"
   d="m 421.954,418.242 h -32.332 c -0.908,0 -1.643,-0.736 -1.643,-1.643 v -1.102 c 0,-0.908 0.736,-1.643 1.643,-1.643 h 32.332 c 0.908,0 1.643,0.736 1.643,1.643 v 1.102 c 0.001,0.908 -0.735,1.643 -1.643,1.643 z"
   id="path101" />
&#10;	</g>
&#10;</g>
    <g
       id="Character"
       transform="matrix(3.1344324,0,0,3.1344324,-116.93929,-354.47086)">&#10;	<g
   id="g111">&#10;		<path
   style="fill:#263238"
   d="m 366.926,396.238 -27.878,-2.74 V 362.06 h -11.049 v 31.427 l -27.991,2.751 c -2.779,0.273 -4.897,2.61 -4.897,5.402 v 4.186 h 37.332 2.048 37.332 v -4.186 c 0,-2.792 -2.118,-5.129 -4.897,-5.402 z"
   id="path102" />
&#10;		<path
   style="opacity:0.1;fill:#ffffff;enable-background:new"
   d="m 366.926,396.238 -27.878,-2.74 V 362.06 h -11.049 v 31.427 l -27.991,2.751 c -2.779,0.273 -4.897,2.61 -4.897,5.402 v 4.186 h 37.332 2.048 37.332 v -4.186 c 0,-2.792 -2.118,-5.129 -4.897,-5.402 z"
   id="path103" />
&#10;		<circle
   style="fill:#263238"
   cx="298.061"
   cy="411.01901"
   r="7.224"
   id="circle103" />
&#10;		<circle
   style="fill:#263238"
   cx="368.87299"
   cy="411.01901"
   r="7.224"
   id="circle104" />
&#10;		<path
   style="fill:#263238"
   d="m 336.817,370.481 h -6.588 c -2.283,0 -4.133,-1.85 -4.133,-4.133 v -30.763 h 14.854 v 30.763 c 0.001,2.282 -1.85,4.133 -4.133,4.133 z"
   id="path104" />
&#10;		<path
   style="opacity:0.2;fill:#ffffff;enable-background:new"
   d="m 336.817,370.481 h -6.588 c -2.283,0 -4.133,-1.85 -4.133,-4.133 v -30.763 h 14.854 v 30.763 c 0.001,2.282 -1.85,4.133 -4.133,4.133 z"
   id="path105" />
&#10;		<path
   style="fill:#263238"
   d="m 372.109,275.008 c 0,0 -8.278,51.679 -24.612,60.576 h 16.607 c 0,0 16.405,-17.606 21.402,-60.576 z"
   id="path106" />
&#10;		<path
   style="opacity:0.1;fill:#ffffff;enable-background:new"
   d="m 372.109,275.008 c 0,0 -8.278,51.679 -24.612,60.576 h 16.607 c 0,0 16.405,-17.606 21.402,-60.576 z"
   id="path107" />
&#10;		<path
   style="fill:#407bff"
   d="m 300.334,328.278 h 64.426 c 2.761,0 5,2.239 5,5 v 6.31 h -74.426 v -6.31 c 0,-2.761 2.239,-5 5,-5 z"
   id="path108" />
&#10;		<g
   id="g110">&#10;			<path
   style="fill:#263238"
   d="m 294.243,333.933 h 76.608 c 1.111,0 2.011,0.9 2.011,2.011 v 1.632 c 0,1.111 -0.9,2.011 -2.011,2.011 h -76.608 c -1.111,0 -2.011,-0.9 -2.011,-2.011 v -1.632 c 0,-1.11 0.901,-2.011 2.011,-2.011 z"
   id="path109" />
&#10;			<path
   style="opacity:0.6;fill:#ffffff;enable-background:new"
   d="m 294.243,333.933 h 76.608 c 1.111,0 2.011,0.9 2.011,2.011 v 1.632 c 0,1.111 -0.9,2.011 -2.011,2.011 h -76.608 c -1.111,0 -2.011,-0.9 -2.011,-2.011 v -1.632 c 0,-1.11 0.901,-2.011 2.011,-2.011 z"
   id="path110" />
&#10;		</g>
&#10;		<path
   style="fill:#407bff"
   d="m 387.468,285.509 h -26.603 c -7.793,0 -12.855,-6.249 -11.307,-13.958 l 2.068,-10.29 c 1.549,-7.709 9.122,-13.958 16.916,-13.958 h 26.603 c 7.793,0 12.855,6.249 11.307,13.958 l -2.068,10.29 c -1.55,7.708 -9.123,13.958 -16.916,13.958 z"
   id="path111" />
&#10;	</g>
&#10;	<g
   id="_x3C_Group_x3E__134_">&#10;		<path
   style="fill:#ebb376"
   d="m 252.724,250.895 -6.89,-3.875 c 0,0 -1.786,-1.484 -3.7,-1.739 -1.914,-0.255 -10.335,0.494 -11.356,0.885 -1.021,0.391 -0.638,8.421 0,8.553 0.638,0.132 10.59,0.251 11.483,0 0.893,-0.251 3.062,-2.675 3.062,-2.675 l 5.104,3.413 z"
   id="path112" />
&#10;		<path
   style="fill:#407bff"
   d="m 283.895,240.125 c -3.612,3.242 -15.003,16.813 -16.771,17.3 -1.769,0.487 -18.419,-9.987 -18.419,-9.987 l -2.36,6.613 c 0,0 15.653,12.886 20.78,13.775 5.545,0.961 24.05,-14.006 24.05,-14.006 z"
   id="path113" />
&#10;		<path
   style="opacity:0.5;fill:#ffffff;enable-background:new"
   d="m 291.171,253.821 c 0,0 -4.18,3.377 -9.153,6.821 -5.496,3.803 -11.978,7.683 -14.891,7.179 -5.128,-0.88 -20.783,-13.769 -20.783,-13.769 l 2.361,-6.618 c 0,0 16.652,10.479 18.423,9.995 1.771,-0.493 13.159,-14.059 16.768,-17.3 l 4.751,8.94 z"
   id="path114" />
&#10;		<path
   style="opacity:0.2;enable-background:new"
   d="m 291.171,253.821 c 0,0 -4.18,3.377 -9.153,6.821 0.852,-4.712 4.693,-9.443 6.628,-11.572 z"
   id="path115" />
&#10;		<g
   id="g117">&#10;			<path
   style="fill:#407bff"
   d="m 301.528,282.538 c 0,0 -16.811,-29.381 -17.632,-42.412 0,0 5.777,-10.661 13.344,-13.031 7.567,-2.37 27.605,-0.998 27.605,-0.998 0,0 15.854,16.263 24.434,53.258 z"
   id="path116" />
&#10;			<path
   style="opacity:0.7;fill:#ffffff;enable-background:new"
   d="m 301.528,282.538 c 0,0 -16.811,-29.381 -17.632,-42.412 0,0 5.777,-10.661 13.344,-13.031 7.567,-2.37 27.605,-0.998 27.605,-0.998 0,0 15.854,16.263 24.434,53.258 z"
   id="path117" />
&#10;			<polygon
   style="opacity:0.1;enable-background:new"
   points="313.394,248.514 323.346,246.166 326.982,255.383 323.155,259.468 316.909,257.426 "
   id="polygon117" />
&#10;		</g>
&#10;		<polygon
   style="fill:#ebb376"
   points="302.84,389.284 310.424,408.299 301.89,409.89 294.314,390.862 "
   id="polygon118" />
&#10;		<polygon
   style="opacity:0.2;enable-background:new"
   points="307.027,399.759 302.84,389.284 294.316,390.873 298.649,401.748 "
   id="polygon119" />
&#10;		<polygon
   style="fill:#ebb376"
   points="227.881,392.832 219.614,411.561 212.503,406.581 220.785,387.85 "
   id="polygon120" />
&#10;		<polygon
   style="opacity:0.2;enable-background:new"
   points="223.333,403.156 227.881,392.832 220.779,387.859 216.047,398.566 "
   id="polygon121" />
&#10;		<path
   style="fill:#263238"
   d="m 338.408,311.449 c 0,0 -12.24,3.754 -27.247,8.35 -23.56,7.228 -53.932,16.536 -54.358,16.681 -12.53,29.095 -27.885,59.505 -27.885,59.505 l -14.214,-5.834 c 0,0 15.307,-51.088 19.777,-63.86 7.141,-20.387 83.414,-33.991 83.414,-33.991 z"
   id="path121" />
&#10;		<g
   id="g123">&#10;			<polygon
   style="fill:#407bff"
   points="232.024,394.454 228.206,401.342 210.702,393.759 212.976,385.762 "
   id="polygon122" />
&#10;			<polygon
   style="opacity:0.2;fill:#ffffff"
   points="232.024,394.454 228.206,401.342 210.702,393.759 212.976,385.762 "
   id="polygon123" />
&#10;		</g>
&#10;		<g
   id="g125">&#10;			<g
   id="g124">&#10;				<path
   style="fill:#407bff"
   d="m 211.409,406.069 c 0.006,-0.007 -0.102,-0.103 -0.097,-0.111 0,-0.001 -0.116,-0.104 -0.116,-0.105 0,-0.001 0.001,-0.001 0.001,-0.002 0.001,-10e-4 0.119,0.096 0.12,0.095 0.058,-0.12 1.273,-2.256 0.824,-3.368 -0.127,-0.291 -0.345,-0.487 -0.65,-0.579 -0.331,-0.132 -0.694,-0.01 -0.903,0.278 -0.313,0.443 -0.292,1.334 -0.12,2.17 -0.581,-0.723 -1.311,-1.456 -1.922,-1.484 -0.263,-0.007 -0.51,0.122 -0.657,0.341 -0.288,0.302 -0.374,0.744 -0.224,1.134 0.294,0.501 0.766,0.873 1.322,1.044 0.713,0.292 1.457,0.504 2.216,0.635 0.017,0.018 0.038,0.035 0.063,0.039 0.025,-0.003 0.038,-0.027 0.061,-0.037 0.032,-0.008 0.058,-0.025 0.082,-0.05 z m -0.486,-3.515 c 0.063,-0.101 0.189,-0.2 0.467,-0.115 l 0.094,0.033 c 0.15,0.064 0.267,0.188 0.321,0.341 0.275,0.659 -0.214,1.948 -0.561,2.694 -0.035,-0.053 -0.071,-0.107 -0.113,-0.169 -0.365,-0.903 -0.521,-2.286 -0.208,-2.784 z m -2.883,1.736 c -0.077,-0.25 -0.019,-0.522 0.156,-0.717 0.07,-0.109 0.192,-0.173 0.322,-0.168 0.609,0.024 1.639,1.268 2.306,2.258 -1.544,-0.342 -2.568,-0.843 -2.784,-1.373 z"
   id="path123" />
&#10;			</g>
&#10;			<path
   style="fill:#263238"
   d="m 212.4,405.363 8.92,3.901 c 0.317,0.122 0.476,0.478 0.354,0.795 -0.001,0.003 -0.002,0.006 -0.004,0.009 l -2.655,7.255 c -0.336,0.769 -1.229,1.125 -2.002,0.798 -3.09,-1.412 -4.495,-2.24 -8.408,-3.987 -2.406,-1.06 -7.263,-2.927 -10.324,-4.894 -3.062,-1.967 -1.035,-4.94 0.434,-4.378 3.492,1.319 9.107,1.139 12.117,0.36 0.523,-0.128 1.075,-0.079 1.568,0.141 z"
   id="path124" />
&#10;		</g>
&#10;		<g
   id="g127">&#10;			<g
   id="g126">&#10;				<path
   style="fill:#407bff"
   d="m 300.83,408.997 c 0,0 0,-0.001 0,-0.002 0,-0.003 0,-0.004 0,-0.007 0,-0.151 -0.146,-2.604 -1.05,-3.384 -0.246,-0.201 -0.652,-0.284 -0.964,-0.226 -0.355,0.034 -0.683,0.304 -0.737,0.656 -0.076,0.537 0.32,1.318 0.854,1.982 -0.847,-0.377 -1.847,-0.698 -2.404,-0.442 -0.237,0.114 -0.405,0.341 -0.435,0.603 -0.118,0.4 0.003,0.833 0.315,1.11 0.491,0.311 1.079,0.427 1.651,0.324 0.768,-0.066 1.525,-0.218 2.26,-0.448 0.024,0.009 0.049,0.013 0.073,0.006 0.021,-0.014 0.022,-0.041 0.037,-0.061 0.025,-0.022 0.208,-0.05 0.218,-0.082 0.002,-0.009 0.182,-0.013 0.182,-0.022 0,0.002 0,-0.006 0,-0.007 z m -2.389,-2.874 c 0.01,-0.118 0.077,-0.264 0.363,-0.316 l 0.099,-0.013 c 0.163,-0.012 0.323,0.045 0.442,0.156 0.545,0.46 0.699,1.831 0.732,2.653 -0.055,-0.031 -0.112,-0.063 -0.178,-0.099 -0.737,-0.637 -1.508,-1.795 -1.458,-2.381 z m -1.771,2.862 c -0.184,-0.187 -0.255,-0.456 -0.189,-0.709 0.013,-0.129 0.092,-0.242 0.209,-0.297 0.553,-0.257 2.037,0.379 3.083,0.955 -1.529,0.401 -2.669,0.424 -3.103,0.051 z"
   id="path125" />
&#10;			</g>
&#10;			<path
   style="fill:#263238"
   d="m 301.038,407.947 9.717,-0.606 c 0.338,-0.036 0.641,0.208 0.678,0.546 0,0.003 0.001,0.007 0.001,0.01 l 0.953,7.666 c 0.052,0.838 -0.579,1.562 -1.416,1.624 -3.394,0.156 -5.022,0.062 -9.301,0.295 -2.625,0.157 -7.797,0.715 -11.419,0.364 -3.622,-0.351 -3.178,-3.921 -1.614,-4.092 3.709,-0.422 8.622,-3.148 10.943,-5.216 0.407,-0.353 0.92,-0.561 1.458,-0.591 z"
   id="path126" />
&#10;		</g>
&#10;		<path
   style="fill:#ebb376"
   d="m 284.904,231.816 c 2.1,-0.929 4.596,0 4.596,0 0,0 0.909,4.857 6.434,5.167 0.668,0.039 1.403,0.01 2.206,-0.097 7.489,-1.026 6.667,-12.162 6.667,-12.162 -3.106,0.232 -5.738,-0.677 -7.799,-1.877 0,0 0,0 0,-0.01 -3.28,-1.906 -5.109,-4.567 -5.109,-4.567 z"
   id="path127" />
&#10;		<path
   style="opacity:0.2;enable-background:new"
   d="m 284.904,231.816 c 2.1,-0.929 4.596,0 4.596,0 0,0 0.909,4.857 6.434,5.167 1.926,-4.77 1.674,-10.237 1.074,-14.136 0,0 0,0 0,-0.01 -3.28,-1.906 -5.109,-4.567 -5.109,-4.567 z"
   id="path128" />
&#10;		<g
   id="g143">&#10;			<path
   style="fill:#263238"
   d="m 279.676,207.196 c 3.699,1.603 2.92,5.656 -3.38,12.958 -3.75,-3.337 -5.686,-10.826 -3.652,-13.186 2.034,-2.36 3.81,-1.156 7.032,0.228 z"
   id="path129" />
&#10;			<path
   style="fill:#ebb376"
   d="m 294.931,210.635 c 1.161,8.079 2.244,12.743 -0.929,17.673 -4.783,7.41 -15.386,5.799 -18.941,-1.773 -3.182,-6.803 -4.554,-18.875 2.596,-23.66 5.092,-3.445 12.013,-2.11 15.458,2.982 0.967,1.43 1.589,3.066 1.816,4.778 z"
   id="path130" />
&#10;			<path
   style="fill:#263238"
   d="m 283.471,215.287 c 0.134,0.649 -0.104,1.248 -0.528,1.333 -0.424,0.086 -0.87,-0.364 -1.004,-1.013 -0.134,-0.649 0.095,-1.244 0.516,-1.338 0.421,-0.093 0.839,0.388 1.016,1.018 z"
   id="path131" />
&#10;			<path
   style="fill:#263238"
   d="m 276.093,216.825 c 0.134,0.649 -0.104,1.247 -0.528,1.333 -0.424,0.085 -0.878,-0.36 -1.016,-1.018 -0.138,-0.658 0.104,-1.247 0.528,-1.333 0.424,-0.085 0.882,0.369 1.016,1.018 z"
   id="path132" />
&#10;			<path
   style="fill:#d58745"
   d="m 278.564,216.633 c -0.363,2.145 -1.021,4.23 -1.954,6.196 1.395,0.829 3.226,-0.065 3.226,-0.065 z"
   id="path133" />
&#10;			<path
   style="fill:#263238"
   d="m 290.289,204.223 c -3.465,2.05 -2.175,5.976 4.995,12.416 3.301,-3.785 4.277,-11.467 1.952,-13.537 -2.325,-2.07 -3.919,-0.664 -6.947,1.121 z"
   id="path134" />
&#10;			<path
   style="fill:#ebb376"
   d="m 300.051,216.229 c -0.155,2.049 -1.117,3.952 -2.673,5.293 -2.077,1.753 -4.239,0.166 -4.609,-2.381 -0.331,-2.297 0.355,-5.98 2.891,-6.745 2.536,-0.766 4.57,1.32 4.391,3.833 z"
   id="path135" />
&#10;			<path
   style="fill:#263238"
   d="m 286.782,211.469 c -0.115,0.103 -0.276,0.136 -0.423,0.088 -0.985,-0.369 -2.087,-0.252 -2.972,0.317 -0.179,0.139 -0.437,0.107 -0.577,-0.072 -0.139,-0.179 -0.107,-0.438 0.073,-0.577 0,0 0.001,-0.001 0.002,-0.001 1.1,-0.747 2.495,-0.914 3.741,-0.448 0.217,0.068 0.337,0.299 0.269,0.516 -10e-4,0.003 -0.002,0.006 -0.003,0.009 -0.028,0.061 -0.065,0.118 -0.11,0.168 z"
   id="path136" />
&#10;			<path
   style="fill:#263238"
   d="m 272.079,213.461 c -0.082,-0.013 -0.158,-0.053 -0.217,-0.112 -0.126,-0.189 -0.076,-0.444 0.113,-0.57 0.003,-0.002 0.005,-0.003 0.008,-0.005 1.104,-0.75 2.504,-0.916 3.752,-0.445 0.207,0.092 0.301,0.336 0.208,0.543 v 10e-4 c -0.097,0.204 -0.336,0.295 -0.544,0.208 v 0 c -0.996,-0.343 -2.096,-0.195 -2.967,0.399 -0.115,0.046 -0.244,0.039 -0.353,-0.019 z"
   id="path137" />
&#10;			<path
   style="fill:#263238"
   d="m 296.377,204.037 c 0,0 1.78,-3.541 -2.898,-6.603 -4.678,-3.062 -18.841,-0.67 -23.912,5.742 -5.072,6.411 -0.67,10.335 -0.67,10.335 0,0 -0.383,-1.837 0.478,-3.119 0,0 0.837,1.798 2.448,2.517 1.611,0.719 0.538,0.492 0.538,0.492 0,0 -0.26,-2.377 1.535,-4.674 0,0 2.172,2.144 4.328,2.603 0,0 0.529,-2.316 2.348,-3.464 0,0 0.884,2.824 2.23,3.097 0,0 -0.125,-2.314 3.033,-3.958 0,0 0.345,2.201 1.225,2.775 -10e-4,-0.001 1.487,-4.977 9.317,-5.743 z"
   id="path138" />
&#10;			<path
   style="fill:none;stroke:#263238;stroke-width:0.75;stroke-linecap:round;stroke-linejoin:round;stroke-miterlimit:10"
   d="m 281.917,225.102 c 0,0 1.525,-2.405 4.587,-3.266"
   id="path139" />
&#10;			<g
   id="g142">&#10;				&#10;					<path
   style="fill:none;stroke:#263238;stroke-width:0.5263;stroke-linecap:round;stroke-linejoin:round;stroke-miterlimit:10"
   d="m 278.93,216.488 c 0.392,2.072 2.112,3.487 3.842,3.16 1.73,-0.327 2.814,-2.273 2.421,-4.346 -0.392,-2.072 -2.113,-3.487 -3.842,-3.16 -1.73,0.328 -2.814,2.274 -2.421,4.346 z"
   id="path140" />
&#10;				&#10;					<path
   style="fill:none;stroke:#263238;stroke-width:0.5263;stroke-linecap:round;stroke-linejoin:round;stroke-miterlimit:10"
   d="m 270.337,217.976 c 0.392,2.072 2.113,3.487 3.842,3.16 1.729,-0.327 2.814,-2.273 2.421,-4.346 -0.392,-2.072 -2.113,-3.487 -3.842,-3.16 -1.73,0.328 -2.814,2.273 -2.421,4.346 z"
   id="path141" />
&#10;				&#10;					<path
   style="fill:none;stroke:#263238;stroke-width:0.5263;stroke-linecap:round;stroke-linejoin:round;stroke-miterlimit:10"
   d="m 278.93,216.488 c 0,0 -1.416,-0.851 -2.33,0.302"
   id="path142" />
&#10;				&#10;					<line
   style="fill:none;stroke:#263238;stroke-width:0.5263;stroke-linecap:round;stroke-linejoin:round;stroke-miterlimit:10"
   x1="285.19299"
   y1="215.302"
   x2="292.69199"
   y2="213.20799"
   id="line142" />
&#10;			</g>
&#10;		</g>
&#10;		<path
   style="opacity:0.2;enable-background:new"
   d="m 311.161,319.8 c -23.56,7.228 -53.932,16.536 -54.358,16.681 0,0 -2.026,-14.951 7.787,-21.993 14.297,-10.259 45.836,-13.13 45.836,-13.13 0,0 0.396,8.911 0.735,18.442 z"
   id="path143" />
&#10;		<path
   style="fill:#263238"
   d="m 300.266,302.549 2.099,-13.146 -0.838,-6.865 47.752,-3.183 0.753,7.689 c 0,0 5.68,26.833 1.741,34.121 -7.033,13.011 -36.019,12.486 -61.198,12.486 5.474,15.97 16.452,56.5 16.452,56.5 l -13.166,5.953 c 0,0 -25.411,-46.227 -31.185,-66.229 -5.098,-17.66 19.61,-22.967 37.59,-27.326 z"
   id="path144" />
&#10;		<g
   id="g145">&#10;			<polygon
   style="fill:#407bff"
   points="307.741,386.184 309.986,393.732 292.316,400.921 288.199,393.698 "
   id="polygon144" />
&#10;			<polygon
   style="opacity:0.2;fill:#ffffff"
   points="307.741,386.184 309.986,393.732 292.316,400.921 288.199,393.698 "
   id="polygon145" />
&#10;		</g>
&#10;		<g
   id="g149">&#10;			<g
   id="g148">&#10;				<polygon
   points="333.693,281.496 334.313,287.492 350.585,286.519 349.603,280.475 "
   id="polygon146" />
&#10;				<polygon
   points="304.703,289.263 304.23,283.385 301.528,283.558 302.365,289.403 "
   id="polygon147" />
&#10;				<polygon
   points="306,283.272 306.607,289.149 332.403,287.606 331.92,281.609 "
   id="polygon148" />
&#10;			</g>
&#10;			<path
   style="fill:none;stroke:#ffffff;stroke-linecap:round;stroke-linejoin:round;stroke-miterlimit:10"
   d="m 318.967,288.329 -4.63,0.396 c -0.958,0.082 -1.801,-0.628 -1.883,-1.586 l -0.187,-2.182 c -0.082,-0.958 0.628,-1.801 1.586,-1.883 l 4.63,-0.397 c 0.958,-0.082 1.801,0.628 1.883,1.586 l 0.187,2.182 c 0.083,0.959 -0.627,1.802 -1.586,1.884 z"
   id="path148" />
&#10;			&#10;				<line
   style="fill:none;stroke:#ffffff;stroke-linecap:round;stroke-linejoin:round;stroke-miterlimit:10"
   x1="317.47699"
   y1="285.70099"
   x2="319.39099"
   y2="285.44"
   id="line148" />
&#10;		</g>
&#10;		<g
   id="g156">&#10;			<path
   style="opacity:0.2;enable-background:new"
   d="m 300.474,241.232 c 0,0 4.84,17.106 10.687,28.69 0,0 -9.214,-17.17 -12.65,-30.406 z"
   id="path149" />
&#10;			<g
   id="g153">&#10;				<path
   style="fill:#407bff"
   d="m 300.719,244.421 2.488,-3.254 h 1.34 l 1.909,2.02 0.196,2.286 c -2.349,1.051 -5.933,0.011 -5.933,0.011 z"
   id="path150" />
&#10;				<path
   style="fill:#407bff"
   d="m 303.112,242.041 c 0,0 0,-6.328 -1.34,-12.356 l 1.34,0.574 c 0,0 2.009,5.742 1.34,12.632 z"
   id="path151" />
&#10;				<path
   style="fill:#407bff"
   d="m 301.418,244.517 c 0,0 -9.406,-3.719 -10.313,-9.82 l -0.658,1.155 c 0,0 2.241,7.708 12.142,9.622 z"
   id="path152" />
&#10;				<path
   style="fill:#407bff"
   d="m 305.337,243.943 c 0,0 3.176,-0.387 4.468,-3.351 2.235,-5.128 -0.027,-12.659 5.523,-15.988 l 3.105,1.097 c 0,0 -2.743,1.925 -3.604,5.226 -1.123,4.304 -2.392,14.947 -9.492,14.547 z"
   id="path153" />
&#10;			</g>
&#10;			<path
   style="fill:#407bff"
   d="m 303.115,222.859 -4.605,11.322 -0.371,2.705 -3.271,-1.557 -5.271,-3.141 c 0,0 -2.334,3.268 1.577,8.372 l 3.695,-3.062 5.194,5.69 1.466,-6.966 6.053,1.946 c 0,0 2.432,-10.149 2.432,-13.065 z"
   id="path154" />
&#10;			<path
   style="opacity:0.6;fill:#ffffff;enable-background:new"
   d="m 310.01,225.104 c 0,2.912 -2.429,13.062 -2.429,13.062 l -6.057,-1.945 -1.461,6.967 -5.196,-5.689 -3.696,3.058 c -3.909,-5.099 -1.577,-8.37 -1.577,-8.37 l 5.273,3.145 3.27,1.558 0.377,-2.709 4.596,-11.321 z"
   id="path155" />
&#10;			<polygon
   style="opacity:0.2;enable-background:new"
   points="299.744,234.431 307.581,238.166 301.524,236.221 300.063,243.188 "
   id="polygon155" />
&#10;			<polygon
   style="opacity:0.2;enable-background:new"
   points="293.813,235.844 300.063,243.188 294.867,237.498 291.171,240.556 "
   id="polygon156" />
&#10;		</g>
&#10;		<path
   style="fill:#ebb376"
   d="m 274.861,254.119 -7.753,-0.873 c 0,0 -1.786,-1.484 -3.7,-1.739 -1.914,-0.255 -10.335,0.494 -11.356,0.885 -1.021,0.391 -0.638,8.421 0,8.553 0.638,0.132 10.59,0.251 11.483,0 0.893,-0.251 3.062,-2.675 3.062,-2.675 l 6.796,1.198 z"
   id="path156" />
&#10;		<g
   id="g158">&#10;			<path
   style="fill:#407bff"
   d="m 324.845,226.096 c -3.192,0.656 -18.013,28.76 -18.013,28.76 l -38.073,-1.908 -0.565,6.519 c 0,0 34.125,7.429 41.815,6.031 7.69,-1.398 21.564,-25.424 22.393,-28.065 1.885,-5.996 -5.42,-11.776 -7.557,-11.337 z"
   id="path157" />
&#10;			<path
   style="opacity:0.6;fill:#ffffff;enable-background:new"
   d="m 324.845,226.096 c -3.192,0.656 -18.013,28.76 -18.013,28.76 l -38.073,-1.908 -0.565,6.519 c 0,0 34.125,7.429 41.815,6.031 7.69,-1.398 21.564,-25.424 22.393,-28.065 1.885,-5.996 -5.42,-11.776 -7.557,-11.337 z"
   id="path158" />
&#10;		</g>
&#10;	</g>
&#10;</g>
    <g
       id="Progress_bar"
       transform="matrix(3.1344324,0,0,3.1344324,-116.93929,-354.47086)">&#10;	<g
   id="g173">&#10;		<g
   id="g161">&#10;			<path
   style="fill:#407bff"
   d="m 295.537,152.69 h -105.47 c -2.216,0 -4.014,1.797 -4.014,4.014 0,2.217 1.797,4.014 4.014,4.014 h 105.471 c 2.217,0 4.014,-1.797 4.014,-4.014 0,-2.217 -1.798,-4.014 -4.015,-4.014 z"
   id="path159" />
&#10;			<path
   style="opacity:0.6;fill:#ffffff;enable-background:new"
   d="m 295.537,152.69 h -105.47 c -2.216,0 -4.014,1.797 -4.014,4.014 0,2.217 1.797,4.014 4.014,4.014 h 105.471 c 2.217,0 4.014,-1.797 4.014,-4.014 0,-2.217 -1.798,-4.014 -4.015,-4.014 z"
   id="path160" />
&#10;			<path
   style="fill:#407bff"
   d="m 253.73,153.589 h -63.579 c -1.72,0 -3.114,1.394 -3.114,3.114 0,1.72 1.395,3.114 3.114,3.114 h 63.579 c 1.72,0 3.114,-1.394 3.114,-3.114 0,-1.72 -1.393,-3.114 -3.114,-3.114 z"
   id="path161" />
&#10;		</g>
&#10;		<g
   id="g172">&#10;			<path
   style="fill:#263238"
   d="m 220.104,141.876 c 0,1.039 -0.752,1.668 -1.996,1.668 h -1.183 v 1.449 h -0.684 v -4.785 h 1.866 c 1.245,0 1.997,0.628 1.997,1.668 z m -0.684,0 c 0,-0.684 -0.458,-1.073 -1.333,-1.073 h -1.162 v 2.146 h 1.162 c 0.875,0 1.333,-0.39 1.333,-1.073 z"
   id="path162" />
&#10;			<path
   style="fill:#263238"
   d="m 224.306,144.993 -1.032,-1.47 c -0.096,0.007 -0.198,0.014 -0.301,0.014 h -1.183 v 1.456 h -0.684 v -4.785 h 1.866 c 1.244,0 1.996,0.629 1.996,1.668 0,0.738 -0.383,1.271 -1.053,1.511 l 1.135,1.607 h -0.744 z m -0.02,-3.117 c 0,-0.684 -0.458,-1.073 -1.333,-1.073 h -1.162 v 2.153 h 1.162 c 0.875,0 1.333,-0.397 1.333,-1.08 z"
   id="path163" />
&#10;			<path
   style="fill:#263238"
   d="m 225.685,142.6 c 0,-1.401 1.08,-2.447 2.55,-2.447 1.456,0 2.536,1.039 2.536,2.447 0,1.408 -1.08,2.447 -2.536,2.447 -1.47,0 -2.55,-1.046 -2.55,-2.447 z m 4.402,0 c 0,-1.06 -0.793,-1.839 -1.853,-1.839 -1.073,0 -1.866,0.779 -1.866,1.839 0,1.06 0.793,1.839 1.866,1.839 1.06,0 1.853,-0.779 1.853,-1.839 z"
   id="path164" />
&#10;			<path
   style="fill:#263238"
   d="m 235.13,142.573 h 0.656 v 1.866 c -0.479,0.403 -1.142,0.608 -1.812,0.608 -1.47,0 -2.55,-1.032 -2.55,-2.447 0,-1.415 1.08,-2.447 2.563,-2.447 0.759,0 1.401,0.253 1.839,0.738 l -0.424,0.424 c -0.396,-0.383 -0.848,-0.554 -1.388,-0.554 -1.107,0 -1.907,0.773 -1.907,1.839 0,1.053 0.8,1.839 1.9,1.839 0.403,0 0.779,-0.089 1.121,-0.308 v -1.558 z"
   id="path165" />
&#10;			<path
   style="fill:#263238"
   d="m 240.289,144.993 -1.032,-1.47 c -0.096,0.007 -0.198,0.014 -0.301,0.014 h -1.183 v 1.456 h -0.684 v -4.785 h 1.866 c 1.244,0 1.996,0.629 1.996,1.668 0,0.738 -0.383,1.271 -1.053,1.511 l 1.135,1.607 h -0.744 z m -0.021,-3.117 c 0,-0.684 -0.458,-1.073 -1.333,-1.073 h -1.162 v 2.153 h 1.162 c 0.875,0 1.333,-0.397 1.333,-1.08 z"
   id="path166" />
&#10;			<path
   style="fill:#263238"
   d="m 245.53,144.398 v 0.595 h -3.473 v -4.785 h 3.377 v 0.595 h -2.693 v 1.47 h 2.399 v 0.581 h -2.399 v 1.545 h 2.789 z"
   id="path167" />
&#10;			<path
   style="fill:#263238"
   d="m 246.198,144.446 0.253,-0.533 c 0.355,0.321 0.964,0.554 1.579,0.554 0.827,0 1.183,-0.321 1.183,-0.738 0,-1.169 -2.898,-0.431 -2.898,-2.208 0,-0.738 0.574,-1.367 1.832,-1.367 0.561,0 1.142,0.15 1.538,0.424 l -0.226,0.547 c -0.417,-0.267 -0.889,-0.39 -1.313,-0.39 -0.813,0 -1.162,0.342 -1.162,0.759 0,1.169 2.898,0.438 2.898,2.194 0,0.732 -0.588,1.36 -1.852,1.36 -0.732,-0.001 -1.449,-0.247 -1.832,-0.602 z"
   id="path168" />
&#10;			<path
   style="fill:#263238"
   d="m 250.441,144.446 0.253,-0.533 c 0.355,0.321 0.964,0.554 1.579,0.554 0.827,0 1.183,-0.321 1.183,-0.738 0,-1.169 -2.898,-0.431 -2.898,-2.208 0,-0.738 0.574,-1.367 1.832,-1.367 0.561,0 1.142,0.15 1.538,0.424 l -0.226,0.547 c -0.417,-0.267 -0.889,-0.39 -1.313,-0.39 -0.813,0 -1.162,0.342 -1.162,0.759 0,1.169 2.899,0.438 2.899,2.194 0,0.732 -0.588,1.36 -1.853,1.36 -0.731,-0.001 -1.449,-0.247 -1.832,-0.602 z"
   id="path169" />
&#10;			<path
   style="fill:#263238"
   d="m 260.057,140.208 v 0.465 l -1.935,4.32 h -0.725 l 1.894,-4.191 h -2.188 v 0.854 h -0.656 v -1.449 h 3.61 z"
   id="path170" />
&#10;			<path
   style="fill:#263238"
   d="m 260.52,142.6 c 0,-1.559 0.834,-2.447 1.955,-2.447 1.114,0 1.948,0.889 1.948,2.447 0,1.559 -0.834,2.447 -1.948,2.447 -1.121,0 -1.955,-0.888 -1.955,-2.447 z m 3.22,0 c 0,-1.224 -0.519,-1.839 -1.265,-1.839 -0.752,0 -1.271,0.615 -1.271,1.839 0,1.224 0.52,1.839 1.271,1.839 0.745,0 1.265,-0.615 1.265,-1.839 z"
   id="path171" />
&#10;			<path
   style="fill:#263238"
   d="m 265.002,141.472 c 0,-0.779 0.451,-1.306 1.114,-1.306 0.663,0 1.107,0.52 1.107,1.306 0,0.786 -0.444,1.306 -1.107,1.306 -0.663,0 -1.114,-0.527 -1.114,-1.306 z m 1.785,0 c 0,-0.574 -0.253,-0.916 -0.67,-0.916 -0.41,0 -0.67,0.349 -0.67,0.916 0,0.567 0.26,0.916 0.67,0.916 0.417,0 0.67,-0.342 0.67,-0.916 z m 2.214,-1.264 h 0.526 l -3.267,4.785 h -0.526 z m -0.963,3.52 c 0,-0.779 0.444,-1.306 1.107,-1.306 0.663,0 1.114,0.526 1.114,1.306 0,0.78 -0.451,1.306 -1.114,1.306 -0.663,0 -1.107,-0.527 -1.107,-1.306 z m 1.777,0 c 0,-0.567 -0.26,-0.916 -0.67,-0.916 -0.417,0 -0.67,0.342 -0.67,0.916 0,0.574 0.253,0.916 0.67,0.916 0.41,0 0.67,-0.349 0.67,-0.916 z"
   id="path172" />
&#10;		</g>
&#10;	</g>
&#10;</g>
    <g
       id="Table"
       transform="matrix(3.1344324,0,0,3.1344324,-116.93929,-354.47086)">&#10;	<g
   id="g226">&#10;		<g
   id="g190">&#10;			<polygon
   style="fill:#407bff"
   points="115.298,245.928 113.573,245.928 114.984,244.517 116.206,243.295 153.586,243.295 153.586,244.968 156.056,244.968 153.311,246.203 153.311,247.59 158.354,247.59 158.354,250.165 160.584,250.165 158.354,251.28 158.354,254.162 156.769,254.162 156.769,255.534 153.586,255.534 153.586,259.619 155.37,259.619 153.911,261.078 153.911,262.905 115.082,262.89 115.082,259.619 112.886,259.619 115.082,258.343 113.435,258.343 115.631,256.907 117.709,256.907 117.709,255.26 115.298,255.26 117.709,254.299 117.709,250.732 115.298,250.732 115.298,248.398 112.886,248.398 115.298,247.59 "
   id="polygon173" />
&#10;			<polygon
   style="opacity:0.7;fill:#ffffff;enable-background:new"
   points="115.298,245.928 113.573,245.928 114.984,244.517 116.206,243.295 153.586,243.295 153.586,244.968 156.056,244.968 153.311,246.203 153.311,247.59 158.354,247.59 158.354,250.165 160.584,250.165 158.354,251.28 158.354,254.162 156.769,254.162 156.769,255.534 153.586,255.534 153.586,259.619 155.37,259.619 153.911,261.078 153.911,262.905 115.082,262.89 115.082,259.619 112.886,259.619 115.082,258.343 113.435,258.343 115.631,256.907 117.709,256.907 117.709,255.26 115.298,255.26 117.709,254.299 117.709,250.732 115.298,250.732 115.298,248.398 112.886,248.398 115.298,247.59 "
   id="polygon174" />
&#10;			<polygon
   style="opacity:0.1;enable-background:new"
   points="115.298,245.928 113.573,245.928 114.984,244.517 116.206,243.295 135.895,243.295 135.895,244.968 138.365,244.968 135.62,246.203 135.62,247.59 140.664,247.59 140.664,250.165 142.893,250.165 140.664,251.28 140.664,254.162 139.078,254.162 139.078,255.534 135.895,255.534 135.895,259.619 137.679,259.619 136.219,261.078 136.219,262.905 115.082,262.89 115.082,259.619 112.886,259.619 115.082,258.343 113.435,258.343 115.631,256.907 117.709,256.907 117.709,255.26 115.298,255.26 117.709,254.299 117.709,250.732 115.298,250.732 115.298,248.398 112.886,248.398 115.298,247.59 "
   id="polygon175" />
&#10;			<polygon
   style="opacity:0.1;enable-background:new"
   points="153.311,247.59 135.62,247.59 153.311,246.947 "
   id="polygon176" />
&#10;			<polygon
   style="opacity:0.1;enable-background:new"
   points="153.586,255.534 135.895,255.534 135.818,256.769 "
   id="polygon177" />
&#10;			<polygon
   style="opacity:0.1;enable-background:new"
   points="156.769,254.162 139.078,254.162 156.769,254.78 "
   id="polygon178" />
&#10;			<polygon
   style="opacity:0.1;enable-background:new"
   points="153.586,259.619 135.895,259.619 153.586,258.965 "
   id="polygon179" />
&#10;			<polygon
   style="opacity:0.1;enable-background:new"
   points="153.911,261.078 136.219,261.078 136.219,261.753 "
   id="polygon180" />
&#10;			<polygon
   style="opacity:0.1;enable-background:new"
   points="158.354,250.165 140.664,250.165 158.354,249.597 "
   id="polygon181" />
&#10;			<polygon
   style="opacity:0.1;enable-background:new"
   points="153.586,244.968 135.895,244.968 153.586,244.35 "
   id="polygon182" />
&#10;			<polygon
   style="opacity:0.1;enable-background:new"
   points="115.298,245.928 133.242,245.928 115.298,246.477 "
   id="polygon183" />
&#10;			<polygon
   style="opacity:0.1;enable-background:new"
   points="135.62,247.59 115.298,247.59 133.722,248.193 "
   id="polygon184" />
&#10;			<polygon
   style="opacity:0.1;enable-background:new"
   points="140.664,250.165 115.298,250.732 115.298,250.165 "
   id="polygon185" />
&#10;			<polygon
   style="opacity:0.1;enable-background:new"
   points="140.664,251.28 128.116,251.28 140.664,251.898 "
   id="polygon186" />
&#10;			<polygon
   style="opacity:0.1;enable-background:new"
   points="117.709,254.299 135.895,254.162 117.709,253.75 "
   id="polygon187" />
&#10;			<polygon
   style="opacity:0.1;enable-background:new"
   points="117.709,255.26 136.219,255.26 117.709,255.877 "
   id="polygon188" />
&#10;			<polygon
   style="opacity:0.1;enable-background:new"
   points="115.082,258.343 135.62,258.343 135.62,258.965 "
   id="polygon189" />
&#10;			<polygon
   style="opacity:0.1;enable-background:new"
   points="115.082,259.619 129.965,259.619 115.082,260.029 "
   id="polygon190" />
&#10;		</g>
&#10;		<g
   id="g192">&#10;			<polygon
   style="fill:#263238"
   points="219.715,263.523 220.537,260.419 254.288,260.419 269.83,261.971 270.422,263.523 "
   id="polygon191" />
&#10;			<polygon
   style="opacity:0.4;enable-background:new"
   points="220.537,260.419 254.288,260.419 254.288,263.523 219.715,263.523 "
   id="polygon192" />
&#10;		</g>
&#10;		<g
   id="g196">&#10;			<path
   style="fill:#263238"
   d="m 147.061,226.031 7.386,33.501 c 0.24,1.103 1.314,1.904 2.398,1.904 h 23.897 c 1.075,0 1.765,-1.001 1.516,-2.105 l -7.377,-33.246 c -0.249,-1.094 -1.314,-1.639 -2.398,-1.639 h -23.897 c -1.083,0.001 -1.764,0.492 -1.525,1.585 z"
   id="path192" />
&#10;			<path
   style="opacity:0.4;fill:#ffffff;enable-background:new"
   d="m 148.426,226.031 7.386,33.501 c 0.24,1.103 1.314,1.904 2.398,1.904 h 22.525 c 1.084,0 1.765,-1.001 1.525,-2.105 l -7.386,-33.246 c -0.24,-1.094 -1.314,-1.639 -2.398,-1.639 h -22.525 c -1.083,0.001 -1.764,0.492 -1.525,1.585 z"
   id="path193" />
&#10;			<path
   style="fill:#263238"
   d="m 158.41,259.234 v 3.105 c 0,0.796 0.938,1.122 1.725,1.122 h 55.271 c 0.796,0 1.755,-0.326 1.755,-1.122 v -3.105 z"
   id="path194" />
&#10;			<path
   style="opacity:0.2;fill:#ffffff;enable-background:new"
   d="m 217.161,259.234 v 3.105 c 0,0.796 -0.938,1.122 -1.725,1.122 h -55.271 c -0.796,0 -1.755,-0.326 -1.755,-1.122 v -3.105 z"
   id="path195" />
&#10;			<path
   style="opacity:0.4;enable-background:new"
   d="m 217.161,259.234 v 3.105 c 0,0.796 -0.938,1.122 -1.725,1.122 h -25.44 c -0.796,0 -1.741,-0.326 -1.741,-1.122 v -3.105 z"
   id="path196" />
&#10;			<polygon
   style="fill:#407bff;enable-background:new"
   points="156.423,256.769 180.916,256.769 174.213,226.599 149.771,226.599 "
   id="polygon196" />
&#10;		</g>
&#10;		<g
   id="g199">&#10;			<path
   style="fill:#263238"
   d="m 247.508,245.559 c 0.15,1.64 -1.049,2.971 -2.68,2.971 h -51.702 c -1.64,0 -3.088,-1.332 -3.238,-2.971 l -3.071,-33.101 c -0.033,-0.341 -0.008,-0.666 0.066,-0.965 0.291,-1.165 1.315,-2.006 2.613,-2.006 h 51.702 c 1.64,0 3.088,1.332 3.238,2.971 z"
   id="path197" />
&#10;			<path
   style="opacity:0.4;enable-background:new"
   d="m 244.645,248.53 h -51.52 c -1.64,0 -3.088,-1.332 -3.238,-2.971 l -3.071,-33.101 c -0.033,-0.341 -0.008,-0.666 0.066,-0.965 h 51.52 c 1.631,0 3.079,1.332 3.237,2.971 l 3.071,33.101 c 0.035,0.341 0.009,0.665 -0.065,0.965 z"
   id="path198" />
&#10;			<polygon
   style="fill:#263238"
   points="205.557,258.851 209.124,228.228 219.82,228.228 216.969,258.851 233.883,261.391 233.883,263.523 198.26,263.523 198.26,261.391 "
   id="polygon198" />
&#10;			<polygon
   style="opacity:0.1;fill:#ffffff;enable-background:new"
   points="209.124,228.228 219.82,228.228 211.895,263.037 205.557,262.848 "
   id="polygon199" />
&#10;		</g>
&#10;		<g
   id="g215">&#10;			<g
   id="g202">&#10;				<polygon
   style="fill:#263238"
   points="175.429,269.966 184.143,418.242 178.215,418.242 167.565,269.966 "
   id="polygon200" />
&#10;				<polygon
   style="opacity:0.1;fill:#ffffff;enable-background:new"
   points="167.562,270.204 175.429,270.204 175.854,277.331 184.146,418.242 178.215,418.242 168.085,277.331 "
   id="polygon201" />
&#10;				<polygon
   style="opacity:0.2;enable-background:new"
   points="175.429,270.204 175.854,276.977 168.085,276.977 167.562,270.204 "
   id="polygon202" />
&#10;			</g>
&#10;			<g
   id="g205">&#10;				<polygon
   style="fill:#263238"
   points="257.639,269.966 256.671,418.242 250.743,418.242 249.775,269.966 "
   id="polygon203" />
&#10;				<polygon
   style="opacity:0.1;fill:#ffffff;enable-background:new"
   points="250.744,418.242 249.932,294.128 249.777,270.204 257.643,270.204 257.488,294.128 256.676,418.242 "
   id="polygon204" />
&#10;				<polygon
   style="opacity:0.2;enable-background:new"
   points="249.777,270.204 257.643,270.204 257.488,294.394 249.932,294.394 "
   id="polygon205" />
&#10;			</g>
&#10;			<g
   id="g208">&#10;				<polygon
   style="fill:#263238"
   points="310.889,269.966 319.602,418.242 313.675,418.242 303.025,269.966 "
   id="polygon206" />
&#10;				<polygon
   style="opacity:0.1;fill:#ffffff;enable-background:new"
   points="303.022,270.204 310.888,270.204 311.314,277.331 319.606,418.242 313.675,418.242 303.544,277.331 "
   id="polygon207" />
&#10;				<polygon
   style="opacity:0.2;enable-background:new"
   points="310.888,270.204 311.314,276.977 303.544,276.977 303.022,270.204 "
   id="polygon208" />
&#10;			</g>
&#10;			<g
   id="g211">&#10;				<polygon
   style="fill:#263238"
   points="126.983,269.966 116.334,418.242 110.406,418.242 119.12,269.966 "
   id="polygon209" />
&#10;				<polygon
   style="opacity:0.1;fill:#ffffff;enable-background:new"
   points="110.408,418.242 118.69,277.331 119.116,270.204 126.982,270.204 126.46,277.331 116.329,418.242 "
   id="polygon210" />
&#10;				<polygon
   style="opacity:0.2;enable-background:new"
   points="118.69,276.977 119.116,270.204 126.982,270.204 126.46,276.977 "
   id="polygon211" />
&#10;			</g>
&#10;			<g
   id="g212">&#10;				<path
   style="fill:#407bff"
   d="M 314.96,273.679 H 115.049 c -1.194,0 -2.162,-0.968 -2.162,-2.162 v -5.265 h 204.236 v 5.265 c -10e-4,1.194 -0.969,2.162 -2.163,2.162 z"
   id="path211" />
&#10;				<path
   style="opacity:0.4;fill:#ffffff;enable-background:new"
   d="M 314.96,273.679 H 115.049 c -1.194,0 -2.162,-0.968 -2.162,-2.162 v -5.265 h 204.236 v 5.265 c -10e-4,1.194 -0.969,2.162 -2.163,2.162 z"
   id="path212" />
&#10;			</g>
&#10;			<rect
   x="112.886"
   y="266.25201"
   style="opacity:0.2;enable-background:new"
   width="204.23599"
   height="3.7130001"
   id="rect212" />
&#10;			<g
   id="g214">&#10;				<path
   style="fill:#407bff"
   d="M 320.796,267.22 H 109.212 c -1.155,0 -2.092,-0.937 -2.092,-2.092 v 0 c 0,-1.155 0.937,-2.092 2.092,-2.092 h 211.584 c 1.155,0 2.092,0.937 2.092,2.092 v 0 c 0,1.156 -0.936,2.092 -2.092,2.092 z"
   id="path213" />
&#10;				<path
   style="opacity:0.4;fill:#ffffff;enable-background:new"
   d="M 320.796,267.22 H 109.212 c -1.155,0 -2.092,-0.937 -2.092,-2.092 v 0 c 0,-1.155 0.937,-2.092 2.092,-2.092 h 211.584 c 1.155,0 2.092,0.937 2.092,2.092 v 0 c 0,1.156 -0.936,2.092 -2.092,2.092 z"
   id="path214" />
&#10;			</g>
&#10;		</g>
&#10;		<g
   id="g225">&#10;			<polygon
   style="fill:#407bff"
   points="305.494,255.534 308.677,255.534 308.677,254.162 310.263,254.162 310.263,253.602 269.618,253.602 269.618,254.299 267.206,255.26 269.618,255.26 269.618,256.907 267.539,256.907 265.344,258.343 266.991,258.343 264.795,259.619 266.991,259.619 266.991,262.89 305.819,262.905 305.819,261.078 307.278,259.619 305.494,259.619 "
   id="polygon215" />
&#10;			<polygon
   style="opacity:0.9;fill:#ffffff;enable-background:new"
   points="305.494,255.534 308.677,255.534 308.677,254.162 310.263,254.162 310.263,253.602 269.618,253.602 269.618,254.299 267.206,255.26 269.618,255.26 269.618,256.907 267.539,256.907 265.344,258.343 266.991,258.343 264.795,259.619 266.991,259.619 266.991,262.89 305.819,262.905 305.819,261.078 307.278,259.619 305.494,259.619 "
   id="polygon216" />
&#10;			<polygon
   style="opacity:0.1;enable-background:new"
   points="287.803,255.534 290.986,255.534 290.986,254.162 292.572,254.162 292.572,253.602 269.618,253.602 269.618,254.299 267.206,255.26 269.618,255.26 269.618,256.907 267.539,256.907 265.344,258.343 266.991,258.343 264.795,259.619 266.991,259.619 266.991,262.89 288.128,262.905 288.128,261.078 289.587,259.619 287.803,259.619 "
   id="polygon217" />
&#10;			<polygon
   style="opacity:0.1;enable-background:new"
   points="305.494,255.534 287.803,255.534 287.726,256.769 "
   id="polygon218" />
&#10;			<polygon
   style="opacity:0.1;enable-background:new"
   points="308.677,254.162 290.986,254.162 308.677,254.78 "
   id="polygon219" />
&#10;			<polygon
   style="opacity:0.1;enable-background:new"
   points="305.494,259.619 287.803,259.619 305.494,258.965 "
   id="polygon220" />
&#10;			<polygon
   style="opacity:0.1;enable-background:new"
   points="305.819,261.078 288.128,261.078 288.128,261.753 "
   id="polygon221" />
&#10;			<polygon
   style="opacity:0.1;enable-background:new"
   points="269.618,254.299 287.803,254.162 269.618,253.75 "
   id="polygon222" />
&#10;			<polygon
   style="opacity:0.1;enable-background:new"
   points="269.618,255.26 288.128,255.26 269.618,255.877 "
   id="polygon223" />
&#10;			<polygon
   style="opacity:0.1;enable-background:new"
   points="266.99,258.343 287.529,258.343 287.529,258.965 "
   id="polygon224" />
&#10;			<polygon
   style="opacity:0.1;enable-background:new"
   points="266.99,259.619 281.873,259.619 266.99,260.029 "
   id="polygon225" />
&#10;		</g>
&#10;	</g>
&#10;</g>
  </g>
</svg>
