<svg version="1.2" xmlns="http://www.w3.org/2000/svg" viewBox="0 0 1000 1000" width="1000" height="1000">
	<title>9412344</title>
	<style>
		tspan { white-space:pre } 
		.s0 { fill: #e0e0e0 } 
		.s1 { fill: #f5f5f5 } 
		.s2 { fill: #407bff } 
		.s3 { fill: #ffffff } 
		.s4 { fill: #263238 } 
		.s5 { opacity: .4;fill: #ffffff } 
		.s6 { opacity: .2;fill: #ffffff } 
		.s7 { fill: #000000 } 
		.s8 { opacity: .2;fill: #000000 } 
		.s9 { opacity: .1;fill: #ffffff } 
		.s10 { opacity: .6;fill: #ffffff } 
		.t11 { font-size: 12px;fill: #ffffff;font-weight: 700;font-family: "Montserrat-Bold", "Montserrat" } 
		.s12 { opacity: .1;fill: #000000 } 
		.s13 { opacity: .4;fill: #407bff } 
		.s14 { opacity: .3;fill: none;stroke: #000000;stroke-miterlimit:10;stroke-width: 2 } 
		.s15 { fill: #fdbbb5 } 
		.s16 { fill: #d7504d } 
	</style>
	<g id="Background complete">
		<g id="&lt;Group&gt;">
			<g id="&lt;Group&gt;">
				<g id="&lt;Group&gt;">
					<g id="&lt;Group&gt;">
						<g id="&lt;Group&gt;">
							<path id="&lt;Compound Path&gt;" fill-rule="evenodd" class="s0" d="m887.8 641.8h-361.5c-6.4 0-11.7-5.2-11.7-11.7v-526.5c0-6.5 5.3-11.8 11.7-11.8h361.5c6.5 0 11.8 5.3 11.8 11.8v526.5c0 6.5-5.3 11.7-11.8 11.7zm-361.5-549.5c-6.1 0-11.2 5.1-11.2 11.3v526.5c0 6.2 5.1 11.2 11.2 11.2h361.5c6.2 0 11.3-5 11.3-11.2v-526.5c0-6.2-5.1-11.3-11.3-11.3z"/>
						</g>
					</g>
					<g id="&lt;Group&gt;">
						<g id="&lt;Group&gt;">
							<path id="&lt;Compound Path&gt;" fill-rule="evenodd" class="s0" d="m471 641.8h-361.5c-6.5 0-11.7-5.2-11.7-11.7v-526.5c0-6.5 5.2-11.8 11.7-11.8h361.5c6.5 0 11.7 5.3 11.7 11.8v526.5c0 6.5-5.2 11.7-11.7 11.7zm-361.5-549.5c-6.2 0-11.2 5.1-11.2 11.3v526.5c0 6.2 5 11.2 11.2 11.2h361.5c6.2 0 11.2-5 11.2-11.2v-526.5c0-6.2-5-11.3-11.2-11.3z"/>
						</g>
					</g>
				</g>
				<g id="&lt;Group&gt;">
					<g id="&lt;Group&gt;">
						<path id="&lt;Path&gt;" class="s0" d="m1000 764.5h-1000v-0.5h1000z"/>
					</g>
				</g>
			</g>
			<path id="&lt;Path&gt;" class="s0" d="m103.3 792.5h32.2v0.5h-32.2z"/>
			<path id="&lt;Path&gt;" class="s0" d="m340.7 787.1h107.1v0.5h-107.1z"/>
			<path id="&lt;Path&gt;" class="s0" d="m137.5 811.1h72.5v0.5h-72.5z"/>
			<path id="&lt;Path&gt;" class="s0" d="m756.7 786.8h86.4v0.5h-86.4z"/>
			<path id="&lt;Path&gt;" class="s0" d="m860.9 786.8h12.7v0.5h-12.7z"/>
			<path id="&lt;Path&gt;" class="s0" d="m632.4 799.3h107.8v0.5h-107.8z"/>
		</g>
		<g id="&lt;Group&gt;">
			<path id="&lt;Path&gt;" class="s0" d="m752.7 212.2h-122.9v-51.1h122.9z"/>
			<path id="&lt;Path&gt;" class="s1" d="m825.1 263.2h-122.9v-51h122.9z"/>
		</g>
		<g id="&lt;Group&gt;">
			<path id="&lt;Path&gt;" class="s0" d="m180.9 743.4h-123v-51h123z"/>
			<path id="&lt;Path&gt;" class="s1" d="m930.6 752.1h-123v-51.1h123z"/>
		</g>
		<g id="&lt;Group&gt;">
			<path id="&lt;Path&gt;" class="s0" d="m555.9 590.3h-123v-51h123z"/>
			<path id="&lt;Path&gt;" class="s1" d="m628.3 641.4h-123v-51.1h123z"/>
		</g>
		<path id="&lt;Path&gt;" class="s1" d="m191.4 347.9h-123v-51h123z"/>
		<path id="&lt;Path&gt;" class="s1" d="m940.5 443.5h-122.9v-51.1h122.9z"/>
		<path id="&lt;Path&gt;" class="s1" d="m455.7 110.9h-122.9v-51h122.9z"/>
		<path id="&lt;Path&gt;" class="s0" d="m258.4 426.4h-122.9v-51.1h122.9z"/>
	</g>
	<g id="Shadow">
		<g id="&lt;Group&gt;">
			<g id="&lt;Group&gt;">
				<path id="&lt;Path&gt;" class="s1" d="m891.5 900c0 10.6-165.7 19.2-370.1 19.2-204.4 0-370.1-8.6-370.1-19.2 0-10.5 165.7-19.1 370.1-19.1 204.4 0 370.1 8.6 370.1 19.1z"/>
			</g>
		</g>
	</g>
	<g id="Light bulb">
		<g id="&lt;Group&gt;">
			<g id="&lt;Group&gt;">
				<g id="&lt;Group&gt;">
					<path id="&lt;Path&gt;" class="s2" d="m290.9 316.5q61.2-27.9 122.4-55.9 8.7-4 17.4-8c10.6-4.8 19.6-18.6 22.6-29.3 3.2-11.8 1.7-27.4-5-37.8-6.7-10.5-16.8-19.8-29.3-22.6q-6.6-0.9-13.1-1.8-13.3 0.1-24.8 6.7-61.2 28-122.4 56-8.7 4-17.4 7.9c-10.5 4.9-19.6 18.7-22.5 29.4-3.3 11.7-1.8 27.4 4.9 37.8 6.8 10.5 16.8 19.7 29.4 22.6q6.5 0.9 13 1.7 13.3 0 24.8-6.7z"/>
				</g>
				<g id="&lt;Group&gt;" style="opacity: .4">
					<path id="&lt;Path&gt;" class="s3" d="m290.9 316.5q61.2-27.9 122.4-55.9 8.7-4 17.4-8c10.6-4.8 19.6-18.6 22.6-29.3 3.2-11.8 1.7-27.4-5-37.8-6.7-10.5-16.8-19.8-29.3-22.6q-6.6-0.9-13.1-1.8-13.3 0.1-24.8 6.7-61.2 28-122.4 56-8.7 4-17.4 7.9c-10.5 4.9-19.6 18.7-22.5 29.4-3.3 11.7-1.8 27.4 4.9 37.8 6.8 10.5 16.8 19.7 29.4 22.6q6.5 0.9 13 1.7 13.3 0 24.8-6.7z"/>
				</g>
				<g id="&lt;Group&gt;">
					<path id="&lt;Path&gt;" class="s2" d="m284.1 524.3q37.7-17.2 75.4-34.4 59.7-27.3 119.3-54.5 13.8-6.3 27.6-12.7c10.6-4.8 19.6-18.6 22.6-29.3 3.2-11.8 1.8-27.4-5-37.8-6.7-10.5-16.8-19.8-29.3-22.6q-6.5-0.9-13.1-1.8-13.3 0.1-24.8 6.7-37.7 17.3-75.4 34.5-59.6 27.3-119.2 54.5-13.8 6.3-27.6 12.6c-10.6 4.9-19.7 18.7-22.6 29.4-3.2 11.7-1.8 27.4 4.9 37.8 6.8 10.5 16.9 19.7 29.4 22.6q6.5 0.9 13 1.7 13.3 0 24.8-6.7z"/>
				</g>
				<g id="&lt;Group&gt;" style="opacity: .4">
					<path id="&lt;Path&gt;" class="s3" d="m284.1 524.3q37.7-17.2 75.4-34.4 59.7-27.3 119.3-54.5 13.8-6.3 27.6-12.7c10.6-4.8 19.6-18.6 22.6-29.3 3.2-11.8 1.8-27.4-5-37.8-6.7-10.5-16.8-19.8-29.3-22.6q-6.5-0.9-13.1-1.8-13.3 0.1-24.8 6.7-37.7 17.3-75.4 34.5-59.6 27.3-119.2 54.5-13.8 6.3-27.6 12.6c-10.6 4.9-19.7 18.7-22.6 29.4-3.2 11.7-1.8 27.4 4.9 37.8 6.8 10.5 16.9 19.7 29.4 22.6q6.5 0.9 13 1.7 13.3 0 24.8-6.7z"/>
				</g>
				<g id="&lt;Group&gt;">
					<path id="&lt;Path&gt;" class="s2" d="m273.8 587.9q0 34 0 68 49.1 0 98.2 0 0-0.9 0-1.9c0-12.6-5.4-25.8-14.4-34.7q-6.6-7.2-15.8-10.1-8.7-4.7-18.9-4.3c-12.7 0.6-25.8 4.8-34.7 14.4-8.8 9.6-14.4 21.4-14.4 34.7q0 1 0 1.9c0 12.6 5.5 25.9 14.4 34.8q6.7 7.1 15.8 10.1 8.8 4.6 18.9 4.2c12.7-0.5 25.9-4.7 34.7-14.3 8.9-9.7 14.4-21.5 14.4-34.8q0-34 0-68c0-12.6-5.4-25.8-14.4-34.7q-6.6-7.2-15.8-10.1-8.7-4.7-18.9-4.3c-12.7 0.6-25.8 4.8-34.7 14.4-8.8 9.6-14.4 21.4-14.4 34.7z"/>
				</g>
				<g id="&lt;Group&gt;" style="opacity: .4">
					<path id="&lt;Path&gt;" class="s3" d="m273.8 587.9q0 34 0 68 49.1 0 98.2 0 0-0.9 0-1.9c0-12.6-5.4-25.8-14.4-34.7q-6.6-7.2-15.8-10.1-8.7-4.7-18.9-4.3c-12.7 0.6-25.8 4.8-34.7 14.4-8.8 9.6-14.4 21.4-14.4 34.7q0 1 0 1.9c0 12.6 5.5 25.9 14.4 34.8q6.7 7.1 15.8 10.1 8.8 4.6 18.9 4.2c12.7-0.5 25.9-4.7 34.7-14.3 8.9-9.7 14.4-21.5 14.4-34.8q0-34 0-68c0-12.6-5.4-25.8-14.4-34.7q-6.6-7.2-15.8-10.1-8.7-4.7-18.9-4.3c-12.7 0.6-25.8 4.8-34.7 14.4-8.8 9.6-14.4 21.4-14.4 34.7z"/>
				</g>
				<g id="&lt;Group&gt;">
					<path id="&lt;Path&gt;" class="s2" d="m409.9 509.7q0 68.3 0 136.5 0 13.5 0 26.9 49.1 0 98.2 0 0-13.9 0-27.8c0-12.6-5.5-25.8-14.4-34.7-8.5-8.5-22.5-14.9-34.7-14.4-12.7 0.6-25.9 4.8-34.7 14.4-8.8 9.6-14.4 21.4-14.4 34.7q0 13.9 0 27.8c0 12.6 5.5 25.8 14.4 34.7 8.5 8.5 22.5 15 34.7 14.4 12.7-0.6 25.9-4.7 34.7-14.4 8.8-9.6 14.4-21.4 14.4-34.7q0-68.3 0-136.6 0-13.4 0-26.8c0-12.6-5.5-25.8-14.4-34.8-8.5-8.5-22.5-14.9-34.7-14.3-12.7 0.5-25.9 4.7-34.7 14.3-8.8 9.7-14.4 21.5-14.4 34.8z"/>
				</g>
				<g id="&lt;Group&gt;" style="opacity: .4">
					<path id="&lt;Path&gt;" class="s3" d="m409.9 509.7q0 68.3 0 136.5 0 13.5 0 26.9 49.1 0 98.2 0 0-13.9 0-27.8c0-12.6-5.5-25.8-14.4-34.7-8.5-8.5-22.5-14.9-34.7-14.4-12.7 0.6-25.9 4.8-34.7 14.4-8.8 9.6-14.4 21.4-14.4 34.7q0 13.9 0 27.8c0 12.6 5.5 25.8 14.4 34.7 8.5 8.5 22.5 15 34.7 14.4 12.7-0.6 25.9-4.7 34.7-14.4 8.8-9.6 14.4-21.4 14.4-34.7q0-68.3 0-136.6 0-13.4 0-26.8c0-12.6-5.5-25.8-14.4-34.8-8.5-8.5-22.5-14.9-34.7-14.3-12.7 0.5-25.9 4.7-34.7 14.3-8.8 9.7-14.4 21.5-14.4 34.8z"/>
				</g>
				<g id="&lt;Group&gt;">
					<path id="&lt;Path&gt;" class="s2" d="m300.2 617.8q37.7-17.2 75.4-34.5 59.7-27.2 119.3-54.5 13.8-6.3 27.6-12.6c10.6-4.8 19.6-18.6 22.6-29.3 3.2-11.8 1.8-27.4-5-37.9-6.7-10.5-16.8-19.7-29.3-22.5q-6.5-0.9-13.1-1.8-13.3 0-24.8 6.7-37.7 17.2-75.4 34.5-59.6 27.2-119.2 54.5-13.8 6.3-27.6 12.6c-10.6 4.8-19.7 18.6-22.6 29.3-3.3 11.8-1.8 27.5 4.9 37.9 6.8 10.5 16.9 19.7 29.4 22.6q6.5 0.8 13 1.7 13.3 0 24.8-6.7z"/>
				</g>
				<g id="&lt;Group&gt;">
					<path id="&lt;Path&gt;" class="s2" d="m279.4 421.5q37.7-17.2 75.4-34.5 59.7-27.2 119.3-54.5 13.8-6.3 27.6-12.6c10.5-4.8 19.6-18.6 22.6-29.4 3.2-11.7 1.7-27.4-5-37.8-6.7-10.5-16.8-19.7-29.3-22.6q-6.6-0.8-13.1-1.7-13.3 0-24.8 6.7-37.7 17.2-75.4 34.5-59.6 27.2-119.2 54.5-13.9 6.3-27.7 12.6c-10.5 4.8-19.6 18.6-22.5 29.3-3.3 11.8-1.8 27.4 4.9 37.9 6.8 10.5 16.9 19.7 29.4 22.5q6.5 0.9 13 1.8 13.3-0.1 24.8-6.7z"/>
				</g>
				<g id="&lt;Group&gt;" style="opacity: .4">
					<path id="&lt;Path&gt;" class="s3" d="m300.2 617.8q37.7-17.2 75.4-34.5 59.7-27.2 119.3-54.5 13.8-6.3 27.6-12.6c10.6-4.8 19.6-18.6 22.6-29.3 3.2-11.8 1.8-27.4-5-37.9-6.7-10.5-16.8-19.7-29.3-22.5q-6.5-0.9-13.1-1.8-13.3 0-24.8 6.7-37.7 17.2-75.4 34.5-59.6 27.2-119.2 54.5-13.8 6.3-27.6 12.6c-10.6 4.8-19.7 18.6-22.6 29.3-3.3 11.8-1.8 27.5 4.9 37.9 6.8 10.5 16.9 19.7 29.4 22.6q6.5 0.8 13 1.7 13.3 0 24.8-6.7z"/>
				</g>
				<g id="&lt;Group&gt;" style="opacity: .4">
					<path id="&lt;Path&gt;" class="s3" d="m279.4 421.5q37.7-17.2 75.4-34.5 59.7-27.2 119.3-54.5 13.8-6.3 27.6-12.6c10.5-4.8 19.6-18.6 22.6-29.4 3.2-11.7 1.7-27.4-5-37.8-6.7-10.5-16.8-19.7-29.3-22.6q-6.6-0.8-13.1-1.7-13.3 0-24.8 6.7-37.7 17.2-75.4 34.5-59.6 27.2-119.2 54.5-13.9 6.3-27.7 12.6c-10.5 4.8-19.6 18.6-22.5 29.3-3.3 11.8-1.8 27.4 4.9 37.9 6.8 10.5 16.9 19.7 29.4 22.5q6.5 0.9 13 1.8 13.3-0.1 24.8-6.7z"/>
				</g>
				<path id="&lt;Path&gt;" class="s4" d="m325.2 855c2.3 1.9 26.5 33.8 37.8 40.8 8.4 5.2 38.2 4.5 53.3 3.7 5.6-0.3 13.1-5.7 16.5-9.5l26.2-35z"/>
				<path id="&lt;Path&gt;" class="s4" d="m525.5 757.4h-266.9c-2.2 0-4-1.8-4-4v-93.5c0-2.2 1.8-4 4-4h266.9c2.2 0 3.9 1.8 3.9 4v93.5c0 2.2-1.7 4-3.9 4z"/>
				<path id="&lt;Path&gt;" class="s4" d="m397.5 757.4h-12.2-123.8c0.8 0 7.4 47.2 15.3 52.4 7.8 5.3 25.7 12.7 29.2 17 3.4 4.4 18.3 33.2 18.3 33.2 0 0 49.5 3.5 67.1 1.9 17.6 1.6 67.2-1.9 67.2-1.9 0 0 14.8-28.8 18.3-33.2 3.5-4.3 21.3-11.7 29.2-17 7.8-5.2 14.4-52.4 15.3-52.4z"/>
				<path id="&lt;Path&gt;" class="s5" d="m525.5 757.4h-266.9c-2.2 0-4-1.8-4-4v-93.5c0-2.2 1.8-4 4-4h266.9c2.2 0 3.9 1.8 3.9 4v93.5c0 2.2-1.7 4-3.9 4z"/>
				<path id="&lt;Path&gt;" class="s6" d="m397.5 757.4h-12.2-123.8c0.8 0 7.4 47.2 15.3 52.4 7.8 5.3 25.7 12.7 29.2 17 3.4 4.4 18.3 33.2 18.3 33.2 0 0 49.5 3.5 67.1 1.9 17.6 1.6 67.2-1.9 67.2-1.9 0 0 14.8-28.8 18.3-33.2 3.5-4.3 21.3-11.7 29.2-17 7.8-5.2 14.4-52.4 15.3-52.4z"/>
				<g id="&lt;Group&gt;" style="opacity: .4">
					<path id="&lt;Path&gt;" class="s7" d="m256 531.8q41-17.5 81.9-35.1 65-27.9 130.1-55.8 14.9-6.4 29.8-12.8c3.2-1.4 0.5-6.1-2.7-4.7q-41 17.6-82 35.1-65 27.9-130 55.8-14.9 6.4-29.9 12.8c-3.2 1.4-0.4 6.1 2.8 4.7z"/>
				</g>
				<g id="&lt;Group&gt;" style="opacity: .4">
					<path id="&lt;Path&gt;" class="s7" d="m255.3 431q37.9-16.2 75.7-32.4 60.2-25.9 120.5-51.7 13.7-5.9 27.4-11.8c3.2-1.3 0.5-6-2.7-4.7q-37.9 16.3-75.7 32.5-60.2 25.8-120.5 51.7-13.7 5.8-27.4 11.7c-3.2 1.4-0.5 6.1 2.7 4.7z"/>
				</g>
				<g id="&lt;Group&gt;" style="opacity: .4">
					<path id="&lt;Path&gt;" class="s7" d="m259.1 322.7q32.5-14.3 65-28.5 51.8-22.8 103.6-45.5 11.9-5.2 23.7-10.4c3.2-1.4 0.4-6.1-2.8-4.7q-32.5 14.3-65.1 28.6-51.8 22.7-103.6 45.4-11.8 5.2-23.6 10.4c-3.2 1.4-0.4 6.1 2.8 4.7z"/>
				</g>
				<g id="&lt;Group&gt;" style="opacity: .4">
					<path id="&lt;Path&gt;" class="s3" d="m246.4 236.9c-6 6-11.8 12.5-15.5 20.2-3.7 7.7-5.2 16.7-2.4 24.8 2.8 8 10.4 14.6 19 14.7 6.7 0 12.8-3.8 18.5-7.5q31.4-20.2 62.8-40.4c18.3-11.8 33.5-22.5 48.3-38.5 3.3-3.5 10.5-20.4 4.8-23.1-5.5-2.7-11.9-6.4-27.6 1.4 0 0-46.6 19.4-107.9 48.4z"/>
				</g>
				<g id="&lt;Group&gt;" style="opacity: .4">
					<path id="&lt;Path&gt;" class="s3" d="m255.3 341.7c-7.9 4.7-15.8 9.8-21.7 16.8-5.9 7.1-9.6 16.5-7.9 25.6 1.7 9 9.8 17 19 16.7 7-0.2 13-4.7 18.4-9.1 28.8-22.8 68.2-47.7 74.5-85.2-28.8 8.2-56.5 20.1-82.3 35.2z"/>
				</g>
				<g id="&lt;Group&gt;" style="opacity: .4">
					<path id="&lt;Path&gt;" class="s3" d="m255.3 447c-7.9 4.6-15.8 9.7-21.7 16.8-5.9 7.1-9.6 16.5-7.9 25.5 1.7 9.1 9.8 17.1 19 16.8 7-0.2 13-4.8 18.4-9.1 28.8-22.9 68.2-47.7 74.5-85.3-28.8 8.3-56.5 20.2-82.3 35.3z"/>
				</g>
				<g id="&lt;Group&gt;" style="opacity: .4">
					<path id="&lt;Path&gt;" class="s3" d="m270.2 541.4c-8 4.6-15.9 9.7-21.8 16.8-5.9 7-9.6 16.5-7.8 25.5 1.7 9 9.8 17.1 19 16.8 6.9-0.3 12.9-4.8 18.4-9.1 28.8-22.9 68.2-47.7 74.5-85.3-28.8 8.3-56.5 20.1-82.3 35.3z"/>
				</g>
				<path id="&lt;Path&gt;" class="s8" d="m273.7 640.3l-0.1-15.7 98.7-40v20.2z"/>
				<path id="&lt;Path&gt;" class="s8" d="m410 583l-0.1-15.6 98.2-44.6v22.6z"/>
				<g id="&lt;Group&gt;">
					<path id="&lt;Path&gt;" class="s3" d="m228.8 344.7c-14.8 12.7-18.9 33.9-10.2 51.2 0.8 1.6 3.2 0.2 2.4-1.3-8.2-16.4-4.1-36.1 9.7-48 1.4-1.1-0.6-3-1.9-1.9z"/>
				</g>
				<g id="&lt;Group&gt;">
					<path id="&lt;Path&gt;" class="s3" d="m228.8 284.6c-3.1-16 3.4-33.3 16.4-43.1 1.4-1.1 0.1-3.4-1.3-2.4-14.1 10.6-21.1 28.9-17.7 46.3 0.3 1.7 3 0.9 2.6-0.8z"/>
				</g>
				<g id="&lt;Group&gt;">
					<path id="&lt;Path&gt;" class="s3" d="m222.6 498.7c-7.1-16-3.5-35.7 8.7-48.3 1.2-1.3-0.7-3.2-2-1.9-13 13.5-16.7 34.5-9 51.6 0.7 1.6 3.1 0.2 2.3-1.4z"/>
				</g>
				<g id="&lt;Group&gt;">
					<path id="&lt;Path&gt;" class="s3" d="m244.2 545.3c-13.2 12.4-17.1 31.7-9.9 48.4 0.7 1.6 3.1 0.2 2.4-1.4-6.7-15.5-2.9-33.6 9.4-45.1 1.3-1.2-0.6-3.1-1.9-1.9z"/>
				</g>
				<g id="&lt;Group&gt;">
					<path id="&lt;Path&gt;" class="s3" d="m370.8 289.6q50.8-23.6 101.5-47.2c1.6-0.8 0.2-3.1-1.4-2.4q-50.7 23.6-101.4 47.2c-1.6 0.8-0.2 3.1 1.3 2.4z"/>
				</g>
				<g id="&lt;Group&gt;">
					<path id="&lt;Path&gt;" class="s3" d="m379.1 387.8q49.9-21.2 99.9-42.5c1.6-0.7 0.2-3-1.4-2.3q-49.9 21.2-99.9 42.5c-1.6 0.7-0.2 3 1.4 2.3z"/>
				</g>
				<g id="&lt;Group&gt;">
					<path id="&lt;Path&gt;" class="s3" d="m401.4 481.1q36.5-16 73-32c1.6-0.7 0.2-3-1.4-2.3q-36.5 15.9-73 31.9c-1.6 0.7-0.2 3.1 1.4 2.4z"/>
				</g>
				<path id="&lt;Path&gt;" class="s9" d="m292.1 757.4c0 0 0 40.9 7.4 46.8 7.4 5.9 31.3 12.8 34.2 20.1 3 7.4 13 37 13 37l19.5 0.7c0 0-9.5-39.3-12.4-42.9-5.7-7.1-13-11.7-16.6-19.1-3.6-7.4 4.5-42.6 4.5-42.6z"/>
				<path id="&lt;Path&gt;" class="s9" d="m290.7 655.9l1.4 101.5h49.6v-101.5z"/>
				<g id="&lt;Group&gt;">
					<path id="&lt;Path&gt;" class="s3" d="m263.3 673.8q0 33.5 0 67c0 1.8 2.7 1.8 2.7 0q0-33.5 0-67c0-1.7-2.7-1.7-2.7 0z"/>
				</g>
				<g id="&lt;Group&gt;">
					<path id="&lt;Path&gt;" class="s3" d="m270.4 772.8q2.7 8.3 5.5 16.6c0.6 1.7 3.2 1 2.6-0.7q-2.7-8.3-5.5-16.7c-0.6-1.6-3.2-0.9-2.6 0.8z"/>
				</g>
				<path id="&lt;Path&gt;" class="s8" d="m261.5 757.4l2.7 12.9h254.5l2.5-12.9z"/>
				<g id="&lt;Group&gt;">
					<path id="&lt;Path&gt;" class="s4" d="m367.6 126.2q0-12.2 0-24.4c0-2.4-3.7-2.4-3.7 0q0 12.2 0 24.4c0 2.5 3.7 2.5 3.7 0z"/>
				</g>
				<g id="&lt;Group&gt;">
					<path id="&lt;Path&gt;" class="s4" d="m477.9 180.7q12.3-6.5 24.5-13c2.1-1.2 0.2-4.4-2-3.3q-12.2 6.5-24.4 13.1c-2.1 1.1-0.2 4.4 1.9 3.2z"/>
				</g>
				<g id="&lt;Group&gt;">
					<path id="&lt;Path&gt;" class="s4" d="m239.1 181q-11.1-8.3-22.2-16.5c-0.8-0.7-2.1-0.2-2.6 0.6-0.6 1-0.1 2 0.7 2.6q11.1 8.3 22.2 16.6c0.8 0.6 2.1 0.1 2.5-0.7 0.6-0.9 0.2-1.9-0.6-2.6z"/>
				</g>
				<g id="&lt;Group&gt;">
					<path id="&lt;Path&gt;" class="s4" d="m310.1 827q83.6 0 167.2 0c1.8 0 1.8-2.8 0-2.8q-83.6 0-167.2 0c-1.8 0-1.8 2.8 0 2.8z"/>
				</g>
			</g>
			<path id="&lt;Path&gt;" class="s8" d="m254.6 670.7c0 0 39.3 21 58 64 11.1 25.5 26.8 88.7 26.8 109h-10.2c0 0-15.9-30.9-17.7-32-14.9-9-29.5-13.2-33-19.8-3.6-6.5-9.9-47.2-9.9-47.2h-0.4c-3.4 0-13.7-5.1-13.7-8.5z"/>
			<g id="&lt;Group&gt;">
				<g id="&lt;Group&gt;">
					<path id="&lt;Path&gt;" class="s4" d="m274.2 626c33.6-11.7 66.5-25.4 98.8-40.1 1.8-0.8 0.3-3.4-1.5-2.6-32.1 14.6-64.7 28.2-98.1 39.8-1.8 0.6-1 3.5 0.8 2.9z"/>
				</g>
			</g>
			<g id="&lt;Group&gt;">
				<g id="&lt;Group&gt;">
					<path id="&lt;Path&gt;" class="s4" d="m410.3 569.6c32.6-14.1 64.6-29.6 97.1-43.7 1.8-0.8 0.3-3.4-1.5-2.6-32.6 14.1-64.5 29.6-97.1 43.7-1.8 0.8-0.2 3.4 1.5 2.6z"/>
				</g>
			</g>
		</g>
	</g>
	<g id="Leaves">
		<g id="&lt;Group&gt;">
			<g id="&lt;Group&gt;">
				<path id="&lt;Path&gt;" class="s2" d="m260.9 691.1c-43.6-36.3-102.9-49.7-159.6-47.6-9.5 66.4 15.8 129.6 62 170.3 46.3 40.8 96.4 51.7 157.2 41.8 17.9-53.9-16-128.1-59.6-164.5z"/>
			</g>
			<g id="&lt;Group&gt;">
				<g id="&lt;Group&gt;">
					<path id="&lt;Path&gt;" class="s4" d="m173.4 716c28.1 20.2 54.6 42.5 79.2 66.9 24.6 24.3 47.3 50.5 67.8 78.4 11.6 15.7 22.4 31.9 32.5 48.5 1 1.7 3.6 0.2 2.6-1.5-18.1-29.8-38.5-58.1-61.1-84.7-22.4-26.5-46.9-51.2-73.2-73.9-14.9-12.7-30.3-24.8-46.3-36.3-1.5-1.1-3 1.5-1.5 2.6z"/>
				</g>
			</g>
			<g id="&lt;Group&gt;">
				<g id="&lt;Group&gt;">
					<path id="&lt;Path&gt;" class="s4" d="m191.4 789.5q34 0.6 68 1.2c1.9 0.1 1.9-2.9 0-3q-34-0.6-68-1.2c-2 0-2 3 0 3z"/>
				</g>
			</g>
		</g>
		<g id="&lt;Group&gt;">
			<g id="&lt;Group&gt;">
				<path id="&lt;Path&gt;" class="s2" d="m448.9 888.8c0.3-20.7 10.3-41.1 26.5-54 16.2-12.9 38.2-18.1 58.5-13.8 1.2 0.2 2.4 0.5 3.2 1.5 1.4 1.6 0.6 4.1-0.3 6-7.7 17-15.6 34.5-29 47.6-13.4 13-41.3 19.2-58.9 12.7z"/>
			</g>
			<g id="&lt;Group&gt;">
				<g id="&lt;Group&gt;">
					<path id="&lt;Path&gt;" class="s4" d="m428.6 911.8c22.1-23 45.4-45.3 72.5-62.3 1.6-1.1 0.1-3.7-1.6-2.6-27.2 17.2-50.8 39.6-73 62.8-1.3 1.4 0.8 3.5 2.1 2.1z"/>
				</g>
			</g>
		</g>
	</g>
	<g id="Switch">
		<g id="&lt;Group&gt;">
			<path id="&lt;Path&gt;" class="s2" d="m768.1 508.2h-122c-3.5 0-6.3-2.8-6.3-6.4v-218c0-3.6 2.8-6.4 6.3-6.4h122c3.5 0 6.3 2.8 6.3 6.4v218c0 3.6-2.8 6.4-6.3 6.4z"/>
			<path id="&lt;Path&gt;" class="s2" d="m746.3 476.2h-78.4v-168.5h78.4z"/>
			<path id="&lt;Path&gt;" class="s10" d="m746.3 476.2h-78.4v-169.5h78.4z"/>
			<text id="OFF
" style="transform: matrix(2,0,0,2,682.262,446.828)" >
				<tspan x="0" y="0" class="t11">OFF
</tspan>
			</text>
			<path id="&lt;Path&gt;" class="s12" d="m716.2 436c0 0 8.3 7.4 8 20.2-0.2 12.7 0 22.3 0 22.3h-46.3c0 0 3.4-37.9 25.3-44.2z"/>
			<path id="&lt;Path&gt;" class="s13" d="m746.3 393.8h-78.4v-87.1h78.4z"/>
			<path id="&lt;Path&gt;" class="s10" d="m746.2 322.4h-78.4v-15.7h78.4z"/>
			<text id="ON
" style="transform: matrix(2,0,0,2,686.646,351.055)" >
				<tspan x="0" y="0" class="t11">ON
</tspan>
			</text>
			<path id="&lt;Path&gt;" class="s14" d="m746.3 478.5h-78.6c-1 0-1.9-0.9-1.9-1.9v-169.4c0-1.1 0.9-1.9 1.9-1.9h78.6c1.1 0 1.9 0.8 1.9 1.9v169.4c0 1-0.8 1.9-1.9 1.9z"/>
			<g id="&lt;Group&gt;">
				<g id="&lt;Group&gt;">
					<path id="&lt;Path&gt;" class="s7" d="m668.5 395.6q38.6 0 77.2 0c0.9 0 0.9-1.5 0-1.5q-38.6 0-77.2 0c-0.9 0-0.9 1.5 0 1.5z"/>
				</g>
			</g>
			<g id="&lt;Group&gt;">
				<path id="&lt;Path&gt;" class="s6" d="m771 279.3c-1.3-1.1-3.5-1.9-5.5-1.9h-116.7c-3.9 0-7.2 2.5-8.4 6 6.9 8.1 19.8 22.1 27.8 23.5 11.1 1.9 75.6 1.4 80.1 1.3v-0.2z"/>
				<path id="&lt;Path&gt;" class="s6" d="m665.6 475.5c0 0-11.4 17.2-20.7 31.7 1.1 0.5 2.3 0.7 3.6 0.7h116.7c1.3 0 2.6-0.3 3.8-0.8l-23.7-28.9c-11.6 0-79.7-2.7-79.7-2.7z"/>
				<path id="&lt;Path&gt;" class="s8" d="m748.2 308l-2.7 170.2c1.9 0 15.5 17.4 24.1 28.7 2.9-1.5 4.8-4.5 4.8-7.9v-212.9c0-2.7-1.4-5.3-3.4-6.8-9.2 12.7-22.5 28.7-22.5 28.7q0 0-0.3 0z"/>
				<path id="&lt;Path&gt;" class="s6" d="m745.3 478.2l23.7 28.9q0.2-0.1 0.4-0.2c-8.7-11.3-22.3-28.7-24.1-28.7z"/>
				<path id="&lt;Path&gt;" class="s8" d="m745.3 478.2l23.7 28.9q0.2-0.1 0.4-0.2c-8.7-11.3-22.3-28.7-24.1-28.7z"/>
			</g>
		</g>
	</g>
	<g id="Hand">
		<g id="&lt;Group&gt;">
			<g id="&lt;Group&gt;">
				<path id="&lt;Path&gt;" class="s15" d="m642.4 836.9c0 0-24.1-102.2-20.6-134 3.5-31.8 32.7-85.7 40.7-90.1 7.9-4.5 7.9-4.5 7.9-4.5 0 0 10.7-152.3 24-167.4 13.2-15 36.1-15.5 37 3.1 0.9 18.5-2.7 163.9-2.7 163.9 0 0-0.9 23.1 3.1 21.5 4-1.6 13.9-31.1 35.7-30.5 21.2 0.6 25.7 23.6 23.1 49.2 0 0 20.3 0 27.4 30.1 0 0 35.3-7.1 40.6 44.1 5.3 51.3-57.4 153.8-57.4 153.8l8.4 34.6h-160.1c0 0 2.4-30.2 0.6-40.8-1.8-10.6-7.7-33-7.7-33z"/>
				<g id="&lt;Group&gt;">
					<g id="&lt;Group&gt;">
						<path id="&lt;Path&gt;" class="s16" d="m667.5 607.9c-3.9 28.9-10.4 57.4-19.4 85.2-0.6 1.8 2.3 2.6 2.9 0.8 9.1-28 15.6-56.8 19.5-86 0.2-1.9-2.8-1.9-3 0z"/>
					</g>
				</g>
				<g id="&lt;Group&gt;">
					<g id="&lt;Group&gt;">
						<path id="&lt;Path&gt;" class="s16" d="m790 647q-1.4 11.4-2.8 22.9c-0.1 0.8 0.7 1.5 1.5 1.5 0.9 0 1.4-0.7 1.5-1.5q1.4-11.5 2.8-22.9c0.1-0.8-0.8-1.5-1.5-1.5-0.9 0-1.4 0.7-1.5 1.5z"/>
					</g>
				</g>
				<g id="&lt;Group&gt;">
					<g id="&lt;Group&gt;">
						<path id="&lt;Path&gt;" class="s16" d="m818 678.3q0.5 5.9 1.1 11.8c0.1 0.8 0.6 1.5 1.5 1.5 0.8 0 1.6-0.7 1.5-1.5q-0.6-5.9-1.1-11.8c-0.1-0.8-0.7-1.5-1.5-1.5-0.8 0-1.6 0.7-1.5 1.5z"/>
					</g>
				</g>
				<g id="&lt;Group&gt;">
					<g id="&lt;Group&gt;">
						<path id="&lt;Path&gt;" class="s16" d="m728.5 628c-1.3 9.7-1.3 19.5-2.5 29.2-0.3 1.9 2.7 1.9 3 0 1.2-9.7 1.2-19.5 2.5-29.2 0.3-1.9-2.7-1.9-3 0z"/>
					</g>
				</g>
			</g>
			<g id="&lt;Group&gt;" style="opacity: .3">
				<path id="&lt;Path&gt;" class="s16" d="m666.4 620.1c-19.5 21.7-27.9 52.8-21.9 81.3 15.5-24.2 21.3-52.6 21.9-81.3z"/>
			</g>
			<g id="&lt;Group&gt;" style="opacity: .2">
				<path id="&lt;Path&gt;" class="s3" d="m725.4 442.7c-0.5-1.9-1.5-3.6-3.1-4.6l-3.1-1.3c-5.4-1.2-11 2-14.3 6.4-3.3 4.5-4.8 10-6.2 15.3-0.4 1.6-0.8 3.5 0 4.9 1.1 1.8 3.4 2.2 5.4 2.3q6 0.5 12 1.1c2.3 0.2 4.9 0.3 6.6-1.3 1.6-1.4 1.9-3.7 2.1-5.8q0.5-5.7 0.8-11.3c0.1-1.9 0.2-3.9-0.2-5.7z"/>
			</g>
		</g>
	</g>
</svg>