<?xml version="1.0" encoding="UTF-8" standalone="no"?>
<!-- Generator: Adobe Illustrator 27.5.0, SVG Export Plug-In . SVG Version: 6.00 Build 0)  -->

<svg
   version="1.1"
   x="0px"
   y="0px"
   viewBox="0 0 199 155"
   xml:space="preserve"
   id="svg247"
   sodipodi:docname="web.svg"
   inkscape:version="1.3 (0e150ed6c4, 2023-07-21)"
   width="199"
   height="155"
   xmlns:inkscape="http://www.inkscape.org/namespaces/inkscape"
   xmlns:sodipodi="http://sodipodi.sourceforge.net/DTD/sodipodi-0.dtd"
   xmlns="http://www.w3.org/2000/svg"
   xmlns:svg="http://www.w3.org/2000/svg"><defs
   id="defs247" /><sodipodi:namedview
   id="namedview247"
   pagecolor="#ffffff"
   bordercolor="#000000"
   borderopacity="0.25"
   inkscape:showpageshadow="2"
   inkscape:pageopacity="0.0"
   inkscape:pagecheckerboard="true"
   inkscape:deskcolor="#d1d1d1"
   inkscape:zoom="3.284"
   inkscape:cx="162.45432"
   inkscape:cy="99.421437"
   inkscape:window-width="2560"
   inkscape:window-height="1017"
   inkscape:window-x="1912"
   inkscape:window-y="-8"
   inkscape:window-maximized="1"
   inkscape:current-layer="svg247" />&#10;&#10;<g
   id="Background_Simple"
   style="display:none">&#10;	<g
   style="display:inline"
   id="g41">&#10;		<path
   style="fill:#407bff"
   d="m 241.936,74.075 c 7.832,-1.91 16.622,-1.622 26.341,1.643 15.617,5.247 27.043,19.004 34.173,33.856 13.796,28.739 17.651,60.899 27.547,90.911 2.714,8.23 5.923,16.453 11.228,23.305 22.071,28.507 82.754,12.137 82.176,62.137 -0.163,14.13 -7.771,27.655 -18.876,36.394 -32.69,25.724 -78.654,11.019 -113.588,-0.656 -32.732,-10.939 -61.068,-12.275 -93.872,0.819 -27.802,11.097 -56.895,29.991 -88.174,24.881 -31.807,-5.197 -46.032,-36.584 -40.707,-66.182 5.677,-31.551 30.416,-54.82 58.857,-67.405 16.966,-7.508 39.284,-12.096 52.582,-25.755 6.83,-7.015 9.803,-16.855 11.975,-26.402 3.458,-15.205 5.5,-30.795 10.651,-45.513 6.453,-18.439 19.682,-37.153 39.687,-42.033 z"
   id="path40" />&#10;		<path
   style="opacity:0.9;fill:#ffffff"
   d="m 241.936,74.075 c 7.832,-1.91 16.622,-1.622 26.341,1.643 15.617,5.247 27.043,19.004 34.173,33.856 13.796,28.739 17.651,60.899 27.547,90.911 2.714,8.23 5.923,16.453 11.228,23.305 22.071,28.507 82.754,12.137 82.176,62.137 -0.163,14.13 -7.771,27.655 -18.876,36.394 -32.69,25.724 -78.654,11.019 -113.588,-0.656 -32.732,-10.939 -61.068,-12.275 -93.872,0.819 -27.802,11.097 -56.895,29.991 -88.174,24.881 -31.807,-5.197 -46.032,-36.584 -40.707,-66.182 5.677,-31.551 30.416,-54.82 58.857,-67.405 16.966,-7.508 39.284,-12.096 52.582,-25.755 6.83,-7.015 9.803,-16.855 11.975,-26.402 3.458,-15.205 5.5,-30.795 10.651,-45.513 6.453,-18.439 19.682,-37.153 39.687,-42.033 z"
   id="path41" />&#10;	</g>&#10;</g>&#10;&#10;&#10;&#10;&#10;&#10;<g
   id="Background_Complete"
   transform="matrix(0.36840885,0,0,0.36840885,-9.8794134,-16.983566)">&#10;	<g
   id="g8">&#10;		<rect
   y="382.39801"
   style="fill:#ebebeb"
   width="500"
   height="0.25"
   id="rect1"
   x="0" />&#10;		<rect
   x="416.77899"
   y="398.49399"
   style="fill:#ebebeb"
   width="33.122002"
   height="0.25"
   id="rect2" />&#10;		<rect
   x="322.52701"
   y="401.20801"
   style="fill:#ebebeb"
   width="8.6929998"
   height="0.25"
   id="rect3" />&#10;		<rect
   x="396.586"
   y="389.20801"
   style="fill:#ebebeb"
   width="19.191999"
   height="0.25"
   id="rect4" />&#10;		<rect
   x="52.459"
   y="390.888"
   style="fill:#ebebeb"
   width="43.193001"
   height="0.25"
   id="rect5" />&#10;		<rect
   x="104.556"
   y="390.888"
   style="fill:#ebebeb"
   width="6.3330002"
   height="0.25"
   id="rect6" />&#10;		<rect
   x="131.47099"
   y="395.11099"
   style="fill:#ebebeb"
   width="93.676003"
   height="0.25"
   id="rect7" />&#10;		<path
   style="fill:#ebebeb"
   d="M 237.014,337.8 H 43.915 c -3.147,0 -5.708,-2.561 -5.708,-5.708 V 60.66 c 0,-3.147 2.561,-5.708 5.708,-5.708 h 193.099 c 3.146,0 5.707,2.561 5.707,5.708 v 271.432 c 0,3.147 -2.561,5.708 -5.707,5.708 z M 43.915,55.203 c -3.01,0 -5.458,2.448 -5.458,5.458 v 271.432 c 0,3.01 2.448,5.458 5.458,5.458 h 193.099 c 3.009,0 5.457,-2.448 5.457,-5.458 V 60.66 c 0,-3.009 -2.448,-5.458 -5.457,-5.458 H 43.915 Z"
   id="path7" />&#10;		<path
   style="fill:#ebebeb"
   d="M 453.31,337.8 H 260.212 c -3.147,0 -5.707,-2.561 -5.707,-5.708 V 60.66 c 0,-3.147 2.561,-5.708 5.707,-5.708 H 453.31 c 3.148,0 5.708,2.561 5.708,5.708 v 271.432 c 0.001,3.147 -2.56,5.708 -5.708,5.708 z M 260.212,55.203 c -3.009,0 -5.457,2.448 -5.457,5.458 v 271.432 c 0,3.01 2.448,5.458 5.457,5.458 H 453.31 c 3.01,0 5.458,-2.448 5.458,-5.458 V 60.66 c 0,-3.009 -2.448,-5.458 -5.458,-5.458 H 260.212 Z"
   id="path8" />&#10;	</g>&#10;	<g
   id="g19">&#10;		<g
   id="g12">&#10;			<g
   id="g11">&#10;				<path
   style="fill:#e0e0e0"
   d="m 443.183,78.371 v -4.294 l -2.211,-0.208 c -0.299,-1.439 -0.869,-2.778 -1.649,-3.966 l 1.42,-1.716 -3.036,-3.036 -1.716,1.42 c -1.189,-0.78 -2.527,-1.35 -3.966,-1.649 l -0.208,-2.211 h -4.294 l -0.208,2.211 c -1.44,0.299 -2.778,0.869 -3.966,1.649 l -1.716,-1.42 -3.036,3.036 1.42,1.716 c -0.78,1.189 -1.351,2.527 -1.649,3.966 l -2.211,0.208 v 4.294 l 2.211,0.208 c 0.298,1.44 0.869,2.778 1.649,3.966 l -1.42,1.716 3.036,3.036 1.715,-1.42 c 1.189,0.78 2.527,1.351 3.967,1.649 l 0.208,2.211 h 4.294 l 0.208,-2.211 c 1.44,-0.299 2.778,-0.869 3.966,-1.649 l 1.716,1.42 3.036,-3.036 -1.42,-1.716 c 0.78,-1.189 1.351,-2.527 1.649,-3.966 z m -13.514,3.667 c -3.211,0 -5.813,-2.603 -5.813,-5.813 0,-3.211 2.603,-5.813 5.813,-5.813 3.211,0 5.813,2.603 5.813,5.813 0,3.21 -2.602,5.813 -5.813,5.813 z"
   id="path9" />&#10;				<path
   style="fill:#e0e0e0"
   d="m 460.587,90.493 v -3.365 l -1.733,-0.163 c -0.234,-1.128 -0.681,-2.177 -1.292,-3.108 l 1.113,-1.344 -2.379,-2.38 -1.344,1.113 c -0.932,-0.611 -1.98,-1.058 -3.108,-1.292 l -0.163,-1.733 h -3.365 l -0.163,1.733 c -1.128,0.234 -2.177,0.681 -3.108,1.292 l -1.344,-1.113 -2.379,2.38 1.113,1.344 c -0.611,0.932 -1.058,1.98 -1.292,3.108 l -1.733,0.163 v 3.365 l 1.732,0.163 c 0.234,1.128 0.681,2.177 1.292,3.108 l -1.113,1.344 2.379,2.379 1.344,-1.113 c 0.931,0.611 1.98,1.058 3.108,1.292 l 0.163,1.733 h 3.365 l 0.163,-1.733 c 1.128,-0.234 2.177,-0.681 3.108,-1.292 l 1.344,1.113 2.379,-2.379 -1.113,-1.344 c 0.611,-0.932 1.058,-1.98 1.292,-3.108 z m -10.589,2.872 c -2.516,0 -4.555,-2.04 -4.555,-4.555 0,-2.516 2.039,-4.555 4.555,-4.555 2.516,0 4.555,2.039 4.555,4.555 0,2.516 -2.039,4.555 -4.555,4.555 z"
   id="path10" />&#10;				<path
   style="fill:#e0e0e0"
   d="M 443.183,100.046 V 97.22 l -1.455,-0.137 c -0.197,-0.947 -0.572,-1.828 -1.085,-2.611 l 0.935,-1.129 -1.999,-1.999 -1.129,0.935 c -0.783,-0.513 -1.663,-0.889 -2.611,-1.085 l -0.137,-1.455 h -2.826 l -0.137,1.455 c -0.948,0.197 -1.828,0.572 -2.611,1.085 l -1.129,-0.935 -1.999,1.998 0.935,1.129 c -0.513,0.782 -0.889,1.663 -1.085,2.611 l -1.455,0.137 v 2.826 l 1.455,0.137 c 0.196,0.948 0.572,1.828 1.085,2.611 l -0.935,1.13 1.999,1.999 1.129,-0.935 c 0.782,0.513 1.663,0.889 2.611,1.085 l 0.137,1.455 h 2.826 l 0.137,-1.455 c 0.947,-0.197 1.828,-0.572 2.611,-1.085 l 1.129,0.935 1.999,-1.999 -0.935,-1.129 c 0.513,-0.782 0.889,-1.663 1.085,-2.611 z m -8.894,2.413 c -2.113,0 -3.826,-1.713 -3.826,-3.826 0,-2.113 1.713,-3.826 3.826,-3.826 2.113,0 3.826,1.713 3.826,3.826 0,2.113 -1.713,3.826 -3.826,3.826 z"
   id="path11" />&#10;			</g>&#10;		</g>&#10;		<g
   id="g14">&#10;			<polygon
   style="fill:#e0e0e0"
   points="43.916,381.474 50.466,381.474 72.815,232.98 72.815,381.474 78.815,381.474 78.815,232.053 101.187,381.474 107.616,381.474 79.614,194.438 78.815,194.556 78.815,188.474 72.815,188.474 72.815,194.536 71.993,194.438 "
   id="polygon12" />&#10;			<g
   id="g13">&#10;				<polygon
   style="fill:#ebebeb"
   points="44.744,215.182 49.747,163.526 101.559,163.526 106.562,215.182 "
   id="polygon13" />&#10;			</g>&#10;		</g>&#10;		<text
   transform="translate(64.1133,78.4004)"
   style="font-size:12px;font-family:Bebas;fill:#e0e0e0"
   id="text14">1011100010101000101010101010101010000000111111001011110101</text>&#10;		<text
   transform="translate(142.5619,319.291)"
   style="font-size:12px;font-family:Bebas;fill:#e0e0e0"
   id="text15">1011100010101000101010101000111110101010000111010100000</text>&#10;		<text
   transform="translate(85.4505,115.4331)"
   style="font-size:12px;font-family:Bebas;fill:#e0e0e0"
   id="text16">01010100010101010000000111111001011110101</text>&#10;		<text
   transform="translate(163.2411,361.4924)"
   style="font-size:12px;font-family:Bebas;fill:#e0e0e0"
   id="text17">01010100010101010000000111111001011110101</text>&#10;		<text
   transform="translate(227.3091,339.1591)"
   style="font-size:12px;font-family:Bebas;fill:#e0e0e0"
   id="text18">01010100010101010000000111111001011110101</text>&#10;		<text
   transform="translate(85.4505,133.9999)"
   style="font-size:12px;font-family:Bebas;fill:#e0e0e0"
   id="text19">010101000101010101010101010000000111111001011110101</text>&#10;	</g>&#10;</g><g
   id="Shadow_1_"
   transform="matrix(0.41199008,0,0,0.41199008,-8.4869712,-24.086982)">&#10;	<ellipse
   id="_x3C_Path_x3E__359_"
   style="fill:#f5f5f5"
   cx="250"
   cy="416.23801"
   rx="193.88901"
   ry="11.323" />&#10;</g><g
   id="Window"
   transform="matrix(0.41199008,0,0,0.41199008,-8.4869712,-24.086982)">&#10;	<g
   id="g22">&#10;		<path
   style="fill:#407bff"
   d="m 444,92.61 v 201.25 c 0,4.82 -4.22,9.14 -9.03,9.14 H 145.39 c -4.81,0 -8.39,-4.32 -8.39,-9.14 V 92.61 C 137,87.8 140.58,84 145.39,84 h 289.58 c 4.81,0 9.03,3.8 9.03,8.61 z"
   id="path21" />&#10;		<path
   style="opacity:0.1;fill:#ffffff;enable-background:new"
   d="m 444,117.69 v 176.17 c 0,4.82 -4.22,9.14 -9.03,9.14 H 145.39 c -4.81,0 -8.39,-4.32 -8.39,-9.14 V 225.29 C 162.481,176.333 223.218,168.35 294.333,197 395,237.555 437.928,182.507 444,117.69 Z"
   id="path22" />&#10;	</g>&#10;</g><g
   id="Bar"
   transform="matrix(0.41199008,0,0,0.41199008,-8.4869712,-24.086982)">&#10;	<g
   id="g25">&#10;		<path
   style="opacity:0.2;enable-background:new"
   d="M 364.921,280.035 H 218.036 c -2.781,0 -5.036,-2.255 -5.036,-5.036 v 0 c 0,-2.781 2.255,-5.036 5.036,-5.036 h 146.885 c 2.781,0 5.036,2.255 5.036,5.036 v 0 c 0,2.782 -2.255,5.036 -5.036,5.036 z"
   id="path23" />&#10;		<path
   style="fill:#407bff"
   d="m 218.036,279 c -2.225,0 -4.036,-1.774 -4.036,-4 0,-2.226 1.811,-4 4.036,-4 h 86.847 c 2.226,0 4.036,1.774 4.036,4 0,2.226 -1.811,4 -4.036,4 z"
   id="path24" />&#10;		<path
   style="opacity:0.7;fill:#ffffff;enable-background:new"
   d="m 218.036,279 c -2.225,0 -4.036,-1.774 -4.036,-4 0,-2.226 1.811,-4 4.036,-4 h 86.847 c 2.226,0 4.036,1.774 4.036,4 0,2.226 -1.811,4 -4.036,4 z"
   id="path25" />&#10;	</g>&#10;</g><g
   id="Character"
   transform="matrix(0.41199008,0,0,0.41199008,-8.4869712,-24.086982)">&#10;	<g
   id="_x3C_Group_x3E__21_">&#10;		<g
   id="g27">&#10;			<path
   style="fill:#263238"
   d="M 159.931,287.261 C 169.25,294.75 166,330.5 167.75,336 c 1.75,5.5 9.25,10.017 9.25,10.017 l -10.464,12.249 c 0,0 -8.749,-1.516 -15.393,-15.766 -6.643,-14.25 8.788,-55.239 8.788,-55.239 z"
   id="path26" />&#10;			<path
   style="opacity:0.2;enable-background:new"
   d="M 159.931,287.261 C 169.25,294.75 166,330.5 167.75,336 c 1.75,5.5 9.25,10.017 9.25,10.017 l -10.464,12.249 c 0,0 -8.749,-1.516 -15.393,-15.766 -6.643,-14.25 8.788,-55.239 8.788,-55.239 z"
   id="path27" />&#10;		</g>&#10;		<g
   id="g29">&#10;			<path
   style="fill:#407bff"
   d="m 150.031,365.754 c 0,0 66.97,-18.69 75.383,4.814 8.413,23.504 -52.389,42.241 -86.04,43.389 -33.651,1.148 -47.38,-22.449 -37.456,-44.876 z"
   id="path28" />&#10;			<path
   style="opacity:0.2;enable-background:new"
   d="m 150.031,365.754 c 0,0 66.97,-18.69 75.383,4.814 8.413,23.504 -52.389,42.241 -86.04,43.389 -33.651,1.148 -47.38,-22.449 -37.456,-44.876 z"
   id="path29" />&#10;		</g>&#10;		<path
   style="fill:#407bff"
   d="m 215.668,403.795 c -0.077,0.048 -0.176,0.043 -0.247,-0.013 -0.066,-0.047 -0.091,-0.134 -0.058,-0.208 0.11,-0.374 1.224,-3.61 2.351,-3.95 0.243,-0.059 0.499,0.016 0.672,0.197 0.319,0.263 0.472,0.678 0.4,1.085 -0.182,0.605 -0.551,1.138 -1.055,1.52 -0.64,0.525 -1.331,0.984 -2.063,1.369 z m 0.289,-0.621 c 1.048,-0.461 1.898,-1.28 2.397,-2.31 0.058,-0.282 -0.053,-0.571 -0.285,-0.741 -0.063,-0.079 -0.169,-0.109 -0.264,-0.077 -0.096,0.033 -0.184,0.084 -0.259,0.151 -0.706,0.888 -1.244,1.897 -1.589,2.977 z"
   id="path30" />&#10;		<path
   style="fill:#407bff"
   d="m 215.608,403.837 c -0.076,0.028 -0.16,0.003 -0.209,-0.061 -0.105,-0.091 -1.659,-2.051 -1.403,-3.375 0.062,-0.332 0.255,-0.624 0.536,-0.811 0.243,-0.234 0.615,-0.269 0.897,-0.084 0.813,0.572 0.714,3.197 0.315,4.192 l -0.029,0.099 c -0.031,0.023 -0.068,0.037 -0.107,0.04 z m -0.883,-3.844 c -0.14,0.122 -0.235,0.288 -0.269,0.471 -0.161,0.837 0.618,2.094 1.04,2.695 0.256,-1.12 0.174,-2.961 -0.303,-3.292 -0.052,-0.027 -0.149,-0.104 -0.39,0.065 z"
   id="path31" />&#10;		<path
   style="fill:#407bff"
   d="m 147.403,415.693 c 0.02,-0.088 0.092,-0.155 0.182,-0.168 0.08,-0.014 0.159,0.029 0.19,0.104 0.191,0.34 1.723,3.401 1.176,4.443 -0.128,0.215 -0.36,0.345 -0.61,0.342 -0.411,0.044 -0.814,-0.137 -1.055,-0.474 -0.305,-0.554 -0.427,-1.19 -0.348,-1.817 0.072,-0.823 0.228,-1.638 0.465,-2.43 z m 0.241,0.641 c -0.404,1.071 -0.414,2.252 -0.027,3.329 0.16,0.239 0.445,0.361 0.729,0.315 0.1,0.01 0.196,-0.044 0.24,-0.135 0.044,-0.091 0.069,-0.19 0.074,-0.291 -0.142,-1.125 -0.486,-2.216 -1.016,-3.218 z"
   id="path32" />&#10;		<polygon
   style="fill:#ebb376"
   points="151.777,401.759 146.085,405.931 149.803,412.415 155.578,409.256 169.686,401.54 163.628,393.069 "
   id="polygon32" />&#10;		<path
   style="fill:#263238"
   d="m 151.638,412.225 -3.575,-7.891 c -0.199,-0.44 -0.723,-0.628 -1.157,-0.416 l -3.855,1.888 c 0,0 -5.367,2.17 -6.042,3.914 -1.97,5.096 5.492,22.753 7.82,22.756 0.852,10e-4 1.358,-1.319 1.477,-2.161 0.377,-2.674 0.442,-9.397 0.784,-11.624 0.4,-2.603 3.031,-4.607 4.246,-5.404 0.351,-0.23 0.475,-0.68 0.302,-1.062 z"
   id="path33" />&#10;		<path
   style="fill:#407bff"
   d="m 147.415,415.62 c 0.033,-0.073 0.11,-0.117 0.19,-0.107 0.138,-0.012 2.626,0.25 3.393,1.359 0.194,0.277 0.267,0.619 0.204,0.951 -0.003,0.337 -0.239,0.628 -0.568,0.7 -0.978,0.18 -2.784,-1.727 -3.215,-2.708 l -0.051,-0.09 c 0.006,-0.038 0.022,-0.075 0.047,-0.105 z m 3.364,2.06 c 0.011,-0.186 -0.041,-0.37 -0.148,-0.522 -0.485,-0.701 -1.928,-1.023 -2.653,-1.143 0.621,0.967 1.994,2.196 2.564,2.087 0.056,-0.018 0.178,-0.034 0.226,-0.324 z"
   id="path34" />&#10;		<polygon
   style="opacity:0.2;enable-background:new"
   points="151.777,401.759 155.578,409.256 169.686,401.54 163.628,393.069 "
   id="polygon34" />&#10;		<g
   id="g36">&#10;			<polygon
   style="fill:#407bff"
   points="162.183,408.88 155.705,396.518 152.093,400.206 158.285,409.746 "
   id="polygon35" />&#10;			<polygon
   style="opacity:0.6;fill:#ffffff;enable-background:new"
   points="162.183,408.88 155.705,396.518 152.093,400.206 158.285,409.746 "
   id="polygon36" />&#10;		</g>&#10;		<polygon
   style="fill:#ebb376"
   points="202.653,410.42 209.616,411.567 211.647,404.374 205.349,402.458 189.965,397.778 188.152,408.034 "
   id="polygon37" />&#10;		<path
   style="fill:#263238"
   d="m 210.227,403.196 -3.136,8.075 c -0.175,0.45 0.057,0.956 0.513,1.118 l 4.046,1.433 c 0,0 5.306,2.316 7.024,1.577 5.019,-2.159 12.413,-19.844 10.786,-21.51 -0.596,-0.61 -1.893,-0.047 -2.578,0.457 -2.174,1.602 -7.022,6.26 -8.853,7.573 -2.14,1.536 -5.412,1.057 -6.832,0.748 -0.41,-0.089 -0.818,0.138 -0.97,0.529 z"
   id="path37" />&#10;		<polygon
   style="opacity:0.2;enable-background:new"
   points="202.653,410.42 205.349,402.458 189.965,397.778 188.152,408.034 "
   id="polygon38" />&#10;		<path
   style="fill:#407bff"
   d="m 202.852,400.955 c 0,0 -60.28,-35.555 -80.679,-34.609 -20.4,0.946 -22.183,21.25 -13.767,32.506 8.417,11.256 23.958,13.998 23.958,13.998 0,0 -10.581,-14.955 -9.052,-19.161 1.53,-4.206 7.361,9.942 7.361,9.942 0,0 37.348,4.891 69.884,7.648 z"
   id="path38" />&#10;		<g
   id="g40">&#10;			<polygon
   style="fill:#407bff"
   points="200.459,397.793 196.16,411 201.322,411 203.805,400.042 "
   id="polygon39" />&#10;			<polygon
   style="opacity:0.6;fill:#ffffff;enable-background:new"
   points="200.459,397.793 196.16,411 201.322,411 203.805,400.042 "
   id="polygon40" />&#10;		</g>&#10;		<path
   style="fill:#263238"
   d="m 157.886,372 c -10.903,-21 -7.434,-52.947 2.045,-84.739 -6.598,-5.512 -32.934,-9.233 -53.041,-3.39 0,0 -12.742,47.214 -11.238,98.777 z"
   id="path40-3" />&#10;		<path
   style="fill:#ebb376"
   d="m 134.73,292.42 c -8.77,0 -14.48,-9.2 -14.48,-9.2 11.5,-4.03 11.54,-16.17 11.54,-16.17 l 4.43,4.33 6.31,6.18 c -5.25,3.72 -2.77,6.94 -1.1,8.37 0.6,0.53 1.1,0.82 1.1,0.82 0,0 0.97,5.67 -7.8,5.67 z"
   id="path41-3" />&#10;		<path
   style="opacity:0.2;enable-background:new"
   d="m 141.43,285.93 c -10.76,1.21 -10.03,-14.9 -10.03,-14.9 1.71,-0.02 3.32,0.1 4.82,0.35 l 6.31,6.18 c -5.25,3.72 -2.77,6.94 -1.1,8.37 z"
   id="path42" />&#10;		<g
   id="g58">&#10;			<path
   style="fill:#263238"
   d="m 149.835,254.966 c -4.077,1.688 -3.297,6.136 3.464,14.24 4.163,-3.584 6.417,-11.743 4.234,-14.362 -2.182,-2.62 -4.148,-1.335 -7.698,0.122 z"
   id="path43" />&#10;			<path
   style="fill:#ebb376"
   d="m 155.85,273 c 0,0 0,0.01 -0.01,0.03 -0.39,1.14 -0.83,2.21 -1.3,3.18 -4.02,8.19 -15.58,9.78 -20.7,1.68 -0.02,-0.03 -0.04,-0.05 -0.06,-0.08 -3.38,-5.45 -2.11,-10.54 -0.7,-19.36 0.28,-1.87 0.99,-3.64 2.08,-5.19 3.86,-5.51 11.45,-6.85 16.96,-2.99 6.71,4.66 6.31,15.2 3.73,22.73 z"
   id="path44" />&#10;			<path
   style="fill:#263238"
   d="m 145.536,263.751 c -0.158,0.708 0.091,1.367 0.553,1.468 0.463,0.101 0.958,-0.382 1.117,-1.09 0.158,-0.708 -0.082,-1.362 -0.54,-1.473 -0.458,-0.111 -0.925,0.409 -1.13,1.095 z"
   id="path45" />&#10;			<path
   style="fill:#263238"
   d="m 153.582,265.566 c -0.158,0.708 0.091,1.367 0.554,1.468 0.463,0.101 0.968,-0.378 1.13,-1.095 0.162,-0.717 -0.091,-1.367 -0.554,-1.468 -0.463,-0.101 -0.972,0.388 -1.13,1.095 z"
   id="path46" />&#10;			<path
   style="fill:#d58745"
   d="m 150.881,265.311 c 0.359,2.354 1.041,4.647 2.026,6.815 -1.541,0.882 -3.529,-0.13 -3.529,-0.13 z"
   id="path47" />&#10;			<path
   style="fill:#263238"
   d="m 143.907,260.72 c -0.095,-0.009 -0.183,-0.05 -0.252,-0.117 -0.153,-0.179 -0.134,-0.447 0.042,-0.603 1.026,-0.916 2.434,-1.273 3.772,-0.957 0.22,0.057 0.352,0.281 0.295,0.5 -0.003,0.01 -0.005,0.019 -0.008,0.029 -0.074,0.22 -0.305,0.345 -0.529,0.287 v 0 c -1.058,-0.232 -2.164,0.061 -2.968,0.786 -0.101,0.074 -0.229,0.101 -0.352,0.075 z"
   id="path48" />&#10;			<path
   style="fill:#263238"
   d="m 157.855,263.675 c -0.16,-0.038 -0.286,-0.162 -0.327,-0.321 -0.218,-1.063 -0.931,-1.957 -1.919,-2.406 -0.221,-0.082 -0.334,-0.327 -0.255,-0.548 0.081,-0.217 0.319,-0.332 0.539,-0.259 1.26,0.55 2.177,1.675 2.461,3.02 0.055,0.226 -0.084,0.454 -0.31,0.509 -0.002,0 -0.004,10e-4 -0.006,10e-4 -0.06,0.012 -0.122,0.014 -0.183,0.004 z"
   id="path49" />&#10;			<path
   style="fill:#263238"
   d="m 138.276,251.521 c 3.754,2.306 2.272,6.578 -5.689,13.496 -3.544,-4.201 -4.473,-12.625 -1.892,-14.847 2.581,-2.223 4.3,-0.656 7.581,1.351 z"
   id="path50" />&#10;			<path
   style="fill:#ebb376"
   d="m 127.379,264.482 c 0.133,2.244 1.151,4.344 2.829,5.84 2.241,1.956 4.635,0.258 5.086,-2.522 0.404,-2.507 -0.281,-6.549 -3.042,-7.432 -2.761,-0.884 -5.024,1.361 -4.873,4.114 z"
   id="path51" />&#10;			&#10;				<path
   style="fill:none;stroke:#263238;stroke-width:0.5572;stroke-linecap:round;stroke-linejoin:round;stroke-miterlimit:10"
   d="m 142.527,272.091 c 0,0 0.924,3.178 5.182,3.915"
   id="path52" />&#10;			&#10;				<path
   style="fill:none;stroke:#263238;stroke-width:0.5572;stroke-linecap:round;stroke-linejoin:round;stroke-miterlimit:10"
   d="m 150.187,265.37 c 0,1.674 -1.357,3.031 -3.031,3.031 -1.674,0 -3.031,-1.357 -3.031,-3.031 0,-1.674 1.357,-3.031 3.031,-3.031 1.674,0 3.031,1.357 3.031,3.031 z"
   id="path53" />&#10;			&#10;				<path
   style="fill:none;stroke:#263238;stroke-width:0.5572;stroke-linecap:round;stroke-linejoin:round;stroke-miterlimit:10"
   d="m 158.36,267.048 c 0,1.674 -1.357,3.031 -3.031,3.031 -1.674,0 -3.031,-1.357 -3.031,-3.031 0,-1.674 1.357,-3.031 3.031,-3.031 1.674,0 3.031,1.357 3.031,3.031 z"
   id="path54" />&#10;			&#10;				<path
   style="fill:none;stroke:#263238;stroke-width:0.5572;stroke-linecap:round;stroke-linejoin:round;stroke-miterlimit:10"
   d="m 150.187,266.188 c 0,0 1.409,-0.688 2.111,0.563"
   id="path55" />&#10;			&#10;				<path
   style="fill:none;stroke:#263238;stroke-width:0.5572;stroke-linecap:round;stroke-linejoin:round;stroke-miterlimit:10"
   d="m 144.189,264.75 c 0,0 -8.691,-3.658 -10.314,-4.021"
   id="path56" />&#10;			<path
   style="fill:#263238"
   d="m 130.612,250.288 c 0,0 -0.901,-7.062 6.306,-8.229 7.207,-1.167 16.644,0.637 19.561,-0.613 0,0 -0.391,2.235 -2.065,3.069 0,0 5.497,2.027 9.831,0.277 0,0 -1.883,5.208 -4.314,7.208 H 162 c 0,0 -4.102,3.917 -9.092,4 -4.991,0.083 -9.688,-6.79 -14.631,-4.479 -4.944,2.312 -7.665,-1.233 -7.665,-1.233 z"
   id="path57" />&#10;			<path
   style="opacity:0.4;enable-background:new"
   d="m 155.85,273 c 0,0 0,0.01 -0.01,0.03 -0.39,1.14 -0.83,2.21 -1.3,3.18 -4.02,8.19 -15.58,9.78 -20.7,1.68 -0.02,-0.03 -0.04,-0.05 -0.06,-0.08 -2.64,-4.69 -0.53,-9.81 -0.53,-9.81 l 1.54,-4.99 1.12,-1.11 c 0,0 0.26,5.07 1.05,6.5 0.79,1.43 5.29,1.85 6.21,2.1 0.91,0.25 3.1,2.85 4.18,3.55 1.07,0.7 5.04,0.12 5.51,0.7 0.47,0.58 2.99,-1.75 2.99,-1.75 z"
   id="path58" />&#10;		</g>&#10;		<path
   style="opacity:0.2;enable-background:new"
   d="m 110.889,353.5 20.736,22.993 c 0,0 22.927,-0.51 50.764,13.096 0,0 29.872,-12.34 32.616,-22.59 2.744,-10.25 -62.708,-3 -62.708,-3 z"
   id="path59" />&#10;		<path
   style="fill:#ebb376"
   d="M 116.75,346.75 150,357.625 c 0,0 11.875,-2.625 14,-2.625 2.125,0 10.328,6.671 5.686,9 -4.642,2.329 -17.311,2.625 -18.686,1.875 -1.375,-0.75 -38.25,-9.379 -38.25,-9.379 z"
   id="path60" />&#10;		<g
   id="g62">&#10;			<path
   style="fill:#263238"
   d="m 106.89,283.871 c 7.524,-1.459 -5.529,44.379 -2.334,51.129 3.194,6.75 15.694,11.017 15.694,11.017 l -5.75,12.692 c 0,0 -17,-3.209 -26.25,-14.959 C 79,332 94.613,286.253 106.89,283.871 Z"
   id="path61" />&#10;			<path
   style="opacity:0.2;enable-background:new"
   d="m 106.89,283.871 c 7.524,-1.459 -5.529,44.379 -2.334,51.129 3.194,6.75 15.694,11.017 15.694,11.017 l -5.75,12.692 c 0,0 -17,-3.209 -26.25,-14.959 C 79,332 94.613,286.253 106.89,283.871 Z"
   id="path62" />&#10;		</g>&#10;		<g
   id="g63">&#10;			<polygon
   style="fill:#263238"
   points="113.25,358.709 119.25,360 124.75,347.375 120.25,345 "
   id="polygon62" />&#10;			<polygon
   style="opacity:0.2;fill:#ffffff;enable-background:new"
   points="113.25,358.709 119.25,360 124.75,347.375 120.25,345 "
   id="polygon63" />&#10;		</g>&#10;		<g
   id="g69">&#10;			<g
   id="g65">&#10;				<path
   style="fill:#263238"
   d="m 134,364 v 2.18 c 0,1.47 1.223,2.82 2.703,2.82 h 80.39 c 1.48,0 2.907,-1.35 2.907,-2.82 V 364 Z"
   id="path63" />&#10;				<path
   style="opacity:0.2;fill:#ffffff;enable-background:new"
   d="m 134,364 v 2.18 c 0,1.47 1.223,2.82 2.703,2.82 h 80.39 c 1.48,0 2.907,-1.35 2.907,-2.82 V 364 Z"
   id="path64" />&#10;				<path
   style="opacity:0.2;fill:#ffffff;enable-background:new"
   d="m 164,364 v 2.18 c 0,1.47 1.243,2.82 2.713,2.82 h 50.38 c 1.48,0 2.907,-1.35 2.907,-2.82 V 364 Z"
   id="path65" />&#10;			</g>&#10;			<g
   id="g68">&#10;				<path
   style="fill:#263238"
   d="m 166.713,367 h 53.11 c 1.63,0 3.36,-1.28 3.86,-2.85 l 12.18,-38.205 c 0.5,-1.57 -0.41,-2.945 -2.04,-2.945 h -53.11 c -1.63,0 -3.36,1.375 -3.86,2.945 l -12.18,38.158 c -0.5,1.569 0.41,2.897 2.04,2.897 z"
   id="path66" />&#10;				<path
   style="opacity:0.2;fill:#ffffff;enable-background:new"
   d="m 166.713,367 h 53.11 c 1.63,0 3.36,-1.28 3.86,-2.85 l 12.18,-38.205 c 0.5,-1.57 -0.41,-2.945 -2.04,-2.945 h -53.11 c -1.63,0 -3.36,1.375 -3.86,2.945 l -12.18,38.158 c -0.5,1.569 0.41,2.897 2.04,2.897 z"
   id="path67" />&#10;				<path
   style="opacity:0.2;fill:#ffffff;enable-background:new"
   d="m 168.713,367 h 51.11 c 1.63,0 3.36,-1.28 3.86,-2.85 l 12.18,-38.205 c 0.5,-1.57 -0.41,-2.945 -2.04,-2.945 h -51.11 c -1.63,0 -3.36,1.375 -3.86,2.945 l -12.18,38.158 c -0.5,1.569 0.41,2.897 2.04,2.897 z"
   id="path68" />&#10;			</g>&#10;			<polygon
   style="opacity:0.2;fill:#ffffff;enable-background:new"
   points="197.968,346.017 201.147,351.224 208.5,346.017 205.321,340.81 "
   id="polygon68" />&#10;		</g>&#10;	</g>&#10;</g><g
   id="Tab5"
   transform="matrix(0.41199008,0,0,0.41199008,-8.4869712,-24.086982)">&#10;	<g
   id="g77">&#10;		<path
   style="opacity:0.2;enable-background:new"
   d="M 242.108,178.433 H 174.86 c -4.828,0 -8.743,-3.914 -8.743,-8.743 v -67.248 c 0,-4.828 3.914,-8.743 8.743,-8.743 h 67.248 c 4.829,0 8.743,3.914 8.743,8.743 v 67.248 c 0,4.828 -3.914,8.743 -8.743,8.743 z"
   id="path69" />&#10;		<path
   style="fill:#407bff;enable-background:new"
   d="m 253.554,155.398 h -56.348 c -4.046,0 -7.326,-3.28 -7.326,-7.326 V 91.724 c 0,-4.046 3.28,-7.326 7.326,-7.326 h 56.348 c 4.046,0 7.326,3.28 7.326,7.326 v 56.348 c 0,4.046 -3.28,7.326 -7.326,7.326 z"
   id="path70" />&#10;		<g
   id="g76">&#10;			<path
   style="opacity:0.3;fill:#ffffff;enable-background:new"
   d="m 253.554,155.398 h -56.348 c -4.046,0 -7.326,-3.28 -7.326,-7.326 V 91.724 c 0,-4.046 3.28,-7.326 7.326,-7.326 h 56.348 c 4.046,0 7.326,3.28 7.326,7.326 v 56.348 c 0,4.046 -3.28,7.326 -7.326,7.326 z"
   id="path71" />&#10;			<g
   id="g75">&#10;				<g
   id="g74">&#10;					<path
   style="fill:#ffffff"
   d="m 230.85,111.705 v -4.294 l -2.211,-0.208 c -0.299,-1.439 -0.869,-2.778 -1.649,-3.966 l 1.42,-1.715 -3.036,-3.037 -1.716,1.42 c -1.189,-0.78 -2.527,-1.351 -3.966,-1.649 l -0.208,-2.211 h -4.294 l -0.208,2.211 c -1.44,0.299 -2.778,0.869 -3.966,1.649 l -1.716,-1.42 -3.036,3.037 1.42,1.715 c -0.78,1.189 -1.351,2.527 -1.649,3.966 l -2.211,0.208 v 4.294 l 2.211,0.208 c 0.298,1.44 0.869,2.778 1.649,3.967 l -1.42,1.716 3.036,3.036 1.716,-1.42 c 1.189,0.78 2.527,1.351 3.966,1.649 l 0.208,2.211 h 4.294 l 0.208,-2.211 c 1.439,-0.299 2.778,-0.869 3.966,-1.649 l 1.716,1.42 3.036,-3.036 -1.42,-1.716 c 0.78,-1.189 1.351,-2.527 1.649,-3.967 z m -13.514,3.666 c -3.211,0 -5.813,-2.603 -5.813,-5.813 0,-3.211 2.603,-5.813 5.813,-5.813 3.21,0 5.813,2.603 5.813,5.813 0,3.21 -2.603,5.813 -5.813,5.813 z"
   id="path72" />&#10;					<path
   style="fill:#ffffff"
   d="m 248.254,123.826 v -3.365 l -1.733,-0.163 c -0.234,-1.128 -0.681,-2.177 -1.292,-3.108 l 1.113,-1.344 -2.379,-2.38 -1.345,1.113 c -0.931,-0.611 -1.98,-1.058 -3.108,-1.292 l -0.163,-1.733 h -3.365 l -0.163,1.733 c -1.128,0.234 -2.177,0.681 -3.108,1.292 l -1.344,-1.113 -2.379,2.38 1.113,1.344 c -0.611,0.932 -1.058,1.98 -1.292,3.108 l -1.733,0.163 v 3.365 l 1.733,0.163 c 0.234,1.128 0.681,2.177 1.292,3.108 l -1.113,1.344 2.379,2.379 1.344,-1.113 c 0.932,0.611 1.98,1.058 3.108,1.292 l 0.163,1.732 h 3.365 L 239.51,131 c 1.128,-0.234 2.177,-0.681 3.108,-1.292 l 1.344,1.113 2.379,-2.379 -1.113,-1.344 c 0.611,-0.931 1.058,-1.98 1.292,-3.108 z m -10.589,2.873 c -2.516,0 -4.555,-2.04 -4.555,-4.555 0,-2.516 2.04,-4.555 4.555,-4.555 2.516,0 4.555,2.04 4.555,4.555 0,2.515 -2.04,4.555 -4.555,4.555 z"
   id="path73" />&#10;					<path
   style="fill:#ffffff"
   d="m 230.85,133.379 v -2.826 l -1.455,-0.137 c -0.197,-0.947 -0.572,-1.828 -1.085,-2.611 l 0.935,-1.129 -1.999,-1.999 -1.129,0.935 c -0.783,-0.513 -1.663,-0.889 -2.611,-1.085 l -0.137,-1.455 h -2.826 l -0.137,1.455 c -0.948,0.196 -1.828,0.572 -2.611,1.085 l -1.129,-0.935 -1.998,1.999 0.935,1.129 c -0.513,0.782 -0.889,1.663 -1.085,2.611 l -1.455,0.137 v 2.826 l 1.455,0.137 c 0.196,0.948 0.572,1.828 1.085,2.611 l -0.935,1.129 1.998,1.999 1.129,-0.935 c 0.782,0.513 1.663,0.889 2.611,1.085 l 0.137,1.455 h 2.826 l 0.137,-1.455 c 0.947,-0.197 1.828,-0.572 2.611,-1.085 l 1.129,0.935 1.999,-1.999 -0.935,-1.129 c 0.513,-0.782 0.889,-1.663 1.085,-2.611 z m -8.895,2.413 c -2.113,0 -3.826,-1.713 -3.826,-3.826 0,-2.113 1.713,-3.826 3.826,-3.826 2.113,0 3.826,1.713 3.826,3.826 0,2.113 -1.713,3.826 -3.826,3.826 z"
   id="path74" />&#10;				</g>&#10;			</g>&#10;		</g>&#10;		<path
   style="opacity:0.2;fill:#ffffff;enable-background:new"
   d="m 256.556,155.398 h -56.348 c -4.046,0 -7.326,-3.28 -7.326,-7.326 V 91.724 c 0,-4.046 3.28,-7.326 7.326,-7.326 h 56.348 c 4.046,0 7.326,3.28 7.326,7.326 v 56.348 c 0,4.046 -3.28,7.326 -7.326,7.326 z"
   id="path76" />&#10;	</g>&#10;</g><g
   id="Tab4"
   transform="matrix(0.41199008,0,0,0.41199008,-8.4869712,-24.086982)">&#10;	<g
   id="g83">&#10;		<path
   style="opacity:0.2;enable-background:new"
   d="m 364.248,254.274 h -62.166 c -4.464,0 -8.082,-3.618 -8.082,-8.082 v -62.166 c 0,-4.464 3.618,-8.082 8.082,-8.082 h 62.166 c 4.464,0 8.082,3.618 8.082,8.082 v 62.166 c 0,4.463 -3.618,8.082 -8.082,8.082 z"
   id="path77" />&#10;		<path
   style="fill:#407bff;enable-background:new"
   d="m 372.538,237.388 h -52.09 c -3.74,0 -6.772,-3.032 -6.772,-6.772 v -52.09 c 0,-3.74 3.032,-6.772 6.772,-6.772 h 52.09 c 3.74,0 6.772,3.032 6.772,6.772 v 52.09 c 0,3.74 -3.032,6.772 -6.772,6.772 z"
   id="path78" />&#10;		<g
   id="g82">&#10;			<path
   style="opacity:0.2;fill:#ffffff;enable-background:new"
   d="m 372.538,237.388 h -52.09 c -3.74,0 -6.772,-3.032 -6.772,-6.772 v -52.09 c 0,-3.74 3.032,-6.772 6.772,-6.772 h 52.09 c 3.74,0 6.772,3.032 6.772,6.772 v 52.09 c 0,3.74 -3.032,6.772 -6.772,6.772 z"
   id="path79" />&#10;			<g
   id="g81">&#10;				<path
   style="fill:#ffffff"
   d="m 348.995,215.109 c 0,1.308 -1.061,2.369 -2.369,2.369 -1.308,0 -2.369,-1.061 -2.369,-2.369 0,-1.308 1.06,-2.369 2.369,-2.369 1.308,0 2.369,1.061 2.369,2.369 z"
   id="path80" />&#10;				<path
   style="fill:#ffffff"
   d="m 346.426,191.47 c -12.996,0 -23.53,10.53 -23.53,23.53 h 18.793 c 0,-3 2.121,-4.641 4.738,-4.641 0.496,0 0.965,0.14 1.414,0.273 l 8.81,-10.228 -6.221,12.099 c 0.459,0.728 0.735,1.496 0.735,2.496 h 18.793 C 369.957,202 359.422,191.47 346.426,191.47 Z"
   id="path81" />&#10;			</g>&#10;		</g>&#10;		<path
   style="opacity:0.2;fill:#ffffff;enable-background:new"
   d="m 375.313,237.388 h -52.09 c -3.74,0 -6.772,-3.032 -6.772,-6.772 v -52.09 c 0,-3.74 3.032,-6.772 6.772,-6.772 h 52.09 c 3.74,0 6.772,3.032 6.772,6.772 v 52.09 c 0,3.74 -3.032,6.772 -6.772,6.772 z"
   id="path82" />&#10;	</g>&#10;</g><g
   id="Tab3"
   transform="matrix(0.41199008,0,0,0.41199008,-8.4869712,-24.086982)">&#10;	<g
   id="g90">&#10;		<path
   style="opacity:0.2;enable-background:new"
   d="m 383.339,182.062 h -54.544 c -3.916,0 -7.091,-3.175 -7.091,-7.091 v -54.544 c 0,-3.916 3.175,-7.091 7.091,-7.091 h 54.544 c 3.916,0 7.091,3.175 7.091,7.091 v 54.544 c 0,3.916 -3.175,7.091 -7.091,7.091 z"
   id="path83" />&#10;		<path
   style="fill:#407bff;enable-background:new"
   d="m 391.777,164.867 h -45.704 c -3.282,0 -5.942,-2.66 -5.942,-5.942 v -45.704 c 0,-3.282 2.66,-5.942 5.942,-5.942 h 45.704 c 3.282,0 5.942,2.66 5.942,5.942 v 45.704 c 0,3.281 -2.66,5.942 -5.942,5.942 z"
   id="path84" />&#10;		<g
   id="g89">&#10;			<path
   style="opacity:0.1;fill:#ffffff;enable-background:new"
   d="m 391.777,164.867 h -45.704 c -3.282,0 -5.942,-2.66 -5.942,-5.942 v -45.704 c 0,-3.282 2.66,-5.942 5.942,-5.942 h 45.704 c 3.282,0 5.942,2.66 5.942,5.942 v 45.704 c 0,3.281 -2.66,5.942 -5.942,5.942 z"
   id="path85" />&#10;			<g
   id="g88">&#10;				<path
   style="fill:#ffffff"
   d="M 385,121.893 C 385,120.848 384.153,120 383.108,120 h -28.215 c -1.045,0 -1.892,0.847 -1.892,1.893 v 6.215 c 0,1.045 0.847,1.893 1.892,1.893 h 28.215 c 1.045,0 1.892,-0.847 1.892,-1.893 z m -9.315,3.365 h -1.622 v -1.622 h 1.622 z m 4.325,0.811 c -0.896,0 -1.622,-0.726 -1.622,-1.622 0,-0.896 0.726,-1.622 1.622,-1.622 0.896,0 1.622,0.726 1.622,1.622 0,0.896 -0.726,1.622 -1.622,1.622 z"
   id="path86" />&#10;				<path
   style="fill:#ffffff"
   d="M 385,132.893 C 385,131.848 384.153,131 383.108,131 h -28.215 c -1.045,0 -1.892,0.847 -1.892,1.893 v 6.215 c 0,1.045 0.847,1.893 1.892,1.893 h 28.215 c 1.045,0 1.892,-0.847 1.892,-1.893 z m -9.315,3.991 h -1.622 v -1.622 h 1.622 z m 4.325,0.811 c -0.896,0 -1.622,-0.726 -1.622,-1.622 0,-0.896 0.726,-1.622 1.622,-1.622 0.896,0 1.622,0.726 1.622,1.622 0,0.896 -0.726,1.622 -1.622,1.622 z"
   id="path87" />&#10;				<path
   style="fill:#ffffff"
   d="M 385,143.893 C 385,142.848 384.153,142 383.108,142 h -28.215 c -1.045,0 -1.892,0.847 -1.892,1.893 v 6.215 c 0,1.045 0.847,1.893 1.892,1.893 h 28.215 c 1.045,0 1.892,-0.847 1.892,-1.893 z m -9.315,4.616 h -1.622 v -1.622 h 1.622 z m 4.325,0.811 c -0.896,0 -1.622,-0.726 -1.622,-1.622 0,-0.896 0.726,-1.622 1.622,-1.622 0.896,0 1.622,0.726 1.622,1.622 10e-4,0.896 -0.726,1.622 -1.622,1.622 z"
   id="path88" />&#10;			</g>&#10;		</g>&#10;		<path
   style="opacity:0.2;fill:#ffffff;enable-background:new"
   d="m 394.212,164.867 h -45.704 c -3.282,0 -5.942,-2.66 -5.942,-5.942 v -45.704 c 0,-3.282 2.66,-5.942 5.942,-5.942 h 45.704 c 3.282,0 5.942,2.66 5.942,5.942 v 45.704 c 0,3.281 -2.66,5.942 -5.942,5.942 z"
   id="path89" />&#10;	</g>&#10;</g><g
   id="Tab2"
   transform="matrix(0.41199008,0,0,0.41199008,-8.4869712,-24.086982)">&#10;	<g
   id="g98">&#10;		<path
   style="opacity:0.2;enable-background:new"
   d="m 285.602,251.297 h -67.247 c -4.828,0 -8.743,-3.914 -8.743,-8.743 v -67.247 c 0,-4.828 3.914,-8.743 8.743,-8.743 h 67.247 c 4.829,0 8.743,3.914 8.743,8.743 v 67.247 c 0,4.829 -3.914,8.743 -8.743,8.743 z"
   id="path90" />&#10;		<path
   style="fill:#407bff;enable-background:new"
   d="m 293.165,231.567 h -56.348 c -4.046,0 -7.326,-3.28 -7.326,-7.326 v -56.348 c 0,-4.046 3.28,-7.326 7.326,-7.326 h 56.348 c 4.046,0 7.326,3.28 7.326,7.326 v 56.348 c 0,4.047 -3.28,7.326 -7.326,7.326 z"
   id="path91" />&#10;		<g
   id="g97">&#10;			<path
   style="opacity:0.5;fill:#ffffff;enable-background:new"
   d="m 293.165,231.567 h -56.348 c -4.046,0 -7.326,-3.28 -7.326,-7.326 v -56.348 c 0,-4.046 3.28,-7.326 7.326,-7.326 h 56.348 c 4.046,0 7.326,3.28 7.326,7.326 v 56.348 c 0,4.047 -3.28,7.326 -7.326,7.326 z"
   id="path92" />&#10;			<g
   id="g96">&#10;				<g
   id="g94">&#10;					<path
   style="fill:#ffffff"
   d="m 245.348,215.56 v 0 c -2.167,-2.167 -2.167,-5.68 0,-7.846 l 12.949,-12.949 c 1.222,-1.222 3.204,-1.222 4.427,0 l 3.419,3.419 c 1.222,1.222 1.222,3.204 0,4.427 l -12.949,12.949 c -2.166,2.167 -5.679,2.167 -7.846,0 z"
   id="path93" />&#10;					<polygon
   style="fill:#ffffff"
   points="284.475,176.434 283.838,179.616 269.206,194.247 266.661,191.703 281.293,177.071 "
   id="polygon93" />&#10;					<path
   style="fill:#ffffff"
   d="m 267.774,197.641 -4.506,-4.506 c -0.403,-0.403 -0.403,-1.055 0,-1.458 v 0 c 0.403,-0.403 1.055,-0.403 1.458,0 l 4.506,4.506 c 0.403,0.403 0.403,1.055 0,1.458 v 0 c -0.403,0.403 -1.055,0.403 -1.458,0 z"
   id="path94" />&#10;				</g>&#10;				<path
   style="fill:#ffffff"
   d="m 261.708,189.012 -6.172,-6.189 c 1.155,-3.09 -1.172,-6.891 -3.703,-7.895 l -0.051,4.764 c -0.001,1.105 -0.92,2.021 -2.025,2.019 -1.104,-0.001 -2.021,-0.876 -2.019,-1.981 l 0.007,-4.72 c -2.001,0.777 -4.103,3.054 -4.107,5.754 -0.004,3.063 2.378,5.549 5.339,5.965 1.028,0.144 2.002,0.019 2.979,-0.417 l 6.217,6.234 z"
   id="path95" />&#10;				<path
   style="fill:#ffffff"
   d="m 282.249,212.484 -0.009,4.723 c 2.001,-0.777 4.102,-3.053 4.105,-5.753 0.004,-3.063 -2.245,-5.681 -5.206,-6.096 -1.029,-0.144 -1.87,-0.151 -2.847,0.285 l -6.463,-6.481 -3.536,3.535 6.417,6.435 c -1.863,3.796 1.039,7.024 3.571,8.027 l -0.016,-4.698 c 0.002,-1.105 0.887,-1.988 1.992,-1.986 1.105,0.002 1.993,0.904 1.992,2.009 z"
   id="path96" />&#10;			</g>&#10;		</g>&#10;		<path
   style="opacity:0.2;fill:#ffffff;enable-background:new"
   d="m 296.167,231.567 h -56.348 c -4.046,0 -7.326,-3.28 -7.326,-7.326 v -56.348 c 0,-4.046 3.28,-7.326 7.326,-7.326 h 56.348 c 4.046,0 7.326,3.28 7.326,7.326 v 56.348 c 0,4.047 -3.28,7.326 -7.326,7.326 z"
   id="path97" />&#10;	</g>&#10;</g><g
   id="Tab1"
   transform="matrix(0.41199008,0,0,0.41199008,-8.4869712,-24.086982)">&#10;	<g
   id="g102">&#10;		<path
   style="fill:#407bff;enable-background:new"
   d="m 278.242,147.716 h 67.921 c 4.877,0 8.83,-3.954 8.83,-8.83 V 70.965 c 0,-4.877 -3.953,-8.83 -8.83,-8.83 h -67.921 c -4.877,0 -8.83,3.954 -8.83,8.83 v 67.921 c 0,4.877 3.954,8.83 8.83,8.83 z"
   id="path98" />&#10;		<path
   style="opacity:0.2;enable-background:new"
   d="m 341.262,177.865 h -81.058 c -5.82,0 -10.538,-4.718 -10.538,-10.538 V 86.269 c 0,-5.82 4.718,-10.538 10.538,-10.538 h 81.058 c 5.82,0 10.538,4.718 10.538,10.538 v 81.058 c 0,5.82 -4.718,10.538 -10.538,10.538 z"
   id="path99" />&#10;		<g
   id="g101">&#10;			<path
   style="opacity:0.5;fill:#ffffff;enable-background:new"
   d="m 278.242,147.716 h 67.921 c 4.877,0 8.83,-3.954 8.83,-8.83 V 70.965 c 0,-4.877 -3.953,-8.83 -8.83,-8.83 h -67.921 c -4.877,0 -8.83,3.954 -8.83,8.83 v 67.921 c 0,4.877 3.954,8.83 8.83,8.83 z"
   id="path100" />&#10;			<path
   style="fill:#ffffff"
   d="m 312.184,78.407 -26.217,10.286 c 0,0 3.315,36.001 26.217,42.751 22.902,-6.75 26.217,-42.751 26.217,-42.751 z m -0.669,34.859 c -0.342,0.451 -0.875,0.734 -1.441,0.734 -0.006,0 -0.012,0 -0.019,0 -0.572,0 -1.108,-0.3 -1.444,-0.763 l -9.191,-12.665 c -0.587,-0.808 -0.407,-1.943 0.401,-2.53 0.809,-0.589 1.939,-0.41 2.526,0.399 l 7.759,10.684 12.691,-16.742 c 0.603,-0.796 1.738,-0.953 2.533,-0.349 0.796,0.603 0.952,1.846 0.348,2.642 z"
   id="path101" />&#10;		</g>&#10;		<path
   style="opacity:0.2;fill:#ffffff;enable-background:new"
   d="m 281.861,147.716 h 67.921 c 4.877,0 8.83,-3.954 8.83,-8.83 V 70.965 c 0,-4.877 -3.954,-8.83 -8.83,-8.83 h -67.921 c -4.877,0 -8.83,3.954 -8.83,8.83 v 67.921 c -0.001,4.877 3.953,8.83 8.83,8.83 z"
   id="path102" />&#10;	</g>&#10;</g><g
   id="Promt2"
   transform="matrix(0.41199008,0,0,0.41199008,-8.4869712,-24.086982)">&#10;	<g
   id="g114">&#10;		<g
   id="g103">&#10;			<rect
   x="347.806"
   y="284.927"
   style="fill:#407bff"
   width="85.248001"
   height="57.528999"
   id="rect102" />&#10;			<rect
   x="347.806"
   y="284.927"
   style="opacity:0.7;fill:#ffffff;enable-background:new"
   width="85.248001"
   height="57.528999"
   id="rect103" />&#10;		</g>&#10;		<rect
   x="349.38901"
   y="289.36401"
   style="fill:#263238"
   width="81.867996"
   height="51.176998"
   id="rect104" />&#10;		<g
   id="g113">&#10;			<rect
   x="353.13901"
   y="297.29099"
   style="fill:#e0e0e0"
   width="67.308998"
   height="1.5"
   id="rect105" />&#10;			<rect
   x="353.13901"
   y="301.54099"
   style="fill:#e0e0e0"
   width="57.303001"
   height="1.5"
   id="rect106" />&#10;			<rect
   x="353.13901"
   y="305.79099"
   style="fill:#e0e0e0"
   width="67.308998"
   height="1.5"
   id="rect107" />&#10;			<rect
   x="353.13901"
   y="310.04099"
   style="fill:#e0e0e0"
   width="57.303001"
   height="1.5"
   id="rect108" />&#10;			<rect
   x="353.13901"
   y="314.29099"
   style="fill:#e0e0e0"
   width="7.2719998"
   height="1.5"
   id="rect109" />&#10;			<rect
   x="353.13901"
   y="318.54099"
   style="fill:#e0e0e0"
   width="37.291"
   height="1.5"
   id="rect110" />&#10;			<rect
   x="353.13901"
   y="322.79099"
   style="fill:#e0e0e0"
   width="57.303001"
   height="1.5"
   id="rect111" />&#10;			<rect
   x="353.13901"
   y="327.04099"
   style="fill:#e0e0e0"
   width="7.2719998"
   height="1.5"
   id="rect112" />&#10;			<rect
   x="353.13901"
   y="331.29099"
   style="fill:#e0e0e0"
   width="7.2719998"
   height="1.5"
   id="rect113" />&#10;		</g>&#10;	</g>&#10;</g><g
   id="Promt1"
   transform="matrix(0.41199008,0,0,0.41199008,-8.4869712,-24.086982)">&#10;	<g
   id="g126">&#10;		<g
   id="g115">&#10;			<rect
   x="101.982"
   y="165.235"
   style="fill:#407bff"
   width="85.248001"
   height="57.528999"
   id="rect114" />&#10;			<rect
   x="101.982"
   y="165.235"
   style="opacity:0.7;fill:#ffffff;enable-background:new"
   width="85.248001"
   height="57.528999"
   id="rect115" />&#10;		</g>&#10;		<rect
   x="103.565"
   y="169.672"
   style="fill:#263238"
   width="81.867996"
   height="51.176998"
   id="rect116" />&#10;		<g
   id="g125">&#10;			<rect
   x="107.315"
   y="177.599"
   style="fill:#e0e0e0"
   width="67.309998"
   height="1.5"
   id="rect117" />&#10;			<rect
   x="107.315"
   y="181.849"
   style="fill:#e0e0e0"
   width="57.303001"
   height="1.5"
   id="rect118" />&#10;			<rect
   x="107.315"
   y="186.099"
   style="fill:#e0e0e0"
   width="67.309998"
   height="1.5"
   id="rect119" />&#10;			<rect
   x="107.315"
   y="190.349"
   style="fill:#e0e0e0"
   width="57.303001"
   height="1.5"
   id="rect120" />&#10;			<rect
   x="107.315"
   y="194.599"
   style="fill:#e0e0e0"
   width="7.2719998"
   height="1.5"
   id="rect121" />&#10;			<rect
   x="107.315"
   y="198.849"
   style="fill:#e0e0e0"
   width="37.291"
   height="1.5"
   id="rect122" />&#10;			<rect
   x="107.315"
   y="203.099"
   style="fill:#e0e0e0"
   width="57.303001"
   height="1.5"
   id="rect123" />&#10;			<rect
   x="107.315"
   y="207.349"
   style="fill:#e0e0e0"
   width="7.2719998"
   height="1.5"
   id="rect124" />&#10;			<rect
   x="107.315"
   y="211.599"
   style="fill:#e0e0e0"
   width="7.2719998"
   height="1.5"
   id="rect125" />&#10;		</g>&#10;	</g>&#10;</g></svg>
