<?xml version="1.0" encoding="UTF-8" standalone="no"?>
<!-- Generator: Adobe Illustrator 27.5.0, SVG Export Plug-In . SVG Version: 6.00 Build 0)  -->

<svg
   version="1.1"
   x="0px"
   y="0px"
   viewBox="0 0 199 155"
   xml:space="preserve"
   id="svg247"
   sodipodi:docname="titulo.svg"
   inkscape:version="1.3 (0e150ed6c4, 2023-07-21)"
   width="199"
   height="155"
   xmlns:inkscape="http://www.inkscape.org/namespaces/inkscape"
   xmlns:sodipodi="http://sodipodi.sourceforge.net/DTD/sodipodi-0.dtd"
   xmlns="http://www.w3.org/2000/svg"
   xmlns:svg="http://www.w3.org/2000/svg"><defs
   id="defs247">&#10;	&#10;&#10;		&#10;		&#10;			&#10;		&#10;			&#10;		&#10;		&#10;		&#10;	&#10;			&#10;			&#10;			&#10;			&#10;			&#10;			&#10;		</defs><sodipodi:namedview
   id="namedview247"
   pagecolor="#ffffff"
   bordercolor="#000000"
   borderopacity="0.25"
   inkscape:showpageshadow="2"
   inkscape:pageopacity="0.0"
   inkscape:pagecheckerboard="true"
   inkscape:deskcolor="#d1d1d1"
   inkscape:zoom="3.284"
   inkscape:cx="164.28136"
   inkscape:cy="88.154689"
   inkscape:window-width="2560"
   inkscape:window-height="1017"
   inkscape:window-x="1912"
   inkscape:window-y="-8"
   inkscape:window-maximized="1"
   inkscape:current-layer="svg247" />&#10;&#10;<g
   id="Background_Simple"
   style="display:none">&#10;	<g
   style="display:inline"
   id="g41">&#10;		<path
   style="fill:#407bff"
   d="m 241.936,74.075 c 7.832,-1.91 16.622,-1.622 26.341,1.643 15.617,5.247 27.043,19.004 34.173,33.856 13.796,28.739 17.651,60.899 27.547,90.911 2.714,8.23 5.923,16.453 11.228,23.305 22.071,28.507 82.754,12.137 82.176,62.137 -0.163,14.13 -7.771,27.655 -18.876,36.394 -32.69,25.724 -78.654,11.019 -113.588,-0.656 -32.732,-10.939 -61.068,-12.275 -93.872,0.819 -27.802,11.097 -56.895,29.991 -88.174,24.881 -31.807,-5.197 -46.032,-36.584 -40.707,-66.182 5.677,-31.551 30.416,-54.82 58.857,-67.405 16.966,-7.508 39.284,-12.096 52.582,-25.755 6.83,-7.015 9.803,-16.855 11.975,-26.402 3.458,-15.205 5.5,-30.795 10.651,-45.513 6.453,-18.439 19.682,-37.153 39.687,-42.033 z"
   id="path40" />&#10;		<path
   style="opacity:0.9;fill:#ffffff"
   d="m 241.936,74.075 c 7.832,-1.91 16.622,-1.622 26.341,1.643 15.617,5.247 27.043,19.004 34.173,33.856 13.796,28.739 17.651,60.899 27.547,90.911 2.714,8.23 5.923,16.453 11.228,23.305 22.071,28.507 82.754,12.137 82.176,62.137 -0.163,14.13 -7.771,27.655 -18.876,36.394 -32.69,25.724 -78.654,11.019 -113.588,-0.656 -32.732,-10.939 -61.068,-12.275 -93.872,0.819 -27.802,11.097 -56.895,29.991 -88.174,24.881 -31.807,-5.197 -46.032,-36.584 -40.707,-66.182 5.677,-31.551 30.416,-54.82 58.857,-67.405 16.966,-7.508 39.284,-12.096 52.582,-25.755 6.83,-7.015 9.803,-16.855 11.975,-26.402 3.458,-15.205 5.5,-30.795 10.651,-45.513 6.453,-18.439 19.682,-37.153 39.687,-42.033 z"
   id="path41" />&#10;	</g>&#10;</g>&#10;&#10;&#10;&#10;&#10;&#10;<g
   id="Shadow"
   transform="matrix(0.50400401,0,0,0.50400401,-26.409108,-62.11656)">&#10;	<ellipse
   id="_x3C_Path_x3E__359_"
   style="fill:#f5f5f5"
   cx="250"
   cy="415.69299"
   rx="193.88901"
   ry="11.323" />&#10;</g><g
   id="g50"
   transform="matrix(0.50400401,0,0,0.50400401,-26.409108,-62.11656)">&#10;			<polygon
   style="fill:#263238"
   points="103.544,255.343 190.624,262.961 201.201,142.058 194.11,133.607 183.532,254.51 96.452,246.892 "
   id="polygon49" />&#10;			<polygon
   style="opacity:0.5;fill:#ffffff"
   points="103.544,255.343 190.624,262.961 201.201,142.058 194.11,133.607 183.532,254.51 96.452,246.892 "
   id="polygon50" />&#10;		</g><rect
   x="27.547792"
   y="-1.0211717"
   transform="rotate(5.0024997)"
   style="fill:#407bff;stroke-width:0.504009"
   width="44.056908"
   height="61.169003"
   id="rect50" /><rect
   x="27.547792"
   y="-1.0211717"
   transform="rotate(5.0024997)"
   style="opacity:0.6;fill:#ffffff;stroke-width:0.504009"
   width="44.056908"
   height="61.169003"
   id="rect51" /><g
   id="g67"
   transform="matrix(0.50400401,0,0,0.50400401,-26.409108,-62.11656)">&#10;			<g
   id="g58">&#10;				<g
   id="g51">&#10;					<path
   style="fill:#263238"
   d="m 196.489,151.165 v 0 c -0.408,-0.036 -0.709,-0.395 -0.673,-0.803 l 0.28,-3.197 c 0.036,-0.408 0.395,-0.709 0.803,-0.673 v 0 c 0.408,0.036 0.709,0.395 0.673,0.803 l -0.28,3.197 c -0.036,0.408 -0.395,0.709 -0.803,0.673 z"
   id="path51" />&#10;				</g>&#10;				<g
   id="g52">&#10;					<path
   style="fill:#263238"
   d="m 191.222,211.372 v 0 c -0.408,-0.036 -0.709,-0.395 -0.673,-0.803 l 4.831,-55.218 c 0.036,-0.408 0.395,-0.709 0.803,-0.673 v 0 c 0.407,0.036 0.709,0.395 0.673,0.802 l -4.831,55.218 c -0.036,0.408 -0.395,0.71 -0.803,0.674 z"
   id="path52" />&#10;				</g>&#10;				<g
   id="g53">&#10;					<path
   style="fill:#263238"
   d="m 188.656,240.706 v 0 c -0.408,-0.036 -0.709,-0.395 -0.673,-0.803 l 2.045,-23.37 c 0.036,-0.408 0.395,-0.709 0.802,-0.673 v 0 c 0.408,0.036 0.709,0.395 0.673,0.803 l -2.045,23.37 c -0.036,0.407 -0.395,0.709 -0.802,0.673 z"
   id="path53" />&#10;				</g>&#10;				<g
   id="g54">&#10;					<path
   style="fill:#263238"
   d="m 187.805,250.423 v 0 c -0.408,-0.036 -0.709,-0.395 -0.673,-0.803 l 0.377,-4.305 c 0.036,-0.408 0.395,-0.709 0.803,-0.673 v 0 c 0.408,0.036 0.709,0.395 0.673,0.803 l -0.377,4.305 c -0.036,0.407 -0.395,0.708 -0.803,0.673 z"
   id="path54" />&#10;				</g>&#10;				<g
   id="g55">&#10;					<path
   style="fill:#263238"
   d="m 127.535,254.27 -15.252,-1.334 c -0.408,-0.036 -0.709,-0.395 -0.673,-0.803 v 0 c 0.036,-0.408 0.395,-0.709 0.802,-0.673 l 15.252,1.334 c 0.407,0.036 0.709,0.395 0.673,0.803 v 0 c -0.035,0.407 -0.395,0.709 -0.802,0.673 z"
   id="path55" />&#10;				</g>&#10;				<g
   id="g56">&#10;					<path
   style="fill:#263238"
   d="m 164.924,257.541 -30.748,-2.69 c -0.408,-0.036 -0.709,-0.395 -0.673,-0.803 v 0 c 0.036,-0.407 0.395,-0.709 0.803,-0.673 l 30.748,2.69 c 0.408,0.036 0.709,0.395 0.673,0.803 v 0 c -0.036,0.407 -0.395,0.709 -0.803,0.673 z"
   id="path56" />&#10;				</g>&#10;				<g
   id="g57">&#10;					<path
   style="fill:#263238"
   d="m 173.534,258.294 -4.182,-0.366 c -0.408,-0.036 -0.709,-0.395 -0.673,-0.802 v 0 c 0.036,-0.408 0.395,-0.709 0.803,-0.673 l 4.182,0.366 c 0.408,0.036 0.709,0.395 0.673,0.802 v 0 c -0.036,0.408 -0.395,0.709 -0.803,0.673 z"
   id="path57" />&#10;				</g>&#10;			</g>&#10;			<g
   style="opacity:0.4"
   id="g66">&#10;				<g
   id="g59">&#10;					<path
   style="fill:#ffffff"
   d="m 196.489,151.165 v 0 c -0.408,-0.036 -0.709,-0.395 -0.673,-0.803 l 0.28,-3.197 c 0.036,-0.408 0.395,-0.709 0.803,-0.673 v 0 c 0.408,0.036 0.709,0.395 0.673,0.803 l -0.28,3.197 c -0.036,0.408 -0.395,0.709 -0.803,0.673 z"
   id="path58" />&#10;				</g>&#10;				<g
   id="g60">&#10;					<path
   style="fill:#ffffff"
   d="m 191.222,211.372 v 0 c -0.408,-0.036 -0.709,-0.395 -0.673,-0.803 l 4.831,-55.218 c 0.036,-0.408 0.395,-0.709 0.803,-0.673 v 0 c 0.407,0.036 0.709,0.395 0.673,0.802 l -4.831,55.218 c -0.036,0.408 -0.395,0.71 -0.803,0.674 z"
   id="path59" />&#10;				</g>&#10;				<g
   id="g61">&#10;					<path
   style="fill:#ffffff"
   d="m 188.656,240.706 v 0 c -0.408,-0.036 -0.709,-0.395 -0.673,-0.803 l 2.045,-23.37 c 0.036,-0.408 0.395,-0.709 0.802,-0.673 v 0 c 0.408,0.036 0.709,0.395 0.673,0.803 l -2.045,23.37 c -0.036,0.407 -0.395,0.709 -0.802,0.673 z"
   id="path60" />&#10;				</g>&#10;				<g
   id="g62">&#10;					<path
   style="fill:#ffffff"
   d="m 187.805,250.423 v 0 c -0.408,-0.036 -0.709,-0.395 -0.673,-0.803 l 0.377,-4.305 c 0.036,-0.408 0.395,-0.709 0.803,-0.673 v 0 c 0.408,0.036 0.709,0.395 0.673,0.803 l -0.377,4.305 c -0.036,0.407 -0.395,0.708 -0.803,0.673 z"
   id="path61" />&#10;				</g>&#10;				<g
   id="g63">&#10;					<path
   style="fill:#ffffff"
   d="m 127.535,254.27 -15.252,-1.334 c -0.408,-0.036 -0.709,-0.395 -0.673,-0.803 v 0 c 0.036,-0.408 0.395,-0.709 0.802,-0.673 l 15.252,1.334 c 0.407,0.036 0.709,0.395 0.673,0.803 v 0 c -0.035,0.407 -0.395,0.709 -0.802,0.673 z"
   id="path62" />&#10;				</g>&#10;				<g
   id="g64">&#10;					<path
   style="fill:#ffffff"
   d="m 164.924,257.541 -30.748,-2.69 c -0.408,-0.036 -0.709,-0.395 -0.673,-0.803 v 0 c 0.036,-0.407 0.395,-0.709 0.803,-0.673 l 30.748,2.69 c 0.408,0.036 0.709,0.395 0.673,0.803 v 0 c -0.036,0.407 -0.395,0.709 -0.803,0.673 z"
   id="path63" />&#10;				</g>&#10;				<g
   id="g65">&#10;					<path
   style="fill:#ffffff"
   d="m 173.534,258.294 -4.182,-0.366 c -0.408,-0.036 -0.709,-0.395 -0.673,-0.802 v 0 c 0.036,-0.408 0.395,-0.709 0.803,-0.673 l 4.182,0.366 c 0.408,0.036 0.709,0.395 0.673,0.802 v 0 c -0.036,0.408 -0.395,0.709 -0.803,0.673 z"
   id="path64" />&#10;				</g>&#10;			</g>&#10;		</g><g
   id="g73"
   transform="matrix(0.50400401,0,0,0.50400401,-26.409108,-62.11656)">&#10;			<g
   id="g69">&#10;				<path
   style="fill:#263238"
   d="m 111.412,176.318 c -3.094,0.449 -12.409,-1.086 -12.409,-1.086 l -2.097,23.973 c 0,0 9.439,0.106 12.409,1.086 0.715,0.236 2.602,1.583 2.602,1.583 l 2.333,-26.663 c 0,0 -2.092,0.999 -2.838,1.107 z"
   id="path67" />&#10;				<path
   d="m 110.159,200.718 c 0.808,0.478 1.758,1.156 1.758,1.156 l 2.333,-26.663 c 0,0 -1.054,0.503 -1.932,0.833 z"
   id="path68" />&#10;				<path
   style="fill:#263238"
   d="m 112.169,203.242 v 0 c -0.713,-0.062 -1.241,-0.691 -1.178,-1.404 l 2.34,-26.751 c 0.062,-0.713 0.691,-1.241 1.404,-1.179 v 0 c 0.713,0.062 1.241,0.691 1.179,1.405 l -2.34,26.751 c -0.063,0.713 -0.692,1.24 -1.405,1.178 z"
   id="path69" />&#10;			</g>&#10;			<g
   id="g72">&#10;				<g
   id="g70">&#10;					<path
   style="fill:#263238"
   d="m 110.77,182.09 -1.085,12.404 -8.497,-3.607 c -0.289,-0.122 -0.632,-0.055 -0.896,0.177 -1.089,0.958 -2.483,1.417 -3.925,1.29 -1.092,-0.095 -1.933,-0.511 -2.498,-1.234 -1.127,-1.442 -0.937,-3.791 -0.605,-5.9 0.33,-2.088 2.233,-3.574 4.242,-3.313 1.35,0.176 2.563,0.859 3.417,1.925 0.221,0.276 0.548,0.404 0.855,0.333 z m -2.059,10.784 0.819,-9.357 -7.503,1.732 c -0.726,0.167 -1.482,-0.109 -1.972,-0.721 -0.673,-0.841 -1.63,-1.38 -2.693,-1.518 -1.417,-0.185 -2.763,0.885 -3.001,2.384 -0.279,1.763 -0.487,3.929 0.383,5.042 0.373,0.478 0.936,0.743 1.719,0.811 1.137,0.099 2.236,-0.262 3.095,-1.018 0.587,-0.517 1.378,-0.657 2.063,-0.366 z"
   id="path70" />&#10;				</g>&#10;				<g
   style="opacity:0.5"
   id="g71">&#10;					<path
   style="fill:#ffffff"
   d="m 110.77,182.09 -1.085,12.404 -8.497,-3.607 c -0.289,-0.122 -0.632,-0.055 -0.896,0.177 -1.089,0.958 -2.483,1.417 -3.925,1.29 -1.092,-0.095 -1.933,-0.511 -2.498,-1.234 -1.127,-1.442 -0.937,-3.791 -0.605,-5.9 0.33,-2.088 2.233,-3.574 4.242,-3.313 1.35,0.176 2.563,0.859 3.417,1.925 0.221,0.276 0.548,0.404 0.855,0.333 z m -2.059,10.784 0.819,-9.357 -7.503,1.732 c -0.726,0.167 -1.482,-0.109 -1.972,-0.721 -0.673,-0.841 -1.63,-1.38 -2.693,-1.518 -1.417,-0.185 -2.763,0.885 -3.001,2.384 -0.279,1.763 -0.487,3.929 0.383,5.042 0.373,0.478 0.936,0.743 1.719,0.811 1.137,0.099 2.236,-0.262 3.095,-1.018 0.587,-0.517 1.378,-0.657 2.063,-0.366 z"
   id="path71" />&#10;				</g>&#10;			</g>&#10;		</g><g
   id="g79"
   transform="matrix(0.50400401,0,0,0.50400401,-26.409108,-62.11656)">&#10;				<path
   style="fill:#263238"
   d="m 171.7,159.554 -47.107,-4.121 c -0.611,-0.053 -1.064,-0.592 -1.01,-1.204 v 0 c 0.053,-0.611 0.592,-1.064 1.204,-1.01 l 47.106,4.121 c 0.611,0.053 1.064,0.592 1.01,1.204 v 0 c -0.053,0.611 -0.592,1.063 -1.203,1.01 z"
   id="path79" />&#10;			</g><g
   id="g80"
   transform="matrix(0.50400401,0,0,0.50400401,-26.409108,-62.11656)">&#10;				<path
   style="fill:#263238"
   d="m 164.899,165.871 -34.704,-3.036 c -0.611,-0.053 -1.064,-0.592 -1.01,-1.204 v 0 c 0.054,-0.611 0.593,-1.064 1.204,-1.01 l 34.704,3.036 c 0.611,0.053 1.064,0.592 1.01,1.204 v 0 c -0.054,0.611 -0.593,1.064 -1.204,1.01 z"
   id="path80" />&#10;			</g><g
   id="g81"
   transform="matrix(0.50400401,0,0,0.50400401,-26.409108,-62.11656)">&#10;				<path
   style="fill:#263238"
   d="m 172.603,231.18 c -0.036,0.408 -0.395,0.709 -0.803,0.673 l -59.86,-5.237 c -0.408,-0.036 -0.709,-0.395 -0.673,-0.803 v 0 c 0.036,-0.408 0.395,-0.709 0.803,-0.673 l 59.86,5.237 c 0.407,0.036 0.708,0.395 0.673,0.803 z"
   id="path81" />&#10;			</g><g
   id="g82"
   transform="matrix(0.50400401,0,0,0.50400401,-26.409108,-62.11656)">&#10;				<path
   style="fill:#263238"
   d="m 165.801,237.497 c -0.036,0.408 -0.395,0.709 -0.803,0.673 l -47.457,-4.152 c -0.408,-0.036 -0.709,-0.395 -0.673,-0.802 v 0 c 0.036,-0.408 0.395,-0.709 0.802,-0.673 l 47.457,4.152 c 0.408,0.035 0.71,0.394 0.674,0.802 z"
   id="path82" />&#10;			</g><g
   id="g86"
   transform="matrix(0.50400401,0,0,0.50400401,-26.409108,-62.11656)">&#10;				&#10;					<circle
   transform="matrix(0.766,-0.6428,0.6428,0.766,-92.1519,138.9268)"
   style="fill:#407bff"
   cx="144.77299"
   cy="196.056"
   id="ellipse82"
   r="13.394" />&#10;				<g
   id="g85">&#10;					<path
   style="fill:#263238"
   d="m 150.584,200.465 c -0.083,0.951 -2.904,1.481 -6.3,1.184 -3.396,-0.297 -6.082,-1.309 -5.999,-2.26 l 0.363,-4.153 12.299,1.076 z"
   id="path83" />&#10;					<path
   style="opacity:0.6"
   d="m 138.546,196.398 c 0.469,0.861 2.961,1.701 6.025,1.969 3.064,0.268 5.663,-0.126 6.275,-0.893 l 0.102,-1.162 -12.299,-1.076 z"
   id="path84" />&#10;					<path
   style="fill:#263238"
   d="m 144.539,197.947 -9.895,-4.021 c -0.204,-0.083 -0.189,-0.377 0.023,-0.438 l 10.511,-3.017 c 0.055,-0.016 0.114,-0.011 0.166,0.015 l 9.827,4.796 c 0.198,0.097 0.163,0.389 -0.053,0.436 l -10.443,2.242 c -0.045,0.008 -0.093,0.004 -0.136,-0.013 z"
   id="path85" />&#10;				</g>&#10;			</g><g
   id="Device"
   transform="matrix(0.50400401,0,0,0.50400401,-26.409108,-62.11656)">&#10;	<g
   id="g124">&#10;		<path
   style="fill:#263238"
   d="m 316.76,290.509 -14.026,-31.094 h -32.791 l 5.034,29.095 c 0.248,1.429 -0.71,2.788 -2.139,3.036 -0.14,0.024 -0.281,0.037 -0.423,0.038 h -14.397 c -0.768,0 -1.39,0.622 -1.39,1.39 v 0 1.55 c 0,0.767 0.622,1.39 1.39,1.39 v 0 h 57.73 c 0.835,0 1.512,-0.677 1.512,-1.512 v -1.608 c -0.005,-0.787 -0.175,-1.566 -0.5,-2.285 z m -15.185,-3.842 h -15.742 c -1.026,0.002 -1.903,-0.737 -2.075,-1.748 l -2.376,-13.725 c -0.198,-1.147 0.571,-2.237 1.718,-2.435 0.12,-0.021 0.242,-0.031 0.364,-0.031 h 11.906 c 0.827,0 1.578,0.483 1.921,1.236 l 6.206,13.725 c 0.478,1.065 10e-4,2.316 -1.064,2.793 -0.27,0.121 -0.562,0.184 -0.858,0.185 z"
   id="path88" />&#10;		<path
   style="opacity:0.5;fill:#ffffff"
   d="m 316.76,290.509 -14.026,-31.094 h -32.791 l 5.034,29.095 c 0.248,1.429 -0.71,2.788 -2.139,3.036 -0.14,0.024 -0.281,0.037 -0.423,0.038 h -14.397 c -0.768,0 -1.39,0.622 -1.39,1.39 v 0 1.55 c 0,0.767 0.622,1.39 1.39,1.39 v 0 h 57.73 c 0.835,0 1.512,-0.677 1.512,-1.512 v -1.608 c -0.005,-0.787 -0.175,-1.566 -0.5,-2.285 z m -15.185,-3.842 h -15.742 c -1.026,0.002 -1.903,-0.737 -2.075,-1.748 l -2.376,-13.725 c -0.198,-1.147 0.571,-2.237 1.718,-2.435 0.12,-0.021 0.242,-0.031 0.364,-0.031 h 11.906 c 0.827,0 1.578,0.483 1.921,1.236 l 6.206,13.725 c 0.478,1.065 10e-4,2.316 -1.064,2.793 -0.27,0.121 -0.562,0.184 -0.858,0.185 z"
   id="path89" />&#10;		<path
   style="opacity:0.2;fill:#ffffff;enable-background:new"
   d="m 301.575,286.667 h -15.742 c -1.026,0.002 -1.903,-0.737 -2.075,-1.748 l -2.376,-13.725 c -0.198,-1.147 0.571,-2.237 1.718,-2.435 0.12,-0.021 0.242,-0.031 0.364,-0.031 h 11.906 c 0.827,0 1.578,0.483 1.921,1.236 l 6.206,13.725 c 0.478,1.065 10e-4,2.316 -1.064,2.793 -0.27,0.121 -0.562,0.184 -0.858,0.185 z"
   id="path90" />&#10;		<path
   style="fill:#263238"
   d="m 285.314,268.696 h -1.851 c -1.164,-0.003 -2.109,0.938 -2.112,2.102 0,0.122 0.01,0.244 0.031,0.364 l 2.376,13.725 c 0.172,1.011 1.049,1.75 2.075,1.748 h 1.857 c -1.026,0.002 -1.903,-0.737 -2.075,-1.748 l -2.376,-13.725 c -0.198,-1.147 0.571,-2.237 1.718,-2.435 0.118,-0.021 0.238,-0.031 0.357,-0.031 z"
   id="path91" />&#10;		<path
   style="fill:#263238"
   d="m 318.617,290.509 -14.038,-31.068 h -1.845 l 14.026,31.068 c 0.329,0.727 0.499,1.515 0.5,2.312 v 1.608 c 0,0.835 -0.677,1.511 -1.512,1.511 h 1.857 c 0.835,0 1.512,-0.677 1.512,-1.511 v -1.608 c -0.001,-0.797 -0.171,-1.585 -0.5,-2.312 z"
   id="path92" />&#10;		<polygon
   style="opacity:0.2;enable-background:new"
   points="269.931,259.416 271.218,266.839 306.078,266.839 302.722,259.416 "
   id="polygon92" />&#10;		<path
   style="fill:#263238"
   d="M 349.762,262.676 H 209.87 c -2.543,0.048 -4.643,-1.974 -4.691,-4.517 -0.004,-0.203 0.006,-0.405 0.029,-0.607 l 8.838,-101.088 c 0.288,-2.872 2.68,-5.073 5.565,-5.124 h 139.892 c 2.543,-0.048 4.643,1.974 4.691,4.517 0.004,0.203 -0.006,0.405 -0.029,0.607 l -8.844,101.094 c -0.288,2.869 -2.677,5.067 -5.559,5.118 z"
   id="path93" />&#10;		<path
   style="fill:#407bff"
   d="m 206.156,246.633 -0.954,10.926 c -0.287,2.527 1.529,4.808 4.056,5.095 0.201,0.023 0.404,0.032 0.607,0.029 h 139.899 c 2.884,-0.051 5.274,-2.253 5.559,-5.124 l 0.961,-10.926 z"
   id="path94" />&#10;		<path
   style="opacity:0.7;fill:#ffffff;enable-background:new"
   d="m 206.156,246.633 -0.954,10.926 c -0.287,2.527 1.529,4.808 4.056,5.095 0.201,0.023 0.404,0.032 0.607,0.029 h 139.899 c 2.884,-0.051 5.274,-2.253 5.559,-5.124 l 0.961,-10.926 z"
   id="path95" />&#10;		<path
   style="fill:#407bff"
   d="M 351.344,243.539 H 211.631 c -1.379,0.026 -2.518,-1.071 -2.544,-2.45 -0.002,-0.108 0.003,-0.216 0.015,-0.323 l 7.308,-83.546 c 0.159,-1.555 1.454,-2.746 3.016,-2.773 h 139.713 c 1.379,-0.026 2.518,1.071 2.545,2.45 0.002,0.108 -0.003,0.216 -0.015,0.323 l -7.308,83.546 c -0.159,1.555 -1.454,2.746 -3.017,2.773 z"
   id="path96" />&#10;		<path
   style="opacity:0.8;fill:#407bff;enable-background:new"
   d="M 351.344,243.539 H 211.631 c -1.379,0.026 -2.518,-1.071 -2.544,-2.45 -0.002,-0.108 0.003,-0.216 0.015,-0.323 l 7.308,-83.546 c 0.159,-1.555 1.454,-2.746 3.016,-2.773 h 139.713 c 1.379,-0.026 2.518,1.071 2.545,2.45 0.002,0.108 -0.003,0.216 -0.015,0.323 l -7.308,83.546 c -0.159,1.555 -1.454,2.746 -3.017,2.773 z"
   id="path97" />&#10;		<path
   style="fill:#407bff"
   d="m 362.597,151.36 h -3.093 c 2.543,-0.048 4.643,1.974 4.691,4.517 0.004,0.203 -0.006,0.405 -0.029,0.607 l -8.844,101.075 c -0.286,2.871 -2.675,5.073 -5.559,5.124 h 3.093 c 2.884,-0.051 5.274,-2.253 5.559,-5.124 l 8.844,-101.088 c 0.28,-2.528 -1.542,-4.804 -4.07,-5.083 -0.197,-0.023 -0.394,-0.032 -0.592,-0.028 z"
   id="path98" />&#10;		<path
   style="opacity:0.2;fill:#ffffff;enable-background:new"
   d="m 362.597,151.36 h -3.093 c 2.543,-0.048 4.643,1.974 4.691,4.517 0.004,0.203 -0.006,0.405 -0.029,0.607 l -8.844,101.075 c -0.286,2.871 -2.675,5.073 -5.559,5.124 h 3.093 c 2.884,-0.051 5.274,-2.253 5.559,-5.124 l 8.844,-101.088 c 0.28,-2.528 -1.542,-4.804 -4.07,-5.083 -0.197,-0.023 -0.394,-0.032 -0.592,-0.028 z"
   id="path99" />&#10;		<g
   id="g123">&#10;			<polygon
   style="fill:#407bff"
   points="310.318,242.923 317.68,158.77 253.588,158.77 246.225,242.923 "
   id="polygon99" />&#10;			<polygon
   style="opacity:0.7;fill:#ffffff"
   points="310.318,242.923 317.68,158.77 253.588,158.77 246.225,242.923 "
   id="polygon100" />&#10;			<g
   id="g122">&#10;				<g
   id="g110">&#10;					<g
   id="g100">&#10;						<path
   style="fill:#263238"
   d="m 269.356,169.62 h 32.298 c 0.418,0 0.787,-0.339 0.823,-0.757 v 0 c 0.037,-0.418 -0.273,-0.757 -0.691,-0.757 h -32.298 c -0.418,0 -0.787,0.339 -0.823,0.757 v 0 c -0.037,0.418 0.273,0.757 0.691,0.757 z"
   id="path100" />&#10;					</g>&#10;					<g
   id="g101">&#10;						<path
   style="fill:#263238"
   d="m 258.499,210.792 h 39.553 c 0.418,0 0.787,-0.339 0.823,-0.757 v 0 c 0.037,-0.418 -0.273,-0.757 -0.691,-0.757 h -39.553 c -0.418,0 -0.787,0.339 -0.823,0.757 v 0 c -0.036,0.418 0.273,0.757 0.691,0.757 z"
   id="path101" />&#10;					</g>&#10;					<g
   id="g102">&#10;						<path
   style="fill:#263238"
   d="m 258.114,215.19 h 45.167 c 0.418,0 0.787,-0.339 0.823,-0.757 v 0 c 0.037,-0.418 -0.273,-0.757 -0.691,-0.757 h -45.167 c -0.418,0 -0.787,0.339 -0.823,0.757 v 0 c -0.036,0.418 0.273,0.757 0.691,0.757 z"
   id="path102" />&#10;					</g>&#10;					<g
   id="g103">&#10;						<path
   style="fill:#263238"
   d="m 257.729,219.589 h 45.167 c 0.418,0 0.787,-0.339 0.823,-0.757 v 0 c 0.037,-0.418 -0.273,-0.757 -0.691,-0.757 h -45.167 c -0.418,0 -0.787,0.339 -0.823,0.757 v 0 c -0.036,0.418 0.273,0.757 0.691,0.757 z"
   id="path103" />&#10;					</g>&#10;					<g
   id="g104">&#10;						<path
   style="fill:#263238"
   d="m 257.344,223.987 h 45.167 c 0.418,0 0.787,-0.339 0.823,-0.757 v 0 c 0.036,-0.418 -0.273,-0.757 -0.691,-0.757 h -45.167 c -0.418,0 -0.787,0.339 -0.823,0.757 v 0 c -0.036,0.418 0.273,0.757 0.691,0.757 z"
   id="path104" />&#10;					</g>&#10;					<g
   id="g105">&#10;						<path
   style="fill:#263238"
   d="m 256.96,228.386 h 39.553 c 0.418,0 0.787,-0.339 0.823,-0.757 v 0 c 0.037,-0.418 -0.273,-0.757 -0.691,-0.757 h -39.553 c -0.418,0 -0.787,0.339 -0.823,0.757 v 0 c -0.037,0.418 0.273,0.757 0.691,0.757 z"
   id="path105" />&#10;					</g>&#10;					<g
   id="g106">&#10;						<path
   style="fill:#263238"
   d="m 256.575,232.785 h 45.167 c 0.418,0 0.787,-0.339 0.823,-0.757 v 0 c 0.037,-0.418 -0.273,-0.757 -0.691,-0.757 h -45.167 c -0.418,0 -0.787,0.339 -0.823,0.757 v 0 c -0.037,0.418 0.273,0.757 0.691,0.757 z"
   id="path106" />&#10;					</g>&#10;					<g
   id="g107">&#10;						<path
   style="fill:#263238"
   d="m 256.19,237.183 h 45.167 c 0.418,0 0.787,-0.339 0.823,-0.757 v 0 c 0.036,-0.418 -0.273,-0.757 -0.691,-0.757 h -45.167 c -0.418,0 -0.787,0.339 -0.823,0.757 v 0 c -0.036,0.418 0.273,0.757 0.691,0.757 z"
   id="path107" />&#10;					</g>&#10;					<g
   id="g108">&#10;						<path
   style="fill:#263238"
   d="m 272.701,174.646 h 24.728 c 0.418,0 0.787,-0.339 0.823,-0.757 v 0 c 0.037,-0.418 -0.273,-0.757 -0.691,-0.757 h -24.728 c -0.418,0 -0.787,0.339 -0.823,0.757 v 0 c -0.036,0.419 0.273,0.757 0.691,0.757 z"
   id="path108" />&#10;					</g>&#10;					<g
   id="g109">&#10;						<path
   style="fill:#263238"
   d="m 276.298,179.673 h 16.654 c 0.418,0 0.787,-0.339 0.823,-0.757 v 0 c 0.037,-0.418 -0.273,-0.757 -0.691,-0.757 H 276.43 c -0.418,0 -0.787,0.339 -0.823,0.757 v 0 c -0.036,0.418 0.273,0.757 0.691,0.757 z"
   id="path109" />&#10;					</g>&#10;				</g>&#10;				<g
   style="opacity:0.4"
   id="g121">&#10;					<g
   id="g111">&#10;						<path
   style="fill:#ffffff"
   d="m 269.356,169.62 h 32.298 c 0.418,0 0.787,-0.339 0.823,-0.757 v 0 c 0.037,-0.418 -0.273,-0.757 -0.691,-0.757 h -32.298 c -0.418,0 -0.787,0.339 -0.823,0.757 v 0 c -0.037,0.418 0.273,0.757 0.691,0.757 z"
   id="path110" />&#10;					</g>&#10;					<g
   id="g112">&#10;						<path
   style="fill:#ffffff"
   d="m 258.499,210.792 h 39.553 c 0.418,0 0.787,-0.339 0.823,-0.757 v 0 c 0.037,-0.418 -0.273,-0.757 -0.691,-0.757 h -39.553 c -0.418,0 -0.787,0.339 -0.823,0.757 v 0 c -0.036,0.418 0.273,0.757 0.691,0.757 z"
   id="path111" />&#10;					</g>&#10;					<g
   id="g113">&#10;						<path
   style="fill:#ffffff"
   d="m 258.114,215.19 h 45.167 c 0.418,0 0.787,-0.339 0.823,-0.757 v 0 c 0.037,-0.418 -0.273,-0.757 -0.691,-0.757 h -45.167 c -0.418,0 -0.787,0.339 -0.823,0.757 v 0 c -0.036,0.418 0.273,0.757 0.691,0.757 z"
   id="path112" />&#10;					</g>&#10;					<g
   id="g114">&#10;						<path
   style="fill:#ffffff"
   d="m 257.729,219.589 h 45.167 c 0.418,0 0.787,-0.339 0.823,-0.757 v 0 c 0.037,-0.418 -0.273,-0.757 -0.691,-0.757 h -45.167 c -0.418,0 -0.787,0.339 -0.823,0.757 v 0 c -0.036,0.418 0.273,0.757 0.691,0.757 z"
   id="path113" />&#10;					</g>&#10;					<g
   id="g115">&#10;						<path
   style="fill:#ffffff"
   d="m 257.344,223.987 h 45.167 c 0.418,0 0.787,-0.339 0.823,-0.757 v 0 c 0.036,-0.418 -0.273,-0.757 -0.691,-0.757 h -45.167 c -0.418,0 -0.787,0.339 -0.823,0.757 v 0 c -0.036,0.418 0.273,0.757 0.691,0.757 z"
   id="path114" />&#10;					</g>&#10;					<g
   id="g116">&#10;						<path
   style="fill:#ffffff"
   d="m 256.96,228.386 h 39.553 c 0.418,0 0.787,-0.339 0.823,-0.757 v 0 c 0.037,-0.418 -0.273,-0.757 -0.691,-0.757 h -39.553 c -0.418,0 -0.787,0.339 -0.823,0.757 v 0 c -0.037,0.418 0.273,0.757 0.691,0.757 z"
   id="path115" />&#10;					</g>&#10;					<g
   id="g117">&#10;						<path
   style="fill:#ffffff"
   d="m 256.575,232.785 h 45.167 c 0.418,0 0.787,-0.339 0.823,-0.757 v 0 c 0.037,-0.418 -0.273,-0.757 -0.691,-0.757 h -45.167 c -0.418,0 -0.787,0.339 -0.823,0.757 v 0 c -0.037,0.418 0.273,0.757 0.691,0.757 z"
   id="path116" />&#10;					</g>&#10;					<g
   id="g118">&#10;						<path
   style="fill:#ffffff"
   d="m 256.19,237.183 h 45.167 c 0.418,0 0.787,-0.339 0.823,-0.757 v 0 c 0.036,-0.418 -0.273,-0.757 -0.691,-0.757 h -45.167 c -0.418,0 -0.787,0.339 -0.823,0.757 v 0 c -0.036,0.418 0.273,0.757 0.691,0.757 z"
   id="path117" />&#10;					</g>&#10;					<g
   id="g119">&#10;						<path
   style="fill:#ffffff"
   d="m 272.701,174.646 h 24.728 c 0.418,0 0.787,-0.339 0.823,-0.757 v 0 c 0.037,-0.418 -0.273,-0.757 -0.691,-0.757 h -24.728 c -0.418,0 -0.787,0.339 -0.823,0.757 v 0 c -0.036,0.419 0.273,0.757 0.691,0.757 z"
   id="path118" />&#10;					</g>&#10;					<g
   id="g120">&#10;						<path
   style="fill:#ffffff"
   d="m 276.298,179.673 h 16.654 c 0.418,0 0.787,-0.339 0.823,-0.757 v 0 c 0.037,-0.418 -0.273,-0.757 -0.691,-0.757 H 276.43 c -0.418,0 -0.787,0.339 -0.823,0.757 v 0 c -0.036,0.418 0.273,0.757 0.691,0.757 z"
   id="path119" />&#10;					</g>&#10;				</g>&#10;				<polygon
   style="opacity:0.5;fill:#ffffff"
   points="305.067,203.433 306.634,185.517 259.953,185.517 258.386,203.433 "
   id="polygon121" />&#10;			</g>&#10;		</g>&#10;	</g>&#10;</g><g
   id="Graduation_Hat"
   transform="matrix(0.50400401,0,0,0.50400401,-26.409108,-62.11656)">&#10;	<g
   id="g136">&#10;		<g
   id="g131">&#10;			&#10;				<rect
   x="207.181"
   y="257.164"
   transform="rotate(180,227.649,276.46685)"
   style="fill:#263238"
   width="40.935001"
   height="38.605999"
   id="rect124" />&#10;			&#10;				<rect
   x="167.24699"
   y="257.164"
   transform="rotate(180,187.7148,276.46685)"
   style="fill:#263238"
   width="40.935001"
   height="38.605999"
   id="rect125" />&#10;			&#10;				<rect
   x="206.778"
   y="255.73399"
   transform="rotate(180,227.4472,258.4148)"
   style="fill:#263238"
   width="41.339001"
   height="5.362"
   id="rect126" />&#10;			&#10;				<rect
   x="206.778"
   y="251.802"
   transform="rotate(180,243.743,254.91895)"
   style="fill:#263238"
   width="73.931"
   height="6.2340002"
   id="rect127" />&#10;			&#10;				<rect
   x="167.24699"
   y="257.164"
   transform="rotate(180,187.7148,276.46685)"
   style="opacity:0.2"
   width="40.935001"
   height="38.605999"
   id="rect128" />&#10;			&#10;				<rect
   x="206.778"
   y="255.73399"
   transform="rotate(180,227.4472,258.4148)"
   style="opacity:0.2"
   width="41.339001"
   height="5.362"
   id="rect129" />&#10;			&#10;				<rect
   x="206.778"
   y="251.802"
   transform="rotate(180,243.743,254.91895)"
   style="opacity:0.2"
   width="73.931"
   height="6.2340002"
   id="rect130" />&#10;			&#10;				<rect
   x="134.65601"
   y="251.802"
   transform="rotate(180,171.6208,254.91895)"
   style="fill:#263238"
   width="73.931"
   height="6.2340002"
   id="rect131" />&#10;		</g>&#10;		<g
   id="g135">&#10;			<g
   id="g132">&#10;				<path
   style="fill:#407bff"
   d="m 134.655,317.603 v 0 c 0.552,0 1,-0.448 1,-1 v -60.566 c 0,-1.787 1.449,-3.236 3.236,-3.236 h 68.695 c 0.552,0 1,-0.448 1,-1 v 0 c 0,-0.552 -0.448,-1 -1,-1 h -68.695 c -2.892,0 -5.236,2.344 -5.236,5.236 v 60.566 c 0,0.553 0.448,1 1,1 z"
   id="path131" />&#10;			</g>&#10;			<path
   style="fill:#407bff"
   d="m 134.438,320.203 c 3.682,0 6.667,4.797 6.667,10.714 v 7.619 h -3.309 c -0.357,-0.011 -2.378,-0.392 -2.378,-7.688 0,0 -1.122,7.669 0.744,7.688 h -2.806 c 0,0 -1.688,-0.313 -1.688,-4.375 0,-4.062 0,-6.125 0,-6.125 0,0 -2.688,10.5 0,10.5 h -3.896 v -7.619 c -0.001,-5.917 2.984,-10.714 6.666,-10.714 z"
   id="path132" />&#10;			<g
   id="g133">&#10;				<path
   style="fill:#407bff"
   d="m 132.197,318.603 h 4.48 c 0.552,0 1,-0.448 1,-1 v 0 c 0,-0.552 -0.448,-1 -1,-1 h -4.48 c -0.552,0 -1,0.448 -1,1 v 0 c 0,0.553 0.448,1 1,1 z"
   id="path133" />&#10;			</g>&#10;			<g
   id="g134">&#10;				<path
   style="fill:#407bff"
   d="m 132.197,320.603 h 4.48 c 0.552,0 1,-0.448 1,-1 v 0 c 0,-0.552 -0.448,-1 -1,-1 h -4.48 c -0.552,0 -1,0.448 -1,1 v 0 c 0,0.553 0.448,1 1,1 z"
   id="path134" />&#10;			</g>&#10;		</g>&#10;	</g>&#10;</g><g
   id="Books"
   transform="matrix(0.50400401,0,0,0.50400401,-26.409108,-62.11656)">&#10;	<g
   id="g169">&#10;		<g
   id="g146">&#10;			<path
   style="fill:#407bff"
   d="M 344.501,374.876 H 162.277 v 38 h 182.287 c -1.642,-12.609 -1.664,-25.387 -0.063,-38 z"
   id="path136" />&#10;			<path
   style="opacity:0.7;fill:#ffffff"
   d="M 344.501,374.876 H 162.277 v 38 h 182.287 c -1.642,-12.609 -1.664,-25.387 -0.063,-38 z"
   id="path137" />&#10;			<g
   id="g138">&#10;				<path
   style="fill:#407bff"
   d="m 195.484,414.876 h -57.273 l -0.586,-0.586 c -5.517,-5.516 -8.555,-12.851 -8.555,-20.653 0,-7.801 3.038,-15.136 8.555,-20.652 l 0.586,-0.586 h 57.273 l -3.415,3.414 c -4.761,4.761 -7.383,11.091 -7.383,17.824 0,6.733 2.622,13.064 7.383,17.825 z"
   id="path138" />&#10;			</g>&#10;			<g
   style="opacity:0.3"
   id="g139">&#10;				<path
   d="m 195.484,414.876 h -57.273 l -0.586,-0.586 c -5.517,-5.516 -8.555,-12.851 -8.555,-20.653 0,-7.801 3.038,-15.136 8.555,-20.652 l 0.586,-0.586 h 57.273 l -3.415,3.414 c -4.761,4.761 -7.383,11.091 -7.383,17.824 0,6.733 2.622,13.064 7.383,17.825 z"
   id="path139" />&#10;			</g>&#10;			<g
   id="g140">&#10;				<path
   style="fill:#407bff"
   d="M 346.373,414.876 H 191.686 l -0.164,-0.164 c -5.345,-5.349 -8.696,-12.471 -8.959,-20.028 -0.284,-8.19 2.774,-15.937 8.537,-21.699 l 0.586,-0.586 h 154.687 c 1.105,0 2,0.896 2,2 v 0 c 0,1.105 -0.895,2 -2,2 H 193.361 c -4.402,4.689 -6.816,10.778 -6.816,17.238 0,6.461 2.414,12.55 6.816,17.239 h 153.012 c 1.105,0 2,0.895 2,2 v 0 c 0,1.105 -0.895,2 -2,2 z"
   id="path140" />&#10;			</g>&#10;			<g
   id="g141">&#10;				<path
   style="fill:#ffffff"
   d="m 330.2,389.043 h -8.749 c -0.829,0 -1.5,-0.672 -1.5,-1.5 v 0 c 0,-0.828 0.671,-1.5 1.5,-1.5 h 8.749 c 0.828,0 1.5,0.672 1.5,1.5 v 0 c 0,0.828 -0.671,1.5 -1.5,1.5 z"
   id="path141" />&#10;			</g>&#10;			<g
   id="g142">&#10;				<path
   style="fill:#ffffff"
   d="M 309.951,389.043 H 228.7 c -0.828,0 -1.5,-0.672 -1.5,-1.5 v 0 c 0,-0.828 0.672,-1.5 1.5,-1.5 h 81.251 c 0.828,0 1.5,0.672 1.5,1.5 v 0 c 0,0.828 -0.672,1.5 -1.5,1.5 z"
   id="path142" />&#10;			</g>&#10;			<g
   id="g143">&#10;				<path
   style="fill:#ffffff"
   d="M 217.701,389.043 H 199.7 c -0.828,0 -1.5,-0.672 -1.5,-1.5 v 0 c 0,-0.828 0.672,-1.5 1.5,-1.5 h 18.001 c 0.828,0 1.5,0.672 1.5,1.5 v 0 c 0,0.828 -0.672,1.5 -1.5,1.5 z"
   id="path143" />&#10;			</g>&#10;			<g
   id="g144">&#10;				<path
   style="fill:#ffffff"
   d="m 330.2,401.71 h -76.999 c -0.829,0 -1.5,-0.672 -1.5,-1.5 v 0 c 0,-0.828 0.671,-1.5 1.5,-1.5 H 330.2 c 0.828,0 1.5,0.672 1.5,1.5 v 0 c 0,0.828 -0.671,1.5 -1.5,1.5 z"
   id="path144" />&#10;			</g>&#10;			<g
   id="g145">&#10;				<path
   style="fill:#ffffff"
   d="M 241.95,401.71 H 199.7 c -0.828,0 -1.5,-0.672 -1.5,-1.5 v 0 c 0,-0.828 0.672,-1.5 1.5,-1.5 h 42.25 c 0.828,0 1.5,0.672 1.5,1.5 v 0 c 0,0.828 -0.671,1.5 -1.5,1.5 z"
   id="path145" />&#10;			</g>&#10;		</g>&#10;		<g
   id="g157">&#10;			<path
   style="fill:#407bff"
   d="M 339.67,298.17 H 175.669 v 34.2 h 164.058 c -1.478,-11.348 -1.498,-22.848 -0.057,-34.2 z"
   id="path146" />&#10;			<path
   style="opacity:0.8;fill:#ffffff"
   d="M 339.67,298.17 H 175.669 v 34.2 h 164.058 c -1.478,-11.348 -1.498,-22.848 -0.057,-34.2 z"
   id="path147" />&#10;			<g
   id="g148">&#10;				<path
   style="fill:#407bff"
   d="m 205.555,334.17 h -51.546 l -0.527,-0.527 c -4.965,-4.965 -7.7,-11.566 -7.7,-18.588 0,-7.021 2.734,-13.623 7.7,-18.587 l 0.527,-0.527 h 51.546 l -3.073,3.073 c -4.285,4.285 -6.645,9.982 -6.645,16.042 0,6.06 2.36,11.757 6.645,16.042 z"
   id="path148" />&#10;			</g>&#10;			<g
   style="opacity:0.2"
   id="g149">&#10;				<path
   style="fill:#ffffff"
   d="m 205.555,334.17 h -51.546 l -0.527,-0.527 c -4.965,-4.965 -7.7,-11.566 -7.7,-18.588 0,-7.021 2.734,-13.623 7.7,-18.587 l 0.527,-0.527 h 51.546 l -3.073,3.073 c -4.285,4.285 -6.645,9.982 -6.645,16.042 0,6.06 2.36,11.757 6.645,16.042 z"
   id="path149" />&#10;			</g>&#10;			<g
   id="g150">&#10;				<path
   style="fill:#407bff"
   d="M 341.355,334.17 H 202.136 l -0.147,-0.148 c -4.81,-4.814 -7.827,-11.224 -8.063,-18.025 -0.256,-7.371 2.497,-14.343 7.683,-19.529 l 0.527,-0.527 h 139.218 c 0.994,0 1.8,0.806 1.8,1.8 v 0 c 0,0.994 -0.806,1.8 -1.8,1.8 h -137.71 c -3.962,4.22 -6.134,9.7 -6.134,15.514 0,5.815 2.173,11.295 6.134,15.515 h 137.711 c 0.994,0 1.8,0.806 1.8,1.8 v 0 c 0,0.994 -0.806,1.8 -1.8,1.8 z"
   id="path150" />&#10;			</g>&#10;			<g
   style="opacity:0.4"
   id="g151">&#10;				<path
   style="fill:#ffffff"
   d="M 341.355,334.17 H 202.136 l -0.147,-0.148 c -4.81,-4.814 -7.827,-11.224 -8.063,-18.025 -0.256,-7.371 2.497,-14.343 7.683,-19.529 l 0.527,-0.527 h 139.218 c 0.994,0 1.8,0.806 1.8,1.8 v 0 c 0,0.994 -0.806,1.8 -1.8,1.8 h -137.71 c -3.962,4.22 -6.134,9.7 -6.134,15.514 0,5.815 2.173,11.295 6.134,15.515 h 137.711 c 0.994,0 1.8,0.806 1.8,1.8 v 0 c 0,0.994 -0.806,1.8 -1.8,1.8 z"
   id="path151" />&#10;			</g>&#10;			<g
   id="g152">&#10;				<path
   style="fill:#ffffff"
   d="m 326.799,310.919 h -7.875 c -0.746,0 -1.35,-0.604 -1.35,-1.35 v 0 c 0,-0.745 0.604,-1.35 1.35,-1.35 h 7.875 c 0.746,0 1.35,0.605 1.35,1.35 v 0 c 0,0.746 -0.604,1.35 -1.35,1.35 z"
   id="path152" />&#10;			</g>&#10;			<g
   id="g153">&#10;				<path
   style="fill:#ffffff"
   d="m 308.574,310.919 h -73.126 c -0.746,0 -1.35,-0.604 -1.35,-1.35 v 0 c 0,-0.745 0.604,-1.35 1.35,-1.35 h 73.126 c 0.746,0 1.35,0.605 1.35,1.35 v 0 c 0,0.746 -0.604,1.35 -1.35,1.35 z"
   id="path153" />&#10;			</g>&#10;			<g
   id="g154">&#10;				<path
   style="fill:#ffffff"
   d="m 225.549,310.919 h -16.2 c -0.746,0 -1.35,-0.604 -1.35,-1.35 v 0 c 0,-0.745 0.604,-1.35 1.35,-1.35 h 16.2 c 0.746,0 1.35,0.605 1.35,1.35 v 0 c 0.001,0.746 -0.604,1.35 -1.35,1.35 z"
   id="path154" />&#10;			</g>&#10;			<g
   id="g155">&#10;				<path
   style="fill:#ffffff"
   d="m 326.799,322.32 h -69.3 c -0.746,0 -1.35,-0.604 -1.35,-1.35 v 0 c 0,-0.745 0.604,-1.35 1.35,-1.35 h 69.3 c 0.746,0 1.35,0.605 1.35,1.35 v 0 c 0,0.745 -0.604,1.35 -1.35,1.35 z"
   id="path155" />&#10;			</g>&#10;			<g
   id="g156">&#10;				<path
   style="fill:#ffffff"
   d="m 247.374,322.32 h -38.025 c -0.746,0 -1.35,-0.604 -1.35,-1.35 v 0 c 0,-0.745 0.604,-1.35 1.35,-1.35 h 38.025 c 0.746,0 1.35,0.605 1.35,1.35 v 0 c 0,0.745 -0.604,1.35 -1.35,1.35 z"
   id="path156" />&#10;			</g>&#10;		</g>&#10;		<g
   id="g168">&#10;			<path
   style="fill:#407bff"
   d="M 345.445,336.399 H 181.444 v 34.2 h 164.058 c -1.478,-11.348 -1.498,-22.848 -0.057,-34.2 z"
   id="path157" />&#10;			<path
   style="opacity:0.7;fill:#ffffff"
   d="M 345.445,336.399 H 181.444 v 34.2 h 164.058 c -1.478,-11.348 -1.498,-22.848 -0.057,-34.2 z"
   id="path158" />&#10;			<g
   id="g159">&#10;				<path
   style="fill:#407bff"
   d="m 211.33,372.399 h -51.546 l -0.527,-0.527 c -4.965,-4.965 -7.7,-11.566 -7.7,-18.588 0,-7.021 2.734,-13.623 7.7,-18.587 l 0.527,-0.527 h 51.546 l -3.073,3.073 c -4.285,4.285 -6.645,9.982 -6.645,16.042 0,6.06 2.36,11.757 6.645,16.042 z"
   id="path159" />&#10;			</g>&#10;			<g
   id="g160">&#10;				<path
   style="fill:#407bff"
   d="M 347.13,372.399 H 207.911 l -0.147,-0.147 c -4.81,-4.814 -7.827,-11.224 -8.063,-18.026 -0.256,-7.371 2.496,-14.343 7.683,-19.529 l 0.527,-0.527 H 347.13 c 0.994,0 1.8,0.806 1.8,1.8 v 0 c 0,0.994 -0.806,1.8 -1.8,1.8 H 209.419 c -3.962,4.22 -6.134,9.7 -6.134,15.514 0,5.815 2.173,11.295 6.134,15.515 H 347.13 c 0.994,0 1.8,0.806 1.8,1.8 v 0 c 0,0.994 -0.806,1.8 -1.8,1.8 z"
   id="path160" />&#10;			</g>&#10;			<g
   style="opacity:0.3"
   id="g161">&#10;				<path
   style="fill:#ffffff"
   d="M 347.13,372.399 H 207.911 l -0.147,-0.147 c -4.81,-4.814 -7.827,-11.224 -8.063,-18.026 -0.256,-7.371 2.496,-14.343 7.683,-19.529 l 0.527,-0.527 H 347.13 c 0.994,0 1.8,0.806 1.8,1.8 v 0 c 0,0.994 -0.806,1.8 -1.8,1.8 H 209.419 c -3.962,4.22 -6.134,9.7 -6.134,15.514 0,5.815 2.173,11.295 6.134,15.515 H 347.13 c 0.994,0 1.8,0.806 1.8,1.8 v 0 c 0,0.994 -0.806,1.8 -1.8,1.8 z"
   id="path161" />&#10;			</g>&#10;			<g
   id="g167">&#10;				<g
   id="g162">&#10;					<path
   style="fill:#ffffff"
   d="m 215.124,357.849 h 7.875 c 0.746,0 1.35,0.604 1.35,1.35 v 0 c 0,0.746 -0.604,1.35 -1.35,1.35 h -7.875 c -0.746,0 -1.35,-0.604 -1.35,-1.35 v 0 c 0,-0.746 0.605,-1.35 1.35,-1.35 z"
   id="path162" />&#10;				</g>&#10;				<g
   id="g163">&#10;					<path
   style="fill:#ffffff"
   d="m 233.349,357.849 h 73.126 c 0.746,0 1.35,0.604 1.35,1.35 v 0 c 0,0.746 -0.604,1.35 -1.35,1.35 h -73.126 c -0.746,0 -1.35,-0.604 -1.35,-1.35 v 0 c 0,-0.746 0.604,-1.35 1.35,-1.35 z"
   id="path163" />&#10;				</g>&#10;				<g
   id="g164">&#10;					<path
   style="fill:#ffffff"
   d="m 316.374,357.849 h 16.2 c 0.746,0 1.35,0.604 1.35,1.35 v 0 c 0,0.746 -0.604,1.35 -1.35,1.35 h -16.2 c -0.746,0 -1.35,-0.604 -1.35,-1.35 v 0 c 0,-0.746 0.604,-1.35 1.35,-1.35 z"
   id="path164" />&#10;				</g>&#10;				<g
   id="g165">&#10;					<path
   style="fill:#ffffff"
   d="m 215.124,346.449 h 69.3 c 0.746,0 1.35,0.604 1.35,1.35 v 0 c 0,0.746 -0.604,1.35 -1.35,1.35 h -69.3 c -0.746,0 -1.35,-0.604 -1.35,-1.35 v 0 c 0,-0.746 0.605,-1.35 1.35,-1.35 z"
   id="path165" />&#10;				</g>&#10;				<g
   id="g166">&#10;					<path
   style="fill:#ffffff"
   d="m 294.549,346.449 h 38.025 c 0.746,0 1.35,0.604 1.35,1.35 v 0 c 0,0.746 -0.604,1.35 -1.35,1.35 h -38.025 c -0.745,0 -1.35,-0.604 -1.35,-1.35 v 0 c 0,-0.746 0.605,-1.35 1.35,-1.35 z"
   id="path166" />&#10;				</g>&#10;			</g>&#10;		</g>&#10;	</g>&#10;</g><g
   id="Character"
   transform="matrix(0.50400401,0,0,0.50400401,-26.409108,-62.11656)">&#10;	<g
   id="g224">&#10;		<path
   style="fill:#263238"
   d="m 317.41,285.039 c 0.125,-4.234 5.397,-5.753 5.397,-5.753 0,0 -0.143,-0.409 -0.321,-0.989 0,0 0.486,0.601 3.174,-0.649 2.688,-1.25 3.625,-1.719 3.625,-1.719 0,0 -2.445,0.434 -5.003,1.566 -1.233,0.545 -1.979,-0.176 -2.215,-0.707 -0.206,-0.464 -0.53,-3.078 0.74,-1.89 2.272,2.125 15.446,-5.875 19.894,-0.75 4.343,5.004 -3.541,6.465 -3.541,6.465 -7.875,2.215 -12.625,8.41 -14.721,11.785 -0.856,1.378 -1.759,0.34 -1.93,-0.112 -0.543,-1.438 -0.211,-2.138 2.72,-5.513 0,0 -1.711,0.815 -3.366,4.098 -0.457,-1.004 -0.92,-1.736 -1.578,-0.723 -0.75,1.153 -1.566,1.11 -1.964,0.192 -0.084,-0.193 -0.374,-1.768 2.214,-4.88 0,0 -1.961,0.461 -2.847,3.111 -0.211,-0.997 -0.317,-2.223 -0.278,-3.532 z"
   id="path169" />&#10;		<g
   id="g172">&#10;			<path
   style="fill:#407bff"
   d="m 341.267,279.986 c 0,0 1.138,-4.672 -5.862,-2.345 -7.034,2.339 -2.775,5.103 -2.775,5.103 z"
   id="path170" />&#10;			<path
   style="opacity:0.2"
   d="m 341.267,279.986 c 0,0 1.138,-4.672 -5.862,-2.345 -7.034,2.339 -2.775,5.103 -2.775,5.103 z"
   id="path171" />&#10;			<path
   style="fill:#407bff"
   d="m 343.25,281.937 c 0,0 1.375,-5.646 -7.083,-2.833 -8.5,2.826 -3.353,6.167 -3.353,6.167 z"
   id="path172" />&#10;		</g>&#10;		<g
   id="g174">&#10;			<path
   style="fill:#263238"
   d="m 340.185,317.666 c 0,0 2.431,-5.875 -9.481,-8.125 -11.912,-2.25 -14.191,0.44 -10.702,4.797 l 4.818,3.328 9.785,3.234 4.188,-1.808 z"
   id="path173" />&#10;			<path
   style="opacity:0.2"
   d="m 340.185,317.666 c 0,0 2.431,-5.875 -9.481,-8.125 -11.912,-2.25 -14.191,0.44 -10.702,4.797 l 4.818,3.328 9.785,3.234 4.188,-1.808 z"
   id="path174" />&#10;		</g>&#10;		<path
   style="fill:#407bff"
   d="m 297.929,357.54 c -18.34,42.3 4.94,58.81 33.95,57.82 29.01,-0.99 81.44,-17.14 74.18,-37.41 -5.83,-16.3 -53.36,-9.05 -68.19,-5.6 l -7.47,-11.83 z"
   id="path175" />&#10;		<path
   style="opacity:0.2;enable-background:new"
   d="m 297.929,357.54 c -18.34,42.3 4.94,58.81 33.95,57.82 29.01,-0.99 81.44,-17.14 74.18,-37.41 -5.83,-16.3 -53.36,-9.05 -68.19,-5.6 l -7.47,-11.83 z"
   id="path176" />&#10;		<polygon
   style="fill:#eec1bb"
   points="365.659,396.68 368.569,405.17 355.009,408.06 349.459,409.24 347.989,402.97 353.719,400.93 "
   id="polygon176" />&#10;		<polygon
   style="opacity:0.2;enable-background:new"
   points="355.009,408.06 353.719,400.93 365.659,396.68 368.569,405.17 "
   id="polygon177" />&#10;		<polygon
   style="fill:#407bff"
   points="358.259,397.57 360.559,409.38 357.129,409.13 354.369,399.72 "
   id="polygon178" />&#10;		<polygon
   style="opacity:0.3;fill:#ffffff"
   points="358.259,397.57 360.559,409.38 357.129,409.13 354.369,399.72 "
   id="polygon179" />&#10;		<path
   style="opacity:0.1;enable-background:new"
   d="m 337.879,372.35 c 0,0 62.32,-9.05 59.22,2.53 -2.37,8.84 -28.12,19.47 -28.12,19.47 -24,-11.73 -43.77,-11.29 -43.77,-11.29 z"
   id="path179" />&#10;		<path
   style="fill:#263238"
   d="m 299.589,346.19 c 1.64,-10.05 4.41,-24.05 7.89,-30.05 0.531,-1.061 1.327,-1.966 2.31,-2.63 0,0 1.4,-0.12 3.82,-0.12 h 0.18 c 8.448,0.084 16.83,1.495 24.84,4.18 2.781,0.933 5.5,2.042 8.14,3.32 0,0 -3.45,20.89 -7.36,25 -3.91,4.11 -9,14.65 -9,14.65 l -32.47,-3 c 0,0 0.58,-4.85 1.65,-11.35 z"
   id="path180" />&#10;		<path
   style="fill:#eec1bb"
   d="m 336.039,311.3 c 0.554,-1.307 1.199,-2.573 1.93,-3.79 l -8.66,-5.46 c 0.056,0.796 0.056,1.594 0,2.39 -0.19,3 -1.24,8.16 -5.87,10 0,0 2.01,7.67 8.38,8.32 0.343,0.033 0.688,0.022 1.029,-0.031 2.242,-0.353 3.774,-2.456 3.422,-4.699 0,0 -1.15,-0.51 -1.21,-2.51 0.037,-1.458 0.371,-2.894 0.979,-4.22 z"
   id="path181" />&#10;		<path
   style="opacity:0.2;enable-background:new"
   d="m 328.229,302.33 c 0.138,0.783 0.218,1.575 0.24,2.37 l 0.05,0.06 c 0,0 1.93,10.76 6.8,10.38 -0.112,-1.455 0.071,-2.918 0.54,-4.3 0.421,-1.367 0.936,-2.703 1.54,-4 z"
   id="path182" />&#10;		<path
   style="fill:#eec1bb"
   d="m 335.189,314.34 c 9.723,3.93 14.48,-1.46 17,-12.46 2.02,-8.82 0.69,-14.13 -7.69,-16.68 -13.91,-4.24 -22.6,21.67 -9.31,29.14 z"
   id="path183" />&#10;		<path
   style="fill:#d58745"
   d="m 345.524,306.843 c 0.815,0.387 1.777,0.283 2.49,-0.27 -0.623,-1.347 -1.083,-2.764 -1.37,-4.22 z"
   id="path184" />&#10;		<path
   style="fill:#263238"
   d="m 341.829,299.27 c 0.174,-0.608 0.589,-1.002 0.996,-1.003 -0.005,-0.007 -0.011,-0.009 -0.016,-0.017 l 1.67,-0.17 c 0,0 -0.57,0.54 -1.102,0.516 0.181,0.288 0.247,0.71 0.122,1.164 -0.2,0.69 -0.73,1.15 -1.19,1 -0.46,-0.15 -0.68,-0.79 -0.48,-1.49 z"
   id="path185" />&#10;		<path
   style="fill:#263238"
   d="m 349.479,301.54 c 0.169,-0.615 0.616,-1.044 1.037,-1.025 l 1.623,-0.165 c 0,0 -0.573,0.534 -1.104,0.512 0.181,0.286 0.245,0.707 0.113,1.168 -0.19,0.69 -0.72,1.15 -1.18,1 -0.459,-0.15 -0.679,-0.8 -0.489,-1.49 z"
   id="path186" />&#10;		<path
   style="fill:#263238"
   d="m 341.43,294.841 v 0 c -0.013,-0.199 0.138,-0.37 0.336,-0.383 1.539,0.027 2.976,0.775 3.88,2.02 0.117,0.163 0.079,0.389 -0.084,0.506 -0.163,0.117 -0.389,0.079 -0.506,-0.084 -0.764,-1.037 -1.957,-1.67 -3.244,-1.722 -0.071,0.004 -0.142,-0.012 -0.203,-0.048 -0.106,-0.057 -0.175,-0.167 -0.179,-0.289 z"
   id="path187" />&#10;		<path
   style="fill:#263238"
   d="m 353.014,298.687 c -0.929,-0.656 -2.111,-0.842 -3.197,-0.502 v 0 c -0.186,0.069 -0.394,-0.018 -0.477,-0.198 v -0.001 c -0.078,-0.183 0.006,-0.394 0.189,-0.473 1.3,-0.421 2.723,-0.218 3.853,0.549 0.007,0.004 0.015,0.008 0.022,0.013 0.163,0.104 0.211,0.32 0.107,0.483 -0.04,0.074 -0.108,0.13 -0.189,0.154 -0.102,0.038 -0.214,0.028 -0.308,-0.025 z"
   id="path188" />&#10;		<path
   style="fill:#263238"
   d="m 329.139,306.44 c -5.52,-8.55 0.84,-29.64 15.14,-24.91 14.3,4.73 8.11,19.19 8.11,19.19 2.495,-9.877 -1.625,-11.362 -6.442,-12.639 -3.293,-0.873 -6.799,0.571 -8.434,3.56 -2.113,3.863 -6.474,4.879 -6.474,4.879 -3.73,3.57 -1.86,9.92 -1.9,9.92 z"
   id="path189" />&#10;		<path
   style="fill:#2e353a"
   d="m 343.23,309.03 c -1.388,0.01 -2.573,-0.999 -2.785,-2.37 -0.011,-0.119 0.074,-0.225 0.193,-0.241 0.118,-0.014 0.225,0.069 0.241,0.186 0.168,1.167 1.186,2.022 2.364,1.985 0.094,0.016 0.167,0.089 0.183,0.183 0.02,0.121 -0.062,0.236 -0.183,0.256 h -0.013 z"
   id="path190" />&#10;		<path
   style="fill:#eec1bb"
   d="m 342.479,335.18 c 0,0 2.85,19.09 4.76,22.76 1.91,3.67 13.91,16 13.91,16 l 3.2,-1.66 c 0,0 -11.28,-14.1 -12.08,-16.74 -0.8,-2.64 -3.26,-24.79 -3.26,-24.79 z"
   id="path191" />&#10;		<path
   style="fill:#263238"
   d="m 340.542,333.603 1.467,-8.313 4.74,-4.39 c 3.543,1.879 4.192,12.844 4.34,17.3 0.128,3.872 0.221,12.754 1.745,16.653 1.718,4.396 10.958,15.375 10.958,15.375 l -4.375,3.125 c 0,0 -10.973,-9.25 -14.111,-16.375 -3.139,-7.125 -4.764,-23.375 -4.764,-23.375 z"
   id="path192" />&#10;		<g
   id="g195">&#10;			<path
   style="fill:#407bff"
   d="m 348.757,410.664 c 0.047,-0.063 0.125,-0.094 0.202,-0.08 0.079,0.004 0.148,0.056 0.174,0.131 0.025,0.09 1.051,3.148 0.426,4.374 -0.128,0.219 -0.331,0.382 -0.572,0.461 -0.272,0.121 -0.591,0.063 -0.803,-0.148 -0.337,-0.758 -0.384,-1.612 -0.132,-2.402 0.167,-0.798 0.403,-1.579 0.705,-2.336 z m 0.577,3.858 c 0.051,-1.088 -0.103,-2.176 -0.452,-3.208 -0.473,1.41 -0.853,3.36 -0.425,3.823 0.05,0.069 0.159,0.148 0.408,0.049 0.152,-0.048 0.274,-0.161 0.332,-0.31 0.053,-0.111 0.092,-0.227 0.118,-0.347 z"
   id="path193" />&#10;			<path
   style="fill:#407bff"
   d="m 348.793,410.616 c 0.043,-0.055 0.113,-0.083 0.182,-0.072 0.09,0.031 2.14,0.661 2.75,1.807 0.178,0.328 0.215,0.714 0.103,1.07 -0.149,0.492 -0.436,0.607 -0.657,0.583 -0.868,-0.033 -2.169,-2.215 -2.396,-3.236 l -0.027,-0.067 c 0.008,-0.032 0.024,-0.061 0.045,-0.085 z m 2.707,2.591 c 0.051,-0.232 0.014,-0.474 -0.104,-0.681 -0.553,-0.713 -1.312,-1.238 -2.174,-1.502 0.366,1.032 1.449,2.557 1.982,2.612 0.056,0 0.19,0.002 0.283,-0.323 z"
   id="path194" />&#10;			<path
   style="fill:#263238"
   d="m 348.963,411.771 c -2.721,1.958 -4.679,2.203 -6.729,8.227 -0.454,1.291 -3.935,0.019 -3.251,-3.152 1.136,-5.25 1.442,-4.005 2.35,-8.486 0.81,-3.776 1.189,-6.515 1.748,-9.58 l 0.114,-0.245 c 0.001,-0.003 0.002,-0.005 0.004,-0.008 0.255,-0.585 0.937,-0.853 1.522,-0.598 l 6.587,2.937 c 0.296,0.135 0.46,0.456 0.397,0.775 l -1.707,8.453 c -0.129,0.666 -0.497,1.263 -1.035,1.677 z"
   id="path195" />&#10;		</g>&#10;		<polygon
   style="fill:#eec1bb"
   points="373.949,410.26 375.509,401.41 388.769,405.45 394.209,407.1 392.449,413.3 386.449,412.31 "
   id="polygon195" />&#10;		<polygon
   style="opacity:0.2;enable-background:new"
   points="388.769,405.45 386.449,412.31 373.949,410.26 375.509,401.41 "
   id="polygon196" />&#10;		<path
   style="fill:#407bff"
   d="m 384.639,412.06 c -28.05,-2.42 -60.12,-12.77 -60.12,-12.77 0,0 -5.16,-5.06 -6.48,-1.43 -1.32,3.63 7.81,16.52 7.81,16.52 0,0 -13.4,-2.4 -20.66,-12.07 -7.26,-9.67 -4.69,-25.19 12.87,-26 17.56,-0.81 68.56,27.84 68.56,27.84 z"
   id="path196" />&#10;		<polygon
   style="fill:#407bff"
   points="380.849,412.81 384.559,401.43 387.439,403.37 385.299,412.81 "
   id="polygon197" />&#10;		<polygon
   style="opacity:0.3;fill:#ffffff"
   points="380.849,412.81 384.559,401.43 387.439,403.37 385.299,412.81 "
   id="polygon198" />&#10;		<g
   id="g200">&#10;			<path
   style="fill:#407bff"
   d="m 395.473,405.385 c -0.056,0.054 -0.138,0.073 -0.212,0.047 -0.077,-0.017 -0.137,-0.079 -0.151,-0.157 -0.01,-0.093 -0.537,-3.275 0.273,-4.386 0.161,-0.195 0.388,-0.325 0.638,-0.364 0.288,-0.076 0.594,0.032 0.769,0.273 0.212,0.801 0.123,1.653 -0.251,2.393 -0.291,0.761 -0.648,1.495 -1.066,2.194 z m 0.043,-3.901 c -0.223,1.066 -0.244,2.165 -0.063,3.239 0.691,-1.317 1.376,-3.182 1.027,-3.707 -0.038,-0.076 -0.133,-0.171 -0.395,-0.113 -0.158,0.023 -0.296,0.116 -0.377,0.253 -0.07,0.101 -0.127,0.209 -0.171,0.324 z"
   id="path198" />&#10;			<path
   style="fill:#407bff"
   d="m 395.429,405.426 c -0.052,0.047 -0.125,0.064 -0.191,0.043 -0.084,-0.045 -2.008,-0.992 -2.428,-2.22 -0.124,-0.352 -0.099,-0.739 0.068,-1.073 0.225,-0.462 0.527,-0.53 0.741,-0.471 0.852,0.17 1.789,2.532 1.852,3.575 l 0.016,0.071 c -0.013,0.029 -0.033,0.055 -0.058,0.075 z m -2.26,-2.987 c -0.087,0.221 -0.089,0.466 -0.006,0.689 0.432,0.792 1.099,1.43 1.908,1.828 -0.197,-1.077 -1.025,-2.754 -1.542,-2.893 -0.055,-0.009 -0.187,-0.033 -0.33,0.274 z"
   id="path199" />&#10;			<path
   style="fill:#263238"
   d="m 395.445,404.26 c 2.997,-1.501 4.969,-1.432 7.95,-7.054 0.653,-1.203 3.889,0.606 2.71,3.628 -1.955,5.003 -2.059,3.725 -3.667,8.006 -1.4,3.6 -2.208,6.243 -3.247,9.181 l -0.151,0.224 c -0.002,0.003 -0.003,0.005 -0.005,0.008 -0.345,0.537 -1.06,0.693 -1.598,0.348 l -6.037,-3.946 c -0.271,-0.181 -0.382,-0.523 -0.269,-0.829 l 3.028,-8.075 c 0.232,-0.638 0.689,-1.168 1.286,-1.491 z"
   id="path200" />&#10;		</g>&#10;		<path
   style="opacity:0.2"
   d="m 308.012,358.471 c -0.671,-1.051 -1.427,-2.413 -2.262,-4.201 -2.178,-4.667 -2.871,-15.982 -3.085,-23.863 0.826,-3.493 1.742,-6.802 2.739,-9.575 l 5.679,-2.561 2.667,4.509 1.648,3.511 c 0,0 1.729,21.13 6.04,26.055 2.789,3.186 5.58,6.256 7.208,8.032 z"
   id="path201" />&#10;		<path
   style="fill:#eec1bb"
   d="m 337.149,373.11 c 0,0 -18.89,-17.7 -20.69,-22.49 -1.8,-4.79 -2.86,-26.16 -2.86,-26.16 l -8.6,4.13 c 0,0 5.11,25.96 6.7,28.51 2.15,3.46 21.69,17.93 21.69,17.93 z"
   id="path202" />&#10;		<path
   style="fill:#263238"
   d="m 309.779,313.52 c 6.68,-1.64 5.467,14.466 5.68,19.65 0.167,4.056 0.987,13.227 2.875,17.267 2.747,5.88 16.561,19.855 16.561,19.855 l -3.503,3.915 c 0,0 -18.254,-12.805 -21.226,-17.353 -2.367,-3.626 -13.537,-40.104 -0.387,-43.334 z"
   id="path203" />&#10;		<path
   style="opacity:0.2"
   d="m 344.777,330.892 c 0.033,4.171 -0.041,14.313 -1.39,20.046 -0.725,-2.966 -1.312,-6.219 -1.762,-9.101 1.203,-3.07 2.29,-7.177 3.152,-10.945 z"
   id="path204" />&#10;		<path
   style="fill:#263238"
   d="m 331.873,295.295 c 0,0 3.586,1.473 0.856,5.493 0,10e-4 0.935,-3.006 -0.856,-5.493 z"
   id="path205" />&#10;		<path
   style="fill:#263238"
   d="m 331.656,327.602 c 0,0 11.775,-9.884 7.654,-11.573 -4.121,-1.689 -9.665,7.321 -7.654,11.573 z"
   id="path206" />&#10;		<path
   style="opacity:0.2"
   d="m 320.167,317.437 c -1.326,-1.746 -2.298,-3.023 -2.996,-3.938 1.902,0.099 3.799,0.268 5.687,0.501 l 3.559,4.271 2.833,4.509 1.454,1.681 v 2.222 c 0,-10e-4 -7.12,-4.746 -10.537,-9.246 z"
   id="path207" />&#10;		<path
   style="fill:#263238"
   d="m 331.671,328.205 c 0,0 0.05,-15.925 -10.33,-18.058 -10.38,-2.133 10.707,16.636 10.33,18.058 z"
   id="path208" />&#10;		<path
   style="fill:#263238"
   d="m 353.02,293.349 v -0.17 c 1.504,-0.086 4.74,0.091 4.419,3.277 -0.417,4.133 -3.667,9.466 -1.583,11.8 0,0 -3.216,-1.277 -1,-10.333 0.831,-3.396 -0.807,-4.321 -1.836,-4.574 z"
   id="path209" />&#10;		<path
   style="fill:#eec1bb"
   d="m 329.459,301.84 c -6.07,-3.25 -3.2,-8.2 -0.52,-7.69 0.002,0 0.004,0.001 0.005,0.001 2.067,0.451 3.376,2.492 2.925,4.559 -0.74,2.85 -1.54,3.6 -2.41,3.13 z"
   id="path210" />&#10;		<g
   id="g214">&#10;			<path
   style="fill:#263238"
   d="m 339.183,299.823 -8.752,-4.98 0.283,-0.846 8.814,5.016 5.626,2.047 2.931,1.016 4.831,1.578 -0.296,1.447 c -0.216,1.059 -1.05,1.689 -1.863,1.407 l -1.87,-0.648 c -0.813,-0.282 -1.296,-1.368 -1.08,-2.427 l 0.095,-0.465 -2.931,-1.016 -0.095,0.465 c -0.216,1.059 -1.05,1.689 -1.863,1.407 l -2.87,-0.995 c -0.813,-0.282 -1.296,-1.368 -1.08,-2.427 z"
   id="path211" />&#10;			<g
   style="opacity:0.4"
   id="g213">&#10;				<path
   d="m 344.504,303.268 c -0.371,0.507 -0.933,0.748 -1.489,0.555 l -2.87,-0.995 c -0.482,-0.167 -0.844,-0.621 -1.017,-1.181 2.241,0.014 4.201,0.655 5.376,1.621 z"
   id="path212" />&#10;				<path
   d="m 352.261,305.934 c -0.371,0.519 -0.939,0.768 -1.502,0.573 l -1.87,-0.648 c -0.54,-0.187 -0.929,-0.733 -1.069,-1.387 1.817,0.133 3.399,0.678 4.441,1.462 z"
   id="path213" />&#10;			</g>&#10;		</g>&#10;		<path
   style="fill:#eec1bb"
   d="m 364.628,371.382 7.011,-0.826 c 0.356,-0.042 0.71,0.093 0.947,0.361 l 3.615,4.08 c 0.458,0.517 0.329,1.323 -0.268,1.671 l -1.049,0.612 c -0.262,0.153 -0.574,0.19 -0.865,0.103 l -6.211,-1.854 c -0.043,-0.013 -0.086,-0.023 -0.13,-0.03 l -6.104,-1.036 c -0.673,-0.114 -1.078,-0.81 -0.846,-1.451 v 0 c 0.117,-0.324 0.38,-0.574 0.709,-0.674 l 2.999,-0.916 c 0.063,-0.019 0.127,-0.033 0.192,-0.04 z"
   id="path214" />&#10;		<path
   style="fill:#eec1bb"
   d="m 336.601,372.422 7.011,-0.826 c 0.356,-0.042 0.71,0.093 0.947,0.361 l 3.614,4.08 c 0.458,0.517 0.329,1.323 -0.268,1.671 l -1.049,0.612 c -0.262,0.153 -0.575,0.19 -0.865,0.103 l -6.211,-1.854 c -0.043,-0.013 -0.086,-0.023 -0.13,-0.03 l -6.104,-1.036 c -0.673,-0.114 -1.078,-0.809 -0.846,-1.451 v 0 c 0.117,-0.324 0.38,-0.574 0.709,-0.674 l 2.999,-0.916 c 0.064,-0.018 0.128,-0.032 0.193,-0.04 z"
   id="path215" />&#10;		<g
   id="g223">&#10;			&#10;				<rect
   x="355.104"
   y="376.995"
   transform="rotate(180,363.7299,378.37905)"
   style="fill:#263238"
   width="17.250999"
   height="2.7690001"
   id="rect215" />&#10;			<path
   style="fill:#263238"
   d="m 334.651,379.764 h 21.883 v -2.769 H 333.29 v 1.407 c 0,0.752 0.609,1.362 1.361,1.362 z"
   id="path216" />&#10;			<path
   style="opacity:0.3;fill:#ffffff"
   d="m 334.651,379.764 h 21.883 v -2.769 H 333.29 v 1.407 c 0,0.752 0.609,1.362 1.361,1.362 z"
   id="path217" />&#10;			&#10;				<rect
   x="350.27802"
   y="377.888"
   transform="rotate(180,351.66305,378.3791)"
   style="fill:#263238"
   width="2.7709999"
   height="0.98299998"
   id="rect217" />&#10;			&#10;				<rect
   x="345.961"
   y="377.888"
   transform="rotate(180,347.34625,378.3791)"
   style="fill:#263238"
   width="2.7709999"
   height="0.98299998"
   id="rect218" />&#10;			<polygon
   style="fill:#263238"
   points="357.984,376.995 365.19,351.963 367.031,351.963 359.826,376.995 "
   id="polygon218" />&#10;			<polygon
   style="opacity:0.3;fill:#ffffff"
   points="357.984,376.995 365.19,351.963 367.031,351.963 359.826,376.995 "
   id="polygon219" />&#10;			<polygon
   style="fill:#263238"
   points="391.518,376.995 398.724,351.963 366.352,351.963 359.147,376.995 "
   id="polygon220" />&#10;			<polygon
   style="opacity:0.6;fill:#ffffff"
   points="391.518,376.995 398.724,351.963 366.352,351.963 359.147,376.995 "
   id="polygon221" />&#10;			<path
   style="fill:#263238"
   d="m 357.562,376.995 c 0.354,0 33.343,0 33.697,0 0.568,0 1.028,0.62 1.028,1.385 0,0.765 -0.46,1.385 -1.028,1.385 -0.567,0 -33.13,0 -33.697,0 -0.568,0 -1.028,-0.62 -1.028,-1.385 0,-0.766 0.461,-1.385 1.028,-1.385 z"
   id="path221" />&#10;			<path
   style="opacity:0.5;fill:#ffffff"
   d="m 357.562,376.995 c 0.354,0 33.343,0 33.697,0 0.568,0 1.028,0.62 1.028,1.385 0,0.765 -0.46,1.385 -1.028,1.385 -0.567,0 -33.13,0 -33.697,0 -0.568,0 -1.028,-0.62 -1.028,-1.385 0,-0.766 0.461,-1.385 1.028,-1.385 z"
   id="path222" />&#10;			<ellipse
   style="fill:#263238"
   cx="357.56201"
   cy="378.379"
   rx="1.028"
   ry="1.385"
   id="ellipse222" />&#10;			<ellipse
   style="opacity:0.3;fill:#ffffff"
   cx="357.56201"
   cy="378.379"
   rx="1.028"
   ry="1.385"
   id="ellipse223" />&#10;		</g>&#10;		<polygon
   style="opacity:0.6;fill:#ffffff"
   points="382.402,366.187 383.385,362.771 378.968,362.771 377.985,366.187 "
   id="polygon223" />&#10;	</g>&#10;</g></svg>
