<?xml version="1.0" encoding="UTF-8" standalone="no"?>
<!-- Generator: Adobe Illustrator 27.5.0, SVG Export Plug-In . SVG Version: 6.00 Build 0)  -->

<svg
   version="1.1"
   x="0px"
   y="0px"
   viewBox="0 0 199 155"
   xml:space="preserve"
   id="svg247"
   sodipodi:docname="panel.svg"
   inkscape:version="1.3 (0e150ed6c4, 2023-07-21)"
   width="199"
   height="155"
   xmlns:inkscape="http://www.inkscape.org/namespaces/inkscape"
   xmlns:sodipodi="http://sodipodi.sourceforge.net/DTD/sodipodi-0.dtd"
   xmlns="http://www.w3.org/2000/svg"
   xmlns:svg="http://www.w3.org/2000/svg"><defs
   id="defs247" /><sodipodi:namedview
   id="namedview247"
   pagecolor="#ffffff"
   bordercolor="#000000"
   borderopacity="0.25"
   inkscape:showpageshadow="2"
   inkscape:pageopacity="0.0"
   inkscape:pagecheckerboard="true"
   inkscape:deskcolor="#d1d1d1"
   inkscape:zoom="2.3221387"
   inkscape:cx="235.3434"
   inkscape:cy="97.970032"
   inkscape:window-width="2560"
   inkscape:window-height="1017"
   inkscape:window-x="1912"
   inkscape:window-y="-8"
   inkscape:window-maximized="1"
   inkscape:current-layer="svg247" />&#10;&#10;<g
   id="Background_Simple"
   style="display:none">&#10;	<g
   style="display:inline"
   id="g41">&#10;		<path
   style="fill:#407bff"
   d="m 241.936,74.075 c 7.832,-1.91 16.622,-1.622 26.341,1.643 15.617,5.247 27.043,19.004 34.173,33.856 13.796,28.739 17.651,60.899 27.547,90.911 2.714,8.23 5.923,16.453 11.228,23.305 22.071,28.507 82.754,12.137 82.176,62.137 -0.163,14.13 -7.771,27.655 -18.876,36.394 -32.69,25.724 -78.654,11.019 -113.588,-0.656 -32.732,-10.939 -61.068,-12.275 -93.872,0.819 -27.802,11.097 -56.895,29.991 -88.174,24.881 -31.807,-5.197 -46.032,-36.584 -40.707,-66.182 5.677,-31.551 30.416,-54.82 58.857,-67.405 16.966,-7.508 39.284,-12.096 52.582,-25.755 6.83,-7.015 9.803,-16.855 11.975,-26.402 3.458,-15.205 5.5,-30.795 10.651,-45.513 6.453,-18.439 19.682,-37.153 39.687,-42.033 z"
   id="path40" />&#10;		<path
   style="opacity:0.9;fill:#ffffff"
   d="m 241.936,74.075 c 7.832,-1.91 16.622,-1.622 26.341,1.643 15.617,5.247 27.043,19.004 34.173,33.856 13.796,28.739 17.651,60.899 27.547,90.911 2.714,8.23 5.923,16.453 11.228,23.305 22.071,28.507 82.754,12.137 82.176,62.137 -0.163,14.13 -7.771,27.655 -18.876,36.394 -32.69,25.724 -78.654,11.019 -113.588,-0.656 -32.732,-10.939 -61.068,-12.275 -93.872,0.819 -27.802,11.097 -56.895,29.991 -88.174,24.881 -31.807,-5.197 -46.032,-36.584 -40.707,-66.182 5.677,-31.551 30.416,-54.82 58.857,-67.405 16.966,-7.508 39.284,-12.096 52.582,-25.755 6.83,-7.015 9.803,-16.855 11.975,-26.402 3.458,-15.205 5.5,-30.795 10.651,-45.513 6.453,-18.439 19.682,-37.153 39.687,-42.033 z"
   id="path41" />&#10;	</g>&#10;</g>&#10;&#10;&#10;&#10;&#10;&#10;<g
   id="Background_Complete"
   transform="matrix(0.42151677,0,0,0.42151677,-4.4684099,-25.916177)">&#10;	<g
   id="g8">&#10;		<rect
   y="382.39801"
   style="fill:#ebebeb"
   width="500"
   height="0.25"
   id="rect1"
   x="0" />&#10;		<rect
   x="52.459"
   y="391.922"
   style="fill:#ebebeb"
   width="33.122002"
   height="0.25"
   id="rect2" />&#10;		<rect
   x="171.14"
   y="389.20801"
   style="fill:#ebebeb"
   width="55.416"
   height="0.25"
   id="rect3" />&#10;		<rect
   x="91"
   y="397.86099"
   style="fill:#ebebeb"
   width="19.191999"
   height="0.25"
   id="rect4" />&#10;		<rect
   x="385.45999"
   y="391.797"
   style="fill:#ebebeb"
   width="43.193001"
   height="0.25"
   id="rect5" />&#10;		<rect
   x="437.556"
   y="391.797"
   style="fill:#ebebeb"
   width="6.3330002"
   height="0.25"
   id="rect6" />&#10;		<rect
   x="277.21301"
   y="395.306"
   style="fill:#ebebeb"
   width="46.838001"
   height="0.25"
   id="rect7" />&#10;		<path
   style="fill:#ebebeb"
   d="M 237.014,337.8 H 43.915 c -3.147,0 -5.708,-2.561 -5.708,-5.708 V 60.66 c 0,-3.147 2.561,-5.708 5.708,-5.708 h 193.099 c 3.146,0 5.707,2.561 5.707,5.708 v 271.432 c 0,3.147 -2.561,5.708 -5.707,5.708 z M 43.915,55.203 c -3.01,0 -5.458,2.448 -5.458,5.458 v 271.432 c 0,3.01 2.448,5.458 5.458,5.458 h 193.099 c 3.009,0 5.457,-2.448 5.457,-5.458 V 60.66 c 0,-3.009 -2.448,-5.458 -5.457,-5.458 H 43.915 Z"
   id="path7" />&#10;		<path
   style="fill:#ebebeb"
   d="M 453.31,337.8 H 260.212 c -3.147,0 -5.707,-2.561 -5.707,-5.708 V 60.66 c 0,-3.147 2.561,-5.708 5.707,-5.708 H 453.31 c 3.148,0 5.708,2.561 5.708,5.708 v 271.432 c 0.001,3.147 -2.56,5.708 -5.708,5.708 z M 260.212,55.203 c -3.009,0 -5.457,2.448 -5.457,5.458 v 271.432 c 0,3.01 2.448,5.458 5.457,5.458 H 453.31 c 3.01,0 5.458,-2.448 5.458,-5.458 V 60.66 c 0,-3.009 -2.448,-5.458 -5.458,-5.458 H 260.212 Z"
   id="path8" />&#10;	</g>&#10;	<g
   id="g27">&#10;		<g
   id="g15">&#10;			<g
   id="g13">&#10;				<rect
   x="104.783"
   y="74.393997"
   style="fill:#fafafa"
   width="193.058"
   height="138.592"
   id="rect8" />&#10;				<polygon
   style="fill:#ffffff"
   points="200.899,74.394 250.003,212.986 286.854,212.986 237.75,74.394 "
   id="polygon8" />&#10;				<polygon
   style="fill:#ffffff"
   points="125.217,74.394 174.322,212.986 187.763,212.986 138.658,74.394 "
   id="polygon9" />&#10;				<g
   id="g12">&#10;					<path
   style="fill:#e0e0e0"
   d="m 95.578,69.628 h 211.468 c 0.472,0 0.858,0.386 0.858,0.858 v 0 c 0,0.472 -0.386,0.858 -0.858,0.858 H 95.578 c -0.472,0 -0.858,-0.386 -0.858,-0.858 v 0 c 0,-0.472 0.386,-0.858 0.858,-0.858 z"
   id="path9" />&#10;					<rect
   x="200.168"
   y="74.096001"
   style="fill:#f0f0f0"
   width="2.2880001"
   height="139.188"
   id="rect9" />&#10;					<rect
   x="199.024"
   y="74.096001"
   style="fill:#e0e0e0"
   width="1.1440001"
   height="139.188"
   id="rect10" />&#10;					&#10;						<rect
   x="200.168"
   y="45.827"
   transform="rotate(-90,201.3119,143.6897)"
   style="fill:#f0f0f0"
   width="2.2880001"
   height="195.726"
   id="rect11" />&#10;					<path
   style="fill:#f0f0f0"
   d="m 103.449,212.032 v 0 -136.685 -2.288 h 2.287 191.151 2.288 v 2.288 136.685 0 2.288 0 0 h -2.288 v 0 H 105.736 v 0 h -2.287 v 0 0 z m 193.438,0 V 75.347 H 105.736 v 136.685 z"
   id="path11" />&#10;					<rect
   x="102.305"
   y="73.058998"
   style="fill:#e0e0e0"
   width="1.1440001"
   height="141.261"
   id="rect12" />&#10;				</g>&#10;			</g>&#10;			<g
   id="g14">&#10;				<polygon
   style="opacity:0.5;fill:#ebebeb"
   points="90.51,230.288 98.088,67.531 131.83,67.531 131.83,230.288 "
   id="polygon13" />&#10;				<polygon
   style="opacity:0.5;fill:#ebebeb"
   points="310.971,230.288 303.393,67.531 269.651,67.531 269.651,230.288 "
   id="polygon14" />&#10;			</g>&#10;		</g>&#10;		<g
   id="g24">&#10;			<g
   id="g23">&#10;				<g
   id="g22">&#10;					<rect
   x="61.924"
   y="249.789"
   style="fill:#f0f0f0"
   width="15.759"
   height="127.83"
   id="rect15" />&#10;					<rect
   x="64.949997"
   y="377.61899"
   style="fill:#f0f0f0"
   width="173.62601"
   height="4.7800002"
   id="rect16" />&#10;					&#10;						<rect
   x="77.682999"
   y="249.789"
   transform="rotate(180,159.6429,313.70385)"
   style="fill:#f5f5f5"
   width="163.91901"
   height="127.83"
   id="rect17" />&#10;					<rect
   x="59.941002"
   y="245.618"
   style="fill:#f0f0f0"
   width="16.107"
   height="4.171"
   id="rect18" />&#10;					&#10;						<rect
   x="76.047997"
   y="245.618"
   transform="rotate(180,159.81675,247.7035)"
   style="fill:#fafafa"
   width="167.537"
   height="4.171"
   id="rect19" />&#10;					<path
   style="fill:#e0e0e0"
   d="M 235.936,321.726 H 83.35 V 258.545 H 235.936 Z M 84.408,320.667 H 234.877 V 259.603 H 84.408 Z"
   id="path19" />&#10;					<path
   style="fill:#e0e0e0"
   d="M 235.936,368.862 H 83.35 V 328.051 H 235.936 Z M 84.408,367.804 H 234.877 V 329.11 H 84.408 Z"
   id="path20" />&#10;					<path
   style="fill:#e0e0e0"
   d="M 213.98,262.467 H 105.305 c -0.769,0 -1.398,-0.629 -1.398,-1.398 v -0.598 c 0,-0.769 0.629,-1.398 1.398,-1.398 H 213.98 c 0.769,0 1.398,0.629 1.398,1.398 v 0.598 c 0,0.769 -0.629,1.398 -1.398,1.398 z"
   id="path21" />&#10;					<path
   style="fill:#e0e0e0"
   d="M 213.98,331.974 H 105.305 c -0.769,0 -1.398,-0.629 -1.398,-1.398 v -0.597 c 0,-0.769 0.629,-1.398 1.398,-1.398 H 213.98 c 0.769,0 1.398,0.629 1.398,1.398 v 0.597 c 0,0.769 -0.629,1.398 -1.398,1.398 z"
   id="path22" />&#10;				</g>&#10;			</g>&#10;		</g>&#10;		<g
   id="g26">&#10;			&#10;				<rect
   x="347.85901"
   y="96.547997"
   transform="rotate(180,393.69755,236.4064)"
   style="fill:#f0f0f0"
   width="91.677002"
   height="279.716"
   id="rect24" />&#10;			<rect
   x="344.95001"
   y="96.547997"
   style="fill:#e0e0e0"
   width="2.9089999"
   height="279.716"
   id="rect25" />&#10;			&#10;				<rect
   x="362.733"
   y="107.218"
   transform="rotate(180,393.69755,236.4064)"
   style="fill:#fafafa"
   width="61.929001"
   height="258.37601"
   id="rect26" />&#10;		</g>&#10;	</g>&#10;</g><g
   id="Shadow_1_"
   transform="matrix(0.42934253,0,0,0.42934253,-7.9957063,-30.554078)">&#10;	<ellipse
   id="_x3C_Path_x3E__291_"
   style="fill:#f5f5f5"
   cx="250"
   cy="416.23801"
   rx="193.88901"
   ry="11.323" />&#10;</g><g
   id="Character_1_"
   transform="matrix(0.42934253,0,0,0.42934253,-7.9957063,-30.554078)">&#10;	<g
   id="g66">&#10;		<polygon
   style="fill:#b55b52"
   points="146.392,385.641 138.562,388.611 143.356,407.533 151.185,404.563 "
   id="polygon28" />&#10;		<polygon
   style="fill:#b55b52"
   points="94.155,388.293 85.781,388.293 84.527,407.685 92.901,407.685 "
   id="polygon29" />&#10;		<path
   style="fill:#263238"
   d="m 93.739,406.715 h -10.21 c -0.342,0 -0.627,0.238 -0.685,0.572 l -1.284,7.443 c -0.133,0.772 0.51,1.503 1.3,1.489 3.282,-0.056 5.669,-0.249 9.806,-0.249 2.545,0 10.234,0.264 13.749,0.264 3.438,0 3.801,-3.475 2.347,-3.79 -6.522,-1.411 -11.481,-3.358 -13.639,-5.215 -0.389,-0.334 -0.884,-0.514 -1.384,-0.514 z"
   id="path29" />&#10;		<path
   style="fill:#263238"
   d="m 150.787,403.677 -8.55,3.243 c -0.32,0.121 -0.513,0.449 -0.464,0.788 l 1.093,7.546 c 0.113,0.782 0.921,1.258 1.655,0.966 3.065,-1.222 5.666,-2.773 9.568,-4.174 4.563,-1.638 9.092,-3.39 12.785,-5.742 2.899,-1.847 1.678,-5.343 0.311,-4.795 -6.223,2.498 -7.749,3.319 -14.28,2.064 -0.711,-0.137 -1.443,-0.152 -2.118,0.104 z"
   id="path30" />&#10;		<path
   style="fill:#b65b52"
   d="m 128.697,152.492 c 2.636,4.656 5.412,9.456 8.21,14.1 2.796,4.665 5.671,9.275 8.719,13.597 0.739,1.095 1.557,2.142 2.294,3.155 0.305,0.453 0.435,0.583 0.65,0.754 0.218,0.16 0.729,0.305 1.519,0.238 0.781,-0.055 1.772,-0.283 2.797,-0.664 2.072,-0.756 4.289,-1.996 6.458,-3.383 1.078,-0.709 2.173,-1.439 3.245,-2.216 1.056,-0.767 2.151,-1.625 3.127,-2.378 l 4.696,4.181 c -0.9,1.31 -1.779,2.423 -2.748,3.573 -0.955,1.137 -1.949,2.256 -3.029,3.311 -1.07,1.068 -2.206,2.098 -3.438,3.071 -1.228,0.978 -2.545,1.916 -4.031,2.742 -1.486,0.823 -3.124,1.59 -5.083,2.069 -1.937,0.464 -4.299,0.644 -6.755,-0.02 -2.466,-0.629 -4.689,-2.205 -6.163,-3.891 -1.004,-1.164 -1.984,-2.25 -2.9,-3.4 -3.713,-4.549 -6.989,-9.257 -10.098,-14.048 -3.092,-4.825 -5.949,-9.655 -8.653,-14.788 z"
   id="path31" />&#10;		<g
   id="g33">&#10;			<path
   style="fill:#407bff"
   d="m 113.844,152.877 c -2.258,7.681 13.637,28.622 13.637,28.622 l 16.027,-10.313 c 0,0 -4.71,-10.684 -11.106,-18.832 -6.566,-8.365 -16.08,-7.907 -18.558,0.523 z"
   id="path32" />&#10;			<path
   style="opacity:0.2"
   d="m 113.844,152.877 c -2.258,7.681 13.637,28.622 13.637,28.622 l 16.027,-10.313 c 0,0 -4.71,-10.684 -11.106,-18.832 -6.566,-8.365 -16.08,-7.907 -18.558,0.523 z"
   id="path33" />&#10;		</g>&#10;		<path
   style="opacity:0.2"
   d="m 123.614,161.894 c 3.297,1.408 8.148,9.347 10.672,15.231 l -6.802,4.371 c 0,0 -6.124,-8.064 -10.224,-16.024 2.149,-2.357 4.611,-4.318 6.354,-3.578 z"
   id="path34" />&#10;		<path
   style="fill:#b55b52"
   d="m 164.73,178.306 2.936,-8.223 8.334,3.977 c 0,0 -1.73,7.334 -7.828,7.322 z"
   id="path35" />&#10;		<polygon
   style="fill:#b55b52"
   points="176.001,174.061 167.667,170.083 175.083,164.667 178.609,168.565 "
   id="polygon35" />&#10;		<polygon
   style="opacity:0.2"
   points="141.031,398.371 138.559,388.618 146.391,385.647 148.864,395.4 "
   id="polygon36" />&#10;		<polygon
   style="opacity:0.2"
   points="93.506,398.294 85.128,398.294 85.779,388.298 94.157,388.298 "
   id="polygon37" />&#10;		<g
   id="g38">&#10;			<path
   style="fill:#407bff"
   d="m 76.517,149.48 c 9.02,31.809 7.544,65.56 8.107,72.417 6.563,-0.235 31.284,-1.167 44.76,-1.677 7.603,-47.415 -6.051,-73.805 -6.051,-73.805 0,0 -2.872,-0.558 -6.778,-0.959 -1.225,-0.125 -2.546,-0.236 -3.922,-0.308 -0.76,-0.046 -1.532,-0.07 -2.315,-0.086 -5.053,-0.083 -13.305,0.72 -18.99,1.415 -1.19,0.148 -2.403,0.327 -3.574,0.518 -1.088,0.186 -2.155,0.383 -3.16,0.584 -4.559,0.909 -8.077,1.901 -8.077,1.901 z"
   id="path37" />&#10;			<path
   style="opacity:0.2"
   d="m 76.517,149.48 c 9.02,31.809 7.544,65.56 8.107,72.417 6.563,-0.235 31.284,-1.167 44.76,-1.677 7.603,-47.415 -6.051,-73.805 -6.051,-73.805 0,0 -2.872,-0.558 -6.778,-0.959 -1.225,-0.125 -2.546,-0.236 -3.922,-0.308 -0.76,-0.046 -1.532,-0.07 -2.315,-0.086 -5.053,-0.083 -13.305,0.72 -18.99,1.415 -1.19,0.148 -2.403,0.327 -3.574,0.518 -1.088,0.186 -2.155,0.383 -3.16,0.584 -4.559,0.909 -8.077,1.901 -8.077,1.901 z"
   id="path38" />&#10;		</g>&#10;		<path
   style="opacity:0.2"
   d="m 86.046,163.126 c 0.803,3.077 -0.115,17.12 -3.328,20.583 -0.438,-4.496 -1.022,-9.191 -1.794,-13.99 z"
   id="path39" />&#10;		<path
   style="fill:#b55b52"
   d="m 91.621,124.955 c 1.652,6.02 3.681,17.125 -0.29,21.519 3.566,3.053 8.19,6.544 15.464,6.259 7.273,-0.285 5.635,-5.18 3.523,-7.671 -6.933,-1.12 -7.134,-6.188 -6.3,-11.023 z"
   id="path40-3" />&#10;		<g
   id="g42">&#10;			<polygon
   style="fill:#407bff"
   points="103.481,153.995 104.723,151.764 106.98,151.698 108.301,152.592 "
   id="polygon40" />&#10;			<polygon
   style="fill:#407bff"
   points="113.141,153.995 112.814,151.406 108.799,151.229 108.301,152.592 "
   id="polygon41" />&#10;			<path
   style="fill:#ffffff"
   d="m 88.437,146.013 1.905,-0.956 c 0.619,-0.311 1.358,-0.252 1.914,0.161 2,1.486 7.321,4.992 14.724,6.48 -3.825,1.826 -2.879,6.723 -2.879,6.723 0,0 -12.15,-4.007 -16.051,-11.261 -0.223,-0.415 -0.034,-0.935 0.387,-1.147 z"
   id="path41-6" />&#10;			<path
   style="fill:#ffffff"
   d="m 112.442,144.752 -2.793,-0.42 c -0.324,-0.049 -0.545,0.313 -0.356,0.581 0.976,1.383 2.595,4.442 -0.493,6.317 3.825,1.826 5.015,6.294 5.015,6.294 0,0 4.979,-5.374 -0.826,-12.462 -0.136,-0.166 -0.335,-0.278 -0.547,-0.31 z"
   id="path42" />&#10;		</g>&#10;		<path
   style="opacity:0.2"
   d="m 96.675,128.663 7.337,5.372 c -0.201,1.145 -0.338,2.3 -0.335,3.414 -2.631,-0.182 -6.418,-2.773 -6.897,-5.478 -0.239,-1.349 -0.279,-2.659 -0.105,-3.308 z"
   id="path43" />&#10;		<path
   style="fill:#263238"
   d="m 112.867,112.611 c -0.335,2.905 -3.124,5.411 -4.93,6.037 l -2.247,-12.659 c 5.051,-3.56 7.648,2.538 7.177,6.622 z"
   id="path44" />&#10;		<path
   style="fill:#b55b52"
   d="m 89.091,116.101 c 1.456,8.182 1.892,13.045 6.541,16.795 6.993,5.641 16.73,0.695 17.749,-7.757 0.917,-7.608 -1.618,-19.711 -10.062,-22.061 -8.319,-2.315 -15.684,4.841 -14.228,13.023 z"
   id="path45" />&#10;		<path
   style="fill:#263238"
   d="m 90.646,121.618 c 3.79,2.014 5.459,-2.513 5.492,-4.347 0.051,-2.924 -1.215,-6.129 -2.723,-7.303 7.316,-0.043 21.791,-0.362 18.14,-7.331 -3.651,-6.97 -10.963,-6.173 -16.475,-2.362 -2.913,2.014 -12.333,0.261 -9.998,5.694 -4.912,2.609 -0.652,12.346 5.564,15.649 z"
   id="path46" />&#10;		<path
   style="fill:#263238"
   d="m 85.885,105.52 c 0,0 -1.613,0.15 -3.611,-1.228 0.576,2.588 3.196,2.648 3.196,2.648 z"
   id="path47" />&#10;		<path
   style="fill:#b55b52"
   d="m 86.014,122.831 c 0.988,2.011 2.813,3.378 4.565,3.945 2.636,0.852 3.24,-1.565 2.6,-4.11 -0.576,-2.291 -1.817,-5.41 -4.507,-5.154 -2.65,0.252 -3.788,3.019 -2.658,5.319 z"
   id="path48" />&#10;		<path
   style="fill:#263238"
   d="m 139.134,308.75 c -3.403,-25.33 -9.751,-88.527 -9.751,-88.527 l -29.424,1.104 c 0,0 13.878,63.155 18.901,88.761 5.023,25.606 18.992,87.413 18.992,87.413 l 13.26,-5.022 c 0,0 -8.436,-57.392 -11.978,-83.729 z"
   id="path49" />&#10;		<path
   style="opacity:0.2"
   d="m 110.945,238.354 c -1.836,0.459 -4.736,1.586 -6.541,3.349 2.775,12.769 6.406,29.576 9.525,44.39 2.128,-12.833 2.191,-37.046 -2.984,-47.739 z"
   id="path50" />&#10;		<path
   style="fill:#263238"
   d="m 113.507,220.819 c 0,0 -6.243,68.556 -9.103,92.925 -3.132,26.686 -7.042,82.614 -7.042,82.614 H 82.025 c 0,0 -0.636,-49.465 1.358,-75.587 2.271,-29.755 1.244,-98.866 1.244,-98.866 z"
   id="path51" />&#10;		<polygon
   style="fill:#407bff"
   points="80.96,391.294 101.124,390.943 99.4,396.69 81.34,396.69 "
   id="polygon51" />&#10;		<polygon
   style="fill:#407bff"
   points="135.159,393.043 152.718,386.077 152.894,392.156 137.095,398.148 "
   id="polygon52" />&#10;		<path
   style="fill:#263238"
   d="m 101.856,116.964 c 0.077,0.671 0.495,1.174 0.934,1.123 0.439,-0.05 0.731,-0.635 0.654,-1.306 -0.077,-0.671 -0.495,-1.174 -0.934,-1.123 -0.439,0.05 -0.732,0.635 -0.654,1.306 z"
   id="path52" />&#10;		<path
   style="fill:#263238"
   d="m 109.44,116.09 c 0.077,0.671 0.496,1.174 0.934,1.123 0.439,-0.05 0.731,-0.635 0.654,-1.306 -0.077,-0.671 -0.496,-1.174 -0.934,-1.123 -0.438,0.051 -0.731,0.635 -0.654,1.306 z"
   id="path53" />&#10;		<path
   style="fill:#a02724"
   d="m 107.067,116.702 c 0,0 1.972,3.695 3.867,5.369 -1.059,1.245 -3.136,0.971 -3.136,0.971 z"
   id="path54" />&#10;		<path
   style="fill:#263238"
   d="m 105.176,125.163 c -2.592,-0.05 -3.98,-1.685 -4.044,-1.762 -0.07,-0.084 -0.058,-0.209 0.026,-0.279 0.084,-0.07 0.209,-0.058 0.279,0.025 0.016,0.019 1.637,1.917 4.573,1.579 0.109,-0.012 0.207,0.066 0.22,0.174 0.013,0.109 -0.066,0.207 -0.174,0.22 -0.307,0.036 -0.6,0.049 -0.88,0.043 z"
   id="path55" />&#10;		<path
   style="fill:#263238"
   d="m 99.235,114.784 c -0.066,-0.001 -0.133,-0.019 -0.194,-0.055 -0.189,-0.111 -0.251,-0.354 -0.14,-0.543 1.115,-1.89 2.943,-1.993 3.021,-1.996 0.219,-0.01 0.404,0.16 0.414,0.379 0.01,0.218 -0.159,0.403 -0.377,0.414 v 0 c -0.06,0.003 -1.485,0.098 -2.375,1.607 -0.075,0.127 -0.211,0.197 -0.349,0.194 z"
   id="path56" />&#10;		<path
   style="fill:#263238"
   d="m 112.407,113.105 c -0.128,-0.003 -0.253,-0.067 -0.327,-0.184 -0.941,-1.477 -2.368,-1.524 -2.428,-1.525 -0.218,-0.005 -0.393,-0.185 -0.389,-0.403 0.003,-0.218 0.181,-0.393 0.4,-0.39 0.079,0.003 1.908,0.041 3.087,1.892 0.118,0.185 0.063,0.43 -0.121,0.548 -0.07,0.044 -0.147,0.063 -0.222,0.062 z"
   id="path57" />&#10;		<g
   id="g61">&#10;			<path
   style="fill:#407bff"
   d="m 96.581,408.178 c -0.774,0 -1.618,-0.161 -2.206,-0.301 -0.079,-0.019 -0.141,-0.082 -0.157,-0.161 -0.017,-0.079 0.015,-0.158 0.081,-0.2 0.296,-0.191 2.915,-1.85 3.864,-1.374 0.147,0.074 0.331,0.231 0.368,0.561 0.05,0.444 -0.071,0.796 -0.358,1.048 -0.364,0.319 -0.955,0.427 -1.592,0.427 z m -1.645,-0.579 c 1.436,0.285 2.527,0.233 2.966,-0.151 0.193,-0.169 0.269,-0.404 0.234,-0.72 -0.017,-0.154 -0.082,-0.206 -0.137,-0.233 -0.494,-0.247 -1.997,0.469 -3.063,1.104 z"
   id="path58" />&#10;			<path
   style="fill:#407bff"
   d="m 94.421,407.883 c -0.038,0 -0.076,-0.011 -0.11,-0.032 -0.063,-0.04 -0.101,-0.109 -0.099,-0.182 0.003,-0.102 0.083,-2.518 1.017,-3.314 0.243,-0.207 0.523,-0.293 0.832,-0.255 0,0 0,0 0,0 0.477,0.058 0.616,0.351 0.657,0.52 0.224,0.934 -1.361,2.768 -2.204,3.239 -0.028,0.016 -0.06,0.024 -0.093,0.024 z m 1.522,-3.394 c -0.163,0 -0.31,0.057 -0.447,0.174 -0.599,0.51 -0.796,1.918 -0.859,2.624 0.829,-0.654 1.827,-2.04 1.695,-2.592 -0.012,-0.05 -0.04,-0.168 -0.299,-0.2 v 0 c -0.03,-0.004 -0.06,-0.006 -0.09,-0.006 z"
   id="path59" />&#10;			<path
   style="fill:#407bff"
   d="m 151.967,404.467 c -0.074,0.002 -0.143,-0.037 -0.18,-0.103 -0.041,-0.074 -0.03,-0.165 0.026,-0.228 0.286,-0.319 2.828,-3.108 3.98,-2.939 0.222,0.033 0.393,0.163 0.493,0.377 0,0 0,0 0,0 0.168,0.359 0.166,0.707 -0.005,1.034 -0.57,1.086 -2.931,1.629 -4.288,1.856 -0.008,0.002 -0.017,0.003 -0.026,0.003 z m 3.691,-2.881 c -0.668,0.02 -2.128,1.318 -3.145,2.38 1.838,-0.368 3.098,-0.932 3.418,-1.542 0.113,-0.214 0.112,-0.437 -0.003,-0.681 -0.044,-0.094 -0.102,-0.14 -0.192,-0.153 -0.024,-0.004 -0.05,-0.005 -0.078,-0.004 z"
   id="path60" />&#10;			<path
   style="fill:#407bff"
   d="m 151.967,404.467 c -0.019,0.001 -0.038,-10e-4 -0.057,-0.007 -0.068,-0.018 -0.122,-0.071 -0.14,-0.139 -0.025,-0.093 -0.614,-2.282 0.072,-3.477 0.209,-0.365 0.515,-0.603 0.908,-0.708 v 0 c 0.53,-0.142 0.775,0.061 0.887,0.256 0.479,0.831 -0.751,3.234 -1.535,4.017 -0.037,0.036 -0.085,0.057 -0.135,0.058 z m 1.089,-3.981 c -0.054,0.002 -0.121,0.011 -0.204,0.033 0,0 0,0 0,0 -0.291,0.078 -0.509,0.249 -0.666,0.522 -0.451,0.786 -0.251,2.153 -0.118,2.806 0.745,-0.945 1.513,-2.759 1.225,-3.257 -0.017,-0.03 -0.063,-0.109 -0.237,-0.104 z m -0.255,-0.158 h 0.005 z"
   id="path61" />&#10;		</g>&#10;		<g
   id="g65">&#10;			<path
   style="fill:#b65b52"
   d="m 85.724,161.318 c -2.512,5.176 -5.072,10.517 -7.554,15.776 -1.231,2.645 -2.466,5.283 -3.632,7.932 l -1.735,3.971 -0.829,1.986 -0.208,0.497 -0.145,0.369 c -0.102,0.236 -0.168,0.476 -0.257,0.714 -0.595,1.909 -0.756,3.916 -0.328,6.082 0.391,2.165 1.342,4.436 2.637,6.653 1.299,2.217 2.933,4.386 4.762,6.445 0.908,1.037 1.862,2.056 2.863,3.032 0.5,0.488 1.01,0.968 1.529,1.434 0.497,0.466 1.062,0.965 1.505,1.349 l -3.336,5.329 c -1.551,-0.788 -2.845,-1.562 -4.193,-2.454 -1.329,-0.875 -2.632,-1.8 -3.894,-2.799 -2.51,-2.01 -4.884,-4.287 -6.987,-6.956 -2.092,-2.665 -3.93,-5.758 -5.052,-9.361 -1.107,-3.581 -1.39,-7.717 -0.484,-11.577 0.121,-0.475 0.228,-0.96 0.375,-1.426 l 0.386,-1.24 0.709,-2.204 c 0.492,-1.453 0.98,-2.914 1.52,-4.341 1.05,-2.874 2.149,-5.712 3.331,-8.508 2.337,-5.625 4.866,-11.049 7.724,-16.497 z"
   id="path62" />&#10;			<g
   id="g64">&#10;				<path
   style="fill:#407bff"
   d="m 76.519,149.481 c -7.64,2.393 -15.153,28.298 -15.153,28.298 l 17.677,7.737 c 0,0 5.719,-12.519 9.007,-22.33 3.581,-10.686 -2.276,-16.603 -11.531,-13.705 z"
   id="path63" />&#10;				<path
   style="opacity:0.2"
   d="m 76.519,149.481 c -7.64,2.393 -15.153,28.298 -15.153,28.298 l 17.677,7.737 c 0,0 5.719,-12.519 9.007,-22.33 3.581,-10.686 -2.276,-16.603 -11.531,-13.705 z"
   id="path64" />&#10;			</g>&#10;			<path
   style="fill:#b55b52"
   d="m 82.463,215.915 7.311,4.346 -7.111,7.079 c 0,0 -6.176,-4.75 -4.334,-8.473 z"
   id="path65" />&#10;			<polygon
   style="fill:#b55b52"
   points="82.663,227.34 89.774,220.261 94.655,227.191 87.322,232.328 "
   id="polygon65" />&#10;		</g>&#10;	</g>&#10;</g><g
   id="Screen"
   transform="matrix(0.42934253,0,0,0.42934253,-7.9957063,-30.554078)">&#10;	<g
   id="g104">&#10;		<g
   id="g70">&#10;			&#10;				<rect
   x="446.30399"
   y="215.995"
   transform="matrix(0.0722,-0.9974,0.9974,0.0722,200.3721,648.4017)"
   style="fill:#407bff"
   width="4.8330002"
   height="1.001"
   id="rect66" />&#10;			&#10;				<rect
   x="442.69501"
   y="202.336"
   transform="matrix(0.0723,-0.9974,0.9974,0.0723,214.9011,636.7047)"
   style="fill:#407bff"
   width="14.01"
   height="1.001"
   id="rect67" />&#10;			<path
   style="fill:#407bff"
   d="M 422.324,352.96 H 177.387 c -7.484,0 -13.169,-6.123 -12.632,-13.608 l 12.959,-180.797 c 0.536,-7.484 7.099,-13.608 14.583,-13.608 h 244.937 c 7.484,0 13.169,6.123 12.632,13.608 l -12.959,180.797 c -0.537,7.485 -7.099,13.608 -14.583,13.608 z"
   id="path67" />&#10;			<polygon
   style="fill:#407bff"
   points="271.673,317.995 351.177,317.995 365.348,416.238 285.844,416.238 "
   id="polygon67" />&#10;			<polygon
   style="fill:#407bff"
   points="265.013,416.238 351.016,416.238 352.724,410.384 266.721,410.384 "
   id="polygon68" />&#10;			<polygon
   style="fill:#263238"
   points="271.673,317.995 348.552,317.995 355.374,365.29 277.884,361.056 "
   id="polygon69" />&#10;			<path
   style="fill:#263238"
   d="M 419.559,352.96 H 174.622 c -7.484,0 -13.169,-6.123 -12.632,-13.608 l 12.959,-180.797 c 0.536,-7.484 7.099,-13.608 14.583,-13.608 h 244.937 c 7.484,0 13.169,6.123 12.632,13.608 l -12.959,180.797 c -0.537,7.485 -7.099,13.608 -14.583,13.608 z"
   id="path69" />&#10;			&#10;				<rect
   x="391.26401"
   y="211.726"
   transform="matrix(0.0716,-0.9974,0.9974,0.0716,199.8676,639.1325)"
   style="fill:#ffffff"
   width="103.984"
   height="0.95599997"
   id="rect69" />&#10;			&#10;				<rect
   x="419.603"
   y="290.55099"
   transform="matrix(0.0715,-0.9974,0.9974,0.0715,116.0421,706.7129)"
   style="fill:#ffffff"
   width="36.005001"
   height="0.95599997"
   id="rect70" />&#10;		</g>&#10;		<g
   id="g103">&#10;			<g
   id="g72">&#10;				<path
   style="fill:#ffffff"
   d="M 419.041,349.577 H 175.625 c -5.826,0 -10.25,-4.766 -9.833,-10.592 l 12.907,-180.062 c 0.418,-5.826 5.526,-10.592 11.351,-10.592 h 243.416 c 5.826,0 10.25,4.766 9.833,10.592 l -12.907,180.062 c -0.418,5.825 -5.526,10.592 -11.351,10.592 z"
   id="path70" />&#10;				<path
   style="opacity:0.2;fill:#407bff"
   d="M 419.041,349.577 H 175.625 c -5.826,0 -10.25,-4.766 -9.833,-10.592 l 12.907,-180.062 c 0.418,-5.826 5.526,-10.592 11.351,-10.592 h 243.416 c 5.826,0 10.25,4.766 9.833,10.592 l -12.907,180.062 c -0.418,5.825 -5.526,10.592 -11.351,10.592 z"
   id="path71" />&#10;				<path
   style="opacity:0.5;fill:#ffffff"
   d="m 238.063,341.596 h -56.848 c -2.814,0 -4.952,-2.303 -4.75,-5.117 L 189.012,161.43 c 0.202,-2.814 2.669,-5.117 5.484,-5.117 h 56.847 c 2.814,0 4.952,2.303 4.751,5.117 l -12.547,175.049 c -0.202,2.814 -2.67,5.117 -5.484,5.117 z"
   id="path72" />&#10;			</g>&#10;			<path
   style="opacity:0.4;fill:#407bff"
   d="M 235.862,180.989 H 206.44 c -2.535,0 -4.461,-2.074 -4.279,-4.61 l 0.323,-4.511 c 0.182,-2.535 2.405,-4.609 4.94,-4.609 h 29.422 c 2.535,0 4.461,2.074 4.279,4.609 l -0.323,4.511 c -0.182,2.536 -2.405,4.61 -4.94,4.61 z"
   id="path73" />&#10;			<g
   id="g79">&#10;				<path
   style="fill:#407bff"
   d="m 217.155,251.798 h -44.917 c -4.423,0 -7.783,-3.619 -7.465,-8.042 l 3.22,-44.917 c 0.317,-4.423 4.195,-8.042 8.618,-8.042 h 44.917 c 4.423,0 7.783,3.619 7.465,8.042 l -3.22,44.917 c -0.317,4.423 -4.195,8.042 -8.618,8.042 z"
   id="path74" />&#10;				<path
   style="fill:#ffffff"
   d="m 223.595,214.971 c -1.686,0 -3.164,1.379 -3.285,3.065 l -0.467,6.522 c -0.121,1.686 1.16,3.065 2.845,3.065 h 4.56 c 0.42,0 0.785,-0.34 0.815,-0.76 l 0.798,-11.131 c 0.03,-0.42 -0.286,-0.76 -0.706,-0.76 h -4.56 z"
   id="path75" />&#10;				<path
   style="fill:#ffffff"
   d="m 206.264,202.227 h -28.313 c -0.676,0 -1.189,-0.553 -1.141,-1.229 v 0 c 0.048,-0.676 0.641,-1.229 1.317,-1.229 h 28.313 c 0.676,0 1.189,0.553 1.141,1.229 v 0 c -0.049,0.677 -0.642,1.229 -1.317,1.229 z"
   id="path76" />&#10;				<path
   style="fill:#ffffff"
   d="m 205.815,208.482 h -28.313 c -0.676,0 -1.189,-0.553 -1.141,-1.229 v 0 c 0.048,-0.676 0.641,-1.229 1.317,-1.229 h 28.313 c 0.676,0 1.189,0.553 1.141,1.229 v 0 c -0.048,0.677 -0.641,1.229 -1.317,1.229 z"
   id="path77" />&#10;				<path
   style="fill:#ffffff"
   d="m 195.584,214.738 h -18.53 c -0.676,0 -1.189,-0.553 -1.141,-1.229 v 0 c 0.048,-0.676 0.641,-1.229 1.317,-1.229 h 18.53 c 0.676,0 1.189,0.553 1.141,1.229 v 0 c -0.049,0.676 -0.641,1.229 -1.317,1.229 z"
   id="path78" />&#10;				<path
   style="opacity:0.5;fill:#ffffff"
   d="m 206.337,244.54 h -27.392 c -2.891,0 -5.087,-2.365 -4.88,-5.257 l 1.031,-14.391 c 0.207,-2.891 2.742,-5.257 5.634,-5.257 h 27.392 c 2.891,0 5.087,2.366 4.88,5.257 l -1.031,14.391 c -0.207,2.892 -2.742,5.257 -5.634,5.257 z"
   id="path79" />&#10;			</g>&#10;			<g
   id="g85">&#10;				<path
   style="opacity:0.4;fill:#407bff"
   d="m 231.911,268.621 h -34.082 c -1.254,0 -2.206,-1.026 -2.116,-2.279 v 0 c 0.09,-1.254 1.189,-2.279 2.443,-2.279 h 34.082 c 1.254,0 2.206,1.026 2.116,2.279 v 0 c -0.09,1.253 -1.189,2.279 -2.443,2.279 z"
   id="path80" />&#10;				<path
   style="opacity:0.8;fill:#ffffff"
   d="m 225.042,277.567 h -21.627 c -1.254,0 -2.206,-1.026 -2.116,-2.279 v 0 c 0.09,-1.254 1.189,-2.279 2.443,-2.279 h 21.627 c 1.254,0 2.206,1.026 2.116,2.279 v 0 c -0.09,1.254 -1.189,2.279 -2.443,2.279 z"
   id="path81" />&#10;				<path
   style="opacity:0.4;fill:#407bff"
   d="m 230.141,293.308 h -34.082 c -1.254,0 -2.206,-1.026 -2.116,-2.279 v 0 c 0.09,-1.254 1.189,-2.279 2.443,-2.279 h 34.082 c 1.254,0 2.206,1.026 2.116,2.279 v 0 c -0.09,1.254 -1.189,2.279 -2.443,2.279 z"
   id="path82" />&#10;				<path
   style="opacity:0.8;fill:#ffffff"
   d="m 223.273,302.254 h -21.627 c -1.254,0 -2.206,-1.026 -2.116,-2.279 v 0 c 0.09,-1.254 1.189,-2.279 2.443,-2.279 H 223.6 c 1.254,0 2.206,1.026 2.116,2.279 v 0 c -0.091,1.254 -1.19,2.279 -2.443,2.279 z"
   id="path83" />&#10;				<path
   style="opacity:0.4;fill:#407bff"
   d="M 228.372,317.995 H 194.29 c -1.254,0 -2.206,-1.026 -2.116,-2.279 v 0 c 0.09,-1.254 1.189,-2.279 2.443,-2.279 h 34.082 c 1.254,0 2.206,1.026 2.116,2.279 v 0 c -0.09,1.254 -1.189,2.279 -2.443,2.279 z"
   id="path84" />&#10;				<path
   style="opacity:0.8;fill:#ffffff"
   d="m 221.503,326.941 h -21.627 c -1.254,0 -2.206,-1.026 -2.116,-2.279 v 0 c 0.09,-1.254 1.189,-2.279 2.443,-2.279 h 21.627 c 1.254,0 2.206,1.026 2.116,2.279 v 0 c -0.09,1.254 -1.189,2.279 -2.443,2.279 z"
   id="path85" />&#10;			</g>&#10;			<g
   id="g91">&#10;				<path
   style="opacity:0.5;fill:#407bff"
   d="m 421.682,290.266 c 1.478,-2.254 4.864,-1.301 4.677,1.309 l -3.279,45.751 c -0.169,2.357 -1.948,4.272 -3.969,4.272 H 254.275 c -2.021,0 -3.526,-1.915 -3.357,-4.272 l 1.948,-27.182 c 0.263,-3.666 3.993,-6.306 7.423,-5.237 9.291,2.896 17.251,1.195 24.649,-2.473 15.824,-7.856 29.063,-24.714 47.255,-24.714 0.697,0 1.384,0.018 2.052,0.062 27.06,1.633 35.304,35.244 56.268,35.244 6.196,0 11.852,-2.674 16.776,-6.487 6.033,-4.666 10.958,-11.034 14.393,-16.273 z"
   id="path86" />&#10;				<path
   style="opacity:0.5;fill:#407bff"
   d="m 425.102,309.115 -2.022,28.21 c -0.169,2.357 -1.948,4.272 -3.969,4.272 H 254.275 c -2.021,0 -3.526,-1.915 -3.357,-4.272 l 4.018,-56.058 c 0.275,-3.84 5.307,-5.455 7.344,-2.348 5.259,8.023 13.352,18.386 22.658,23.514 3.567,1.96 7.303,3.151 11.134,3.151 13.319,0 24.646,-15.799 38.173,-27.804 8.295,-7.361 17.415,-13.302 28.325,-13.302 22.773,0 26.131,37.001 44.719,42.059 3.584,0.98 7.73,0.768 12.694,-1.13 2.66,-1.014 5.319,0.928 5.119,3.708 z"
   id="path87" />&#10;				<g
   style="opacity:0.8"
   id="g90">&#10;					<path
   style="fill:#ffffff"
   d="m 425.91,298.18 c -0.091,0 -0.17,-0.04 -0.24,-0.1 -0.03,-0.03 -0.06,-0.07 -0.07,-0.11 -0.02,-0.04 -0.03,-0.09 -0.03,-0.13 0,-0.1 0.04,-0.18 0.101,-0.24 0.12,-0.13 0.35,-0.14 0.48,0 0.07,0.061 0.101,0.15 0.101,0.24 0,0.04 -0.01,0.09 -0.021,0.13 -0.02,0.04 -0.05,0.08 -0.08,0.11 -0.061,0.06 -0.151,0.1 -0.241,0.1 z"
   id="path88" />&#10;					<path
   style="fill:#ffffff"
   d="m 265.64,321.609 c -0.189,0 -0.34,-0.149 -0.34,-0.34 v 0 c 0,-0.18 0.15,-0.33 0.34,-0.33 v -0.01 c 0.191,0 0.34,0.16 0.34,0.34 v 0 c 0,0.19 -0.149,0.351 -0.34,0.351 v 0 z m -3.43,-0.189 c 0,0 0,0 0.01,0 v 0 c -0.189,-0.01 -0.33,-0.18 -0.31,-0.37 v 0 c 0.02,-0.19 0.189,-0.32 0.38,-0.3 v 0 c 0.189,0.02 0.319,0.19 0.3,0.37 v 0 c -0.021,0.18 -0.17,0.31 -0.34,0.31 v 0 c -0.01,0 -0.021,0 -0.04,-0.01 z m 6.47,-0.3 c -0.02,-0.19 0.11,-0.36 0.3,-0.38 v 0 c 0.19,-0.021 0.36,0.109 0.38,0.3 v 0 c 0.021,0.189 -0.109,0.359 -0.3,0.38 v 0 c -0.01,0 -0.029,0 -0.04,0 v 0 c -0.17,0 -0.32,-0.13 -0.34,-0.3 z m -9.85,-0.221 c -0.181,-0.04 -0.3,-0.22 -0.271,-0.409 v 0 c 0.04,-0.181 0.221,-0.301 0.41,-0.271 v 0 c 0.18,0.04 0.3,0.22 0.271,0.41 v 0 c -0.04,0.16 -0.181,0.27 -0.341,0.27 v 0 c -0.019,0 -0.049,0 -0.069,0 z m 13.19,-0.339 c -0.05,-0.19 0.061,-0.37 0.25,-0.42 v 0 c 0.181,-0.04 0.36,0.07 0.41,0.25 v 0 c 0.05,0.18 -0.07,0.37 -0.25,0.42 v 0 c 0,0 0,0 0,-0.01 v 0 c -0.03,0.01 -0.06,0.01 -0.08,0.01 v 0 c -0.16,0 -0.3,-0.1 -0.33,-0.25 z m 109.37,0.14 c -0.189,0 -0.34,-0.15 -0.34,-0.341 v 0 c 0,-0.19 0.16,-0.34 0.34,-0.34 v 0 c 0.191,0 0.34,0.15 0.34,0.34 v 0 c -0.001,0.191 -0.15,0.341 -0.34,0.341 z m 3.05,-0.48 c -0.02,-0.19 0.12,-0.36 0.301,-0.37 v 0 c 0.189,-0.03 0.359,0.11 0.38,0.3 v 0 c 0.02,0.19 -0.12,0.36 -0.31,0.38 v 0 c -0.01,0 -0.02,0 -0.029,0 v 0 c -0.173,-10e-4 -0.322,-0.131 -0.342,-0.31 z m -6.47,0.27 c -0.18,-0.021 -0.32,-0.19 -0.29,-0.381 v 0 c 0.021,-0.19 0.19,-0.319 0.38,-0.3 v 0 c 0.19,0.03 0.32,0.2 0.3,0.38 v 0 c -0.029,0.181 -0.17,0.31 -0.34,0.31 v 0 c -0.02,10e-4 -0.03,10e-4 -0.05,-0.009 z m -122.46,-0.41 c -0.18,-0.051 -0.29,-0.24 -0.24,-0.42 v 0 c 0.061,-0.181 0.24,-0.29 0.431,-0.24 v 0 c 0.18,0.06 0.279,0.24 0.23,0.43 v 0 c -0.04,0.15 -0.18,0.24 -0.33,0.24 v 0 c -0.032,0 -0.061,0 -0.091,-0.01 z m 132.29,-0.33 c -0.04,-0.19 0.08,-0.37 0.27,-0.4 v 0 c 0.181,-0.04 0.36,0.08 0.4,0.27 v 0 c 0.04,0.18 -0.08,0.359 -0.27,0.399 v 0 0 0 c -0.021,0 -0.04,0.01 -0.061,0.01 v 0 c -0.16,0 -0.309,-0.119 -0.339,-0.279 z m -13.191,0.12 c -0.19,-0.04 -0.3,-0.221 -0.25,-0.41 v 0 c 0.04,-0.181 0.221,-0.29 0.41,-0.25 v 0 c 0.181,0.04 0.29,0.23 0.25,0.41 v 0 c -0.04,0.159 -0.18,0.26 -0.33,0.26 v 0 c -0.029,0 -0.059,0 -0.08,-0.01 z m -99.349,-0.28 c -0.07,-0.18 0.021,-0.38 0.2,-0.44 v 0 c 0.17,-0.069 0.37,0.02 0.439,0.19 v 0 c 0.061,0.18 -0.02,0.38 -0.199,0.439 v 0 c -0.04,0.021 -0.08,0.03 -0.12,0.03 v 0 c -0.14,10e-4 -0.27,-0.089 -0.32,-0.219 z M 391.109,319 c -0.05,-0.19 0.051,-0.38 0.24,-0.431 v 0 c 0.181,-0.05 0.37,0.061 0.42,0.24 v 0 c 0.05,0.181 -0.06,0.37 -0.239,0.42 v 0 0 0 c -0.03,0.011 -0.061,0.021 -0.091,0.021 v 0 c -0.149,0 -0.29,-0.101 -0.33,-0.25 z m -19.779,-0.12 v 0 0 c -0.181,-0.061 -0.271,-0.26 -0.21,-0.43 v 0 c 0.069,-0.181 0.26,-0.271 0.44,-0.21 v 0 c 0.181,0.069 0.271,0.26 0.21,0.439 v 0 c -0.05,0.14 -0.189,0.22 -0.33,0.22 v 0 c -0.041,0 -0.081,0 -0.11,-0.019 z m -92.96,-0.64 c -0.09,-0.16 -0.02,-0.37 0.149,-0.461 v 0 c 0.17,-0.079 0.37,-0.01 0.46,0.16 v 0 c 0.08,0.16 0.021,0.37 -0.149,0.45 v 0 0 0 c -0.05,0.03 -0.101,0.04 -0.16,0.04 v 0 c -0.12,0.001 -0.24,-0.07 -0.3,-0.189 z M 394.359,318 c -0.069,-0.181 0.03,-0.37 0.2,-0.431 l 0.01,-0.01 c 0.171,-0.06 0.37,0.04 0.431,0.21 v 0 c 0.06,0.181 -0.03,0.38 -0.21,0.44 v 0 c -0.04,0.01 -0.07,0.02 -0.11,0.02 v 0 c -0.14,0 -0.27,-0.089 -0.321,-0.229 z m -26.189,-0.42 v 0 0 C 368,317.51 367.92,317.3 368,317.13 v 0 c 0.08,-0.17 0.28,-0.24 0.45,-0.17 v 0 c 0.18,0.08 0.25,0.28 0.17,0.46 v 0 c -0.06,0.12 -0.181,0.2 -0.31,0.2 v 0 c -0.05,0 -0.1,-0.011 -0.14,-0.04 z m 29.36,-0.78 c -0.07,-0.17 0.01,-0.37 0.189,-0.44 v 0 c 0.17,-0.08 0.37,0 0.44,0.181 v 0 c 0.08,0.17 0,0.37 -0.181,0.45 v 0 0 0 c -0.04,0.02 -0.09,0.02 -0.13,0.02 v 0 C 397.71,317.01 397.59,316.93 397.53,316.8 Z m -116.2,-0.2 c -0.101,-0.16 -0.05,-0.38 0.109,-0.48 v 0 c 0.16,-0.101 0.37,-0.051 0.471,0.109 v 0 c 0.1,0.16 0.05,0.37 -0.11,0.471 v 0 0 0 c -0.05,0.04 -0.12,0.06 -0.18,0.06 v 0 c -0.11,0 -0.221,-0.06 -0.29,-0.16 z m 83.79,-0.55 v 0 0 c -0.17,-0.09 -0.23,-0.3 -0.141,-0.47 v 0 c 0.09,-0.16 0.301,-0.221 0.471,-0.13 v 0 c 0.159,0.09 0.22,0.29 0.13,0.46 v 0 c -0.061,0.109 -0.181,0.18 -0.3,0.18 v 0 c -0.051,0 -0.11,-0.021 -0.16,-0.04 z m 35.52,-0.62 c -0.08,-0.17 -0.01,-0.37 0.16,-0.45 v 0 c 0.17,-0.08 0.38,-0.01 0.46,0.16 v 0 c 0.08,0.17 0,0.37 -0.17,0.45 v 0 c 0,0 0,0 0.01,0.01 v 0 c -0.05,0.02 -0.1,0.03 -0.149,0.03 v 0 c -0.132,0 -0.251,-0.07 -0.311,-0.2 z m -116.491,-0.71 c -0.109,-0.16 -0.069,-0.37 0.08,-0.479 v 0 c 0.15,-0.11 0.37,-0.08 0.48,0.069 v 0 c 0.109,0.15 0.07,0.37 -0.08,0.48 v 0 c -0.061,0.04 -0.13,0.069 -0.2,0.069 v 0 c -0.11,0 -0.209,-0.049 -0.28,-0.139 z m 78.021,-0.38 c 0,0 0,0 0,-0.01 v 0 c -0.16,-0.09 -0.21,-0.301 -0.11,-0.46 v 0 c 0.09,-0.17 0.3,-0.221 0.46,-0.12 v 0 c 0.17,0.1 0.221,0.31 0.12,0.47 v 0 c -0.07,0.11 -0.18,0.17 -0.29,0.17 v 0 c -0.06,0 -0.13,-0.02 -0.18,-0.05 z m 41.51,-0.43 c -0.09,-0.16 -0.03,-0.37 0.14,-0.46 v 0 c 0.16,-0.091 0.37,-0.021 0.461,0.14 v 0 c 0.09,0.17 0.029,0.37 -0.141,0.47 v 0 c -0.05,0.021 -0.109,0.04 -0.16,0.04 v 0 c -0.121,0 -0.24,-0.071 -0.3,-0.19 z m -116.81,-1.24 c -0.12,-0.15 -0.101,-0.36 0.05,-0.48 v 0 c 0.149,-0.12 0.36,-0.09 0.48,0.051 v 0 c 0.12,0.149 0.091,0.369 -0.05,0.489 v 0 c -0.069,0.05 -0.14,0.07 -0.22,0.07 v 0 c -0.1,0 -0.2,-0.04 -0.26,-0.13 z m 72.42,-0.15 c 0,0 0,0 0,-0.01 v 0 c -0.16,-0.1 -0.2,-0.31 -0.1,-0.47 v 0 c 0.11,-0.16 0.32,-0.2 0.48,-0.1 v 0 c 0.149,0.1 0.2,0.32 0.1,0.471 v 0 c -0.069,0.109 -0.18,0.159 -0.29,0.159 v 0 c -0.07,-10e-4 -0.13,-0.02 -0.19,-0.05 z m 47.359,-0.25 c -0.1,-0.17 -0.04,-0.37 0.12,-0.47 v 0 c 0.16,-0.09 0.37,-0.04 0.471,0.12 v 0 c 0.09,0.16 0.04,0.37 -0.12,0.47 v 0 c -0.06,0.03 -0.12,0.05 -0.181,0.05 v 0 c -0.109,0 -0.229,-0.06 -0.29,-0.17 z m -50.189,-1.64 c -0.15,-0.11 -0.2,-0.32 -0.09,-0.48 v 0 c 0.109,-0.149 0.319,-0.189 0.48,-0.09 v 0 c 0.15,0.11 0.19,0.32 0.09,0.48 v 0 c -0.069,0.1 -0.18,0.15 -0.29,0.15 v 0 c -0.06,0 -0.13,-0.02 -0.19,-0.06 z m 53.09,-0.12 c -0.1,-0.16 -0.05,-0.37 0.11,-0.48 v 0 c 0.159,-0.1 0.37,-0.05 0.47,0.11 v 0 c 0.1,0.16 0.05,0.37 -0.11,0.47 v 0 0 0 c -0.05,0.04 -0.109,0.06 -0.18,0.06 v 0 c -0.111,0 -0.22,-0.061 -0.29,-0.16 z m -120.05,0.019 c -0.12,-0.14 -0.101,-0.359 0.04,-0.479 v 0 c 0.15,-0.12 0.37,-0.1 0.49,0.04 v 0 c 0.119,0.15 0.1,0.36 -0.051,0.479 v 0 c -0.06,0.061 -0.14,0.08 -0.22,0.08 v 0 c -0.089,0 -0.19,-0.04 -0.259,-0.12 z m 122.899,-1.88 c -0.109,-0.159 -0.069,-0.37 0.08,-0.48 v 0 c 0.16,-0.11 0.37,-0.07 0.48,0.09 v 0 c 0.1,0.15 0.07,0.37 -0.09,0.47 v 0 c -0.06,0.04 -0.13,0.061 -0.19,0.061 v 0 c -0.11,0 -0.219,-0.05 -0.28,-0.141 z m -58.75,0.08 c -0.159,-0.109 -0.199,-0.319 -0.09,-0.47 v 0 c 0.101,-0.16 0.31,-0.2 0.471,-0.1 v 0 c 0.159,0.109 0.199,0.319 0.09,0.479 v 0 c -0.06,0.101 -0.17,0.15 -0.28,0.15 v 0 c -0.06,0.002 -0.13,-0.018 -0.191,-0.059 z m -61.54,-0.379 c -0.13,-0.14 -0.109,-0.359 0.04,-0.48 v 0 c 0.141,-0.12 0.36,-0.101 0.48,0.04 v 0 c 0.12,0.149 0.1,0.359 -0.04,0.479 v 0 0 0 c -0.07,0.061 -0.14,0.08 -0.22,0.08 v 0 c -0.099,0.001 -0.199,-0.039 -0.26,-0.119 z m 58.721,-1.5 c -0.16,-0.109 -0.21,-0.32 -0.101,-0.47 v 0 c 0.101,-0.16 0.32,-0.21 0.471,-0.101 v 0 c 0.159,0.101 0.199,0.311 0.1,0.471 v 0 c -0.06,0.1 -0.17,0.149 -0.28,0.149 v 0 c -0.07,0 -0.13,-0.009 -0.19,-0.049 z m 64.35,-0.16 c -0.12,-0.15 -0.08,-0.359 0.07,-0.47 v 0 c 0.149,-0.11 0.37,-0.08 0.479,0.07 v 0 c 0.11,0.15 0.07,0.37 -0.08,0.479 v 0 c -0.06,0.04 -0.13,0.061 -0.199,0.061 v 0 c -0.1,0 -0.21,-0.04 -0.27,-0.14 z m -120.46,-0.51 c -0.12,-0.14 -0.1,-0.36 0.05,-0.479 v 0 c 0.15,-0.12 0.36,-0.091 0.48,0.05 v 0 c 0.12,0.149 0.1,0.37 -0.05,0.479 v 0 c -0.061,0.061 -0.141,0.08 -0.221,0.08 v 0 c -0.089,0 -0.189,-0.04 -0.259,-0.13 z m 53.259,-1.16 c -0.16,-0.1 -0.21,-0.31 -0.109,-0.47 v 0 c 0.1,-0.16 0.31,-0.21 0.47,-0.11 v 0 c 0.16,0.1 0.21,0.31 0.11,0.471 v 0 c -0.07,0.109 -0.181,0.17 -0.29,0.17 v 0 c -0.06,-0.001 -0.13,-0.021 -0.181,-0.061 z m 69.92,-0.36 c -0.119,-0.15 -0.09,-0.37 0.061,-0.48 v 0 c 0.149,-0.12 0.359,-0.09 0.48,0.061 v 0 c 0.11,0.149 0.08,0.359 -0.06,0.479 v 0 c 0,0 0,0 -0.01,0 v 0 c -0.06,0.05 -0.13,0.07 -0.2,0.07 v 0 c -0.11,0 -0.21,-0.05 -0.271,-0.13 z M 297.38,304.08 c -0.11,-0.15 -0.08,-0.37 0.07,-0.48 v 0 c 0.149,-0.109 0.359,-0.08 0.479,0.07 v 0 c 0.11,0.149 0.08,0.359 -0.07,0.48 v 0 c -0.06,0.04 -0.13,0.07 -0.199,0.07 v 0 c -0.11,0 -0.21,-0.05 -0.28,-0.14 z m 47.689,-0.79 c -0.159,-0.09 -0.22,-0.3 -0.119,-0.471 v 0 c 0.09,-0.159 0.3,-0.22 0.46,-0.119 v 0 c 0.17,0.09 0.229,0.3 0.13,0.46 v 0 c -0.061,0.109 -0.181,0.18 -0.3,0.18 v 0 c -0.05,0 -0.11,-0.021 -0.171,-0.05 z m 75.481,-0.75 c -0.12,-0.141 -0.1,-0.36 0.05,-0.48 v 0 c 0.15,-0.12 0.36,-0.1 0.48,0.05 v 0 c 0.12,0.141 0.1,0.36 -0.04,0.48 v 0 c -0.07,0.05 -0.15,0.08 -0.221,0.08 v 0 c -0.099,0 -0.199,-0.04 -0.269,-0.13 z M 300.14,302.1 c -0.109,-0.16 -0.07,-0.37 0.09,-0.48 v 0 c 0.16,-0.101 0.37,-0.06 0.48,0.1 v 0 c 0.1,0.15 0.06,0.37 -0.101,0.47 v 0 c -0.06,0.04 -0.119,0.06 -0.19,0.06 v 0 c -0.109,0 -0.219,-0.06 -0.279,-0.15 z m 41.96,-0.42 c -0.16,-0.08 -0.23,-0.29 -0.14,-0.46 v 0 c 0.08,-0.17 0.29,-0.229 0.46,-0.15 v 0 c 0.16,0.091 0.23,0.301 0.149,0.471 v 0 c -0.06,0.109 -0.189,0.18 -0.31,0.18 v 0 c -0.049,-10e-4 -0.11,-0.011 -0.159,-0.041 z m 81.049,-1.33 c -0.119,-0.14 -0.109,-0.359 0.03,-0.48 h 0.01 c 0.141,-0.12 0.35,-0.11 0.48,0.029 v 0 c 0.12,0.141 0.1,0.36 -0.04,0.48 v 0 c -0.061,0.06 -0.14,0.09 -0.22,0.09 v 0 c -0.099,0.001 -0.189,-0.039 -0.26,-0.119 z M 303.01,300.29 c -0.1,-0.16 -0.04,-0.37 0.13,-0.471 v 0 c 0.16,-0.09 0.37,-0.029 0.46,0.131 v 0 c 0.09,0.17 0.04,0.369 -0.13,0.47 v 0 c 0,0 0,0 0.01,0 v 0 c -0.06,0.03 -0.12,0.04 -0.17,0.04 v 0 c -0.12,0 -0.241,-0.061 -0.3,-0.17 z m 36.05,-0.061 v 0 0 c -0.17,-0.08 -0.25,-0.279 -0.17,-0.45 v 0 c 0.07,-0.17 0.28,-0.25 0.45,-0.17 v 0 c 0.17,0.07 0.25,0.271 0.17,0.45 v 0 c -0.05,0.12 -0.18,0.2 -0.31,0.2 v 0 c -0.051,10e-4 -0.091,-0.009 -0.14,-0.03 z m -3.12,-1.269 c -0.18,-0.061 -0.27,-0.26 -0.199,-0.44 v 0 c 0.06,-0.17 0.26,-0.26 0.439,-0.2 v 0 c 0.17,0.07 0.26,0.261 0.2,0.44 v 0 c -0.05,0.14 -0.18,0.22 -0.32,0.22 v 0 c -0.04,-0.001 -0.081,-0.001 -0.12,-0.02 z m -29.93,-0.24 c -0.07,-0.17 0,-0.38 0.17,-0.45 v 0 c 0.17,-0.08 0.38,-0.01 0.46,0.17 v 0 c 0.07,0.17 0,0.37 -0.18,0.45 v 0 c -0.04,0.021 -0.09,0.03 -0.141,0.03 v 0 c -0.129,0 -0.25,-0.07 -0.309,-0.2 z m 26.73,-0.81 c -0.181,-0.061 -0.28,-0.24 -0.23,-0.431 v 0 c 0.05,-0.18 0.25,-0.279 0.43,-0.229 v 0 c 0.181,0.05 0.28,0.24 0.23,0.43 v 0 c -0.05,0.14 -0.18,0.24 -0.33,0.24 v 0 c -0.03,0 -0.06,0 -0.1,-0.01 z m -23.591,-0.47 c -0.06,-0.18 0.04,-0.37 0.221,-0.43 v 0 c 0.18,-0.06 0.37,0.04 0.43,0.22 v 0 c 0.06,0.181 -0.04,0.37 -0.22,0.431 v 0 c -0.03,0.01 -0.07,0.02 -0.11,0.02 v 0 c -0.14,-10e-4 -0.27,-0.091 -0.321,-0.241 z m 20.33,-0.36 c -0.18,-0.04 -0.3,-0.221 -0.26,-0.4 v 0 c 0.04,-0.189 0.22,-0.31 0.41,-0.26 v 0 c 0.18,0.03 0.3,0.21 0.26,0.399 v 0 c -0.03,0.16 -0.18,0.271 -0.34,0.271 v 0 c -0.019,0 -0.039,0 -0.07,-0.01 z m -17.08,-0.57 c -0.04,-0.19 0.08,-0.37 0.27,-0.41 v 0 c 0.18,-0.04 0.36,0.08 0.399,0.26 v 0 c 0.04,0.19 -0.069,0.37 -0.26,0.41 v 0 c -0.02,0 -0.05,0.01 -0.069,0.01 v 0 c -0.159,-10e-4 -0.299,-0.11 -0.34,-0.27 z m 13.771,-0.01 v 0 0 c -0.18,-0.03 -0.32,-0.2 -0.29,-0.391 v 0 c 0.02,-0.19 0.2,-0.319 0.38,-0.29 h 0.01 c 0.181,0.021 0.311,0.2 0.29,0.391 v 0 c -0.029,0.16 -0.17,0.29 -0.34,0.29 v 0 c -0.02,0 -0.03,0 -0.05,0 z m -10.43,-0.57 c -0.021,-0.189 0.119,-0.35 0.3,-0.37 v 0 c 0.189,-0.03 0.359,0.11 0.38,0.3 v 0 c 0.02,0.19 -0.12,0.351 -0.31,0.381 v 0 c -0.01,0 -0.02,0 -0.029,0 v 0 c -0.171,-10e-4 -0.321,-0.132 -0.341,-0.311 z m 7.079,0.219 c 0,0 0,0 0.011,0 v 0 c -0.191,-0.01 -0.34,-0.17 -0.32,-0.359 v 0 c 0.01,-0.19 0.17,-0.33 0.36,-0.32 v 0 c 0.19,0.01 0.33,0.18 0.319,0.37 v 0 c -0.01,0.18 -0.159,0.32 -0.34,0.32 v 0 c -0.009,0 -0.019,-0.011 -0.03,-0.011 z m -3.699,-0.439 c -0.011,-0.19 0.149,-0.34 0.34,-0.34 v 0 c 0.18,-0.011 0.34,0.149 0.34,0.34 v 0 c 0,0.189 -0.15,0.34 -0.34,0.34 v 0 0 0 c -0.19,0 -0.34,-0.151 -0.34,-0.34 z"
   id="path89" />&#10;					<path
   style="fill:#ffffff"
   d="m 252.25,319.01 c -0.04,0 -0.09,-0.01 -0.13,-0.03 -0.04,-0.02 -0.08,-0.04 -0.11,-0.08 -0.03,-0.029 -0.06,-0.06 -0.07,-0.109 -0.02,-0.04 -0.029,-0.08 -0.029,-0.13 0,-0.091 0.04,-0.17 0.1,-0.24 0.03,-0.03 0.07,-0.06 0.11,-0.07 0.08,-0.04 0.18,-0.04 0.26,0 0.05,0.01 0.08,0.04 0.11,0.07 0.069,0.07 0.1,0.149 0.1,0.24 0,0.05 0,0.09 -0.02,0.13 -0.02,0.05 -0.039,0.08 -0.079,0.109 -0.03,0.04 -0.07,0.061 -0.11,0.08 -0.042,0.02 -0.082,0.03 -0.132,0.03 z"
   id="path90" />&#10;				</g>&#10;			</g>&#10;			<g
   id="g97">&#10;				<g
   id="g93">&#10;					<path
   style="fill:#ffffff"
   d="m 307.085,216.607 v 0 l -2.335,-2.516 c -4.145,3.868 -9.661,6.258 -15.564,6.258 -9.889,0 -17.728,-6.718 -19.513,-15.84 l -3.502,0.92 c 0,0 0,0 0,0 l -3.2,0.841 c 0.941,4.782 3.142,9.138 6.388,12.635 10.15,10.933 28.141,10.933 39.858,0 z"
   id="path91" />&#10;					<path
   style="fill:#263238"
   d="m 312.075,179.047 -3.056,2.852 c 0,0 0,0 0,0 l -2.11,1.969 c 3.591,3.861 5.605,9.206 5.182,15.108 -0.423,5.902 -3.196,11.248 -7.341,15.115 l 1.829,1.97 v 0 l 2.64,2.844 c 5.664,-5.286 9.148,-12.454 9.684,-19.929 0.534,-7.468 -1.921,-14.644 -6.828,-19.929 z"
   id="path92" />&#10;					<path
   style="fill:#407bff"
   d="m 312.075,179.047 c -10.15,-10.926 -28.142,-10.926 -39.858,0 -7.615,7.113 -11.149,17.511 -9.246,27.223 l 3.958,-1.04 c 0,0 0,0 0,0 l 2.743,-0.721 c -0.341,-1.763 -0.458,-3.624 -0.321,-5.533 0.846,-11.798 11.1,-21.367 22.898,-21.367 5.902,0 11.069,2.39 14.66,6.258 l 2.704,-2.523 c 0,0 0,0 0,0 z"
   id="path93" />&#10;				</g>&#10;				<g
   id="g96">&#10;					<path
   style="fill:#ffffff"
   d="m 340.796,216.608 v 0 l 2.696,-2.516 c -3.59,-3.868 -5.598,-9.213 -5.175,-15.115 0.709,-9.889 8.023,-18.209 17.32,-20.648 l -0.674,-3.436 c 0,0 0,0 0,0 l -0.616,-3.139 c -4.874,1.284 -9.41,3.797 -13.158,7.294 -11.717,10.934 -13.007,28.925 -2.857,39.858 z"
   id="path94" />&#10;					<path
   style="fill:#263238"
   d="m 378.192,218.905 -2.647,-2.852 c 0,0 0,0 0,0 l -1.828,-1.969 c -4.138,3.868 -9.655,6.265 -15.557,6.265 -5.902,0 -11.076,-2.39 -14.667,-6.258 l -2.111,1.97 v 0 l -3.047,2.844 c 4.907,5.286 11.862,8.255 19.337,8.255 7.466,0.001 14.855,-2.969 20.52,-8.255 z"
   id="path95" />&#10;					<path
   style="fill:#407bff"
   d="m 378.192,218.905 c 11.709,-10.934 12.999,-28.925 2.857,-39.858 -6.604,-7.105 -16.802,-9.894 -26.701,-7.294 l 0.761,3.884 c 0,0 0,0 0,0 l 0.528,2.692 c 1.797,-0.467 3.675,-0.718 5.585,-0.718 11.798,0 20.681,9.568 19.835,21.366 -0.423,5.903 -3.196,11.241 -7.341,15.108 l 2.342,2.523 c 0,0 0,0 0,0 z"
   id="path96" />&#10;				</g>&#10;			</g>&#10;			<path
   style="opacity:0.3;fill:#407bff"
   d="m 425.422,173.305 c 0.572,0 1.093,0.221 1.467,0.623 0.376,0.404 0.561,0.944 0.519,1.52 l -1.236,17.249 c -0.088,1.23 -1.201,2.269 -2.429,2.269 h -17.249 c -0.572,0 -1.093,-0.222 -1.467,-0.623 -0.376,-0.404 -0.56,-0.944 -0.519,-1.52 l 1.236,-17.249 c 0.088,-1.23 1.201,-2.269 2.429,-2.269 h 17.249 m 0,-0.882 h -17.249 c -1.698,0 -3.188,1.39 -3.31,3.088 l -1.236,17.249 c -0.122,1.699 1.168,3.088 2.867,3.088 h 17.249 c 1.699,0 3.188,-1.39 3.31,-3.088 l 1.236,-17.249 c 0.122,-1.698 -1.168,-3.088 -2.867,-3.088 z"
   id="path97" />&#10;			<path
   style="opacity:0.3;fill:#407bff"
   d="m 423.295,202.986 c 0.572,0 1.093,0.222 1.467,0.623 0.376,0.404 0.56,0.943 0.519,1.519 l -1.236,17.249 c -0.088,1.23 -1.201,2.269 -2.429,2.269 h -17.249 c -0.572,0 -1.093,-0.221 -1.467,-0.623 -0.376,-0.404 -0.56,-0.943 -0.519,-1.519 l 1.236,-17.249 c 0.088,-1.23 1.201,-2.269 2.429,-2.269 h 17.249 m 0,-0.883 h -17.249 c -1.698,0 -3.188,1.39 -3.309,3.088 L 401.5,222.44 c -0.122,1.699 1.168,3.088 2.867,3.088 h 17.249 c 1.698,0 3.188,-1.39 3.31,-3.088 l 1.236,-17.249 c 0.122,-1.698 -1.169,-3.088 -2.867,-3.088 z"
   id="path98" />&#10;			<path
   style="fill:#407bff"
   d="m 398.042,298.429 c 0.484,0 0.923,0.185 1.236,0.521 0.314,0.337 0.468,0.792 0.433,1.28 -0.076,1.062 -1.001,1.927 -2.063,1.927 -0.484,0 -0.923,-0.185 -1.236,-0.52 -0.314,-0.338 -0.468,-0.792 -0.433,-1.28 0.077,-1.064 1.002,-1.928 2.063,-1.928 m 0,-0.883 c -1.517,0 -2.834,1.229 -2.943,2.746 -0.109,1.517 1.033,2.746 2.549,2.746 1.516,0 2.834,-1.229 2.943,-2.746 0.109,-1.516 -1.032,-2.746 -2.549,-2.746 z"
   id="path99" />&#10;			<g
   id="g100">&#10;				<polygon
   style="fill:#407bff"
   points="397.886,296.65 398.325,296.682 398.262,297.561 397.822,297.53 "
   id="polygon99" />&#10;				<path
   style="fill:#407bff"
   d="m 398.454,294.875 -0.44,-0.031 0.13,-1.806 0.44,0.031 z m 0.259,-3.611 -0.439,-0.031 0.13,-1.807 0.44,0.031 z m 0.259,-3.613 -0.44,-0.031 0.13,-1.806 0.439,0.031 z m 0.258,-3.611 -0.44,-0.031 0.13,-1.807 0.44,0.031 z m 0.259,-3.612 -0.439,-0.031 0.13,-1.806 0.439,0.031 z m 0.26,-3.612 -0.439,-0.031 0.129,-1.807 0.439,0.031 z m 0.259,-3.612 -0.439,-0.031 0.129,-1.806 0.439,0.031 z m 0.259,-3.611 -0.44,-0.031 0.129,-1.807 0.439,0.031 z m 0.258,-3.613 -0.439,-0.031 0.13,-1.806 0.44,0.031 z m 0.259,-3.611 -0.44,-0.031 0.13,-1.807 0.439,0.031 z m 0.259,-3.612 -0.44,-0.031 0.13,-1.806 0.44,0.031 z"
   id="path100" />&#10;				&#10;					<rect
   x="400.673"
   y="254.47"
   transform="matrix(0.0708,-0.9975,0.9975,0.0708,118.654,636.7578)"
   style="fill:#407bff"
   width="0.88200003"
   height="0.44100001"
   id="rect100" />&#10;			</g>&#10;			<path
   style="fill:#407bff"
   d="M 419.784,254.729 H 261.436 c -0.893,0 -1.713,-0.352 -2.308,-0.991 -0.597,-0.641 -0.889,-1.486 -0.824,-2.383 l 0.781,-10.901 c 0.13,-1.822 1.719,-3.306 3.542,-3.306 h 158.349 c 0.893,0 1.713,0.351 2.307,0.989 0.597,0.641 0.89,1.487 0.825,2.385 l -0.781,10.901 c -0.131,1.822 -1.721,3.306 -3.543,3.306 z M 262.628,238.105 c -1.332,0 -2.493,1.084 -2.589,2.417 l -0.781,10.901 c -0.045,0.629 0.158,1.22 0.571,1.663 0.411,0.442 0.982,0.686 1.607,0.686 h 158.348 c 1.332,0 2.493,-1.084 2.59,-2.417 l 0.781,-10.901 c 0.045,-0.629 -0.158,-1.221 -0.572,-1.664 -0.411,-0.441 -0.981,-0.685 -1.606,-0.685 H 262.628 Z"
   id="path101" />&#10;			<path
   style="clip-rule:evenodd;opacity:0.8;fill:#ffffff;fill-rule:evenodd"
   d="M 416.384,244.176 H 266.281 c -0.816,0 -1.435,-0.667 -1.377,-1.483 v 0 c 0.058,-0.816 0.774,-1.483 1.59,-1.483 h 150.104 c 0.816,0 1.435,0.667 1.377,1.483 v 0 c -0.059,0.815 -0.775,1.483 -1.591,1.483 z"
   id="path102" />&#10;			<path
   style="clip-rule:evenodd;opacity:0.8;fill:#ffffff;fill-rule:evenodd"
   d="M 391.369,250.431 H 265.832 c -0.816,0 -1.435,-0.668 -1.377,-1.483 v 0 c 0.058,-0.816 0.774,-1.483 1.59,-1.483 h 125.536 c 0.816,0 1.435,0.668 1.377,1.483 v 0 c -0.058,0.815 -0.773,1.483 -1.589,1.483 z"
   id="path103" />&#10;		</g>&#10;	</g>&#10;</g></svg>
