<?xml version="1.0" encoding="UTF-8" standalone="no"?>
<!-- Generator: Adobe Illustrator 27.5.0, SVG Export Plug-In . SVG Version: 6.00 Build 0)  -->

<svg
   version="1.1"
   x="0px"
   y="0px"
   viewBox="0 0 199 155"
   xml:space="preserve"
   id="svg247"
   sodipodi:docname="buscar-abrir-documento.svg"
   inkscape:version="1.3 (0e150ed6c4, 2023-07-21)"
   width="199"
   height="155"
   xmlns:inkscape="http://www.inkscape.org/namespaces/inkscape"
   xmlns:sodipodi="http://sodipodi.sourceforge.net/DTD/sodipodi-0.dtd"
   xmlns="http://www.w3.org/2000/svg"
   xmlns:svg="http://www.w3.org/2000/svg"><defs
   id="defs247">&#10;	&#10;&#10;		&#10;		&#10;	&#10;			&#10;			&#10;			&#10;			&#10;			&#10;			&#10;			&#10;			&#10;			&#10;			&#10;			&#10;			&#10;			&#10;			&#10;			&#10;			&#10;			&#10;			&#10;			&#10;			&#10;			&#10;			&#10;			&#10;			&#10;		&#10;				&#10;				&#10;			&#10;					&#10;					&#10;					&#10;					&#10;					&#10;				</defs><sodipodi:namedview
   id="namedview247"
   pagecolor="#ffffff"
   bordercolor="#000000"
   borderopacity="0.25"
   inkscape:showpageshadow="2"
   inkscape:pageopacity="0.0"
   inkscape:pagecheckerboard="true"
   inkscape:deskcolor="#d1d1d1"
   inkscape:zoom="2.3221387"
   inkscape:cx="155.24482"
   inkscape:cy="94.95557"
   inkscape:window-width="2560"
   inkscape:window-height="1017"
   inkscape:window-x="1912"
   inkscape:window-y="-8"
   inkscape:window-maximized="1"
   inkscape:current-layer="svg247" />&#10;&#10;<g
   id="Background_Simple"
   style="display:none">&#10;	<g
   style="display:inline"
   id="g41">&#10;		<path
   style="fill:#407bff"
   d="m 241.936,74.075 c 7.832,-1.91 16.622,-1.622 26.341,1.643 15.617,5.247 27.043,19.004 34.173,33.856 13.796,28.739 17.651,60.899 27.547,90.911 2.714,8.23 5.923,16.453 11.228,23.305 22.071,28.507 82.754,12.137 82.176,62.137 -0.163,14.13 -7.771,27.655 -18.876,36.394 -32.69,25.724 -78.654,11.019 -113.588,-0.656 -32.732,-10.939 -61.068,-12.275 -93.872,0.819 -27.802,11.097 -56.895,29.991 -88.174,24.881 -31.807,-5.197 -46.032,-36.584 -40.707,-66.182 5.677,-31.551 30.416,-54.82 58.857,-67.405 16.966,-7.508 39.284,-12.096 52.582,-25.755 6.83,-7.015 9.803,-16.855 11.975,-26.402 3.458,-15.205 5.5,-30.795 10.651,-45.513 6.453,-18.439 19.682,-37.153 39.687,-42.033 z"
   id="path40" />&#10;		<path
   style="opacity:0.9;fill:#ffffff"
   d="m 241.936,74.075 c 7.832,-1.91 16.622,-1.622 26.341,1.643 15.617,5.247 27.043,19.004 34.173,33.856 13.796,28.739 17.651,60.899 27.547,90.911 2.714,8.23 5.923,16.453 11.228,23.305 22.071,28.507 82.754,12.137 82.176,62.137 -0.163,14.13 -7.771,27.655 -18.876,36.394 -32.69,25.724 -78.654,11.019 -113.588,-0.656 -32.732,-10.939 -61.068,-12.275 -93.872,0.819 -27.802,11.097 -56.895,29.991 -88.174,24.881 -31.807,-5.197 -46.032,-36.584 -40.707,-66.182 5.677,-31.551 30.416,-54.82 58.857,-67.405 16.966,-7.508 39.284,-12.096 52.582,-25.755 6.83,-7.015 9.803,-16.855 11.975,-26.402 3.458,-15.205 5.5,-30.795 10.651,-45.513 6.453,-18.439 19.682,-37.153 39.687,-42.033 z"
   id="path41" />&#10;	</g>&#10;</g>&#10;&#10;&#10;&#10;&#10;&#10;<g
   id="Background_Complete"
   transform="matrix(0.45732835,0,0,0.45732835,-10.758045,-32.098944)">&#10;	<g
   id="g9">&#10;		<rect
   y="382.39801"
   style="fill:#ebebeb"
   width="500"
   height="0.25"
   id="rect1"
   x="0" />&#10;		<rect
   x="416.77899"
   y="398.49399"
   style="fill:#ebebeb"
   width="33.122002"
   height="0.25"
   id="rect2" />&#10;		<rect
   x="260.33499"
   y="395.35999"
   style="fill:#ebebeb"
   width="12.887"
   height="0.25"
   id="rect3" />&#10;		<rect
   x="322.52701"
   y="396.41599"
   style="fill:#ebebeb"
   width="27.139999"
   height="0.25"
   id="rect4" />&#10;		<rect
   x="359.66699"
   y="389.20801"
   style="fill:#ebebeb"
   width="56.111"
   height="0.25"
   id="rect5" />&#10;		<rect
   x="52.459"
   y="400.77701"
   style="fill:#ebebeb"
   width="26.527"
   height="0.25"
   id="rect6" />&#10;		<rect
   x="87.889"
   y="400.77701"
   style="fill:#ebebeb"
   width="23"
   height="0.25"
   id="rect7" />&#10;		<rect
   x="131"
   y="395.23499"
   style="fill:#ebebeb"
   width="60.813999"
   height="0.25"
   id="rect8" />&#10;		<path
   style="fill:#ebebeb"
   d="M 237.014,337.799 H 43.915 c -3.147,0 -5.708,-2.561 -5.708,-5.708 V 60.66 c 0,-3.147 2.561,-5.708 5.708,-5.708 h 193.099 c 3.146,0 5.707,2.561 5.707,5.708 v 271.432 c 0,3.147 -2.561,5.707 -5.707,5.707 z M 43.915,55.202 c -3.01,0 -5.458,2.448 -5.458,5.458 v 271.432 c 0,3.01 2.448,5.458 5.458,5.458 h 193.099 c 3.009,0 5.457,-2.448 5.457,-5.458 V 60.66 c 0,-3.009 -2.448,-5.458 -5.457,-5.458 z"
   id="path8" />&#10;		<path
   style="fill:#ebebeb"
   d="M 453.31,337.799 H 260.212 c -3.147,0 -5.707,-2.561 -5.707,-5.708 V 60.66 c 0,-3.147 2.561,-5.708 5.707,-5.708 H 453.31 c 3.148,0 5.708,2.561 5.708,5.708 v 271.432 c 0.001,3.147 -2.56,5.707 -5.708,5.707 z M 260.212,55.202 c -3.009,0 -5.457,2.448 -5.457,5.458 v 271.432 c 0,3.01 2.448,5.458 5.457,5.458 H 453.31 c 3.01,0 5.458,-2.448 5.458,-5.458 V 60.66 c 0,-3.009 -2.448,-5.458 -5.458,-5.458 z"
   id="path9" />&#10;	</g>&#10;	<g
   id="g36">&#10;		<g
   id="g13">&#10;			<path
   style="fill:#e6e6e6"
   d="m 264.905,296.391 c -2.003,-5.75 -17.796,2.069 -24.205,11.598 -4.268,6.346 -6.876,13.12 -8.094,22.219 0.146,-10.382 0.312,-21.537 0.474,-32.065 1.296,-2.625 4.256,-8.677 6.384,-13.472 7.103,-16 23.993,-21.958 29.827,-32.06 7.645,-13.237 7.601,-33.092 1.093,-40.257 -5.656,-6.226 -24.386,35.875 -26.495,40.579 -7.256,16.179 -9.365,28.185 -10.726,39.817 0.155,-9.887 0.303,-18.965 0.424,-25.97 0.397,-22.846 0.892,-30.195 1.119,-32.456 0.782,-1.104 1.705,-2.391 2.242,-3.082 4.533,-5.835 14.589,-12.782 19.615,-21.264 7.338,-12.386 6.153,-27.209 1.006,-32.729 -5.382,-5.771 -14.897,7.869 -19.948,21.385 -5.051,13.516 -2.893,26.452 -4.309,37.676 -0.296,2.202 -0.601,10.564 -0.887,22.162 -1.532,-12.48 -4.585,-20.841 -10.242,-28.632 -6.958,-9.583 -12.964,-21.252 -18.697,-19.744 -5.733,1.508 -2.647,16.948 1.889,27.788 4.039,9.653 23.965,19.282 26.9,27.043 -0.346,15.722 -0.655,35.64 -0.874,54.184 -1.571,-9.579 -0.491,-10.383 -6.928,-25.048 -3.827,-8.719 -19.516,-19.47 -21.387,-13.48 -1.836,5.879 0.973,17.312 6.896,25.242 4.778,6.397 15.379,6.389 17.832,10.358 0.572,0.926 2.465,4.476 3.546,6.517 -0.256,22.641 -0.371,42.625 -0.244,49.439 l 1.028,0.069 c -0.049,-1.759 0.075,-13.277 0.277,-28.518 2.574,-8.11 19.904,-12.844 25.258,-21.277 5.603,-8.826 9.629,-19.125 7.226,-26.022 z"
   id="path10" />&#10;			<g
   id="g12">&#10;				<path
   style="fill:#f0f0f0"
   d="m 248.609,382.398 h -33.263 c -1.817,0 -3.383,-1.28 -3.745,-3.061 l -2.361,-11.641 h 45.474 l -2.361,11.641 c -0.36,1.781 -1.926,3.061 -3.744,3.061 z"
   id="path11" />&#10;				<path
   style="fill:#f0f0f0"
   d="M 255.667,372.208 H 208.29 c -1.135,0 -2.089,-0.853 -2.216,-1.981 l -0.969,-8.606 c -0.149,-1.322 0.886,-2.48 2.216,-2.48 h 49.314 c 1.331,0 2.365,1.158 2.216,2.48 l -0.969,8.606 c -0.126,1.129 -1.08,1.981 -2.215,1.981 z"
   id="path12" />&#10;			</g>&#10;		</g>&#10;		<g
   id="g20">&#10;			<g
   id="g19">&#10;				&#10;					<rect
   x="400.763"
   y="242.32201"
   transform="rotate(180,416.688,310.2768)"
   style="fill:#f0f0f0"
   width="31.851"
   height="135.909"
   id="rect13" />&#10;				&#10;					<rect
   x="265.453"
   y="378.23099"
   transform="rotate(180,347.96085,380.31465)"
   style="fill:#f0f0f0"
   width="165.015"
   height="4.1669998"
   id="rect14" />&#10;				<rect
   x="263.30801"
   y="242.32201"
   style="fill:#f5f5f5"
   width="137.45399"
   height="135.909"
   id="rect15" />&#10;				<rect
   x="275.83099"
   y="295.888"
   style="fill:#f0f0f0"
   width="112.41"
   height="28.778"
   id="rect16" />&#10;				<rect
   x="275.83099"
   y="332.92801"
   style="fill:#f0f0f0"
   width="112.41"
   height="28.778"
   id="rect17" />&#10;				<path
   style="fill:#f5f5f5"
   d="m 319.416,300.853 h 25.239 c 1.708,0 3.106,-1.398 3.106,-3.106 v 0 c 0,-1.708 -1.398,-3.106 -3.106,-3.106 h -25.239 c -1.708,0 -3.106,1.398 -3.106,3.106 v 0 c 0,1.708 1.398,3.106 3.106,3.106 z"
   id="path17" />&#10;				<rect
   x="275.83099"
   y="258.84698"
   style="fill:#f0f0f0"
   width="112.41"
   height="28.778"
   id="rect18" />&#10;				<path
   style="fill:#f5f5f5"
   d="m 319.416,263.813 h 25.239 c 1.708,0 3.106,-1.398 3.106,-3.106 v 0 c 0,-1.708 -1.398,-3.106 -3.106,-3.106 h -25.239 c -1.708,0 -3.106,1.398 -3.106,3.106 v 0 c 0,1.708 1.398,3.106 3.106,3.106 z"
   id="path18" />&#10;				<path
   style="fill:#f5f5f5"
   d="m 319.416,337.893 h 25.239 c 1.708,0 3.106,-1.398 3.106,-3.106 v 0 c 0,-1.708 -1.398,-3.106 -3.106,-3.106 h -25.239 c -1.708,0 -3.106,1.398 -3.106,3.106 v 0 c 0,1.709 1.398,3.106 3.106,3.106 z"
   id="path19" />&#10;			</g>&#10;			&#10;				<rect
   x="260.48199"
   y="238.44501"
   transform="rotate(180,330.6222,240.3837)"
   style="fill:#f0f0f0"
   width="140.28101"
   height="3.8770001"
   id="rect19" />&#10;			<rect
   x="400.763"
   y="238.44501"
   style="fill:#e6e6e6"
   width="34.883999"
   height="3.8770001"
   id="rect20" />&#10;		</g>&#10;		<g
   id="g26">&#10;			<g
   id="g25">&#10;				&#10;					<rect
   x="147.41901"
   y="178.87199"
   transform="rotate(180,163.1521,280.6349)"
   style="fill:#e0e0e0"
   width="31.466999"
   height="203.526"
   id="rect21" />&#10;				<polygon
   style="fill:#e6e6e6"
   points="78.28,131.885 67.212,382.398 172.582,382.398 183.651,131.885 "
   id="polygon21" />&#10;				<polygon
   style="fill:#f0f0f0"
   points="62.909,131.885 51.84,382.398 168.395,382.398 179.464,131.885 "
   id="polygon22" />&#10;				<polygon
   style="fill:#ffffff"
   points="64.994,370.117 156.986,370.117 166.31,144.166 74.318,144.166 "
   id="polygon23" />&#10;				<polygon
   style="fill:#fafafa"
   points="107.649,370.117 117.459,370.117 148.728,144.166 138.917,144.166 "
   id="polygon24" />&#10;				<polygon
   style="fill:#fafafa"
   points="86.763,370.117 103.491,370.117 134.76,144.166 118.032,144.166 "
   id="polygon25" />&#10;			</g>&#10;		</g>&#10;		<g
   id="g35">&#10;			<g
   id="g33">&#10;				<g
   id="g32">&#10;					&#10;						<rect
   x="293.46399"
   y="80.820999"
   transform="rotate(180,357.22975,140.46885)"
   style="fill:#e6e6e6"
   width="127.532"
   height="119.296"
   id="rect26" />&#10;					&#10;						<rect
   x="289.50601"
   y="80.820999"
   transform="rotate(180,354.32605,140.46885)"
   style="fill:#f5f5f5"
   width="129.64"
   height="119.296"
   id="rect27" />&#10;					&#10;						<rect
   x="293.46399"
   y="200.117"
   transform="rotate(180,357.22975,202.5583)"
   style="fill:#e6e6e6"
   width="127.532"
   height="4.8829999"
   id="rect28" />&#10;					&#10;						<rect
   x="285.95401"
   y="200.117"
   transform="rotate(180,346.4435,202.5583)"
   style="fill:#f5f5f5"
   width="120.979"
   height="4.8829999"
   id="rect29" />&#10;					&#10;						<rect
   x="302.07001"
   y="81.190002"
   transform="rotate(90,354.32615,140.46885)"
   style="fill:#fafafa"
   width="104.512"
   height="118.558"
   id="rect30" />&#10;					&#10;						<rect
   x="243.186"
   y="140.07401"
   transform="rotate(90,295.44205,140.46885)"
   style="fill:#e6e6e6"
   width="104.512"
   height="0.79000002"
   id="rect31" />&#10;					<polygon
   style="fill:#ffffff"
   points="367.072,192.725 393.944,192.725 373.445,88.213 346.572,88.213 "
   id="polygon31" />&#10;					<polygon
   style="fill:#ffffff"
   points="350.587,192.725 362.723,192.725 342.224,88.213 330.088,88.213 "
   id="polygon32" />&#10;				</g>&#10;			</g>&#10;			<path
   style="fill:#ebebeb"
   d="M 409.642,187.054 V 76.716 c 0,-0.336 -0.275,-0.61 -0.61,-0.61 h -0.048 c -0.336,0 -0.61,0.275 -0.61,0.61 v 110.338 c 0,0.336 0.275,0.61 0.61,0.61 h 0.048 c 0.336,0 0.61,-0.274 0.61,-0.61 z"
   id="path33" />&#10;			&#10;				<rect
   x="286.599"
   y="76.106003"
   transform="rotate(180,354.87315,85.2354)"
   style="opacity:0.5;fill:#e6e6e6"
   width="136.548"
   height="18.259001"
   id="rect33" />&#10;			&#10;				<rect
   x="286.599"
   y="76.106003"
   transform="rotate(180,354.87315,77.2403)"
   style="fill:#e0e0e0"
   width="136.548"
   height="2.2690001"
   id="rect34" />&#10;			<path
   style="fill:#ebebeb"
   d="m 286.824,77.101 h 136.098 c 0.479,0 0.87,-0.392 0.87,-0.87 v -0.25 c 0,-0.479 -0.392,-0.87 -0.87,-0.87 H 286.824 c -0.479,0 -0.87,0.392 -0.87,0.87 v 0.25 c 0,0.479 0.392,0.87 0.87,0.87 z"
   id="path34" />&#10;			<path
   style="fill:#ffffff"
   d="m 286.43,94.84 h 136.887 c 0.262,0 0.476,-0.214 0.476,-0.476 v 0 c 0,-0.262 -0.214,-0.476 -0.476,-0.476 H 286.43 c -0.262,0 -0.476,0.214 -0.476,0.476 v 0 c 0,0.262 0.214,0.476 0.476,0.476 z"
   id="path35" />&#10;		</g>&#10;	</g>&#10;</g><g
   id="Shadow_1_"
   transform="matrix(0.46949491,0,0,0.46949491,-17.990471,-49.984665)">&#10;	<ellipse
   id="_x3C_Path_x3E__80_"
   style="fill:#f5f5f5"
   cx="250"
   cy="416.23801"
   rx="193.88901"
   ry="11.323" />&#10;</g><g
   id="Folder"
   transform="matrix(0.46949491,0,0,0.46949491,-17.990471,-49.984665)">&#10;	<g
   id="g67">&#10;		&#10;			<rect
   x="64.733002"
   y="272.086"
   transform="matrix(0.9932,-0.1162,0.1162,0.9932,-32.0674,9.4739)"
   style="fill:#407bff"
   width="1.016"
   height="15.501"
   id="rect37" />&#10;		&#10;			<rect
   x="66.755997"
   y="293.23001"
   transform="matrix(0.9932,-0.1162,0.1162,0.9932,-34.0654,9.8267)"
   style="fill:#407bff"
   width="1.016"
   height="7.8169999"
   id="rect38" />&#10;		<path
   style="fill:#407bff"
   d="m 134.587,240.688 -1.2,-3.364 c -1.701,-4.769 -6.47,-7.732 -11.499,-7.144 l -47.791,5.59 c -5.962,0.697 -10.229,6.095 -9.532,12.057 L 78.169,364.13 c 0.478,4.088 4.18,7.015 8.268,6.537 l 170.989,-19.999 c 4.088,-0.478 7.015,-4.18 6.537,-8.268 L 252.204,241.86 c -0.478,-4.088 -4.18,-7.015 -8.268,-6.537 l -99.291,11.613 c -4.399,0.514 -8.57,-2.077 -10.058,-6.248 z"
   id="path38" />&#10;		<g
   id="g45">&#10;			<g
   id="g40">&#10;				&#10;					<rect
   x="92.223"
   y="194.761"
   transform="matrix(0.9807,-0.1955,0.1955,0.9807,-43.174,27.8974)"
   style="fill:#407bff"
   width="55.09"
   height="75.897003"
   id="rect39" />&#10;				&#10;					<rect
   x="92.223"
   y="194.761"
   transform="matrix(0.9807,-0.1955,0.1955,0.9807,-43.174,27.8974)"
   style="opacity:0.7;fill:#ffffff"
   width="55.09"
   height="75.897003"
   id="rect40" />&#10;			</g>&#10;			<g
   style="opacity:0.4"
   id="g44">&#10;				<path
   style="fill:#407bff"
   d="m 132.149,208.023 -33.281,6.633 c -1.614,0.322 -3.183,-0.726 -3.505,-2.34 v 0 c -0.322,-1.614 0.726,-3.183 2.34,-3.505 l 33.281,-6.633 c 1.614,-0.322 3.183,0.726 3.505,2.34 v 0 c 0.322,1.614 -0.726,3.183 -2.34,3.505 z"
   id="path40-3" />&#10;				<path
   style="fill:#407bff"
   d="m 134.602,220.33 -33.281,6.633 c -1.614,0.322 -3.183,-0.726 -3.505,-2.34 v 0 c -0.322,-1.614 0.726,-3.183 2.34,-3.505 l 33.281,-6.633 c 1.614,-0.322 3.183,0.726 3.505,2.34 v 0 c 0.321,1.615 -0.726,3.184 -2.34,3.505 z"
   id="path41-5" />&#10;				<path
   style="fill:#407bff"
   d="m 137.055,232.638 -33.281,6.633 c -1.614,0.322 -3.183,-0.726 -3.505,-2.34 v 0 c -0.322,-1.614 0.726,-3.183 2.34,-3.505 l 33.281,-6.633 c 1.614,-0.322 3.183,0.726 3.505,2.34 v 0 c 0.321,1.614 -0.726,3.183 -2.34,3.505 z"
   id="path42" />&#10;				<path
   style="fill:#407bff"
   d="m 139.508,244.945 -33.281,6.633 c -1.614,0.322 -3.183,-0.726 -3.505,-2.34 v 0 c -0.322,-1.614 0.726,-3.183 2.34,-3.505 l 33.281,-6.633 c 1.614,-0.322 3.183,0.726 3.505,2.34 v 0 c 0.321,1.615 -0.726,3.184 -2.34,3.505 z"
   id="path43" />&#10;				<path
   style="fill:#407bff"
   d="m 132.865,259.066 -24.185,4.82 c -1.614,0.322 -3.183,-0.726 -3.505,-2.34 v 0 c -0.322,-1.614 0.726,-3.183 2.34,-3.505 l 24.185,-4.82 c 1.614,-0.322 3.183,0.726 3.505,2.34 v 0 c 0.321,1.614 -0.726,3.183 -2.34,3.505 z"
   id="path44" />&#10;			</g>&#10;		</g>&#10;		<g
   id="g52">&#10;			<g
   id="g46">&#10;				&#10;					<rect
   x="166.65601"
   y="179.13901"
   transform="matrix(0.9908,-0.1356,0.1356,0.9908,-27.6431,28.3385)"
   style="fill:#407bff"
   width="55.09"
   height="75.897003"
   id="rect45" />&#10;				&#10;					<rect
   x="166.65601"
   y="179.13901"
   transform="matrix(0.9908,-0.1356,0.1356,0.9908,-27.6431,28.3385)"
   style="opacity:0.7;fill:#ffffff"
   width="55.09"
   height="75.897003"
   id="rect46" />&#10;			</g>&#10;			<g
   style="opacity:0.4"
   id="g51">&#10;				<path
   style="fill:#407bff"
   d="m 208.057,193.197 -33.622,4.602 c -1.63,0.223 -3.133,-0.918 -3.356,-2.548 v 0 c -0.223,-1.63 0.918,-3.133 2.548,-3.356 l 33.622,-4.602 c 1.63,-0.223 3.133,0.918 3.356,2.548 v 0 c 0.224,1.631 -0.917,3.133 -2.548,3.356 z"
   id="path46" />&#10;				<path
   style="fill:#407bff"
   d="m 209.759,205.631 -33.622,4.602 c -1.63,0.223 -3.133,-0.918 -3.356,-2.548 v 0 c -0.223,-1.631 0.918,-3.133 2.548,-3.356 l 33.622,-4.601 c 1.63,-0.223 3.133,0.918 3.356,2.548 v 0 c 0.223,1.629 -0.918,3.132 -2.548,3.355 z"
   id="path47" />&#10;				<path
   style="fill:#407bff"
   d="m 187.103,221.398 -9.264,1.268 c -1.63,0.223 -3.133,-0.918 -3.356,-2.548 v 0 c -0.223,-1.631 0.918,-3.133 2.548,-3.356 l 9.264,-1.268 c 1.63,-0.223 3.133,0.918 3.356,2.548 v 0 c 0.223,1.631 -0.917,3.133 -2.548,3.356 z"
   id="path48" />&#10;				<path
   style="fill:#407bff"
   d="m 205.068,218.94 -9.264,1.268 c -1.63,0.223 -3.133,-0.918 -3.356,-2.548 v 0 c -0.223,-1.63 0.918,-3.133 2.548,-3.356 l 9.264,-1.268 c 1.63,-0.223 3.133,0.918 3.356,2.548 v 0 c 0.223,1.63 -0.918,3.133 -2.548,3.356 z"
   id="path49" />&#10;				<path
   style="fill:#407bff"
   d="m 213.162,230.499 -33.622,4.602 c -1.63,0.223 -3.133,-0.918 -3.356,-2.548 v 0 c -0.223,-1.631 0.918,-3.133 2.548,-3.356 l 33.622,-4.602 c 1.631,-0.223 3.133,0.918 3.356,2.548 v 0 c 0.224,1.63 -0.917,3.132 -2.548,3.356 z"
   id="path50" />&#10;				<path
   style="fill:#407bff"
   d="m 205.675,244.19 -24.433,3.344 c -1.63,0.223 -3.133,-0.918 -3.356,-2.548 v 0 c -0.223,-1.63 0.918,-3.133 2.548,-3.356 l 24.433,-3.344 c 1.63,-0.223 3.133,0.918 3.356,2.548 v 0 c 0.224,1.63 -0.917,3.133 -2.548,3.356 z"
   id="path51" />&#10;			</g>&#10;		</g>&#10;		<g
   id="g58">&#10;			<g
   id="g53">&#10;				&#10;					<rect
   x="113.152"
   y="188.989"
   transform="matrix(0.9962,-0.0868,0.0868,0.9962,-19.1723,13.0729)"
   style="fill:#407bff"
   width="55.09"
   height="75.897003"
   id="rect52" />&#10;				&#10;					<rect
   x="113.152"
   y="188.989"
   transform="matrix(0.9962,-0.0868,0.0868,0.9962,-19.1723,13.0729)"
   style="opacity:0.8;fill:#ffffff"
   width="55.09"
   height="75.897003"
   id="rect53" />&#10;			</g>&#10;			<g
   style="opacity:0.4"
   id="g57">&#10;				<path
   style="fill:#407bff"
   d="m 155.709,203.756 -33.807,2.946 c -1.639,0.143 -3.084,-1.07 -3.227,-2.71 v 0 c -0.143,-1.639 1.07,-3.084 2.71,-3.227 l 33.807,-2.946 c 1.639,-0.143 3.084,1.07 3.227,2.71 v 0 c 0.142,1.64 -1.071,3.084 -2.71,3.227 z"
   id="path53" />&#10;				<path
   style="fill:#407bff"
   d="m 156.798,216.259 -33.807,2.946 c -1.639,0.143 -3.084,-1.07 -3.227,-2.71 v 0 c -0.143,-1.639 1.07,-3.084 2.71,-3.227 l 33.807,-2.947 c 1.639,-0.143 3.084,1.07 3.227,2.71 v 0 c 0.143,1.64 -1.07,3.085 -2.71,3.228 z"
   id="path54" />&#10;				<path
   style="fill:#407bff"
   d="m 157.888,228.761 -33.807,2.946 c -1.639,0.143 -3.084,-1.07 -3.227,-2.71 v 0 c -0.143,-1.64 1.07,-3.084 2.71,-3.227 l 33.807,-2.946 c 1.639,-0.143 3.084,1.07 3.227,2.71 v 0 c 0.143,1.639 -1.071,3.084 -2.71,3.227 z"
   id="path55" />&#10;				<path
   style="fill:#407bff"
   d="m 158.978,241.263 -33.807,2.946 c -1.64,0.143 -3.084,-1.07 -3.227,-2.71 v 0 c -0.143,-1.639 1.07,-3.084 2.71,-3.227 l 33.807,-2.946 c 1.639,-0.143 3.084,1.07 3.227,2.71 v 0 c 0.142,1.639 -1.071,3.084 -2.71,3.227 z"
   id="path56" />&#10;				<path
   style="fill:#407bff"
   d="m 150.828,254.571 -24.567,2.141 c -1.639,0.143 -3.084,-1.07 -3.227,-2.71 v 0 c -0.143,-1.639 1.07,-3.084 2.71,-3.227 l 24.567,-2.141 c 1.639,-0.143 3.084,1.07 3.227,2.71 v 0 c 0.142,1.639 -1.071,3.084 -2.71,3.227 z"
   id="path57" />&#10;			</g>&#10;		</g>&#10;		<g
   id="g65">&#10;			<g
   id="g59">&#10;				&#10;					<rect
   x="178.502"
   y="184.336"
   transform="matrix(0.9988,-0.0482,0.0482,0.9988,-10.4788,10.194)"
   style="fill:#407bff"
   width="55.09"
   height="75.897003"
   id="rect58" />&#10;				&#10;					<rect
   x="178.502"
   y="184.336"
   transform="matrix(0.9988,-0.0482,0.0482,0.9988,-10.4788,10.194)"
   style="opacity:0.8;fill:#ffffff"
   width="55.09"
   height="75.897003"
   id="rect59" />&#10;			</g>&#10;			<g
   style="opacity:0.4"
   id="g64">&#10;				<path
   style="fill:#407bff"
   d="m 221.944,199.702 -33.896,1.636 c -1.644,0.079 -3.041,-1.189 -3.12,-2.833 v 0 c -0.079,-1.644 1.189,-3.041 2.832,-3.12 l 33.896,-1.636 c 1.644,-0.079 3.04,1.189 3.12,2.833 v 0 c 0.08,1.643 -1.189,3.04 -2.832,3.12 z"
   id="path59" />&#10;				<path
   style="fill:#407bff"
   d="m 222.549,212.237 -33.896,1.636 c -1.644,0.079 -3.04,-1.189 -3.12,-2.833 v 0 c -0.079,-1.644 1.189,-3.041 2.833,-3.12 l 33.896,-1.636 c 1.644,-0.079 3.041,1.189 3.12,2.833 v 0 c 0.079,1.643 -1.189,3.04 -2.833,3.12 z"
   id="path60" />&#10;				<path
   style="fill:#407bff"
   d="m 198.598,225.957 -9.34,0.451 c -1.644,0.079 -3.041,-1.189 -3.12,-2.833 v 0 c -0.079,-1.644 1.189,-3.04 2.832,-3.12 l 9.34,-0.451 c 1.644,-0.079 3.041,1.189 3.12,2.833 v 0 c 0.08,1.644 -1.188,3.041 -2.832,3.12 z"
   id="path61" />&#10;				<path
   style="fill:#407bff"
   d="m 216.709,225.083 -9.34,0.451 c -1.644,0.079 -3.041,-1.189 -3.12,-2.833 v 0 c -0.079,-1.644 1.189,-3.04 2.833,-3.12 l 9.34,-0.451 c 1.644,-0.079 3.041,1.189 3.12,2.833 v 0 c 0.079,1.644 -1.189,3.04 -2.833,3.12 z"
   id="path62" />&#10;				<path
   style="fill:#407bff"
   d="m 223.759,237.307 -33.896,1.636 c -1.644,0.079 -3.04,-1.189 -3.12,-2.833 v 0 c -0.079,-1.644 1.189,-3.041 2.833,-3.12 l 33.896,-1.636 c 1.644,-0.079 3.041,1.189 3.12,2.833 v 0 c 0.079,1.644 -1.189,3.04 -2.833,3.12 z"
   id="path63" />&#10;				<path
   style="fill:#407bff"
   d="m 215.101,250.289 -24.632,1.189 c -1.644,0.079 -3.041,-1.189 -3.12,-2.833 v 0 c -0.079,-1.644 1.189,-3.041 2.833,-3.12 l 24.632,-1.189 c 1.644,-0.079 3.041,1.189 3.12,2.833 v 0 c 0.078,1.644 -1.19,3.041 -2.833,3.12 z"
   id="path64" />&#10;			</g>&#10;		</g>&#10;		<g
   id="g66">&#10;			<path
   style="fill:#407bff"
   d="m 149.849,242.841 -0.876,-3.291 c -1.242,-4.666 -5.686,-7.555 -10.715,-6.967 l -47.791,5.589 c -5.962,0.697 -10.682,5.993 -10.543,11.829 l 2.712,113.845 c 0.095,4.002 3.487,6.858 7.575,6.38 L 261.2,350.227 c 4.088,-0.478 7.325,-4.11 7.23,-8.112 l -2.344,-98.414 c -0.095,-4.002 -3.487,-6.858 -7.575,-6.38 l -99.291,11.613 c -4.398,0.514 -8.285,-2.013 -9.371,-6.093 z"
   id="path65" />&#10;			<path
   style="opacity:0.3"
   d="m 149.849,242.841 -0.876,-3.291 c -1.242,-4.666 -5.686,-7.555 -10.715,-6.967 l -47.791,5.589 c -5.962,0.697 -10.682,5.993 -10.543,11.829 l 2.712,113.845 c 0.095,4.002 3.487,6.858 7.575,6.38 L 261.2,350.227 c 4.088,-0.478 7.325,-4.11 7.23,-8.112 l -2.344,-98.414 c -0.095,-4.002 -3.487,-6.858 -7.575,-6.38 l -99.291,11.613 c -4.398,0.514 -8.285,-2.013 -9.371,-6.093 z"
   id="path66" />&#10;		</g>&#10;	</g>&#10;</g><g
   id="Character_1_"
   transform="matrix(0.46949491,0,0,0.46949491,-17.990471,-49.984665)">&#10;	<g
   id="g117">&#10;		<path
   style="fill:#ffc3bd"
   d="m 317.028,188.109 c -0.738,3.716 -1.53,7.369 -2.417,11.023 -0.87,3.652 -1.761,7.298 -2.731,10.926 l -1.477,5.435 -0.194,0.695 c -0.089,0.299 -0.188,0.601 -0.305,0.911 -0.235,0.62 -0.533,1.269 -0.979,1.931 -0.436,0.657 -1.053,1.349 -1.866,1.898 -0.81,0.552 -1.818,0.904 -2.731,0.986 -1.863,0.145 -3.199,-0.415 -4.288,-0.947 -1.085,-0.575 -1.97,-1.233 -2.779,-1.923 -1.609,-1.407 -2.877,-2.887 -4.07,-4.588 l 2.781,-2.501 c 1.356,1.031 2.864,2.083 4.296,2.853 0.714,0.391 1.431,0.716 2.059,0.892 0.615,0.2 1.15,0.173 1.156,0.071 0.014,-0.037 -0.098,-0.038 -0.15,-0.032 -0.058,-0.001 -0.046,-0.025 10e-4,-0.167 0.044,-0.135 0.117,-0.349 0.181,-0.615 l 0.23,-1.101 1.167,-5.463 2.349,-10.92 c 0.761,-3.639 1.578,-7.287 2.371,-10.889 z"
   id="path67" />&#10;		<path
   style="fill:#263238"
   d="m 313.685,176.682 c -8.531,6.531 -8.188,18.837 -8.188,18.837 l 15.258,3.647 c 0,0 4.682,-12.373 2.782,-16.904 -1.982,-4.727 -5.051,-9.256 -9.852,-5.58 z"
   id="path68" />&#10;		<path
   style="fill:#ffc3bd"
   d="m 296.756,212.149 -5.61,-5.609 -3.026,8.776 c 0,0 4.736,2.557 9.269,0.147 z"
   id="path69" />&#10;		<polygon
   style="fill:#ffc3bd"
   points="282.352,212.609 288.12,215.316 291.146,206.54 283.383,205.674 "
   id="polygon69" />&#10;		<polygon
   style="fill:#ffc3bd"
   points="354.541,409.697 345.612,389.273 354.193,388.434 363.122,408.858 "
   id="polygon70" />&#10;		<polygon
   style="fill:#ffc3bd"
   points="411.954,384.715 398.041,369.423 404.485,363.372 418.399,378.664 "
   id="polygon71" />&#10;		<path
   style="fill:#263238"
   d="m 408.979,381.812 4.843,-8.726 c 0.176,-0.318 0.54,-0.453 0.874,-0.325 l 7.456,2.838 c 0.773,0.294 1.109,1.286 0.69,2.012 -1.741,3.013 -2.733,4.38 -4.863,8.217 -1.31,2.361 -3.862,7.775 -5.671,11.035 -1.77,3.189 -5.129,1.645 -4.668,0.125 2.069,-6.813 1.68,-10.606 1.096,-13.613 -0.106,-0.542 -0.015,-1.098 0.243,-1.563 z"
   id="path71" />&#10;		<path
   style="fill:#263238"
   d="m 353.401,407.045 h 10.538 c 0.383,0 0.73,0.266 0.832,0.641 l 2.292,8.338 c 0.238,0.865 -0.399,1.66 -1.286,1.668 -3.714,0.034 -5.474,0.017 -10.109,0.017 -2.851,0 -10.227,0 -14.164,0 -3.851,0 -4.656,-3.893 -3.063,-4.246 7.144,-1.581 11.263,-3.761 13.467,-5.841 0.399,-0.375 0.933,-0.577 1.493,-0.577 z"
   id="path72" />&#10;		<polygon
   style="opacity:0.2"
   points="350.217,399.806 359.168,399.806 354.201,388.439 345.616,389.278 "
   id="polygon72" />&#10;		<polygon
   style="opacity:0.2"
   points="398.043,369.429 405.218,377.308 411.666,371.254 404.491,363.375 "
   id="polygon73" />&#10;		<path
   style="fill:#263238"
   d="m 316.261,175.417 c 0,0 -3.857,1.697 9.08,52.896 14.263,-1.234 29.004,-2.508 35.944,-3.109 -1.868,-14.577 -2.666,-23.596 1.73,-54.223 0,0 -7.673,-0.987 -15.437,-0.691 -6.074,0.232 -11.046,0.467 -16.322,1.412 -6.955,1.247 -14.995,3.715 -14.995,3.715 z"
   id="path73" />&#10;		<path
   style="fill:#ffffff"
   d="m 347.577,170.04 c 0,0 2.039,0.036 4.448,0.036 1.446,2.234 -3.258,11.998 -11.039,18.393 -1.875,-5.829 -6.248,-9.056 -6.248,-9.056 z"
   id="path74" />&#10;		<path
   style="fill:#ffffff"
   d="m 331.261,171.573 c 0,0 -0.909,0.129 -3.085,0.625 -1.446,2.234 -3.898,11.759 0.369,16.621 1.665,-6.001 6.193,-9.407 6.193,-9.407 z"
   id="path75" />&#10;		<path
   style="fill:#ffc3bd"
   d="m 344.371,152.053 c -0.575,5.341 -0.771,15.052 3.207,18.238 0,0 -4.248,4.336 -12.839,9.122 -6.25,-4.318 -3.482,-7.71 -3.482,-7.71 5.735,-1.905 5.208,-6.237 3.835,-10.229 z"
   id="path76" />&#10;		<g
   id="g81">&#10;			<path
   style="fill:#407bff"
   d="m 334.593,179.44 c 0,0 5.271,-5.738 7.991,-4.636 2.72,1.102 0.62,3.069 0.377,4.915 -0.242,1.846 1.058,6.772 -2.591,5.493 -3.649,-1.281 -5.777,-5.772 -5.777,-5.772 z"
   id="path77" />&#10;			<path
   style="fill:#407bff"
   d="m 334.379,179.323 c 0,0 -2.486,-4.402 -5.176,-3.815 -2.69,0.587 -1.089,2.134 -0.851,3.789 0.306,2.128 -1.936,6.2 1.308,5.05 3.157,-1.119 4.719,-5.024 4.719,-5.024 z"
   id="path78" />&#10;			<g
   style="opacity:0.2"
   id="g80">&#10;				<path
   d="m 333.012,178.369 c 0.027,1.23 0.205,2.078 0.503,2.586 0.569,-0.907 0.862,-1.629 0.862,-1.629 0,0 -0.483,-0.862 -1.27,-1.769 -0.077,0.201 -0.102,0.465 -0.095,0.812 z"
   id="path79" />&#10;				<path
   d="m 336.51,177.584 c -1.126,0.993 -1.915,1.852 -1.915,1.852 0,0 0.358,0.749 1.029,1.733 0.446,-0.378 0.812,-1.07 0.974,-2.273 0.093,-0.622 0.045,-1.031 -0.088,-1.312 z"
   id="path80" />&#10;			</g>&#10;			<path
   style="fill:#407bff"
   d="m 334.526,181.244 c -0.744,0.003 -1.204,-0.814 -1.259,-2.747 -0.055,-1.932 1.432,-0.859 1.432,-0.859 0,0 1.975,-1.033 1.641,1.317 -0.259,1.827 -1.044,2.286 -1.814,2.289 z"
   id="path81" />&#10;		</g>&#10;		<path
   style="opacity:0.2"
   d="m 340.588,155.897 -5.492,5.572 c 0.328,0.945 0.603,1.907 0.754,2.854 2.209,-0.517 5.407,-2.813 5.442,-5.176 0.017,-1.178 -0.467,-2.723 -0.704,-3.25 z"
   id="path82" />&#10;		<path
   style="fill:#263238"
   d="m 335.882,134.012 c 0,0 -5.981,8.311 -6.97,12.041 -4.081,2.373 -4.905,-9.334 -2.741,-16.556 6.704,4.178 9.711,4.515 9.711,4.515 z"
   id="path83" />&#10;		<path
   style="fill:#ffc3bd"
   d="m 349.069,143.708 c -2.228,8.53 -2.988,12.188 -8.221,15.763 -7.87,5.377 -17.861,0.775 -18.226,-8.249 -0.329,-8.122 3.369,-20.708 12.496,-22.482 8.992,-1.748 16.178,6.438 13.951,14.968 z"
   id="path84" />&#10;		<path
   style="fill:#263238"
   d="m 353.706,140.305 c 0,0 -4.286,6.943 -4.863,9.963 -3.11,2.116 -4.424,-7.143 -3.11,-13.005 1.43,-5.172 7.973,3.042 7.973,3.042 z"
   id="path85" />&#10;		<path
   style="fill:#263238"
   d="m 351.997,135.468 c -1.235,0.939 -2.552,-2.532 -1.313,-5.189 -2.373,0.147 -5.224,-1.26 -4.616,-3.546 -4.666,1.564 -6.398,-3.186 -5.86,-6.473 0.65,-3.973 4.135,-4.85 6.181,-3.801 0.041,-1.786 4.519,-5.523 6.237,-2.601 3.191,-1.126 8.33,-0.779 8.228,3.14 2.109,0.066 8.332,2.452 6.039,8.05 2.745,0.163 4.234,3.656 2.706,6.292 3.52,2.064 2.215,5.648 0.875,6.903 1.267,2.64 -2.587,6.565 -4.63,6.093 -1.562,2.396 -3.954,4.194 -5.518,2.151 -3.038,2.214 -6.441,-0.593 -5.671,-2.756 -3.442,-0.567 -6.917,-6.245 -2.658,-8.263 z"
   id="path86" />&#10;		<path
   style="fill:#407bff"
   d="m 357.081,127.073 c 2.24,3.738 2.054,7.968 -0.416,9.448 -2.469,1.48 -6.287,-0.351 -8.527,-4.09 -2.24,-3.738 -2.054,-7.968 0.415,-9.448 2.47,-1.479 6.288,0.352 8.528,4.09 z"
   id="path87" />&#10;		<path
   style="fill:#263238"
   d="m 336.283,132.967 c -0.137,1.073 -3.087,0.795 -3.937,-1.093 -1.216,1.277 -4.085,1.941 -5.067,0.55 -1.656,3.115 -4.983,2.3 -5.854,0.803 -0.872,-1.497 -1.431,-4.257 0.293,-4.802 -1.005,-0.866 -0.701,-4.914 1.921,-4.406 1.101,-2.157 4.116,-4.609 6.314,-2.702 1.193,-1.042 5.976,-3.08 7.94,0.737 1.598,-1.32 4.423,-0.425 5.102,1.601 3.116,-0.815 4.463,1.546 4.451,2.822 2.213,0.605 2.359,4.424 0.969,5.241 0.523,1.929 0.246,3.997 -1.786,3.827 -0.391,2.594 -3.87,2.997 -4.693,1.582 -2.212,1.482 -6.826,-1.037 -5.653,-4.16 z"
   id="path88" />&#10;		<path
   style="fill:#263238"
   d="m 331.021,125.622 c 2.532,-3.505 11.756,-4.958 19.746,0.292 7.201,4.731 6.734,15.712 1.01,15.128 -5.724,-0.584 -11.39,-7.301 -11.39,-7.301 z"
   id="path89" />&#10;		<path
   style="fill:#ffc3bd"
   d="m 349.773,151.409 c -0.839,1.624 -2.35,2.709 -3.788,3.141 -2.163,0.651 -3.29,-1.273 -2.726,-3.338 0.507,-1.859 2.245,-4.438 4.434,-4.185 2.157,0.25 3.04,2.526 2.08,4.382 z"
   id="path90" />&#10;		<path
   style="fill:#407bff"
   d="m 325.341,228.313 c 0,0 -12.161,53.797 -4.043,91.724 5.437,25.402 25.046,76.716 25.046,76.716 l 15.331,-0.394 c 0,0 -14.844,-53.851 -17.913,-75.028 -5.25,-36.226 7.899,-95.295 7.899,-95.295 z"
   id="path91" />&#10;		<path
   style="opacity:0.2"
   d="m 339.364,239.176 7.666,12.09 c -1.95,12.537 -3.891,28.218 -4.386,43.306 -10.781,-19.299 -5.677,-45.178 -3.28,-55.396 z"
   id="path92" />&#10;		<polygon
   style="fill:#263238"
   points="363.122,397.065 362.026,391.246 342.703,392.162 344.183,397.548 "
   id="polygon92" />&#10;		<path
   style="fill:#407bff"
   d="m 333.2,227.741 c 0,0 7.134,57.052 22.599,88.2 12.491,25.158 45.823,60.971 45.823,60.971 l 8.522,-8.779 c 0,0 -22.514,-38.922 -31.797,-55.634 -22.763,-40.978 -4.16,-72.249 -17.062,-87.294 z"
   id="path93" />&#10;		<polygon
   style="fill:#263238"
   points="411.757,367.366 408.108,362.402 396.445,374.043 400.759,378.087 "
   id="polygon93" />&#10;		<g
   id="g95">&#10;			<path
   style="fill:#407bff"
   d="m 361.641,223.049 1.899,3.077 c 0.147,0.239 -0.126,0.519 -0.542,0.555 l -37.695,3.26 c -0.324,0.028 -0.606,-0.107 -0.644,-0.309 l -0.603,-3.189 c -0.042,-0.221 0.223,-0.434 0.577,-0.465 l 36.398,-3.148 c 0.269,-0.024 0.515,0.065 0.61,0.219 z"
   id="path94" />&#10;			<path
   style="opacity:0.5;fill:#ffffff"
   d="m 361.641,223.049 1.899,3.077 c 0.147,0.239 -0.126,0.519 -0.542,0.555 l -37.695,3.26 c -0.324,0.028 -0.606,-0.107 -0.644,-0.309 l -0.603,-3.189 c -0.042,-0.221 0.223,-0.434 0.577,-0.465 l 36.398,-3.148 c 0.269,-0.024 0.515,0.065 0.61,0.219 z"
   id="path95" />&#10;		</g>&#10;		<path
   style="fill:#407bff"
   d="m 357.104,227.541 0.975,-0.084 c 0.194,-0.017 0.333,-0.13 0.309,-0.251 l -0.819,-4.141 c -0.024,-0.121 -0.202,-0.207 -0.397,-0.19 l -0.975,0.084 c -0.194,0.017 -0.333,0.13 -0.309,0.251 l 0.819,4.141 c 0.025,0.122 0.203,0.207 0.397,0.19 z"
   id="path96" />&#10;		<path
   style="fill:#407bff"
   d="m 328.073,230.052 0.975,-0.084 c 0.194,-0.017 0.333,-0.13 0.309,-0.251 l -0.819,-4.141 c -0.024,-0.121 -0.202,-0.207 -0.396,-0.19 l -0.975,0.084 c -0.194,0.017 -0.333,0.13 -0.309,0.251 l 0.819,4.141 c 0.023,0.122 0.201,0.207 0.396,0.19 z"
   id="path97" />&#10;		<path
   style="fill:#407bff"
   d="m 342.588,228.797 0.975,-0.084 c 0.194,-0.017 0.333,-0.13 0.309,-0.251 l -0.819,-4.141 c -0.024,-0.121 -0.202,-0.207 -0.396,-0.19 l -0.975,0.084 c -0.194,0.017 -0.333,0.13 -0.309,0.251 l 0.819,4.141 c 0.024,0.121 0.202,0.207 0.396,0.19 z"
   id="path98" />&#10;		<path
   style="fill:#263238"
   d="m 334.628,143.416 c -0.138,0.703 -0.623,1.2 -1.082,1.109 -0.46,-0.09 -0.72,-0.734 -0.582,-1.436 0.138,-0.703 0.623,-1.2 1.082,-1.109 0.46,0.09 0.721,0.733 0.582,1.436 z"
   id="path99" />&#10;		<path
   style="fill:#263238"
   d="m 326.682,141.854 c -0.138,0.703 -0.623,1.2 -1.082,1.109 -0.46,-0.09 -0.72,-0.734 -0.582,-1.437 0.138,-0.703 0.623,-1.2 1.082,-1.109 0.459,0.091 0.72,0.734 0.582,1.437 z"
   id="path100" />&#10;		<path
   style="fill:#263238"
   d="m 326.295,140.496 -1.593,-0.819 c 0,0 0.607,1.49 1.593,0.819 z"
   id="path101" />&#10;		<path
   style="fill:#ed847e"
   d="m 329.414,143.606 c 0,0 -1.788,2.792 -3.388,3.994 0.758,1.049 2.414,0.963 2.414,0.963 z"
   id="path102" />&#10;		<path
   style="fill:#263238"
   d="m 331.69,151.915 c 2.49,0 3.936,-1.453 4.006,-1.524 0.067,-0.069 0.066,-0.18 -0.003,-0.247 -0.068,-0.067 -0.179,-0.066 -0.247,0.003 -0.019,0.019 -1.908,1.905 -5.001,1.295 -0.099,-0.021 -0.187,0.044 -0.205,0.137 -0.019,0.095 0.043,0.187 0.138,0.205 0.463,0.091 0.902,0.131 1.312,0.131 z"
   id="path103" />&#10;		<path
   style="fill:#263238"
   d="m 339.402,140.69 c 0.062,0 0.124,-0.016 0.181,-0.051 0.165,-0.1 0.218,-0.315 0.118,-0.48 -1.184,-1.96 -3.088,-2.046 -3.168,-2.048 -0.204,0.008 -0.353,0.144 -0.36,0.336 -0.008,0.193 0.143,0.355 0.335,0.363 0.066,0.003 1.612,0.086 2.595,1.712 0.065,0.107 0.18,0.168 0.299,0.168 z"
   id="path104" />&#10;		<path
   style="fill:#263238"
   d="m 324.475,137.874 c 0.057,0 0.116,-0.014 0.17,-0.045 1.673,-0.934 3.087,-0.211 3.101,-0.204 0.172,0.09 0.383,0.024 0.472,-0.147 0.09,-0.171 0.024,-0.382 -0.147,-0.472 -0.071,-0.038 -1.769,-0.905 -3.767,0.212 -0.169,0.094 -0.229,0.307 -0.135,0.476 0.065,0.115 0.184,0.18 0.306,0.18 z"
   id="path105" />&#10;		<path
   style="fill:#ffc3bd"
   d="m 364.542,179.162 c 0.677,0.662 1.147,1.175 1.681,1.767 0.51,0.58 1,1.166 1.477,1.761 0.955,1.188 1.857,2.407 2.713,3.658 1.68,2.521 3.186,5.157 4.473,7.908 1.304,2.743 2.313,5.629 3.117,8.569 0.384,1.476 0.734,2.962 0.985,4.47 0.346,1.583 0.481,4.146 -0.683,6.321 -0.561,1.087 -1.383,1.993 -2.236,2.662 -0.858,0.675 -1.749,1.143 -2.612,1.5 -1.732,0.698 -3.377,0.996 -4.968,1.182 -3.177,0.332 -6.18,0.213 -9.127,-0.119 -5.891,-0.667 -11.513,-1.912 -17.101,-3.634 l 0.915,-3.627 c 2.72,0.448 5.522,0.871 8.288,1.156 2.768,0.32 5.538,0.549 8.27,0.609 2.722,0.038 5.439,0.004 7.904,-0.433 1.219,-0.215 2.378,-0.538 3.26,-0.973 0.897,-0.441 1.365,-0.947 1.474,-1.306 0.071,-0.191 0.12,-0.404 0.123,-0.725 0.002,-0.158 -0.018,-0.344 -0.038,-0.537 -0.043,-0.206 -0.065,-0.388 -0.157,-0.754 -0.28,-1.287 -0.65,-2.556 -1.044,-3.814 -0.805,-2.516 -1.863,-4.947 -3.041,-7.322 -1.179,-2.375 -2.558,-4.66 -4.083,-6.836 -0.749,-1.097 -1.537,-2.168 -2.363,-3.197 -0.411,-0.516 -0.833,-1.021 -1.261,-1.51 -0.404,-0.476 -0.891,-1.016 -1.222,-1.358 z"
   id="path106" />&#10;		<path
   style="fill:#ffc3bd"
   d="m 345.448,212.131 -7.01,-3.714 -0.314,9.278 c 0,0 4.951,0.313 7.857,-1.965 z"
   id="path107" />&#10;		<g
   id="g111">&#10;			<g
   id="g109">&#10;				<g
   id="g108">&#10;					<polygon
   style="fill:#407bff"
   points="288.898,186.258 282.352,257.319 333.167,262 338.953,199.189 326.602,189.732 "
   id="polygon107" />&#10;					<polygon
   style="opacity:0.8;fill:#ffffff"
   points="288.898,186.258 282.352,257.319 333.167,262 338.953,199.189 326.602,189.732 "
   id="polygon108" />&#10;				</g>&#10;				<polygon
   style="fill:#407bff"
   points="326.602,189.732 329.84,201.051 338.953,199.189 "
   id="polygon109" />&#10;			</g>&#10;			<g
   id="g110">&#10;				<circle
   style="fill:#407bff"
   cx="286.76999"
   cy="252.901"
   r="15.398"
   id="circle109" />&#10;				&#10;					<circle
   transform="matrix(0.7847,-0.6199,0.6199,0.7847,-95.0259,232.2184)"
   style="fill:#ffffff"
   cx="286.76999"
   cy="252.901"
   id="ellipse109"
   r="12.28" />&#10;				<polygon
   style="fill:#407bff"
   points="288.94,251.187 289.576,245.768 285.691,245.313 285.056,250.731 279.637,250.095 279.182,253.979 284.6,254.615 283.964,260.033 287.848,260.489 288.484,255.071 293.902,255.706 294.358,251.822 "
   id="polygon110" />&#10;			</g>&#10;			<path
   style="opacity:0.4;fill:#407bff"
   d="m 329.731,212.207 v 0 c -0.213,2.312 -2.259,4.013 -4.571,3.8 l -27.501,-2.53 c -2.312,-0.213 -4.013,-2.259 -3.801,-4.57 v 0 c 0.213,-2.312 2.259,-4.013 4.571,-3.801 l 27.501,2.53 c 2.312,0.213 4.014,2.259 3.801,4.571 z"
   id="path110" />&#10;			<path
   style="opacity:0.4;fill:#407bff"
   d="m 320.363,223.556 v 0 c -0.213,2.312 -2.259,4.013 -4.57,3.8 l -19.219,-1.768 c -2.311,-0.213 -4.013,-2.259 -3.8,-4.571 v 0 c 0.213,-2.312 2.259,-4.013 4.57,-3.8 l 19.219,1.768 c 2.311,0.213 4.012,2.259 3.8,4.571 z"
   id="path111" />&#10;		</g>&#10;		<polygon
   style="fill:#ffc3bd"
   points="335.217,215.903 338.124,217.695 338.438,208.417 334.165,208.971 "
   id="polygon111" />&#10;		<path
   style="fill:#263238"
   d="m 363.015,170.982 c 4.406,0.779 10.581,13.418 10.581,13.418 l -11.108,10.046 c 0,0 -8.835,-9.636 -8.363,-15.378 0.4,-4.875 3.277,-9.079 8.89,-8.086 z"
   id="path112" />&#10;		<path
   style="fill:#407bff"
   d="m 407.279,386.503 c 0.115,0 0.229,-0.02 0.343,-0.058 1.054,-0.355 1.746,-2.306 2.064,-3.437 0.019,-0.067 -0.004,-0.139 -0.058,-0.183 -0.054,-0.044 -0.129,-0.051 -0.191,-0.019 -0.321,0.168 -3.137,1.674 -3.228,2.785 -0.014,0.17 0.027,0.415 0.3,0.622 0.255,0.193 0.513,0.29 0.77,0.29 z m 1.95,-3.184 c -0.489,1.56 -1.12,2.593 -1.719,2.795 -0.259,0.087 -0.516,0.027 -0.792,-0.18 -0.159,-0.12 -0.168,-0.236 -0.162,-0.314 0.057,-0.682 1.707,-1.754 2.673,-2.301 z"
   id="path113" />&#10;		<path
   style="fill:#407bff"
   d="m 406.844,383.759 c 0.999,0 2.225,-0.319 2.764,-0.648 0.053,-0.032 0.085,-0.091 0.084,-0.153 -0.001,-0.062 -0.036,-0.119 -0.09,-0.149 -0.094,-0.052 -2.324,-1.278 -3.524,-0.852 -0.313,0.11 -0.534,0.32 -0.657,0.622 -0.191,0.471 0.018,0.743 0.16,0.863 0.266,0.227 0.733,0.317 1.263,0.317 z m 2.288,-0.799 c -0.954,0.407 -2.803,0.657 -3.326,0.216 -0.087,-0.074 -0.173,-0.193 -0.062,-0.466 0.084,-0.208 0.232,-0.347 0.449,-0.423 0.819,-0.292 2.305,0.361 2.939,0.673 z"
   id="path114" />&#10;		<path
   style="fill:#407bff"
   d="m 348.726,408.75 c 1.012,0 2.113,-0.196 2.877,-0.365 0.073,-0.016 0.128,-0.077 0.136,-0.151 0.008,-0.074 -0.032,-0.146 -0.1,-0.178 -0.433,-0.204 -4.256,-1.97 -5.219,-1.319 -0.123,0.083 -0.266,0.244 -0.249,0.541 0.024,0.411 0.199,0.743 0.521,0.986 0.477,0.361 1.227,0.486 2.034,0.486 z m 2.275,-0.6 c -1.135,0.212 -3.235,0.489 -4.099,-0.165 -0.24,-0.182 -0.365,-0.419 -0.383,-0.727 -0.008,-0.142 0.047,-0.199 0.096,-0.232 0.539,-0.365 2.799,0.426 4.386,1.124 z"
   id="path115" />&#10;		<path
   style="fill:#407bff"
   d="m 351.565,408.389 c 0.04,0 0.081,-0.014 0.113,-0.042 0.05,-0.042 0.072,-0.109 0.057,-0.173 -0.036,-0.161 -0.904,-3.931 -2.979,-3.69 -0.52,0.062 -0.662,0.32 -0.689,0.525 -0.13,0.96 2.281,2.895 3.432,3.366 0.021,0.009 0.043,0.014 0.066,0.014 z m -2.621,-3.566 c 1.326,0 2.098,2.194 2.354,3.073 -1.245,-0.652 -2.968,-2.225 -2.885,-2.839 0.006,-0.045 0.025,-0.182 0.385,-0.225 0.049,-0.006 0.098,-0.009 0.146,-0.009 z"
   id="path116" />&#10;		<path
   style="fill:#263238"
   d="m 334.242,142.058 -1.593,-0.819 c 0,0.001 0.607,1.49 1.593,0.819 z"
   id="path117" />&#10;	</g>&#10;</g></svg>
