<?xml version="1.0" encoding="UTF-8" standalone="no"?>
<!-- Generator: Adobe Illustrator 27.5.0, SVG Export Plug-In . SVG Version: 6.00 Build 0)  -->

<svg
   version="1.1"
   x="0px"
   y="0px"
   viewBox="0 0 199 155"
   xml:space="preserve"
   id="svg247"
   sodipodi:docname="ingresar-titulo-documento.svg"
   inkscape:version="1.3 (0e150ed6c4, 2023-07-21)"
   width="199"
   height="155"
   xmlns:inkscape="http://www.inkscape.org/namespaces/inkscape"
   xmlns:sodipodi="http://sodipodi.sourceforge.net/DTD/sodipodi-0.dtd"
   xmlns="http://www.w3.org/2000/svg"
   xmlns:svg="http://www.w3.org/2000/svg"><defs
   id="defs247" /><sodipodi:namedview
   id="namedview247"
   pagecolor="#ffffff"
   bordercolor="#000000"
   borderopacity="0.25"
   inkscape:showpageshadow="2"
   inkscape:pageopacity="0.0"
   inkscape:pagecheckerboard="true"
   inkscape:deskcolor="#d1d1d1"
   inkscape:zoom="3.284"
   inkscape:cx="149.66504"
   inkscape:cy="72.929355"
   inkscape:window-width="2560"
   inkscape:window-height="1017"
   inkscape:window-x="1912"
   inkscape:window-y="-8"
   inkscape:window-maximized="1"
   inkscape:current-layer="svg247" />&#10;&#10;<g
   id="Background_Simple"
   style="display:none">&#10;	<g
   style="display:inline"
   id="g41">&#10;		<path
   style="fill:#407bff"
   d="m 241.936,74.075 c 7.832,-1.91 16.622,-1.622 26.341,1.643 15.617,5.247 27.043,19.004 34.173,33.856 13.796,28.739 17.651,60.899 27.547,90.911 2.714,8.23 5.923,16.453 11.228,23.305 22.071,28.507 82.754,12.137 82.176,62.137 -0.163,14.13 -7.771,27.655 -18.876,36.394 -32.69,25.724 -78.654,11.019 -113.588,-0.656 -32.732,-10.939 -61.068,-12.275 -93.872,0.819 -27.802,11.097 -56.895,29.991 -88.174,24.881 -31.807,-5.197 -46.032,-36.584 -40.707,-66.182 5.677,-31.551 30.416,-54.82 58.857,-67.405 16.966,-7.508 39.284,-12.096 52.582,-25.755 6.83,-7.015 9.803,-16.855 11.975,-26.402 3.458,-15.205 5.5,-30.795 10.651,-45.513 6.453,-18.439 19.682,-37.153 39.687,-42.033 z"
   id="path40" />&#10;		<path
   style="opacity:0.9;fill:#ffffff"
   d="m 241.936,74.075 c 7.832,-1.91 16.622,-1.622 26.341,1.643 15.617,5.247 27.043,19.004 34.173,33.856 13.796,28.739 17.651,60.899 27.547,90.911 2.714,8.23 5.923,16.453 11.228,23.305 22.071,28.507 82.754,12.137 82.176,62.137 -0.163,14.13 -7.771,27.655 -18.876,36.394 -32.69,25.724 -78.654,11.019 -113.588,-0.656 -32.732,-10.939 -61.068,-12.275 -93.872,0.819 -27.802,11.097 -56.895,29.991 -88.174,24.881 -31.807,-5.197 -46.032,-36.584 -40.707,-66.182 5.677,-31.551 30.416,-54.82 58.857,-67.405 16.966,-7.508 39.284,-12.096 52.582,-25.755 6.83,-7.015 9.803,-16.855 11.975,-26.402 3.458,-15.205 5.5,-30.795 10.651,-45.513 6.453,-18.439 19.682,-37.153 39.687,-42.033 z"
   id="path41" />&#10;	</g>&#10;</g>&#10;&#10;&#10;&#10;&#10;&#10;<g
   id="Background_Complete"
   transform="matrix(0.41163725,0,0,0.41163725,2.6874152,-21.496484)">&#10;	<path
   style="fill:#ebebeb"
   d="M 237.014,337.8 H 43.915 c -3.147,0 -5.708,-2.561 -5.708,-5.708 V 60.66 c 0,-3.147 2.561,-5.708 5.708,-5.708 h 193.099 c 3.146,0 5.707,2.561 5.707,5.708 v 271.432 c 0,3.147 -2.561,5.708 -5.707,5.708 z M 43.915,55.203 c -3.01,0 -5.458,2.448 -5.458,5.458 v 271.432 c 0,3.01 2.448,5.458 5.458,5.458 h 193.099 c 3.009,0 5.457,-2.448 5.457,-5.458 V 60.66 c 0,-3.009 -2.448,-5.458 -5.457,-5.458 H 43.915 Z"
   id="path1" />&#10;	<path
   style="fill:#ebebeb"
   d="M 453.31,337.8 H 260.212 c -3.147,0 -5.707,-2.561 -5.707,-5.708 V 60.66 c 0,-3.147 2.561,-5.708 5.707,-5.708 H 453.31 c 3.148,0 5.708,2.561 5.708,5.708 v 271.432 c 0.001,3.147 -2.56,5.708 -5.708,5.708 z M 260.212,55.203 c -3.009,0 -5.457,2.448 -5.457,5.458 v 271.432 c 0,3.01 2.448,5.458 5.457,5.458 H 453.31 c 3.01,0 5.458,-2.448 5.458,-5.458 V 60.66 c 0,-3.009 -2.448,-5.458 -5.458,-5.458 H 260.212 Z"
   id="path2" />&#10;	<rect
   x="416.77899"
   y="398.49399"
   style="fill:#ebebeb"
   width="33.122002"
   height="0.25"
   id="rect2" />&#10;	<rect
   x="322.52701"
   y="401.20801"
   style="fill:#ebebeb"
   width="8.6929998"
   height="0.25"
   id="rect3" />&#10;	<rect
   x="396.586"
   y="389.20801"
   style="fill:#ebebeb"
   width="19.191999"
   height="0.25"
   id="rect4" />&#10;	<rect
   x="52.459"
   y="390.888"
   style="fill:#ebebeb"
   width="43.193001"
   height="0.25"
   id="rect5" />&#10;	<rect
   x="104.556"
   y="390.888"
   style="fill:#ebebeb"
   width="6.3330002"
   height="0.25"
   id="rect6" />&#10;	<rect
   x="131.47099"
   y="395.11099"
   style="fill:#ebebeb"
   width="93.676003"
   height="0.25"
   id="rect7" />&#10;	<rect
   y="382.39801"
   style="fill:#ebebeb"
   width="500"
   height="0.25"
   id="rect8"
   x="0" />&#10;	<g
   id="g102">&#10;		<rect
   x="37.318001"
   y="95.156998"
   style="fill:#e0e0e0"
   width="117.624"
   height="173.80299"
   id="rect9" />&#10;		<rect
   x="41.646999"
   y="95.156998"
   style="fill:#f0f0f0"
   width="117.624"
   height="173.80299"
   id="rect10" />&#10;		<rect
   x="47.370998"
   y="187.03999"
   style="fill:#ebebeb"
   width="105.95"
   height="71.739998"
   id="rect11" />&#10;		<rect
   x="47.370998"
   y="102.22"
   style="fill:#ffffff"
   width="105.95"
   height="84.82"
   id="rect12" />&#10;		<rect
   x="149.59399"
   y="102.224"
   style="fill:#e0e0e0"
   width="3.7290001"
   height="156.55499"
   id="rect13" />&#10;		&#10;			<rect
   x="96.625"
   y="137.457"
   transform="rotate(-90,98.5165,188.933)"
   style="fill:#e0e0e0"
   width="3.7839999"
   height="102.951"
   id="rect14" />&#10;		<rect
   x="45.370998"
   y="180.69"
   style="fill:#f0f0f0"
   width="107.95"
   height="6.3499999"
   id="rect15" />&#10;		<g
   id="g101">&#10;			<g
   id="g74">&#10;				<path
   style="fill:#e0e0e0"
   d="M 438.17,383.534 H 294.81 c -10.863,0 -19.669,-8.806 -19.669,-19.669 v -42.669 c 0,-10.863 8.806,-19.669 19.669,-19.669 h 143.36 c 10.863,0 19.669,8.806 19.669,19.669 v 42.669 c 10e-4,10.863 -8.806,19.669 -19.669,19.669 z"
   id="path15" />&#10;				<path
   style="fill:#f5f5f5"
   d="m 428.543,384.14 h -143.36 c -10.863,0 -19.669,-8.806 -19.669,-19.669 v -42.669 c 0,-10.863 8.806,-19.669 19.669,-19.669 h 143.361 c 10.863,0 19.669,8.806 19.669,19.669 v 42.669 c 0,10.863 -8.807,19.669 -19.67,19.669 z"
   id="path16" />&#10;				<path
   style="fill:#e0e0e0"
   d="M 439.838,340.461 H 274.962 v -16.857 c 0,-7.587 6.151,-13.738 13.738,-13.738 h 137.4 c 7.587,0 13.738,6.151 13.738,13.738 z"
   id="path17" />&#10;				<path
   style="fill:#e0e0e0"
   d="M 426.1,375.196 H 288.7 c -7.587,0 -13.738,-6.151 -13.738,-13.738 v -16.857 h 164.876 v 16.857 c 0,7.587 -6.151,13.738 -13.738,13.738 z"
   id="path18" />&#10;				<g
   id="g29">&#10;					<rect
   x="365.30399"
   y="315.78799"
   style="fill:#e6e6e6"
   width="30.187"
   height="24.875"
   id="rect18" />&#10;					<rect
   x="357.57199"
   y="315.78799"
   style="fill:#f5f5f5"
   width="7.7319999"
   height="24.875"
   id="rect19" />&#10;					<path
   style="fill:#e0e0e0"
   d="m 363.981,333.969 c 0,1.404 -1.138,2.543 -2.543,2.543 -1.404,0 -2.543,-1.138 -2.543,-2.543 0,-1.405 1.138,-2.543 2.543,-2.543 1.404,0 2.543,1.139 2.543,2.543 z"
   id="path19" />&#10;					<rect
   x="380.73099"
   y="311.952"
   style="fill:#e6e6e6"
   width="22.677"
   height="28.711"
   id="rect20" />&#10;					<g
   id="g21">&#10;						<rect
   x="374.18399"
   y="311.952"
   style="fill:#f5f5f5"
   width="6.5560002"
   height="28.711"
   id="rect21" />&#10;						<circle
   style="fill:#e0e0e0"
   cx="377.46201"
   cy="316.12399"
   r="2.247"
   id="circle21" />&#10;					</g>&#10;					<circle
   style="fill:#e0e0e0"
   cx="377.46201"
   cy="316.12399"
   r="2.247"
   id="circle22" />&#10;					<rect
   x="387.41199"
   y="315.78799"
   style="fill:#ebebeb"
   width="19.118999"
   height="24.875"
   id="rect22" />&#10;					<rect
   x="383.04501"
   y="315.78799"
   style="fill:#f5f5f5"
   width="4.3670001"
   height="24.875"
   id="rect23" />&#10;					<rect
   x="403.06"
   y="319.99701"
   style="fill:#e6e6e6"
   width="25.077"
   height="20.666"
   id="rect24" />&#10;					<rect
   x="396.63901"
   y="319.99701"
   style="fill:#f5f5f5"
   width="6.421"
   height="20.666"
   id="rect25" />&#10;					<rect
   x="415.87399"
   y="316.811"
   style="fill:#e6e6e6"
   width="18.839001"
   height="23.851999"
   id="rect26" />&#10;					<rect
   x="410.436"
   y="316.811"
   style="fill:#f5f5f5"
   width="5.447"
   height="23.851999"
   id="rect27" />&#10;					<rect
   x="421.427"
   y="319.99701"
   style="fill:#e6e6e6"
   width="18.299"
   height="20.666"
   id="rect28" />&#10;					<rect
   x="417.79199"
   y="319.99701"
   style="fill:#f0f0f0"
   width="3.625"
   height="20.666"
   id="rect29" />&#10;				</g>&#10;				<g
   id="g45">&#10;					<rect
   x="299.96399"
   y="349.379"
   style="fill:#e6e6e6"
   width="23.367001"
   height="24.875"
   id="rect30" />&#10;					<rect
   x="293.978"
   y="349.379"
   style="fill:#f5f5f5"
   width="5.9850001"
   height="24.875"
   id="rect31" />&#10;					<rect
   x="311.905"
   y="345.543"
   style="fill:#e6e6e6"
   width="17.552999"
   height="28.711"
   id="rect32" />&#10;					<rect
   x="306.83701"
   y="345.543"
   style="fill:#f5f5f5"
   width="5.0749998"
   height="28.711"
   id="rect33" />&#10;					<rect
   x="379.68201"
   y="349.379"
   style="fill:#e6e6e6"
   width="23.367001"
   height="24.875"
   id="rect34" />&#10;					<rect
   x="373.69699"
   y="349.379"
   style="fill:#f5f5f5"
   width="5.9850001"
   height="24.875"
   id="rect35" />&#10;					<rect
   x="391.62299"
   y="345.543"
   style="fill:#e6e6e6"
   width="17.552999"
   height="28.711"
   id="rect36" />&#10;					<rect
   x="386.556"
   y="345.543"
   style="fill:#f5f5f5"
   width="5.0749998"
   height="28.711"
   id="rect37" />&#10;					<rect
   x="317.077"
   y="349.379"
   style="fill:#ebebeb"
   width="14.8"
   height="24.875"
   id="rect38" />&#10;					<rect
   x="313.69601"
   y="349.379"
   style="fill:#f5f5f5"
   width="3.381"
   height="24.875"
   id="rect39" />&#10;					<rect
   x="329.189"
   y="353.58801"
   style="fill:#e6e6e6"
   width="19.412001"
   height="20.666"
   id="rect40" />&#10;					<rect
   x="324.21899"
   y="353.58801"
   style="fill:#f5f5f5"
   width="4.9699998"
   height="20.666"
   id="rect41" />&#10;					<rect
   x="339.108"
   y="350.401"
   style="fill:#e6e6e6"
   width="14.583"
   height="23.851999"
   id="rect42" />&#10;					<rect
   x="334.89899"
   y="350.401"
   style="fill:#f5f5f5"
   width="4.217"
   height="23.851999"
   id="rect43" />&#10;					<rect
   x="343.40701"
   y="353.58801"
   style="fill:#e6e6e6"
   width="14.165"
   height="20.666"
   id="rect44" />&#10;					<rect
   x="340.59299"
   y="353.58801"
   style="fill:#f0f0f0"
   width="2.806"
   height="20.666"
   id="rect45" />&#10;				</g>&#10;				<g
   id="g59">&#10;					<g
   id="g57">&#10;						<g
   id="g47">&#10;							<g
   id="g46">&#10;								<path
   style="fill:#ebebeb"
   d="m 340.447,277.683 c -0.498,-0.98 -1.633,-1.547 -2.666,-1.331 -1.033,0.216 -1.878,1.198 -1.985,2.304 -0.73,-0.546 -1.775,-0.574 -2.53,-0.067 -0.755,0.507 -1.175,1.518 -1.018,2.449 -0.823,-0.665 -2.173,-0.39 -2.704,0.55 -0.531,0.941 -0.119,2.327 0.826,2.777 -0.643,0.046 -1.195,0.688 -1.178,1.368 0.017,0.681 0.6,1.29 1.244,1.301 -0.651,0.015 -1.251,0.588 -1.329,1.272 -0.079,0.684 0.373,1.392 1.002,1.572 -0.662,0.294 -0.829,1.381 -0.29,1.882 0.539,0.5 1.538,0.183 1.727,-0.548 0.101,0.211 0.413,0.261 0.568,0.09 0.155,-0.171 0.095,-0.498 -0.109,-0.596 0.298,0.42 1.059,0.225 1.142,-0.292 -0.224,1.199 1.206,2.326 2.229,1.758 -0.295,0.501 0.122,1.199 0.66,1.355 0.538,0.156 1.106,-0.064 1.612,-0.314 0.506,-0.25 1.022,-0.541 1.581,-0.533 0.489,0.007 0.945,0.243 1.414,0.394 1.488,0.477 3.208,0.023 4.309,-1.138 0.773,1.038 2.606,0.759 3.07,-0.468 0.119,0.589 0.64,1.059 1.208,1.092 0.569,0.034 1.135,-0.373 1.316,-0.944 0.012,0.262 0.023,0.525 0.035,0.787 1.072,0.254 2.131,-1.13 1.671,-2.186 0.765,0.014 1.49,-0.647 1.588,-1.449 0.099,-0.802 -0.441,-1.637 -1.185,-1.831 1.261,-0.354 2.224,-1.662 2.238,-3.042 0.014,-1.379 -0.922,-2.709 -2.176,-3.091 -0.494,-0.151 -1.075,-0.147 -1.469,0.201 -0.395,0.348 -0.447,1.115 -0.006,1.395 0.379,-1.237 -0.183,-2.719 -1.266,-3.336 -1.083,-0.617 -2.563,-0.3 -3.332,0.715 0.375,-0.526 0.382,-1.311 0.017,-1.844 -0.365,-0.533 -1.073,-0.771 -1.663,-0.559 -0.147,-0.849 -0.993,-1.491 -1.801,-1.366 -0.808,0.125 -1.445,0.997 -1.355,1.855 -0.093,-0.717 -1.208,-0.927 -1.529,-0.288 -0.453,-0.127 0.134,0.106 0.134,0.106 z"
   id="path45" />&#10;							</g>&#10;						</g>&#10;						<g
   id="g56">&#10;							<g
   id="g48">&#10;								<path
   style="fill:#fafafa"
   d="m 340.747,285.666 c -0.331,-0.23 -0.749,-0.354 -1.143,-0.275 -0.395,0.079 -0.752,0.384 -0.833,0.779 -0.081,0.395 0.164,0.846 0.556,0.941 0.476,0.115 0.953,-0.277 1.438,-0.209 0.173,0.025 0.333,0.107 0.502,0.152 0.697,0.186 1.388,-0.269 1.967,-0.7 0.204,-0.152 0.412,-0.308 0.548,-0.523 0.136,-0.214 0.186,-0.502 0.058,-0.722 -0.178,-0.305 -0.6,-0.35 -0.952,-0.31 -0.705,0.081 -1.385,0.365 -1.938,0.81 0.018,-0.11 0.036,-0.221 0.054,-0.331 z"
   id="path47" />&#10;							</g>&#10;							<g
   id="g49">&#10;								<path
   style="fill:#fafafa"
   d="m 350.88,285.067 c -0.189,-0.132 -0.384,-0.267 -0.609,-0.32 -0.225,-0.053 -0.489,-0.005 -0.631,0.177 -0.195,0.249 -0.071,0.639 0.176,0.837 0.247,0.197 0.576,0.252 0.888,0.301 0.321,0.05 0.726,0.061 0.885,-0.222 0.116,-0.207 0.023,-0.48 -0.15,-0.642 -0.173,-0.162 -0.406,-0.239 -0.632,-0.312 z"
   id="path48" />&#10;							</g>&#10;							<g
   id="g55">&#10;								<path
   style="fill:#fafafa"
   d="m 334.873,279.797 c -0.645,0.27 -1.144,0.867 -1.294,1.549 -0.045,0.206 -0.039,0.465 0.141,0.575 0.128,0.078 0.292,0.046 0.437,0.011 0.618,-0.147 1.237,-0.294 1.855,-0.44 -0.296,0.114 -0.599,0.232 -0.836,0.444 -0.236,0.211 -0.395,0.54 -0.318,0.848 0.091,0.361 0.487,0.583 0.859,0.578 0.373,-0.005 0.719,-0.19 1.022,-0.408 0.323,-0.232 0.639,-0.553 0.645,-0.95 0.006,-0.397 -0.495,-0.766 -0.8,-0.511 0.707,-0.192 1.382,-0.5 1.991,-0.907 0.22,-0.147 0.437,-0.313 0.576,-0.539 0.139,-0.226 0.186,-0.524 0.059,-0.756 -0.634,-1.152 -1.435,0.538 -1.825,0.688 -0.739,0.285 -1.573,-0.574 -2.512,-0.182 z"
   id="path49" />&#10;								<path
   style="fill:#fafafa"
   d="m 331.99,284.714 c -0.065,0.225 -0.021,0.497 0.163,0.643 0.183,0.146 0.508,0.097 0.592,-0.122 -0.414,0.129 -0.856,0.278 -1.114,0.627 -0.258,0.349 -0.194,0.958 0.218,1.093 0.257,0.084 0.532,-0.042 0.77,-0.172 0.672,-0.367 1.314,-0.79 1.916,-1.263 -0.184,0.425 0.259,0.907 0.72,0.947 0.461,0.039 0.893,-0.21 1.288,-0.45 0.485,-0.295 1.042,-0.745 0.914,-1.299 -0.111,-0.482 -0.727,-0.695 -1.201,-0.554 -0.474,0.141 -0.83,0.523 -1.162,0.89 0.26,-0.379 -0.11,-0.942 -0.565,-1.003 -0.443,-0.06 -0.884,0.21 -1.16,0.536 0.516,-0.283 0.631,-1.021 -0.06,-1.106 -0.448,-0.057 -1.211,0.858 -1.319,1.233 z"
   id="path50" />&#10;								<path
   style="fill:#fafafa"
   d="m 346.146,283.058 c -0.39,-0.146 -0.878,0.108 -0.983,0.51 -0.105,0.402 0.197,0.862 0.608,0.925 -0.302,0.026 -0.592,0.177 -0.786,0.41 -0.108,0.129 -0.19,0.296 -0.165,0.463 0.036,0.25 0.302,0.414 0.554,0.423 0.252,0.009 0.492,-0.098 0.722,-0.202 -0.249,0.023 -0.513,0.052 -0.71,0.206 -0.198,0.153 -0.283,0.478 -0.106,0.654 0.148,0.147 0.393,0.123 0.594,0.066 0.452,-0.127 0.873,-0.363 1.215,-0.684 0.257,0.285 0.639,0.491 1.018,0.429 0.379,-0.062 0.701,-0.465 0.582,-0.831 -0.085,-0.261 -0.357,-0.425 -0.629,-0.458 -0.272,-0.033 -0.545,0.042 -0.805,0.126 0.267,-0.189 0.549,-0.401 0.647,-0.713 0.098,-0.312 -0.113,-0.731 -0.44,-0.706 -0.367,0.029 -0.554,0.528 -0.844,0.708 -0.358,-0.336 0.312,-1.034 -0.472,-1.326 z"
   id="path51" />&#10;								<g
   id="g52">&#10;									<path
   style="fill:#fafafa"
   d="m 339.536,281.532 c -0.417,0.283 -0.562,0.84 -0.533,1.343 0.032,0.555 0.285,1.149 0.794,1.372 0.671,0.293 1.508,-0.265 1.631,-0.986 0.123,-0.721 -0.35,-1.455 -1,-1.793 0.002,0 -0.474,-0.218 -0.892,0.064 z"
   id="path52" />&#10;								</g>&#10;								<g
   id="g53">&#10;									<path
   style="fill:#fafafa"
   d="m 344.218,280.933 c 0.058,0.05 0.115,0.099 0.173,0.149 -0.284,-0.36 -0.885,-0.407 -1.222,-0.096 -0.338,0.311 -0.34,0.913 -0.004,1.226 0.335,0.313 0.936,0.27 1.223,-0.088 0.484,0.225 1.122,0.137 1.463,-0.274 0.34,-0.411 0.263,-1.127 -0.201,-1.391 -0.464,-0.263 -1.17,0.132 -1.121,0.663 -0.067,-0.075 -0.134,-0.15 -0.201,-0.224 z"
   id="path53" />&#10;								</g>&#10;								<g
   id="g54">&#10;									<path
   style="fill:#fafafa"
   d="m 349.386,281.767 c -0.331,0.326 -0.676,0.675 -0.798,1.124 -0.122,0.449 0.079,1.02 0.53,1.135 0.448,0.114 0.873,-0.255 1.128,-0.641 0.231,-0.348 0.407,-0.781 0.274,-1.176 -0.133,-0.396 -0.702,-0.63 -0.987,-0.325 z"
   id="path54" />&#10;								</g>&#10;								<path
   style="fill:#fafafa"
   d="m 341.939,279.055 c -0.169,-0.376 -0.704,-0.508 -1.054,-0.29 -0.35,0.218 -0.479,0.709 -0.326,1.092 0.153,0.383 0.546,0.643 0.957,0.688 0.508,0.056 1.108,-0.355 0.994,-0.853 0.219,0.289 0.612,0.403 0.973,0.368 0.361,-0.035 0.695,-0.199 1.01,-0.38 0.426,-0.245 0.881,-0.625 0.836,-1.115 -0.036,-0.39 -0.414,-0.691 -0.804,-0.727 -0.39,-0.036 -0.775,0.145 -1.073,0.4 -0.234,0.2 -0.429,0.447 -0.682,0.622 -0.253,0.175 -0.598,0.269 -0.869,0.123 z"
   id="path55" />&#10;							</g>&#10;						</g>&#10;					</g>&#10;					<g
   id="g58">&#10;						<polygon
   style="fill:#f0f0f0"
   points="349.553,288.888 348.299,301.795 335.493,301.795 334.239,288.888 "
   id="polygon57" />&#10;						<polygon
   style="fill:#fafafa"
   points="350.858,287.838 350.545,289.555 333.121,289.555 332.807,287.838 "
   id="polygon58" />&#10;					</g>&#10;				</g>&#10;				<g
   id="g73">&#10;					<g
   id="g62">&#10;						<polygon
   style="fill:#ebebeb"
   points="320.301,340.635 324.907,325.794 325.581,323.625 328.906,323.625 335.001,340.635 "
   id="polygon59" />&#10;						<polygon
   style="fill:#e0e0e0"
   points="301.669,323.625 325.581,323.625 324.907,325.794 320.301,340.635 306.712,340.433 302.343,325.794 "
   id="polygon60" />&#10;						<polygon
   style="fill:#fafafa"
   points="324.907,325.794 320.301,340.635 292.39,340.22 298.337,323.625 325.581,323.625 "
   id="polygon61" />&#10;						<polygon
   style="fill:#ebebeb"
   points="298.337,323.625 325.581,323.625 324.907,325.794 297.566,325.794 "
   id="polygon62" />&#10;					</g>&#10;					<g
   id="g67">&#10;						<g
   id="g63">&#10;							<path
   style="fill:#ebebeb"
   d="m 301.769,332.844 h -6.129 l 2.138,-6.037 5.862,0.065 z m -5.421,-0.5 h 5.054 l 1.56,-4.979 -4.832,-0.054 z"
   id="path62" />&#10;						</g>&#10;						<g
   id="g64">&#10;							<path
   style="fill:#ebebeb"
   d="m 308.625,332.844 h -6.129 l 2.138,-6.037 5.862,0.065 z m -5.421,-0.5 h 5.054 l 1.559,-4.979 -4.831,-0.054 z"
   id="path63" />&#10;						</g>&#10;						<g
   id="g65">&#10;							<path
   style="fill:#ebebeb"
   d="m 315.482,332.844 h -6.129 l 2.139,-6.037 5.862,0.065 z m -5.421,-0.5 h 5.054 l 1.56,-4.979 -4.832,-0.054 z"
   id="path64" />&#10;						</g>&#10;						<g
   id="g66">&#10;							<path
   style="fill:#ebebeb"
   d="m 322.339,332.844 h -6.128 l 2.138,-6.037 5.861,0.065 z m -5.421,-0.5 h 5.054 l 1.56,-4.979 -4.831,-0.054 z"
   id="path65" />&#10;						</g>&#10;					</g>&#10;					<g
   id="g72">&#10;						<g
   id="g68">&#10;							<path
   style="fill:#ebebeb"
   d="m 299.63,339.25 h -6.129 l 2.138,-6.037 5.862,0.065 z m -5.421,-0.5 h 5.054 l 1.56,-4.98 -4.832,-0.054 z"
   id="path67" />&#10;						</g>&#10;						<g
   id="g69">&#10;							<path
   style="fill:#ebebeb"
   d="m 306.487,339.25 h -6.128 l 2.138,-6.037 5.861,0.065 z m -5.421,-0.5 h 5.054 l 1.56,-4.98 -4.831,-0.054 z"
   id="path68" />&#10;						</g>&#10;						<g
   id="g70">&#10;							<path
   style="fill:#ebebeb"
   d="m 313.344,339.25 h -6.129 l 2.139,-6.037 5.862,0.065 z m -5.422,-0.5 h 5.054 l 1.56,-4.98 -4.832,-0.054 z"
   id="path69" />&#10;						</g>&#10;						<g
   id="g71">&#10;							<path
   style="fill:#ebebeb"
   d="m 320.2,339.25 h -6.129 l 2.138,-6.037 5.861,0.065 z m -5.421,-0.5 h 5.054 l 1.56,-4.98 -4.831,-0.054 z"
   id="path70" />&#10;						</g>&#10;					</g>&#10;				</g>&#10;			</g>&#10;			<g
   id="g100">&#10;				<g
   id="g75">&#10;					<path
   style="fill:#f0f0f0"
   d="m 413.211,293.789 c 0,3.151 0.495,5.189 1.327,6.496 0.626,0.984 1.751,1.537 2.917,1.537 h 4.562 c 1.166,0 2.291,-0.553 2.917,-1.537 0.833,-1.308 1.327,-3.345 1.327,-6.496 0,-4.57 -1.993,-8.229 -2.643,-11.151 -0.234,-1.052 0.546,-4.276 0.546,-4.276 h -8.856 c 0,0 0.78,3.224 0.546,4.276 -0.651,2.922 -2.643,6.581 -2.643,11.151 z"
   id="path74" />&#10;				</g>&#10;				<g
   id="g99">&#10;					<g
   id="g89">&#10;						<g
   id="g77">&#10;							<g
   id="g76">&#10;								<path
   style="fill:#ebebeb"
   d="m 422.692,256.297 c 0,0 -1.493,0.373 -2.362,1.531 -0.869,1.158 0.632,3.885 0.632,3.885 0,0 1.419,1.448 3.183,1.017 1.764,-0.431 1.764,-0.431 1.764,-0.431 0,0 -1.866,-5.345 -3.205,-5.648 z"
   id="path75" />&#10;							</g>&#10;						</g>&#10;						<g
   id="g83">&#10;							<g
   id="g78">&#10;								<path
   style="fill:#ebebeb"
   d="m 429.654,257.575 c -0.234,2.324 -2.197,4.939 -4.271,4.73 -2.075,-0.209 -3.476,-3.164 -3.242,-5.488 0.234,-2.324 1.924,-2.235 3.999,-2.025 2.075,0.209 3.748,0.459 3.514,2.783 z"
   id="path77" />&#10;							</g>&#10;							<g
   id="g79">&#10;								<path
   style="fill:#ebebeb"
   d="m 423.803,255.771 c 0,0 1.325,1.538 4.676,1.42 0,0 -5.709,2.422 -4.676,-1.42 z"
   id="path78" />&#10;							</g>&#10;							<g
   id="g80">&#10;								<path
   style="fill:#ebebeb"
   d="m 425.264,255.577 c 0,0 1.858,0.027 1.742,0.783 0,0 1.542,0.204 1.452,-0.475 -0.09,-0.679 -3.194,-0.308 -3.194,-0.308 z"
   id="path79" />&#10;							</g>&#10;							<g
   id="g81">&#10;								<path
   style="fill:#e0e0e0"
   d="m 423.803,255.771 c 0,0 1.325,1.538 4.676,1.42 0,0 -5.709,2.422 -4.676,-1.42 z"
   id="path80" />&#10;							</g>&#10;							<g
   id="g82">&#10;								<path
   style="fill:#e0e0e0"
   d="m 425.264,255.577 c 0,0 1.858,0.027 1.742,0.783 0,0 1.542,0.204 1.452,-0.475 -0.09,-0.679 -3.194,-0.308 -3.194,-0.308 z"
   id="path81" />&#10;							</g>&#10;						</g>&#10;						<g
   id="g84">&#10;							<path
   style="fill:#ebebeb"
   d="m 421.82,262.38 c 0.45,1.176 1.672,1.967 2.928,2.053 1.256,0.086 2.507,-0.473 3.407,-1.352 0.9,-0.88 1.472,-2.055 1.784,-3.275 0.081,-0.316 0.257,-1.111 -0.141,-1.313 -0.365,-0.186 -0.706,0.309 -0.932,0.527 -0.652,0.627 -1.326,1.203 -2.095,1.684 -0.746,0.466 -1.546,0.846 -2.378,1.129 -0.232,0.078 -2.493,0.755 -2.573,0.547 z"
   id="path83" />&#10;						</g>&#10;						<g
   id="g85">&#10;							<path
   style="fill:#ebebeb"
   d="m 431.441,259.471 c 0.211,1 -0.143,2.1 -0.897,2.789 -0.495,0.453 -1.128,0.723 -1.757,0.957 -0.438,0.163 -0.986,0.292 -1.324,-0.03 -0.365,-0.347 -0.212,-0.951 -0.024,-1.418 0.288,-0.72 0.596,-1.432 0.923,-2.136 0.268,-0.577 0.553,-1.574 1.006,-2.021 0.426,-0.421 0.845,-0.045 1.283,0.402 0.39,0.399 0.674,0.908 0.79,1.457 z"
   id="path84" />&#10;						</g>&#10;						<g
   id="g86">&#10;							<path
   style="fill:#e0e0e0"
   d="m 422.581,261.212 c -0.782,-0.183 -1.427,-0.857 -1.574,-1.647 -0.109,-0.584 0.156,-1.962 0.893,-2.004 0.08,1.285 0.139,2.448 0.681,3.651 z"
   id="path85" />&#10;						</g>&#10;						<g
   id="g87">&#10;							<path
   style="fill:#e0e0e0"
   d="m 428.212,261.62 c 0.785,-0.072 1.519,-0.563 1.886,-1.26 0.202,-0.385 0.439,-2.505 -0.348,-1.745 -0.257,0.249 -0.393,1.173 -0.568,1.524 -0.264,0.529 -0.59,1.028 -0.97,1.481 z"
   id="path86" />&#10;						</g>&#10;						<g
   id="g88">&#10;							<path
   style="fill:#e0e0e0"
   d="m 425.118,262.371 c 0.483,0.598 1.399,0.796 2.086,0.451 -0.155,0.389 -1.492,0.486 -1.909,0.528 -1.085,0.108 -1.538,-0.446 -2.457,-1.052 0,0 1.535,0.539 2.28,0.073 z"
   id="path87" />&#10;						</g>&#10;					</g>&#10;					<g
   id="g91">&#10;						<g
   id="g90">&#10;							<polygon
   style="fill:#e6e6e6"
   points="419,300.02 418.512,299.315 421.069,273.488 424.455,264.325 425.042,264.542 421.671,273.664 "
   id="polygon89" />&#10;						</g>&#10;					</g>&#10;					<g
   id="g98">&#10;						<g
   id="g92">&#10;							<path
   style="fill:#e6e6e6"
   d="m 421.65,273.435 -0.559,0.282 c -0.368,-0.729 -0.651,-1.643 -0.979,-2.701 -0.507,-1.636 -1.081,-3.49 -2.155,-5.238 l 0.533,-0.328 c 1.115,1.815 1.702,3.709 2.22,5.38 0.319,1.032 0.595,1.923 0.94,2.605 z"
   id="path91" />&#10;						</g>&#10;						<g
   id="g93">&#10;							<path
   style="fill:#f0f0f0"
   d="m 423.026,270.049 c 0.869,-0.061 1.712,-0.449 2.324,-1.069 0.696,-0.704 1.071,-1.655 1.428,-2.578 -1.135,0.118 -2.19,-0.622 -3.329,-0.705 -0.907,-0.066 -1.836,0.319 -2.432,1.007 -0.771,0.891 -1.222,1.982 -0.795,2.538 0.353,0.458 1.641,0.889 2.804,0.807 z"
   id="path92" />&#10;						</g>&#10;						<g
   id="g95">&#10;							<g
   id="g94">&#10;								<path
   style="fill:#f0f0f0"
   d="m 413.884,267.253 c 0.839,-0.697 2.635,-0.978 3.653,-0.587 1.018,0.391 1.78,1.287 1.994,2.221 -0.405,0.616 -1.223,0.853 -1.956,0.768 -0.733,-0.085 -1.405,-0.434 -2.058,-0.776 -0.653,-0.343 -1.325,-0.692 -2.058,-0.777 z"
   id="path93" />&#10;							</g>&#10;						</g>&#10;						<g
   id="g97">&#10;							<g
   id="g96">&#10;								<path
   style="fill:#f0f0f0"
   d="m 419.52,267.744 c -1.482,0.165 -2.81,0.461 -4.157,-1.225 -0.903,-1.13 -0.614,-2.838 -0.548,-4.189 1.286,0.282 4.202,1.701 4.849,2.049 0.647,0.348 1.198,0.913 1.304,1.582 0.107,0.669 -0.347,1.413 -1.077,1.536 -0.025,-0.037 -0.371,0.247 -0.371,0.247 z"
   id="path95" />&#10;							</g>&#10;						</g>&#10;					</g>&#10;				</g>&#10;				<path
   style="fill:#fafafa"
   d="m 415.276,287.835 c -0.595,1.681 -1.16,3.51 -0.966,5.297 0.037,0.34 0.142,0.728 0.387,0.789 0.228,0.056 0.454,-0.224 0.535,-0.533 0.081,-0.309 0.06,-0.639 0.059,-0.961 -0.007,-2.77 1.501,-5.104 1.787,-7.806 0.081,-0.768 -0.117,-3.193 -0.567,-1.411 -0.401,1.588 -0.686,3.074 -1.235,4.625 z"
   id="path99" />&#10;			</g>&#10;		</g>&#10;	</g>&#10;	<g
   id="g104">&#10;		<path
   style="fill:#ebebeb"
   d="m 205.77,342.861 c 0,0 2.907,-32.208 -9.892,-47.916 -12.8,-15.708 9.993,-1.407 14.03,14.258 0,0 0.756,-28.973 -12.017,-47.749 -12.773,-18.776 8.998,-4.724 12.794,15.754 0,0 0.723,-25.854 -5.658,-39.562 -6.382,-13.708 3.137,-5.548 7.345,3.02 4.208,8.568 2.115,31.297 2.115,31.297 0,0 4.474,-42.101 12.962,-39.82 8.488,2.281 -9.151,31.644 -10.563,45.98 0,0 7.719,-19.996 15.413,-16.958 7.693,3.038 -10.71,7.237 -16.393,36.348 l -1.663,13.528 c 0,0 6.976,-19.657 13.356,-14.493 6.38,5.163 -15.548,18.059 -18.038,46.872 z"
   id="path102" />&#10;		<path
   style="fill:#f0f0f0"
   d="m 207.145,344.529 c 0,0 -2.725,-39.834 13.489,-58.805 16.214,-18.971 -12.293,-2.057 -17.693,17.142 0,0 -0.157,-35.774 16.106,-58.531 16.263,-22.758 -10.976,-6.117 -16.208,19.028 0,0 -0.2,-31.925 8.041,-48.634 8.241,-16.71 -3.722,-6.947 -9.143,3.49 -5.421,10.437 -3.447,38.549 -3.447,38.549 0,0 -4.394,-52.091 -14.928,-49.549 -10.534,2.542 10.444,39.339 11.802,57.073 0,0 -8.989,-24.921 -18.563,-21.419 -9.574,3.502 13.021,9.274 19.255,45.376 l 1.69,16.746 c 0,0 -8.081,-24.478 -16.092,-18.312 -8.01,6.167 18.701,22.781 21.002,58.414 z"
   id="path103" />&#10;		<path
   style="fill:#ebebeb"
   d="m 232.344,364.391 c 0,10.93 -11.85,19.8 -26.47,19.8 -14.63,0 -26.48,-8.87 -26.48,-19.8 0,-4.93 2.4,-9.42 6.38,-12.88 l -3.13,-13.25 h 46.45 l -3.13,13.25 c 3.98,3.46 6.38,7.95 6.38,12.88 z"
   id="path104" />&#10;	</g>&#10;</g><g
   id="Background_Simple-8"
   transform="matrix(0.41163725,0,0,0.41163725,2.6874152,-21.496484)">&#10;	<g
   id="g107">&#10;		<g
   id="g105">&#10;			<path
   style="fill:#407bff"
   d="m 246.394,86.281 c -14.543,16.155 -21.744,38.146 -20.515,59.848 1.229,21.702 9.23,42.476 18.966,61.91 8.526,17.019 18.718,36.319 11.738,54.028 -3.903,9.902 -12.787,17.233 -22.617,21.312 -9.83,4.079 -20.606,5.262 -31.236,5.793 -18.117,0.907 -36.51,0.076 -54.144,4.329 -17.634,4.253 -34.988,14.747 -41.805,31.557 -8.032,19.806 1.085,43.511 17.174,57.581 16.089,14.07 37.674,20.114 58.838,23.097 29.659,4.181 60.048,3.134 89.349,-3.079 23.526,-4.988 46.684,-13.476 65.878,-27.966 19.194,-14.49 34.171,-35.452 38.276,-59.148 4.105,-23.696 -3.862,-49.908 -22.642,-64.931 -7.812,-6.249 -17.227,-10.524 -24.08,-17.813 -6.852,-7.289 -10.33,-19.434 -3.967,-27.154 4.204,-5.1 11.276,-6.663 17.84,-7.446 32.271,-3.85 68.021,2.801 95.009,-15.307 15.455,-10.369 25.45,-28.046 27.651,-46.526 2.201,-18.48 -1.788,-38.481 -13.434,-52.998 C 420.954,43.832 285.249,43.119 246.394,86.281 Z"
   id="path105" />&#10;		</g>&#10;		<g
   style="opacity:0.9"
   id="g106">&#10;			<path
   style="fill:#ffffff"
   d="m 246.394,86.281 c -14.543,16.155 -21.744,38.146 -20.515,59.848 1.229,21.702 9.23,42.476 18.966,61.91 8.526,17.019 18.718,36.319 11.738,54.028 -3.903,9.902 -12.787,17.233 -22.617,21.312 -9.83,4.079 -20.606,5.262 -31.236,5.793 -18.117,0.907 -36.51,0.076 -54.144,4.329 -17.634,4.253 -34.988,14.747 -41.805,31.557 -8.032,19.806 1.085,43.511 17.174,57.581 16.089,14.07 37.674,20.114 58.838,23.097 29.659,4.181 60.048,3.134 89.349,-3.079 23.526,-4.988 46.684,-13.476 65.878,-27.966 19.194,-14.49 34.171,-35.452 38.276,-59.148 4.105,-23.696 -3.862,-49.908 -22.642,-64.931 -7.812,-6.249 -17.227,-10.524 -24.08,-17.813 -6.852,-7.289 -10.33,-19.434 -3.967,-27.154 4.204,-5.1 11.276,-6.663 17.84,-7.446 32.271,-3.85 68.021,2.801 95.009,-15.307 15.455,-10.369 25.45,-28.046 27.651,-46.526 2.201,-18.48 -1.788,-38.481 -13.434,-52.998 C 420.954,43.832 285.249,43.119 246.394,86.281 Z"
   id="path106" />&#10;		</g>&#10;	</g>&#10;</g><g
   id="Shadow"
   transform="matrix(0.41163725,0,0,0.41163725,2.6874152,-21.496484)">&#10;	<ellipse
   id="_x3C_Path_x3E__359_"
   style="fill:#f5f5f5"
   cx="250"
   cy="415.69299"
   rx="193.88901"
   ry="11.323" />&#10;</g><g
   id="Graphics"
   transform="matrix(0.41163725,0,0,0.41163725,2.6874152,-21.496484)">&#10;	<g
   id="g118">&#10;		<g
   id="g111">&#10;			<g
   id="g108">&#10;				<polygon
   style="fill:#407bff"
   points="241.482,244.003 234.073,257.003 236.566,242.581 "
   id="polygon107" />&#10;			</g>&#10;			<g
   id="g109">&#10;				<polygon
   style="fill:#407bff"
   points="247.826,252.824 235.717,261.616 249.779,257.554 "
   id="polygon108" />&#10;			</g>&#10;			<g
   id="g110">&#10;				<polygon
   style="fill:#407bff"
   points="251.625,244.796 238.224,256.194 246.231,241.048 "
   id="polygon109" />&#10;			</g>&#10;		</g>&#10;		<g
   id="g114">&#10;			<g
   id="g112">&#10;				<path
   style="fill:#407bff"
   d="m 105.889,278.912 h -6.333 c -0.276,0 -0.5,-0.224 -0.5,-0.5 0,-0.276 0.224,-0.5 0.5,-0.5 h 6.333 c 0.276,0 0.5,0.224 0.5,0.5 0,0.276 -0.224,0.5 -0.5,0.5 z"
   id="path111" />&#10;			</g>&#10;			<g
   id="g113">&#10;				<path
   style="fill:#407bff"
   d="M 95.346,278.912 H 63.624 c -0.276,0 -0.5,-0.224 -0.5,-0.5 0,-0.276 0.224,-0.5 0.5,-0.5 h 31.722 c 0.276,0 0.5,0.224 0.5,0.5 0,0.276 -0.224,0.5 -0.5,0.5 z"
   id="path112" />&#10;			</g>&#10;		</g>&#10;		<g
   id="g117">&#10;			<g
   id="g115">&#10;				<path
   style="fill:#407bff"
   d="m 207.853,336.778 c -0.121,0 -0.243,-0.044 -0.339,-0.132 -0.203,-0.188 -0.216,-0.504 -0.029,-0.707 l 2.965,-3.221 c 0.187,-0.202 0.504,-0.214 0.706,-0.029 0.203,0.188 0.216,0.504 0.029,0.707 l -2.965,3.221 c -0.097,0.107 -0.232,0.161 -0.367,0.161 z"
   id="path114" />&#10;			</g>&#10;			<g
   id="g116">&#10;				<path
   style="fill:#407bff"
   d="m 180.743,362.407 c -0.183,0 -0.358,-0.101 -0.446,-0.274 -0.125,-0.246 -0.026,-0.547 0.22,-0.672 9.267,-4.693 23.953,-22.229 24.101,-22.406 0.176,-0.211 0.491,-0.241 0.704,-0.063 0.212,0.177 0.241,0.492 0.063,0.704 -0.606,0.728 -14.967,17.871 -24.416,22.658 -0.073,0.036 -0.15,0.053 -0.226,0.053 z"
   id="path115" />&#10;			</g>&#10;		</g>&#10;	</g>&#10;</g><g
   id="Character"
   transform="matrix(0.41163725,0,0,0.41163725,2.6874152,-21.496484)">&#10;	<g
   id="g237">&#10;		<g
   id="g178">&#10;			<g
   id="_x3C_Group_x3E__1_">&#10;				<g
   id="g133">&#10;					<g
   id="g123">&#10;						<polygon
   style="fill:#cb7a63"
   points="234.19,340.507 252.705,356.93 259.837,351.021 241.863,333.961 "
   id="polygon118" />&#10;						<path
   style="fill:#407bff"
   d="m 265.624,348.742 c -0.485,-0.296 -1.46,-0.156 -2.473,0.122 -0.482,0.137 -0.976,0.302 -1.421,0.464 -0.348,0.126 -0.673,0.257 -0.94,0.369 -0.399,0.171 -0.693,0.301 -0.792,0.349 -0.095,0.024 -0.154,0.115 -0.16,0.21 -0.007,0.035 0.01,0.074 0.029,0.102 0.033,0.048 0.08,0.087 0.142,0.105 1.012,0.269 2.048,0.441 3.095,0.524 0.515,0.073 1.039,0.028 1.529,-0.114 0.025,-0.007 0.051,-0.015 0.069,-0.017 0.281,-0.091 0.555,-0.207 0.813,-0.363 0.333,-0.268 0.513,-0.684 0.474,-1.112 -0.005,-0.259 -0.139,-0.5 -0.365,-0.639 z m -0.099,0.654 c 0.047,0.291 -0.079,0.579 -0.316,0.751 -0.186,0.157 -0.458,0.262 -0.807,0.328 -0.337,0.069 -0.749,0.087 -1.219,0.064 -0.549,-0.02 -1.193,-0.105 -1.9,-0.239 -0.151,-0.029 -0.313,-0.059 -0.469,-0.094 0.852,-0.41 1.744,-0.715 2.661,-0.927 0.49,-0.112 0.979,-0.193 1.481,-0.243 0.15,-0.002 0.294,0.032 0.425,0.104 0.09,0.06 0.145,0.154 0.144,0.256 z"
   id="path118" />&#10;						<path
   style="fill:#407bff"
   d="m 262.353,344.984 c -0.464,0.074 -0.876,0.345 -1.135,0.734 -0.082,0.117 -0.148,0.242 -0.204,0.382 -0.597,1.286 -0.287,3.236 -0.223,3.596 0.007,0.025 0.01,0.044 0.014,0.051 0.015,0.081 0.069,0.145 0.148,0.172 0.044,0.02 0.09,0.029 0.141,0.015 0.03,0 0.058,-0.019 0.087,-0.05 0.17,-0.136 0.35,-0.33 0.549,-0.557 0.286,-0.336 0.587,-0.754 0.85,-1.196 0.616,-1.006 1.06,-2.148 0.787,-2.739 -0.108,-0.249 -0.37,-0.514 -1.014,-0.408 z m 0.596,0.593 c 0.173,0.387 -0.164,1.284 -0.666,2.162 -0.327,0.557 -0.713,1.103 -1.088,1.5 -0.078,-0.633 -0.159,-1.831 0.147,-2.716 0.063,-0.204 0.151,-0.386 0.258,-0.54 0.166,-0.245 0.412,-0.433 0.691,-0.512 l 0.136,-0.022 c 0.423,-0.077 0.501,0.082 0.522,0.128 z"
   id="path119" />&#10;						<path
   style="fill:#263238"
   d="m 258.914,350.597 -8.959,4.521 c -0.355,0.166 -0.535,0.567 -0.422,0.942 l 2.641,8.384 c 0.291,0.822 1.193,1.252 2.015,0.961 0.053,-0.019 0.105,-0.041 0.156,-0.065 15.347,-5.395 20.054,-9.208 21.655,-10.081 4.567,-2.492 2.003,-5.732 0.297,-5.328 -7.655,1.833 -10.223,1.358 -13.535,0.505 -1.752,-0.276 -3.309,-0.106 -3.848,0.161 z"
   id="path120" />&#10;						<polygon
   style="opacity:0.2;enable-background:new"
   points="234.191,340.515 241.865,333.969 250.966,342.038 243.293,348.584 "
   id="polygon120" />&#10;						<g
   id="g122">&#10;							<polygon
   style="fill:#407bff"
   points="234.72,344.909 239.033,348.523 250.483,337.965 247.963,333.538 "
   id="polygon121" />&#10;							<polygon
   style="opacity:0.5;fill:#ffffff"
   points="234.72,344.909 239.033,348.523 250.483,337.965 247.963,333.538 "
   id="polygon122" />&#10;						</g>&#10;					</g>&#10;					<g
   id="g132">&#10;						<g
   id="g127">&#10;							<g
   id="g126">&#10;								<g
   id="g125">&#10;									<g
   id="g124">&#10;										<path
   style="fill:#407bff"
   d="m 246.157,335.091 -1.534,1.319 -2.293,1.969 -1.367,1.165 -3.992,3.431 -0.766,0.654 c 0,0 -16.315,-9.191 -25.39,-17.037 -6.219,-5.377 -6.776,-7.378 -7.435,-6.878 -8.771,6.672 -34.733,29.732 -49.445,41.73 -0.478,0.054 -0.954,0.096 -1.436,0.131 -7.86,0.576 -14.044,-0.286 -18.838,-2.115 -0.05,-6.38 5.41,-21.278 5.862,-22.718 0,0 21.71,-21.577 56.883,-39.816 0.346,-0.179 0.709,-0.322 1.062,-0.472 0.458,-0.202 0.915,-0.392 1.378,-0.557 1.837,-0.698 3.642,-1.132 5.393,-1.215 1.571,-0.082 3.096,0.2 4.572,0.719 0.834,0.29 1.648,0.653 2.439,1.073 0.696,0.354 1.376,0.758 2.04,1.184 1.088,0.692 2.138,1.46 3.135,2.225 2.243,1.732 19.232,23.625 28.367,33.725 0.005,0.007 0.005,0.007 0.005,0.007 0.477,0.523 0.929,1.023 1.36,1.476 z"
   id="path123" />&#10;									</g>&#10;								</g>&#10;							</g>&#10;						</g>&#10;						<g
   style="opacity:0.1"
   id="g131">&#10;							<g
   id="g130">&#10;								<g
   id="g129">&#10;									<g
   id="g128">&#10;										<path
   d="m 246.157,335.091 -1.534,1.319 -2.293,1.969 -1.367,1.165 -3.992,3.431 -0.766,0.654 c 0,0 -16.315,-9.191 -25.39,-17.037 -6.219,-5.377 -6.776,-7.378 -7.435,-6.878 -8.771,6.672 -34.733,29.732 -49.445,41.73 -0.478,0.054 -0.954,0.096 -1.436,0.131 -7.86,0.576 -14.044,-0.286 -18.838,-2.115 -0.05,-6.38 5.41,-21.278 5.862,-22.718 0,0 21.71,-21.577 56.883,-39.816 0.346,-0.179 0.709,-0.322 1.062,-0.472 0.458,-0.202 0.915,-0.392 1.378,-0.557 1.837,-0.698 3.642,-1.132 5.393,-1.215 1.571,-0.082 3.096,0.2 4.572,0.719 0.834,0.29 1.648,0.653 2.439,1.073 0.696,0.354 1.376,0.758 2.04,1.184 1.088,0.692 2.138,1.46 3.135,2.225 2.243,1.732 19.232,23.625 28.367,33.725 0.005,0.007 0.005,0.007 0.005,0.007 0.477,0.523 0.929,1.023 1.36,1.476 z"
   id="path127" />&#10;									</g>&#10;								</g>&#10;							</g>&#10;						</g>&#10;					</g>&#10;				</g>&#10;				<path
   style="fill:#cb7a63"
   d="m 130.315,242.965 c 1.372,6.228 2.814,15.316 -1.462,19.594 5.305,9.338 11.674,18.029 18.98,25.9 9.369,-16.289 0.485,-26.357 0.485,-26.357 -7.023,-1.503 -6.909,-4.333 -5.808,-9.208 z"
   id="path133" />&#10;				<path
   style="fill:#407bff"
   d="m 124.51,263.35 c 0.519,-1.687 1.59,-3.151 3.041,-4.156 1.405,-1.076 15.961,-1.237 19.745,0.003 2.212,0.7 4.092,2.183 5.289,4.171 z"
   id="path134" />&#10;				<g
   id="g139">&#10;					<g
   id="g137">&#10;						<path
   style="fill:#cb7a63"
   d="m 191.677,288.147 3.766,-1.717 0.186,6.141 c 0,0 -1.762,1.573 -3.688,2.167 -1.848,0.57 -3.606,-1.13 -3.151,-3.01 v 0 c 0.376,-1.563 1.437,-2.88 2.887,-3.581 z"
   id="path135" />&#10;						<path
   style="fill:#cb7a63"
   d="m 200.258,288.164 -0.197,2.251 c -0.055,0.695 -0.558,1.277 -1.239,1.43 l -3.223,0.724 -0.186,-6.141 3.271,0.048 c 0.868,-0.012 1.575,0.683 1.579,1.552 0.001,0.045 -0.001,0.091 -0.005,0.136 z"
   id="path136" />&#10;						<path
   style="fill:#cb7a63"
   d="m 143.875,305.615 c 5.665,2.791 12.598,4.392 19.406,3.244 8.021,-1.353 21.995,-9.397 28.07,-14.016 l -2.047,-3.055 c -3.035,0.648 -27.793,13.232 -43.785,1.849 -2.98,-2.121 -14.684,-10.852 -18.82,-10.666 -6.706,0.303 -6.128,7.332 -3.246,10.255 3.373,3.422 15.79,10.106 20.422,12.389 z"
   id="path137" />&#10;					</g>&#10;					<g
   style="opacity:0.2;enable-background:new"
   id="g138">&#10;						<path
   d="m 200.063,290.415 c -0.058,0.692 -0.556,1.281 -1.238,1.427 l -3.196,0.723 -0.001,0.008 c 0,0 -1.759,1.574 -3.684,2.167 -0.204,0.061 -0.395,0.098 -0.59,0.102 l -0.009,0.007 c -6.08,4.621 -20.043,12.658 -28.059,14.01 -6.81,1.145 -13.747,-0.451 -19.406,-3.247 -4.634,-2.281 -17.055,-8.968 -20.43,-12.386 -2.877,-2.926 -3.456,-9.951 3.248,-10.259 4.133,-0.179 15.837,8.549 18.824,10.672 15.257,10.848 38.476,-0.087 43.229,-1.689 0.012,-0.074 0.023,-0.148 0.043,-0.221 0.19,-0.781 0.54,-1.503 1.042,-2.117 0.484,-0.608 1.121,-1.116 1.843,-1.467 l 3.73,-1.704 0.036,-0.011 3.245,0.044 c 0.863,-0.008 1.573,0.686 1.572,1.556 0.002,0.043 0.004,0.085 -0.004,0.135 z"
   id="path138" />&#10;						<polygon
   points="195.41,286.426 195.443,286.431 195.407,286.442 "
   id="polygon138" />&#10;					</g>&#10;				</g>&#10;				<g
   id="g140">&#10;					<path
   style="fill:#407bff"
   d="m 164.838,273.402 c 8.495,18.709 -11.199,24.055 -2.178,54.733 l -42.803,1.029 c 0.287,-16.443 6.131,-12.909 -1.573,-43.823 -0.652,-2.618 -1.737,-10.129 1.053,-16.969 1.086,-2.661 3.024,-4.922 5.553,-6.288 3.161,-1.708 17.08,-0.374 23.433,0.053 6.877,-0.974 15.261,8.924 16.515,11.265 z"
   id="path139" />&#10;					<path
   style="opacity:0.5;fill:#ffffff"
   d="m 164.838,273.402 c 8.495,18.709 -11.199,24.055 -2.178,54.733 l -42.803,1.029 c 0.287,-16.443 6.131,-12.909 -1.573,-43.823 -0.652,-2.618 -1.737,-10.129 1.053,-16.969 1.086,-2.661 3.024,-4.922 5.553,-6.288 3.161,-1.708 17.08,-0.374 23.433,0.053 6.877,-0.974 15.261,8.924 16.515,11.265 z"
   id="path140" />&#10;				</g>&#10;				<path
   style="fill:#263238"
   d="m 156.66,236.28 c -0.124,0.82 0.213,1.486 0.724,1.558 0.511,0.072 1.025,-0.498 1.143,-1.286 0.118,-0.788 -0.213,-1.486 -0.725,-1.558 -0.51,-0.072 -1.027,0.505 -1.142,1.286 z"
   id="path141" />&#10;				<path
   style="fill:#263238"
   d="m 157.57,235.004 1.964,-0.272 c -0.001,0 -1.186,1.336 -1.964,0.272 z"
   id="path142" />&#10;				<path
   style="fill:#a02724"
   d="m 156.793,237.361 c 0,0 0.838,3.576 2.08,5.411 -1.181,0.819 -2.883,0.117 -2.883,0.117 z"
   id="path143" />&#10;				<path
   style="fill:#263238"
   d="m 159.493,230.779 c 0.154,-0.061 0.264,-0.198 0.29,-0.362 0.035,-0.255 -0.139,-0.492 -0.393,-0.534 -1.482,-0.259 -2.998,0.218 -4.064,1.28 -0.189,0.175 -0.201,0.471 -0.026,0.661 0.175,0.19 0.471,0.201 0.661,0.026 0.022,-0.021 0.042,-0.043 0.06,-0.068 0.858,-0.822 2.058,-1.184 3.227,-0.972 0.083,0.014 0.168,0.003 0.245,-0.031 z"
   id="path144" />&#10;				<path
   style="fill:#cb7a63"
   d="m 130.756,229.804 c -0.805,9.746 -1.361,13.853 2.795,19.522 6.258,8.528 18.425,7.407 22.113,-1.909 3.342,-8.384 4.106,-22.914 -4.787,-28.131 -6.338,-3.762 -14.525,-1.674 -18.287,4.664 -1.057,1.782 -1.686,3.786 -1.834,5.854 z"
   id="path145" />&#10;				<path
   style="fill:#263238"
   d="m 155.891,246.826 c -0.735,-0.623 -1.299,-1.444 -1.618,-2.383 -0.027,-0.104 0.032,-0.214 0.139,-0.249 0.104,-0.027 0.214,0.032 0.241,0.136 0.295,0.809 0.772,1.518 1.385,2.087 z"
   id="path146" />&#10;				<g
   id="g153">&#10;					<path
   style="fill:#263238"
   d="m 123.814,217.125 c -3.715,5.037 -5.406,6.348 -0.807,19.757 1.849,5.391 7.22,12.526 9.83,13.181 4.679,1.176 9.233,-2.108 12.746,-5.416 3.076,-2.896 6.027,-6.035 7.9,-9.821 1.873,-3.786 2.562,-8.334 1.015,-12.264 -1.681,-4.271 -7.607,-8.083 -12.046,-9.018 -5.222,-1.099 -15.549,-0.607 -18.638,3.581 z"
   id="path147" />&#10;					<g
   id="g150">&#10;						<g
   id="g148">&#10;							<path
   style="fill:#263238"
   d="m 152.967,235.662 c 0,0 1.169,2.014 -0.308,3.512 l 0.03,-2.675 z"
   id="path148" />&#10;						</g>&#10;						<g
   id="g149">&#10;							<path
   style="fill:#263238"
   d="m 152.95,235.659 c 0,0 0.432,3.084 -2.152,4.234 l 1.385,-3.325 z"
   id="path149" />&#10;						</g>&#10;					</g>&#10;					<g
   id="g151">&#10;						<path
   style="fill:#263238"
   d="m 135.776,248.93 c 0,0 -2.837,1.285 -2.426,4.084 l 2.068,-2.95 z"
   id="path150" />&#10;					</g>&#10;					<g
   id="g152">&#10;						<path
   style="fill:#263238"
   d="m 135.893,248.986 c 0,0 -2.16,2.244 -0.741,4.692 l 0.829,-3.506 z"
   id="path151" />&#10;					</g>&#10;				</g>&#10;				<path
   style="fill:#263238"
   d="m 156.862,231.634 c 1.013,-1.044 2.036,-2.101 2.782,-3.35 0.746,-1.249 1.203,-2.727 0.977,-4.164 -0.291,-1.858 -1.687,-3.395 -3.321,-4.326 -1.634,-0.931 -3.502,-1.351 -5.338,-1.759 -0.903,-0.201 -1.909,-0.387 -2.702,0.088 -0.766,0.458 -1.098,1.427 -1.054,2.318 0.045,0.891 0.398,1.733 0.722,2.564 1.27,3.251 2.066,6.585 2.683,10.011 0.311,1.727 0.074,2.873 1.776,2.207 1.148,-0.449 2.6,-2.687 3.475,-3.589 z"
   id="path153" />&#10;				<path
   style="fill:#cb7a63"
   d="m 143.401,236.45 c -0.105,2.256 0.691,4.461 2.212,6.13 2.033,2.205 4.613,0.764 5.354,-1.979 0.676,-2.458 0.419,-6.568 -2.245,-7.754 -2.664,-1.186 -5.177,0.855 -5.321,3.603 z"
   id="path154" />&#10;				<polygon
   style="fill:#cb7a63"
   points="240.263,340.618 256.818,361.424 264.544,353.896 249.595,335.11 "
   id="polygon154" />&#10;				<g
   id="g156">&#10;					<path
   style="fill:#407bff"
   d="m 272.425,351.581 c -0.859,-0.298 -2.618,0.659 -3.951,1.507 -0.339,0.215 -0.644,0.421 -0.899,0.599 l -0.022,0.012 c -0.047,0.035 -0.094,0.071 -0.134,0.102 -0.301,0.213 -0.519,0.371 -0.599,0.434 -0.095,0.052 -0.143,0.155 -0.117,0.255 0.026,0.1 0.115,0.175 0.224,0.182 0.917,0.039 1.841,0.006 2.76,-0.09 0.208,-0.019 0.405,-0.042 0.61,-0.069 0.666,-0.052 1.308,-0.272 1.857,-0.641 0.197,-0.127 0.385,-0.269 0.555,-0.429 0.292,-0.351 0.389,-0.833 0.252,-1.272 -0.072,-0.265 -0.271,-0.489 -0.536,-0.59 z m 0.05,0.715 c 0.105,0.295 0.047,0.622 -0.164,0.862 -0.26,0.324 -0.784,0.583 -1.516,0.758 -0.569,0.142 -1.26,0.236 -2.065,0.279 -0.317,0.013 -0.66,0.03 -1.015,0.025 0.112,-0.09 0.221,-0.169 0.337,-0.252 0.08,-0.063 0.156,-0.114 0.24,-0.17 1.072,-0.752 2.251,-1.343 3.505,-1.747 0.148,-0.043 0.312,-0.038 0.471,0.008 0.106,0.035 0.184,0.125 0.207,0.237 z"
   id="path155" />&#10;					<path
   style="fill:#407bff"
   d="m 268.135,348.388 c -0.471,0.183 -0.837,0.556 -1.02,1.018 -0.631,1.537 0.303,3.909 0.459,4.28 -0.003,0.011 -0.003,0.011 0.008,0.015 0.001,0.019 0.005,0.026 0.009,0.033 0.037,0.085 0.114,0.137 0.196,0.149 0.053,0.009 0.105,0 0.153,-0.017 0.033,-0.009 0.066,-0.036 0.08,-0.063 0.011,-0.015 0.018,-0.019 0.029,-0.035 0.138,-0.181 0.286,-0.415 0.425,-0.681 0.741,-1.388 1.426,-3.708 0.824,-4.51 -0.178,-0.235 -0.508,-0.453 -1.163,-0.189 z m -0.247,4.726 c -0.274,-0.792 -0.747,-2.465 -0.314,-3.513 0.116,-0.292 0.33,-0.543 0.612,-0.689 l 0.136,-0.065 c 0.43,-0.17 0.541,-0.021 0.576,0.026 0.437,0.588 -0.231,2.956 -1.01,4.241 z"
   id="path156" />&#10;				</g>&#10;				<polygon
   style="opacity:0.2;enable-background:new"
   points="239.185,339.498 248.813,333.961 255.845,342.964 246.326,348.267 "
   id="polygon156" />&#10;				<path
   style="fill:#263238"
   d="m 119.473,325.895 -0.986,3.881 c -0.146,0.307 0.221,0.598 0.709,0.586 l 44.076,-1.044 c 0.386,-0.015 0.699,-0.21 0.718,-0.455 l -1.103,-4.07 c 0.03,-0.261 -0.32,-0.481 -0.74,-0.47 l -41.97,1.234 c -0.277,-0.019 -0.545,0.109 -0.704,0.338 z"
   id="path157" />&#10;				<path
   style="fill:#407bff"
   d="m 158.686,329.784 -1.157,0.122 c -0.229,-0.006 -0.422,-0.07 -0.419,-0.215 l -0.021,-5.014 c 0.004,-0.144 0.186,-0.283 0.415,-0.311 l 1.157,-0.131 c 0.229,0.006 0.422,0.07 0.418,0.223 l 0.021,5.006 c -0.002,0.152 -0.184,0.292 -0.414,0.32 z"
   id="path158" />&#10;				<g
   id="g160">&#10;					<path
   style="fill:#407bff"
   d="m 142.912,329.987 -1.157,0.122 c -0.229,-0.006 -0.414,-0.07 -0.418,-0.215 l -0.013,-5.014 c 0.004,-0.144 0.186,-0.284 0.415,-0.311 l 1.149,-0.131 c 0.229,0.006 0.422,0.07 0.418,0.223 l 0.021,5.006 c 0.004,0.17 -0.185,0.292 -0.415,0.32 z"
   id="path159" />&#10;					<path
   style="fill:#407bff"
   d="m 142.912,329.987 -1.157,0.122 c -0.229,-0.006 -0.414,-0.07 -0.418,-0.215 l -0.013,-5.014 c 0.004,-0.144 0.186,-0.284 0.415,-0.311 l 1.149,-0.131 c 0.229,0.006 0.422,0.07 0.418,0.223 l 0.021,5.006 c 0.004,0.17 -0.185,0.292 -0.415,0.32 z"
   id="path160" />&#10;				</g>&#10;				<path
   style="fill:#407bff"
   d="m 254.721,337.989 -1.952,1.101 -0.008,0.008 -3.354,1.894 -3.012,1.685 -0.009,0.008 -3.087,1.744 v 0.008 l -1.185,0.667 c 0,0 -0.267,-0.192 -0.743,-0.542 -0.184,-0.125 -0.392,-0.275 -0.634,-0.459 -0.734,-0.551 -1.76,-1.318 -2.954,-2.269 0,0 0,0 0,-0.008 -6.216,-4.914 -17.288,-14.577 -20.584,-23.362 -2.128,2.536 -4.681,5.724 -7.601,9.245 -12.574,15.169 -32.115,36.579 -55.611,39.366 -0.476,0.067 -0.951,0.109 -1.435,0.15 -7.851,0.676 -14.042,-0.108 -18.857,-1.877 -12.19,-4.464 -15.586,-15.177 -14.752,-24.289 v -0.033 c 0.075,-4.264 0.909,-11.865 0.909,-11.865 l 44.472,0.05 c 6.266,-7.609 18.84,-19.533 31.698,-27.05 0.3,-0.192 0.609,-0.367 0.918,-0.534 0.384,-0.225 0.768,-0.434 1.151,-0.642 4.18,-2.286 8.36,-4.063 12.324,-5.023 0.884,-0.209 1.752,-0.392 2.611,-0.517 0.901,-0.142 1.786,-0.217 2.662,-0.259 v 0.008 c 6.091,-0.275 11.381,1.986 14.969,8.068 l 23.396,33.759 z"
   id="path161" />&#10;				<g
   id="g170">&#10;					<g
   id="g169">&#10;						<g
   id="Monitor_Screen_1_">&#10;							<g
   id="PC_1_">&#10;								<g
   id="g166">&#10;									<polygon
   style="fill:#407bff"
   points="232.162,260.509 230.724,291.777 181.577,293.807 183.016,262.54 "
   id="polygon161" />&#10;									<path
   style="fill:#263238"
   d="m 230.148,294.243 -48.43,2.001 c -1.374,0.057 -2.436,-1.015 -2.373,-2.394 l 1.43,-31.073 c 0.063,-1.379 1.229,-2.543 2.602,-2.599 l 48.43,-2.001 c 1.374,-0.057 2.436,1.015 2.373,2.394 l -1.429,31.073 c -0.063,1.379 -1.229,2.543 -2.603,2.599 z"
   id="path162" />&#10;									<g
   id="g163">&#10;										<polygon
   style="fill:#407bff"
   points="232.162,260.509 230.724,291.777 181.577,293.807 183.016,262.54 "
   id="polygon162" />&#10;										<polygon
   style="opacity:0.9;fill:#ffffff"
   points="232.162,260.509 230.724,291.777 181.577,293.807 183.016,262.54 "
   id="polygon163" />&#10;									</g>&#10;									<g
   id="g165">&#10;										<polygon
   style="opacity:0.1;fill:#ffffff;enable-background:new"
   points="203.581,259.361 200.458,259.49 192.341,295.791 195.571,295.657 "
   id="polygon164" />&#10;										<polygon
   style="opacity:0.1;fill:#ffffff;enable-background:new"
   points="211.74,259.024 205.441,259.284 197.325,295.585 203.73,295.32 "
   id="polygon165" />&#10;									</g>&#10;								</g>&#10;							</g>&#10;						</g>&#10;						<path
   style="fill:#407bff"
   d="m 214.772,294.633 16.355,-0.46 c 0.282,1.898 -0.529,2.612 -1.571,2.638 l -5.231,0.133 -3.495,0.076 -5.429,0.154 -33.69,0.984 -0.268,-2.372 z"
   id="path166" />&#10;						<g
   id="g168">&#10;							<path
   style="fill:#407bff"
   d="m 214.772,294.633 16.355,-0.46 c 0.282,1.898 -0.529,2.612 -1.571,2.638 l -5.231,0.133 -3.495,0.076 -5.429,0.154 -41.704,1.279 c -0.478,0.015 -0.92,-0.254 -1.126,-0.686 v 0 c -0.374,-0.785 0.179,-1.695 1.048,-1.725 z"
   id="path167" />&#10;							<path
   style="opacity:0.2"
   d="m 214.772,294.633 16.355,-0.46 c 0.282,1.898 -0.529,2.612 -1.571,2.638 l -5.231,0.133 -3.495,0.076 -5.429,0.154 -41.704,1.279 c -0.478,0.015 -0.92,-0.254 -1.126,-0.686 v 0 c -0.374,-0.785 0.179,-1.695 1.048,-1.725 z"
   id="path168" />&#10;						</g>&#10;					</g>&#10;					<path
   style="opacity:0.2"
   d="m 231.128,294.173 0.098,0.661 c 0.152,1.023 -0.627,1.951 -1.669,1.977 l -5.231,0.133 -9.711,0.348 0.157,-2.658 z"
   id="path169" />&#10;				</g>&#10;				<path
   style="opacity:0.2"
   d="m 146.393,274.315 c 0,0 -2.314,4.711 4.36,17.152 l 2.791,5.073 v 0 c 0.92,1.673 7.035,-1.736 8.86,-4.874 v 0 c -0.001,0 -11.699,-7.016 -16.011,-17.351 z"
   id="path170" />&#10;				<g
   id="g173">&#10;					<path
   style="fill:#cb7a63"
   d="m 202.96,288.818 4.654,-1.37 -0.747,7.186 c 0,0 -6.487,4.339 -8.735,0.191 l 0.904,-2.317 c 0.683,-1.76 2.125,-3.116 3.924,-3.69 z"
   id="path171" />&#10;					<path
   style="fill:#cb7a63"
   d="m 212.95,290.274 -0.583,2.59 c -0.173,0.801 -0.85,1.394 -1.667,1.459 l -3.867,0.304 0.747,-7.185 3.802,0.603 c 1.012,0.132 1.727,1.059 1.595,2.072 -0.007,0.052 -0.016,0.105 -0.027,0.157 z"
   id="path172" />&#10;					<path
   style="fill:#cb7a63"
   d="m 164.243,300.973 c 3.243,4.398 7.803,8.073 13.167,9.122 6.318,1.236 18.476,-7.703 24.185,-13.488 -0.288,-2.442 -0.124,-3.76 -2.559,-4.1 0,0 -6.274,4.6 -18.11,7.36 -3.822,0.892 -6.372,-3.018 -9.707,-8.706 -1.663,-2.836 -7.043,-14.475 -9.069,-17.064 -3.255,-4.161 -12.521,-1.176 -8.843,8.83 1.548,4.211 8.284,14.449 10.936,18.046 z"
   id="path173" />&#10;				</g>&#10;				<g
   id="g174">&#10;					<path
   style="fill:#407bff"
   d="m 160.777,267.288 c 6.578,6.038 9.776,16.719 9.776,16.719 l -15.355,9.36 c 0,0 -11.233,-15.755 -9.225,-21.246 1.581,-4.265 4.51,-7.056 8.357,-7.297 2.385,-0.15 4.686,0.847 6.447,2.464 z"
   id="path174" />&#10;				</g>&#10;				<path
   style="fill:#407bff"
   d="m 125.563,330.594 -1.164,0.028 c -0.228,-0.026 -0.414,-0.108 -0.397,-0.259 l 0.423,-4.988 c 0.018,-0.152 0.211,-0.274 0.442,-0.282 l 1.164,-0.028 c 0.227,0.026 0.413,0.116 0.397,0.259 l -0.424,4.996 c -0.017,0.152 -0.213,0.3 -0.441,0.274 z"
   id="path175" />&#10;				<g
   id="g176">&#10;					<polygon
   style="fill:#407bff"
   points="236.854,342.215 240.227,347.232 255.194,339.751 253.914,334.429 "
   id="polygon175" />&#10;					<polygon
   style="opacity:0.5;fill:#ffffff"
   points="236.854,342.215 240.227,347.232 255.194,339.751 253.914,334.429 "
   id="polygon176" />&#10;				</g>&#10;				<path
   style="fill:#263238"
   d="m 263.943,353.076 -10.318,3.126 c -0.406,0.11 -0.671,0.501 -0.621,0.919 l 1.243,9.362 c 0.156,0.924 1.031,1.546 1.955,1.39 0.06,-0.01 0.119,-0.023 0.177,-0.04 17.24,-2.869 22.927,-6.033 24.783,-6.661 5.295,-1.792 3.18,-5.695 1.3,-5.584 -8.44,0.523 -11.071,-0.455 -14.417,-1.971 -1.803,-0.616 -3.483,-0.724 -4.102,-0.541 z"
   id="path176" />&#10;			</g>&#10;			<g
   id="g177">&#10;				<path
   style="fill:#263238"
   d="m 125.172,229.691 c -3.098,0.488 -6.17,-1.89 -7.14,-4.873 -0.97,-2.983 -0.167,-6.314 1.423,-9.017 1.175,-1.996 8.842,-6.742 11.686,-1.402 5.66,10.624 -5.969,15.292 -5.969,15.292 z"
   id="path177" />&#10;			</g>&#10;		</g>&#10;		<g
   id="g236">&#10;			<g
   id="g181">&#10;				<g
   id="g179">&#10;					<polygon
   style="fill:#407bff"
   points="230.418,268.227 230.284,271.228 200.034,272.514 200.168,269.514 "
   id="polygon178" />&#10;				</g>&#10;				<g
   style="opacity:0.7"
   id="g180">&#10;					<polygon
   style="fill:#ffffff"
   points="230.418,268.227 230.284,271.228 200.034,272.514 200.168,269.514 "
   id="polygon179" />&#10;				</g>&#10;			</g>&#10;			<g
   id="g184">&#10;				<g
   id="g182">&#10;					<polygon
   style="fill:#407bff"
   points="230.232,272.392 230.098,275.393 199.848,276.68 199.982,273.679 "
   id="polygon181" />&#10;				</g>&#10;				<g
   style="opacity:0.7"
   id="g183">&#10;					<polygon
   style="fill:#ffffff"
   points="230.232,272.392 230.098,275.393 199.848,276.68 199.982,273.679 "
   id="polygon182" />&#10;				</g>&#10;			</g>&#10;			<g
   id="g187">&#10;				<g
   id="g185">&#10;					<polygon
   style="fill:#407bff"
   points="230.045,276.558 229.911,279.558 199.661,280.845 199.796,277.845 "
   id="polygon184" />&#10;				</g>&#10;				<g
   style="opacity:0.7"
   id="g186">&#10;					<polygon
   style="fill:#ffffff"
   points="230.045,276.558 229.911,279.558 199.661,280.845 199.796,277.845 "
   id="polygon185" />&#10;				</g>&#10;			</g>&#10;			<g
   id="g190">&#10;				<g
   id="g188">&#10;					<polygon
   style="fill:#407bff"
   points="229.859,280.723 229.724,283.724 199.475,285.011 199.609,282.01 "
   id="polygon187" />&#10;				</g>&#10;				<g
   style="opacity:0.7"
   id="g189">&#10;					<polygon
   style="fill:#ffffff"
   points="229.859,280.723 229.724,283.724 199.475,285.011 199.609,282.01 "
   id="polygon188" />&#10;				</g>&#10;			</g>&#10;			<g
   id="g193">&#10;				<g
   id="g191">&#10;					<polygon
   style="fill:#407bff"
   points="229.672,284.888 229.538,287.889 199.288,289.176 199.422,286.175 "
   id="polygon190" />&#10;				</g>&#10;				<g
   style="opacity:0.7"
   id="g192">&#10;					<polygon
   style="fill:#ffffff"
   points="229.672,284.888 229.538,287.889 199.288,289.176 199.422,286.175 "
   id="polygon191" />&#10;				</g>&#10;			</g>&#10;			<g
   id="g197">&#10;				<g
   id="g195">&#10;					<g
   id="g194">&#10;						&#10;							<rect
   x="185.401"
   y="274.25101"
   transform="matrix(0.9991,-0.043,0.043,0.9991,-11.6311,8.2707)"
   style="fill:#407bff"
   width="2.428"
   height="1.001"
   id="rect193" />&#10;					</g>&#10;				</g>&#10;				<g
   style="opacity:0.5"
   id="g196">&#10;					&#10;						<rect
   x="185.401"
   y="274.25101"
   transform="matrix(0.9991,-0.043,0.043,0.9991,-11.6311,8.2707)"
   style="fill:#ffffff"
   width="2.428"
   height="1.001"
   id="rect195" />&#10;				</g>&#10;			</g>&#10;			<g
   id="g201">&#10;				<g
   id="g199">&#10;					<g
   id="g198">&#10;						&#10;							<rect
   x="185.286"
   y="277.13599"
   transform="matrix(0.9991,-0.043,0.043,0.9991,-11.7552,8.2684)"
   style="fill:#407bff"
   width="2.4289999"
   height="1.001"
   id="rect197" />&#10;					</g>&#10;				</g>&#10;				<g
   style="opacity:0.5"
   id="g200">&#10;					&#10;						<rect
   x="185.286"
   y="277.13599"
   transform="matrix(0.9991,-0.043,0.043,0.9991,-11.7552,8.2684)"
   style="fill:#ffffff"
   width="2.4289999"
   height="1.001"
   id="rect199" />&#10;				</g>&#10;			</g>&#10;			<g
   id="g205">&#10;				<g
   id="g203">&#10;					<g
   id="g202">&#10;						&#10;							<rect
   x="185.172"
   y="280.021"
   transform="matrix(0.9991,-0.0429,0.0429,0.9991,-11.852,8.2464)"
   style="fill:#407bff"
   width="2.428"
   height="1.001"
   id="rect201" />&#10;					</g>&#10;				</g>&#10;				<g
   style="opacity:0.5"
   id="g204">&#10;					&#10;						<rect
   x="185.172"
   y="280.021"
   transform="matrix(0.9991,-0.0429,0.0429,0.9991,-11.852,8.2464)"
   style="fill:#ffffff"
   width="2.428"
   height="1.001"
   id="rect203" />&#10;				</g>&#10;			</g>&#10;			<g
   id="g209">&#10;				<g
   id="g207">&#10;					<g
   id="g206">&#10;						&#10;							<rect
   x="185.058"
   y="282.90601"
   transform="matrix(0.9991,-0.043,0.043,0.9991,-12.0032,8.264)"
   style="fill:#407bff"
   width="2.428"
   height="1.001"
   id="rect205" />&#10;					</g>&#10;				</g>&#10;				<g
   style="opacity:0.5"
   id="g208">&#10;					&#10;						<rect
   x="185.058"
   y="282.90601"
   transform="matrix(0.9991,-0.043,0.043,0.9991,-12.0032,8.264)"
   style="fill:#ffffff"
   width="2.428"
   height="1.001"
   id="rect207" />&#10;				</g>&#10;			</g>&#10;			<g
   id="g213">&#10;				<g
   id="g211">&#10;					<g
   id="g210">&#10;						&#10;							<rect
   x="184.944"
   y="285.79001"
   transform="matrix(0.9991,-0.0429,0.0429,0.9991,-12.0995,8.2419)"
   style="fill:#407bff"
   width="2.428"
   height="1.001"
   id="rect209" />&#10;					</g>&#10;				</g>&#10;				<g
   style="opacity:0.5"
   id="g212">&#10;					<polygon
   style="fill:#ffffff"
   points="187.392,286.739 184.966,286.843 185.058,285.837 187.483,285.733 "
   id="polygon211" />&#10;				</g>&#10;			</g>&#10;			<g
   id="g217">&#10;				<g
   id="g215">&#10;					<g
   id="g214">&#10;						&#10;							<rect
   x="184.82899"
   y="288.67599"
   transform="matrix(0.9991,-0.0421,0.0421,0.9991,-11.9989,8.0814)"
   style="fill:#407bff"
   width="2.4289999"
   height="1.001"
   id="rect213" />&#10;					</g>&#10;				</g>&#10;				<g
   style="opacity:0.5"
   id="g216">&#10;					&#10;						<rect
   x="184.82899"
   y="288.67599"
   transform="matrix(0.9991,-0.0421,0.0421,0.9991,-11.9989,8.0814)"
   style="fill:#ffffff"
   width="2.4289999"
   height="1.001"
   id="rect215" />&#10;				</g>&#10;			</g>&#10;			<g
   id="g218">&#10;				<polygon
   style="fill:#407bff"
   points="185.454,270.029 190.337,271.439 185.319,273.305 185.374,271.987 188.152,271.539 185.4,271.347 "
   id="polygon217" />&#10;			</g>&#10;			<g
   id="g221">&#10;				<g
   id="g219">&#10;					<polygon
   style="fill:#407bff"
   points="221.087,264.589 220.994,266.668 200.034,267.56 200.127,265.481 "
   id="polygon218" />&#10;				</g>&#10;				<g
   style="opacity:0.7"
   id="g220">&#10;					<polygon
   style="fill:#ffffff"
   points="221.087,264.589 220.994,266.668 200.034,267.56 200.127,265.481 "
   id="polygon219" />&#10;				</g>&#10;			</g>&#10;			<g
   id="g228">&#10;				<g
   id="g222">&#10;					<polygon
   style="fill:#407bff"
   points="189.641,267.881 190.883,267.09 191.223,267.403 191.591,267.081 192.714,267.743 "
   id="polygon221" />&#10;				</g>&#10;				<g
   id="g223">&#10;					<polygon
   style="fill:#407bff"
   points="189.608,265.955 190.758,266.994 189.516,267.785 "
   id="polygon222" />&#10;				</g>&#10;				<g
   id="g224">&#10;					<polygon
   style="fill:#407bff"
   points="191.684,266.973 192.907,265.896 192.806,267.635 "
   id="polygon223" />&#10;				</g>&#10;				<g
   id="g225">&#10;					&#10;						<rect
   x="191.17799"
   y="266.70099"
   transform="matrix(0.6871,-0.7266,0.7266,0.6871,-133.9454,222.3975)"
   style="fill:#ffffff"
   width="0.098999999"
   height="0.013"
   id="rect224" />&#10;				</g>&#10;				<g
   id="g226">&#10;					&#10;						<rect
   x="191.231"
   y="266.65799"
   transform="matrix(0.726,-0.6877,0.6877,0.726,-131.0187,204.6127)"
   style="fill:#ffffff"
   width="0.013"
   height="0.098999999"
   id="rect225" />&#10;				</g>&#10;				<g
   id="g227">&#10;					<polygon
   style="fill:#407bff"
   points="189.641,265.81 192.907,265.724 191.591,266.923 191.223,267.245 190.883,266.933 189.733,265.893 "
   id="polygon226" />&#10;				</g>&#10;			</g>&#10;			<g
   id="g235">&#10;				<g
   id="g230">&#10;					<g
   id="g229">&#10;						&#10;							<rect
   x="185.401"
   y="266.10699"
   transform="matrix(0.9991,-0.0425,0.0425,0.9991,-11.1383,8.1648)"
   style="fill:#407bff"
   width="2.4289999"
   height="0.29899999"
   id="rect228" />&#10;					</g>&#10;				</g>&#10;				<g
   id="g232">&#10;					<g
   id="g231">&#10;						&#10;							<rect
   x="185.401"
   y="266.87201"
   transform="matrix(0.9991,-0.0425,0.0425,0.9991,-11.1671,8.1627)"
   style="fill:#407bff"
   width="2.4289999"
   height="0.29899999"
   id="rect230" />&#10;					</g>&#10;				</g>&#10;				<g
   id="g234">&#10;					<g
   id="g233">&#10;						&#10;							<rect
   x="185.401"
   y="267.63699"
   transform="matrix(0.9991,-0.0425,0.0425,0.9991,-11.2032,8.1662)"
   style="fill:#407bff"
   width="2.4289999"
   height="0.29899999"
   id="rect232" />&#10;					</g>&#10;				</g>&#10;			</g>&#10;		</g>&#10;	</g>&#10;</g><g
   id="Files"
   transform="matrix(0.41163725,0,0,0.41163725,2.6874152,-21.496484)">&#10;	<g
   id="g256">&#10;		<g
   id="g255">&#10;			<g
   id="g240">&#10;				<g
   id="g238">&#10;					<path
   style="fill:#407bff"
   d="m 328.705,115.677 h -14.566 c -1.321,0 -2.392,-1.071 -2.392,-2.392 0,-1.321 1.071,-2.392 2.392,-2.392 h 14.566 c 1.321,0 2.392,1.071 2.392,2.392 0,1.321 -1.071,2.392 -2.392,2.392 z"
   id="path237" />&#10;				</g>&#10;				<g
   style="opacity:0.7"
   id="g239">&#10;					<path
   style="fill:#ffffff"
   d="m 328.705,115.677 h -14.566 c -1.321,0 -2.392,-1.071 -2.392,-2.392 0,-1.321 1.071,-2.392 2.392,-2.392 h 14.566 c 1.321,0 2.392,1.071 2.392,2.392 0,1.321 -1.071,2.392 -2.392,2.392 z"
   id="path238" />&#10;				</g>&#10;			</g>&#10;			<g
   id="g254">&#10;				<g
   id="g253">&#10;					<g
   id="g245">&#10;						<g
   id="g241">&#10;							<path
   style="fill:#407bff"
   d="m 382.158,164.788 -55.855,102.798 c -0.719,1.324 -2.375,1.814 -3.699,1.095 L 227.55,217.034 c -1.324,-0.719 -1.814,-2.375 -1.094,-3.699 l 72.651,-133.71 c 0.719,-1.324 2.375,-1.814 3.699,-1.094 l 64.046,34.799 z"
   id="path240" />&#10;						</g>&#10;						<g
   style="opacity:0.2"
   id="g242">&#10;							<path
   style="fill:#ffffff"
   d="m 382.158,164.788 -55.855,102.798 c -0.719,1.324 -2.375,1.814 -3.699,1.095 L 227.55,217.034 c -1.324,-0.719 -1.814,-2.375 -1.094,-3.699 l 72.651,-133.71 c 0.719,-1.324 2.375,-1.814 3.699,-1.094 l 64.046,34.799 z"
   id="path241" />&#10;						</g>&#10;						&#10;							<rect
   x="273.811"
   y="168.408"
   transform="matrix(0.8801,0.4748,-0.4748,0.8801,118.811,-128.6575)"
   style="fill:#407bff"
   width="80.656998"
   height="5.0019999"
   id="rect242" />&#10;						&#10;							<rect
   x="264.10999"
   y="186.39"
   transform="matrix(0.8801,0.4748,-0.4748,0.8801,126.1852,-121.8956)"
   style="fill:#407bff"
   width="80.656998"
   height="5.0029998"
   id="rect243" />&#10;						&#10;							<rect
   x="254.409"
   y="204.37199"
   transform="matrix(0.8801,0.4748,-0.4748,0.8801,133.5605,-115.1341)"
   style="fill:#407bff"
   width="80.656998"
   height="5.0029998"
   id="rect244" />&#10;						<path
   style="fill:#407bff"
   d="m 366.944,113.285 -16.848,31.007 c -0.719,1.324 -0.229,2.98 1.094,3.699 l 30.912,16.796 z"
   id="path244" />&#10;						<path
   style="opacity:0.7;fill:#ffffff"
   d="m 366.944,113.285 -16.848,31.007 c -0.719,1.324 -0.229,2.98 1.094,3.699 l 30.912,16.796 z"
   id="path245" />&#10;					</g>&#10;					<g
   id="g252">&#10;						<g
   id="g246">&#10;							<path
   style="fill:#407bff"
   d="M 396.724,161.332 340.868,264.13 c -0.719,1.324 -2.375,1.814 -3.699,1.095 l -95.054,-51.647 c -1.324,-0.719 -1.814,-2.375 -1.095,-3.699 l 72.651,-133.71 c 0.719,-1.324 2.375,-1.814 3.699,-1.094 l 64.046,34.799 z"
   id="path246" />&#10;						</g>&#10;						<g
   style="opacity:0.5"
   id="g247">&#10;							<path
   style="fill:#ffffff"
   d="M 396.724,161.332 340.868,264.13 c -0.719,1.324 -2.375,1.814 -3.699,1.095 l -95.054,-51.647 c -1.324,-0.719 -1.814,-2.375 -1.095,-3.699 l 72.651,-133.71 c 0.719,-1.324 2.375,-1.814 3.699,-1.094 l 64.046,34.799 z"
   id="path247" />&#10;						</g>&#10;						<path
   style="fill:#407bff"
   d="m 363.491,183.377 -67.198,-36.251 c -1.046,-0.564 -2.352,-0.174 -2.916,0.872 l -0.331,0.614 c -0.564,1.046 -0.174,2.352 0.872,2.916 l 67.197,36.251 c 1.046,0.564 2.352,0.174 2.916,-0.872 l 0.332,-0.614 c 0.565,-1.046 0.174,-2.351 -0.872,-2.916 z"
   id="path248" />&#10;						<path
   style="fill:#407bff"
   d="m 353.79,201.359 -67.198,-36.251 c -1.046,-0.564 -2.352,-0.174 -2.916,0.872 l -0.331,0.614 c -0.565,1.046 -0.174,2.352 0.872,2.916 l 67.198,36.251 c 1.046,0.564 2.352,0.174 2.916,-0.872 l 0.331,-0.614 c 0.565,-1.046 0.175,-2.351 -0.872,-2.916 z"
   id="path249" />&#10;						<path
   style="fill:#407bff"
   d="M 344.09,219.341 276.892,183.09 c -1.046,-0.564 -2.352,-0.174 -2.916,0.872 l -0.331,0.614 c -0.564,1.046 -0.174,2.352 0.872,2.916 l 67.198,36.251 c 1.046,0.564 2.352,0.174 2.916,-0.872 l 0.331,-0.614 c 0.564,-1.046 0.174,-2.351 -0.872,-2.916 z"
   id="path250" />&#10;						<path
   style="fill:#407bff"
   d="m 381.51,109.829 -16.848,31.007 c -0.719,1.324 -0.229,2.98 1.095,3.699 l 30.912,16.796 z"
   id="path251" />&#10;						<path
   style="opacity:0.7;fill:#ffffff"
   d="m 381.51,109.829 -16.848,31.007 c -0.719,1.324 -0.229,2.98 1.095,3.699 l 30.912,16.796 z"
   id="path252" />&#10;					</g>&#10;				</g>&#10;			</g>&#10;		</g>&#10;		<path
   style="fill:#407bff"
   d="m 377.652,62.696 4.696,20.869 c -17.802,4.889 -33.768,22.504 -45.263,39.149 -4.535,6.567 -8.372,14.205 -11.241,22.272 0,0 35.894,-32.465 55.681,-34.37 l -0.941,34.498 c 0,0 20.521,-39.974 60.377,-54.604 10e-4,0 -33.384,-24.039 -63.309,-27.814 z"
   id="path255" />&#10;	</g>&#10;</g><g
   id="Couch"
   transform="matrix(0.41163725,0,0,0.41163725,2.6874152,-21.496484)">&#10;	<g
   id="g272">&#10;		<g
   id="g263">&#10;			<g
   id="g260">&#10;				<g
   id="g257">&#10;					<path
   style="fill:#407bff"
   d="m 135.514,290.703 9.07,103.673 h -14.617 l -9.76,-111.562 h 6.698 c 4.481,0 8.219,3.425 8.609,7.889 z"
   id="path256" />&#10;					<path
   style="opacity:0.2"
   d="m 135.596,291.639 8.988,102.737 h -14.617 l -9.76,-111.562 h 5.759 c 5.012,0 9.193,3.831 9.63,8.825 z"
   id="path257" />&#10;				</g>&#10;				<g
   id="g259">&#10;					<path
   style="fill:#407bff"
   d="m 126.012,289.568 9.17,104.808 H 48.144 L 39.087,290.858 c -0.378,-4.324 3.03,-8.044 7.371,-8.044 h 72.184 c 3.836,0 7.036,2.932 7.37,6.754 z"
   id="path258" />&#10;					<path
   style="opacity:0.2;fill:#ffffff"
   d="m 126.112,290.708 9.07,103.668 H 48.144 L 39.206,292.215 c -0.442,-5.054 3.541,-9.401 8.615,-9.401 h 69.677 c 4.483,0 8.223,3.427 8.614,7.894 z"
   id="path259" />&#10;				</g>&#10;			</g>&#10;			<g
   id="g262">&#10;				<g
   id="g261">&#10;					<path
   style="fill:#407bff"
   d="M 279.192,394.377 H 48.541 L 46.026,365.63 h 221.406 c 5.106,0 9.608,4.139 10.054,9.245 z"
   id="path260" />&#10;					<path
   style="opacity:0.2;fill:#ffffff"
   d="M 279.192,394.377 H 48.541 L 46.026,365.63 h 221.406 c 5.106,0 9.608,4.139 10.054,9.245 z"
   id="path261" />&#10;				</g>&#10;			</g>&#10;			<path
   style="fill:#407bff"
   d="M 289.767,405.385 H 45.83 c -3.164,0 -5.729,-2.565 -5.729,-5.729 v 0 c 0,-3.164 2.565,-5.729 5.729,-5.729 h 243.936 c 3.164,0 5.729,2.565 5.729,5.729 v 0 c 0,3.165 -2.564,5.729 -5.728,5.729 z"
   id="path262" />&#10;			<path
   style="opacity:0.2"
   d="M 289.767,405.385 H 148.158 c -3.164,0 -5.729,-2.565 -5.729,-5.729 v 0 c 0,-3.164 2.565,-5.729 5.729,-5.729 h 141.608 c 3.164,0 5.729,2.565 5.729,5.729 v 0 c 0,3.165 -2.564,5.729 -5.728,5.729 z"
   id="path263" />&#10;		</g>&#10;		<g
   id="g271">&#10;			<g
   id="g264">&#10;				<polygon
   style="fill:#263238"
   points="60.882,405.385 49.029,405.385 51.92,415.223 57.702,415.223 "
   id="polygon263" />&#10;				<polygon
   style="opacity:0.5;fill:#ffffff"
   points="60.882,405.385 49.029,405.385 51.92,415.223 57.702,415.223 "
   id="polygon264" />&#10;			</g>&#10;			<g
   id="g266">&#10;				<polygon
   style="fill:#263238"
   points="143.715,405.385 131.861,405.385 134.753,415.223 140.535,415.223 "
   id="polygon265" />&#10;				<polygon
   style="opacity:0.5;fill:#ffffff"
   points="143.715,405.385 131.861,405.385 134.753,415.223 140.535,415.223 "
   id="polygon266" />&#10;			</g>&#10;			<g
   id="g268">&#10;				<polygon
   style="fill:#263238"
   points="207.112,405.385 195.259,405.385 198.15,415.223 203.932,415.223 "
   id="polygon267" />&#10;				<polygon
   style="opacity:0.5;fill:#ffffff"
   points="207.112,405.385 195.259,405.385 198.15,415.223 203.932,415.223 "
   id="polygon268" />&#10;			</g>&#10;			<g
   id="g270">&#10;				<polygon
   style="fill:#263238"
   points="289.944,405.385 278.091,405.385 280.982,415.223 286.764,415.223 "
   id="polygon269" />&#10;				<polygon
   style="opacity:0.5;fill:#ffffff"
   points="289.944,405.385 278.091,405.385 280.982,415.223 286.764,415.223 "
   id="polygon270" />&#10;			</g>&#10;		</g>&#10;	</g>&#10;</g></svg>
