<svg version="1.2" xmlns="http://www.w3.org/2000/svg" viewBox="0 0 1000 1000" width="1000" height="1000">
	<title>10191041</title>
	<style>
		.s0 { fill: #e0e0e0 } 
		.s1 { fill: #ebebeb } 
		.s2 { fill: #f0f0f0 } 
		.s3 { opacity: .6;fill: #ffffff } 
		.s4 { fill: #f5f5f5 } 
		.s5 { fill: #407bff } 
		.s6 { opacity: .7;fill: #ffffff } 
		.s7 { opacity: .8;fill: #ffffff } 
		.s8 { opacity: .5;fill: #263238 } 
		.s9 { fill: #263238 } 
		.s10 { opacity: .5;fill: #ffffff } 
		.s11 { opacity: .2;fill: #000000 } 
		.s12 { fill: #ffffff;stroke: #263238;stroke-miterlimit:10;stroke-width: 2 } 
		.s13 { opacity: .3;fill: #ffffff } 
		.s14 { fill: #ffffff } 
		.s15 { fill: none;stroke: #407bff;stroke-linejoin: round;stroke-width: 1.5 } 
		.s16 { fill: #000000 } 
		.s17 { opacity: .3;fill: #000000 } 
		.s18 { opacity: .5;fill: #000000 } 
		.s19 { fill: #fdbbb5 } 
		.s20 { opacity: .2;fill: #ffffff } 
		.s21 { fill: #fa7b76 } 
		.s22 { opacity: .2;fill: none;stroke: #000000;stroke-linecap: round;stroke-linejoin: round } 
	</style>
	<g id="Background complete">
		<g id="&lt;Group&gt;">
			<g id="&lt;Group&gt;">
				<g id="&lt;Group&gt;">
					<g id="&lt;Group&gt;">
						<path id="&lt;Compound Path&gt;" fill-rule="evenodd" class="s0" d="m887.8 634.9h-361.5c-6.4 0-11.7-5.2-11.7-11.7v-526.5c0-6.5 5.3-11.8 11.7-11.8h361.5c6.5 0 11.8 5.3 11.8 11.8v526.5c0 6.5-5.3 11.7-11.8 11.7zm-361.5-549.5c-6.1 0-11.2 5.1-11.2 11.3v526.5c0 6.2 5.1 11.2 11.2 11.2h361.5c6.2 0 11.3-5 11.3-11.2v-526.5c0-6.2-5.1-11.3-11.3-11.3z"/>
					</g>
				</g>
				<g id="&lt;Group&gt;">
					<g id="&lt;Group&gt;">
						<path id="&lt;Compound Path&gt;" fill-rule="evenodd" class="s0" d="m471 634.9h-361.5c-6.5 0-11.7-5.2-11.7-11.7v-526.5c0-6.5 5.2-11.8 11.7-11.8h361.5c6.5 0 11.7 5.3 11.7 11.8v526.5c0 6.5-5.2 11.7-11.7 11.7zm-361.5-549.5c-6.2 0-11.2 5.1-11.2 11.3v526.5c0 6.2 5 11.2 11.2 11.2h361.5c6.2 0 11.2-5 11.2-11.2v-526.5c0-6.2-5-11.3-11.2-11.3z"/>
					</g>
				</g>
			</g>
			<g id="&lt;Group&gt;">
				<g id="&lt;Group&gt;">
					<g id="&lt;Group&gt;">
						<path id="&lt;Path&gt;" class="s0" d="m1000 680.1h-1000v-0.5h1000z"/>
					</g>
				</g>
				<path id="&lt;Path&gt;" class="s0" d="m103.3 708.1h32.2v0.5h-32.2z"/>
				<path id="&lt;Path&gt;" class="s0" d="m340.7 702.7h107.1v0.5h-107.1z"/>
				<path id="&lt;Path&gt;" class="s0" d="m137.5 726.7h72.5v0.5h-72.5z"/>
				<path id="&lt;Path&gt;" class="s0" d="m756.7 702.4h86.4v0.5h-86.4z"/>
				<path id="&lt;Path&gt;" class="s0" d="m860.9 702.4h12.7v0.5h-12.7z"/>
				<path id="&lt;Path&gt;" class="s0" d="m632.4 714.9h107.8v0.5h-107.8z"/>
			</g>
		</g>
		<g id="&lt;Group&gt;">
			<g id="freepik--Bitcoin--inject-488 00000068671861457110788590000009949327040562765453 ">
				<path id="&lt;Path&gt;" class="s0" d="m58.8 479.1c8.8 17.6 29.2 25.2 45.7 16.9l5.9-2.9-31.7-63.6-5.9 3c-16.5 8.2-22.7 29.1-14 46.6z"/>
				<path id="&lt;Path&gt;" class="s1" d="m128.2 472.6c-6.2 18.6-26.3 28.6-44.9 22.4-18.6-6.2-28.7-26.3-22.5-44.9 6.3-18.7 26.4-28.7 45-22.5 18.6 6.3 28.6 26.4 22.4 45z"/>
				<path id="&lt;Path&gt;" class="s2" d="m69.1 474c7 14.1 24.1 19.8 38.1 12.8 14.1-7 19.8-24.1 12.8-38.2-7-14-24.1-19.7-38.2-12.7-14 7-19.7 24.1-12.7 38.1z"/>
			</g>
			<g id="&lt;Group&gt;">
				<path id="&lt;Compound Path&gt;" fill-rule="evenodd" class="s0" d="m103.5 469.4q-1.3 2.5-3.9 3.9l0.2 0.9q0.3 0.7-0.1 1.4-0.3 0.7-1 0.9-0.7 0.2-1.3-0.2-0.6-0.3-0.9-1l-0.2-0.8q-2.6 0.5-4.9-0.2-2.2-0.7-3.6-2.2-0.6-0.7-0.7-1.2-0.3-0.7 0.1-1.4 0.4-0.7 1.1-0.9 0.6-0.2 1.2 0 0.6 0.2 1 0.7 0.7 1.1 2 1.5 1.4 0.4 2.8 0.3l-2.2-7.7q-3.3-0.1-5.5-1-2.2-1-2.9-3.5-0.8-2.5 0.3-4.7 1.2-2.3 4.1-3.6l-0.2-0.7q-0.2-0.7 0.1-1.4 0.3-0.7 1-0.9 0.6-0.2 1.3 0.2 0.7 0.3 0.9 1l0.2 0.7q3-0.6 5.1 0.3 2 0.8 2.7 2.9 0.2 0.8-0.1 1.5-0.4 0.6-1.1 0.9-0.6 0.2-1.2-0.1-0.6-0.3-0.9-0.9-0.3-0.7-1.3-1.1-0.9-0.3-2.2-0.2l2 6.9q7.1 0 8.6 4.7 0.8 2.6-0.5 5zm-14.3-10.4q0.9 0.5 2.7 0.6l-1.8-5.7q-1.4 0.7-1.9 1.7-0.6 0.9-0.2 2 0.3 0.9 1.2 1.4zm11.2 9q0.6-1.2 0.2-2.4-0.2-0.9-1.2-1.5-1-0.6-2.9-0.7l2 6.6q1.3-0.8 1.9-2z"/>
			</g>
			<path id="&lt;Path&gt;" class="s0" d="m67.7 450.5c6-14.8 22.8-22 37.6-16 14.9 6 22 22.8 16.1 37.7 3.8-14.2-3.6-28.9-17.2-34.4-14.8-6-31.6 1.2-37.6 16q0.4-1.6 1.1-3.3z"/>
		</g>
		<g id="&lt;Group&gt;">
			<g id="freepik--Bitcoin--inject-488 00000110429818970251859670000003968187076513894283 ">
				<path id="&lt;Path&gt;" class="s0" d="m876.4 504.2c7.6 15.2 25.3 21.8 39.7 14.6l5.1-2.5-27.6-55.2-5.1 2.5c-14.3 7.1-19.7 25.3-12.1 40.6z"/>
				<path id="&lt;Path&gt;" class="s1" d="m936.7 498.5c-5.4 16.1-22.9 24.9-39.1 19.4-16.2-5.4-24.9-22.8-19.5-39 5.4-16.2 22.9-24.9 39.1-19.5 16.2 5.4 24.9 22.9 19.5 39.1z"/>
				<path id="&lt;Path&gt;" class="s2" d="m885.3 499.7c6.1 12.2 20.9 17.2 33.1 11.1 12.2-6.1 17.2-20.9 11.1-33.1-6.1-12.3-20.9-17.2-33.1-11.1-12.2 6.1-17.2 20.9-11.1 33.1z"/>
			</g>
			<g id="&lt;Group&gt;">
				<path id="&lt;Compound Path&gt;" fill-rule="evenodd" class="s0" d="m915.2 495.7q-1.1 2.2-3.4 3.4l0.2 0.8q0.2 0.6-0.1 1.2-0.3 0.6-0.9 0.8-0.6 0.1-1.1-0.2-0.6-0.3-0.8-0.9l-0.2-0.7q-2.3 0.4-4.2-0.2-2-0.5-3.1-1.8-0.6-0.6-0.7-1.1-0.2-0.6 0.1-1.2 0.3-0.6 1-0.8 0.5-0.2 1 0 0.5 0.2 0.9 0.6 0.6 0.9 1.8 1.3 1.1 0.4 2.4 0.3l-2-6.7q-2.8-0.1-4.7-0.9-1.9-0.8-2.6-3-0.7-2.2 0.4-4.1 1-2 3.5-3.1l-0.2-0.7q-0.2-0.6 0.1-1.2 0.3-0.5 0.8-0.7 0.6-0.2 1.2 0.1 0.6 0.3 0.8 0.9l0.1 0.6q2.6-0.5 4.4 0.2 1.8 0.8 2.4 2.6 0.2 0.7-0.1 1.3-0.3 0.5-0.9 0.7-0.6 0.2-1.1 0-0.5-0.3-0.7-0.8-0.3-0.6-1.1-0.9-0.9-0.3-2-0.2l1.7 5.9q6.2 0.1 7.5 4.2 0.7 2.2-0.4 4.3zm-12.4-9q0.8 0.4 2.3 0.5l-1.5-5q-1.3 0.6-1.7 1.5-0.5 0.8-0.2 1.8 0.2 0.8 1.1 1.2zm9.7 7.8q0.5-1.1 0.2-2.1-0.2-0.8-1.1-1.3-0.8-0.5-2.5-0.6l1.8 5.7q1.1-0.7 1.6-1.7z"/>
			</g>
			<path id="&lt;Path&gt;" class="s0" d="m884.1 479.3c5.2-12.9 19.8-19.1 32.7-13.9 12.9 5.2 19.1 19.8 13.9 32.7 3.3-12.3-3.1-25.1-14.9-29.8-12.9-5.2-27.5 1-32.7 13.9q0.4-1.5 1-2.9z"/>
		</g>
		<g id="&lt;Group&gt;">
			<g id="freepik--Bitcoin--inject-488 00000158708151052072659360000009468879089322040725 ">
				<path id="&lt;Path&gt;" class="s0" d="m813.8 777.2c-8 26.9 6 54.8 31.2 62.4l9 2.6 29.1-97.4-9-2.7c-25.3-7.5-52.3 8.2-60.3 35.1z"/>
				<path id="&lt;Path&gt;" class="s1" d="m892.7 838.2c-24.7 13.4-55.5 4.2-68.9-20.5-13.3-24.7-4.2-55.5 20.5-68.9 24.7-13.4 55.6-4.2 69 20.5 13.3 24.7 4.1 55.6-20.6 68.9z"/>
				<path id="&lt;Path&gt;" class="s2" d="m829.5 781.9c-6.4 21.5 5.9 44.2 27.4 50.6 21.6 6.5 44.2-5.8 50.6-27.4 6.5-21.5-5.8-44.2-27.3-50.6-21.6-6.4-44.3 5.8-50.7 27.4z"/>
			</g>
			<g id="&lt;Group&gt;">
				<path id="&lt;Compound Path&gt;" fill-rule="evenodd" class="s0" d="m870 810.8q-3.8 1.3-8 0.2l-0.5 1.2q-0.5 0.9-1.5 1.3-1 0.4-1.9-0.1-1-0.4-1.3-1.4-0.3-1 0.2-1.9l0.5-1.1q-3.2-2.1-4.9-5-1.7-2.9-1.6-5.7 0-1.4 0.4-2.1 0.4-1 1.5-1.3 1-0.4 2 0.1 0.9 0.4 1.3 1.2 0.3 0.8 0.3 1.7-0.3 1.8 0.7 3.6 0.9 1.7 2.6 3l5.2-10.3q-3.4-3.2-4.7-6.4-1.4-3.1 0.2-6.4 1.7-3.4 5.1-4.6 3.4-1.2 7.8 0.2l0.4-1q0.5-0.9 1.5-1.3 1-0.4 1.8 0 1 0.5 1.3 1.5 0.3 1-0.1 1.9l-0.5 1q3.8 2.3 5.1 5.2 1.3 2.9 0 5.7-0.5 1.1-1.6 1.4-1 0.4-2-0.1-0.8-0.4-1.2-1.2-0.3-0.9 0-1.8 0.4-1.1-0.3-2.4-0.6-1.3-2.2-2.4l-4.6 9.1q7.4 7.1 4.4 13.4-1.7 3.4-5.4 4.8zm-4.8-24.9q0.5 1.4 2.2 3.3l3.8-7.8q-2.2-0.6-3.7-0.1-1.5 0.5-2.2 1.9-0.6 1.3-0.1 2.7zm3 20.3q1.8-0.6 2.5-2.2 0.6-1.2 0.2-2.8-0.5-1.6-2.4-3.6l-4.3 8.9q2.2 0.4 4-0.3z"/>
			</g>
			<path id="&lt;Path&gt;" class="s0" d="m851 756c20.8-9.7 45.4-0.7 55.1 20 9.6 20.8 0.6 45.4-20.1 55.1 17.8-11.1 24.5-33.7 15.7-52.7-9.7-20.7-34.3-29.7-55.1-20q2.2-1.4 4.4-2.4z"/>
		</g>
		<g id="&lt;Group&gt;">
			<g id="freepik--Bitcoin--inject-488 00000063605736639631911790000007807243042548194739 ">
				<path id="&lt;Path&gt;" class="s0" d="m346.4 94.3c1.5 17 15.7 29.6 31.6 28.1l5.7-0.5-5.6-61.5-5.6 0.5c-16 1.5-27.7 16.4-26.1 33.4z"/>
				<path id="&lt;Path&gt;" class="s1" d="m404.6 110.9c-10.9 13.1-30.4 14.9-43.5 4-13.1-11-14.8-30.4-3.9-43.5 10.9-13.1 30.4-14.9 43.5-3.9 13.1 10.9 14.8 30.3 3.9 43.4z"/>
				<path id="&lt;Path&gt;" class="s2" d="m356.3 93.4c1.2 13.6 13.2 23.6 26.8 22.4 13.6-1.3 23.6-13.3 22.4-26.9-1.2-13.6-13.2-23.6-26.8-22.3-13.6 1.2-23.6 13.2-22.4 26.8z"/>
			</g>
			<g id="&lt;Group&gt;">
				<path id="&lt;Compound Path&gt;" fill-rule="evenodd" class="s0" d="m385.6 100.6q-1.8 1.6-4.4 1.9l-0.1 0.8q0 0.6-0.5 1.1-0.5 0.4-1.1 0.4-0.6-0.1-1-0.6-0.4-0.5-0.4-1.1l0.1-0.7q-2.3-0.5-3.9-1.7-1.6-1.3-2.2-2.9-0.3-0.8-0.3-1.3 0.1-0.6 0.6-1 0.5-0.5 1.2-0.4 0.5 0 0.9 0.4 0.4 0.3 0.6 0.8 0.3 1.1 1.2 1.9 0.9 0.8 2.1 1.1l0.7-6.9q-2.7-1.1-4.1-2.6-1.5-1.4-1.3-3.7 0.1-2.3 1.8-3.7 1.6-1.5 4.4-1.6l0.1-0.7q0-0.6 0.5-1.1 0.4-0.4 1-0.4 0.6 0.1 1.1 0.6 0.4 0.5 0.3 1.1v0.6q2.6 0.5 4 1.8 1.4 1.4 1.3 3.3-0.1 0.7-0.5 1.1-0.5 0.5-1.2 0.4-0.6 0-1-0.4-0.3-0.4-0.4-1 0-0.7-0.7-1.3-0.6-0.6-1.8-0.9l-0.5 6.2q5.7 2.3 5.5 6.5-0.2 2.3-2 4zm-8.3-13q0.6 0.7 2 1.4l0.4-5.3q-1.4 0.2-2.1 0.8-0.8 0.6-0.8 1.6-0.1 0.8 0.5 1.5zm6.3 10.8q0.8-0.8 0.9-1.8 0-0.9-0.6-1.6-0.6-0.8-2.1-1.5l-0.4 6q1.3-0.3 2.2-1.1z"/>
			</g>
			<path id="&lt;Path&gt;" class="s0" d="m362.6 73.9c9.5-10.1 25.4-10.5 35.5-1 10.1 9.5 10.6 25.4 1.1 35.5 7.5-10.2 6.2-24.5-3-33.2-10.1-9.5-26-9-35.6 1.1q0.9-1.2 2-2.4z"/>
		</g>
		<g id="&lt;Group&gt;">
			<path id="&lt;Path&gt;" class="s2" d="m791.9 190.2l-207.5 49c-1.8 0.4-3.6-0.7-4-2.5l-30.9-130.7c-0.4-1.8 0.7-3.6 2.5-4l207.5-49c1.8-0.4 3.6 0.7 4 2.5l30.9 130.7c0.4 1.8-0.7 3.6-2.5 4z"/>
			<path id="&lt;Path&gt;" class="s3" d="m628.4 150.8l-34.5 8.1c-2.2 0.6-4.5-0.8-5-3l-6.8-28.7c-0.5-2.2 0.9-4.5 3.1-5l34.5-8.1c2.2-0.5 4.4 0.8 5 3l6.7 28.7c0.6 2.3-0.8 4.5-3 5z"/>
			<path id="&lt;Path&gt;" class="s0" d="m596.5 187.8q13.8-3.2 27.6-6.5c3.1-0.7 2-5.6-1.1-4.8q-13.9 3.2-27.7 6.5c-3.1 0.7-2 5.6 1.2 4.8z"/>
			<path id="&lt;Path&gt;" class="s0" d="m639 177.8q13.9-3.3 27.7-6.5c3.1-0.8 2-5.6-1.2-4.9q-13.8 3.3-27.6 6.5c-3.1 0.8-2 5.6 1.1 4.9z"/>
			<path id="&lt;Path&gt;" class="s0" d="m681.6 167.8q13.8-3.3 27.7-6.6c3.1-0.7 2-5.6-1.2-4.8q-13.8 3.2-27.6 6.5c-3.2 0.7-2 5.6 1.1 4.9z"/>
			<path id="&lt;Path&gt;" class="s0" d="m724.2 157.7q13.8-3.3 27.6-6.5c3.2-0.8 2-5.6-1.1-4.9q-13.8 3.3-27.7 6.5c-3.1 0.8-1.9 5.6 1.2 4.9z"/>
		</g>
	</g>
	<g id="Shadow">
		<g id="&lt;Group&gt;">
			<g id="&lt;Group&gt;">
				<path id="&lt;Path&gt;" class="s4" d="m902.1 917.1c0 12.1-192.4 21.9-429.7 21.9-237.4 0-429.8-9.8-429.8-21.9 0-12.1 192.4-22 429.8-22 237.3 0 429.7 9.9 429.7 22z"/>
			</g>
		</g>
	</g>
	<g id="Arrow">
		<g id="&lt;Group&gt;">
			<g id="&lt;Group&gt;">
				<path id="&lt;Path&gt;" class="s5" d="m274.6 516.7c0 0 0-0.1 0-0.1q-0.1 0.1 0 0.1z"/>
				<path id="&lt;Path&gt;" class="s5" d="m761.6 324.9l34.3 37.8-128.1 149-127.7-146.9-191.7 236.5c0 0-73.1-81.6-73.8-84.6-0.8 3.8-221.2 391.2-215.2 400.4h67.8l154.6-302.6 65.4 75.5 195.3-242.5 124.7 149 160.3-199.4 34.6 31.7 23.4-136.2z"/>
			</g>
			<g id="&lt;Group&gt;">
				<path id="&lt;Path&gt;" class="s6" d="m761.6 324.9l34.3 37.8-128.1 149-127.7-146.9-191.7 236.5c0 0-73.1-81.6-73.8-84.6-0.8 3.8-221.2 391.2-215.2 400.4h67.8l154.6-302.6 65.4 75.5 195.3-242.5 124.7 149 160.3-199.4 34.6 31.7 23.4-136.2z"/>
			</g>
		</g>
	</g>
	<g id="Calculator">
		<g id="&lt;Group&gt;">
			<path id="&lt;Path&gt;" class="s5" d="m896.5 704.4h-143.1c-6.2 0-11.3-5.1-11.3-11.3v-172.6c0-6.2 5.1-11.3 11.3-11.3h143.1c6.3 0 11.3 5.1 11.3 11.3v172.6c0 6.2-5 11.3-11.3 11.3z"/>
			<path id="&lt;Path&gt;" class="s7" d="m891.1 569.3h-133.1c-2.2 0-4-1.8-4-4v-38.6c0-2.2 1.8-4 4-4h133.1c2.2 0 4 1.8 4 4v38.6c0 2.2-1.8 4-4 4z"/>
			<path id="&lt;Path&gt;" class="s7" d="m797.9 522.7c0 0-35.3 24.4-22.4 25.3 12.9 1 49.6 2.9 43 9.6-6.6 6.7-16.5 11.7-16.5 11.7h14c0 0 37.2-17.8 17.3-23.3-19.8-5.4-56 3.4-52-2.4 3.9-5.8 34.3-20.9 34.3-20.9z"/>
			<path id="&lt;Path&gt;" class="s8" d="m889.4 690.2h-129.6c-3.2 0-5.8-2.5-5.8-5.7v-98.9c0-3.2 2.6-5.7 5.8-5.7h129.6c3.1 0 5.7 2.5 5.7 5.7v98.9c0 3.2-2.6 5.7-5.7 5.7z"/>
			<g id="&lt;Group&gt;">
				<g id="&lt;Group&gt;">
					<path id="&lt;Path&gt;" class="s5" d="m779.3 579.9q0 55.6 0 111.2c0 0.9 1.5 0.9 1.5 0q0-55.6 0-111.2c0-1-1.5-1-1.5 0z"/>
				</g>
			</g>
			<g id="&lt;Group&gt;">
				<g id="&lt;Group&gt;">
					<path id="&lt;Path&gt;" class="s5" d="m808.1 579.9q0 55.6 0 111.2c0 0.9 1.5 0.9 1.5 0q0-55.6 0-111.2c0-1-1.5-1-1.5 0z"/>
				</g>
			</g>
			<g id="&lt;Group&gt;">
				<g id="&lt;Group&gt;">
					<path id="&lt;Path&gt;" class="s5" d="m836.9 580.8q0 55.6 0 111.2c0 1 1.5 1 1.5 0q0-55.6 0-111.2c0-0.9-1.5-0.9-1.5 0z"/>
				</g>
			</g>
			<g id="&lt;Group&gt;">
				<g id="&lt;Group&gt;">
					<path id="&lt;Path&gt;" class="s5" d="m865.8 581.5q0 55.6 0 111.2c0 0.9 1.5 0.9 1.5 0q0-55.6 0-111.2c0-1-1.5-1-1.5 0z"/>
				</g>
			</g>
			<g id="&lt;Group&gt;">
				<g id="&lt;Group&gt;">
					<path id="&lt;Path&gt;" class="s5" d="m753.4 610.5q55.5 0 111.1 0 15.7 0 31.4 0c0.9 0 0.9-1.5 0-1.5q-55.6 0-111.1 0-15.7 0-31.4 0c-1 0-1 1.5 0 1.5z"/>
				</g>
			</g>
			<g id="&lt;Group&gt;">
				<g id="&lt;Group&gt;">
					<path id="&lt;Path&gt;" class="s5" d="m753.4 638.8q55.5 0 111.1 0 15.7 0 31.4 0c0.9 0 0.9-1.5 0-1.5q-55.6 0-111.1 0-15.7 0-31.4 0c-1 0-1 1.5 0 1.5z"/>
				</g>
			</g>
			<g id="&lt;Group&gt;">
				<g id="&lt;Group&gt;">
					<path id="&lt;Path&gt;" class="s5" d="m753.4 667.1q56.5 0 113.1 0c1 0 1-1.5 0-1.5q-56.6 0-113.1 0c-1 0-1 1.5 0 1.5z"/>
				</g>
			</g>
			<g id="&lt;Group&gt;">
				<path id="&lt;Compound Path&gt;" class="s9" d="m800.6 537.2v18.1h-1.7v-16.4h-4.1v-1.7z"/>
				<path id="&lt;Compound Path&gt;" class="s9" d="m816.3 550.1c0 3-2.1 5.4-6.3 5.4-2.5 0-4.9-0.9-6.3-2.4l0.9-1.4c1.1 1.2 3.1 2.1 5.4 2.1 2.8 0 4.4-1.4 4.4-3.7 0-2.2-1.4-3.6-4.7-3.6h-1.2v-1.4l4.8-6.2h-8.9v-1.7h11.2v1.3l-4.9 6.5c3.7 0.2 5.6 2.2 5.6 5.1z"/>
				<path id="&lt;Compound Path&gt;" class="s9" d="m833.5 550.6h-3.5v4.7h-1.7v-4.7h-9.8v-1.4l9.2-12h1.9l-8.8 11.7h7.5v-4.2h1.7v4.2h3.5z"/>
				<path id="&lt;Compound Path&gt;" class="s9" d="m835.7 554c0-0.8 0.6-1.4 1.3-1.4 0.7 0 1.3 0.6 1.3 1.4 0 0.8-0.6 1.4-1.3 1.4-0.7 0-1.3-0.6-1.3-1.4z"/>
				<path id="&lt;Compound Path&gt;" class="s9" d="m852.7 550c0 3.1-2.1 5.5-6.3 5.5-2.5 0-4.9-0.9-6.2-2.4l0.8-1.4c1.1 1.2 3.1 2.1 5.4 2.1 2.9 0 4.5-1.5 4.5-3.7 0-2.4-1.4-3.8-5.8-3.8h-3.7l0.9-9.1h9.5v1.7h-8l-0.6 5.7h2.3c5.2 0 7.2 2.2 7.2 5.4z"/>
				<path id="&lt;Compound Path&gt;" fill-rule="evenodd" class="s9" d="m854.9 546.3c0-5.8 2.9-9.3 7-9.3 4 0 6.9 3.5 6.9 9.3 0 5.7-2.9 9.2-6.9 9.2-4.1 0-7-3.5-7-9.2zm12.1 0c0-4.9-2.1-7.5-5.1-7.5-3.1 0-5.2 2.6-5.2 7.5 0 4.8 2.1 7.5 5.2 7.5 3 0 5.1-2.7 5.1-7.5z"/>
				<path id="&lt;Compound Path&gt;" fill-rule="evenodd" class="s9" d="m871.4 546.3c0-5.8 2.9-9.3 6.9-9.3 4 0 6.9 3.5 6.9 9.3 0 5.7-2.9 9.2-6.9 9.2-4 0-6.9-3.5-6.9-9.2zm12 0c0-4.9-2.1-7.5-5.1-7.5-3.1 0-5.1 2.6-5.1 7.5 0 4.8 2 7.5 5.1 7.5 3 0 5.1-2.7 5.1-7.5z"/>
			</g>
		</g>
	</g>
	<g id="Document">
		<g id="&lt;Group&gt;">
			<path id="&lt;Path&gt;" class="s5" d="m701 825.5h-426.5c-7.5 0-13.5-6-13.5-13.5v-636.3c0-7.4 6-13.5 13.5-13.5h426.5c7.5 0 13.5 6.1 13.5 13.5v636.3c0 7.5-6 13.5-13.5 13.5z"/>
			<path id="&lt;Path&gt;" class="s10" d="m701 825.5h-426.5c-7.5 0-13.5-6-13.5-13.5v-636.3c0-7.4 6-13.5 13.5-13.5h426.5c7.5 0 13.5 6.1 13.5 13.5v636.3c0 7.5-6 13.5-13.5 13.5z"/>
			<path id="&lt;Path&gt;" class="s1" d="m296.5 180.3h-20v628.4l419.3 3.5 11.6-14.4-10.1-592.7z"/>
			<path id="&lt;Path&gt;" class="s0" d="m707.4 797.8h-414.6v-617.5h-16.3v631.9h419.3z"/>
			<path id="&lt;Path&gt;" class="s11" d="m276.5 812.2l16.3-14.4h414.6l-11.6 14.4z"/>
			<path id="&lt;Path&gt;" class="s12" d="m743.1 777.6h-409.7c-39.9-99.4-47-352-40.6-597.3h406.8c-3.4 245.1 4.7 465.2 43.5 597.3z"/>
			<g id="&lt;Group&gt;">
				<path id="&lt;Path&gt;" class="s11" d="m695.7 751.4h-331.6v-30.1h331.6z"/>
				<path id="&lt;Path&gt;" class="s11" d="m406.6 324h-88.3v-95.2h88.3z"/>
				<path id="&lt;Path&gt;" class="s5" d="m393.5 708c0 0-26-121.2-29.4-178.3h40.4c4.7 57.6 15.7 116.9 30.2 177.2z"/>
				<path id="&lt;Path&gt;" class="s5" d="m450 708c0 0-18.3-87.3-21.6-149.5h40.3c4.8 62.7 7.9 82.6 22.5 148.3z"/>
				<path id="&lt;Path&gt;" class="s5" d="m618.8 708c0 0-18.2-87.3-21.6-149.5h40.4c4.8 62.7 7.9 82.6 22.4 148.3z"/>
				<path id="&lt;Path&gt;" class="s5" d="m508.2 708c0 0-9.4-39.5-17-104.1h40.3c4.8 62.8 17.9 102.9 17.9 102.9z"/>
				<path id="&lt;Path&gt;" class="s5" d="m566.7 708c0 0-5.6-10.2-13.3-74.7h40.4c4.7 62.7 14.1 73.5 14.1 73.5z"/>
				<g id="&lt;Group&gt;">
					<g id="&lt;Group&gt;">
						<path id="&lt;Path&gt;" class="s9" d="m341.6 520.3c0 5.7 0.6 11.4 1 17.1q1.3 19 3 37.9c2.9 31.9 6.3 63.8 12.5 95.3 2.6 13.1 5.4 26.7 11 39 0.2 0.5 0.8 0.8 1.3 0.8q15.1-0.1 30.1-0.2 36-0.3 72-0.5 43.5-0.3 87-0.6 37.8-0.3 75.5-0.5 12.3-0.1 24.7-0.2c3.9 0 7.8 0.1 11.7-0.1q0.3 0 0.6 0c1.9 0 1.9-3 0-3q-15.1 0.1-30.1 0.2-36 0.3-72 0.5-43.6 0.3-87.1 0.6-37.7 0.3-75.4 0.5-12.4 0.1-24.7 0.2-3.9 0-7.7 0c-1.3 0-2.8-0.2-4.1 0.1-0.1 0-0.3 0-0.5 0q0.7 0.3 1.3 0.7c-4.9-10.6-7.4-22.4-9.8-33.8-3.2-15.3-5.5-30.9-7.6-46.4-3.7-29-6.4-58.1-8.5-87.2-0.5-6.8-1.2-13.6-1.2-20.4 0-1.9-3-2-3 0z"/>
					</g>
				</g>
				<path id="&lt;Path&gt;" class="s11" d="m477.3 240.9h-59.9v-11.2h59.9z"/>
				<path id="&lt;Path&gt;" class="s11" d="m438.8 269.7h-21.4v-21.4h21.4z"/>
				<path id="&lt;Path&gt;" class="s5" d="m500.1 356.5h85.2c0 46.8-38.4 85.2-85.2 85.2-46.7 0-85.2-38.4-85.2-85.2 0-34 20.5-65 51.8-78.3z"/>
				<path id="&lt;Path&gt;" class="s5" d="m504.3 344.3l-32.4-78.8c10.3-4.3 21.3-6.4 32.4-6.4 21.6 0 42.4 8.2 58.2 23z"/>
				<path id="&lt;Path&gt;" class="s11" d="m504.3 344.3l-32.4-78.8c10.3-4.3 21.3-6.4 32.4-6.4 21.6 0 42.4 8.2 58.2 23z"/>
				<path id="&lt;Path&gt;" class="s5" d="m512.6 349l60.8-59.7c7.4 7.6 13.4 16.4 17.5 26.2 4.2 9.7 6.5 20.1 6.8 30.7z"/>
				<path id="&lt;Path&gt;" class="s13" d="m512.6 349l60.8-59.7c7.4 7.6 13.4 16.4 17.5 26.2 4.2 9.7 6.5 20.1 6.8 30.7z"/>
				<g id="&lt;Group&gt;">
					<g id="&lt;Group&gt;">
						<path id="&lt;Path&gt;" class="s9" d="m592.6 430.6q35 0 69.9 0c1 0 1-1.5 0-1.5q-34.9 0-69.9 0c-1 0-1 1.5 0 1.5z"/>
					</g>
				</g>
				<g id="&lt;Group&gt;">
					<g id="&lt;Group&gt;">
						<path id="&lt;Path&gt;" class="s9" d="m593.1 437.4q35 0 69.9 0c1 0 1-1.5 0-1.5q-34.9 0-69.9 0c-1 0-1 1.5 0 1.5z"/>
					</g>
				</g>
				<g id="&lt;Group&gt;">
					<g id="&lt;Group&gt;">
						<path id="&lt;Path&gt;" class="s9" d="m593.1 444.3q17.2 0 34.5 0c0.9 0 0.9-1.5 0-1.5q-17.3 0-34.5 0c-1 0-1 1.5 0 1.5z"/>
					</g>
				</g>
				<g id="&lt;Group&gt;">
					<g id="&lt;Group&gt;">
						<path id="&lt;Path&gt;" class="s9" d="m582 259.7q34.9 0 69.9 0c1 0 1-1.5 0-1.5q-35 0-69.9 0c-1 0-1 1.5 0 1.5z"/>
					</g>
				</g>
				<g id="&lt;Group&gt;">
					<g id="&lt;Group&gt;">
						<path id="&lt;Path&gt;" class="s9" d="m582 266.6q34.9 0 69.9 0c1 0 1-1.5 0-1.5q-35 0-69.9 0c-1 0-1 1.5 0 1.5z"/>
					</g>
				</g>
				<g id="&lt;Group&gt;">
					<g id="&lt;Group&gt;">
						<path id="&lt;Path&gt;" class="s9" d="m582 273.5q17.2 0 34.4 0c1 0 1-1.5 0-1.5q-17.2 0-34.4 0c-1 0-1 1.5 0 1.5z"/>
					</g>
				</g>
				<g id="&lt;Group&gt;">
					<g id="&lt;Group&gt;">
						<path id="&lt;Path&gt;" class="s9" d="m331.7 390.7q35 0 69.9 0c1 0 1-1.5 0-1.5q-34.9 0-69.9 0c-1 0-1 1.5 0 1.5z"/>
					</g>
				</g>
				<g id="&lt;Group&gt;">
					<g id="&lt;Group&gt;">
						<path id="&lt;Path&gt;" class="s9" d="m331.7 397.6q35 0 69.9 0c1 0 1-1.5 0-1.5q-34.9 0-69.9 0c-1 0-1 1.5 0 1.5z"/>
					</g>
				</g>
				<g id="&lt;Group&gt;">
					<g id="&lt;Group&gt;">
						<path id="&lt;Path&gt;" class="s9" d="m331.7 404.5q17.2 0 34.5 0c0.9 0 0.9-1.5 0-1.5q-17.3 0-34.5 0c-1 0-1 1.5 0 1.5z"/>
					</g>
				</g>
				<g id="&lt;Group&gt;">
					<path id="&lt;Path&gt;" class="s14" d="m557.6 398.4q12.5 7.7 25 15.4"/>
					<g id="&lt;Group&gt;">
						<path id="&lt;Path&gt;" class="s9" d="m557.2 399q12.5 7.7 25 15.4c0.9 0.5 1.6-0.8 0.8-1.3q-12.5-7.7-25-15.4c-0.8-0.5-1.6 0.8-0.8 1.3z"/>
					</g>
				</g>
				<path id="&lt;Path&gt;" class="s9" d="m585.8 413.8c0 1.7-1.4 3.1-3.2 3.1-1.7 0-3.1-1.4-3.1-3.1 0-1.8 1.4-3.2 3.1-3.2 1.8 0 3.2 1.4 3.2 3.2z"/>
				<g id="&lt;Group&gt;">
					<path id="&lt;Path&gt;" class="s14" d="m551.1 276.4l15.1-15"/>
					<g id="&lt;Group&gt;">
						<path id="&lt;Path&gt;" class="s9" d="m551.6 276.9q6.6-6.5 13.2-13.1 0.9-0.9 1.9-1.8c0.7-0.7-0.4-1.8-1.1-1.1q-6.6 6.5-13.2 13.1-0.9 0.9-1.9 1.9c-0.6 0.7 0.4 1.7 1.1 1z"/>
					</g>
				</g>
				<path id="&lt;Path&gt;" class="s9" d="m568.3 257.5c1.7 0.5 2.8 2.1 2.3 3.8-0.4 1.6-2.1 2.5-3.8 2.1-1.8-0.5-2.8-2.1-2.4-3.8 0.5-1.6 2.2-2.5 3.9-2.1z"/>
				<g id="&lt;Group&gt;">
					<path id="&lt;Path&gt;" class="s14" d="m417.4 355.3h-47.5"/>
					<g id="&lt;Group&gt;">
						<path id="&lt;Path&gt;" class="s9" d="m417.4 354.5q-20.8 0-41.6 0-2.9 0-5.9 0c-1 0-1 1.5 0 1.5q20.8 0 41.6 0 3 0 5.9 0c1 0 1-1.5 0-1.5z"/>
					</g>
				</g>
				<path id="&lt;Path&gt;" class="s9" d="m365.6 356.5c-0.9-1.6-0.4-3.5 1.1-4.3 1.5-0.8 3.3-0.2 4.2 1.3 0.9 1.6 0.4 3.5-1.1 4.3-1.4 0.8-3.3 0.2-4.2-1.3z"/>
				<path id="&lt;Path&gt;" class="s11" d="m661.3 504.2h-322.3v-32.4h322.3z"/>
				<path id="&lt;Path&gt;" class="s11" d="m626.2 419.6h-24.1v-38.3h24.1z"/>
				<path id="&lt;Path&gt;" class="s11" d="m656.8 420h-24.2v-20h24.2z"/>
				<path id="&lt;Path&gt;" class="s11" d="m353.6 448.2h-26.3v-26.3h26.3z"/>
				<path id="&lt;Path&gt;" class="s11" d="m410.6 448.2h-48.1v-26.3h48.1z"/>
				<path id="&lt;Path&gt;" class="s11" d="m654.3 331.7c0 10.2-8.2 18.5-18.5 18.5-10.2 0-18.4-8.3-18.4-18.5 0-10.2 8.2-18.5 18.4-18.5 10.3 0 18.5 8.3 18.5 18.5z"/>
			</g>
			<path id="&lt;Path&gt;" class="s11" d="m414.9 162.2v48l149.4 0.8-0.3-8.8-71.7-42.4z"/>
			<path id="&lt;Path&gt;" class="s9" d="m571.3 202.2h-147.5v-34.9c0-8.4 6.8-15.2 15.2-15.2h117.1c8.4 0 15.2 6.8 15.2 15.2z"/>
			<path id="&lt;Path&gt;" class="s9" d="m470.3 156l-5.6-19.4c-0.5-1.5 0.5-2.9 1.9-2.9h66.1c1.4 0 2.4 1.5 1.9 3l-6.6 20.3c-0.3 0.9-1.1 1.5-2 1.5l-53.8-0.9c-0.9 0-1.7-0.7-1.9-1.6z"/>
			<path id="&lt;Path&gt;" class="s15" d="m310.7 152.8q52.1 0 104.2 0"/>
			<path id="&lt;Path&gt;" class="s15" d="m304.8 152.8h-16.2"/>
			<g id="&lt;Group&gt;">
				<g id="&lt;Group&gt;">
					<path id="&lt;Path&gt;" class="s16" d="m472.7 151.1q28.7 0 57.4 0c1.9 0 1.9-3 0-3q-28.7 0-57.4 0c-1.9 0-1.9 3 0 3z"/>
				</g>
			</g>
		</g>
	</g>
	<g id="Charts">
		<g id="&lt;Group&gt;">
			<path id="&lt;Path&gt;" class="s5" d="m749.7 331h-97.2c-7 0-12.7-5.7-12.7-12.7v-97.2c0-7 5.7-12.7 12.7-12.7h97.2c7 0 12.7 5.7 12.7 12.7v97.2c0 7-5.7 12.7-12.7 12.7z"/>
			<path id="&lt;Path&gt;" class="s7" d="m749.7 331h-97.2c-7 0-12.7-5.7-12.7-12.7v-97.2c0-7 5.7-12.7 12.7-12.7h97.2c7 0 12.7 5.7 12.7 12.7v97.2c0 7-5.7 12.7-12.7 12.7z"/>
			<g id="&lt;Group&gt;" style="opacity: .3">
				<g id="&lt;Group&gt;">
					<path id="&lt;Path&gt;" class="s16" d="m658.3 226.7q0 42.7 0 85.3c0 0.5 0.4 0.8 0.8 0.8q36.8 0 73.5 0 5.3 0 10.6 0c0.9 0 0.9-1.5 0-1.5q-36.8 0-73.6 0-5.2 0-10.5 0 0.4 0.4 0.7 0.7 0-42.6 0-85.3c0-1-1.5-1-1.5 0z"/>
				</g>
			</g>
			<g id="&lt;Group&gt;" style="opacity: .3">
				<g id="&lt;Group&gt;">
					<path id="&lt;Path&gt;" class="s16" d="m680.3 226.3q0 42.8 0 85.6c0 1 1.5 1 1.5 0q0-42.8 0-85.6c0-1-1.5-1-1.5 0z"/>
				</g>
			</g>
			<g id="&lt;Group&gt;" style="opacity: .3">
				<g id="&lt;Group&gt;">
					<path id="&lt;Path&gt;" class="s16" d="m701.9 226.3q0 42.8 0 85.6c0 1 1.5 1 1.5 0q0-42.8 0-85.6c0-1-1.5-1-1.5 0z"/>
				</g>
			</g>
			<g id="&lt;Group&gt;" style="opacity: .3">
				<g id="&lt;Group&gt;">
					<path id="&lt;Path&gt;" class="s16" d="m723.5 226.3q0 42.8 0 85.6c0 1 1.5 1 1.5 0q0-42.8 0-85.6c0-1-1.5-1-1.5 0z"/>
				</g>
			</g>
			<g id="&lt;Group&gt;" style="opacity: .3">
				<g id="&lt;Group&gt;">
					<path id="&lt;Path&gt;" class="s16" d="m659.6 291.2q41.4 0 82.9 0c1 0 1-1.5 0-1.5q-41.5 0-82.9 0c-1 0-1 1.5 0 1.5z"/>
				</g>
			</g>
			<g id="&lt;Group&gt;" style="opacity: .3">
				<g id="&lt;Group&gt;">
					<path id="&lt;Path&gt;" class="s16" d="m659.6 269.8q41.4 0 82.9 0c1 0 1-1.5 0-1.5q-41.5 0-82.9 0c-1 0-1 1.5 0 1.5z"/>
				</g>
			</g>
			<g id="&lt;Group&gt;" style="opacity: .3">
				<g id="&lt;Group&gt;">
					<path id="&lt;Path&gt;" class="s16" d="m659.6 247.4q41.4 0 82.9 0c1 0 1-1.5 0-1.5q-41.5 0-82.9 0c-1 0-1 1.5 0 1.5z"/>
				</g>
			</g>
			<g id="&lt;Group&gt;">
				<g id="&lt;Group&gt;">
					<path id="&lt;Path&gt;" class="s9" d="m660.9 268c3.1-6.7 7-14 13.9-17.3 2.4-1.1 5.1-2 7.7-1.7 3 0.3 5.2 2.4 6.6 4.9 3.2 5.3 4.8 11.9 6.8 17.6 2.4 6.6 6.3 22.9 16.8 18.8 3.9-1.5 6-5.8 7.7-9.3 1.3-2.6 2.6-5.3 3.7-8.1 2.6-6.7 7.6-13.3 15.5-13.5 0.9 0 0.9-1.5 0-1.5-16 0.3-16.2 19.4-24.3 28.6-1.9 2.2-4.5 3.5-7.4 2.5-3.6-1.1-5.6-4.8-7-8.1-2.5-6.2-4.6-12.7-6.8-19-1.6-4.4-3.1-9.6-6.9-12.5-3.4-2.7-7.8-2.2-11.6-0.7-8.1 3.2-12.5 11-16 18.5-0.4 0.9 0.9 1.7 1.3 0.8z"/>
				</g>
			</g>
			<path id="&lt;Path&gt;" class="s5" d="m728.7 269.9c0 2.5-2 4.5-4.5 4.5-2.4 0-4.4-2-4.4-4.5 0-2.4 2-4.4 4.4-4.4 2.5 0 4.5 2 4.5 4.4z"/>
			<path id="&lt;Path&gt;" class="s5" d="m712.2 290.4c0 2.5-2 4.5-4.4 4.5-2.5 0-4.5-2-4.5-4.5 0-2.4 2-4.4 4.5-4.4 2.4 0 4.4 2 4.4 4.4z"/>
			<path id="&lt;Path&gt;" class="s5" d="m686.5 247.6c0 2.5-2 4.5-4.4 4.5-2.5 0-4.5-2-4.5-4.5 0-2.4 2-4.4 4.5-4.4 2.4 0 4.4 2 4.4 4.4z"/>
		</g>
		<g id="&lt;Group&gt;">
			<g id="&lt;Group&gt;">
				<g id="&lt;Group&gt;">
					<path id="&lt;Path&gt;" class="s5" d="m225.3 378.1h-115.3c-7.1 0-12.7-5.7-12.7-12.7v-115.4c0-7 5.6-12.7 12.7-12.7h115.3c7 0 12.7 5.7 12.7 12.7v115.4c0 7-5.7 12.7-12.7 12.7z"/>
					<path id="&lt;Path&gt;" class="s6" d="m225.3 378.1h-115.3c-7.1 0-12.7-5.7-12.7-12.7v-115.4c0-7 5.6-12.7 12.7-12.7h115.3c7 0 12.7 5.7 12.7 12.7v115.4c0 7-5.7 12.7-12.7 12.7z"/>
				</g>
			</g>
			<g id="&lt;Group&gt;">
				<path id="&lt;Compound Path&gt;" fill-rule="evenodd" class="s5" d="m217.8 308c0 26.4-21.4 47.7-47.8 47.7-26.4 0-47.8-21.3-47.8-47.7 0-26.4 21.4-47.8 47.8-47.8 26.4 0 47.8 21.4 47.8 47.8zm-20.1 1c0-15.3-12.4-27.7-27.7-27.7-15.3 0-27.7 12.4-27.7 27.7 0 15.3 12.4 27.7 27.7 27.7 15.3 0 27.7-12.4 27.7-27.7z"/>
				<g id="&lt;Group&gt;">
					<path id="&lt;Path&gt;" class="s13" d="m176.2 260.6l-4.1 20.8q0 0 0 0c13.8 1.1 24.8 12.3 25.5 26.2 5.3-1.4 13-3.5 19.8-5.5-2.7-21.5-19.7-38.6-41.2-41.5z"/>
					<path id="&lt;Path&gt;" class="s14" d="m170 260.2c-17.8 0-33.2 9.7-41.5 24.1l17.4 11.2c4.7-8.5 13.7-14.2 24.1-14.2q1.1 0 2.1 0.1 0 0 0 0l4.1-20.8q-3-0.4-6.2-0.4z"/>
					<path id="&lt;Path&gt;" class="s9" d="m122.2 308q0 1.3 0.1 2.5c6.8 0 15.5 0.1 20.1 0.1q-0.1-0.8-0.1-1.6c0-4.9 1.3-9.5 3.6-13.5l-17.4-11.2c-4 7-6.3 15.1-6.3 23.7z"/>
				</g>
			</g>
		</g>
	</g>
	<g id="Coins 2">
		<g id="&lt;Group&gt;">
			<g id="&lt;Group&gt;">
				<g id="&lt;Group&gt;">
					<g id="&lt;Group&gt;">
						<path id="&lt;Path&gt;" class="s5" d="m343.1 872.1h-131.9v-23h131.9z"/>
						<g id="&lt;Group&gt;">
							<g id="&lt;Group&gt;" style="opacity: .3">
								<g id="&lt;Group&gt;">
									<path id="&lt;Path&gt;" class="s9" d="m222 850.4q0 10.3 0 20.6c0 0.9 1.5 0.9 1.5 0q0-10.3 0-20.6c0-1-1.5-1-1.5 0z"/>
								</g>
							</g>
							<g id="&lt;Group&gt;" style="opacity: .3">
								<g id="&lt;Group&gt;">
									<path id="&lt;Path&gt;" class="s9" d="m232.9 850.4q0 10.3 0 20.6c0 0.9 1.5 0.9 1.5 0q0-10.3 0-20.6c0-1-1.5-1-1.5 0z"/>
								</g>
							</g>
							<g id="&lt;Group&gt;" style="opacity: .3">
								<g id="&lt;Group&gt;">
									<path id="&lt;Path&gt;" class="s9" d="m243.6 850.4q0 10.3 0 20.6c0 0.9 1.5 0.9 1.5 0q0-10.3 0-20.6c0-1-1.5-1-1.5 0z"/>
								</g>
							</g>
							<g id="&lt;Group&gt;" style="opacity: .3">
								<g id="&lt;Group&gt;">
									<path id="&lt;Path&gt;" class="s9" d="m254.4 850.4q0 10.3 0 20.6c0 0.9 1.5 0.9 1.5 0q0-10.3 0-20.6c0-1-1.5-1-1.5 0z"/>
								</g>
							</g>
							<g id="&lt;Group&gt;" style="opacity: .3">
								<g id="&lt;Group&gt;">
									<path id="&lt;Path&gt;" class="s9" d="m265.1 850.4q0 10.3 0 20.6c0 0.9 1.5 0.9 1.5 0q0-10.3 0-20.6c0-1-1.5-1-1.5 0z"/>
								</g>
							</g>
							<g id="&lt;Group&gt;" style="opacity: .3">
								<g id="&lt;Group&gt;">
									<path id="&lt;Path&gt;" class="s9" d="m275.9 850.4q0 10.3 0 20.6c0 0.9 1.5 0.9 1.5 0q0-10.3 0-20.6c0-1-1.5-1-1.5 0z"/>
								</g>
							</g>
							<g id="&lt;Group&gt;" style="opacity: .3">
								<g id="&lt;Group&gt;">
									<path id="&lt;Path&gt;" class="s9" d="m286.6 850.4q0 10.3 0 20.6c0 0.9 1.5 0.9 1.5 0q0-10.3 0-20.6c0-1-1.5-1-1.5 0z"/>
								</g>
							</g>
							<g id="&lt;Group&gt;" style="opacity: .3">
								<g id="&lt;Group&gt;">
									<path id="&lt;Path&gt;" class="s9" d="m297.4 850.4q0 10.3 0 20.6c0 0.9 1.5 0.9 1.5 0q0-10.3 0-20.6c0-1-1.5-1-1.5 0z"/>
								</g>
							</g>
							<g id="&lt;Group&gt;" style="opacity: .3">
								<g id="&lt;Group&gt;">
									<path id="&lt;Path&gt;" class="s9" d="m308.1 850.4q0 10.3 0 20.6c0 0.9 1.5 0.9 1.5 0q0-10.3 0-20.6c0-1-1.5-1-1.5 0z"/>
								</g>
							</g>
							<g id="&lt;Group&gt;" style="opacity: .3">
								<g id="&lt;Group&gt;">
									<path id="&lt;Path&gt;" class="s9" d="m318.9 850.4q0 10.3 0 20.6c0 0.9 1.5 0.9 1.5 0q0-10.3 0-20.6c0-1-1.5-1-1.5 0z"/>
								</g>
							</g>
							<g id="&lt;Group&gt;" style="opacity: .3">
								<g id="&lt;Group&gt;">
									<path id="&lt;Path&gt;" class="s9" d="m329.6 850.4q0 10.3 0 20.6c0 0.9 1.5 0.9 1.5 0q0-10.3 0-20.6c0-1-1.5-1-1.5 0z"/>
								</g>
							</g>
						</g>
						<path id="&lt;Path&gt;" class="s5" d="m341.2 916.8h-132v-23h132z"/>
						<path id="&lt;Path&gt;" class="s5" d="m351.2 894.4h-131.9v-23h131.9z"/>
						<path id="&lt;Path&gt;" class="s11" d="m351.2 894.4h-131.9v-23h131.9z"/>
						<g id="&lt;Group&gt;">
							<g id="&lt;Group&gt;" style="opacity: .3">
								<g id="&lt;Group&gt;">
									<path id="&lt;Path&gt;" class="s9" d="m230.7 872.6q0 10.3 0 20.6c0 1 1.5 1 1.5 0q0-10.3 0-20.6c0-1-1.5-1-1.5 0z"/>
								</g>
							</g>
							<g id="&lt;Group&gt;" style="opacity: .3">
								<g id="&lt;Group&gt;">
									<path id="&lt;Path&gt;" class="s9" d="m241.6 872.6q0 10.3 0 20.6c0 1 1.5 1 1.5 0q0-10.3 0-20.6c0-1-1.5-1-1.5 0z"/>
								</g>
							</g>
							<g id="&lt;Group&gt;" style="opacity: .3">
								<g id="&lt;Group&gt;">
									<path id="&lt;Path&gt;" class="s9" d="m252.4 872.6q0 10.3 0 20.6c0 1 1.5 1 1.5 0q0-10.3 0-20.6c0-1-1.5-1-1.5 0z"/>
								</g>
							</g>
							<g id="&lt;Group&gt;" style="opacity: .3">
								<g id="&lt;Group&gt;">
									<path id="&lt;Path&gt;" class="s9" d="m263.1 872.6q0 10.3 0 20.6c0 1 1.5 1 1.5 0q0-10.3 0-20.6c0-1-1.5-1-1.5 0z"/>
								</g>
							</g>
							<g id="&lt;Group&gt;" style="opacity: .3">
								<g id="&lt;Group&gt;">
									<path id="&lt;Path&gt;" class="s9" d="m273.9 872.6q0 10.3 0 20.6c0 1 1.5 1 1.5 0q0-10.3 0-20.6c0-1-1.5-1-1.5 0z"/>
								</g>
							</g>
							<g id="&lt;Group&gt;" style="opacity: .3">
								<g id="&lt;Group&gt;">
									<path id="&lt;Path&gt;" class="s9" d="m284.6 872.6q0 10.3 0 20.6c0 1 1.5 1 1.5 0q0-10.3 0-20.6c0-1-1.5-1-1.5 0z"/>
								</g>
							</g>
							<g id="&lt;Group&gt;" style="opacity: .3">
								<g id="&lt;Group&gt;">
									<path id="&lt;Path&gt;" class="s9" d="m295.4 872.6q0 10.3 0 20.6c0 1 1.5 1 1.5 0q0-10.3 0-20.6c0-1-1.5-1-1.5 0z"/>
								</g>
							</g>
							<g id="&lt;Group&gt;" style="opacity: .3">
								<g id="&lt;Group&gt;">
									<path id="&lt;Path&gt;" class="s9" d="m306.1 872.6q0 10.3 0 20.6c0 1 1.5 1 1.5 0q0-10.3 0-20.6c0-1-1.5-1-1.5 0z"/>
								</g>
							</g>
							<g id="&lt;Group&gt;" style="opacity: .3">
								<g id="&lt;Group&gt;">
									<path id="&lt;Path&gt;" class="s9" d="m316.9 872.6q0 10.3 0 20.6c0 1 1.5 1 1.5 0q0-10.3 0-20.6c0-1-1.5-1-1.5 0z"/>
								</g>
							</g>
							<g id="&lt;Group&gt;" style="opacity: .3">
								<g id="&lt;Group&gt;">
									<path id="&lt;Path&gt;" class="s9" d="m327.6 872.6q0 10.3 0 20.6c0 1 1.5 1 1.5 0q0-10.3 0-20.6c0-1-1.5-1-1.5 0z"/>
								</g>
							</g>
							<g id="&lt;Group&gt;" style="opacity: .3">
								<g id="&lt;Group&gt;">
									<path id="&lt;Path&gt;" class="s9" d="m338.3 872.6q0 10.3 0 20.6c0 1 1.5 1 1.5 0q0-10.3 0-20.6c0-1-1.5-1-1.5 0z"/>
								</g>
							</g>
						</g>
						<path id="&lt;Path&gt;" class="s5" d="m351.2 848.8h-131.9v-23h131.9z"/>
						<path id="&lt;Path&gt;" class="s11" d="m351.2 848.8h-131.9v-23h131.9z"/>
						<g id="&lt;Group&gt;">
							<g id="&lt;Group&gt;" style="opacity: .3">
								<g id="&lt;Group&gt;">
									<path id="&lt;Path&gt;" class="s9" d="m230.7 827q0 10.3 0 20.6c0 1 1.5 1 1.5 0q0-10.3 0-20.6c0-0.9-1.5-0.9-1.5 0z"/>
								</g>
							</g>
							<g id="&lt;Group&gt;" style="opacity: .3">
								<g id="&lt;Group&gt;">
									<path id="&lt;Path&gt;" class="s9" d="m241.6 827q0 10.3 0 20.6c0 1 1.5 1 1.5 0q0-10.3 0-20.6c0-0.9-1.5-0.9-1.5 0z"/>
								</g>
							</g>
							<g id="&lt;Group&gt;" style="opacity: .3">
								<g id="&lt;Group&gt;">
									<path id="&lt;Path&gt;" class="s9" d="m252.4 827q0 10.3 0 20.6c0 1 1.5 1 1.5 0q0-10.3 0-20.6c0-0.9-1.5-0.9-1.5 0z"/>
								</g>
							</g>
							<g id="&lt;Group&gt;" style="opacity: .3">
								<g id="&lt;Group&gt;">
									<path id="&lt;Path&gt;" class="s9" d="m263.1 827q0 10.3 0 20.6c0 1 1.5 1 1.5 0q0-10.3 0-20.6c0-0.9-1.5-0.9-1.5 0z"/>
								</g>
							</g>
							<g id="&lt;Group&gt;" style="opacity: .3">
								<g id="&lt;Group&gt;">
									<path id="&lt;Path&gt;" class="s9" d="m273.9 827q0 10.3 0 20.6c0 1 1.5 1 1.5 0q0-10.3 0-20.6c0-0.9-1.5-0.9-1.5 0z"/>
								</g>
							</g>
							<g id="&lt;Group&gt;" style="opacity: .3">
								<g id="&lt;Group&gt;">
									<path id="&lt;Path&gt;" class="s9" d="m284.6 827q0 10.3 0 20.6c0 1 1.5 1 1.5 0q0-10.3 0-20.6c0-0.9-1.5-0.9-1.5 0z"/>
								</g>
							</g>
							<g id="&lt;Group&gt;" style="opacity: .3">
								<g id="&lt;Group&gt;">
									<path id="&lt;Path&gt;" class="s9" d="m295.4 827q0 10.3 0 20.6c0 1 1.5 1 1.5 0q0-10.3 0-20.6c0-0.9-1.5-0.9-1.5 0z"/>
								</g>
							</g>
							<g id="&lt;Group&gt;" style="opacity: .3">
								<g id="&lt;Group&gt;">
									<path id="&lt;Path&gt;" class="s9" d="m306.1 827q0 10.3 0 20.6c0 1 1.5 1 1.5 0q0-10.3 0-20.6c0-0.9-1.5-0.9-1.5 0z"/>
								</g>
							</g>
							<g id="&lt;Group&gt;" style="opacity: .3">
								<g id="&lt;Group&gt;">
									<path id="&lt;Path&gt;" class="s9" d="m316.9 827q0 10.3 0 20.6c0 1 1.5 1 1.5 0q0-10.3 0-20.6c0-0.9-1.5-0.9-1.5 0z"/>
								</g>
							</g>
							<g id="&lt;Group&gt;" style="opacity: .3">
								<g id="&lt;Group&gt;">
									<path id="&lt;Path&gt;" class="s9" d="m327.6 827q0 10.3 0 20.6c0 1 1.5 1 1.5 0q0-10.3 0-20.6c0-0.9-1.5-0.9-1.5 0z"/>
								</g>
							</g>
							<g id="&lt;Group&gt;" style="opacity: .3">
								<g id="&lt;Group&gt;">
									<path id="&lt;Path&gt;" class="s9" d="m338.3 827q0 10.3 0 20.6c0 1 1.5 1 1.5 0q0-10.3 0-20.6c0-0.9-1.5-0.9-1.5 0z"/>
								</g>
							</g>
						</g>
						<g id="&lt;Group&gt;">
							<g id="&lt;Group&gt;" style="opacity: .3">
								<g id="&lt;Group&gt;">
									<path id="&lt;Path&gt;" class="s9" d="m218.9 895.4q0 10.3 0 20.6c0 0.9 1.5 0.9 1.5 0q0-10.3 0-20.6c0-1-1.5-1-1.5 0z"/>
								</g>
							</g>
							<g id="&lt;Group&gt;" style="opacity: .3">
								<g id="&lt;Group&gt;">
									<path id="&lt;Path&gt;" class="s9" d="m229.8 895.4q0 10.3 0 20.6c0 0.9 1.5 0.9 1.5 0q0-10.3 0-20.6c0-1-1.5-1-1.5 0z"/>
								</g>
							</g>
							<g id="&lt;Group&gt;" style="opacity: .3">
								<g id="&lt;Group&gt;">
									<path id="&lt;Path&gt;" class="s9" d="m240.6 895.4q0 10.3 0 20.6c0 0.9 1.5 0.9 1.5 0q0-10.3 0-20.6c0-1-1.5-1-1.5 0z"/>
								</g>
							</g>
							<g id="&lt;Group&gt;" style="opacity: .3">
								<g id="&lt;Group&gt;">
									<path id="&lt;Path&gt;" class="s9" d="m251.3 895.4q0 10.3 0 20.6c0 0.9 1.5 0.9 1.5 0q0-10.3 0-20.6c0-1-1.5-1-1.5 0z"/>
								</g>
							</g>
							<g id="&lt;Group&gt;" style="opacity: .3">
								<g id="&lt;Group&gt;">
									<path id="&lt;Path&gt;" class="s9" d="m262.1 895.4q0 10.3 0 20.6c0 0.9 1.5 0.9 1.5 0q0-10.3 0-20.6c0-1-1.5-1-1.5 0z"/>
								</g>
							</g>
							<g id="&lt;Group&gt;" style="opacity: .3">
								<g id="&lt;Group&gt;">
									<path id="&lt;Path&gt;" class="s9" d="m272.8 895.4q0 10.3 0 20.6c0 0.9 1.5 0.9 1.5 0q0-10.3 0-20.6c0-1-1.5-1-1.5 0z"/>
								</g>
							</g>
							<g id="&lt;Group&gt;" style="opacity: .3">
								<g id="&lt;Group&gt;">
									<path id="&lt;Path&gt;" class="s9" d="m283.6 895.4q0 10.3 0 20.6c0 0.9 1.5 0.9 1.5 0q0-10.3 0-20.6c0-1-1.5-1-1.5 0z"/>
								</g>
							</g>
							<g id="&lt;Group&gt;" style="opacity: .3">
								<g id="&lt;Group&gt;">
									<path id="&lt;Path&gt;" class="s9" d="m294.3 895.4q0 10.3 0 20.6c0 0.9 1.5 0.9 1.5 0q0-10.3 0-20.6c0-1-1.5-1-1.5 0z"/>
								</g>
							</g>
							<g id="&lt;Group&gt;" style="opacity: .3">
								<g id="&lt;Group&gt;">
									<path id="&lt;Path&gt;" class="s9" d="m305.1 895.4q0 10.3 0 20.6c0 0.9 1.5 0.9 1.5 0q0-10.3 0-20.6c0-1-1.5-1-1.5 0z"/>
								</g>
							</g>
							<g id="&lt;Group&gt;" style="opacity: .3">
								<g id="&lt;Group&gt;">
									<path id="&lt;Path&gt;" class="s9" d="m315.8 895.4q0 10.3 0 20.6c0 0.9 1.5 0.9 1.5 0q0-10.3 0-20.6c0-1-1.5-1-1.5 0z"/>
								</g>
							</g>
							<g id="&lt;Group&gt;" style="opacity: .3">
								<g id="&lt;Group&gt;">
									<path id="&lt;Path&gt;" class="s9" d="m326.6 895.4q0 10.3 0 20.6c0 0.9 1.5 0.9 1.5 0q0-10.3 0-20.6c0-1-1.5-1-1.5 0z"/>
								</g>
							</g>
						</g>
					</g>
				</g>
				<g id="&lt;Group&gt;">
					<g id="&lt;Group&gt;" style="opacity: .3">
						<path id="&lt;Path&gt;" class="s16" d="m343.1 849.1h-131.9v23h8.1v21.7h-10.1v23h132v-22.4h10v-23h-8.1z"/>
					</g>
					<g id="&lt;Group&gt;" style="opacity: .2">
						<path id="&lt;Path&gt;" class="s16" d="m219.3 825.8v23h131.9v-23z"/>
					</g>
				</g>
			</g>
			<g id="&lt;Group&gt;">
				<g id="&lt;Group&gt;">
					<path id="&lt;Path&gt;" class="s5" d="m261.3 872.4h-132v-22.9h132z"/>
					<g id="&lt;Group&gt;">
						<g id="&lt;Group&gt;" style="opacity: .3">
							<g id="&lt;Group&gt;">
								<path id="&lt;Path&gt;" class="s9" d="m140.1 850.7q0 10.3 0 20.6c0 1 1.5 1 1.5 0q0-10.3 0-20.6c0-0.9-1.5-1-1.5 0z"/>
							</g>
						</g>
						<g id="&lt;Group&gt;" style="opacity: .3">
							<g id="&lt;Group&gt;">
								<path id="&lt;Path&gt;" class="s9" d="m151 850.7q0 10.3 0 20.6c0 1 1.5 1 1.5 0q0-10.3 0-20.6c0-0.9-1.5-1-1.5 0z"/>
							</g>
						</g>
						<g id="&lt;Group&gt;" style="opacity: .3">
							<g id="&lt;Group&gt;">
								<path id="&lt;Path&gt;" class="s9" d="m161.8 850.7q0 10.3 0 20.6c0 1 1.5 1 1.5 0q0-10.3 0-20.6c0-0.9-1.5-1-1.5 0z"/>
							</g>
						</g>
						<g id="&lt;Group&gt;" style="opacity: .3">
							<g id="&lt;Group&gt;">
								<path id="&lt;Path&gt;" class="s9" d="m172.5 850.7q0 10.3 0 20.6c0 1 1.5 1 1.5 0q0-10.3 0-20.6c0-0.9-1.5-1-1.5 0z"/>
							</g>
						</g>
						<g id="&lt;Group&gt;" style="opacity: .3">
							<g id="&lt;Group&gt;">
								<path id="&lt;Path&gt;" class="s9" d="m183.3 850.7q0 10.3 0 20.6c0 1 1.5 1 1.5 0q0-10.3 0-20.6c0-0.9-1.5-1-1.5 0z"/>
							</g>
						</g>
						<g id="&lt;Group&gt;" style="opacity: .3">
							<g id="&lt;Group&gt;">
								<path id="&lt;Path&gt;" class="s9" d="m194 850.7q0 10.3 0 20.6c0 1 1.5 1 1.5 0q0-10.3 0-20.6c0-0.9-1.5-1-1.5 0z"/>
							</g>
						</g>
						<g id="&lt;Group&gt;" style="opacity: .3">
							<g id="&lt;Group&gt;">
								<path id="&lt;Path&gt;" class="s9" d="m204.8 850.7q0 10.3 0 20.6c0 1 1.5 1 1.5 0q0-10.3 0-20.6c0-0.9-1.5-1-1.5 0z"/>
							</g>
						</g>
						<g id="&lt;Group&gt;" style="opacity: .3">
							<g id="&lt;Group&gt;">
								<path id="&lt;Path&gt;" class="s9" d="m215.5 850.7q0 10.3 0 20.6c0 1 1.5 1 1.5 0q0-10.3 0-20.6c0-0.9-1.5-1-1.5 0z"/>
							</g>
						</g>
						<g id="&lt;Group&gt;" style="opacity: .3">
							<g id="&lt;Group&gt;">
								<path id="&lt;Path&gt;" class="s9" d="m226.2 850.7q0 10.3 0 20.6c0 1 1.5 1 1.5 0q0-10.3 0-20.6c0-0.9-1.5-1-1.5 0z"/>
							</g>
						</g>
						<g id="&lt;Group&gt;" style="opacity: .3">
							<g id="&lt;Group&gt;">
								<path id="&lt;Path&gt;" class="s9" d="m237 850.7q0 10.3 0 20.6c0 1 1.5 1 1.5 0q0-10.3 0-20.6c0-0.9-1.5-1-1.5 0z"/>
							</g>
						</g>
						<g id="&lt;Group&gt;" style="opacity: .3">
							<g id="&lt;Group&gt;">
								<path id="&lt;Path&gt;" class="s9" d="m247.7 850.7q0 10.3 0 20.6c0 1 1.5 1 1.5 0q0-10.3 0-20.6c0-0.9-1.5-1-1.5 0z"/>
							</g>
						</g>
					</g>
					<path id="&lt;Path&gt;" class="s5" d="m259.3 917.1h-131.9v-23h131.9z"/>
					<path id="&lt;Path&gt;" class="s5" d="m269.4 894.7h-132v-23h132z"/>
					<path id="&lt;Path&gt;" class="s11" d="m269.4 894.7h-132v-23h132z"/>
					<g id="&lt;Group&gt;">
						<g id="&lt;Group&gt;" style="opacity: .3">
							<g id="&lt;Group&gt;">
								<path id="&lt;Path&gt;" class="s9" d="m148.9 872.9q0 10.3 0 20.6c0 1 1.5 1 1.5 0q0-10.3 0-20.6c0-0.9-1.5-0.9-1.5 0z"/>
							</g>
						</g>
						<g id="&lt;Group&gt;" style="opacity: .3">
							<g id="&lt;Group&gt;">
								<path id="&lt;Path&gt;" class="s9" d="m159.8 872.9q0 10.3 0 20.6c0 1 1.5 1 1.5 0q0-10.3 0-20.6c0-0.9-1.5-0.9-1.5 0z"/>
							</g>
						</g>
						<g id="&lt;Group&gt;" style="opacity: .3">
							<g id="&lt;Group&gt;">
								<path id="&lt;Path&gt;" class="s9" d="m170.5 872.9q0 10.3 0 20.6c0 1 1.5 1 1.5 0q0-10.3 0-20.6c0-0.9-1.5-0.9-1.5 0z"/>
							</g>
						</g>
						<g id="&lt;Group&gt;" style="opacity: .3">
							<g id="&lt;Group&gt;">
								<path id="&lt;Path&gt;" class="s9" d="m181.3 872.9q0 10.3 0 20.6c0 1 1.5 1 1.5 0q0-10.3 0-20.6c0-0.9-1.5-0.9-1.5 0z"/>
							</g>
						</g>
						<g id="&lt;Group&gt;" style="opacity: .3">
							<g id="&lt;Group&gt;">
								<path id="&lt;Path&gt;" class="s9" d="m192 872.9q0 10.3 0 20.6c0 1 1.5 1 1.5 0q0-10.3 0-20.6c0-0.9-1.5-0.9-1.5 0z"/>
							</g>
						</g>
						<g id="&lt;Group&gt;" style="opacity: .3">
							<g id="&lt;Group&gt;">
								<path id="&lt;Path&gt;" class="s9" d="m202.7 872.9q0 10.3 0 20.6c0 1 1.5 1 1.5 0q0-10.3 0-20.6c0-0.9-1.5-0.9-1.5 0z"/>
							</g>
						</g>
						<g id="&lt;Group&gt;" style="opacity: .3">
							<g id="&lt;Group&gt;">
								<path id="&lt;Path&gt;" class="s9" d="m213.5 872.9q0 10.3 0 20.6c0 1 1.5 1 1.5 0q0-10.3 0-20.6c0-0.9-1.5-0.9-1.5 0z"/>
							</g>
						</g>
						<g id="&lt;Group&gt;" style="opacity: .3">
							<g id="&lt;Group&gt;">
								<path id="&lt;Path&gt;" class="s9" d="m224.2 872.9q0 10.3 0 20.6c0 1 1.5 1 1.5 0q0-10.3 0-20.6c0-0.9-1.5-0.9-1.5 0z"/>
							</g>
						</g>
						<g id="&lt;Group&gt;" style="opacity: .3">
							<g id="&lt;Group&gt;">
								<path id="&lt;Path&gt;" class="s9" d="m235 872.9q0 10.3 0 20.6c0 1 1.5 1 1.5 0q0-10.3 0-20.6c0-0.9-1.5-0.9-1.5 0z"/>
							</g>
						</g>
						<g id="&lt;Group&gt;" style="opacity: .3">
							<g id="&lt;Group&gt;">
								<path id="&lt;Path&gt;" class="s9" d="m245.7 872.9q0 10.3 0 20.6c0 1 1.5 1 1.5 0q0-10.3 0-20.6c0-0.9-1.5-0.9-1.5 0z"/>
							</g>
						</g>
						<g id="&lt;Group&gt;" style="opacity: .3">
							<g id="&lt;Group&gt;">
								<path id="&lt;Path&gt;" class="s9" d="m256.5 872.9q0 10.3 0 20.6c0 1 1.5 1 1.5 0q0-10.3 0-20.6c0-0.9-1.5-0.9-1.5 0z"/>
							</g>
						</g>
					</g>
					<path id="&lt;Path&gt;" class="s5" d="m269.4 849.1h-132v-22.9h132z"/>
					<path id="&lt;Path&gt;" class="s11" d="m269.4 849.1h-132v-22.9h132z"/>
					<g id="&lt;Group&gt;">
						<g id="&lt;Group&gt;" style="opacity: .3">
							<g id="&lt;Group&gt;">
								<path id="&lt;Path&gt;" class="s9" d="m148.9 827.4q0 10.2 0 20.5c0 1 1.5 1 1.5 0q0-10.3 0-20.5c0-1-1.5-1-1.5 0z"/>
							</g>
						</g>
						<g id="&lt;Group&gt;" style="opacity: .3">
							<g id="&lt;Group&gt;">
								<path id="&lt;Path&gt;" class="s9" d="m159.8 827.4q0 10.2 0 20.5c0 1 1.5 1 1.5 0q0-10.3 0-20.5c0-1-1.5-1-1.5 0z"/>
							</g>
						</g>
						<g id="&lt;Group&gt;" style="opacity: .3">
							<g id="&lt;Group&gt;">
								<path id="&lt;Path&gt;" class="s9" d="m170.5 827.4q0 10.2 0 20.5c0 1 1.5 1 1.5 0q0-10.3 0-20.5c0-1-1.5-1-1.5 0z"/>
							</g>
						</g>
						<g id="&lt;Group&gt;" style="opacity: .3">
							<g id="&lt;Group&gt;">
								<path id="&lt;Path&gt;" class="s9" d="m181.3 827.4q0 10.2 0 20.5c0 1 1.5 1 1.5 0q0-10.3 0-20.5c0-1-1.5-1-1.5 0z"/>
							</g>
						</g>
						<g id="&lt;Group&gt;" style="opacity: .3">
							<g id="&lt;Group&gt;">
								<path id="&lt;Path&gt;" class="s9" d="m192 827.4q0 10.2 0 20.5c0 1 1.5 1 1.5 0q0-10.3 0-20.5c0-1-1.5-1-1.5 0z"/>
							</g>
						</g>
						<g id="&lt;Group&gt;" style="opacity: .3">
							<g id="&lt;Group&gt;">
								<path id="&lt;Path&gt;" class="s9" d="m202.7 827.4q0 10.2 0 20.5c0 1 1.5 1 1.5 0q0-10.3 0-20.5c0-1-1.5-1-1.5 0z"/>
							</g>
						</g>
						<g id="&lt;Group&gt;" style="opacity: .3">
							<g id="&lt;Group&gt;">
								<path id="&lt;Path&gt;" class="s9" d="m213.5 827.4q0 10.2 0 20.5c0 1 1.5 1 1.5 0q0-10.3 0-20.5c0-1-1.5-1-1.5 0z"/>
							</g>
						</g>
						<g id="&lt;Group&gt;" style="opacity: .3">
							<g id="&lt;Group&gt;">
								<path id="&lt;Path&gt;" class="s9" d="m224.2 827.4q0 10.2 0 20.5c0 1 1.5 1 1.5 0q0-10.3 0-20.5c0-1-1.5-1-1.5 0z"/>
							</g>
						</g>
						<g id="&lt;Group&gt;" style="opacity: .3">
							<g id="&lt;Group&gt;">
								<path id="&lt;Path&gt;" class="s9" d="m235 827.4q0 10.2 0 20.5c0 1 1.5 1 1.5 0q0-10.3 0-20.5c0-1-1.5-1-1.5 0z"/>
							</g>
						</g>
						<g id="&lt;Group&gt;" style="opacity: .3">
							<g id="&lt;Group&gt;">
								<path id="&lt;Path&gt;" class="s9" d="m245.7 827.4q0 10.2 0 20.5c0 1 1.5 1 1.5 0q0-10.3 0-20.5c0-1-1.5-1-1.5 0z"/>
							</g>
						</g>
						<g id="&lt;Group&gt;" style="opacity: .3">
							<g id="&lt;Group&gt;">
								<path id="&lt;Path&gt;" class="s9" d="m256.5 827.4q0 10.2 0 20.5c0 1 1.5 1 1.5 0q0-10.3 0-20.5c0-1-1.5-1-1.5 0z"/>
							</g>
						</g>
					</g>
					<g id="&lt;Group&gt;">
						<g id="&lt;Group&gt;" style="opacity: .3">
							<g id="&lt;Group&gt;">
								<path id="&lt;Path&gt;" class="s9" d="m137.1 895.7q0 10.3 0 20.6c0 1 1.5 1 1.5 0q0-10.3 0-20.6c0-0.9-1.5-1-1.5 0z"/>
							</g>
						</g>
						<g id="&lt;Group&gt;" style="opacity: .3">
							<g id="&lt;Group&gt;">
								<path id="&lt;Path&gt;" class="s9" d="m148 895.7q0 10.3 0 20.6c0 1 1.5 1 1.5 0q0-10.3 0-20.6c0-0.9-1.5-1-1.5 0z"/>
							</g>
						</g>
						<g id="&lt;Group&gt;" style="opacity: .3">
							<g id="&lt;Group&gt;">
								<path id="&lt;Path&gt;" class="s9" d="m158.7 895.7q0 10.3 0 20.6c0 1 1.5 1 1.5 0q0-10.3 0-20.6c0-0.9-1.5-1-1.5 0z"/>
							</g>
						</g>
						<g id="&lt;Group&gt;" style="opacity: .3">
							<g id="&lt;Group&gt;">
								<path id="&lt;Path&gt;" class="s9" d="m169.5 895.7q0 10.3 0 20.6c0 1 1.5 1 1.5 0q0-10.3 0-20.6c0-0.9-1.5-1-1.5 0z"/>
							</g>
						</g>
						<g id="&lt;Group&gt;" style="opacity: .3">
							<g id="&lt;Group&gt;">
								<path id="&lt;Path&gt;" class="s9" d="m180.2 895.7q0 10.3 0 20.6c0 1 1.5 1 1.5 0q0-10.3 0-20.6c0-0.9-1.5-1-1.5 0z"/>
							</g>
						</g>
						<g id="&lt;Group&gt;" style="opacity: .3">
							<g id="&lt;Group&gt;">
								<path id="&lt;Path&gt;" class="s9" d="m191 895.7q0 10.3 0 20.6c0 1 1.5 1 1.5 0q0-10.3 0-20.6c0-0.9-1.5-1-1.5 0z"/>
							</g>
						</g>
						<g id="&lt;Group&gt;" style="opacity: .3">
							<g id="&lt;Group&gt;">
								<path id="&lt;Path&gt;" class="s9" d="m201.7 895.7q0 10.3 0 20.6c0 1 1.5 1 1.5 0q0-10.3 0-20.6c0-0.9-1.5-1-1.5 0z"/>
							</g>
						</g>
						<g id="&lt;Group&gt;" style="opacity: .3">
							<g id="&lt;Group&gt;">
								<path id="&lt;Path&gt;" class="s9" d="m212.4 895.7q0 10.3 0 20.6c0 1 1.5 1 1.5 0q0-10.3 0-20.6c0-0.9-1.5-1-1.5 0z"/>
							</g>
						</g>
						<g id="&lt;Group&gt;" style="opacity: .3">
							<g id="&lt;Group&gt;">
								<path id="&lt;Path&gt;" class="s9" d="m223.2 895.7q0 10.3 0 20.6c0 1 1.5 1 1.5 0q0-10.3 0-20.6c0-0.9-1.5-1-1.5 0z"/>
							</g>
						</g>
						<g id="&lt;Group&gt;" style="opacity: .3">
							<g id="&lt;Group&gt;">
								<path id="&lt;Path&gt;" class="s9" d="m233.9 895.7q0 10.3 0 20.6c0 1 1.5 1 1.5 0q0-10.3 0-20.6c0-0.9-1.5-1-1.5 0z"/>
							</g>
						</g>
						<g id="&lt;Group&gt;" style="opacity: .3">
							<g id="&lt;Group&gt;">
								<path id="&lt;Path&gt;" class="s9" d="m244.7 895.7q0 10.3 0 20.6c0 1 1.5 1 1.5 0q0-10.3 0-20.6c0-0.9-1.5-1-1.5 0z"/>
							</g>
						</g>
					</g>
				</g>
				<g id="&lt;Group&gt;">
					<path id="&lt;Path&gt;" class="s5" d="m261.3 782.4h-132v-22.9h132z"/>
					<g id="&lt;Group&gt;">
						<g id="&lt;Group&gt;" style="opacity: .3">
							<g id="&lt;Group&gt;">
								<path id="&lt;Path&gt;" class="s9" d="m140.1 760.7q0 10.3 0 20.6c0 1 1.5 1 1.5 0q0-10.3 0-20.6c0-0.9-1.5-0.9-1.5 0z"/>
							</g>
						</g>
						<g id="&lt;Group&gt;" style="opacity: .3">
							<g id="&lt;Group&gt;">
								<path id="&lt;Path&gt;" class="s9" d="m151 760.7q0 10.3 0 20.6c0 1 1.5 1 1.5 0q0-10.3 0-20.6c0-0.9-1.5-0.9-1.5 0z"/>
							</g>
						</g>
						<g id="&lt;Group&gt;" style="opacity: .3">
							<g id="&lt;Group&gt;">
								<path id="&lt;Path&gt;" class="s9" d="m161.8 760.7q0 10.3 0 20.6c0 1 1.5 1 1.5 0q0-10.3 0-20.6c0-0.9-1.5-0.9-1.5 0z"/>
							</g>
						</g>
						<g id="&lt;Group&gt;" style="opacity: .3">
							<g id="&lt;Group&gt;">
								<path id="&lt;Path&gt;" class="s9" d="m172.5 760.7q0 10.3 0 20.6c0 1 1.5 1 1.5 0q0-10.3 0-20.6c0-0.9-1.5-0.9-1.5 0z"/>
							</g>
						</g>
						<g id="&lt;Group&gt;" style="opacity: .3">
							<g id="&lt;Group&gt;">
								<path id="&lt;Path&gt;" class="s9" d="m183.3 760.7q0 10.3 0 20.6c0 1 1.5 1 1.5 0q0-10.3 0-20.6c0-0.9-1.5-0.9-1.5 0z"/>
							</g>
						</g>
						<g id="&lt;Group&gt;" style="opacity: .3">
							<g id="&lt;Group&gt;">
								<path id="&lt;Path&gt;" class="s9" d="m194 760.7q0 10.3 0 20.6c0 1 1.5 1 1.5 0q0-10.3 0-20.6c0-0.9-1.5-0.9-1.5 0z"/>
							</g>
						</g>
						<g id="&lt;Group&gt;" style="opacity: .3">
							<g id="&lt;Group&gt;">
								<path id="&lt;Path&gt;" class="s9" d="m204.8 760.7q0 10.3 0 20.6c0 1 1.5 1 1.5 0q0-10.3 0-20.6c0-0.9-1.5-0.9-1.5 0z"/>
							</g>
						</g>
						<g id="&lt;Group&gt;" style="opacity: .3">
							<g id="&lt;Group&gt;">
								<path id="&lt;Path&gt;" class="s9" d="m215.5 760.7q0 10.3 0 20.6c0 1 1.5 1 1.5 0q0-10.3 0-20.6c0-0.9-1.5-0.9-1.5 0z"/>
							</g>
						</g>
						<g id="&lt;Group&gt;" style="opacity: .3">
							<g id="&lt;Group&gt;">
								<path id="&lt;Path&gt;" class="s9" d="m226.2 760.7q0 10.3 0 20.6c0 1 1.5 1 1.5 0q0-10.3 0-20.6c0-0.9-1.5-0.9-1.5 0z"/>
							</g>
						</g>
						<g id="&lt;Group&gt;" style="opacity: .3">
							<g id="&lt;Group&gt;">
								<path id="&lt;Path&gt;" class="s9" d="m237 760.7q0 10.3 0 20.6c0 1 1.5 1 1.5 0q0-10.3 0-20.6c0-0.9-1.5-0.9-1.5 0z"/>
							</g>
						</g>
						<g id="&lt;Group&gt;" style="opacity: .3">
							<g id="&lt;Group&gt;">
								<path id="&lt;Path&gt;" class="s9" d="m247.7 760.7q0 10.3 0 20.6c0 1 1.5 1 1.5 0q0-10.3 0-20.6c0-0.9-1.5-0.9-1.5 0z"/>
							</g>
						</g>
					</g>
					<path id="&lt;Path&gt;" class="s5" d="m259.3 827.1h-131.9v-23h131.9z"/>
					<path id="&lt;Path&gt;" class="s5" d="m269.4 804.7h-132v-23h132z"/>
					<path id="&lt;Path&gt;" class="s11" d="m269.4 804.7h-132v-23h132z"/>
					<g id="&lt;Group&gt;">
						<g id="&lt;Group&gt;" style="opacity: .3">
							<g id="&lt;Group&gt;">
								<path id="&lt;Path&gt;" class="s9" d="m148.9 782.9q0 10.3 0 20.6c0 1 1.5 1 1.5 0q0-10.3 0-20.6c0-0.9-1.5-0.9-1.5 0z"/>
							</g>
						</g>
						<g id="&lt;Group&gt;" style="opacity: .3">
							<g id="&lt;Group&gt;">
								<path id="&lt;Path&gt;" class="s9" d="m159.8 782.9q0 10.3 0 20.6c0 1 1.5 1 1.5 0q0-10.3 0-20.6c0-0.9-1.5-0.9-1.5 0z"/>
							</g>
						</g>
						<g id="&lt;Group&gt;" style="opacity: .3">
							<g id="&lt;Group&gt;">
								<path id="&lt;Path&gt;" class="s9" d="m170.5 782.9q0 10.3 0 20.6c0 1 1.5 1 1.5 0q0-10.3 0-20.6c0-0.9-1.5-0.9-1.5 0z"/>
							</g>
						</g>
						<g id="&lt;Group&gt;" style="opacity: .3">
							<g id="&lt;Group&gt;">
								<path id="&lt;Path&gt;" class="s9" d="m181.3 782.9q0 10.3 0 20.6c0 1 1.5 1 1.5 0q0-10.3 0-20.6c0-0.9-1.5-0.9-1.5 0z"/>
							</g>
						</g>
						<g id="&lt;Group&gt;" style="opacity: .3">
							<g id="&lt;Group&gt;">
								<path id="&lt;Path&gt;" class="s9" d="m192 782.9q0 10.3 0 20.6c0 1 1.5 1 1.5 0q0-10.3 0-20.6c0-0.9-1.5-0.9-1.5 0z"/>
							</g>
						</g>
						<g id="&lt;Group&gt;" style="opacity: .3">
							<g id="&lt;Group&gt;">
								<path id="&lt;Path&gt;" class="s9" d="m202.7 782.9q0 10.3 0 20.6c0 1 1.5 1 1.5 0q0-10.3 0-20.6c0-0.9-1.5-0.9-1.5 0z"/>
							</g>
						</g>
						<g id="&lt;Group&gt;" style="opacity: .3">
							<g id="&lt;Group&gt;">
								<path id="&lt;Path&gt;" class="s9" d="m213.5 782.9q0 10.3 0 20.6c0 1 1.5 1 1.5 0q0-10.3 0-20.6c0-0.9-1.5-0.9-1.5 0z"/>
							</g>
						</g>
						<g id="&lt;Group&gt;" style="opacity: .3">
							<g id="&lt;Group&gt;">
								<path id="&lt;Path&gt;" class="s9" d="m224.2 782.9q0 10.3 0 20.6c0 1 1.5 1 1.5 0q0-10.3 0-20.6c0-0.9-1.5-0.9-1.5 0z"/>
							</g>
						</g>
						<g id="&lt;Group&gt;" style="opacity: .3">
							<g id="&lt;Group&gt;">
								<path id="&lt;Path&gt;" class="s9" d="m235 782.9q0 10.3 0 20.6c0 1 1.5 1 1.5 0q0-10.3 0-20.6c0-0.9-1.5-0.9-1.5 0z"/>
							</g>
						</g>
						<g id="&lt;Group&gt;" style="opacity: .3">
							<g id="&lt;Group&gt;">
								<path id="&lt;Path&gt;" class="s9" d="m245.7 782.9q0 10.3 0 20.6c0 1 1.5 1 1.5 0q0-10.3 0-20.6c0-0.9-1.5-0.9-1.5 0z"/>
							</g>
						</g>
						<g id="&lt;Group&gt;" style="opacity: .3">
							<g id="&lt;Group&gt;">
								<path id="&lt;Path&gt;" class="s9" d="m256.5 782.9q0 10.3 0 20.6c0 1 1.5 1 1.5 0q0-10.3 0-20.6c0-0.9-1.5-0.9-1.5 0z"/>
							</g>
						</g>
					</g>
					<g id="&lt;Group&gt;">
						<g id="&lt;Group&gt;" style="opacity: .3">
							<g id="&lt;Group&gt;">
								<path id="&lt;Path&gt;" class="s9" d="m137.1 805.7q0 10.3 0 20.6c0 1 1.5 1 1.5 0q0-10.3 0-20.6c0-0.9-1.5-0.9-1.5 0z"/>
							</g>
						</g>
						<g id="&lt;Group&gt;" style="opacity: .3">
							<g id="&lt;Group&gt;">
								<path id="&lt;Path&gt;" class="s9" d="m148 805.7q0 10.3 0 20.6c0 1 1.5 1 1.5 0q0-10.3 0-20.6c0-0.9-1.5-0.9-1.5 0z"/>
							</g>
						</g>
						<g id="&lt;Group&gt;" style="opacity: .3">
							<g id="&lt;Group&gt;">
								<path id="&lt;Path&gt;" class="s9" d="m158.7 805.7q0 10.3 0 20.6c0 1 1.5 1 1.5 0q0-10.3 0-20.6c0-0.9-1.5-0.9-1.5 0z"/>
							</g>
						</g>
						<g id="&lt;Group&gt;" style="opacity: .3">
							<g id="&lt;Group&gt;">
								<path id="&lt;Path&gt;" class="s9" d="m169.5 805.7q0 10.3 0 20.6c0 1 1.5 1 1.5 0q0-10.3 0-20.6c0-0.9-1.5-0.9-1.5 0z"/>
							</g>
						</g>
						<g id="&lt;Group&gt;" style="opacity: .3">
							<g id="&lt;Group&gt;">
								<path id="&lt;Path&gt;" class="s9" d="m180.2 805.7q0 10.3 0 20.6c0 1 1.5 1 1.5 0q0-10.3 0-20.6c0-0.9-1.5-0.9-1.5 0z"/>
							</g>
						</g>
						<g id="&lt;Group&gt;" style="opacity: .3">
							<g id="&lt;Group&gt;">
								<path id="&lt;Path&gt;" class="s9" d="m191 805.7q0 10.3 0 20.6c0 1 1.5 1 1.5 0q0-10.3 0-20.6c0-0.9-1.5-0.9-1.5 0z"/>
							</g>
						</g>
						<g id="&lt;Group&gt;" style="opacity: .3">
							<g id="&lt;Group&gt;">
								<path id="&lt;Path&gt;" class="s9" d="m201.7 805.7q0 10.3 0 20.6c0 1 1.5 1 1.5 0q0-10.3 0-20.6c0-0.9-1.5-0.9-1.5 0z"/>
							</g>
						</g>
						<g id="&lt;Group&gt;" style="opacity: .3">
							<g id="&lt;Group&gt;">
								<path id="&lt;Path&gt;" class="s9" d="m212.4 805.7q0 10.3 0 20.6c0 1 1.5 1 1.5 0q0-10.3 0-20.6c0-0.9-1.5-0.9-1.5 0z"/>
							</g>
						</g>
						<g id="&lt;Group&gt;" style="opacity: .3">
							<g id="&lt;Group&gt;">
								<path id="&lt;Path&gt;" class="s9" d="m223.2 805.7q0 10.3 0 20.6c0 1 1.5 1 1.5 0q0-10.3 0-20.6c0-0.9-1.5-0.9-1.5 0z"/>
							</g>
						</g>
						<g id="&lt;Group&gt;" style="opacity: .3">
							<g id="&lt;Group&gt;">
								<path id="&lt;Path&gt;" class="s9" d="m233.9 805.7q0 10.3 0 20.6c0 1 1.5 1 1.5 0q0-10.3 0-20.6c0-0.9-1.5-0.9-1.5 0z"/>
							</g>
						</g>
						<g id="&lt;Group&gt;" style="opacity: .3">
							<g id="&lt;Group&gt;">
								<path id="&lt;Path&gt;" class="s9" d="m244.7 805.7q0 10.3 0 20.6c0 1 1.5 1 1.5 0q0-10.3 0-20.6c0-0.9-1.5-0.9-1.5 0z"/>
							</g>
						</g>
					</g>
				</g>
			</g>
		</g>
	</g>
	<g id="Coins 1">
		<g id="&lt;Group&gt;">
			<g id="freepik--Bitcoin--inject-488 00000128446155452153028860000000186284235134126217 ">
				<path id="&lt;Path&gt;" class="s5" d="m804 254.7c24.9 18.6 59.2 14.7 76.6-8.7l6.2-8.3-90.1-67.3-6.2 8.4c-17.5 23.3-11.4 57.3 13.5 75.9z"/>
				<path id="&lt;Path&gt;" class="s17" d="m804 254.7c24.9 18.6 59.2 14.7 76.6-8.7l6.2-8.3-90.1-67.3-6.2 8.4c-17.5 23.3-11.4 57.3 13.5 75.9z"/>
				<path id="&lt;Path&gt;" class="s5" d="m897.4 196c4.5 30.7-16.8 59.3-47.5 63.7-30.8 4.5-59.3-16.8-63.8-47.5-4.5-30.8 16.8-59.3 47.6-63.8 30.7-4.5 59.3 16.9 63.7 47.6z"/>
				<path id="&lt;Path&gt;" class="s5" d="m814.8 240.2c20 14.8 48.2 10.7 63.1-9.2 14.8-19.9 10.7-48.1-9.2-63-19.9-14.9-48.1-10.8-63 9.1-14.9 20-10.8 48.2 9.1 63.1z"/>
				<path id="&lt;Path&gt;" class="s13" d="m814.8 240.2c20 14.8 48.2 10.7 63.1-9.2 14.8-19.9 10.7-48.1-9.2-63-19.9-14.9-48.1-10.8-63 9.1-14.9 20-10.8 48.2 9.1 63.1z"/>
			</g>
			<g id="&lt;Group&gt;">
				<path id="&lt;Compound Path&gt;" fill-rule="evenodd" class="s5" d="m860.2 209.2q0 4.4-2.8 8.3l1.1 1.1q0.8 0.8 0.8 2 0 1.2-0.8 2-0.8 0.7-2 0.7-1.1-0.1-1.9-0.9l-0.9-1q-3.5 2.6-7.1 3.2-3.6 0.7-6.6-0.5-1.4-0.5-2-1.2-0.8-0.8-0.8-2 0-1.3 0.9-2.1 0.8-0.7 1.7-0.8 1-0.2 1.9 0.3 1.8 0.9 4 0.6 2.2-0.3 4.1-1.6l-8.7-9.3q-4.6 2.3-8.4 2.5-3.8 0.2-6.6-2.8-2.9-2.9-2.8-6.9 0-4.1 3.2-8l-0.9-0.9q-0.8-0.8-0.8-2 0-1.2 0.7-1.9 0.8-0.8 2-0.8 1.2 0.1 2 0.9l0.9 0.8q3.7-3 7.3-3.3 3.5-0.2 5.9 2.3 0.9 0.9 0.9 2.1 0 1.2-0.9 2-0.7 0.8-1.7 0.8-1 0-1.9-0.7-1-0.7-2.6-0.5-1.6 0.1-3.4 1.3l7.7 8.3q10.2-5 15.6 0.5 2.9 3 2.9 7.5zm-27.6-4.6q1.7 0 4.3-1l-6.7-6.9q-1.5 2-1.5 3.8-0.1 1.7 1.1 3 1.1 1.1 2.8 1.1zm22.3 4.7q-0.1-2.1-1.4-3.5-1.1-1.1-2.9-1.2-1.8-0.1-4.6 1l7.6 7.9q1.3-2.1 1.3-4.2z"/>
			</g>
			<path id="&lt;Path&gt;" class="s5" d="m796.1 208c-2.1-25.2 16.6-47.4 41.8-49.5 25.2-2.2 47.4 16.5 49.5 41.8-4.7-22.7-25.6-38.3-48.7-36.4-25.2 2.2-43.9 24.3-41.8 49.5q-0.5-2.7-0.8-5.4z"/>
			<path id="&lt;Path&gt;" class="s17" d="m796.1 208c-2.1-25.2 16.6-47.4 41.8-49.5 25.2-2.2 47.4 16.5 49.5 41.8-4.7-22.7-25.6-38.3-48.7-36.4-25.2 2.2-43.9 24.3-41.8 49.5q-0.5-2.7-0.8-5.4z"/>
		</g>
		<g id="&lt;Group&gt;">
			<g id="freepik--Bitcoin--inject-488 00000137812165115882000690000016989711356322826903 ">
				<path id="&lt;Path&gt;" class="s5" d="m163.9 199.6c19.6 14.7 46.7 11.6 60.4-6.9l4.9-6.5-71.1-53.1-4.9 6.6c-13.8 18.4-9 45.2 10.7 59.9z"/>
				<path id="&lt;Path&gt;" class="s17" d="m163.9 199.6c19.6 14.7 46.7 11.6 60.4-6.9l4.9-6.5-71.1-53.1-4.9 6.6c-13.8 18.4-9 45.2 10.7 59.9z"/>
				<path id="&lt;Path&gt;" class="s5" d="m237.6 153.3c3.5 24.2-13.3 46.7-37.5 50.3-24.3 3.5-46.8-13.3-50.3-37.6-3.6-24.2 13.2-46.8 37.5-50.3 24.3-3.5 46.8 13.3 50.3 37.6z"/>
				<path id="&lt;Path&gt;" class="s5" d="m172.4 188.1c15.8 11.7 38 8.5 49.8-7.2 11.7-15.7 8.5-38-7.3-49.7-15.7-11.8-38-8.5-49.7 7.2-11.7 15.7-8.5 38 7.2 49.7z"/>
				<path id="&lt;Path&gt;" class="s13" d="m172.4 188.1c15.8 11.7 38 8.5 49.8-7.2 11.7-15.7 8.5-38-7.3-49.7-15.7-11.8-38-8.5-49.7 7.2-11.7 15.7-8.5 38 7.2 49.7z"/>
			</g>
			<g id="&lt;Group&gt;">
				<path id="&lt;Compound Path&gt;" fill-rule="evenodd" class="s5" d="m208.2 163.6q0 3.5-2.2 6.6l0.9 0.9q0.6 0.6 0.6 1.5 0 1-0.6 1.6-0.7 0.6-1.6 0.6-0.9-0.1-1.5-0.7l-0.7-0.8q-2.7 2-5.6 2.6-2.9 0.5-5.2-0.4-1.1-0.5-1.6-1-0.6-0.7-0.6-1.6 0-1 0.7-1.7 0.6-0.5 1.3-0.6 0.8-0.1 1.5 0.2 1.5 0.8 3.2 0.5 1.7-0.2 3.2-1.2l-6.8-7.3q-3.7 1.8-6.7 1.9-2.9 0.2-5.2-2.2-2.3-2.3-2.2-5.5 0-3.2 2.5-6.3l-0.7-0.7q-0.6-0.6-0.6-1.6 0-0.9 0.6-1.5 0.6-0.6 1.5-0.6 1 0.1 1.6 0.7l0.7 0.7q3-2.4 5.7-2.6 2.8-0.2 4.7 1.7 0.7 0.8 0.7 1.7 0 1-0.6 1.6-0.7 0.6-1.5 0.6-0.7 0.1-1.4-0.5-0.8-0.6-2.1-0.4-1.2 0.1-2.6 1l6.1 6.5q8-3.9 12.2 0.5 2.3 2.4 2.3 5.8zm-21.8-3.5q1.3 0 3.4-0.9l-5.2-5.4q-1.2 1.6-1.3 3 0 1.4 1 2.4 0.8 0.9 2.1 0.9zm17.6 3.7q0-1.7-1.1-2.8-0.8-0.9-2.2-1-1.4-0.1-3.7 0.9l6 6.2q1-1.7 1-3.3z"/>
			</g>
			<path id="&lt;Path&gt;" class="s5" d="m157.7 162.7c-1.7-19.9 13-37.4 32.9-39.1 19.9-1.6 37.4 13.1 39.1 33-3.7-17.9-20.2-30.2-38.4-28.6-19.9 1.6-34.7 19.1-33 39q-0.5-2.1-0.6-4.3z"/>
			<path id="&lt;Path&gt;" class="s17" d="m157.7 162.7c-1.7-19.9 13-37.4 32.9-39.1 19.9-1.6 37.4 13.1 39.1 33-3.7-17.9-20.2-30.2-38.4-28.6-19.9 1.6-34.7 19.1-33 39q-0.5-2.1-0.6-4.3z"/>
		</g>
	</g>
	<g id="Plant">
		<g id="&lt;Group&gt;">
			<g id="&lt;Group&gt;">
				<path id="&lt;Path&gt;" class="s5" d="m789.8 812.4c5 0.7 10.1-0.7 14.4-3.4 4.4-2.6 7.9-6.3 11-10.3 8.3-10.6 13.8-23.3 15.8-36.5 0.4-2.9 0.7-5.8 0-8.6-0.7-2.8-2.6-5.4-5.3-6.4-4-1.4-8.3 1.2-11.6 4-15 12.5-25 30.7-27.5 50-0.6 4.8 0 9.6 3.2 11.2z"/>
			</g>
			<g id="&lt;Group&gt;">
				<path id="&lt;Path&gt;" class="s5" d="m760.6 788.2c4.1-8.6 4.4-18.8 1.7-28-2.8-9.2-8.4-17.3-15.4-23.8-7.6-7.2-17.4-12.7-27.9-12.8-4.5 0-9.3 1.2-12.1 4.7-2.9 3.8-2.7 9.1-1.4 13.7 2.1 7.5 6.6 14.2 11.9 19.9 5.3 5.7 11.5 10.5 17.7 15.2 6.9 5.4 14.5 10.9 23.2 11.6"/>
			</g>
			<g id="&lt;Group&gt;">
				<path id="&lt;Path&gt;" class="s5" d="m759.9 817.2c-1.2-9.6-8.7-17.6-17.5-21.9-8.8-4.2-18.8-5.2-28.5-5.7-2.2-0.1-4.4-0.2-6.5 0.4-2 0.7-4 2.2-4.5 4.3-0.8 2.7 1 5.5 2.8 7.7 10.7 12.8 27.4 20.4 44.1 19.9 1.9 0 3.9-0.2 5.6-0.9 1.8-0.7 3.4-2.2 3.9-4"/>
			</g>
			<g id="&lt;Group&gt;">
				<g id="&lt;Group&gt;">
					<path id="&lt;Path&gt;" class="s9" d="m822.9 753.9c-17 25.8-31.9 52.9-44.5 81.2q-5.2 11.6-9.9 23.5c-0.3 0.9 1.1 1.3 1.5 0.4 14.3-36.5 32.5-71.5 54.2-104.4 0.5-0.8-0.8-1.5-1.3-0.7z"/>
				</g>
			</g>
			<g id="&lt;Group&gt;">
				<g id="&lt;Group&gt;">
					<path id="&lt;Path&gt;" class="s9" d="m772 852.6c0.6-17.9-0.8-36-6-53.2-4.9-16.7-13.4-32.2-25.1-45.3-7.4-8.4-16-15.6-25.2-21.9-0.8-0.6-1.5 0.7-0.7 1.3 15.6 10.7 29.1 24.2 38.6 40.6 8.7 15 13.7 31.8 15.8 48.9 1.2 9.8 1.5 19.7 1.1 29.6 0 1 1.5 1 1.5 0z"/>
				</g>
			</g>
			<g id="&lt;Group&gt;">
				<g id="&lt;Group&gt;">
					<path id="&lt;Path&gt;" class="s9" d="m771.1 827.4c-14-16.1-33.5-27.4-54.5-31.2-1-0.2-1.4 1.3-0.4 1.5 20.8 3.7 40 14.8 53.8 30.8 0.7 0.7 1.7-0.3 1.1-1.1z"/>
				</g>
			</g>
			<g id="&lt;Group&gt;">
				<path id="&lt;Path&gt;" class="s5" d="m739.5 865.2v-20.9h29.2 29.2v20.9c0 0 1.1 37-19.5 40.4h-9.7-9.7c-20.6-3.4-19.5-40.4-19.5-40.4z"/>
				<path id="&lt;Path&gt;" class="s18" d="m739.5 865.2v-20.9h29.2 29.2v20.9c0 0 1.1 37-19.5 40.4h-9.7-9.7c-20.6-3.4-19.5-40.4-19.5-40.4z"/>
			</g>
		</g>
	</g>
	<g id="Character">
		<g id="&lt;Group&gt;">
			<path id="&lt;Path&gt;" class="s19" d="m245.7 563.3c0.8 0.3 31.7 52.5 33.6 52.5 2 0 31.2-11.7 31.2-11.7l5.8 13.9c0 0-37.5 22.6-52.4 20.9-14.9-1.7-39.6-61.5-39.6-61.5z"/>
			<g id="&lt;Group&gt;">
				<path id="&lt;Path&gt;" class="s19" d="m309.9 604l16.9-11.5 4.2 25.6c0 0-16.6 6.6-21-1.9z"/>
				<path id="&lt;Path&gt;" class="s19" d="m343.6 593.5l2.5 21.3-15.1 3.3-4.2-25.6z"/>
			</g>
			<path id="&lt;Path&gt;" class="s19" d="m399.5 910.5l19.6-10.2-13.2-47.2-19.7 10.3z"/>
			<path id="&lt;Path&gt;" class="s9" d="m419.8 897.2l-23.9 7c-0.8 0.2-1.3 1-1.1 1.9q0 0 0 0l4.3 19.2c0.6 2.1 2.8 3.3 4.8 2.7 8.3-2.6 12.1-4.2 22.5-7.4 6.5-1.9 19.4-5 27.8-9 8.4-4 4.2-12.1 0.3-11.2-9.3 2.2-23.4-0.1-30.8-3.1-1.3-0.4-2.6-0.5-3.9-0.1z"/>
			<g id="&lt;Group&gt;">
				<path id="&lt;Path&gt;" class="s19" d="m465.8 820.5l10.4-17.5-31.5-29.5-10.4 17.5z"/>
				<path id="&lt;Compound Path&gt;" fill-rule="evenodd" class="s5" d="m478.1 800.8c0 0 0.1-0.3 0-0.3l0.1-0.3-0.1 0.3c-0.3-0.2-4.9-3.6-5.1-6.4 0-0.7 0.3-1.4 0.8-1.9 0.6-0.6 1.5-0.7 2.2-0.3 1.3 1.2 2.1 2.8 2.4 4.6 0.2-2 1.2-3.8 2.6-5.1 0.6-0.3 1.2-0.3 1.8 0 0.9 0.4 1.5 1.2 1.5 2.2-0.1 1.4-0.8 2.6-1.8 3.5q-1.8 2-4.1 3.5 0 0.1 0 0.1c0 0 0 0-0.2 0q0 0.1-0.1 0.1zm-2.4-7.9c-0.2-0.2-0.6-0.3-1.1 0.2l-0.2 0.1c-0.2 0.3-0.3 0.7-0.3 1.1 0 1.6 2.3 3.9 3.8 5.2v-0.5c0-2.2-0.8-4.4-2.2-6.1zm7.9 0.9c-0.1-0.6-0.5-1.1-1.1-1.4-0.2-0.1-0.5-0.1-0.8 0-1.3 0.7-2.3 4.3-2.8 7.1 3-2.3 4.7-4.4 4.7-5.7z"/>
				<path id="&lt;Path&gt;" class="s9" d="m475.3 800.3l-15.3 16.9c-0.5 0.6-0.5 1.5 0 2.1l12.7 12.9c1.5 1.3 3.8 1.2 5.1-0.2 5.3-6 7.5-9.2 14.1-16.7 4.2-4.5 12.8-13.2 17.4-20.3 4.6-7-2.6-11.5-5.1-8.9-6.2 6.2-18.4 11.2-25.4 12.4-1.4 0.2-2.6 0.8-3.5 1.8z"/>
				<path id="&lt;Path&gt;" class="s5" d="m250.8 561.1l-19 13.9-14.2 10.4-2.1-2.5-5.2-6.5-10.2-12.4 11.8-46.3c11.3 0.5 29.9 29.7 36.1 39.1 1.8 2.6 2.8 4.3 2.8 4.3z"/>
				<path id="&lt;Path&gt;" class="s11" d="m231.8 575l-14.2 10.4-7.3-9c1.7-14.4 3.5-29 3.5-29 7.8 7.8 13.9 17.3 18 27.6z"/>
				<path id="&lt;Path&gt;" class="s9" d="m421.6 884.1c0 0-42.2-152.9-49.2-161.7-11.3-14.3-120.6-29.5-120.6-29.5l-28.6-49.4-103.2 14.4c0 0 7.7 72.6 20.4 91.3 12.7 18.7 178.9 15.6 190 19.2 11 3.7 52.9 123 52.9 123z"/>
				<path id="&lt;Path&gt;" class="s20" d="m421.6 884l-38.5 7.4c0 0-41.8-119.3-52.9-123-11.1-3.6-177.4-0.5-190-19.2-12.7-18.7-20.3-91.3-20.3-91.3l103.2-14.4 8.4 14.6 4.7 8.2 15.6 26.6c0 0 109.3 15.3 120.7 29.5 6.9 8.8 49.1 161.6 49.1 161.6z"/>
				<path id="&lt;Path&gt;" class="s11" d="m231.5 658.1l4.8 8.1-78.8 24.1z"/>
				<path id="&lt;Path&gt;" class="s9" d="m174.3 686c0 0 119.8-45.9 152.4-33.1 32.7 12.7 135.8 127.8 135.8 127.8l-23.3 29.5c0 0-104.5-99.3-116.7-104.9-12.2-5.7-134.9 55.9-134.9 55.9z"/>
				<path id="&lt;Path&gt;" class="s20" d="m174.3 686c0 0 119.8-45.9 152.4-33.1 32.7 12.7 135.8 127.8 135.8 127.8l-23.3 29.5c0 0-104.5-99.3-116.7-104.9-12.2-5.7-134.9 55.9-134.9 55.9z"/>
				<path id="&lt;Path&gt;" class="s11" d="m199.3 755.5c0 0 106.7-53.8 126.2-61 19.4-7.3 60.9 15.8 68.2 72.9l-8.6-9.4c0 0-8.5-34.2-20.5-44.6-8.3-7.1-46.1-2.9-46.1-2.9 8.9-4.5-78.2 39.1-119.2 45z"/>
				<path id="&lt;Path&gt;" class="s5" d="m233.1 662.4c-34.4 15.9-71.3 28.7-113.2 21.9 0 0-1.4-39.2-3-61-1-13.8-2.1-30.1-2.6-46.2-0.8-24.4 6.7-49.6 9.5-64.1 21.7-5.8 39-3.8 59.6-1.9 13 4.6 19.8 2.6 33.1 8.3 0 0 9 70.6 16.6 143z"/>
				<path id="&lt;Path&gt;" class="s19" d="m228.6 617.5l19.5-6.5-3 25.8c0 0-17.8 1.8-19.7-7.7z"/>
				<path id="&lt;Path&gt;" class="s19" d="m263.9 616.6l-3.5 21.2-15.3-1 3-25.8z"/>
				<path id="&lt;Path&gt;" class="s11" d="m116.9 622.5c-1-13.8-2.1-30.1-2.6-46.2 9.2-16.9 23.6-37 23.6-37 0 0 37.4 40.9-21 83.2z"/>
				<path id="&lt;Path&gt;" class="s19" d="m106 564.1c5.2 24.4 16.8 64.8 39.5 78.2 2.1 1.1 4.4 1.9 6.7 2.3 7.8 0.7 15.7 0.5 23.5-0.7 20.5-2.8 40.7-7 60.6-12.7l-2.6-14.2-40.1 2.3c-10.6 0.5-29.1 1.3-35.8 0.1l0.8 0.5c-0.4-0.4-1.1-1-1.5-1.4-5.6-6.7-8.9-15.1-12.2-23.7q-6.3-18-10.7-36.5z"/>
				<path id="&lt;Path&gt;" class="s5" d="m145.5 578.1l-41.2 9.6-1.1-4.9c-7.2-33 2.8-66.3 20.6-69.8 0 0 5.3 6.4 10.8 17.3 4.4 8.4 8.5 32.5 10.2 42.9 0.5 3 0.7 4.9 0.7 4.9z"/>
				<path id="&lt;Path&gt;" class="s19" d="m158.5 461.8c0 2.7 0 5.8 0 9.2-0.6 15-4.2 32.1-13.9 38.7 7.5 11 20.2 17.5 31.5 18 9.7 0.1 10.1-11.1 8-16.4-4.7-1.6-4.4-1.4-4.4-1.4-2.5-6.1-0.5-13.3 2.5-20z"/>
				<path id="&lt;Path&gt;" class="s11" d="m158.5 461.8q-0.3 4.6 0 9.2c0.6 12.2 4.2 32.7 21.3 38.9-2.5-6.1-0.5-13.3 2.6-20z"/>
				<g id="&lt;Group&gt;">
					<g id="&lt;Group&gt;">
						<g id="&lt;Group&gt;">
							<path id="&lt;Path&gt;" class="s19" d="m157.4 449.4c0.5-19.8 21.1-33 39.5-23.6 18.6 9.5 18.8 39 13 56.3-6.4 19.3-31.5 26.2-45.2 9.7-9.1-11-7.8-22.5-7.3-42.4z"/>
						</g>
					</g>
					<path id="&lt;Path&gt;" class="s9" d="m173.6 416.4c-16.9-3.1-20.7 7.2-23.7 18.3-3.9 2-4.6 5.9-1.2 12.1q0.1 1.1 0.5 2.4c1.1 4.1 5.6 13.7 9.5 21.9q-0.4-1.6-0.5-3.4c-0.4-4.1-0.8-9.7-0.9-16.4 1.5 0.4 2.5 1.1 3.4 1.9 6.2 5.6 8 9.9 11.9 7.1 2.4-1.7 1.8-9.1 1.7-15.3 0-1.7 0.1-5.3 0.9-8.7 1.1-4.5 6.5-7.1 6.5-7.1 0 0 0.4-0.3 0.8-0.7 5.2 5.5 18.6 16.5 30.7 13.9 18.1-4-19.1-40-39.6-26z"/>
					<path id="&lt;Path&gt;" class="s19" d="m148.8 461.8c0.8 5.5 4.1 10 7.8 12.7 5.5 3.9 8.8-2.3 9.3-8.8 0.4-5.8-0.2-13.1-6.8-14.5-6.4-1.4-11.2 4.3-10.3 10.6z"/>
					<path id="&lt;Path&gt;" class="s9" d="m187.7 459.4c-0.4 2.3 0.3 4.3 1.6 4.5 1.4 0.1 2.8-1.6 3.3-4 0.4-2.3-0.3-4.2-1.6-4.4-1.4-0.1-2.8 1.6-3.3 3.9z"/>
					<path id="&lt;Path&gt;" class="s9" d="m206.3 462.8c-0.4 2.3 0.3 4.3 1.6 4.4 1.4 0.1 2.8-1.6 3.2-3.9 0.5-2.3-0.2-4.3-1.6-4.5-1.3-0.1-2.7 1.7-3.2 4z"/>
					<path id="&lt;Path&gt;" class="s21" d="m197.8 460.1c0 0 4.8 10.9 6.2 15.3-3.2 2-7.8 0.1-7.8 0.1z"/>
					<path id="&lt;Path&gt;" class="s9" d="m184.4 449.5c0.3 0.2 0.7 0.2 1 0 3.6-2 6.5-0.6 6.8-0.4 0.5 0.2 1.1 0 1.3-0.4 0.3-0.5 0.1-1-0.4-1.3-0.1-0.1-4-2.1-8.6 0.5-0.5 0.3-0.7 0.8-0.4 1.3q0.1 0.2 0.3 0.3z"/>
					<path id="&lt;Path&gt;" class="s9" d="m185.7 479.7c0-0.4-0.2-0.7-0.6-0.8-3.8-1.6-4.5-4.8-4.6-5.1-0.1-0.5-0.6-0.9-1.1-0.8-0.5 0.1-0.8 0.6-0.7 1.1 0 0.2 0.8 4.5 5.7 6.5 0.5 0.2 1 0 1.2-0.5q0.1-0.2 0.1-0.4z"/>
					<path id="&lt;Path&gt;" class="s22" d="m154.3 456.9c1-1.1 2.7-1.3 4.1-0.7 1.4 0.6 2.4 1.8 3.1 3.1 0.8 1.6 1.2 3.4 1.1 5.1"/>
					<path id="&lt;Path&gt;" class="s9" d="m214.1 455.1q0.3 0 0.5-0.2c0.5-0.3 0.6-0.9 0.2-1.3-3.1-4.2-7.4-3.9-7.6-3.9-0.5 0-0.9 0.5-0.9 1 0 0.5 0.5 0.9 1 0.9 0.2-0.1 3.5-0.2 6 3.2 0.2 0.2 0.5 0.3 0.8 0.3z"/>
				</g>
				<g id="&lt;Group&gt;">
					<path id="&lt;Compound Path&gt;" fill-rule="evenodd" class="s9" d="m195.5 468.8h-0.4l-11.7-2.4c-0.5-0.1-0.9-0.4-1.2-0.8-0.2-0.4-0.3-0.9-0.2-1.3l1.3-6.5q0 0 0 0c0.2-1 1.1-1.6 2.1-1.4l11.7 2.4c1 0.2 1.6 1.1 1.4 2.1l-1.3 6.4c-0.1 0.5-0.4 0.9-0.8 1.2q-0.4 0.3-0.9 0.3zm-10.5-11.1c-0.2 0-0.4 0.1-0.5 0.3l-1.3 6.5q0 0.2 0 0.4 0.2 0.1 0.4 0.2l11.7 2.4q0.2 0 0.4 0 0.1-0.2 0.2-0.4l1.3-6.4c0.1-0.3-0.1-0.6-0.4-0.6l-11.7-2.4z"/>
					<path id="&lt;Compound Path&gt;" fill-rule="evenodd" class="s9" d="m214.3 472.6l-11.8-2.3q0 0 0-0.1c-0.9-0.2-1.6-1.1-1.4-2.1l1.3-6.4q0 0 0 0c0.2-1 1.2-1.6 2.1-1.4l11.8 2.4q0 0 0 0c0.9 0.2 1.6 1.1 1.4 2.1l-1.3 6.4c-0.2 0.8-0.9 1.4-1.8 1.4zm-10.1-11c-0.2-0.1-0.5 0.1-0.5 0.4l-1.3 6.4c-0.1 0.3 0.1 0.6 0.4 0.6l11.7 2.4q0 0 0 0c0.3 0 0.5-0.2 0.6-0.4l1.3-6.5c0-0.2-0.1-0.5-0.4-0.6l-11.7-2.3z"/>
					<path id="&lt;Path&gt;" class="s9" d="m202.7 464.1q0.3 0 0.5-0.2c0.2-0.2 0.2-0.6 0-0.9-1.6-1.5-3.9-2-5.9-1.2-0.4 0.1-0.5 0.5-0.4 0.8q0 0 0 0.1c0.1 0.3 0.5 0.4 0.8 0.3q0 0 0 0c1.6-0.6 3.3-0.2 4.5 0.9q0.2 0.2 0.5 0.2z"/>
					<path id="&lt;Path&gt;" class="s9" d="m183.7 460c0.3 0 0.5-0.3 0.5-0.5 0.1-0.4-0.1-0.7-0.4-0.8q0 0 0 0l-17.9-5.1c-0.3-0.1-0.6 0.1-0.6 0.5q0 0-0.1 0c0 0.3 0.2 0.7 0.4 0.8q0 0 0 0l18 5z"/>
				</g>
				<path id="&lt;Path&gt;" class="s9" d="m168.5 647.6l54.6 19.2 64.9-29-119.5 5.7z"/>
				<path id="&lt;Path&gt;" class="s9" d="m230.3 666.8h111.9c2.9 0 5.4-2 5.9-4.9l16.4-85.5c0.7-3.8-2.2-7.2-5.9-7.2h-113.5c-2.9 0-5.4 2.1-5.9 5l-14.9 85.6c-0.6 3.7 2.2 7 6 7z"/>
				<path id="&lt;Path&gt;" class="s11" d="m168.5 643.5c1.4-0.1 55.1 18 55.1 18l1.9-20.7z"/>
			</g>
			<path id="&lt;Path&gt;" class="s5" d="m143.3 509.9c0 0 8.6-8.9 8.6-8.8-0.1 0.1 22.3 14.7 23.6 13.5 1.2-1.2 3.2-8 3.2-8 0 0 7.6 5.2 8.8 8.1 1.2 2.9-1.5 18-8.8 19.3-19.2 3.5-35.4-24.1-35.4-24.1z"/>
			<g id="&lt;Group&gt;" style="opacity: .3">
				<g id="&lt;Group&gt;">
					<path id="&lt;Path&gt;" class="s16" d="m143.7 511.3q5.3 4.2 10.6 8.4c2.4 1.8 4.6 3.9 7.2 5.3 1.9 1.1 4.3 1.7 6 0.1 2.4-2.4 4-5.6 5.9-8.4 0.5-0.8-0.8-1.5-1.3-0.7-1.8 2.5-3.3 5.2-5.3 7.6-1.8 2.1-4.4 0.3-6.2-0.9-2.3-1.6-4.5-3.6-6.8-5.3q-4.5-3.6-9.1-7.1c-0.7-0.6-1.8 0.4-1 1z"/>
				</g>
			</g>
			<g id="&lt;Group&gt;" style="opacity: .3">
				<g id="&lt;Group&gt;">
					<path id="&lt;Path&gt;" class="s16" d="m174.7 516.9q2.4 2.5 4.7 5c0.7 0.8 1.4 1.7 2.3 2.3 0.7 0.6 1.6 0.9 2.4 0.5 1.6-0.8 1.5-3.1 1.6-4.6q0.1-3.4-0.1-6.8c-0.1-1-1.6-1-1.5 0q0.2 2.9 0.1 5.9c0 0.9 0 1.8-0.1 2.7-0.1 0.5-0.2 1.3-0.6 1.5-0.6 0.2-1.3-0.7-1.6-1q-1-1.1-2-2.1-2.1-2.2-4.1-4.4c-0.7-0.7-1.8 0.3-1.1 1z"/>
				</g>
			</g>
		</g>
	</g>
</svg>