<?xml version="1.0" encoding="UTF-8" standalone="no"?>
<!-- Generator: Adobe Illustrator 27.5.0, SVG Export Plug-In . SVG Version: 6.00 Build 0)  -->

<svg
   version="1.1"
   x="0px"
   y="0px"
   viewBox="0 0 199 155"
   xml:space="preserve"
   id="svg247"
   sodipodi:docname="crear.svg"
   inkscape:version="1.3 (0e150ed6c4, 2023-07-21)"
   width="199"
   height="155"
   xmlns:inkscape="http://www.inkscape.org/namespaces/inkscape"
   xmlns:sodipodi="http://sodipodi.sourceforge.net/DTD/sodipodi-0.dtd"
   xmlns="http://www.w3.org/2000/svg"
   xmlns:svg="http://www.w3.org/2000/svg"><defs
   id="defs247" /><sodipodi:namedview
   id="namedview247"
   pagecolor="#ffffff"
   bordercolor="#000000"
   borderopacity="0.25"
   inkscape:showpageshadow="2"
   inkscape:pageopacity="0.0"
   inkscape:pagecheckerboard="true"
   inkscape:deskcolor="#d1d1d1"
   inkscape:zoom="3.284"
   inkscape:cx="107.33861"
   inkscape:cy="96.071864"
   inkscape:window-width="2560"
   inkscape:window-height="1017"
   inkscape:window-x="1912"
   inkscape:window-y="-8"
   inkscape:window-maximized="1"
   inkscape:current-layer="svg247" />&#10;&#10;<g
   id="Background_Simple"
   style="display:none">&#10;	<g
   style="display:inline"
   id="g41">&#10;		<path
   style="fill:#407bff"
   d="m 241.936,74.075 c 7.832,-1.91 16.622,-1.622 26.341,1.643 15.617,5.247 27.043,19.004 34.173,33.856 13.796,28.739 17.651,60.899 27.547,90.911 2.714,8.23 5.923,16.453 11.228,23.305 22.071,28.507 82.754,12.137 82.176,62.137 -0.163,14.13 -7.771,27.655 -18.876,36.394 -32.69,25.724 -78.654,11.019 -113.588,-0.656 -32.732,-10.939 -61.068,-12.275 -93.872,0.819 -27.802,11.097 -56.895,29.991 -88.174,24.881 -31.807,-5.197 -46.032,-36.584 -40.707,-66.182 5.677,-31.551 30.416,-54.82 58.857,-67.405 16.966,-7.508 39.284,-12.096 52.582,-25.755 6.83,-7.015 9.803,-16.855 11.975,-26.402 3.458,-15.205 5.5,-30.795 10.651,-45.513 6.453,-18.439 19.682,-37.153 39.687,-42.033 z"
   id="path40" />&#10;		<path
   style="opacity:0.9;fill:#ffffff"
   d="m 241.936,74.075 c 7.832,-1.91 16.622,-1.622 26.341,1.643 15.617,5.247 27.043,19.004 34.173,33.856 13.796,28.739 17.651,60.899 27.547,90.911 2.714,8.23 5.923,16.453 11.228,23.305 22.071,28.507 82.754,12.137 82.176,62.137 -0.163,14.13 -7.771,27.655 -18.876,36.394 -32.69,25.724 -78.654,11.019 -113.588,-0.656 -32.732,-10.939 -61.068,-12.275 -93.872,0.819 -27.802,11.097 -56.895,29.991 -88.174,24.881 -31.807,-5.197 -46.032,-36.584 -40.707,-66.182 5.677,-31.551 30.416,-54.82 58.857,-67.405 16.966,-7.508 39.284,-12.096 52.582,-25.755 6.83,-7.015 9.803,-16.855 11.975,-26.402 3.458,-15.205 5.5,-30.795 10.651,-45.513 6.453,-18.439 19.682,-37.153 39.687,-42.033 z"
   id="path41" />&#10;	</g>&#10;</g>&#10;&#10;&#10;&#10;&#10;&#10;<g
   id="Background_Complete"
   transform="matrix(0.39524969,0,0,0.39524969,0.64433544,-21.183827)">&#10;	<g
   id="g8">&#10;		<rect
   y="382.39801"
   style="fill:#ebebeb"
   width="500"
   height="0.25"
   id="rect1"
   x="0" />&#10;		<rect
   x="288.40399"
   y="396.34201"
   style="fill:#ebebeb"
   width="33.122002"
   height="0.25"
   id="rect2" />&#10;		<rect
   x="407.08499"
   y="393.629"
   style="fill:#ebebeb"
   width="8.6929998"
   height="0.25"
   id="rect3" />&#10;		<rect
   x="327.66699"
   y="389.20801"
   style="fill:#ebebeb"
   width="68.918999"
   height="0.25"
   id="rect4" />&#10;		<rect
   x="194.843"
   y="395.11099"
   style="fill:#ebebeb"
   width="30.304001"
   height="0.25"
   id="rect5" />&#10;		<rect
   x="166.717"
   y="395.11099"
   style="fill:#ebebeb"
   width="19.222"
   height="0.25"
   id="rect6" />&#10;		<rect
   x="52.459"
   y="390.888"
   style="fill:#ebebeb"
   width="46.838001"
   height="0.25"
   id="rect7" />&#10;		<path
   style="fill:#ebebeb"
   d="M 237.014,337.8 H 43.915 c -3.147,0 -5.708,-2.561 -5.708,-5.708 V 60.66 c 0,-3.147 2.561,-5.708 5.708,-5.708 h 193.099 c 3.146,0 5.707,2.561 5.707,5.708 v 271.432 c 0,3.147 -2.561,5.708 -5.707,5.708 z M 43.915,55.203 c -3.01,0 -5.458,2.448 -5.458,5.458 v 271.432 c 0,3.01 2.448,5.458 5.458,5.458 h 193.099 c 3.009,0 5.457,-2.448 5.457,-5.458 V 60.66 c 0,-3.009 -2.448,-5.458 -5.457,-5.458 H 43.915 Z"
   id="path7" />&#10;		<path
   style="fill:#ebebeb"
   d="M 453.31,337.8 H 260.212 c -3.147,0 -5.707,-2.561 -5.707,-5.708 V 60.66 c 0,-3.147 2.561,-5.708 5.707,-5.708 H 453.31 c 3.148,0 5.708,2.561 5.708,5.708 v 271.432 c 0.001,3.147 -2.56,5.708 -5.708,5.708 z M 260.212,55.203 c -3.009,0 -5.457,2.448 -5.457,5.458 v 271.432 c 0,3.01 2.448,5.458 5.457,5.458 H 453.31 c 3.01,0 5.458,-2.448 5.458,-5.458 V 60.66 c 0,-3.009 -2.448,-5.458 -5.458,-5.458 H 260.212 Z"
   id="path8" />&#10;	</g>&#10;	<g
   id="g40">&#10;		<g
   id="g18">&#10;			<g
   id="g17">&#10;				<g
   id="g16">&#10;					<g
   id="g15">&#10;						&#10;							<rect
   x="57.339001"
   y="77.963997"
   transform="rotate(180,142.4855,156.3542)"
   style="fill:#e6e6e6"
   width="170.29401"
   height="156.78101"
   id="rect8" />&#10;						&#10;							<rect
   x="53.296001"
   y="77.963997"
   transform="rotate(180,139.5855,156.3542)"
   style="fill:#f5f5f5"
   width="172.58"
   height="156.78101"
   id="rect9" />&#10;						&#10;							<rect
   x="69.037003"
   y="77.320999"
   transform="rotate(90,139.5856,156.3542)"
   style="fill:#fafafa"
   width="141.09599"
   height="158.06599"
   id="rect10" />&#10;						<polygon
   style="fill:#ffffff"
   points="176.707,226.902 199.088,226.902 145.932,85.806 123.55,85.806 "
   id="polygon10" />&#10;						<polygon
   style="fill:#ffffff"
   points="154.952,226.902 170.363,226.902 117.206,85.806 101.795,85.806 "
   id="polygon11" />&#10;						&#10;							<rect
   x="47.841"
   y="152.02499"
   transform="rotate(90,118.38875,156.35425)"
   style="fill:#e6e6e6"
   width="141.09599"
   height="8.658"
   id="rect11" />&#10;						&#10;							<rect
   x="96.033997"
   y="152.02499"
   transform="rotate(90,166.58225,156.35425)"
   style="fill:#e6e6e6"
   width="141.09599"
   height="8.658"
   id="rect12" />&#10;						&#10;							<rect
   x="39.733002"
   y="150.455"
   transform="rotate(90,115.68445,155.92665)"
   style="fill:#f5f5f5"
   width="151.903"
   height="10.944"
   id="rect13" />&#10;						&#10;							<rect
   x="87.926003"
   y="150.455"
   transform="rotate(90,163.878,155.9267)"
   style="fill:#f5f5f5"
   width="151.903"
   height="10.944"
   id="rect14" />&#10;						&#10;							<rect
   x="-9.6099997"
   y="155.96899"
   transform="rotate(90,60.938,156.3542)"
   style="fill:#e6e6e6"
   width="141.09599"
   height="0.76999998"
   id="rect15" />&#10;					</g>&#10;				</g>&#10;			</g>&#10;		</g>&#10;		<g
   id="g26">&#10;			<g
   id="g21">&#10;				<rect
   x="270.69"
   y="79.396004"
   style="fill:#ebebeb"
   width="175.186"
   height="122.543"
   id="rect18" />&#10;				&#10;					<rect
   x="445.87601"
   y="79.396004"
   transform="rotate(180,446.6142,140.66795)"
   style="fill:#e0e0e0"
   width="1.477"
   height="122.543"
   id="rect19" />&#10;				&#10;					<rect
   x="303.14899"
   y="59.213001"
   transform="rotate(90,358.2834,140.6683)"
   style="fill:#ffffff"
   width="110.269"
   height="162.911"
   id="rect20" />&#10;				&#10;					<rect
   x="222.302"
   y="140.05901"
   transform="rotate(90,277.4368,140.6682)"
   style="fill:#e0e0e0"
   width="110.269"
   height="1.2180001"
   id="rect21" />&#10;			</g>&#10;			<rect
   x="380.54901"
   y="97.425003"
   style="fill:#f5f5f5"
   width="39.799"
   height="55.917999"
   id="rect22" />&#10;			<rect
   x="289.58801"
   y="107.79"
   style="fill:#f5f5f5"
   width="39.799"
   height="55.917999"
   id="rect23" />&#10;			<rect
   x="353.01199"
   y="121.702"
   style="fill:#ebebeb"
   width="39.799"
   height="55.917999"
   id="rect24" />&#10;			<rect
   x="322.69299"
   y="124.157"
   style="fill:#f5f5f5"
   width="15.544"
   height="15.544"
   id="rect25" />&#10;			<rect
   x="318.17899"
   y="155.936"
   style="fill:#f0f0f0"
   width="15.544"
   height="15.544"
   id="rect26" />&#10;		</g>&#10;		<g
   id="g35">&#10;			<g
   id="g27">&#10;				<path
   style="fill:#e0e0e0"
   d="m 409.099,375.213 c 0,-3.968 3.217,-7.185 7.185,-7.185 3.968,0 7.185,3.217 7.185,7.185 0,3.968 -3.217,7.185 -7.185,7.185 -3.968,0 -7.185,-3.216 -7.185,-7.185 z"
   id="path26" />&#10;			</g>&#10;			<g
   id="g28">&#10;				<path
   style="fill:#e0e0e0"
   d="m 421.223,375.213 c 0,-3.968 3.217,-7.185 7.185,-7.185 3.968,0 7.185,3.217 7.185,7.185 0,3.968 -3.217,7.185 -7.185,7.185 -3.968,0 -7.185,-3.216 -7.185,-7.185 z"
   id="path27" />&#10;			</g>&#10;			<g
   id="g29">&#10;				<path
   style="fill:#e0e0e0"
   d="m 222.675,375.213 c 0,-3.968 3.217,-7.185 7.185,-7.185 3.968,0 7.185,3.217 7.185,7.185 0,3.968 -3.217,7.185 -7.185,7.185 -3.968,0 -7.185,-3.216 -7.185,-7.185 z"
   id="path28" />&#10;			</g>&#10;			<g
   id="g30">&#10;				<path
   style="fill:#e0e0e0"
   d="m 234.799,375.213 c 0,-3.968 3.217,-7.185 7.185,-7.185 3.968,0 7.185,3.217 7.185,7.185 0,3.968 -3.217,7.185 -7.185,7.185 -3.968,0 -7.185,-3.216 -7.185,-7.185 z"
   id="path29" />&#10;			</g>&#10;			&#10;				<rect
   x="421.53799"
   y="223"
   transform="rotate(180,430.041,299.60225)"
   style="fill:#ebebeb"
   width="17.004999"
   height="153.20399"
   id="rect30" />&#10;			<rect
   x="221.201"
   y="223"
   style="fill:#f5f5f5"
   width="200.33701"
   height="153.20399"
   id="rect31" />&#10;			<rect
   x="227.714"
   y="229.287"
   style="fill:#ebebeb"
   width="187.312"
   height="140.631"
   id="rect32" />&#10;			<g
   id="g33">&#10;				<rect
   x="230.37801"
   y="288.43301"
   style="fill:#f5f5f5"
   width="181.98399"
   height="78.890999"
   id="rect33" />&#10;			</g>&#10;			<rect
   x="230.37801"
   y="232.24699"
   style="fill:#f5f5f5"
   width="181.98399"
   height="54.188"
   id="rect34" />&#10;			<path
   style="fill:#ebebeb"
   d="m 263.49,289.765 h 115.76 c 0.733,0 1.332,-0.599 1.332,-1.332 v 0 c 0,-0.733 -0.599,-1.332 -1.332,-1.332 H 263.49 c -0.733,0 -1.332,0.599 -1.332,1.332 v 0 c -0.001,0.733 0.599,1.332 1.332,1.332 z"
   id="path34" />&#10;			<path
   style="fill:#ebebeb"
   d="m 263.49,233.579 h 115.76 c 0.733,0 1.332,-0.599 1.332,-1.332 v 0 c 0,-0.733 -0.599,-1.332 -1.332,-1.332 H 263.49 c -0.733,0 -1.332,0.6 -1.332,1.332 v 0 c -0.001,0.733 0.599,1.332 1.332,1.332 z"
   id="path35" />&#10;		</g>&#10;		<g
   id="g39">&#10;			<g
   id="g36">&#10;				<rect
   x="63.908001"
   y="304.17499"
   style="fill:#f5f5f5"
   width="88.216003"
   height="78.223999"
   id="rect35" />&#10;				&#10;					<rect
   x="152.12399"
   y="304.17499"
   transform="rotate(180,169.2709,343.28665)"
   style="fill:#ebebeb"
   width="34.294998"
   height="78.223999"
   id="rect36" />&#10;			</g>&#10;			<g
   id="g38">&#10;				<rect
   x="59.558998"
   y="290.452"
   style="fill:#ebebeb"
   width="94.477997"
   height="13.723"
   id="rect37" />&#10;				&#10;					<rect
   x="154.03799"
   y="290.452"
   transform="rotate(180,172.40225,297.31345)"
   style="fill:#e0e0e0"
   width="36.729"
   height="13.723"
   id="rect38" />&#10;			</g>&#10;		</g>&#10;	</g>&#10;</g><g
   id="Shadow_1_"
   transform="matrix(0.43460127,0,0,0.43460127,-7.6568989,-32.743185)">&#10;	<ellipse
   id="_x3C_Path_x3E__345_"
   style="fill:#f5f5f5"
   cx="250"
   cy="416.23801"
   rx="193.88901"
   ry="11.323" />&#10;</g><g
   id="Placeholder"
   transform="matrix(0.43460127,0,0,0.43460127,-7.6568989,-32.743185)">&#10;	<g
   id="g77">&#10;		<g
   id="g42">&#10;			<line
   style="fill:#ffffff"
   x1="408.194"
   y1="186.89101"
   x2="408.194"
   y2="198.808"
   id="line41" />&#10;			<rect
   x="407.694"
   y="186.89101"
   style="fill:#407bff"
   width="1"
   height="11.917"
   id="rect41" />&#10;		</g>&#10;		<g
   id="g43">&#10;			<line
   style="fill:#ffffff"
   x1="408.194"
   y1="152.748"
   x2="408.194"
   y2="178.549"
   id="line42" />&#10;			<rect
   x="407.694"
   y="152.748"
   style="fill:#407bff"
   width="1"
   height="25.801001"
   id="rect42" />&#10;		</g>&#10;		<path
   style="fill:#e0e0e0"
   d="M 394.171,275.195 H 154.398 c -3.933,0 -7.15,-3.218 -7.15,-7.15 V 139.064 c 0,-3.933 3.218,-7.15 7.15,-7.15 h 239.774 c 3.933,0 7.15,3.218 7.15,7.15 v 128.981 c 0,3.933 -3.218,7.15 -7.151,7.15 z"
   id="path43" />&#10;		<g
   id="g45">&#10;			<path
   style="fill:#ffffff"
   d="M 397.827,271.54 H 158.053 c -3.933,0 -7.15,-3.218 -7.15,-7.15 V 135.409 c 0,-3.933 3.218,-7.15 7.15,-7.15 h 239.774 c 3.933,0 7.15,3.218 7.15,7.15 V 264.39 c 0,3.932 -3.218,7.15 -7.15,7.15 z"
   id="path44" />&#10;			<path
   style="fill:#407bff"
   d="M 397.826,272.04 H 158.053 c -4.218,0 -7.65,-3.432 -7.65,-7.65 V 135.409 c 0,-4.218 3.432,-7.65 7.65,-7.65 h 239.773 c 4.218,0 7.65,3.432 7.65,7.65 V 264.39 c 10e-4,4.218 -3.432,7.65 -7.65,7.65 z M 158.053,128.758 c -3.667,0 -6.65,2.983 -6.65,6.65 V 264.39 c 0,3.667 2.983,6.65 6.65,6.65 h 239.773 c 3.667,0 6.65,-2.983 6.65,-6.65 V 135.409 c 0,-3.667 -2.983,-6.65 -6.65,-6.65 H 158.053 Z"
   id="path45" />&#10;		</g>&#10;		<path
   style="fill:#e0e0e0"
   d="m 262.797,190.489 h -92.403 c -2.054,0 -3.725,-1.671 -3.725,-3.725 v -12.736 c 0,-2.054 1.671,-3.725 3.725,-3.725 h 92.403 c 2.054,0 3.725,1.671 3.725,3.725 v 12.736 c 0.001,2.054 -1.67,3.725 -3.725,3.725 z m -92.402,-19.186 c -1.502,0 -2.725,1.223 -2.725,2.725 v 12.736 c 0,1.502 1.223,2.725 2.725,2.725 h 92.403 c 1.502,0 2.725,-1.223 2.725,-2.725 v -12.736 c 0,-1.502 -1.223,-2.725 -2.725,-2.725 z"
   id="path46" />&#10;		<path
   style="fill:#e0e0e0"
   d="M 311.479,217.482 H 170.395 c -2.054,0 -3.725,-1.671 -3.725,-3.725 V 201.02 c 0,-2.054 1.671,-3.726 3.725,-3.726 h 141.084 c 2.054,0 3.725,1.671 3.725,3.726 v 12.736 c 0,2.055 -1.671,3.726 -3.725,3.726 z M 170.395,198.295 c -1.502,0 -2.725,1.223 -2.725,2.726 v 12.736 c 0,1.502 1.223,2.725 2.725,2.725 h 141.084 c 1.502,0 2.725,-1.223 2.725,-2.725 V 201.02 c 0,-1.503 -1.223,-2.726 -2.725,-2.726 H 170.395 Z"
   id="path47" />&#10;		<path
   style="fill:#e0e0e0"
   d="m 171.46,211.404 c -0.276,0 -0.5,-0.224 -0.5,-0.5 v -7.031 c 0,-0.276 0.224,-0.5 0.5,-0.5 0.276,0 0.5,0.224 0.5,0.5 v 7.031 c 0,0.276 -0.224,0.5 -0.5,0.5 z"
   id="path48" />&#10;		<path
   style="fill:#e0e0e0"
   d="m 373.568,190.489 h -92.403 c -2.054,0 -3.725,-1.671 -3.725,-3.725 v -12.736 c 0,-2.054 1.671,-3.725 3.725,-3.725 h 92.403 c 2.054,0 3.725,1.671 3.725,3.725 v 12.736 c 0,2.054 -1.671,3.725 -3.725,3.725 z m -92.403,-19.186 c -1.503,0 -2.725,1.223 -2.725,2.725 v 12.736 c 0,1.502 1.223,2.725 2.725,2.725 h 92.403 c 1.502,0 2.725,-1.223 2.725,-2.725 v -12.736 c 0,-1.502 -1.223,-2.725 -2.725,-2.725 z"
   id="path49" />&#10;		<path
   style="opacity:0.2;fill:#407bff"
   d="m 230.509,152.748 h -59.228 c -2.261,0 -4.111,-1.85 -4.111,-4.111 v 0 c 0,-2.261 1.85,-4.111 4.111,-4.111 h 59.228 c 2.261,0 4.112,1.85 4.112,4.111 v 0 c 0,2.261 -1.85,4.111 -4.112,4.111 z"
   id="path50" />&#10;		<path
   style="opacity:0.2;fill:#407bff"
   d="m 246.806,232.027 h -64.174 c -0.901,0 -1.639,-0.737 -1.639,-1.639 v 0 c 0,-0.901 0.737,-1.639 1.639,-1.639 h 64.174 c 0.901,0 1.639,0.737 1.639,1.639 v 0 c 0,0.902 -0.738,1.639 -1.639,1.639 z"
   id="path51" />&#10;		<circle
   style="fill:#407bff"
   cx="170.47701"
   cy="230.38901"
   r="3.3069999"
   id="circle51" />&#10;		<path
   style="fill:#e0e0e0"
   d="m 282.23,184.412 c -0.276,0 -0.5,-0.224 -0.5,-0.5 v -7.031 c 0,-0.276 0.224,-0.5 0.5,-0.5 0.276,0 0.5,0.224 0.5,0.5 v 7.031 c 0,0.276 -0.224,0.5 -0.5,0.5 z"
   id="path52" />&#10;		<path
   style="fill:#e0e0e0"
   d="m 171.46,184.412 c -0.276,0 -0.5,-0.224 -0.5,-0.5 v -7.031 c 0,-0.276 0.224,-0.5 0.5,-0.5 0.276,0 0.5,0.224 0.5,0.5 v 7.031 c 0,0.276 -0.224,0.5 -0.5,0.5 z"
   id="path53" />&#10;		<g
   style="opacity:0.6"
   id="g62">&#10;			<path
   style="fill:#263238"
   d="m 175.443,183.376 v -6.142 h 4.143 v 0.725 h -3.331 v 1.902 h 2.883 v 0.725 h -2.883 v 2.791 h -0.812 z"
   id="path54" />&#10;			<path
   style="fill:#263238"
   d="m 180.549,178.102 v -0.867 h 0.755 v 0.867 z m 0,5.274 v -4.449 h 0.755 v 4.449 z"
   id="path55" />&#10;			<path
   style="fill:#263238"
   d="m 182.443,183.376 v -4.449 h 0.679 v 0.674 c 0.173,-0.315 0.333,-0.523 0.48,-0.624 0.146,-0.1 0.308,-0.151 0.483,-0.151 0.255,0 0.513,0.081 0.775,0.243 l -0.26,0.7 c -0.185,-0.109 -0.368,-0.163 -0.553,-0.163 -0.165,0 -0.314,0.049 -0.444,0.148 -0.131,0.099 -0.225,0.237 -0.28,0.413 -0.084,0.268 -0.126,0.561 -0.126,0.88 v 2.33 h -0.754 z"
   id="path56" />&#10;			<path
   style="fill:#263238"
   d="m 185.007,182.048 0.746,-0.117 c 0.042,0.299 0.158,0.528 0.35,0.687 0.191,0.159 0.459,0.239 0.803,0.239 0.346,0 0.604,-0.07 0.771,-0.211 0.168,-0.141 0.252,-0.307 0.252,-0.497 0,-0.17 -0.074,-0.304 -0.223,-0.402 -0.104,-0.067 -0.36,-0.152 -0.771,-0.255 -0.554,-0.14 -0.937,-0.26 -1.15,-0.362 -0.214,-0.102 -0.376,-0.243 -0.486,-0.423 -0.11,-0.18 -0.165,-0.379 -0.165,-0.597 0,-0.198 0.045,-0.382 0.136,-0.551 0.091,-0.169 0.215,-0.309 0.371,-0.421 0.117,-0.087 0.277,-0.16 0.48,-0.22 0.203,-0.06 0.42,-0.09 0.651,-0.09 0.35,0 0.656,0.05 0.92,0.151 0.264,0.101 0.459,0.236 0.585,0.408 0.125,0.172 0.212,0.402 0.26,0.689 l -0.737,0.101 c -0.034,-0.229 -0.131,-0.408 -0.292,-0.537 -0.16,-0.129 -0.387,-0.192 -0.681,-0.192 -0.346,0 -0.594,0.057 -0.741,0.171 -0.149,0.115 -0.223,0.249 -0.223,0.402 0,0.098 0.031,0.186 0.093,0.264 0.062,0.081 0.157,0.148 0.289,0.201 0.075,0.028 0.297,0.092 0.666,0.192 0.533,0.143 0.905,0.259 1.116,0.35 0.211,0.091 0.377,0.223 0.497,0.396 0.12,0.173 0.18,0.388 0.18,0.645 0,0.251 -0.073,0.488 -0.22,0.71 -0.146,0.222 -0.358,0.394 -0.635,0.516 -0.276,0.122 -0.589,0.182 -0.938,0.182 -0.578,0 -1.019,-0.12 -1.322,-0.36 -0.305,-0.241 -0.498,-0.597 -0.582,-1.069 z"
   id="path57" />&#10;			<path
   style="fill:#263238"
   d="m 191.245,182.702 0.109,0.666 c -0.213,0.044 -0.402,0.067 -0.57,0.067 -0.273,0 -0.485,-0.044 -0.637,-0.13 -0.15,-0.086 -0.257,-0.2 -0.318,-0.341 -0.061,-0.141 -0.092,-0.438 -0.092,-0.89 v -2.56 h -0.554 v -0.587 h 0.554 v -1.102 l 0.75,-0.453 v 1.555 h 0.758 v 0.587 h -0.758 v 2.602 c 0,0.215 0.013,0.354 0.039,0.415 0.027,0.061 0.07,0.11 0.13,0.146 0.061,0.036 0.146,0.055 0.258,0.055 0.084,-0.001 0.195,-0.01 0.331,-0.03 z"
   id="path58" />&#10;			<path
   style="fill:#263238"
   d="m 194.366,183.376 v -4.449 h 0.679 v 0.632 c 0.327,-0.489 0.799,-0.733 1.416,-0.733 0.269,0 0.515,0.048 0.739,0.145 0.226,0.096 0.394,0.223 0.505,0.379 0.112,0.157 0.19,0.342 0.235,0.557 0.027,0.14 0.042,0.384 0.042,0.733 v 2.736 h -0.755 v -2.707 c 0,-0.307 -0.029,-0.537 -0.088,-0.689 -0.058,-0.152 -0.162,-0.274 -0.311,-0.365 -0.149,-0.091 -0.325,-0.136 -0.526,-0.136 -0.321,0 -0.599,0.102 -0.831,0.306 -0.233,0.204 -0.351,0.59 -0.351,1.16 v 2.43 h -0.754 z"
   id="path59" />&#10;			<path
   style="fill:#263238"
   d="m 202.042,182.828 c -0.279,0.237 -0.548,0.405 -0.807,0.503 -0.258,0.098 -0.535,0.146 -0.831,0.146 -0.489,0 -0.864,-0.12 -1.127,-0.358 -0.263,-0.239 -0.395,-0.544 -0.395,-0.916 0,-0.218 0.05,-0.416 0.149,-0.597 0.099,-0.18 0.229,-0.325 0.39,-0.434 0.16,-0.109 0.341,-0.191 0.542,-0.248 0.148,-0.039 0.372,-0.077 0.671,-0.113 0.608,-0.073 1.057,-0.159 1.345,-0.26 0.003,-0.104 0.004,-0.169 0.004,-0.197 0,-0.308 -0.071,-0.524 -0.214,-0.65 -0.192,-0.17 -0.479,-0.256 -0.858,-0.256 -0.354,0 -0.616,0.063 -0.785,0.187 -0.17,0.124 -0.295,0.344 -0.375,0.66 l -0.738,-0.101 c 0.067,-0.315 0.178,-0.57 0.331,-0.764 0.154,-0.194 0.376,-0.344 0.667,-0.449 0.29,-0.104 0.627,-0.157 1.009,-0.157 0.38,0 0.688,0.044 0.927,0.134 0.237,0.089 0.411,0.202 0.523,0.337 0.111,0.136 0.189,0.307 0.234,0.513 0.025,0.128 0.038,0.36 0.038,0.695 v 1.006 c 0,0.701 0.016,1.144 0.048,1.33 0.032,0.186 0.096,0.364 0.191,0.534 h -0.787 c -0.079,-0.153 -0.129,-0.336 -0.152,-0.545 z m -0.062,-1.684 c -0.273,0.112 -0.685,0.206 -1.232,0.285 -0.31,0.045 -0.529,0.095 -0.658,0.151 -0.129,0.056 -0.228,0.138 -0.298,0.245 -0.069,0.107 -0.104,0.227 -0.104,0.358 0,0.201 0.076,0.369 0.229,0.503 0.152,0.134 0.375,0.201 0.668,0.201 0.291,0 0.549,-0.063 0.775,-0.19 0.227,-0.127 0.393,-0.301 0.499,-0.522 0.08,-0.17 0.121,-0.421 0.121,-0.754 z"
   id="path60" />&#10;			<path
   style="fill:#263238"
   d="m 203.91,183.376 v -4.449 h 0.675 v 0.624 c 0.14,-0.218 0.325,-0.393 0.557,-0.526 0.232,-0.132 0.496,-0.199 0.792,-0.199 0.33,0 0.601,0.068 0.811,0.205 0.211,0.137 0.36,0.328 0.446,0.574 0.353,-0.52 0.811,-0.779 1.375,-0.779 0.44,0 0.78,0.122 1.018,0.367 0.237,0.244 0.357,0.621 0.357,1.129 v 3.054 h -0.75 v -2.803 c 0,-0.302 -0.025,-0.519 -0.073,-0.652 -0.049,-0.132 -0.138,-0.239 -0.267,-0.32 -0.128,-0.081 -0.279,-0.122 -0.452,-0.122 -0.313,0 -0.572,0.104 -0.779,0.312 -0.207,0.208 -0.31,0.541 -0.31,0.999 v 2.585 h -0.755 v -2.891 c 0,-0.335 -0.062,-0.587 -0.184,-0.754 -0.123,-0.167 -0.324,-0.251 -0.604,-0.251 -0.213,0 -0.409,0.056 -0.589,0.168 -0.181,0.112 -0.311,0.275 -0.392,0.49 -0.081,0.215 -0.122,0.525 -0.122,0.93 v 2.309 z"
   id="path61" />&#10;			<path
   style="fill:#263238"
   d="m 214.104,181.944 0.779,0.096 c -0.123,0.455 -0.351,0.809 -0.683,1.06 -0.333,0.251 -0.757,0.377 -1.273,0.377 -0.651,0 -1.167,-0.2 -1.549,-0.601 -0.381,-0.401 -0.571,-0.963 -0.571,-1.687 0,-0.749 0.192,-1.33 0.578,-1.743 0.386,-0.414 0.885,-0.62 1.5,-0.62 0.595,0 1.081,0.203 1.458,0.607 0.377,0.405 0.565,0.975 0.565,1.71 0,0.044 -0.002,0.112 -0.004,0.201 h -3.318 c 0.027,0.489 0.166,0.863 0.414,1.123 0.249,0.26 0.559,0.39 0.931,0.39 0.276,0 0.513,-0.073 0.708,-0.218 0.195,-0.145 0.35,-0.377 0.465,-0.695 z m -2.476,-1.219 h 2.484 c -0.034,-0.374 -0.129,-0.655 -0.285,-0.842 -0.24,-0.29 -0.552,-0.436 -0.934,-0.436 -0.346,0 -0.638,0.116 -0.873,0.348 -0.237,0.231 -0.368,0.541 -0.392,0.93 z"
   id="path62" />&#10;		</g>&#10;		<g
   style="opacity:0.6"
   id="g67">&#10;			<path
   style="fill:#263238"
   d="m 175.417,210.369 v -6.142 h 4.441 v 0.725 h -3.629 v 1.881 h 3.398 v 0.721 h -3.398 v 2.091 H 180 v 0.725 h -4.583 z"
   id="path63" />&#10;			<path
   style="fill:#263238"
   d="m 181.027,210.369 v -4.449 h 0.675 v 0.624 c 0.14,-0.218 0.325,-0.393 0.557,-0.526 0.232,-0.132 0.496,-0.199 0.792,-0.199 0.33,0 0.601,0.068 0.811,0.205 0.211,0.137 0.36,0.328 0.446,0.574 0.353,-0.52 0.811,-0.779 1.375,-0.779 0.44,0 0.78,0.122 1.018,0.367 0.237,0.244 0.357,0.621 0.357,1.129 v 3.054 h -0.75 v -2.803 c 0,-0.302 -0.024,-0.519 -0.073,-0.652 -0.049,-0.132 -0.138,-0.239 -0.267,-0.32 -0.128,-0.081 -0.279,-0.122 -0.452,-0.122 -0.313,0 -0.572,0.104 -0.779,0.312 -0.207,0.209 -0.31,0.542 -0.31,1 v 2.585 h -0.755 v -2.891 c 0,-0.335 -0.061,-0.587 -0.184,-0.754 -0.123,-0.167 -0.324,-0.251 -0.604,-0.251 -0.213,0 -0.409,0.056 -0.589,0.167 -0.181,0.112 -0.311,0.275 -0.392,0.49 -0.081,0.215 -0.122,0.525 -0.122,0.93 v 2.309 z"
   id="path64" />&#10;			<path
   style="fill:#263238"
   d="m 191.077,209.82 c -0.279,0.237 -0.548,0.405 -0.807,0.503 -0.258,0.098 -0.535,0.146 -0.831,0.146 -0.489,0 -0.864,-0.12 -1.127,-0.358 -0.263,-0.239 -0.395,-0.544 -0.395,-0.915 0,-0.218 0.05,-0.417 0.149,-0.597 0.099,-0.18 0.229,-0.325 0.39,-0.434 0.16,-0.109 0.341,-0.191 0.542,-0.247 0.148,-0.039 0.372,-0.077 0.671,-0.113 0.608,-0.073 1.057,-0.159 1.345,-0.26 0.003,-0.104 0.004,-0.169 0.004,-0.197 0,-0.308 -0.071,-0.524 -0.214,-0.649 -0.192,-0.17 -0.479,-0.256 -0.858,-0.256 -0.354,0 -0.616,0.063 -0.785,0.186 -0.17,0.125 -0.295,0.344 -0.375,0.66 l -0.738,-0.101 c 0.067,-0.316 0.178,-0.57 0.331,-0.764 0.154,-0.194 0.376,-0.344 0.667,-0.449 0.29,-0.105 0.627,-0.157 1.009,-0.157 0.38,0 0.689,0.044 0.927,0.134 0.237,0.089 0.411,0.202 0.523,0.337 0.111,0.136 0.189,0.307 0.234,0.513 0.025,0.128 0.038,0.36 0.038,0.695 v 1.006 c 0,0.701 0.016,1.145 0.048,1.33 0.032,0.186 0.096,0.364 0.19,0.534 h -0.787 c -0.078,-0.155 -0.128,-0.338 -0.151,-0.547 z m -0.062,-1.684 c -0.273,0.112 -0.684,0.207 -1.231,0.285 -0.311,0.045 -0.529,0.095 -0.658,0.151 -0.129,0.056 -0.228,0.138 -0.298,0.245 -0.069,0.107 -0.104,0.227 -0.104,0.358 0,0.201 0.076,0.369 0.229,0.502 0.152,0.134 0.375,0.201 0.668,0.201 0.291,0 0.549,-0.064 0.775,-0.19 0.227,-0.128 0.393,-0.301 0.499,-0.522 0.08,-0.17 0.121,-0.421 0.121,-0.754 v -0.276 z"
   id="path65" />&#10;			<path
   style="fill:#263238"
   d="m 192.95,205.094 v -0.867 h 0.755 v 0.867 z m 0,5.275 v -4.449 h 0.755 v 4.449 z"
   id="path66" />&#10;			<path
   style="fill:#263238"
   d="m 194.836,210.369 v -6.142 h 0.754 v 6.142 z"
   id="path67" />&#10;		</g>&#10;		<g
   style="opacity:0.6"
   id="g75">&#10;			<path
   style="fill:#263238"
   d="m 286.137,183.376 v -6.142 h 0.813 v 5.417 h 3.024 v 0.725 z"
   id="path68" />&#10;			<path
   style="fill:#263238"
   d="m 293.749,182.828 c -0.279,0.237 -0.548,0.405 -0.807,0.503 -0.258,0.098 -0.535,0.146 -0.831,0.146 -0.489,0 -0.864,-0.12 -1.127,-0.358 -0.263,-0.239 -0.395,-0.544 -0.395,-0.916 0,-0.218 0.05,-0.416 0.15,-0.597 0.099,-0.18 0.228,-0.325 0.39,-0.434 0.16,-0.109 0.341,-0.191 0.542,-0.248 0.148,-0.039 0.372,-0.077 0.671,-0.113 0.608,-0.073 1.057,-0.159 1.345,-0.26 0.003,-0.104 0.004,-0.169 0.004,-0.197 0,-0.308 -0.071,-0.524 -0.214,-0.65 -0.192,-0.17 -0.479,-0.256 -0.858,-0.256 -0.354,0 -0.616,0.063 -0.785,0.187 -0.17,0.124 -0.295,0.344 -0.375,0.66 l -0.738,-0.101 c 0.067,-0.315 0.178,-0.57 0.331,-0.764 0.154,-0.194 0.376,-0.344 0.667,-0.449 0.29,-0.104 0.627,-0.157 1.009,-0.157 0.38,0 0.688,0.044 0.927,0.134 0.237,0.089 0.411,0.202 0.523,0.337 0.111,0.136 0.189,0.307 0.234,0.513 0.025,0.128 0.038,0.36 0.038,0.695 v 1.006 c 0,0.701 0.016,1.144 0.048,1.33 0.032,0.186 0.096,0.364 0.19,0.534 h -0.787 c -0.079,-0.153 -0.129,-0.336 -0.152,-0.545 z m -0.062,-1.684 c -0.273,0.112 -0.685,0.206 -1.231,0.285 -0.311,0.045 -0.529,0.095 -0.658,0.151 -0.129,0.056 -0.228,0.138 -0.298,0.245 -0.069,0.107 -0.105,0.227 -0.105,0.358 0,0.201 0.076,0.369 0.229,0.503 0.152,0.134 0.375,0.201 0.668,0.201 0.291,0 0.549,-0.063 0.775,-0.19 0.227,-0.127 0.393,-0.301 0.499,-0.522 0.08,-0.17 0.121,-0.421 0.121,-0.754 z"
   id="path69" />&#10;			<path
   style="fill:#263238"
   d="m 295.315,182.048 0.746,-0.117 c 0.042,0.299 0.158,0.528 0.35,0.687 0.191,0.159 0.459,0.239 0.803,0.239 0.346,0 0.604,-0.07 0.771,-0.211 0.168,-0.141 0.252,-0.307 0.252,-0.497 0,-0.17 -0.074,-0.304 -0.223,-0.402 -0.103,-0.067 -0.36,-0.152 -0.771,-0.255 -0.554,-0.14 -0.937,-0.26 -1.15,-0.362 -0.214,-0.102 -0.376,-0.243 -0.486,-0.423 -0.11,-0.18 -0.165,-0.379 -0.165,-0.597 0,-0.198 0.045,-0.382 0.136,-0.551 0.091,-0.169 0.215,-0.309 0.371,-0.421 0.117,-0.087 0.277,-0.16 0.479,-0.22 0.203,-0.06 0.42,-0.09 0.651,-0.09 0.35,0 0.656,0.05 0.92,0.151 0.264,0.101 0.459,0.236 0.585,0.408 0.125,0.172 0.212,0.402 0.26,0.689 l -0.737,0.101 c -0.034,-0.229 -0.131,-0.408 -0.292,-0.537 -0.16,-0.129 -0.387,-0.192 -0.681,-0.192 -0.346,0 -0.594,0.057 -0.741,0.171 -0.148,0.115 -0.223,0.249 -0.223,0.402 0,0.098 0.031,0.186 0.093,0.264 0.062,0.081 0.157,0.148 0.289,0.201 0.075,0.028 0.297,0.092 0.666,0.192 0.533,0.143 0.905,0.259 1.116,0.35 0.211,0.091 0.377,0.223 0.497,0.396 0.12,0.173 0.18,0.388 0.18,0.645 0,0.251 -0.073,0.488 -0.22,0.71 -0.147,0.222 -0.358,0.394 -0.635,0.516 -0.276,0.122 -0.589,0.182 -0.939,0.182 -0.578,0 -1.019,-0.12 -1.322,-0.36 -0.302,-0.241 -0.495,-0.597 -0.58,-1.069 z"
   id="path70" />&#10;			<path
   style="fill:#263238"
   d="m 301.554,182.702 0.109,0.666 c -0.213,0.044 -0.402,0.067 -0.57,0.067 -0.273,0 -0.485,-0.044 -0.637,-0.13 -0.15,-0.086 -0.257,-0.2 -0.318,-0.341 -0.061,-0.141 -0.092,-0.438 -0.092,-0.89 v -2.56 h -0.554 v -0.587 h 0.554 v -1.102 l 0.75,-0.453 v 1.555 h 0.758 v 0.587 h -0.758 v 2.602 c 0,0.215 0.013,0.354 0.039,0.415 0.027,0.061 0.07,0.11 0.13,0.146 0.061,0.036 0.146,0.055 0.258,0.055 0.084,-0.001 0.194,-0.01 0.331,-0.03 z"
   id="path71" />&#10;			<path
   style="fill:#263238"
   d="m 304.675,183.376 v -4.449 h 0.679 v 0.632 c 0.327,-0.489 0.799,-0.733 1.416,-0.733 0.269,0 0.515,0.048 0.739,0.145 0.226,0.096 0.393,0.223 0.505,0.379 0.112,0.157 0.19,0.342 0.235,0.557 0.027,0.14 0.042,0.384 0.042,0.733 v 2.736 h -0.755 v -2.707 c 0,-0.307 -0.029,-0.537 -0.088,-0.689 -0.059,-0.152 -0.162,-0.274 -0.311,-0.365 -0.149,-0.091 -0.325,-0.136 -0.526,-0.136 -0.321,0 -0.599,0.102 -0.831,0.306 -0.233,0.204 -0.351,0.59 -0.351,1.16 v 2.43 h -0.754 z"
   id="path72" />&#10;			<path
   style="fill:#263238"
   d="m 312.351,182.828 c -0.279,0.237 -0.548,0.405 -0.807,0.503 -0.258,0.098 -0.535,0.146 -0.831,0.146 -0.489,0 -0.864,-0.12 -1.127,-0.358 -0.263,-0.239 -0.395,-0.544 -0.395,-0.916 0,-0.218 0.05,-0.416 0.149,-0.597 0.099,-0.18 0.228,-0.325 0.39,-0.434 0.16,-0.109 0.341,-0.191 0.542,-0.248 0.148,-0.039 0.372,-0.077 0.671,-0.113 0.608,-0.073 1.057,-0.159 1.345,-0.26 0.003,-0.104 0.004,-0.169 0.004,-0.197 0,-0.308 -0.071,-0.524 -0.214,-0.65 -0.192,-0.17 -0.478,-0.256 -0.858,-0.256 -0.354,0 -0.616,0.063 -0.785,0.187 -0.17,0.124 -0.295,0.344 -0.375,0.66 l -0.738,-0.101 c 0.067,-0.315 0.178,-0.57 0.331,-0.764 0.154,-0.194 0.376,-0.344 0.667,-0.449 0.29,-0.104 0.627,-0.157 1.009,-0.157 0.38,0 0.689,0.044 0.927,0.134 0.237,0.089 0.411,0.202 0.523,0.337 0.111,0.136 0.189,0.307 0.234,0.513 0.025,0.128 0.038,0.36 0.038,0.695 v 1.006 c 0,0.701 0.016,1.144 0.048,1.33 0.032,0.186 0.096,0.364 0.191,0.534 h -0.787 c -0.079,-0.153 -0.13,-0.336 -0.152,-0.545 z m -0.063,-1.684 c -0.273,0.112 -0.685,0.206 -1.232,0.285 -0.311,0.045 -0.529,0.095 -0.658,0.151 -0.129,0.056 -0.228,0.138 -0.298,0.245 -0.069,0.107 -0.105,0.227 -0.105,0.358 0,0.201 0.076,0.369 0.229,0.503 0.152,0.134 0.375,0.201 0.668,0.201 0.291,0 0.549,-0.063 0.775,-0.19 0.227,-0.127 0.393,-0.301 0.499,-0.522 0.08,-0.17 0.121,-0.421 0.121,-0.754 v -0.277 z"
   id="path73" />&#10;			<path
   style="fill:#263238"
   d="m 314.219,183.376 v -4.449 h 0.675 v 0.624 c 0.14,-0.218 0.325,-0.393 0.557,-0.526 0.232,-0.132 0.496,-0.199 0.792,-0.199 0.33,0 0.601,0.068 0.81,0.205 0.211,0.137 0.36,0.328 0.446,0.574 0.353,-0.52 0.811,-0.779 1.375,-0.779 0.44,0 0.78,0.122 1.018,0.367 0.237,0.244 0.356,0.621 0.356,1.129 v 3.054 h -0.75 v -2.803 c 0,-0.302 -0.024,-0.519 -0.073,-0.652 -0.049,-0.132 -0.138,-0.239 -0.267,-0.32 -0.128,-0.081 -0.279,-0.122 -0.452,-0.122 -0.313,0 -0.572,0.104 -0.779,0.312 -0.207,0.208 -0.31,0.541 -0.31,0.999 v 2.585 h -0.755 v -2.891 c 0,-0.335 -0.061,-0.587 -0.184,-0.754 -0.123,-0.167 -0.324,-0.251 -0.604,-0.251 -0.213,0 -0.409,0.056 -0.589,0.168 -0.181,0.112 -0.31,0.275 -0.392,0.49 -0.081,0.215 -0.122,0.525 -0.122,0.93 v 2.309 z"
   id="path74" />&#10;			<path
   style="fill:#263238"
   d="m 324.412,181.944 0.779,0.096 c -0.123,0.455 -0.351,0.809 -0.683,1.06 -0.333,0.251 -0.757,0.377 -1.273,0.377 -0.651,0 -1.167,-0.2 -1.549,-0.601 -0.381,-0.401 -0.571,-0.963 -0.571,-1.687 0,-0.749 0.192,-1.33 0.578,-1.743 0.386,-0.414 0.885,-0.62 1.5,-0.62 0.595,0 1.081,0.203 1.458,0.607 0.377,0.405 0.565,0.975 0.565,1.71 0,0.044 -0.002,0.112 -0.004,0.201 h -3.318 c 0.027,0.489 0.166,0.863 0.414,1.123 0.249,0.26 0.559,0.39 0.931,0.39 0.276,0 0.513,-0.073 0.708,-0.218 0.196,-0.145 0.351,-0.377 0.465,-0.695 z m -2.475,-1.219 h 2.484 c -0.034,-0.374 -0.129,-0.655 -0.285,-0.842 -0.24,-0.29 -0.552,-0.436 -0.935,-0.436 -0.346,0 -0.638,0.116 -0.873,0.348 -0.236,0.231 -0.367,0.541 -0.391,0.93 z"
   id="path75" />&#10;		</g>&#10;		<path
   style="fill:#407bff"
   d="m 299.036,243.915 h 34.202 c 3.003,0 5.46,2.457 5.46,5.46 v 6.181 c 0,3.003 -2.457,5.46 -5.46,5.46 h -34.202 c -3.003,0 -5.46,-2.457 -5.46,-5.46 v -6.181 c 0,-3.003 2.457,-5.46 5.46,-5.46 z"
   id="path76" />&#10;		<path
   style="opacity:0.2;fill:#407bff"
   d="m 353.636,243.915 h 34.202 c 3.003,0 5.46,2.457 5.46,5.46 v 6.181 c 0,3.003 -2.457,5.46 -5.46,5.46 h -34.202 c -3.003,0 -5.46,-2.457 -5.46,-5.46 v -6.181 c 0,-3.003 2.457,-5.46 5.46,-5.46 z"
   id="path77" />&#10;	</g>&#10;</g><g
   id="Character_1_"
   transform="matrix(0.43460127,0,0,0.43460127,-7.6568989,-32.743185)">&#10;	<g
   id="g116">&#10;		<g
   id="g115">&#10;			<path
   style="fill:#263238"
   d="m 136.805,87.176 c -7.386,-1.109 -9.062,5.603 -16.831,5.339 1.222,4.071 5.275,5.796 5.275,5.796 0,0 -6.17,4.484 -4.794,11.18 4.835,-5.471 11.328,-0.278 18.39,-0.495 14.674,-0.451 19.971,-7.249 14.89,-13.08 4.723,-5.973 -8.182,-9.176 -7.89,-13.628 -1.477,0.688 -1.422,3.529 -1.422,3.529 0,0 -5.327,0.452 -9.921,-3.279 -0.189,2.743 2.303,4.638 2.303,4.638 z"
   id="path78" />&#10;			<path
   style="fill:#263238"
   d="m 150.96,95.642 c 3.294,0.626 5.427,-1.843 5.447,-3.885 2.343,4.938 -1.27,7.626 -5.447,3.885 z"
   id="path79" />&#10;			<g
   id="g85">&#10;				<polygon
   style="fill:#ff8b7b"
   points="140.689,385.337 147.648,381.328 157.895,396.789 150.936,400.798 "
   id="polygon79" />&#10;				<path
   style="fill:#263238"
   d="m 150.104,400.209 7.818,-4.504 c 0.285,-0.164 0.614,-0.091 0.792,0.174 l 3.965,5.916 c 0.411,0.614 0.161,1.563 -0.501,1.929 -2.749,1.522 -4.142,2.112 -7.58,4.092 -2.115,1.218 -9.754,5.305 -15.396,4.875 -3.287,-0.251 -3.361,-3.252 -1.941,-3.581 6.369,-1.474 10.822,-5.125 11.892,-7.787 0.194,-0.479 0.535,-0.874 0.951,-1.114 z"
   id="path80" />&#10;				<g
   id="g80">&#10;					<polygon
   style="opacity:0.2"
   points="145.976,393.31 152.938,389.299 147.652,381.332 140.691,385.342 "
   id="polygon80" />&#10;				</g>&#10;				<g
   id="g83">&#10;					<g
   id="g81">&#10;						<path
   style="fill:#407bff"
   d="m 108.993,201.937 c 0,0 -16.843,66.236 -18.6,89.121 -1.924,25.061 51.337,101.38 51.337,101.38 l 13.031,-6.815 c 0,0 -24.66,-43.532 -41.115,-92.755 7.99,-25.754 23.898,-88.752 23.898,-88.752 z"
   id="path81" />&#10;					</g>&#10;					<g
   style="opacity:0.3"
   id="g82">&#10;						<path
   style="fill:#ffffff"
   d="m 108.993,201.937 c 0,0 -16.843,66.236 -18.6,89.121 -1.924,25.061 51.337,101.38 51.337,101.38 l 13.031,-6.815 c 0,0 -24.66,-43.532 -41.115,-92.755 7.99,-25.754 23.898,-88.752 23.898,-88.752 z"
   id="path82" />&#10;					</g>&#10;				</g>&#10;				<path
   style="opacity:0.4;fill:#407bff"
   d="m 123.915,227.975 c -6.606,11.571 -8.837,39.236 -7.14,54.345 4.621,-16.091 10.447,-38.17 14.759,-54.761 -2.907,-2.238 -5.753,-2.856 -7.619,0.416 z"
   id="path83" />&#10;				<polygon
   style="fill:#407bff"
   points="137.234,388.211 153.764,380.854 155.215,385.582 141.266,392.89 "
   id="polygon83" />&#10;				<path
   style="fill:#407bff"
   d="m 148.341,402.832 c 0.643,-0.37 1.277,-0.911 1.71,-1.315 0.054,-0.05 0.073,-0.127 0.049,-0.196 -0.025,-0.07 -0.088,-0.118 -0.161,-0.124 -0.312,-0.025 -3.063,-0.226 -3.719,0.595 -0.153,0.19 -0.191,0.422 -0.111,0.673 0.131,0.413 0.371,0.667 0.713,0.756 0.435,0.112 0.98,-0.078 1.519,-0.389 z m 1.128,-1.291 c -1.101,0.963 -2.04,1.453 -2.552,1.32 -0.212,-0.055 -0.36,-0.221 -0.451,-0.508 -0.042,-0.133 -0.027,-0.237 0.047,-0.329 0.353,-0.442 1.85,-0.528 2.956,-0.483 z"
   id="path84" />&#10;				<path
   style="fill:#407bff"
   d="m 150.016,401.543 c 0.025,-0.014 0.047,-0.035 0.064,-0.061 0.035,-0.054 0.039,-0.122 0.011,-0.18 -0.042,-0.088 -1.046,-2.163 -2.141,-2.43 -0.295,-0.072 -0.57,-0.013 -0.819,0.172 -0.298,0.223 -0.406,0.516 -0.303,0.826 0.28,0.845 2.16,1.688 3.092,1.698 0.035,0 0.068,-0.009 0.096,-0.025 z m -2.586,-2.25 c 0.135,-0.078 0.276,-0.097 0.431,-0.059 0.653,0.158 1.375,1.263 1.739,1.929 -0.901,-0.158 -2.232,-0.855 -2.415,-1.409 -0.035,-0.105 -0.047,-0.248 0.173,-0.412 0.023,-0.019 0.048,-0.035 0.072,-0.049 z"
   id="path85" />&#10;			</g>&#10;			<path
   style="fill:#ff8b7b"
   d="m 120.904,145.106 -7.238,12.447 c -1.183,2.07 -2.352,4.134 -3.446,6.165 -0.542,1.012 -1.042,2.029 -1.514,2.986 -0.46,0.934 -0.875,1.933 -1.053,2.429 l -0.388,-3.7 c 0.098,0.456 0.156,0.925 0.244,1.361 0.1,0.413 0.148,0.879 0.25,1.262 0.076,0.412 0.166,0.813 0.255,1.205 l 0.13,0.581 c 0.021,0.105 0.034,0.193 0.043,0.287 -0.006,0.04 0.012,0.103 -0.012,0.139 -0.042,0.041 0.044,0.098 -0.207,0.101 1.757,0.271 2.963,1.915 2.692,3.673 -0.271,1.757 -1.915,2.963 -3.673,2.692 -0.419,-0.028 -0.499,-0.015 -0.704,-0.024 l -0.499,-0.023 c -0.309,-0.03 -0.614,-0.068 -0.898,-0.119 -0.578,-0.112 -1.114,-0.263 -1.636,-0.458 -1.036,-0.389 -1.949,-0.93 -2.785,-1.534 -0.828,-0.622 -1.552,-1.292 -2.197,-2.024 -0.314,-0.363 -0.604,-0.732 -0.906,-1.108 -0.278,-0.369 -0.521,-0.761 -0.78,-1.148 -0.584,-0.87 -0.757,-1.896 -0.564,-2.848 l 0.175,-0.852 c 0.39,-1.896 0.858,-3.197 1.332,-4.531 0.471,-1.309 0.998,-2.524 1.516,-3.726 1.042,-2.391 2.151,-4.679 3.307,-6.926 1.141,-2.253 2.352,-4.45 3.581,-6.629 1.245,-2.182 2.497,-4.304 3.881,-6.455 l 0.004,-0.006 c 1.942,-3.02 5.965,-3.894 8.985,-1.952 2.935,1.885 3.836,5.748 2.105,8.735 z"
   id="path86" />&#10;			<path
   style="fill:#263238"
   d="m 116.848,133.041 c 8.143,-0.613 12.14,5.144 8.263,14.62 -2.131,5.229 -5.481,11.434 -7.935,15.762 -0.645,1.148 -1.239,2.169 -1.722,2.992 L 99.136,153.703 c 3.17,-7.509 12.265,-20.251 17.712,-20.662 z"
   id="path87" />&#10;			<path
   style="opacity:0.3"
   d="m 115.07,142.312 c 5.401,-3.497 -2.106,12.926 -5.203,19.752 l -4.794,-3.737 c 1.292,-4.864 5.85,-13.329 9.997,-16.015 z"
   id="path88" />&#10;			<g
   id="g93">&#10;				<polygon
   style="fill:#ff8b7b"
   points="130.129,388.935 138.118,389.545 137.89,408.137 129.901,407.527 "
   id="polygon88" />&#10;				<path
   style="fill:#263238"
   d="m 129.545,406.57 8.976,0.685 c 0.327,0.025 0.557,0.271 0.555,0.591 l -0.051,7.139 c -0.005,0.741 -0.744,1.385 -1.496,1.315 -3.121,-0.292 -4.601,-0.59 -8.548,-0.891 -2.428,-0.185 -12.77,-0.721 -16.123,-0.977 -3.28,-0.25 -3.031,-3.566 -1.589,-3.758 6.465,-0.861 14.49,-2.116 16.867,-3.717 0.428,-0.289 0.931,-0.424 1.409,-0.387 z"
   id="path89" />&#10;				<g
   id="g89">&#10;					<polygon
   style="opacity:0.2"
   points="130.014,398.524 138.006,399.134 138.12,389.551 130.128,388.94 "
   id="polygon89" />&#10;				</g>&#10;				<g
   id="g91">&#10;					<path
   style="fill:#407bff"
   d="m 124.592,203.128 c 0,0 -4.907,60.626 -5.177,83.612 -0.296,25.172 7.329,109.219 7.329,109.219 l 14.633,1.117 c 0,0 -1.094,-81.514 1.485,-106.262 2.799,-26.86 8.86,-85.615 8.86,-85.615 z"
   id="path90" />&#10;					<path
   style="opacity:0.3;fill:#ffffff"
   d="m 124.592,203.128 c 0,0 -4.907,60.626 -5.177,83.612 -0.296,25.172 7.329,109.219 7.329,109.219 l 14.633,1.117 c 0,0 -1.094,-81.514 1.485,-106.262 2.799,-26.86 8.86,-85.615 8.86,-85.615 z"
   id="path91" />&#10;				</g>&#10;				<polygon
   style="fill:#407bff"
   points="125.658,390.291 143.05,392.491 141.967,397.121 126.155,395.914 "
   id="polygon91" />&#10;				<path
   style="fill:#407bff"
   d="m 126.618,407.746 c 0.738,0.056 1.565,-0.034 2.148,-0.123 0.073,-0.011 0.132,-0.064 0.15,-0.135 0.019,-0.072 -0.006,-0.147 -0.063,-0.194 -0.243,-0.197 -2.399,-1.917 -3.401,-1.608 -0.232,0.071 -0.395,0.242 -0.47,0.494 -0.124,0.416 -0.068,0.762 0.164,1.029 0.297,0.339 0.853,0.49 1.472,0.537 z m 1.655,-0.432 c -1.449,0.176 -2.498,0.051 -2.846,-0.349 -0.144,-0.165 -0.172,-0.386 -0.087,-0.676 0.04,-0.133 0.111,-0.212 0.224,-0.246 0.54,-0.165 1.823,0.61 2.709,1.271 z"
   id="path92" />&#10;				<path
   style="fill:#407bff"
   d="m 128.724,407.624 c 0.029,0.002 0.059,-0.002 0.087,-0.014 0.059,-0.025 0.101,-0.079 0.11,-0.142 0.014,-0.097 0.351,-2.382 -0.402,-3.221 -0.203,-0.226 -0.463,-0.333 -0.771,-0.32 -0.371,0.016 -0.625,0.198 -0.714,0.512 -0.244,0.858 0.833,2.617 1.597,3.152 0.028,0.02 0.06,0.031 0.093,0.033 z m -0.87,-3.323 c 0.155,0.012 0.283,0.076 0.389,0.194 0.45,0.5 0.425,1.822 0.351,2.579 -0.654,-0.64 -1.361,-1.969 -1.201,-2.531 0.03,-0.107 0.101,-0.232 0.374,-0.244 0.03,-10e-4 0.059,0 0.087,0.002 z"
   id="path93" />&#10;			</g>&#10;			<path
   style="fill:#407bff"
   d="m 108.993,201.937 42.729,3.262 c 0.563,-3.794 0.529,-16.284 2.268,-32.052 1.169,-10.588 3.142,-22.653 6.631,-34.548 0.253,-0.848 0.505,-1.685 0.769,-2.532 0,0 -2.136,-0.608 -5.208,-1.297 -2.55,-0.574 -5.756,-1.209 -8.914,-1.602 -5.435,-0.675 -13.322,-1.451 -18.158,-1.386 -2.809,0.046 -5.567,0.302 -7.773,0.556 -2.819,0.349 -4.49,0.703 -4.49,0.703 0,0 -9.325,22.87 -7.854,68.896 z"
   id="path94" />&#10;			<path
   style="fill:#ff8b7b"
   d="m 110.887,169.473 c 0,0 1.656,-2.388 3.168,-3.112 1.078,-0.516 1.9,-1.034 2.386,-1.367 0.337,-0.231 0.791,0.008 0.816,0.418 0.037,0.628 -0.295,1.632 -1.945,3.005 -0.265,1.967 -3.331,3.913 -3.331,3.913 z"
   id="path95" />&#10;			<polygon
   style="opacity:0.3"
   points="121.115,157.438 112.236,156.76 117.047,174.741 125.925,175.419 "
   id="polygon95" />&#10;			<polygon
   style="fill:#ffffff"
   points="120.509,157.392 111.63,156.714 116.44,174.695 125.319,175.373 "
   id="polygon96" />&#10;			<path
   style="opacity:0.3"
   d="m 153.99,173.151 c 1.169,-10.588 3.142,-22.653 6.632,-34.548 -2.839,-0.466 -7.74,-0.559 -8.864,3.995 -1.212,4.893 -0.911,16.644 2.232,30.553 z"
   id="path96" />&#10;			<path
   style="fill:#ff8b7b"
   d="m 164.394,142.314 c 0.448,1.394 0.804,2.605 1.147,3.909 0.352,1.281 0.653,2.571 0.948,3.864 0.568,2.592 1.087,5.2 1.448,7.866 0.371,2.667 0.661,5.36 0.753,8.138 0.101,2.783 0.029,5.629 -0.373,8.618 l -0.043,0.322 c -0.168,1.251 -0.75,2.348 -1.585,3.169 -0.687,0.675 -1.35,1.125 -1.962,1.483 -0.586,0.325 -1.16,0.589 -1.659,0.77 -1.024,0.385 -1.915,0.591 -2.755,0.74 -1.67,0.29 -3.147,0.372 -4.589,0.409 -2.864,0.061 -5.539,-0.182 -8.18,-0.472 -2.635,-0.322 -5.216,-0.742 -7.77,-1.258 -2.562,-0.526 -5.059,-1.099 -7.61,-1.851 -1.722,-0.508 -2.707,-2.316 -2.198,-4.038 0.414,-1.402 1.689,-2.315 3.078,-2.332 h 0.062 l 7.456,-0.083 c 2.48,-0.038 4.944,-0.088 7.362,-0.212 2.411,-0.1 4.801,-0.302 6.982,-0.61 1.078,-0.159 2.12,-0.367 2.919,-0.626 0.392,-0.129 0.723,-0.268 0.869,-0.361 0.091,-0.047 0.079,-0.076 0.042,-0.062 -0.076,0.025 -0.226,0.098 -0.466,0.326 l -1.629,3.491 c 0.065,-2.052 -0.095,-4.277 -0.325,-6.54 -0.259,-2.27 -0.657,-4.593 -1.083,-6.921 -0.454,-2.328 -0.961,-4.676 -1.521,-7.014 -0.267,-1.172 -0.572,-2.339 -0.861,-3.504 l -0.885,-3.401 -0.051,-0.195 c -0.904,-3.474 1.18,-7.022 4.653,-7.926 3.351,-0.871 6.774,1.051 7.826,4.301 z"
   id="path97" />&#10;			<path
   style="fill:#263238"
   d="m 161.391,136.067 c -7.819,-2.451 -12.495,2.551 -11.193,12.744 0.711,5.622 2.703,12.379 4.182,17.157 l 17.232,-5.301 c -1.504,-8.043 -4.991,-22.959 -10.221,-24.6 z"
   id="path98" />&#10;			<path
   style="fill:#ff8b7b"
   d="m 129.977,131.783 c 5.366,-0.847 6.516,-4.044 6.406,-7.662 -0.016,-0.879 -0.105,-1.797 -0.237,-2.707 l 6.993,-4.994 5.136,-3.662 c -1.748,5.753 -3.997,16.301 -0.308,20.506 0,0 -7.158,5.28 -15.868,8.681 -1.376,0.537 -2.969,-0.178 -3.404,-1.59 -1.667,-5.415 1.282,-8.572 1.282,-8.572 z"
   id="path99" />&#10;			<path
   style="opacity:0.2"
   d="m 136.145,121.414 c 0.133,0.91 0.222,1.827 0.237,2.707 2.502,-0.308 6.382,-2.223 6.931,-4.981 0.188,-0.94 -0.156,-2.057 -0.176,-2.72 z"
   id="path100" />&#10;			<path
   style="fill:#ff8b7b"
   d="m 148.688,100.919 c 0.376,7.972 0.998,12.609 -2.527,17.208 -5.302,6.918 -15.387,4.618 -18.117,-3.018 -2.457,-6.874 -2.66,-18.756 4.684,-22.951 7.235,-4.133 15.583,0.789 15.96,8.761 z"
   id="path101" />&#10;			<path
   style="fill:#263238"
   d="m 145.352,96.082 c -2.253,4.073 -0.539,7.056 -0.539,7.056 l 0.417,-1.917 c 0,0 2.841,3.017 2.035,6.478 4.945,-2.648 5.505,-12.948 -1.913,-11.617 z"
   id="path102" />&#10;			<path
   style="fill:#263238"
   d="m 149.505,97.302 c -9.003,1.977 -14.068,1.073 -15.667,0.725 3.768,-0.254 4.758,-1.964 4.758,-1.964 0,0 -8.982,2.205 -10.829,1.5 1.813,-5.486 6.025,-8.009 14.536,-7.676 8.51,0.334 7.202,7.415 7.202,7.415 z"
   id="path103" />&#10;			<path
   style="fill:#ff8b7b"
   d="m 152.521,108.344 c -0.913,1.971 -2.509,3.409 -4.014,4.09 -2.264,1.023 -3.386,-1.043 -2.748,-3.486 0.574,-2.199 2.444,-5.381 4.712,-5.37 2.234,0.011 3.093,2.512 2.05,4.766 z"
   id="path104" />&#10;			<path
   style="fill:#263238"
   d="m 137.018,104.753 c 0.07,0.644 -0.212,1.212 -0.63,1.269 -0.418,0.057 -0.813,-0.419 -0.883,-1.063 -0.07,-0.644 0.212,-1.212 0.63,-1.269 0.418,-0.057 0.813,0.419 0.883,1.063 z"
   id="path105" />&#10;			<path
   style="fill:#263238"
   d="m 129.792,105.738 c 0.07,0.644 -0.212,1.212 -0.63,1.269 -0.418,0.057 -0.813,-0.419 -0.883,-1.063 -0.07,-0.644 0.212,-1.212 0.63,-1.269 0.418,-0.056 0.813,0.419 0.883,1.063 z"
   id="path106" />&#10;			<path
   style="fill:#ff5652"
   d="m 132.124,105.745 c 0,0 -1.051,3.912 -2.456,5.922 1.246,0.909 3.117,0.161 3.117,0.161 z"
   id="path107" />&#10;			<path
   style="fill:#263238"
   d="m 135.584,113.206 c 2.458,-0.639 3.423,-2.534 3.466,-2.622 0.046,-0.093 0.008,-0.208 -0.086,-0.255 -0.094,-0.048 -0.207,-0.009 -0.254,0.084 -0.011,0.021 -1.106,2.18 -3.918,2.561 -0.105,0.014 -0.176,0.11 -0.16,0.214 0.015,0.104 0.111,0.177 0.215,0.162 0.259,-0.034 0.505,-0.083 0.737,-0.144 z"
   id="path108" />&#10;			<path
   style="fill:#263238"
   d="m 138.998,102.099 c 0.06,-0.016 0.117,-0.046 0.165,-0.092 0.15,-0.145 0.155,-0.385 0.009,-0.537 -1.441,-1.504 -3.165,-1.165 -3.237,-1.149 -0.197,0.021 -0.335,0.243 -0.291,0.449 0.044,0.205 0.246,0.337 0.45,0.295 0.072,-0.014 1.4,-0.253 2.532,0.929 0.1,0.103 0.243,0.138 0.372,0.105 z"
   id="path109" />&#10;			<path
   style="fill:#263238"
   d="m 126.414,103.66 c 0.117,-0.031 0.217,-0.117 0.26,-0.239 0.57,-1.626 1.927,-2.005 1.94,-2.008 0.202,-0.054 0.321,-0.262 0.266,-0.464 -0.055,-0.202 -0.262,-0.323 -0.464,-0.27 -0.001,0 -0.002,0 -0.002,0.001 -0.072,0.019 -1.756,0.489 -2.456,2.485 -0.069,0.197 0.035,0.415 0.233,0.486 0.075,0.025 0.152,0.027 0.223,0.009 z"
   id="path110" />&#10;			<path
   style="fill:#ff8b7b"
   d="m 134.798,172.371 -8.203,-5.067 0.754,10.084 c 0,0 6.869,2.462 7.815,-1.18 z"
   id="path111" />&#10;			<path
   style="fill:#ff8b7b"
   d="m 129.199,168.912 c 0,0 -1.701,-2.382 -3.226,-3.102 -1.087,-0.513 -2.12,-1.434 -2.612,-1.765 -0.342,-0.23 -0.791,0.011 -0.808,0.421 -0.026,0.628 0.525,2.037 2.201,3.404 0.302,1.966 3.404,3.903 3.404,3.903 z"
   id="path112" />&#10;			<path
   style="fill:#ff8b7b"
   d="m 119.501,168.154 0.725,6.311 c 0.063,0.544 0.447,0.998 0.973,1.15 l 6.149,1.773 -0.76,-9.996 -5.591,-0.716 c -0.862,-0.112 -1.595,0.613 -1.496,1.478 z"
   id="path113" />&#10;			<path
   style="fill:#ff8b7b"
   d="m 106.963,171.071 7.107,-3.595 -0.176,8.885 c 0,0 -7.375,2.199 -7.815,-1.548 z"
   id="path114" />&#10;			<path
   style="fill:#ff8b7b"
   d="m 117.183,167.811 10e-4,7.016 c 0,0.396 -0.265,0.74 -0.646,0.84 l -2.644,0.694 0.176,-8.885 2.015,-0.519 c 0.555,-0.143 1.098,0.279 1.098,0.854 z"
   id="path115" />&#10;		</g>&#10;	</g>&#10;</g><g
   id="Obj_2"
   transform="matrix(0.43460127,0,0,0.43460127,-7.6568989,-32.743185)">&#10;	<g
   id="g131">&#10;		<g
   id="g123">&#10;			<path
   style="fill:#407bff"
   d="m 333.161,290.907 c 6.711,6.682 5.739,13.464 0.958,18.266 -4.78,4.801 -11.559,5.803 -18.27,-0.879 -6.711,-6.682 -10.812,-18.516 -6.032,-23.317 4.781,-4.802 16.633,-0.752 23.344,5.93 z"
   id="path116" />&#10;			<path
   style="fill:#407bff"
   d="m 356.911,334.742 c -8.295,1.463 -13.293,-2.461 -15.031,-8.083 -1.738,-5.622 0.441,-10.813 8.736,-12.276 8.295,-1.463 19.564,1.355 21.302,6.977 1.739,5.622 -6.712,11.919 -15.007,13.382 z"
   id="path117" />&#10;			<path
   style="fill:#407bff"
   d="m 313.126,347.868 c 5.978,1.976 10.098,-0.389 11.989,-4.361 1.891,-3.972 0.838,-8.046 -5.14,-10.022 -5.978,-1.976 -14.617,-1.104 -16.509,2.867 -1.891,3.972 3.682,9.54 9.66,11.516 z"
   id="path118" />&#10;			<path
   style="fill:#407bff"
   d="m 361.553,290.524 c -5.744,7.861 -12.835,8.51 -18.515,5.114 -5.681,-3.395 -7.801,-9.549 -2.056,-17.41 5.744,-7.861 17.177,-14.453 22.858,-11.057 5.681,3.395 3.458,15.492 -2.287,23.353 z"
   id="path119" />&#10;			<path
   style="fill:#263238"
   d="m 328.09,393.605 c -0.528,0 -0.97,-0.414 -0.998,-0.948 -3.076,-59.256 19.372,-105.289 19.599,-105.747 0.246,-0.495 0.845,-0.699 1.34,-0.451 0.495,0.245 0.697,0.845 0.452,1.34 -0.225,0.453 -22.442,46.044 -19.394,104.755 0.029,0.552 -0.395,1.021 -0.947,1.051 -0.017,0 -0.035,0 -0.052,0 z"
   id="path120" />&#10;			<path
   style="fill:#263238"
   d="m 336.391,319.645 c -0.032,0 -0.063,-0.002 -0.096,-0.005 -0.549,-0.052 -0.953,-0.54 -0.901,-1.089 0.012,-0.13 1.115,-13.039 -7.735,-17.274 -0.498,-0.238 -0.709,-0.836 -0.47,-1.334 0.238,-0.499 0.837,-0.707 1.333,-0.471 10.116,4.842 8.918,18.681 8.863,19.268 -0.049,0.517 -0.485,0.905 -0.994,0.905 z"
   id="path121" />&#10;			<path
   style="fill:#263238"
   d="m 329.143,357.676 c -0.515,0 -0.952,-0.396 -0.996,-0.917 -0.01,-0.124 -1.155,-12.409 -11.932,-15.826 -0.526,-0.167 -0.818,-0.728 -0.651,-1.255 0.167,-0.528 0.73,-0.819 1.255,-0.651 12.073,3.827 13.31,17.433 13.32,17.569 0.044,0.551 -0.365,1.032 -0.915,1.077 -0.026,0.002 -0.054,0.003 -0.081,0.003 z"
   id="path122" />&#10;			<path
   style="fill:#263238"
   d="m 331.305,342.383 c -0.08,0 -0.16,-0.009 -0.24,-0.029 -0.536,-0.132 -0.864,-0.674 -0.732,-1.21 4.681,-18.991 19.445,-18.538 19.597,-18.536 0.552,0.025 0.979,0.492 0.954,1.044 -0.025,0.553 -0.494,0.986 -1.044,0.954 -0.536,-0.018 -13.289,-0.331 -17.565,17.017 -0.113,0.455 -0.521,0.76 -0.97,0.76 z"
   id="path123" />&#10;		</g>&#10;		<path
   style="fill:#407bff"
   d="m 369.651,384.897 c 0,12.275 -5.615,23.257 -14.442,30.556 -0.631,0.522 -1.369,0.781 -2.112,0.781 h -47.452 c -0.743,0 -1.481,-0.259 -2.112,-0.781 -8.827,-7.299 -14.442,-18.281 -14.442,-30.556 0,-3.892 0.561,-7.655 1.618,-11.204 0.003,-0.011 0.007,-0.023 0.01,-0.034 0.598,-2.013 2.096,-3.3 3.727,-3.3 h 69.85 c 1.631,0 3.13,1.287 3.727,3.3 0.003,0.011 0.007,0.023 0.01,0.034 1.057,3.549 1.618,7.312 1.618,11.204 z"
   id="path124" />&#10;		<g
   id="g130">&#10;			<path
   style="fill:#ffffff"
   d="m 369.532,387.812 c -22.954,7.457 -45.602,16.249 -67.583,26.26 0.274,0.252 0.561,0.49 0.841,0.734 21.686,-9.858 44.014,-18.535 66.648,-25.905 0.037,-0.361 0.067,-0.724 0.094,-1.089 z"
   id="path125" />&#10;			<path
   style="fill:#ffffff"
   d="m 355.149,370.359 h -1.734 c -18.481,13.07 -36.454,27.172 -53.968,41.184 0.225,0.246 0.448,0.493 0.679,0.734 17.849,-14.279 36.179,-28.65 55.023,-41.918 z"
   id="path126" />&#10;			<path
   style="fill:#ffffff"
   d="m 343.903,416.234 c 8.299,-6.802 16.442,-13.836 24.376,-21.047 0.156,-0.578 0.304,-1.159 0.434,-1.747 -8.568,7.826 -17.385,15.448 -26.384,22.794 z"
   id="path127" />&#10;			<path
   style="fill:#ffffff"
   d="m 343.953,370.359 c -18.868,6.187 -36.566,15.966 -53.068,26.286 0.103,0.328 0.205,0.657 0.316,0.982 17.383,-10.882 36.09,-21.172 56.067,-27.268 z"
   id="path128" />&#10;			<path
   style="fill:#ffffff"
   d="m 289.697,378.103 c 5.326,-2.812 10.773,-5.391 16.317,-7.743 h -2.5 c -4.602,2.011 -9.139,4.168 -13.589,6.496 -0.086,0.412 -0.155,0.83 -0.228,1.247 z"
   id="path129" />&#10;			<path
   style="fill:#ffffff"
   d="m 314.54,370.359 h -1.474 l -23.341,21.58 c 0.07,0.385 0.151,0.766 0.232,1.148 z"
   id="path130" />&#10;		</g>&#10;	</g>&#10;</g></svg>
