<?xml version="1.0" encoding="UTF-8" standalone="no"?>
<!-- Generator: Adobe Illustrator 27.5.0, SVG Export Plug-In . SVG Version: 6.00 Build 0)  -->

<svg
   version="1.1"
   x="0px"
   y="0px"
   viewBox="0 0 199 155"
   xml:space="preserve"
   id="svg247"
   sodipodi:docname="videoteca.svg"
   inkscape:version="1.3.2 (091e20e, 2023-11-25, custom)"
   width="199"
   height="155"
   xmlns:inkscape="http://www.inkscape.org/namespaces/inkscape"
   xmlns:sodipodi="http://sodipodi.sourceforge.net/DTD/sodipodi-0.dtd"
   xmlns="http://www.w3.org/2000/svg"
   xmlns:svg="http://www.w3.org/2000/svg"><defs
   id="defs247" /><sodipodi:namedview
   id="namedview247"
   pagecolor="#ffffff"
   bordercolor="#000000"
   borderopacity="0.25"
   inkscape:showpageshadow="2"
   inkscape:pageopacity="0.0"
   inkscape:pagecheckerboard="true"
   inkscape:deskcolor="#d1d1d1"
   inkscape:zoom="2.3221387"
   inkscape:cx="168.16395"
   inkscape:cy="97.970032"
   inkscape:window-width="2560"
   inkscape:window-height="1017"
   inkscape:window-x="1912"
   inkscape:window-y="-8"
   inkscape:window-maximized="1"
   inkscape:current-layer="svg247" />

<g
   id="Background_Simple"
   style="display:none">
	<g
   style="display:inline"
   id="g41">
		<path
   style="fill:#407bff"
   d="m 241.936,74.075 c 7.832,-1.91 16.622,-1.622 26.341,1.643 15.617,5.247 27.043,19.004 34.173,33.856 13.796,28.739 17.651,60.899 27.547,90.911 2.714,8.23 5.923,16.453 11.228,23.305 22.071,28.507 82.754,12.137 82.176,62.137 -0.163,14.13 -7.771,27.655 -18.876,36.394 -32.69,25.724 -78.654,11.019 -113.588,-0.656 -32.732,-10.939 -61.068,-12.275 -93.872,0.819 -27.802,11.097 -56.895,29.991 -88.174,24.881 -31.807,-5.197 -46.032,-36.584 -40.707,-66.182 5.677,-31.551 30.416,-54.82 58.857,-67.405 16.966,-7.508 39.284,-12.096 52.582,-25.755 6.83,-7.015 9.803,-16.855 11.975,-26.402 3.458,-15.205 5.5,-30.795 10.651,-45.513 6.453,-18.439 19.682,-37.153 39.687,-42.033 z"
   id="path40" />
		<path
   style="opacity:0.9;fill:#ffffff"
   d="m 241.936,74.075 c 7.832,-1.91 16.622,-1.622 26.341,1.643 15.617,5.247 27.043,19.004 34.173,33.856 13.796,28.739 17.651,60.899 27.547,90.911 2.714,8.23 5.923,16.453 11.228,23.305 22.071,28.507 82.754,12.137 82.176,62.137 -0.163,14.13 -7.771,27.655 -18.876,36.394 -32.69,25.724 -78.654,11.019 -113.588,-0.656 -32.732,-10.939 -61.068,-12.275 -93.872,0.819 -27.802,11.097 -56.895,29.991 -88.174,24.881 -31.807,-5.197 -46.032,-36.584 -40.707,-66.182 5.677,-31.551 30.416,-54.82 58.857,-67.405 16.966,-7.508 39.284,-12.096 52.582,-25.755 6.83,-7.015 9.803,-16.855 11.975,-26.402 3.458,-15.205 5.5,-30.795 10.651,-45.513 6.453,-18.439 19.682,-37.153 39.687,-42.033 z"
   id="path41" />
	</g>
</g>





<g
   id="Background_Complete"
   transform="matrix(0.39327951,0,0,0.39327951,1.3425467,-15.643206)">
	<g
   id="g8">
		<rect
   y="382.39801"
   style="fill:#ebebeb"
   width="500"
   height="0.25"
   id="rect1"
   x="0" />
		<rect
   x="333.33301"
   y="389.20801"
   style="fill:#ebebeb"
   width="73.789001"
   height="0.25"
   id="rect2" />
		<rect
   x="103.615"
   y="390.888"
   style="fill:#ebebeb"
   width="8.6929998"
   height="0.25"
   id="rect3" />
		<rect
   x="408.12299"
   y="398.49399"
   style="fill:#ebebeb"
   width="19.191999"
   height="0.25"
   id="rect4" />
		<rect
   x="200"
   y="395.11099"
   style="fill:#ebebeb"
   width="48.667"
   height="0.25"
   id="rect5" />
		<rect
   x="166.717"
   y="395.11099"
   style="fill:#ebebeb"
   width="24.379"
   height="0.25"
   id="rect6" />
		<rect
   x="52.459"
   y="390.888"
   style="fill:#ebebeb"
   width="33.146999"
   height="0.25"
   id="rect7" />
		<path
   style="fill:#ebebeb"
   d="M 237.014,337.8 H 43.915 c -3.147,0 -5.708,-2.561 -5.708,-5.708 V 60.66 c 0,-3.147 2.561,-5.708 5.708,-5.708 h 193.099 c 3.146,0 5.707,2.561 5.707,5.708 v 271.432 c 0,3.147 -2.561,5.708 -5.707,5.708 z M 43.915,55.203 c -3.01,0 -5.458,2.448 -5.458,5.458 v 271.432 c 0,3.01 2.448,5.458 5.458,5.458 h 193.099 c 3.009,0 5.457,-2.448 5.457,-5.458 V 60.66 c 0,-3.009 -2.448,-5.458 -5.457,-5.458 H 43.915 Z"
   id="path7" />
		<path
   style="fill:#ebebeb"
   d="M 453.31,337.8 H 260.212 c -3.147,0 -5.707,-2.561 -5.707,-5.708 V 60.66 c 0,-3.147 2.561,-5.708 5.707,-5.708 H 453.31 c 3.148,0 5.708,2.561 5.708,5.708 v 271.432 c 0.001,3.147 -2.56,5.708 -5.708,5.708 z M 260.212,55.203 c -3.009,0 -5.457,2.448 -5.457,5.458 v 271.432 c 0,3.01 2.448,5.458 5.457,5.458 H 453.31 c 3.01,0 5.458,-2.448 5.458,-5.458 V 60.66 c 0,-3.009 -2.448,-5.458 -5.458,-5.458 H 260.212 Z"
   id="path8" />
	</g>
	<g
   id="g34">
		<g
   id="g13">
			<g
   id="g12">
				
					<rect
   x="132.47301"
   y="285.33401"
   transform="rotate(180,141.20535,333.8668)"
   style="fill:#e6e6e6"
   width="17.465"
   height="97.065002"
   id="rect8" />
				<polygon
   style="fill:#f0f0f0"
   points="143.198,367.687 137.709,382.399 132.473,382.399 132.473,367.687 "
   id="polygon8" />
				
					<rect
   x="350.061"
   y="285.33401"
   transform="rotate(180,358.79375,333.8668)"
   style="fill:#e6e6e6"
   width="17.465"
   height="97.065002"
   id="rect9" />
				
					<rect
   x="132.47301"
   y="285.33401"
   transform="rotate(180,243.5518,330.2757)"
   style="fill:#f0f0f0"
   width="222.158"
   height="89.883003"
   id="rect10" />
				<polygon
   style="fill:#f0f0f0"
   points="343.905,367.687 349.395,382.399 354.631,382.399 354.631,367.687 "
   id="polygon10" />
				
					<rect
   x="136.535"
   y="291.66"
   transform="rotate(180,243.5518,309.6431)"
   style="fill:#e6e6e6"
   width="214.034"
   height="35.966"
   id="rect11" />
				<path
   style="fill:#f0f0f0"
   d="m 167.904,302.837 h 147.778 c 5.108,0 9.992,-4.437 13.505,-12.27 v 0 H 154.399 v 0 c 3.513,7.833 8.397,12.27 13.505,12.27 z"
   id="path11" />
				
					<rect
   x="136.535"
   y="333.439"
   transform="rotate(180,243.5518,351.4215)"
   style="fill:#e6e6e6"
   width="214.034"
   height="35.966"
   id="rect12" />
				<path
   style="fill:#f0f0f0"
   d="m 167.904,344.615 h 147.778 c 5.108,0 9.992,-4.437 13.505,-12.27 v 0 H 154.399 v 0 c 3.513,7.833 8.397,12.27 13.505,12.27 z"
   id="path12" />
			</g>
		</g>
		<g
   id="g33">
			<g
   id="g24">
				<rect
   x="53.073002"
   y="78.879997"
   style="fill:#f0f0f0"
   width="393.854"
   height="163.90199"
   id="rect13" />
				
					<rect
   x="175.755"
   y="-28.389999"
   transform="rotate(90,250,160.8307)"
   style="fill:#fafafa"
   width="148.49001"
   height="378.44199"
   id="rect14" />
				<polygon
   style="fill:#ffffff"
   points="139.22,235.076 110.598,235.076 149.419,86.586 178.041,86.586 "
   id="polygon14" />
				<polygon
   style="fill:#ffffff"
   points="158.631,235.076 145.825,235.076 184.646,86.586 197.452,86.586 "
   id="polygon15" />
				<polygon
   style="fill:#ffffff"
   points="237.091,235.076 208.47,235.076 247.291,86.586 275.912,86.586 "
   id="polygon16" />
				<polygon
   style="fill:#ffffff"
   points="293.441,235.076 280.635,235.076 319.457,86.586 332.262,86.586 "
   id="polygon17" />
				
					<rect
   x="86.939003"
   y="159.85201"
   transform="rotate(90,161.18415,160.83075)"
   style="fill:#e0e0e0"
   width="148.49001"
   height="1.957"
   id="rect17" />
				
					<rect
   x="-12.488"
   y="159.85201"
   transform="rotate(90,61.7573,160.8307)"
   style="fill:#e0e0e0"
   width="148.49001"
   height="1.957"
   id="rect18" />
				
					<rect
   x="82.107002"
   y="156.978"
   transform="rotate(90,156.35265,160.83075)"
   style="fill:#f0f0f0"
   width="148.49001"
   height="7.7059999"
   id="rect19" />
				<g
   id="g21">
					
						<rect
   x="182.48199"
   y="159.85201"
   transform="rotate(90,256.72765,160.83075)"
   style="fill:#e0e0e0"
   width="148.49001"
   height="1.957"
   id="rect20" />
					
						<rect
   x="177.651"
   y="156.978"
   transform="rotate(90,251.89625,160.83075)"
   style="fill:#f0f0f0"
   width="148.49001"
   height="7.7059999"
   id="rect21" />
				</g>
				<g
   id="g23">
					
						<rect
   x="278.07199"
   y="159.85201"
   transform="rotate(90,352.3168,160.8307)"
   style="fill:#e0e0e0"
   width="148.49001"
   height="1.957"
   id="rect22" />
					
						<rect
   x="273.23999"
   y="156.978"
   transform="rotate(90,347.48535,160.83075)"
   style="fill:#f0f0f0"
   width="148.49001"
   height="7.7059999"
   id="rect23" />
				</g>
				
					<rect
   x="365.95499"
   y="159.85201"
   transform="rotate(90,447.9056,160.8307)"
   style="fill:#e0e0e0"
   width="163.90199"
   height="1.957"
   id="rect24" />
			</g>
			<g
   id="g32">
				<path
   style="fill:#e0e0e0"
   d="M 453.288,74.354 H 46.712 C 45.77,74.354 45,73.583 45,72.641 v 0 c 0,-0.942 0.771,-1.712 1.712,-1.712 h 406.575 c 0.942,0 1.712,0.771 1.712,1.712 v 0 c 10e-4,0.943 -0.77,1.713 -1.711,1.713 z"
   id="path24" />
				<g
   style="opacity:0.6"
   id="g27">
					<rect
   x="48.303001"
   y="67.626999"
   style="fill:#f5f5f5"
   width="83.174004"
   height="231.786"
   id="rect25" />
					<polygon
   style="fill:#e6e6e6"
   points="91.48,70.073 93.376,301.859 86.404,301.859 88.361,70.073 "
   id="polygon25" />
					<polygon
   style="fill:#e6e6e6"
   points="69.374,70.073 70.289,301.859 66.925,301.859 67.869,70.073 "
   id="polygon26" />
					<polygon
   style="fill:#e6e6e6"
   points="115.609,70.073 116.524,301.859 113.16,301.859 114.104,70.073 "
   id="polygon27" />
				</g>
				<g
   style="opacity:0.6"
   id="g31">
					<rect
   x="367.52701"
   y="67.626999"
   style="fill:#f5f5f5"
   width="83.174004"
   height="231.786"
   id="rect27" />
					<polygon
   style="fill:#e6e6e6"
   points="398.228,70.073 400.124,301.859 393.152,301.859 395.109,70.073 "
   id="polygon28" />
					<polygon
   style="fill:#e6e6e6"
   points="383.828,70.073 384.743,301.859 381.379,301.859 382.323,70.073 "
   id="polygon29" />
					<polygon
   style="fill:#e6e6e6"
   points="419.422,70.073 420.336,301.859 416.973,301.859 417.917,70.073 "
   id="polygon30" />
					<polygon
   style="fill:#e6e6e6"
   points="436.547,70.073 437.462,301.859 434.099,301.859 435.043,70.073 "
   id="polygon31" />
				</g>
			</g>
		</g>
	</g>
</g><g
   id="Shadow_1_"
   transform="matrix(0.39327951,0,0,0.39327951,1.3425467,-15.643206)">
	<ellipse
   id="_x3C_Path_x3E__161_"
   style="fill:#f5f5f5"
   cx="250"
   cy="416.23801"
   rx="193.88901"
   ry="11.323" />
</g><g
   id="Media_player"
   transform="matrix(0.39327951,0,0,0.39327951,1.3425467,-15.643206)">
	<g
   id="g49">
		
			<rect
   x="392.12601"
   y="296.108"
   transform="matrix(0.0757,-0.9971,0.9971,0.0757,72.9043,671.8661)"
   style="fill:#263238"
   width="13.465"
   height="1"
   id="rect35" />
		<polygon
   style="fill:#263238"
   points="398.412,309.078 396.129,339.116 383.508,339.116 383.508,338.116 395.202,338.116 397.415,309.002 "
   id="polygon35" />
		<polygon
   style="fill:#263238"
   points="409.435,117.897 392.885,335.616 175.166,335.616 191.716,117.897 "
   id="polygon36" />
		<polygon
   style="opacity:0.1;fill:#ffffff"
   points="380.863,117.897 275.175,335.616 250.213,335.616 355.902,117.897 "
   id="polygon37" />
		<polygon
   style="opacity:0.1;fill:#ffffff"
   points="350.858,117.897 245.169,335.616 220.208,335.616 325.897,117.897 "
   id="polygon38" />
		<polygon
   style="fill:#ffffff"
   points="396.243,291.444 395.91,295.823 178.191,295.823 178.523,291.444 "
   id="polygon39" />
		<polygon
   style="fill:#407bff"
   points="227.612,291.444 227.279,295.823 178.191,295.823 178.523,291.444 "
   id="polygon40" />
		<path
   style="fill:#407bff"
   d="m 227.11,298.045 v 0 c -0.904,0 -1.587,-0.74 -1.518,-1.643 l 0.421,-5.536 c 0.069,-0.904 0.865,-1.644 1.768,-1.644 v 0 c 0.904,0 1.587,0.74 1.519,1.644 l -0.421,5.536 c -0.069,0.904 -0.865,1.643 -1.769,1.643 z"
   id="path40-1" />
		<path
   style="fill:#ffffff"
   d="m 296.783,167.782 c -20.498,0 -38.374,16.621 -39.932,37.111 -1.558,20.498 13.792,37.111 34.29,37.111 20.498,0 38.374,-16.613 39.932,-37.111 1.558,-20.49 -13.792,-37.111 -34.29,-37.111 z m -5.293,69.637 c -17.968,0 -31.419,-14.558 -30.053,-32.526 1.366,-17.967 17.03,-32.525 34.998,-32.525 17.968,0 31.419,14.558 30.053,32.525 -1.366,17.968 -17.03,32.526 -34.998,32.526 z"
   id="path41-1" />
		<path
   style="fill:#ffffff"
   d="m 308.954,200.688 -19.863,-11.994 c -3,-1.812 -6.856,0.176 -7.122,3.67 l -1.823,23.988 c -0.284,3.731 3.692,6.284 6.967,4.473 l 21.686,-11.994 c 3.166,-1.752 3.252,-6.273 0.155,-8.143 z"
   id="path42" />
		<path
   style="fill:#ffffff"
   d="m 206.267,312.936 -9.848,-5.947 c -1.487,-0.898 -3.399,0.087 -3.531,1.82 l -0.904,11.893 c -0.141,1.85 1.831,3.115 3.454,2.217 l 10.752,-5.947 c 1.57,-0.867 1.612,-3.108 0.077,-4.036 z"
   id="path43" />
		<path
   style="fill:#ffffff"
   d="m 276.93,312.936 -9.848,-5.947 c -1.487,-0.898 -3.399,0.087 -3.531,1.82 l -0.904,11.893 c -0.141,1.85 1.83,3.115 3.454,2.217 l 10.752,-5.947 c 1.57,-0.867 1.613,-3.108 0.077,-4.036 z"
   id="path44" />
		<path
   style="fill:#ffffff"
   d="m 285.494,312.936 -9.848,-5.947 c -1.487,-0.898 -3.399,0.087 -3.531,1.82 l -0.904,11.893 c -0.141,1.85 1.831,3.115 3.454,2.217 l 10.752,-5.947 c 1.57,-0.867 1.612,-3.108 0.077,-4.036 z"
   id="path45" />
		<path
   style="fill:#ffffff"
   d="m 229.166,323.346 v 0 c -1.178,0 -2.068,-0.964 -1.978,-2.141 l 0.937,-12.322 c 0.089,-1.178 1.126,-2.141 2.304,-2.141 v 0 c 1.177,0 2.068,0.963 1.978,2.141 l -0.937,12.322 c -0.09,1.178 -1.127,2.141 -2.304,2.141 z"
   id="path46" />
		<path
   style="fill:#ffffff"
   d="m 236.951,323.346 v 0 c -1.178,0 -2.068,-0.964 -1.978,-2.141 l 0.937,-12.322 c 0.089,-1.178 1.126,-2.141 2.304,-2.141 v 0 c 1.177,0 2.068,0.963 1.978,2.141 l -0.937,12.322 c -0.09,1.178 -1.127,2.141 -2.304,2.141 z"
   id="path47" />
		<path
   style="fill:#ffffff"
   d="m 284.115,323.346 v 0 c -1.178,0 -2.068,-0.964 -1.978,-2.141 l 0.937,-12.322 c 0.09,-1.178 1.126,-2.141 2.304,-2.141 v 0 c 1.177,0 2.068,0.963 1.978,2.141 l -0.937,12.322 c -0.09,1.178 -1.127,2.141 -2.304,2.141 z"
   id="path48" />
		<path
   style="fill:#ffffff"
   d="M 376.712,322.49 H 354.05 c -1.794,0 -3.142,-1.459 -3.006,-3.252 l 0.641,-8.433 c 0.136,-1.793 1.706,-3.252 3.5,-3.252 h 22.662 c 1.794,0 3.142,1.459 3.006,3.252 l -0.641,8.433 c -0.136,1.793 -1.706,3.252 -3.5,3.252 z m -21.639,-13.45 c -0.974,0 -1.825,0.792 -1.899,1.765 l -0.641,8.433 c -0.074,0.973 0.657,1.764 1.63,1.764 h 22.662 c 0.974,0 1.825,-0.792 1.899,-1.764 l 0.641,-8.433 c 0.074,-0.973 -0.657,-1.765 -1.63,-1.765 z"
   id="path49" />
	</g>
</g><g
   id="Character_1_"
   transform="matrix(0.39327951,0,0,0.39327951,1.3425467,-15.643206)">
	<g
   id="g87">
		<g
   id="g51">
			<path
   style="fill:#407bff"
   d="m 177.98,92.02 c -13.333,3.485 -14.583,31.995 -27.167,27.006 -12.583,-4.989 -15.292,14.516 10.667,13.057 -4.708,7.125 9.214,13.042 25.13,4.695 0.493,6.667 19.798,11.556 17.953,-5.714 -1.845,-17.27 6.5,-29.717 -5.531,-33.902 -4.802,-8.785 -19.636,-6.251 -21.052,-5.142 z"
   id="path50" />
			<path
   style="opacity:0.5"
   d="m 177.98,92.02 c -13.333,3.485 -14.583,31.995 -27.167,27.006 -12.583,-4.989 -15.292,14.516 10.667,13.057 -4.708,7.125 9.214,13.042 25.13,4.695 0.493,6.667 19.798,11.556 17.953,-5.714 -1.845,-17.27 6.5,-29.717 -5.531,-33.902 -4.802,-8.785 -19.636,-6.251 -21.052,-5.142 z"
   id="path51" />
		</g>
		<path
   style="fill:#263238"
   d="m 158.141,416.228 c 7.739,0 8.761,-0.119 13.109,-0.266 3.723,-0.133 4.614,0.332 7.606,0.266 2.5,-0.053 2.407,-2.446 1.635,-5.199 -0.386,-1.382 -0.98,-4.305 -1.512,-6.539 l -11.337,-0.823 c -1.596,3.045 -5.195,7.389 -9.556,7.974 -4.161,0.558 -3.029,4.587 0.055,4.587 z"
   id="path52" />
		<path
   style="fill:#263238"
   d="m 165.089,390.205 c 5.593,-5.155 8.938,-10.383 11.409,-13.882 2.112,-3.004 2.521,-2.254 4.765,-5.214 1.487,-1.961 0.116,-4.739 -2.025,-5.354 -1.667,-0.479 -3.868,-0.783 -5.791,-1.724 l -7.721,5.694 c 1.411,3.641 -0.452,13.901 -4.433,18.117 -2.839,3.022 1.553,4.423 3.796,2.363 z"
   id="path53" />
		<g
   id="g55">
			<path
   style="fill:#407bff"
   d="m 139.144,202.674 c 0,0 -22.239,63.577 -25.116,86.85 -2.813,22.757 52.305,81.933 52.305,81.933 1.336,1.011 6.852,-5.854 7.167,-7.656 -13.691,-26.468 -22.215,-65.666 -35.976,-75.269 32.987,-48.891 37.579,-80.165 37.579,-80.165 z"
   id="path54" />
			<path
   style="opacity:0.6;fill:#ffffff"
   d="m 139.144,202.674 c 0,0 -22.239,63.577 -25.116,86.85 -2.813,22.757 52.305,81.933 52.305,81.933 1.336,1.011 6.852,-5.854 7.167,-7.656 -13.691,-26.468 -22.215,-65.666 -35.976,-75.269 32.987,-48.891 37.579,-80.165 37.579,-80.165 z"
   id="path55" />
		</g>
		<path
   style="opacity:0.3;fill:#407bff"
   d="m 154.773,225.04 c 0,0 -1.81,23.38 -2.28,39.28 4.35,-7.76 7.89,-14.84 10.75,-21.16 z"
   id="path56" />
		<path
   style="fill:#407bff"
   d="m 159.545,364.66 c 1.198,1.627 3.324,4.533 4.851,6.715 0.506,0.722 1.262,1.109 1.722,0.896 3.446,-1.598 7.561,-5.959 8.886,-7.425 0.262,-0.29 0.199,-0.875 -0.151,-1.456 l -3.773,-6.252 c -0.515,-0.853 -1.431,-1.344 -1.9,-1.019 l -9.829,6.802 c -0.401,0.278 -0.319,1.041 0.194,1.739 z"
   id="path57" />
		<g
   id="g59">
			<path
   style="fill:#407bff"
   d="m 149.927,204.382 c 0,0 8.274,64.027 13.016,94.839 4.98,32.36 5.612,84.285 4.367,105.446 1.813,1.053 8.382,0.32 11.952,-0.797 0,0 21.479,-69.411 5.705,-101.453 10.206,-74.875 -4.564,-93.211 -4.564,-93.211 z"
   id="path58" />
			<path
   style="opacity:0.6;fill:#ffffff"
   d="m 149.927,204.382 c 0,0 8.274,64.027 13.016,94.839 4.98,32.36 5.612,84.285 4.367,105.446 1.813,1.053 8.382,0.32 11.952,-0.797 0,0 21.479,-69.411 5.705,-101.453 10.206,-74.875 -4.564,-93.211 -4.564,-93.211 z"
   id="path59" />
		</g>
		<path
   style="fill:#407bff"
   d="m 166.831,395.709 c -0.225,1.888 -0.661,5.174 -1.226,7.659 -0.204,0.896 0.109,1.776 0.686,1.981 4.817,1.707 12.136,0.64 14.465,0.233 0.446,-0.078 0.828,-0.578 0.963,-1.244 l 1.444,-7.136 c 0.197,-0.976 -0.216,-1.911 -0.863,-1.956 l -14.301,-0.977 c -0.554,-0.039 -1.067,0.588 -1.168,1.44 z"
   id="path60" />
		<path
   style="fill:#ce7a63"
   d="m 160.275,150.436 0.146,0.612 0.102,0.479 0.167,0.902 c 0.103,0.592 0.183,1.167 0.248,1.745 0.125,1.151 0.201,2.29 0.216,3.431 0.034,2.278 -0.131,4.556 -0.511,6.811 -0.75,4.506 -2.366,8.934 -4.782,12.851 -1.208,1.956 -2.587,3.795 -4.118,5.465 -0.759,0.843 -1.574,1.621 -2.392,2.387 l -1.26,1.104 c -0.45,0.359 -0.938,0.705 -1.448,1.038 -2.035,1.289 -4.43,2.499 -7.417,2.843 -1.482,0.168 -3.109,0.062 -4.654,-0.46 -0.766,-0.273 -1.505,-0.631 -2.173,-1.098 -0.333,-0.237 -0.652,-0.49 -0.955,-0.775 -0.15,-0.147 -0.296,-0.298 -0.444,-0.464 l -0.544,-0.643 c -1.194,-1.254 -1.145,-3.238 0.108,-4.432 1.254,-1.194 3.238,-1.145 4.432,0.108 -0.107,-0.139 -0.051,-0.105 -0.053,-0.137 0.011,-0.016 0.032,-0.026 0.051,-0.036 0.042,-0.018 0.091,-0.033 0.141,-0.047 0.099,-0.023 0.202,-0.048 0.302,-0.08 0.202,-0.066 0.383,-0.132 0.559,-0.233 0.345,-0.176 0.669,-0.424 1.046,-0.703 0.746,-0.59 1.695,-1.44 2.637,-2.538 0.246,-0.255 0.473,-0.549 0.736,-0.828 l 0.83,-0.869 c 0.527,-0.597 1.055,-1.188 1.522,-1.818 0.959,-1.24 1.817,-2.531 2.528,-3.892 1.435,-2.713 2.345,-5.655 2.794,-8.714 0.203,-1.531 0.318,-3.089 0.285,-4.642 -0.014,-0.775 -0.044,-1.55 -0.118,-2.305 l -0.123,-1.105 -0.123,-0.829 -0.11,-0.738 c -0.511,-3.446 1.867,-6.653 5.313,-7.165 3.255,-0.483 6.304,1.637 7.062,4.775 z"
   id="path61" />
		<path
   style="fill:#407bff"
   d="m 144.514,155.833 c -0.767,4.037 -1.764,7.044 -2.735,16.816 -0.978,8.247 -1.692,16.401 -2.635,30.025 l 41.258,6.532 c 1.011,-11.754 4.462,-24.785 16.01,-49.763 2.678,-5.791 -0.231,-12.221 -6.249,-13.81 -1.608,-0.425 -3.32,-0.837 -5.086,-1.205 -6.865,-1.43 -12.502,-2.549 -18.735,-2.965 -2.066,-0.138 -4.216,-0.216 -6.279,-0.255 -7.441,-0.141 -14.174,7.391 -15.549,14.625 z"
   id="path62" />
		<path
   style="fill:#ce7a63"
   d="m 187.103,123.126 c -2.585,5.77 -6.336,16.498 -3.055,21.14 0,0 -5.574,-1.761 -18.883,3.817 -2.713,-5.59 0.148,-6.782 0.148,-6.782 7.096,-0.522 8.083,-5.478 8.003,-10.292 z"
   id="path63" />
		<path
   style="fill:#ffffff"
   d="m 167.952,146.977 c 3.903,1.2 4.198,7.429 4.198,7.429 0,0 10.664,-5.265 14.46,-9.567 -1.305,-0.971 -3.15,-2.778 -3.15,-2.778 0,0 -12.813,2.98 -15.508,4.916 z"
   id="path64" />
		<path
   style="fill:#ffffff"
   d="m 164.258,145.734 c 0,0 -3.597,0.383 -5.613,5.038 0.478,-8.937 4.821,-9.782 4.821,-9.782 0,0 1.394,-0.696 3.692,0.05 -3.43,1.168 -2.9,4.694 -2.9,4.694 z"
   id="path65" />
		<path
   style="opacity:0.2"
   d="m 181.481,126.343 -8.159,4.662 c 0.023,1.14 -0.02,2.285 -0.197,3.378 2.654,0.04 6.838,-2.187 7.737,-4.801 0.448,-1.305 0.692,-2.587 0.619,-3.239 z"
   id="path66" />
		<path
   style="fill:#ce7a63"
   d="m 194.165,111.842 c -3.37,9.444 -4.594,13.501 -10.887,17.291 -9.466,5.7 -20.356,0.168 -19.883,-9.929 0.426,-9.088 5.866,-23.005 16.404,-24.631 10.383,-1.603 17.736,7.825 14.366,17.269 z"
   id="path67" />
		<g
   id="g69">
			<path
   style="fill:#407bff"
   d="m 183.063,90.083 c -7.33,0 -18.064,6.75 -8.74,8.75 -0.093,3 5.388,3.25 9.439,1.833 -0.658,2.174 2.859,6.679 7.913,5.548 -2.946,1.452 -3.471,8.952 0,9.535 3.471,0.583 10.721,2.846 10.054,-9.535 -0.666,-12.381 -10.833,-16.131 -18.666,-16.131 z"
   id="path68" />
			<path
   style="opacity:0.5"
   d="m 183.063,90.083 c -7.33,0 -18.064,6.75 -8.74,8.75 -0.093,3 5.388,3.25 9.439,1.833 -0.658,2.174 2.859,6.679 7.913,5.548 -2.946,1.452 -3.471,8.952 0,9.535 3.471,0.583 10.721,2.846 10.054,-9.535 -0.666,-12.381 -10.833,-16.131 -18.666,-16.131 z"
   id="path69" />
		</g>
		<g
   id="g71">
			<path
   style="fill:#407bff"
   d="m 202.813,80.25 c -9.429,-5.882 -18.333,4 -16.58,9.5 l 13.105,6 c 7.192,0.25 11.613,-10.422 3.475,-15.5 z"
   id="path70" />
			<path
   style="opacity:0.5"
   d="m 202.813,80.25 c -9.429,-5.882 -18.333,4 -16.58,9.5 l 13.105,6 c 7.192,0.25 11.613,-10.422 3.475,-15.5 z"
   id="path71" />
		</g>
		<path
   style="fill:#407bff"
   d="m 190.105,92.5 c -3.571,-1.119 -7.537,-1.667 -4.977,-3.125 2.56,-1.458 8.386,-0.008 11.643,2.292 3.542,2.5 5.552,6.596 2.422,6.069 -3.13,-0.528 -1.427,-2.836 -9.088,-5.236 z"
   id="path72" />
		<path
   style="fill:#263238"
   d="m 181.478,111.496 c -0.249,0.805 -0.872,1.358 -1.394,1.236 -0.521,-0.122 -0.742,-0.874 -0.494,-1.679 0.249,-0.805 0.872,-1.358 1.394,-1.236 0.521,0.122 0.742,0.874 0.494,1.679 z"
   id="path73" />
		<path
   style="fill:#263238"
   d="m 171.403,108.801 c -0.249,0.805 -0.872,1.358 -1.394,1.236 -0.521,-0.122 -0.742,-0.874 -0.494,-1.679 0.249,-0.805 0.872,-1.358 1.394,-1.236 0.521,0.123 0.742,0.875 0.494,1.679 z"
   id="path74" />
		<path
   style="fill:#263238"
   d="m 171.126,107.221 -1.743,-1.007 c 0,0.001 0.516,1.741 1.743,1.007 z"
   id="path75" />
		<path
   style="fill:#ba4d3c"
   d="m 173.954,111.297 c 0,0 -2.423,3.147 -4.428,4.469 0.746,1.239 2.676,1.206 2.676,1.206 z"
   id="path76" />
		<path
   style="fill:#263238"
   d="m 175.868,121.023 c -0.436,-0.023 -0.894,-0.086 -1.373,-0.198 -0.129,-0.03 -0.201,-0.161 -0.161,-0.292 0.04,-0.13 0.174,-0.211 0.307,-0.181 3.496,0.823 5.895,-1.262 5.919,-1.283 0.104,-0.093 0.259,-0.09 0.345,0.007 0.087,0.097 0.072,0.251 -0.032,0.343 -0.092,0.082 -2.023,1.763 -5.005,1.604 z"
   id="path77" />
		<path
   style="fill:#ce7a63"
   d="m 195.067,120.476 c -1.652,1.69 -3.828,2.459 -5.639,2.449 -2.725,-0.015 -3.162,-2.823 -1.629,-5.163 1.38,-2.107 4.46,-4.637 6.822,-3.494 2.326,1.126 2.335,4.275 0.446,6.208 z"
   id="path78" />
		<path
   style="fill:#263238"
   d="m 184.534,106.803 c -0.127,-0.018 -0.243,-0.086 -0.316,-0.199 -1.135,-1.762 -2.938,-1.709 -2.959,-1.708 -0.267,0.009 -0.483,-0.197 -0.474,-0.465 0.009,-0.268 0.235,-0.493 0.506,-0.505 0.094,-0.003 2.357,-0.073 3.766,2.115 0.14,0.218 0.066,0.521 -0.165,0.677 -0.112,0.075 -0.24,0.102 -0.358,0.085 z"
   id="path79" />
		<path
   style="fill:#263238"
   d="m 168.878,102.527 c -0.122,-0.002 -0.239,-0.047 -0.326,-0.138 -0.179,-0.188 -0.159,-0.495 0.044,-0.686 2.036,-1.917 4.224,-1.504 4.317,-1.484 0.261,0.053 0.414,0.308 0.341,0.571 -0.072,0.262 -0.342,0.432 -0.603,0.381 -0.085,-0.017 -1.789,-0.313 -3.407,1.211 -0.104,0.098 -0.237,0.146 -0.366,0.145 z"
   id="path80" />
		<path
   style="fill:#263238"
   d="m 181.201,109.915 -1.743,-1.007 c 0,0.001 0.516,1.741 1.743,1.007 z"
   id="path81" />
		<path
   style="fill:#ce7a63"
   d="m 125.276,179.773 0.427,2.69 c 0.161,1.012 0.8,1.883 1.717,2.339 l 4.285,2.133 c 1.713,0.853 3.733,0.823 5.42,-0.08 l 1.045,-0.559 c -0.404,-4.51 -4.163,-9.085 -4.163,-9.085 l -0.927,-1.423 c -0.826,-1.267 -2.415,-1.642 -3.65,-0.86 l -2.844,1.8 c -0.981,0.621 -1.503,1.833 -1.31,3.045 z"
   id="path82" />
		<path
   style="fill:#263238"
   d="m 142.273,186.854 h -9.842 c -0.929,0 -1.843,-0.753 -2.042,-1.682 l -4.56,-21.303 c -0.199,-0.929 0.393,-1.682 1.322,-1.682 h 9.842 c 0.929,0 1.843,0.753 2.042,1.682 l 4.56,21.303 c 0.199,0.929 -0.393,1.682 -1.322,1.682 z"
   id="path83" />
		<path
   style="fill:#ce7a63"
   d="m 139.009,174.303 3.042,-0.676 c 1.144,-0.254 2.341,0.06 3.212,0.844 l 4.072,3.663 c 1.628,1.465 2.446,3.627 2.195,5.802 l -0.156,1.347 c -4.969,1.467 -11.42,-0.609 -11.42,-0.609 l -1.904,-0.388 c -1.696,-0.346 -2.763,-1.879 -2.45,-3.523 l 0.72,-3.784 c 0.248,-1.307 1.318,-2.372 2.689,-2.676 z"
   id="path84" />
		<path
   style="fill:#ce7a63"
   d="m 197.044,166.894 c -0.197,0.852 -0.367,1.528 -0.56,2.269 -0.19,0.723 -0.403,1.435 -0.615,2.143 -0.423,1.419 -0.876,2.822 -1.349,4.221 -0.967,2.788 -2.05,5.542 -3.277,8.251 -1.21,2.716 -2.603,5.382 -4.129,7.998 -1.529,2.621 -3.3,5.156 -5.25,7.605 l -0.149,0.187 c -0.201,0.252 -0.442,0.496 -0.679,0.697 -1.552,1.3 -3.435,1.931 -4.904,2.098 -1.509,0.192 -2.752,0.068 -3.839,-0.127 -2.169,-0.409 -3.862,-1.089 -5.449,-1.807 -3.147,-1.451 -5.787,-3.205 -8.347,-5.002 -2.533,-1.827 -4.922,-3.749 -7.218,-5.757 -1.149,-1.002 -2.258,-2.046 -3.363,-3.088 -1.112,-1.047 -2.173,-2.094 -3.254,-3.24 -1.195,-1.268 -1.136,-3.265 0.132,-4.46 1.069,-1.007 2.655,-1.123 3.843,-0.376 l 0.067,0.043 c 2.414,1.519 4.891,3.114 7.374,4.569 2.475,1.483 4.956,2.922 7.443,4.219 2.465,1.309 4.991,2.479 7.318,3.274 1.148,0.395 2.281,0.658 3.039,0.689 0.373,0.021 0.623,-0.034 0.578,-0.061 -0.006,-0.03 -0.467,0.028 -0.885,0.372 l -0.828,0.883 c 1.361,-2.066 2.619,-4.249 3.786,-6.538 1.131,-2.312 2.212,-4.675 3.188,-7.114 0.962,-2.443 1.884,-4.92 2.725,-7.431 0.427,-1.253 0.837,-2.513 1.217,-3.776 l 0.557,-1.889 0.515,-1.791 0.068,-0.237 c 0.965,-3.358 4.47,-5.297 7.828,-4.332 3.247,0.934 5.163,4.256 4.417,7.508 z"
   id="path85" />
		<path
   style="fill:#407bff"
   d="m 193.352,147.106 c 7.041,4.977 7.374,12.419 3.572,26.673 -5.085,2.548 -17.445,-0.677 -17.445,-0.677 0,0 3.897,-22.124 13.873,-25.996 z"
   id="path86" />
		<path
   style="fill:#407bff"
   d="m 157.551,141.544 c -8.598,0.653 -12.708,6.866 -16.77,21.048 3.053,4.798 15.315,8.382 15.315,8.382 0,0 8.024,-20.981 1.455,-29.43 z"
   id="path87" />
	</g>
</g></svg>
