<svg version="1.2" xmlns="http://www.w3.org/2000/svg" viewBox="0 0 1000 1000" width="1000" height="1000">
	<title>10692798</title>
	<style>
		.s0 { fill: #e0e0e0 } 
		.s1 { fill: #f5f5f5 } 
		.s2 { fill: #ffffff } 
		.s3 { fill: #f0f0f0 } 
		.s4 { fill: #ebebeb } 
		.s5 { fill: #407bff } 
		.s6 { opacity: .5;fill: #ffffff } 
		.s7 { opacity: .2;fill: #000000 } 
		.s8 { fill: #ffffff;stroke: #263238;stroke-miterlimit:10;stroke-width: 2 } 
		.s9 { fill: #263238 } 
		.s10 { fill: none;stroke: #407bff;stroke-linejoin: round;stroke-width: 1.5 } 
		.s11 { fill: #000000 } 
		.s12 { fill: none;stroke: #263238;stroke-miterlimit:10;stroke-width: 2 } 
		.s13 { opacity: .7;fill: #ffffff } 
		.s14 { opacity: .2;fill: #ffffff } 
		.s15 { fill: #fdbbb5 } 
		.s16 { fill: #ff3f3e } 
		.s17 { fill: #ffbcb4 } 
		.s18 { opacity: .4;fill: #ffffff } 
		.s19 { fill: #ffad4e } 
		.s20 { opacity: .2;fill: #263238 } 
		.s21 { fill: #ff7200 } 
		.s22 { opacity: .2;fill: none;stroke: #000000;stroke-linecap: round;stroke-linejoin: round;stroke-width: 1.5 } 
		.s23 { opacity: .3;fill: #ffffff } 
		.s24 { opacity: .3;fill: #000000 } 
	</style>
	<g id="Background complete">
		<g id="&lt;Group&gt;">
			<g id="&lt;Group&gt;">
				<g id="&lt;Group&gt;">
					<g id="&lt;Group&gt;">
						<path id="&lt;Compound Path&gt;" fill-rule="evenodd" class="s0" d="m887.8 722.8h-361.5c-6.4 0-11.7-5.8-11.7-13v-586.3c0-7.2 5.3-13.1 11.7-13.1h361.5c6.5 0 11.8 5.9 11.8 13.1v586.3c0 7.2-5.3 13-11.8 13zm-361.5-611.8c-6.1 0-11.2 5.6-11.2 12.5v586.3c0 6.8 5.1 12.5 11.2 12.5h361.5c6.2 0 11.3-5.7 11.3-12.5v-586.3c0-6.9-5.1-12.5-11.3-12.5z"/>
					</g>
				</g>
				<g id="&lt;Group&gt;">
					<g id="&lt;Group&gt;">
						<path id="&lt;Compound Path&gt;" fill-rule="evenodd" class="s0" d="m471 722.8h-361.5c-6.5 0-11.7-5.8-11.7-13v-586.3c0-7.2 5.2-13.1 11.7-13.1h361.5c6.5 0 11.7 5.9 11.7 13.1v586.3c0 7.2-5.2 13-11.7 13zm-361.5-611.8c-6.2 0-11.2 5.6-11.2 12.5v586.3c0 6.8 5 12.5 11.2 12.5h361.5c6.2 0 11.2-5.7 11.2-12.5v-586.3c0-6.9-5-12.5-11.2-12.5z"/>
					</g>
				</g>
			</g>
			<g id="&lt;Group&gt;">
				<g id="&lt;Group&gt;">
					<g id="&lt;Group&gt;">
						<path id="&lt;Path&gt;" class="s0" d="m1000 778.8h-1000v-0.5h1000z"/>
					</g>
				</g>
				<path id="&lt;Path&gt;" class="s0" d="m103.3 806.8h32.2v0.5h-32.2z"/>
				<path id="&lt;Path&gt;" class="s0" d="m340.7 801.4h107.1v0.5h-107.1z"/>
				<path id="&lt;Path&gt;" class="s0" d="m137.5 825.4h72.5v0.5h-72.5z"/>
				<path id="&lt;Path&gt;" class="s0" d="m756.7 801.1h86.4v0.5h-86.4z"/>
				<path id="&lt;Path&gt;" class="s0" d="m860.9 801.1h12.7v0.5h-12.7z"/>
				<path id="&lt;Path&gt;" class="s0" d="m632.4 813.6h107.8v0.5h-107.8z"/>
			</g>
		</g>
		<g id="&lt;Group&gt;">
			<g id="&lt;Group&gt;">
				<path id="&lt;Path&gt;" class="s0" d="m899.2 170.2v199.7h-157.2v-199.7z"/>
				<path id="&lt;Path&gt;" class="s1" d="m745.6 173.8h150.1v192.5h-150.1z"/>
				<path id="&lt;Path&gt;" class="s2" d="m857 264c-5.8 6.5-7.3-6.3-7.3-6.3l-16.6-28.2-3.6 29 12.5 89.8c0 0 11.5 3.4 12.2 5.4 0.8 2-19.7 2.4-21.8 0-2.1-2.4 2.2-5.4 2.2-5.4l-15.7-74.3-0.3 1.2-15.5 73.1c0 0 4.4 2.9 2.2 5.4-2.2 2.5-22.6 1.8-21.9 0 0.8-1.8 12.2-5.4 12.2-5.4l12.5-89.8-3.5-29-16.7 28.2c0 0-1.4 12.8-7.2 6.4-5.9-6.5 4.3-12.3 4.3-12.3l18.1-31.3 10-3.5 2.2-2.8c0 0-12.8-22.9 3.3-23.4h0.5c16.1 0.5 3.3 23.4 3.3 23.4l2.2 2.8 10 3.5 18.1 31.3c0 0 10.1 5.8 4.3 12.2z"/>
				<path id="&lt;Path&gt;" class="s0" d="m818.6 190.8v84.4l-15.5 73.1c0 0 4.4 2.9 2.2 5.4-2.2 2.5-22.6 1.8-21.9 0 0.8-1.8 12.2-5.4 12.2-5.4l12.5-89.8-3.5-29-16.7 28.2c0 0-1.4 12.8-7.2 6.4-5.9-6.5 4.3-12.3 4.3-12.3l18.1-31.3 10-3.5 2.2-2.8c0 0-12.9-22.9 3.3-23.4z"/>
				<path id="&lt;Path&gt;" class="s0" d="m851.7 196.2h20.8v8.1h-20.8z"/>
				<path id="&lt;Path&gt;" class="s0" d="m858.8 232.6h20.7v8.1h-20.7z"/>
				<path id="&lt;Path&gt;" class="s0" d="m760.1 270.8h20.8v8.1h-20.8z"/>
				<path id="&lt;Path&gt;" class="s0" d="m768.5 195.9h20.7v8.1h-20.7z"/>
				<path id="&lt;Path&gt;" class="s0" d="m851.7 284.2h20.8v8.1h-20.8z"/>
				<path id="&lt;Path&gt;" class="s0" d="m765.8 315.2h20.8v8.1h-20.8z"/>
				<path id="&lt;Path&gt;" class="s0" d="m862.1 323.3h20.8v8.1h-20.8z"/>
			</g>
		</g>
		<g id="&lt;Group&gt;">
			<path id="&lt;Path&gt;" class="s3" d="m58.7 350h62.2c1.6 0 2.9-1.6 2.9-3.5v-15.1c0-1.9-1.3-3.5-2.9-3.5h-62.2c-1.6 0-2.9 1.6-2.9 3.5v15.1c0 1.9 1.3 3.5 2.9 3.5z"/>
			<path id="&lt;Path&gt;" class="s3" d="m58.7 405h62.2c1.6 0 2.9-1.6 2.9-3.6v-15c0-2-1.3-3.6-2.9-3.6h-62.2c-1.6 0-2.9 1.6-2.9 3.6v15c0 2 1.3 3.6 2.9 3.6z"/>
			<path id="&lt;Path&gt;" class="s3" d="m37.9 377.5h62.2c1.6 0 2.9-1.6 2.9-3.6v-15c0-2-1.3-3.6-2.9-3.6h-62.2c-1.6 0-2.9 1.6-2.9 3.6v15c0 2 1.3 3.6 2.9 3.6z"/>
			<path id="&lt;Path&gt;" class="s4" d="m109.1 377.5h62.2c1.6 0 2.9-1.6 2.9-3.6v-15c0-2-1.3-3.6-2.9-3.6h-62.2c-1.6 0-2.9 1.6-2.9 3.6v15c0 2 1.3 3.6 2.9 3.6z"/>
		</g>
		<g id="&lt;Group&gt;">
			<path id="&lt;Path&gt;" class="s3" d="m582.7 723.6h62.1c1.6 0 2.9-1.6 2.9-3.6v-15c0-2-1.3-3.6-2.9-3.6h-62.1c-1.7 0-3 1.6-3 3.6v15c0 2 1.3 3.6 3 3.6z"/>
			<path id="&lt;Path&gt;" class="s3" d="m582.7 778.5h62.1c1.6 0 2.9-1.5 2.9-3.5v-15c0-2-1.3-3.6-2.9-3.6h-62.1c-1.7 0-3 1.6-3 3.6v15c0 2 1.3 3.5 3 3.5z"/>
			<path id="&lt;Path&gt;" class="s3" d="m561.9 751.1h62.1c1.6 0 2.9-1.6 2.9-3.6v-15c0-2-1.3-3.6-2.9-3.6h-62.1c-1.6 0-3 1.6-3 3.6v15c0 2 1.4 3.6 3 3.6z"/>
			<path id="&lt;Path&gt;" class="s4" d="m633.1 751.1h62.1c1.6 0 2.9-1.6 2.9-3.6v-15c0-2-1.3-3.6-2.9-3.6h-62.1c-1.7 0-3 1.6-3 3.6v15c0 2 1.3 3.6 3 3.6z"/>
		</g>
		<g id="&lt;Group&gt;">
			<path id="&lt;Path&gt;" class="s3" d="m603.4 340.2h62.1c1.7 0 3-1.6 3-3.5v-15.1c0-1.9-1.3-3.5-3-3.5h-62.1c-1.6 0-2.9 1.6-2.9 3.5v15.1c0 1.9 1.3 3.5 2.9 3.5z"/>
			<path id="&lt;Path&gt;" class="s3" d="m582.6 312.7h62.2c1.6 0 2.9-1.5 2.9-3.5v-15c0-2-1.3-3.6-2.9-3.6h-62.2c-1.6 0-2.9 1.6-2.9 3.6v15c0 2 1.3 3.5 2.9 3.5z"/>
		</g>
		<g id="&lt;Group&gt;">
			<path id="&lt;Path&gt;" class="s3" d="m755.6 134.5h62.1c1.6 0 2.9-1.6 2.9-3.6v-15c0-2-1.3-3.6-2.9-3.6h-62.1c-1.7 0-3 1.6-3 3.6v15c0 2 1.3 3.6 3 3.6z"/>
			<path id="&lt;Path&gt;" class="s3" d="m734.8 107h62.1c1.6 0 2.9-1.6 2.9-3.6v-15c0-2-1.3-3.6-2.9-3.6h-62.1c-1.7 0-3 1.6-3 3.6v15c0 2 1.3 3.6 3 3.6z"/>
		</g>
		<g id="&lt;Group&gt;">
			<path id="&lt;Path&gt;" class="s3" d="m239.4 124.2h62.1c1.6 0 2.9-1.6 2.9-3.6v-15c0-2-1.3-3.6-2.9-3.6h-62.1c-1.6 0-3 1.6-3 3.6v15c0 2 1.4 3.6 3 3.6z"/>
			<path id="&lt;Path&gt;" class="s3" d="m218.6 96.7h62.1c1.6 0 3-1.6 3-3.6v-15c0-2-1.4-3.6-3-3.6h-62.1c-1.6 0-2.9 1.6-2.9 3.6v15c0 2 1.3 3.6 2.9 3.6z"/>
		</g>
		<g id="&lt;Group&gt;">
			<path id="&lt;Path&gt;" class="s3" d="m86.8 732.3h62.2c1.6 0 2.9-1.6 2.9-3.6v-15c0-2-1.3-3.6-2.9-3.6h-62.2c-1.6 0-2.9 1.6-2.9 3.6v15c0 2 1.3 3.6 2.9 3.6z"/>
			<path id="&lt;Path&gt;" class="s3" d="m864.6 558.1h62.1c1.6 0 3-1.6 3-3.6v-15c0-2-1.4-3.6-3-3.6h-62.1c-1.6 0-2.9 1.6-2.9 3.6v15c0 2 1.3 3.6 2.9 3.6z"/>
			<path id="&lt;Path&gt;" class="s3" d="m66 704.8h62.2c1.6 0 2.9-1.6 2.9-3.6v-15c0-2-1.3-3.6-2.9-3.6h-62.2c-1.6 0-2.9 1.6-2.9 3.6v15c0 2 1.3 3.6 2.9 3.6z"/>
		</g>
	</g>
	<g id="Shadow">
		<g id="&lt;Group&gt;">
			<g id="&lt;Group&gt;">
				<path id="&lt;Path&gt;" class="s1" d="m929.7 953c0 14.7-192.4 26.6-429.7 26.6-237.3 0-429.7-11.9-429.7-26.6 0-14.7 192.4-26.6 429.7-26.6 237.3 0 429.7 11.9 429.7 26.6z"/>
			</g>
		</g>
	</g>
	<g id="Clipboard">
		<g id="&lt;Group&gt;">
			<g id="&lt;Group&gt;">
				<path id="&lt;Path&gt;" class="s5" d="m500.8 670.6h-376.3c-7.4 0-13.5-6.1-13.5-13.5v-520.3c0-7.4 6.1-13.5 13.5-13.5h376.3c7.5 0 13.5 6.1 13.5 13.5v520.3c0 7.4-6 13.5-13.5 13.5z"/>
				<path id="&lt;Path&gt;" class="s6" d="m500.8 670.6h-376.3c-7.4 0-13.5-6.1-13.5-13.5v-520.3c0-7.4 6.1-13.5 13.5-13.5h376.3c7.5 0 13.5 6.1 13.5 13.5v520.3c0 7.4-6 13.5-13.5 13.5z"/>
				<g id="&lt;Group&gt;">
					<path id="&lt;Path&gt;" class="s4" d="m142.6 138.3h-17.8v518.4l372.9 2.9 10.3-11.9-9-489z"/>
					<path id="&lt;Path&gt;" class="s0" d="m508 647.7h-368.7v-509.4h-14.5v521.3h372.9z"/>
					<path id="&lt;Path&gt;" class="s7" d="m124.8 659.6l14.5-11.9h368.7l-10.3 11.9z"/>
					<path id="&lt;Path&gt;" class="s8" d="m539.8 631h-364.4c-35.5-82-41.7-290.4-36.1-492.7h361.7c-2.9 202.2 4.2 383.7 38.8 492.7z"/>
				</g>
				<path id="&lt;Path&gt;" class="s7" d="m247.9 123.3v39.6l132.8 0.7-0.2-7.3-63.7-34.9z"/>
				<path id="&lt;Path&gt;" class="s9" d="m387 156.3h-131.2v-26.1c0-8.4 6.8-15.2 15.2-15.2h100.8c8.4 0 15.2 6.8 15.2 15.2z"/>
				<path id="&lt;Path&gt;" class="s9" d="m297.1 118.2l-5-16c-0.3-1.2 0.6-2.4 1.8-2.4h58.7c1.3 0 2.2 1.2 1.7 2.4l-5.8 16.8c-0.3 0.8-1 1.3-1.8 1.2l-47.8-0.7c-0.8 0-1.5-0.5-1.8-1.3z"/>
				<path id="&lt;Path&gt;" class="s10" d="m155.3 115.6q46.3 0 92.6 0"/>
				<path id="&lt;Path&gt;" class="s10" d="m150 115.6h-14.4"/>
			</g>
			<g id="&lt;Group&gt;">
				<g id="&lt;Group&gt;">
					<path id="&lt;Path&gt;" class="s9" d="m183.5 298.7q55 0 109.9 0 54.9 0 109.8 0 31 0 62 0c1.9 0 1.9-3 0-3q-55 0-109.9 0-54.9 0-109.8 0-31 0-62 0c-1.9 0-1.9 3 0 3z"/>
				</g>
			</g>
			<g id="&lt;Group&gt;">
				<g id="&lt;Group&gt;">
					<path id="&lt;Path&gt;" class="s9" d="m183.5 323.7q55 0 109.9 0 54.9 0 109.8 0 31 0 62 0c1.9 0 1.9-3 0-3q-55 0-109.9 0-54.9 0-109.8 0-31 0-62 0c-1.9 0-1.9 3 0 3z"/>
				</g>
			</g>
			<g id="&lt;Group&gt;">
				<g id="&lt;Group&gt;">
					<path id="&lt;Path&gt;" class="s9" d="m183.5 348.8q55 0 109.9 0 54.9 0 109.8 0 31 0 62 0c1.9 0 1.9-3 0-3q-55 0-109.9 0-54.9 0-109.8 0-31 0-62 0c-1.9 0-1.9 3 0 3z"/>
				</g>
			</g>
			<g id="&lt;Group&gt;">
				<g id="&lt;Group&gt;">
					<path id="&lt;Path&gt;" class="s9" d="m183.5 375.7q55 0 109.9 0 54.9 0 109.8 0 31 0 62 0c1.9 0 1.9-3 0-3q-55 0-109.9 0-54.9 0-109.8 0-31 0-62 0c-1.9 0-1.9 3 0 3z"/>
				</g>
			</g>
			<g id="&lt;Group&gt;">
				<g id="&lt;Group&gt;">
					<path id="&lt;Path&gt;" class="s9" d="m195.7 442q55 0 109.9 0 54.9 0 109.8 0 31 0 61.9 0c2 0 2-3 0-3q-54.9 0-109.8 0-54.9 0-109.9 0-30.9 0-61.9 0c-1.9 0-1.9 3 0 3z"/>
				</g>
			</g>
			<g id="&lt;Group&gt;">
				<g id="&lt;Group&gt;">
					<path id="&lt;Path&gt;" class="s9" d="m203 493.3q55 0 109.9 0 54.9 0 109.8 0 31 0 62 0c1.9 0 1.9-3 0-3q-55 0-109.9 0-54.9 0-109.8 0-31 0-62 0c-1.9 0-1.9 3 0 3z"/>
				</g>
			</g>
			<g id="&lt;Group&gt;">
				<g id="&lt;Group&gt;">
					<path id="&lt;Path&gt;" class="s9" d="m197.8 468.9q55 0 109.9 0 54.9 0 109.8 0 31 0 61.9 0c2 0 2-3 0-3q-54.9 0-109.8 0-54.9 0-109.9 0-30.9 0-61.9 0c-1.9 0-1.9 3 0 3z"/>
				</g>
			</g>
			<g id="&lt;Group&gt;">
				<g id="&lt;Group&gt;">
					<path id="&lt;Path&gt;" class="s9" d="m312.7 414.6q-20.5 0-41 0-32.4 0-64.7 0-7.5 0-15 0 0.7 0.8 1.5 1.5 0-10.3 0-20.7-0.8 0.7-1.5 1.5 20.4 0 40.9 0 32.4 0 64.8 0 7.5 0 15 0-0.8-0.8-1.5-1.5 0 10.4 0 20.7c0 2 3 2 3 0q0-10.3 0-20.7c0-0.8-0.7-1.5-1.5-1.5q-20.5 0-41 0-32.4 0-64.7 0-7.5 0-15 0c-0.8 0-1.5 0.7-1.5 1.5q0 10.4 0 20.7c0 0.8 0.7 1.5 1.5 1.5q20.4 0 40.9 0 32.4 0 64.8 0 7.5 0 15 0c1.9 0 1.9-3 0-3z"/>
				</g>
			</g>
			<g id="&lt;Group&gt;">
				<g id="&lt;Group&gt;">
					<path id="&lt;Path&gt;" class="s9" d="m281.7 527.1q-34.1 0-68.2 0-4.9 0-9.8 0 0.7 0.8 1.5 1.5 0-10.3 0-20.7-0.8 0.7-1.5 1.5 34.1 0 68.2 0 4.9 0 9.8 0-0.7-0.8-1.5-1.5 0 10.4 0 20.7c0 2 3 2 3 0q0-10.3 0-20.7c0-0.8-0.7-1.5-1.5-1.5q-34.1 0-68.2 0-4.9 0-9.8 0c-0.8 0-1.5 0.7-1.5 1.5q0 10.4 0 20.7c0 0.8 0.7 1.5 1.5 1.5q34.1 0 68.2 0 4.9 0 9.8 0c1.9 0 2-3 0-3z"/>
				</g>
			</g>
			<g id="&lt;Group&gt;">
				<g id="&lt;Group&gt;">
					<path id="&lt;Path&gt;" class="s9" d="m376.1 527.1q-34.1 0-68.3 0-4.9 0-9.7 0 0.7 0.8 1.5 1.5 0-10.3 0-20.7-0.8 0.7-1.5 1.5 34.1 0 68.2 0 4.9 0 9.8 0-0.8-0.8-1.5-1.5 0 10.4 0 20.7c0 2 3 2 3 0q0-10.3 0-20.7c0-0.8-0.7-1.5-1.5-1.5q-34.1 0-68.3 0-4.9 0-9.7 0c-0.9 0-1.5 0.7-1.5 1.5q0 10.4 0 20.7c0 0.8 0.6 1.5 1.5 1.5q34.1 0 68.2 0 4.9 0 9.8 0c1.9 0 1.9-3 0-3z"/>
				</g>
			</g>
			<g id="&lt;Group&gt;">
				<g id="&lt;Group&gt;">
					<path id="&lt;Path&gt;" class="s9" d="m484.7 527.1q-15.9 0-31.7 0-25.2 0-50.4 0-5.8 0-11.6 0 0.7 0.8 1.5 1.5 0-10.3 0-20.7-0.8 0.7-1.5 1.5 15.8 0 31.6 0 25.2 0 50.5 0 5.8 0 11.6 0-0.8-0.8-1.5-1.5 0 10.4 0 20.7c0 2 3 2 3 0q0-10.3 0-20.7c0-0.8-0.7-1.5-1.5-1.5q-15.9 0-31.7 0-25.2 0-50.4 0-5.8 0-11.6 0c-0.8 0-1.5 0.7-1.5 1.5q0 10.4 0 20.7c0 0.8 0.7 1.5 1.5 1.5q15.8 0 31.6 0 25.2 0 50.5 0 5.8 0 11.6 0c1.9 0 1.9-3 0-3z"/>
				</g>
			</g>
			<g id="&lt;Group&gt;">
				<g id="&lt;Group&gt;">
					<path id="&lt;Path&gt;" class="s9" d="m469.9 414.6q-24.3 0-48.6 0-38.3 0-76.7 0-8.8 0-17.6 0 0.8 0.8 1.5 1.5 0-10.3 0-20.7-0.7 0.7-1.5 1.5 24.3 0 48.6 0 38.4 0 76.8 0 8.7 0 17.5 0-0.7-0.8-1.5-1.5 0 10.4 0 20.7c0 2 3 2 3 0q0-10.3 0-20.7c0-0.8-0.7-1.5-1.5-1.5q-24.3 0-48.6 0-38.3 0-76.7 0-8.8 0-17.6 0c-0.8 0-1.5 0.7-1.5 1.5q0 10.4 0 20.7c0 0.8 0.7 1.5 1.5 1.5q24.3 0 48.6 0 38.4 0 76.8 0 8.7 0 17.5 0c2 0 2-3 0-3z"/>
				</g>
			</g>
			<g id="&lt;Group&gt;">
				<g id="&lt;Group&gt;">
					<path id="&lt;Path&gt;" class="s9" d="m465.2 280.3q-14.2 0-28.3 0-33.7 0-67.4 0-40.7 0-81.4 0-35.2 0-70.3 0-11.7 0-23.4 0-3.6 0-7.2 0c-1.2 0-2.7-0.2-3.8 0-0.2 0-0.4 0-0.5 0q0.7 0.8 1.5 1.5 0-10.4 0-20.7-0.8 0.7-1.5 1.5 14.1 0 28.3 0 33.6 0 67.3 0 40.7 0 81.4 0 35.2 0 70.4 0 11.7 0 23.3 0 3.6 0 7.2 0c1.2 0 2.7 0.2 3.9 0 0.1-0.1 0.3 0 0.5 0q-0.8-0.8-1.5-1.5 0 10.3 0 20.7c0 1.9 3 1.9 3 0q0-10.4 0-20.7c0-0.9-0.7-1.5-1.5-1.5q-14.2 0-28.3 0-33.7 0-67.4 0-40.7 0-81.4 0-35.2 0-70.3 0-11.7 0-23.4 0c-3.7 0-7.4-0.3-11 0q-0.3 0-0.5 0c-0.8 0-1.5 0.6-1.5 1.5q0 10.3 0 20.7c0 0.8 0.7 1.5 1.5 1.5q14.1 0 28.3 0 33.6 0 67.3 0 40.7 0 81.4 0 35.2 0 70.4 0 11.7 0 23.3 0c3.7 0 7.4 0.2 11.1 0q0.2 0 0.5 0c1.9 0 1.9-3 0-3z"/>
				</g>
			</g>
			<g id="&lt;Group&gt;">
				<g id="&lt;Group&gt;">
					<path id="&lt;Path&gt;" class="s5" d="m207.5 596.6c8.6-5.1 16.2-11.8 22.1-19.8 2.5-3.4 4.9-7.7 4.1-12-0.6-3.7-3.7-6.1-7.4-6.3-7.9-0.4-13.3 7.1-13.9 14.2-0.8 7.5 2.8 15.3 9.1 19.5 7.4 5 17.4 5 25.5 1.7 8.5-3.5 15-10.6 19.5-18.5 2.1-3.6 4.8-8.2 5-12.4 0.1-3.6-2.5-6.4-6.1-5.7-8.1 1.4-12.7 12-12.2 19.3 0.6 9.2 8.1 16.8 17.2 18.1 9.5 1.3 18.7-5.2 21.4-14.2 0.6-1.9-2.3-2.7-2.9-0.8-2 6.6-8.1 11.7-15 12.1-6.8 0.5-13.5-3.7-16.3-9.9-2.9-6.2-1.1-14.1 3.7-18.9 1.2-1.1 2.6-2.3 4.2-2.7 3-0.8 3.2 2.2 2.7 4.2-0.8 3.4-2.7 6.8-4.5 9.8-7.1 12.3-20.9 22.6-35.8 17.7-6.3-2.1-10.9-7.2-12.2-13.7-1.2-5.6 0.3-12.8 5.8-15.7 3.4-1.7 8.8-1.6 9.3 3.2 0.5 4.2-2.8 8.3-5.3 11.5-5.4 6.7-12.1 12.3-19.6 16.7-1.6 1-0.1 3.6 1.6 2.6z"/>
				</g>
			</g>
			<g id="&lt;Group&gt;">
				<g id="&lt;Group&gt;">
					<path id="&lt;Path&gt;" class="s9" d="m424 585.4c-2.9-11.1-12.6-24.6-6-36.2 2.7-4.8 8.9-8.1 14-4.8 6.6 4.2 2.4 12.4-2 16.4-1.1 1.1 0.1 2.9 1.5 2.6 7.7-1.8 16.4 4.7 16.2 12.8-0.2 8.1-8.9 14.3-16.6 12.3q0.4 1.1 0.9 2.2c4.7-6.5 12.6-9.4 19.5-13.1 5.2-2.8 10.9-6.2 14.6-11 1.3-1.7 2.4-3.8 2-6.1-0.4-2.4-2.1-3.7-4.6-3.1-4.8 1.1-4.6 7.4-4.1 11.2 0.7 5.6 2.4 11.4 7 15.1 5.1 3.9 11 4 16 0.2 3.8-2.9 8.6-7.8 8.1-13-0.4-5.1-7.2-6.9-9.9-2.5-3.5 5.6 3.8 12.5 8.1 15.1 6.1 3.7 14.2 1.2 17.1-5.4 0.8-1.7-1.8-3.2-2.6-1.5-2 4.7-7.6 7.2-12.3 4.7-3.3-1.7-8.5-5.9-8.1-10.2 0.2-2.1 3.1-3.2 4.4-1.2 1 1.6 0 3.7-0.8 5.2-1.8 3.3-5.2 6.7-8.8 8.2-4.9 2-10.6-1.9-12.8-6.1-1.7-3.3-2.5-7.6-2.6-11.3-0.1-1.5-0.1-3.5 0.8-4.7 0.4-0.6 0.9-0.9 1.5-0.9 0.6 0 0.6 0.2 0.4 0 0.3 0.4 0.3 1 0.3 1.4-0.3 3.8-5.6 7.2-8.3 9.1-9.1 6.2-20.8 9.2-27.5 18.4-0.6 0.8 0 2 0.9 2.2 9.5 2.4 20.3-5.1 20.4-15.2 0.2-10.1-10.4-17.9-20-15.7q0.7 1.2 1.5 2.5c4.9-4.7 8.9-12.7 3.9-18.9-4.1-5-11.5-5-16.5-1.2-5.4 4.2-7.2 11.1-6.5 17.7 0.8 9.1 5.7 17 8.1 25.6 0.5 1.9 3.4 1.1 2.8-0.8z"/>
				</g>
			</g>
			<g id="&lt;Group&gt;">
				<g id="&lt;Group&gt;">
					<path id="&lt;Path&gt;" class="s11" d="m299.3 114.4q25.5 0 51 0c1.9 0 1.9-3 0-3q-25.5 0-51 0c-1.9 0-1.9 3 0 3z"/>
				</g>
			</g>
			<g id="&lt;Group&gt;">
				<path id="&lt;Path&gt;" class="s5" d="m252.2 212c0 19.1-15.5 34.7-34.6 34.7-19.2 0-34.7-15.6-34.7-34.7 0-19.2 15.5-34.7 34.7-34.7 19.1 0 34.6 15.5 34.6 34.7z"/>
				<path id="&lt;Path&gt;" class="s2" d="m224.4 232.5h-13.7v-40h13.7z"/>
				<path id="&lt;Path&gt;" class="s2" d="m237.5 205.7v13.6h-39.9v-13.6z"/>
			</g>
			<path id="&lt;Path&gt;" class="s5" d="m439.1 224.3h-162.7v-20.8h162.7z"/>
		</g>
	</g>
	<g id="Plant">
		<g id="&lt;Group&gt;">
			<g id="&lt;Group&gt;">
				<path id="&lt;Path&gt;" class="s5" d="m156 839.7c-6.3-0.4-12.2-3.4-16.9-7.7-4.6-4.2-8-9.6-10.9-15.3-7.5-14.9-11.2-31.7-10.5-48.4 0.2-3.6 0.6-7.2 2.1-10.5 1.5-3.2 4.4-6 8-6.5 5.3-0.8 9.9 3.5 13.3 7.6 15.2 18.9 23.1 43.6 21.5 67.9-0.4 5.9-2.4 11.6-6.6 12.9z"/>
			</g>
			<g id="&lt;Group&gt;">
				<path id="&lt;Path&gt;" class="s5" d="m184.1 806.9c-5.2-10.8-5.6-23.5-2.2-34.9 3.5-11.4 10.5-21.5 19.2-29.7 9.5-8.9 21.7-15.8 34.8-15.8 5.5-0.1 11.6 1.4 15 5.8 3.6 4.7 3.3 11.3 1.7 17.1-2.6 9.3-8.1 17.6-14.8 24.7-6.6 7.1-14.3 13.1-22 19-8.7 6.7-18 13.6-28.9 14.4"/>
			</g>
			<g id="&lt;Group&gt;">
				<path id="&lt;Path&gt;" class="s5" d="m184.8 843.1c1.6-12.1 10.9-22.1 21.9-27.3 11-5.3 23.4-6.6 35.5-7.2 2.7-0.1 5.5-0.2 8 0.6 2.6 0.8 5 2.6 5.7 5.3 0.9 3.4-1.2 6.8-3.5 9.6-13.3 15.9-34.1 25.3-54.9 24.8-2.4-0.1-4.8-0.3-7-1.2-2.3-0.9-4.2-2.7-4.9-5"/>
			</g>
			<g id="&lt;Group&gt;">
				<g id="&lt;Group&gt;">
					<path id="&lt;Path&gt;" class="s9" d="m128 760.7c14.5 35.3 26.1 71.8 34.6 109q3.7 15.8 6.6 31.9c0.1 0.9 1.6 0.5 1.4-0.4-6.8-37.6-16.7-74.6-29.5-110.6q-5.5-15.3-11.6-30.3c-0.4-0.9-1.8-0.5-1.5 0.4z"/>
				</g>
			</g>
			<g id="&lt;Group&gt;">
				<g id="&lt;Group&gt;">
					<path id="&lt;Path&gt;" class="s9" d="m171.5 887.1c-0.7-21.8 1-43.8 7.1-64.8 6.1-21 16.7-40.5 31.3-56.9 9.1-10.2 19.6-19.1 30.9-26.8 0.8-0.6 0-1.9-0.8-1.3-19.5 13.3-36.4 30.2-48.4 50.6-10.9 18.7-17.3 39.7-20 61.1-1.7 12.6-2.1 25.4-1.6 38.1 0 1 1.5 1 1.5 0z"/>
				</g>
			</g>
			<g id="&lt;Group&gt;">
				<g id="&lt;Group&gt;">
					<path id="&lt;Path&gt;" class="s9" d="m172.2 856.9c17.1-19.9 41.2-33.8 67.1-38.4 1-0.2 0.6-1.6-0.4-1.5-26.2 4.7-50.5 18.7-67.8 38.9-0.6 0.7 0.4 1.8 1.1 1z"/>
				</g>
			</g>
			<g id="&lt;Group&gt;">
				<path id="&lt;Path&gt;" class="s9" d="m136.6 885.8v-26.1h36.3 36.4v26.1c0 0 1.4 46.1-24.3 50.3h-12.1-12.1c-25.6-4.2-24.2-50.3-24.2-50.3z"/>
			</g>
		</g>
	</g>
	<g id="Checks">
		<g id="&lt;Group&gt;">
			<g id="&lt;Group&gt;">
				<path id="&lt;Path&gt;" class="s2" d="m871.1 495.6h-34v-33.9h34z"/>
				<g id="&lt;Group&gt;">
					<path id="&lt;Path&gt;" class="s12" d="m871.1 495.6h-34v-33.9h34z"/>
					<g id="&lt;Group&gt;">
						<path id="&lt;Path&gt;" class="s5" d="m858.4 492.1l-18.5-13.8 4.8-6.5 12.4 9.3 17.2-20.4 6.2 5.2z"/>
					</g>
				</g>
			</g>
			<g id="&lt;Group&gt;">
				<path id="&lt;Path&gt;" class="s2" d="m871.1 433.2h-34v-34h34z"/>
				<g id="&lt;Group&gt;">
					<path id="&lt;Path&gt;" class="s12" d="m871.1 433.6h-34v-33.9h34z"/>
					<g id="&lt;Group&gt;">
						<path id="&lt;Path&gt;" class="s5" d="m858.4 430.1l-18.5-13.8 4.8-6.5 12.4 9.3 17.2-20.5 6.2 5.2z"/>
					</g>
				</g>
			</g>
			<g id="&lt;Group&gt;">
				<path id="&lt;Path&gt;" class="s2" d="m871.1 371.6h-34v-34h34z"/>
				<g id="&lt;Group&gt;">
					<path id="&lt;Path&gt;" class="s12" d="m871.1 371.6h-34v-34h34z"/>
					<g id="&lt;Group&gt;">
						<path id="&lt;Path&gt;" class="s5" d="m858.4 368.1l-18.5-13.8 4.8-6.5 12.4 9.3 17.2-20.5 6.2 5.2z"/>
					</g>
				</g>
			</g>
		</g>
	</g>
	<g id="Speech Bubble">
		<g id="&lt;Group&gt;">
			<path id="&lt;Path&gt;" class="s5" d="m594.9 113c29.2-22.2 70.9-16.8 93.1 12 22.2 28.7 16.5 69.9-12.8 92.1-22.6 17-52.6 17.7-75.3 3.9l-19.2 5.6 2-20.7c-0.2-0.3-0.5-0.6-0.7-0.8-22.2-28.8-16.4-70 12.9-92.1z"/>
			<path id="&lt;Path&gt;" class="s13" d="m594.9 113c29.2-22.2 70.9-16.8 93.1 12 22.2 28.7 16.5 69.9-12.8 92.1-22.6 17-52.6 17.7-75.3 3.9l-19.2 5.6 2-20.7c-0.2-0.3-0.5-0.6-0.7-0.8-22.2-28.8-16.4-70 12.9-92.1z"/>
			<g id="&lt;Group&gt;">
				<g id="freepik--Heart--inject-2 00000057870210430873941200000016974606230885214894 ">
					<path id="&lt;Path&gt;" class="s5" d="m636.1 117.4l-4.4 2.1-1-2.7c-0.5-1.2 0.1-2.4 1.2-2.8q0.1-0.1 0.2-0.1c1.2-0.4 2.5 0.2 2.9 1.4z"/>
					<path id="&lt;Compound Path&gt;" fill-rule="evenodd" class="s5" d="m666.1 161.5c0 14.9-15.2 50.7-31.3 50.7-15.2 0-30.6-35.8-30.6-50.7 0-5.7 1.7-11.4 4.9-16.2 2.3-2.9 5.5-5 9.1-6q0.7-0.2 1.3-0.5 0.9-0.6 1.6-1.4l0.1-0.2c0-0.1 5.5-8.6 2.2-17.1q0 0-0.1 0c-0.5-1.4 0.2-3 1.6-3.5 1.5-0.6 3.1 0.1 3.7 1.6q0.4 1 0.7 2.1l2-1 4.4-2.1 1.3-0.7c1.4-0.6 3-0.1 3.7 1.3q0 0 0 0c0.7 1.4 0.1 3-1.2 3.7l-1.9 0.9 0.9 2.1c1 2.8 3.5 3.8 6.6 4.6 0.7 0.1 7 0.8 10.7 1.2 1.2 0.2 2.2 1.2 2.2 2.5q0 0.2 0 0.3-0.1 0.1-0.1 0.1c-0.2 1.4-1.4 2.3-2.8 2.1q-2.7-0.4-5.5-0.6c-5.5-0.3-8.7 0.2-11.7 3.9l-2.9 4.3h0.2c3.3-3 7.6-4.7 12-4.6 5.4-0.1 10.6 2.3 14 6.5 3.3 5 5 10.8 4.9 16.7zm-31.9-34.2l-0.2-0.3-0.9-2.7-3 1.5c0 3.6-0.8 7.2-2.3 10.5-0.4 0.9-0.1 2 0.6 2.7q0.3 0.2 0.7 0.3 0.4 0.2 0.9 0.2c0.6 0 1.3-0.3 1.7-0.9l1-1.2c2.4-2.8 3-6.7 1.5-10.1z"/>
					<path id="&lt;Path&gt;" class="s7" d="m641.6 199.1c-10.9-1.1-12.1-52.9-14-41.5-2 11.3 4.1 37.6-4.4 37.6-7.3 0-13.3-12-14.9-15.3 5.6 15.4 16.2 32.3 26.6 32.3 16.1 0 31.3-35.8 31.3-50.7-2.1 16.6-13.7 38.7-24.6 37.6z"/>
					<path id="&lt;Path&gt;" class="s14" d="m617.9 144.2c3.9 0.5 7.4 2.8 9.4 6.2 0.3 0.5 0.9 0.7 1.3 0.4 0.4-0.1 0.6-0.4 0.6-0.8 0.2-4.9-1.2-11.7-11.5-7.7-0.5 0.2-0.8 0.8-0.6 1.3 0.2 0.3 0.4 0.6 0.8 0.6z"/>
					<g id="&lt;Group&gt;" style="opacity: .2">
						<path id="&lt;Path&gt;" class="s2" d="m658 159.6c-1.1 0-1.9-0.8-2-1.8q-0.5-6.5-4.1-8.7c-0.9-0.6-1.2-1.8-0.6-2.7 0.6-0.9 1.8-1.2 2.7-0.6 3.6 2.2 5.6 6.2 6 11.8 0.1 1.1-0.7 2-1.7 2.1q-0.1 0-0.1 0.1z"/>
					</g>
					<g id="&lt;Group&gt;" style="opacity: .2">
						<path id="&lt;Path&gt;" class="s2" d="m645.4 148c-1.1 0-2-0.9-2-2 0-0.9 0.7-1.7 1.6-1.9q1.6-0.3 3.2-0.2c1.1 0.1 1.9 1 1.9 2q-0.1 0.1-0.1 0.2c0 1.1-0.9 1.9-2 1.9q-0.1 0-0.1 0-1.1-0.2-2.2 0z"/>
					</g>
				</g>
			</g>
			<g id="&lt;Group&gt;">
				<path id="&lt;Path&gt;" class="s2" d="m672.9 187.8c0 7.7-6.3 14-14 14-7.8 0-14.1-6.3-14.1-14 0-7.8 6.3-14.1 14.1-14.1 7.7 0 14 6.3 14 14.1z"/>
				<g id="&lt;Group&gt;">
					<path id="&lt;Path&gt;" class="s5" d="m658 195.7l-9.3-7 2.4-3.3 6.3 4.7 8.6-10.3 3.1 2.6z"/>
				</g>
			</g>
		</g>
	</g>
	<g id="Character 2">
		<g id="&lt;Group&gt;">
			<path id="&lt;Path&gt;" class="s15" d="m576.1 429.2c0 0-27.3 32.5-20.6 50.6 6.6 18.1 44.1 30.7 44.1 30.7l11.2-81.3z"/>
			<g id="&lt;Group&gt;">
				<g id="&lt;Group&gt;">
					<g id="&lt;Group&gt;">
						<g id="&lt;Group&gt;">
							<g id="&lt;Group&gt;">
								<g id="&lt;Group&gt;">
									<path id="&lt;Path&gt;" class="s15" d="m694 789.5l4.7 54.2 20.2 0.3 13.3-52.3z"/>
								</g>
							</g>
						</g>
					</g>
					<g id="&lt;Group&gt;">
						<g id="&lt;Group&gt;">
							<g id="&lt;Group&gt;">
								<g id="&lt;Group&gt;">
									<g id="&lt;Group&gt;">
										<g id="&lt;Group&gt;">
											<g id="&lt;Group&gt;">
												<g id="&lt;Group&gt;">
													<g id="&lt;Group&gt;">
														<g id="&lt;Group&gt;">
															<g id="&lt;Group&gt;">
																<g id="&lt;Group&gt;">
																	<path id="&lt;Path&gt;" class="s9" d="m691.4 875.4l17.5 0.2c0 0 3.5-1.9 5.6-1.6 2.1 0.3 9.3 1.7 9.3 1.7l45.2 0.7c-0.3-2-0.2-3.9-0.7-5.4-0.6-1.9-0.7-3.5-1.5-4.9-2.8-4.7-3.4-5.4-11.8-8.2-6.6-2.3-26.1-12.9-26.1-12.9 0 0-5.1-0.5-5.5-8.5-0.1-2.9-4.4-6.6-6.5-6.9-4.2-0.7-6.6 2-7.3 6.3l-0.3 3-5.1-1.6c0 0-9.9-5.1-9.5-0.2 0.3 2.8-5.6 14.9-4.7 24.8 0.3 2.3 0.5 4.5 0.7 6.4 0.4 4.2 0.7 7.1 0.7 7.1z"/>
																</g>
															</g>
														</g>
													</g>
												</g>
											</g>
											<g id="&lt;Group&gt;" style="opacity: .2">
												<path id="&lt;Path&gt;" class="s2" d="m769 876.4l-45.2-0.7c0 0-7.2-1.4-9.3-1.7-2.1-0.3-5.6 1.6-5.6 1.6l-17.5-0.2c0 0-0.3-2.9-0.7-7.1l77.6 2.7c0.5 1.5 0.4 3.4 0.7 5.4z"/>
											</g>
											<g id="&lt;Group&gt;">
												<g id="&lt;Group&gt;">
													<g id="&lt;Group&gt;">
														<g id="&lt;Group&gt;">
															<path id="&lt;Path&gt;" class="s5" d="m739.1 850.2c-0.2-0.2-0.6-0.3-0.8-0.1-1.2 0.8-2.2 1.8-2.8 3.2-0.4 0.7 0.7 1.4 1 0.7 0.6-1.2 1.5-2.2 2.5-2.8 0.3-0.3 0.4-0.7 0.1-1q0 0 0 0z"/>
														</g>
													</g>
												</g>
											</g>
											<g id="&lt;Group&gt;">
												<g id="&lt;Group&gt;">
													<g id="&lt;Group&gt;">
														<g id="&lt;Group&gt;">
															<path id="&lt;Path&gt;" class="s5" d="m735.4 848c-0.2-0.2-0.5-0.3-0.8-0.1-1.2 0.7-2.1 1.8-2.8 3.2-0.4 0.7 0.7 1.4 1 0.7 0.6-1.2 1.5-2.2 2.5-2.8 0.3-0.3 0.4-0.7 0.1-1q0 0 0 0z"/>
														</g>
													</g>
												</g>
											</g>
											<g id="&lt;Group&gt;">
												<g id="&lt;Group&gt;">
													<g id="&lt;Group&gt;">
														<g id="&lt;Group&gt;">
															<path id="&lt;Path&gt;" class="s5" d="m731.6 845.9c-0.2-0.2-0.5-0.2-0.8-0.1-1.2 0.8-2.1 1.8-2.8 3.2-0.4 0.7 0.7 1.4 1 0.7 0.6-1.2 1.5-2.2 2.5-2.8 0.3-0.2 0.4-0.7 0.1-1q0 0 0 0z"/>
														</g>
													</g>
												</g>
											</g>
										</g>
									</g>
								</g>
							</g>
						</g>
					</g>
				</g>
				<g id="&lt;Group&gt;">
					<g id="&lt;Group&gt;">
						<g id="&lt;Group&gt;">
							<g id="&lt;Group&gt;">
								<g id="&lt;Group&gt;">
									<path id="&lt;Path&gt;" class="s15" d="m796.9 788.7l4.3 54.2 20.2 1.9 10.5-49.2z"/>
								</g>
							</g>
						</g>
					</g>
					<g id="&lt;Group&gt;">
						<g id="&lt;Group&gt;">
							<g id="&lt;Group&gt;">
								<g id="&lt;Group&gt;">
									<g id="&lt;Group&gt;">
										<g id="&lt;Group&gt;">
											<g id="&lt;Group&gt;">
												<g id="&lt;Group&gt;">
													<g id="&lt;Group&gt;">
														<g id="&lt;Group&gt;">
															<g id="&lt;Group&gt;">
																<g id="&lt;Group&gt;">
																	<path id="&lt;Path&gt;" class="s9" d="m793.7 876.1l17.5 0.3c0 0 3.6-1.8 5.7-1.5 2 0.3 9.2 1.8 9.2 1.8l45.2 1c-0.3-2-0.1-3.8-0.6-5.4-0.6-1.9-0.7-3.5-1.5-4.9-2.8-4.8-3.4-5.4-11.7-8.3-6.6-2.3-26-13.1-26-13.1 0 0-5.1-0.6-5.4-8.5-0.1-3-4.4-6.7-6.5-7-4.2-0.7-6.7 2-7.3 6.2l-0.3 3-5.1-1.6c0 0-9.9-5.2-9.5-0.3 0.2 2.8-5.8 14.9-4.9 24.8 0.2 2.3 0.4 4.4 0.6 6.3 0.3 4.3 0.6 7.2 0.6 7.2z"/>
																</g>
															</g>
														</g>
													</g>
												</g>
											</g>
											<g id="&lt;Group&gt;" style="opacity: .2">
												<path id="&lt;Path&gt;" class="s2" d="m871.3 877.7l-45.2-1c0 0-7.2-1.5-9.2-1.8-2.1-0.3-5.7 1.5-5.7 1.5l-17.5-0.3c0 0-0.3-2.9-0.6-7.2l77.6 3.4c0.5 1.6 0.3 3.4 0.6 5.4z"/>
											</g>
											<g id="&lt;Group&gt;">
												<g id="&lt;Group&gt;">
													<g id="&lt;Group&gt;">
														<g id="&lt;Group&gt;">
															<path id="&lt;Path&gt;" class="s5" d="m841.6 851.2c-0.2-0.2-0.5-0.2-0.8 0-1.1 0.7-2.1 1.8-2.8 3.1-0.4 0.7 0.7 1.4 1 0.7 0.6-1.2 1.5-2.1 2.5-2.8 0.3-0.2 0.4-0.7 0.1-0.9q0 0 0-0.1z"/>
														</g>
													</g>
												</g>
											</g>
											<g id="&lt;Group&gt;">
												<g id="&lt;Group&gt;">
													<g id="&lt;Group&gt;">
														<g id="&lt;Group&gt;">
															<path id="&lt;Path&gt;" class="s5" d="m838 849c-0.3-0.2-0.6-0.2-0.8-0.1-1.2 0.8-2.2 1.8-2.9 3.2-0.3 0.7 0.7 1.4 1.1 0.7 0.6-1.2 1.4-2.2 2.4-2.8 0.4-0.2 0.5-0.7 0.2-1q0 0 0 0z"/>
														</g>
													</g>
												</g>
											</g>
											<g id="&lt;Group&gt;">
												<g id="&lt;Group&gt;">
													<g id="&lt;Group&gt;">
														<g id="&lt;Group&gt;">
															<path id="&lt;Path&gt;" class="s5" d="m834.2 846.9c-0.2-0.2-0.6-0.2-0.8-0.1-1.2 0.8-2.2 1.8-2.9 3.2-0.3 0.7 0.7 1.4 1.1 0.7 0.6-1.2 1.4-2.2 2.5-2.8 0.3-0.2 0.4-0.7 0.1-1q0 0 0 0z"/>
														</g>
													</g>
												</g>
											</g>
										</g>
									</g>
								</g>
							</g>
						</g>
					</g>
				</g>
			</g>
			<g id="&lt;Group&gt;">
				<g id="&lt;Group&gt;">
					<path id="&lt;Path&gt;" class="s9" d="m708.1 292.3c0.4 1.9 1.7 3.2 2.8 2.8 1.1-0.4 1.9-2 1.5-3.9-0.4-1.8-1.7-3.1-2.8-2.7-1.1 0.3-2 1.9-1.5 3.8z"/>
					<path id="&lt;Path&gt;" class="s16" d="m709.6 295.5c3.4 5.2 7.5 10 12.1 14.2-2.7 3.7-8.5 3.4-8.5 3.4z"/>
					<path id="&lt;Path&gt;" class="s9" d="m699.3 283.3q-0.5 0-0.8-0.3c-0.4-0.4-0.4-1.1 0-1.6 2.4-2.7 5.9-4.1 9.5-3.7 0.6 0.2 1 0.8 0.8 1.4-0.2 0.5-0.6 0.8-1.1 0.8-2.9-0.2-5.7 0.9-7.5 3-0.3 0.3-0.6 0.4-0.9 0.4z"/>
					<path id="&lt;Path&gt;" class="s17" d="m657.5 325.3c3.3 16.4 5.2 39.1-6.3 50.1 0 0 4.5 16.7 35 16.7 33.5 0 16.1-14.7 16.1-14.7-13.9-4.3-13.9-20.2-10.6-32.9z"/>
					<path id="&lt;Path&gt;" class="s17" d="m645 301c6 22.6 8.3 36.1 22.4 45.6 21.1 14.2 47.3-2.1 48.1-26.1 0.7-21.6-9.4-55-33.7-59.6-17.3-3.3-34.1 8-37.4 25.3-1 4.9-0.8 10 0.6 14.8z"/>
					<path id="&lt;Path&gt;" class="s9" d="m692 301.3c5.4-8 7.5-20.2 3.7-26 3.5 1.4 29 3.2 19-15-6.8-12.4-21.1-21.9-35.1-25-5.5-1.2-8.6 6.2-3.8 9.4 0 0-14.9-2.9-27.7-1.2-4.8 0.6-5.7 7.2-1.2 9.1 0 0-25.6 12-14.4 21.2-18 13.7-5.8 32.6 23.7 60.8 5.2 4.6 19.8 2.9 23 0.2-2.1-12.3 9.8-29 12.8-33.5z"/>
					<path id="&lt;Path&gt;" class="s17" d="m683.1 302.3c1.5 5.6 5.1 10.4 10.2 13.3 6.1 2.7 6.9-4.4 5.7-11.2-1.1-6.1-2.8-11.1-7.8-13.5-5.8-3-10.1 4.7-8.1 11.4z"/>
					<g id="&lt;Group&gt;" style="opacity: .2">
						<g id="&lt;Group&gt;">
							<path id="&lt;Path&gt;" class="s11" d="m688.5 297c-1.8 5 0.6 10.7 5.5 12.8 0.8 0.4 1.6-0.9 0.7-1.2-4.3-1.9-6.4-6.8-4.8-11.2 0.4-0.9-1.1-1.3-1.4-0.4z"/>
						</g>
					</g>
				</g>
				<g id="&lt;Group&gt;">
					<path id="&lt;Path&gt;" class="s9" d="m729.2 558.2c3.8 0.5 88.5 11.6 110.6 37.1 22.2 25.6-2.8 228.9-2.8 228.9h-52.9c0 0 2.3-142.6 2.3-161.8 0-15.3-63.4-16.5-83.4-27.4-20-10.8-38.1-66.2-38.1-66.2z"/>
					<path id="&lt;Path&gt;" class="s9" d="m623.5 559.2c1.7 0 116 17.7 125.6 64 9.5 46.4-10.3 198.7-10.3 198.7l-56.8-3.5c0 0 6-150.1 3.7-159.7-2.2-9.6-50-13.1-79.7-32.3-29.8-19.2-5.6-91.7-5.6-91.7z"/>
				</g>
				<path id="&lt;Path&gt;" class="s5" d="m691.2 366.4c1.6 0.5 29.9 15.6 39.3 27.1 9.4 11.5 2.8 148.2 1.6 149.5-1.2 1.3 9.5 6.6 4.9 17.3-2.5 5.8-142.4 49.5-144.5 3-0.7-15.5 14.6-160.8 22.4-178.3 7.8-17.5 31.7-20.1 41-21.8 1.2-0.2 35.3 3.2 35.3 3.2z"/>
				<path id="&lt;Path&gt;" class="s15" d="m766.1 433.8c1.2 0 36.3 40.2 28.1 53.9-8.1 13.6-9.3 22.6-28.1 15.8-18.8-6.9-43.2-43.2-43.2-43.2z"/>
				<path id="&lt;Path&gt;" class="s5" d="m714.2 371.7c2.1 0.4 6.1 1.9 17.6 9.1 11.6 7.3 38.1 54 38.1 54 0 0-29.1 28.7-49.6 28.3-20.5-0.4-26.2-28.3-26.2-28.3l-2.9-68.4z"/>
				<path id="&lt;Path&gt;" class="s5" d="m651.2 365.1c-2.6 0.4-29.2 1.2-50.2 17.4-20.9 16.2-41.7 62.3-41.7 62.3 0 0 22.1 36.2 32.4 38 10.2 1.7 21.3-21.4 21.3-21.4z"/>
				<g id="&lt;Group&gt;">
					<g id="&lt;Group&gt;">
						<path id="&lt;Path&gt;" class="s11" d="m600.3 487.8c3.7-28.2 5.6-56.8 5.7-85.3 0-1-1.5-1-1.5 0-0.1 28.5-2 57.1-5.7 85.3-0.1 0.9 1.4 0.9 1.5 0z"/>
					</g>
				</g>
				<g id="&lt;Group&gt;">
					<g id="&lt;Group&gt;">
						<path id="&lt;Path&gt;" class="s11" d="m708 373c-12.2 5-18.9 19-18 31.8 0.4 5.3 2.3 10.5 4.2 15.4 2.4 6.2 5.2 12.3 8.2 18.3q4.3 8.6 9.1 16.9c0.5 0.8 1.8 0.1 1.3-0.8-5.6-9.6-10.8-19.6-15.1-29.8-2.3-5.2-4.4-10.6-5.6-16.1-1.2-5.7-0.6-11.7 1.3-17.2 2.5-7.4 7.6-14 15-17 0.9-0.4 0.5-1.9-0.4-1.5z"/>
					</g>
				</g>
			</g>
			<g id="&lt;Group&gt;">
				<g id="&lt;Group&gt;">
					<path id="&lt;Path&gt;" class="s11" d="m634.3 604.2c3.3 15.6 19.5 23 33.2 27.3 20.3 6.3 41.7 8.6 62.5 11.9 11.6 1.8 23.1 3.8 34.4 6.8 0.9 0.3 1.3-1.1 0.4-1.4-19.9-5.5-40.7-7.6-61-11-9.9-1.6-19.8-3.3-29.5-5.9-8.4-2.3-16.9-5.1-24.3-9.7-6.9-4.2-12.5-10.3-14.3-18.4-0.2-1-1.6-0.6-1.4 0.4z"/>
				</g>
			</g>
			<g id="&lt;Group&gt;">
				<g id="&lt;Group&gt;">
					<path id="&lt;Path&gt;" class="s11" d="m641.7 565.2c30.8 1.2 61.6-6 88.7-20.8 0.8-0.5 0.1-1.8-0.8-1.3-26.8 14.7-57.4 21.8-87.9 20.6-1-0.1-1 1.4 0 1.5z"/>
				</g>
			</g>
		</g>
		<g id="&lt;Group&gt;">
			<path id="&lt;Path&gt;" class="s9" d="m425.8 956.6h-9.9v-309h9.9z"/>
			<path id="&lt;Path&gt;" class="s9" d="m349.5 956.6h-10v-309h10z"/>
			<path id="&lt;Path&gt;" class="s18" d="m349.5 956.6h-10v-309h10z"/>
			<path id="&lt;Path&gt;" class="s18" d="m425.8 956.6h-9.9v-309h9.9z"/>
			<path id="&lt;Path&gt;" class="s9" d="m776 956.6h-10v-309h10z"/>
			<path id="&lt;Path&gt;" class="s18" d="m776 956.6h-10v-309h10z"/>
			<path id="&lt;Path&gt;" class="s9" d="m852.3 956.6h-9.9v-309h9.9z"/>
			<path id="&lt;Path&gt;" class="s18" d="m852.3 956.6h-9.9v-309h9.9z"/>
			<path id="&lt;Path&gt;" class="s9" d="m885.1 651.4h-595.7v-23.5h595.7z"/>
			<path id="&lt;Path&gt;" class="s18" d="m885.1 651.4h-595.7v-23.5h595.7z"/>
		</g>
	</g>
	<g id="Character 1">
		<path id="&lt;Path&gt;" class="s9" d="m634.4 449.7c0.5 6.4-4.2 12.1-10.7 12.7-6.4 0.6-12.2-4.2-12.7-10.6-0.6-6.5 4.2-12.2 10.6-12.8 6.5-0.6 12.2 4.2 12.8 10.7z"/>
		<g id="&lt;Group&gt;">
			<g id="&lt;Group&gt;">
				<path id="&lt;Path&gt;" class="s19" d="m482.5 324.7c-0.5 0.6 6.7-3 6.7-3l30.4 11 8.9 4.8c0 0-12.6 22.8-19.2 20.5-6.7-2.3-26.8-33.3-26.8-33.3z"/>
				<g id="&lt;Group&gt;">
					<g id="&lt;Group&gt;">
						<g id="&lt;Group&gt;">
							<path id="&lt;Path&gt;" class="s9" d="m500.3 218.8c0 0 15.8-23.7 45.3-7.5 18.7 10.3 31.2 21.6 25.9 39.1-3.5 11.7-16.6 18.5-23.8 16.7-7.2-1.8-57.2-29.7-57.2-29.7 0 0-9.4-16.8 9.8-18.6z"/>
						</g>
						<path id="&lt;Path&gt;" class="s19" d="m483.8 329.6c12.8-11 9.9-37.4 7.5-54l34 30.6q-1.3 2.8-2.3 5.8c-1.2 3.5-2.6 4.7-3.3 11.5-0.2 5.9 2 11.7 2.1 11.8 0 0-2.3 9.6-18.6 8.3-12.2-3.2-19.4-14-19.4-14z"/>
						<path id="&lt;Path&gt;" class="s20" d="m495.1 291.3c-2.2 19.4 14.7 30.1 24.6 33.1q-0.3-5.2 3.4-12.4z"/>
						<path id="&lt;Path&gt;" class="s19" d="m493.2 254.1c-3.4 23.1-5.8 36 3.6 50.2 14.1 21.2 44.5 17.2 54.9-4.4 9.3-19.4 13.3-53.8-7.8-67.6-20.7-13.6-47.4-1.2-50.7 21.8z"/>
						<path id="&lt;Path&gt;" class="s9" d="m525.4 268.5c-0.5 2.3 0.3 4.5 1.9 4.8 1.6 0.3 3.2-1.3 3.7-3.6 0.5-2.3-0.3-4.5-1.9-4.8-1.6-0.3-3.3 1.3-3.7 3.6z"/>
						<path id="&lt;Path&gt;" class="s9" d="m545.8 272.6c-0.5 2.3 0.4 4.5 1.9 4.8 1.6 0.3 3.3-1.3 3.8-3.6 0.5-2.4-0.4-4.5-2-4.8-1.6-0.4-3.2 1.3-3.7 3.6z"/>
						<path id="&lt;Path&gt;" class="s21" d="m538.9 266.8c0 0 5.2 13.2 6.6 18.4-4 2.2-9.4-0.4-9.4-0.4z"/>
						<path id="&lt;Path&gt;" class="s9" d="m521.5 257.7c0.3 0.3 0.7 0.4 1.1 0.2 4.7-1.9 8.3 0.4 8.3 0.4 0.5 0.4 1.2 0.2 1.6-0.3 0.3-0.5 0.2-1.2-0.3-1.5-0.2-0.2-4.7-3-10.5-0.7-0.6 0.3-0.8 0.9-0.6 1.5q0.1 0.3 0.4 0.4z"/>
						<path id="&lt;Path&gt;" class="s9" d="m556.6 263.5q0.3-0.1 0.5-0.4c0.4-0.5 0.3-1.2-0.2-1.6-5.1-3.6-10-1.7-10.3-1.7-0.6 0.3-0.9 0.9-0.6 1.5 0.2 0.6 0.8 0.8 1.4 0.6 0.2-0.1 4-1.4 8.1 1.5 0.3 0.2 0.7 0.2 1.1 0.1z"/>
						<g id="&lt;Group&gt;">
							<g id="&lt;Group&gt;">
								<path id="&lt;Path&gt;" class="s9" d="m511.7 225.8c0 0 17.5 23.3 39.7 16.8 22.3-6.4-19.3-34.6-39.7-16.8z"/>
							</g>
						</g>
						<path id="&lt;Path&gt;" class="s9" d="m482.7 227.3c8.3-9 17.6-4.5 17.6-4.5 0.6 2 1 3.9 1.1 5.8 5.4-2.5 10.6-4.2 13.3-3.3 7.3 2.7 1.7 7.4 1.7 7.4 0 0-6.5 3.7-7.4 9.4-0.7 4.2-0.5 8.7-0.4 10.7 0.6 7.7 2 16.8-0.8 19-4.6 3.8-7.1-1.3-15.3-7.7-1.1-0.9-2.4-1.7-4.3-2.1 0.7 8.3 1.6 15.2 2.5 20.2q0.3 2.2 0.9 4.1c-5.5-9.7-11.8-21.2-13.6-26.2q-0.5-1.5-0.8-2.9c-2.6-7.4-2.9-20.9 5.5-29.9z"/>
						<path id="&lt;Path&gt;" class="s19" d="m479.9 271.1c0.6 6.3 4.2 11.7 8.4 14.9 6.2 4.9 10.4-1.9 11.2-9.3 0.8-6.5 0.5-14.8-7-16.8-7.4-2.1-13.3 4-12.6 11.2z"/>
						<path id="&lt;Path&gt;" class="s22" d="m486.6 266c1.2-1.2 3.2-1.3 4.8-0.5 1.5 0.7 2.7 2.2 3.4 3.7 0.8 1.8 1.2 3.9 1 5.9"/>
						<g id="&lt;Group&gt;" style="opacity: .3">
							<g id="&lt;Group&gt;">
								<path id="&lt;Path&gt;" class="s11" d="m506.9 242.3c-9-2-17.5-6.1-24.7-12-0.7-0.6-1.8 0.5-1.1 1.1 7.4 6 16.1 10.3 25.4 12.4 0.9 0.2 1.3-1.3 0.4-1.5z"/>
							</g>
						</g>
						<g id="&lt;Group&gt;" style="opacity: .3">
							<g id="&lt;Group&gt;">
								<path id="&lt;Path&gt;" class="s11" d="m505.7 247.2c-9.6 0.1-19.1-2-27.6-6.3-0.9-0.5-1.7 0.8-0.8 1.3 8.8 4.4 18.5 6.6 28.4 6.5 0.9 0 0.9-1.5 0-1.5z"/>
							</g>
						</g>
						<g id="&lt;Group&gt;" style="opacity: .3">
							<g id="&lt;Group&gt;">
								<path id="&lt;Path&gt;" class="s11" d="m536.5 242.5c5.3-1.2 9.9-4.7 12.4-9.4 2.9-5.3 2.9-11.7 0.3-17.1-0.4-0.9-1.7-0.1-1.3 0.8 2.4 5 2.3 11-0.4 15.9-2.4 4.2-6.6 7.2-11.4 8.3-0.9 0.3-0.5 1.7 0.4 1.5z"/>
							</g>
						</g>
						<g id="&lt;Group&gt;" style="opacity: .3">
							<g id="&lt;Group&gt;">
								<path id="&lt;Path&gt;" class="s11" d="m549.9 243c4.2-1.1 8-3.7 10.3-7.3 2.6-4.1 3.4-9.1 2.2-13.7-0.2-0.9-1.7-0.5-1.4 0.4 2.1 8.4-3.1 17-11.5 19.2-0.9 0.2-0.6 1.7 0.4 1.4z"/>
							</g>
						</g>
					</g>
					<g id="&lt;Group&gt;">
						<g id="&lt;Group&gt;">
							<path id="&lt;Path&gt;" class="s9" d="m529.3 292.7c-2.9-0.9-5.3-3.4-6.1-6.4-0.3-0.9-1.7-0.5-1.5 0.4 1 3.5 3.8 6.4 7.2 7.4 1 0.3 1.4-1.1 0.4-1.4z"/>
						</g>
					</g>
				</g>
				<g id="&lt;Group&gt;">
					<path id="&lt;Path&gt;" class="s9" d="m484.4 899.1c0 0 0.9 33.2 0.6 34.1l-3.4 18.5c-0.5 1.7 0.4 3.5 2.1 4q0.5 0.1 0.9 0.1c9.1 0.1 13.4 0.2 24.6 0.3l34.4 0.5c9.3 0.1 11.4-9.3 7.6-10.2-17.3-4.1-33.9-11.9-39.2-17.1l2.7-32.4z"/>
					<path id="&lt;Path&gt;" class="s5" d="m480.2 952.5c-0.5 1.8 0.5 3.6 2.2 4.1q0.5 0.2 1 0.2c9.5 0.1 14 0.2 25.8 0.3l36.1 0.5c9.9 0.1 12-9.8 8-10.7-18.2-4.3-35.6-12.5-41.2-17.9l-8.4 19.2z"/>
					<g id="&lt;Group&gt;">
						<g id="&lt;Group&gt;">
							<path id="&lt;Path&gt;" class="s9" d="m480.7 953.7c24.1 0 48.2 1 72.3 1 1 0 1-1.5 0-1.5-24.1 0-48.2-1-72.3-1-0.9 0-0.9 1.5 0 1.5z"/>
						</g>
					</g>
				</g>
				<g id="&lt;Group&gt;">
					<path id="&lt;Path&gt;" class="s9" d="m384.5 899.6c0 0 0.9 33.2 0.7 34.1l-3.5 18.5c-0.5 1.7 0.5 3.5 2.2 4q0.4 0.1 0.9 0.1c9 0.1 13.3 0.2 24.5 0.3l34.4 0.5c9.4 0.1 11.5-9.3 7.6-10.2-17.3-4.1-33.9-11.9-39.2-17l2.7-32.5z"/>
					<path id="&lt;Path&gt;" class="s5" d="m380.4 953c-0.6 1.8 0.4 3.6 2.2 4.2q0.5 0.1 1 0.1c9.5 0.1 13.9 0.2 25.8 0.3l36.1 0.5c9.8 0.2 12-9.7 8-10.7-18.2-4.3-35.7-12.5-41.2-17.9l-8.4 19.2z"/>
					<g id="&lt;Group&gt;">
						<g id="&lt;Group&gt;">
							<path id="&lt;Path&gt;" class="s9" d="m380.9 954.2c24.1 0.1 48.1 1 72.2 1 1 0 1-1.5 0-1.5-24.1 0-48.1-0.9-72.2-1-1 0-1 1.5 0 1.5z"/>
						</g>
					</g>
				</g>
				<g id="&lt;Group&gt;">
					<g id="&lt;Group&gt;">
						<path id="&lt;Path&gt;" class="s5" d="m385.6 709.1c3.1-31.1 9.7-215.2 9.7-215.2l125.8-9.4c0 0 7.6 51.4 5.9 134 0 0 2.8 242.5-2.2 304.2l-51.9 4.5c-1.3-39-10.9-213.5-10.9-213.5-1.4-29.5-0.9-99.4-2.9-121.5-0.9-4.9-0.1 0-0.9-4.9 0 0-13 107.6-14.6 122.5-3.1 29.1-17.5 216.9-17.5 216.9h-50.6c0 0 7-186.4 10.1-217.6z"/>
					</g>
					<g id="&lt;Group&gt;" style="opacity: .3">
						<path id="&lt;Path&gt;" class="s2" d="m385.6 709.1c3.1-31.1 9.7-215.2 9.7-215.2l125.8-9.4c0 0 7.6 51.4 5.9 134 0 0 2.8 242.5-2.2 304.2l-51.9 4.5c-1.3-39-10.9-213.5-10.9-213.5-1.4-29.5-0.9-99.4-2.9-121.5-0.9-4.9-0.1 0-0.9-4.9 0 0-13 107.6-14.6 122.5-3.1 29.1-17.5 216.9-17.5 216.9h-50.6c0 0 7-186.4 10.1-217.6z"/>
					</g>
				</g>
				<path id="&lt;Path&gt;" class="s5" d="m537.7 426.7c2.4-4.3 12-71.2 18.5-68.5 6.2 2.6 35.5 66 37.3 71.1l-45.3 25.2c-3.6-0.4-12.9-23.4-10.5-27.8z"/>
				<path id="&lt;Path&gt;" class="s23" d="m537.7 426.7c2.4-4.3 12-71.2 18.5-68.5 6.2 2.6 35.5 66 37.3 71.1l-45.3 25.2c-3.6-0.4-12.9-23.4-10.5-27.8z"/>
				<path id="&lt;Path&gt;" class="s5" d="m526.5 334.4c1.2 0 30.4 18.9 32.6 26.7 2.1 7.7-21.9 74.7-27.9 95.3-6 20.6 9.6 98 1.5 107.5-8.2 9.4-132.1 7.6-136.3 2.8-4.3-4.7-4.7-10.8-4.7-10.8 0 0-2.6 11.3-6.1 10.4-6-1.6-6-1.7-6-1.7-2.6-2.6 12-89.8 16.3-116.4 4.3-26.6 22.8-95.3 36.5-106 13.8-10.8 51.1-20.6 51.1-20.6 0 0 17.2 30 24.1 30.9 6.8 0.8 18.9-18.1 18.9-18.1z"/>
				<path id="&lt;Path&gt;" class="s6" d="m526.5 334.4c1.2 0 30.4 18.9 32.6 26.7 2.1 7.7-21.9 74.7-27.9 95.3-6 20.6 9.6 98 1.5 107.5-8.2 9.4-132.1 7.6-136.3 2.8-4.3-4.7-4.7-10.8-4.7-10.8 0 0-2.6 11.3-6.1 10.4-6-1.6-6-1.7-6-1.7-2.6-2.6 12-89.8 16.3-116.4 4.3-26.6 22.8-95.3 36.5-106 13.8-10.8 51.1-20.6 51.1-20.6 0 0 17.2 30 24.1 30.9 6.8 0.8 18.9-18.1 18.9-18.1z"/>
				<g id="&lt;Group&gt;">
					<path id="&lt;Path&gt;" class="s0" d="m486.4 392.6h4.7v-5.1c0-1.3-1.1-2.3-2.4-2.3-1.3 0-2.3 1-2.3 2.3z"/>
					<path id="&lt;Path&gt;" class="s2" d="m502.6 391.3c0.8 0 1.3 0.7 1.3 1.5-0.1 4.2 0.2 15.7-0.8 16.2-2.4 1.2-19.2 0.6-25.7 0.4-1.6-0.1-3.3 0.1-3.4-1.5-0.2-4.8-0.1-13.7 0.2-15.3 0.6-3.1 23-1.8 28.4-1.3z"/>
					<path id="&lt;Path&gt;" class="s5" d="m494 405.9h3.3c1.6 0 3-1.4 3-3v-3.8c0-1.6-1.4-2.9-3-2.9h-3.3c-1.6 0-2.9 1.3-2.9 2.9v3.8c0 1.6 1.3 3 2.9 3z"/>
				</g>
				<g id="&lt;Group&gt;" style="opacity: .2">
					<g id="&lt;Group&gt;">
						<path id="&lt;Path&gt;" class="s11" d="m392.4 557.6c1.7-34 8.7-67.3 15.7-100.5 0.2-0.9-1.3-1.3-1.5-0.4-7 33.3-14 66.8-15.7 100.9-0.1 0.9 1.4 0.9 1.5 0z"/>
					</g>
				</g>
				<g id="&lt;Group&gt;" style="opacity: .2">
					<g id="&lt;Group&gt;">
						<path id="&lt;Path&gt;" class="s11" d="m532 337.7c-2 3.7-4.4 7.4-6.8 10.8-3.5 4.9-8.2 11.7-14.3 13.6-5.3 1.7-10.2-5.2-13-8.7-4.8-5.9-8.9-12.2-12.9-18.5-2.4-4-4.8-7.9-7-12-0.5-0.8-1.8 0-1.3 0.8 5.9 10.6 12.3 21.1 19.9 30.5 3 3.7 7.5 10 12.9 9.7 6.2-0.4 11.3-7.2 14.7-11.6 3.4-4.4 6.5-9 9.1-13.8 0.5-0.9-0.8-1.6-1.3-0.8z"/>
					</g>
				</g>
				<path id="&lt;Path&gt;" class="s7" d="m538.2 434.5q1.1 4 2.6 7.9l8.7-42.7z"/>
			</g>
		</g>
		<g id="&lt;Group&gt;">
			<path id="&lt;Path&gt;" class="s19" d="m590.7 430.5c2 1.2 6.6 21.2 5.8 26.7-1.8 11.9-19.1 49.8-39.8 15.4-16.7-27.7-20.6-81.3-21.3-86.6-0.2-1.9 17.5-3.7 18.7-3 1.2 0.7 26.8 53.4 26.8 53.4z"/>
			<g id="&lt;Group&gt;">
				<g id="&lt;Group&gt;">
					<path id="&lt;Path&gt;" class="s9" d="m548.4 305.6c-3.7 11.2-6.6 22.6-9.6 34q-0.7 2.7-1.4 5.3c-0.1 0.4-1.1 2.7-0.9 3 0.1 0.2 1.2 0.6 0.6-0.2-0.1-0.1-0.4-0.2-0.6-0.4-0.9-0.5-1.8-1-2.8-1.5-7.6-4.1-15-8.7-21.3-14.7-8.4-8-13-18.1-14.9-29.5-1.2-7.5-1.7-15.4-0.8-22.9 0.1-1-1.4-1-1.5 0-2 17.9 1.5 38.2 14.3 51.5 6.4 6.8 14.3 11.9 22.5 16.4 1.1 0.6 2.2 1.1 3.3 1.7 0.4 0.3 1 0.9 1.4 1 1.6 0.1 2-3.4 2.3-4.4 3.5-13 6.6-26.1 10.9-38.9 0.3-0.9-1.2-1.3-1.5-0.4z"/>
				</g>
			</g>
			<path id="&lt;Path&gt;" class="s5" d="m475 433.8c0 0-9.9 17.7-36.3 20-26.4 2.4-24.3-4.4-24.3-4.4l58.8-15.6"/>
			<path id="&lt;Path&gt;" class="s19" d="m567 467.3c0 0-74.2-3.9-76.9-5.8-8.5-6-25.3-50.5-25.3-50.5l-37.4 15.2c0 0 22.7 54.7 49.6 67.8 27 13.1 96.9-3.2 96.9-3.2z"/>
			<g id="&lt;Group&gt;">
				<g id="&lt;Group&gt;">
					<path id="&lt;Path&gt;" class="s9" d="m584.2 442.3c-4.5-11.2-9.8-22.2-15.8-32.7-0.4-0.9-1.7-0.1-1.3 0.7 5.9 10.5 11.2 21.3 15.6 32.4 0.4 0.9 1.8 0.5 1.5-0.4z"/>
				</g>
			</g>
		</g>
		<path id="&lt;Path&gt;" class="s9" d="m500.4 275c0 3.4-2.7 6.2-6.1 6.2-3.4 0-6.1-2.8-6.1-6.2 0-3.3 2.7-6.1 6.1-6.1 3.4 0 6.1 2.8 6.1 6.1z"/>
		<g id="&lt;Group&gt;">
			<g id="&lt;Group&gt;">
				<path id="&lt;Path&gt;" class="s9" d="m530.2 350.8c-8.8 46-2.9 92.9-1.2 139.2 0.4 9.1 0.8 18.6 4.4 27.1 3.3 7.6 9.1 13.5 16.7 16.7 16.1 6.9 33.9 1.2 46-10.6 16.8-16.3 21.7-39.9 25.6-62 0.2-1-1.3-1.4-1.4-0.4-3.5 19.5-7.5 40-20.3 55.9-10.9 13.5-27.9 22.1-45.3 17.1-8.2-2.3-15.1-7.6-19-15.3-4.3-8.5-4.8-18.4-5.1-27.7-0.9-21.9-2.5-43.7-3.3-65.6-0.8-24.7-0.3-49.6 4.4-74 0.1-0.9-1.3-1.3-1.5-0.4z"/>
			</g>
		</g>
		<path id="&lt;Path&gt;" class="s5" d="m560.9 396.6c-1.1-2.9-8.2-18.2-8.2-18.2 1-7.4 3-21.2 4.3-28.2 1.8-9.7 0.8-19.2-7.2-25.6-8-6.5-11.9-5.8-13.6-5.8-1.8-0.1-6.4 1.6-4 5.2 2.4 3.7 10.6 6.6 12.3 9.5 1.7 3 1.1 8.2 1.1 8.2-2.2-4.8-11-3.7-11-3.7-6.5 1.3-3.3 8.9-3.3 8.9-7.3 2.8-1.3 9.8-1.3 9.8 0 0-8.9 10.6-5 14 3.8 3.5 11.2-3.2 11.2-3.2l-2.2 18.1c0 0-0.6 14 2.7 16.3 3.3 2.3 25.2-2.3 24.2-5.3z"/>
		<path id="&lt;Path&gt;" class="s24" d="m560.9 396.6c-1.1-2.9-8.2-18.2-8.2-18.2 1-7.4 3-21.2 4.3-28.2 1.8-9.7 0.8-19.2-7.2-25.6-8-6.5-11.9-5.8-13.6-5.8-1.8-0.1-6.4 1.6-4 5.2 2.4 3.7 10.6 6.6 12.3 9.5 1.7 3 1.1 8.2 1.1 8.2-2.2-4.8-11-3.7-11-3.7-6.5 1.3-3.3 8.9-3.3 8.9-7.3 2.8-1.3 9.8-1.3 9.8 0 0-8.9 10.6-5 14 3.8 3.5 11.2-3.2 11.2-3.2l-2.2 18.1c0 0-0.6 14 2.7 16.3 3.3 2.3 25.2-2.3 24.2-5.3z"/>
		<path id="&lt;Path&gt;" class="s5" d="m435.9 340.5c5.3 0 20.6 12.7 24.1 27.9 3.4 15.2 19.7 62.7 14.6 65.6-5.2 2.9-58.4 19.3-60.6 15.6-2.1-3.7-3.4-48.4-3-61.5 0.5-13.2 11.6-47.6 24.9-47.6z"/>
		<path id="&lt;Path&gt;" class="s6" d="m435.9 340.5c5.3 0 20.6 12.7 24.1 27.9 3.4 15.2 19.7 62.7 14.6 65.6-5.2 2.9-58.4 19.3-60.6 15.6-2.1-3.7-3.4-48.4-3-61.5 0.5-13.2 11.6-47.6 24.9-47.6z"/>
		<g id="&lt;Group&gt;" style="opacity: .2">
			<g id="&lt;Group&gt;">
				<path id="&lt;Path&gt;" class="s11" d="m475.9 427q-2.9-14.1-5.8-28.1c-1.8-8.6-3.3-17.4-5.7-25.8-3.9-13.8-11.8-27.4-26.1-32.2-0.9-0.3-1.3 1.2-0.4 1.5 15.1 5.1 22.4 20.1 26 34.6 4.1 16.6 7.1 33.6 10.5 50.4 0.2 0.9 1.7 0.5 1.5-0.4z"/>
			</g>
		</g>
		<path id="&lt;Path&gt;" class="s19" d=""/>
		<path id="&lt;Path&gt;" class="s5" d="m573.5 491c0 0 33.8-2.5 38.5-6.1 4.7-3.7 6.4-21.7 6.4-21.7 0 0 7.8-1 9.7-4.2 1.9-3.1-2.7-4.8-2.7-4.8 0 0 1.8-2.6 0.9-4.4-0.8-1.8-18.2-4.3-27-1-8.8 3.3-32.7 18.6-32.7 18.6 0 0-18-3.6-19.4-1.1-1.4 2.6 8.1 31.5 12 30.7 3.9-0.8 14.3-6 14.3-6z"/>
		<path id="&lt;Path&gt;" class="s24" d="m573.5 491c0 0 33.8-2.5 38.5-6.1 4.7-3.7 6.4-21.7 6.4-21.7 0 0 7.8-1 9.7-4.2 1.9-3.1-2.7-4.8-2.7-4.8 0 0 1.8-2.6 0.9-4.4-0.8-1.8-18.2-4.3-27-1-8.8 3.3-32.7 18.6-32.7 18.6 0 0-18-3.6-19.4-1.1-1.4 2.6 8.1 31.5 12 30.7 3.9-0.8 14.3-6 14.3-6z"/>
	</g>
</svg>