<svg version="1.2" xmlns="http://www.w3.org/2000/svg" viewBox="0 0 1000 1000" width="1000" height="1000">
	<title>9462243</title>
	<style>
		.s0 { fill: #f0f0f0 } 
		.s1 { fill: #e6e6e6 } 
		.s2 { fill: #e0e0e0 } 
		.s3 { fill: #ffffff } 
		.s4 { fill: #ebebeb } 
		.s5 { fill: #f5f5f5 } 
		.s6 { fill: #263238 } 
		.s7 { opacity: .5;fill: #ffffff } 
		.s8 { opacity: .3;fill: #000000 } 
		.s9 { fill: #407bff } 
		.s10 { fill: none;stroke: #263238;stroke-linecap: round;stroke-linejoin: round;stroke-width: 1.5 } 
		.s11 { opacity: .6;fill: #ffffff } 
		.s12 { fill: none;stroke: #407bff;stroke-miterlimit:10;stroke-width: 8 } 
		.s13 { opacity: .4;fill: #000000 } 
		.s14 { fill: #000000 } 
		.s15 { opacity: .7;fill: #ffffff } 
		.s16 { fill: #b97964 } 
		.s17 { fill: none;stroke: #407bff;stroke-linecap: round;stroke-linejoin: round } 
		.s18 { opacity: .2;fill: #000000 } 
		.s19 { fill: #a24e3f } 
		.s20 { opacity: .2;fill: none;stroke: #000000;stroke-linecap: round;stroke-linejoin: round } 
		.s21 { fill: none;stroke: #a24e3f;stroke-linecap: round;stroke-linejoin: round } 
	</style>
	<g id="Background complete">
		<g id="&lt;Group&gt;">
			<path id="&lt;Compound Path&gt;" fill-rule="evenodd" class="s0" d="m463.9 754.3l9.9-9.9 5.6 4.6c4-2.6 8.4-4.4 12.9-5.3l0.7-7.3h14l0.7 7.3c4.5 0.9 8.9 2.7 12.9 5.3l5.6-4.6 9.9 9.9-4.6 5.6c2.6 4 4.4 8.4 5.3 12.9l7.3 0.7v14l-7.3 0.7c-0.9 4.5-2.7 8.9-5.3 12.9l4.6 5.6-9.9 9.9-5.6-4.6c-4 2.6-8.4 4.4-12.9 5.3l-0.7 7.2h-14l-0.7-7.2c-4.5-0.9-8.9-2.7-12.9-5.3l-5.6 4.6-9.9-9.9 4.6-5.6c-2.6-4-4.4-8.4-5.3-12.9l-7.3-0.7v-14l7.3-0.7c0.9-4.5 2.7-8.9 5.3-12.9zm24 12.6c-7 7-7 18.4 0 25.4 7 7 18.4 7 25.4 0 7-7 7-18.4 0-25.4-7-7-18.4-7-25.4 0z"/>
		</g>
		<g id="&lt;Group&gt;">
			<path id="&lt;Compound Path&gt;" fill-rule="evenodd" class="s0" d="m82.9 323.8l9.9-9.9 5.6 4.6c4-2.6 8.4-4.4 12.9-5.3l0.7-7.2h14l0.7 7.2c4.5 0.9 8.9 2.7 12.9 5.3l5.6-4.6 9.9 9.9-4.6 5.6c2.6 4 4.4 8.4 5.3 12.9l7.3 0.7v14l-7.3 0.7c-0.9 4.5-2.7 8.9-5.3 12.9l4.6 5.6-9.9 9.9-5.6-4.6c-4 2.6-8.4 4.4-12.9 5.3l-0.7 7.3h-14l-0.7-7.3c-4.5-0.9-8.9-2.7-12.9-5.3l-5.6 4.6-9.9-9.9 4.6-5.6c-2.6-4-4.4-8.4-5.3-12.9l-7.2-0.7v-14l7.2-0.7c0.9-4.5 2.7-8.9 5.3-12.9zm24 12.6c-7 7-7 18.4 0 25.4 7 7 18.4 7 25.4 0 7-7 7-18.4 0-25.4-7-7-18.4-7-25.4 0z"/>
		</g>
		<g id="&lt;Group&gt;">
			<path id="&lt;Compound Path&gt;" fill-rule="evenodd" class="s1" d="m382.3 647.8l12.3-12.3 7 5.7c5-3.3 10.5-5.5 16.1-6.6l0.9-9h17.4l0.9 9c5.6 1.1 11.1 3.3 16.1 6.6l6.9-5.7 12.4 12.3-5.8 7c3.3 5 5.5 10.4 6.7 16.1l9 0.8v17.5l-9 0.8c-1.2 5.7-3.4 11.2-6.7 16.2l5.8 6.9-12.4 12.3-6.9-5.7c-5 3.3-10.5 5.5-16.1 6.7l-0.9 9h-17.4l-0.9-9c-5.6-1.2-11.1-3.4-16.1-6.7l-7 5.7-12.3-12.3 5.8-6.9c-3.3-5-5.5-10.5-6.7-16.2l-9-0.8v-17.5l9-0.8c1.2-5.7 3.4-11.1 6.7-16.1zm29.9 15.7c-8.8 8.8-8.8 22.9 0 31.6 8.7 8.8 22.8 8.8 31.6 0 8.7-8.7 8.7-22.8 0-31.6-8.8-8.7-22.9-8.7-31.6 0z"/>
		</g>
		<g id="&lt;Group&gt;">
			<path id="&lt;Compound Path&gt;" fill-rule="evenodd" class="s2" d="m502.2 585l23.6-17.9 10.3 11.3c9.2-4.4 18.9-6.8 28.7-7.5l3.5-14.9 29.4 4-0.7 15.4c9.2 3.3 17.9 8.2 25.6 14.9l13-8 17.9 23.6-11.3 10.3c4.3 9.2 6.8 18.9 7.4 28.7l15 3.5-4.1 29.3-15.3-0.6c-3.3 9.2-8.3 17.9-14.9 25.6l8 13-23.6 17.9-10.3-11.3c-9.2 4.3-18.9 6.8-28.7 7.4l-3.5 15-29.4-4.1 0.7-15.3c-9.2-3.3-18-8.3-25.6-14.9l-13 8-17.9-23.6 11.3-10.3c-4.4-9.2-6.8-18.9-7.5-28.7l-14.9-3.5 4-29.4 15.4 0.7c3.3-9.3 8.2-18 14.9-25.6zm46.7 33.5c-16.7 12.6-20 36.4-7.4 53.1 12.7 16.7 36.5 20 53.2 7.4 16.7-12.7 20-36.5 7.3-53.2-12.6-16.7-36.4-20-53.1-7.3z"/>
		</g>
		<g id="&lt;Group&gt;">
			<path id="&lt;Compound Path&gt;" fill-rule="evenodd" class="s2" d="m278.8 170.8l18.5-23.2 12.8 8.4c7.8-6.4 16.6-11.2 26-14.2l-0.3-15.4 29.4-3.2 3.2 15c9.7 0.9 19.4 3.6 28.4 8.2l10.7-11 23.1 18.5-8.4 12.8c6.5 7.8 11.2 16.6 14.3 26l15.3-0.3 3.3 29.5-15.1 3.1c-0.9 9.7-3.6 19.4-8.2 28.4l11 10.7-18.5 23.1-12.8-8.4c-7.8 6.5-16.6 11.2-25.9 14.3l0.2 15.3-29.4 3.3-3.1-15c-9.8-1-19.5-3.7-28.5-8.3l-10.6 11.1-23.2-18.5 8.4-12.9c-6.4-7.8-11.2-16.6-14.2-25.9l-15.4 0.2-3.3-29.4 15.1-3.1c0.9-9.8 3.6-19.5 8.2-28.5zm53.4 21c-13.1 16.4-10.4 40.3 5.9 53.4 16.4 13 40.3 10.4 53.4-6 13.1-16.3 10.4-40.2-5.9-53.3-16.4-13.1-40.3-10.5-53.4 5.9z"/>
		</g>
		<g id="&lt;Group&gt;">
			<path id="&lt;Path&gt;" class="s2" d="m870.8 237.8c12.2 69.2-34.1 135.1-103.3 147.2-69.1 12.1-135-34.1-147.2-103.3-12.1-69.1 34.2-135 103.3-147.2 69.2-12.1 135.1 34.2 147.2 103.3z"/>
			<path id="&lt;Path&gt;" class="s3" d="m846.6 242.1c9.7 55.8-27.6 108.9-83.3 118.6-55.8 9.8-108.9-27.5-118.7-83.2-9.7-55.8 27.5-108.9 83.3-118.7 55.8-9.8 108.9 27.5 118.7 83.3z"/>
			<path id="&lt;Path&gt;" class="s0" d="m816.2 247.4c6.9 39-19.2 76.2-58.2 83-39 6.9-76.2-19.2-83.1-58.2-6.8-39.1 19.3-76.2 58.3-83.1 39-6.8 76.2 19.3 83 58.3z"/>
			<path id="&lt;Path&gt;" class="s2" d="m790.3 251.9c4.3 24.7-12.2 48.3-36.9 52.6-24.7 4.3-48.2-12.2-52.5-36.9-4.3-24.7 12.2-48.2 36.9-52.5 24.6-4.4 48.2 12.2 52.5 36.8z"/>
			<path id="&lt;Path&gt;" class="s0" d="m763.2 256.3c1.7 9.8-4.8 19-14.6 20.7-9.7 1.7-19-4.8-20.7-14.5-1.7-9.7 4.8-19 14.5-20.7 9.8-1.7 19 4.8 20.8 14.5z"/>
			<path id="&lt;Path&gt;" class="s4" d="m861.4 168.3l0.1-5.1c0.1-3.7 1.8-7.3 4.8-9.6l15.2-12.4-3 13.9z"/>
			<path id="&lt;Path&gt;" class="s4" d="m861.3 167.6l4.9 1.5c3.6 1.1 7.5 0.6 10.6-1.4l16.6-10.6-14.1-1.5z"/>
			<g id="&lt;Group&gt;">
				<g id="&lt;Group&gt;">
					<path id="&lt;Path&gt;" class="s2" d="m746.9 259.9q6.9-5.3 13.7-10.6 16.3-12.6 32.6-25.3 19.9-15.4 39.7-30.8 17.2-13.3 34.4-26.6 5.6-4.4 11.3-8.8c1.7-1.3 3.8-2.6 5.4-4.1q0.1-0.1 0.2-0.2c2.3-1.8-0.9-4.9-3.2-3.2q-6.8 5.3-13.7 10.6-16.3 12.7-32.6 25.3-19.9 15.4-39.7 30.8-17.2 13.3-34.3 26.6-5.7 4.4-11.4 8.8c-1.7 1.4-3.7 2.6-5.3 4.2q-0.1 0.1-0.3 0.2c-2.2 1.7 1 4.9 3.2 3.1z"/>
				</g>
			</g>
		</g>
		<g id="&lt;Group&gt;">
			<g id="&lt;Group&gt;">
				<g id="&lt;Group&gt;">
					<g id="&lt;Group&gt;">
						<g id="&lt;Group&gt;">
							<path id="&lt;Compound Path&gt;" fill-rule="evenodd" class="s2" d="m887.8 642.4h-361.5c-6.4 0-11.7-5.3-11.7-11.7v-526.6c0-6.4 5.3-11.7 11.7-11.7h361.5c6.5 0 11.8 5.3 11.8 11.7v526.6c0 6.4-5.3 11.7-11.8 11.7zm-361.5-549.5c-6.1 0-11.2 5-11.2 11.2v526.6c0 6.2 5.1 11.2 11.2 11.2h361.5c6.2 0 11.3-5 11.3-11.2v-526.6c0-6.2-5.1-11.2-11.3-11.2z"/>
						</g>
					</g>
					<g id="&lt;Group&gt;">
						<g id="&lt;Group&gt;">
							<path id="&lt;Compound Path&gt;" fill-rule="evenodd" class="s2" d="m471 642.4h-361.5c-6.5 0-11.7-5.3-11.7-11.7v-526.6c0-6.4 5.2-11.7 11.7-11.7h361.5c6.5 0 11.7 5.3 11.7 11.7v526.6c0 6.4-5.2 11.7-11.7 11.7zm-361.5-549.5c-6.2 0-11.2 5-11.2 11.2v526.6c0 6.2 5 11.2 11.2 11.2h361.5c6.2 0 11.2-5 11.2-11.2v-526.6c0-6.2-5-11.2-11.2-11.2z"/>
						</g>
					</g>
				</g>
				<g id="&lt;Group&gt;">
					<g id="&lt;Group&gt;">
						<path id="&lt;Path&gt;" class="s2" d="m1000 765h-1000v-0.5h1000z"/>
					</g>
				</g>
			</g>
			<path id="&lt;Path&gt;" class="s2" d="m103.3 793.1h32.2v0.5h-32.2z"/>
			<path id="&lt;Path&gt;" class="s2" d="m340.7 787.6h107.1v0.5h-107.1z"/>
			<path id="&lt;Path&gt;" class="s2" d="m137.5 811.6h72.5v0.5h-72.5z"/>
			<path id="&lt;Path&gt;" class="s2" d="m756.7 787.4h86.4v0.5h-86.4z"/>
			<path id="&lt;Path&gt;" class="s2" d="m860.9 787.4h12.7v0.5h-12.7z"/>
			<path id="&lt;Path&gt;" class="s2" d="m632.4 799.8h107.8v0.5h-107.8z"/>
		</g>
	</g>
	<g id="Shadow 2">
		<g id="&lt;Group&gt;">
			<g id="&lt;Group&gt;">
				<path id="&lt;Path&gt;" class="s5" d="m917.8 937.6c0 17.2-187.1 31.1-417.8 31.1-230.7 0-417.7-13.9-417.7-31.1 0-17.1 187-31 417.7-31 230.7 0 417.8 13.9 417.8 31z"/>
			</g>
		</g>
	</g>
	<g id="Sign">
		<g id="&lt;Group&gt;">
			<g id="&lt;Group&gt;">
				<path id="&lt;Path&gt;" class="s6" d="m804.7 920.9h-21.7v-421.8h21.7z"/>
				<path id="&lt;Path&gt;" class="s7" d="m804.7 920.9h-21.7v-421.8h21.7z"/>
			</g>
			<path id="&lt;Path&gt;" class="s8" d="m804.7 520.5h-21.7v-15h21.7z"/>
			<g id="&lt;Group&gt;">
				<path id="&lt;Path&gt;" class="s9" d="m693.4 511.2l194.9 0.1c0.2 0 0.5-0.1 0.6-0.2l31.3-34c0.2-0.3 0.3-6.4 0.1-6.7l-32.7-28.1c-0.1-0.1-0.3-0.2-0.6-0.2h-193.6c-0.5 0-0.8 0.3-0.8 0.7v67.7c0 0.4 0.3 0.7 0.8 0.7z"/>
				<path id="&lt;Path&gt;" class="s8" d="m693.4 511.2l194.9 0.1c0.2 0 0.5-0.1 0.6-0.2l31.3-34c0.2-0.3 0.3-6.4 0.1-6.7l-32.7-28.1c-0.1-0.1-0.3-0.2-0.6-0.2h-193.6c-0.5 0-0.8 0.3-0.8 0.7v67.7c0 0.4 0.3 0.7 0.8 0.7z"/>
				<path id="&lt;Path&gt;" class="s9" d="m693.4 506.2h193.6c0.3 0 0.5-0.1 0.6-0.3l32.6-34.8c0.2-0.3 0.2-0.6 0-0.9l-32.6-34.8c-0.1-0.2-0.3-0.3-0.6-0.3h-193.6c-0.5 0-0.8 0.3-0.8 0.7v69.7c0 0.4 0.3 0.7 0.8 0.7z"/>
				<g id="&lt;Group&gt;">
					<g id="&lt;Group&gt;">
						<path id="&lt;Path&gt;" class="s6" d="m704.6 443.2c0 1.5-1.2 2.7-2.7 2.7-1.5 0-2.7-1.2-2.7-2.7 0-1.5 1.2-2.7 2.7-2.7 1.5 0 2.7 1.2 2.7 2.7z"/>
						<path id="&lt;Path&gt;" class="s7" d="m704.6 443.2c0 1.5-1.2 2.7-2.7 2.7-1.5 0-2.7-1.2-2.7-2.7 0-1.5 1.2-2.7 2.7-2.7 1.5 0 2.7 1.2 2.7 2.7z"/>
					</g>
					<g id="&lt;Group&gt;">
						<path id="&lt;Path&gt;" class="s6" d="m704.6 496.8c0 1.5-1.2 2.7-2.7 2.7-1.5 0-2.7-1.2-2.7-2.7 0-1.5 1.2-2.7 2.7-2.7 1.5 0 2.7 1.2 2.7 2.7z"/>
						<path id="&lt;Path&gt;" class="s7" d="m704.6 496.8c0 1.5-1.2 2.7-2.7 2.7-1.5 0-2.7-1.2-2.7-2.7 0-1.5 1.2-2.7 2.7-2.7 1.5 0 2.7 1.2 2.7 2.7z"/>
					</g>
				</g>
				<g id="&lt;Group&gt;">
					<g id="&lt;Group&gt;">
						<path id="&lt;Path&gt;" class="s6" d="m885.7 443.2c0 1.5-1.2 2.7-2.7 2.7-1.5 0-2.7-1.2-2.7-2.7 0-1.5 1.2-2.7 2.7-2.7 1.5 0 2.7 1.2 2.7 2.7z"/>
						<path id="&lt;Path&gt;" class="s7" d="m885.7 443.2c0 1.5-1.2 2.7-2.7 2.7-1.5 0-2.7-1.2-2.7-2.7 0-1.5 1.2-2.7 2.7-2.7 1.5 0 2.7 1.2 2.7 2.7z"/>
					</g>
					<g id="&lt;Group&gt;">
						<path id="&lt;Path&gt;" class="s6" d="m885.7 496.8c0 1.5-1.2 2.7-2.7 2.7-1.5 0-2.7-1.2-2.7-2.7 0-1.5 1.2-2.7 2.7-2.7 1.5 0 2.7 1.2 2.7 2.7z"/>
						<path id="&lt;Path&gt;" class="s7" d="m885.7 496.8c0 1.5-1.2 2.7-2.7 2.7-1.5 0-2.7-1.2-2.7-2.7 0-1.5 1.2-2.7 2.7-2.7 1.5 0 2.7 1.2 2.7 2.7z"/>
					</g>
				</g>
			</g>
			<g id="&lt;Group&gt;" style="opacity: .2">
				<path id="&lt;Path&gt;" class="s3" d="m833.5 435.1c0 0-17.6 9.1-35.4 19.9-14.3 8.7-44.6 30.3-32.2 39.2 12.5 8.9 15.5 12.1 14.8 12.1-0.7-0.1-24 0-24 0 0 0-8.6-14.8 0-26.7 8.6-11.9 27.1-22.7 30-33.7 2.8-11-6-11-6-11z"/>
			</g>
			<g id="&lt;Group&gt;">
				<g id="&lt;Group&gt;" style="opacity: .2">
					<path id="&lt;Path&gt;" class="s3" d="m804.7 604.8l-21.7 29.1v25.8l21.7-28.9z"/>
				</g>
				<g id="&lt;Group&gt;" style="opacity: .2">
					<path id="&lt;Path&gt;" class="s3" d="m804.7 654.4l-21.7 29v9.7l21.7-28z"/>
				</g>
			</g>
			<g id="&lt;Group&gt;">
				<g id="&lt;Group&gt;">
					<path id="&lt;Path&gt;" class="s9" d="m884.9 639.2l-184.6 0.1c-0.2 0-0.4-0.1-0.6-0.2l-29.6-32.2c-0.2-0.3-0.3-6.1-0.1-6.3l30.9-26.6c0.2-0.2 0.4-0.3 0.6-0.3h183.4c0.5 0 0.8 0.3 0.8 0.7v64.1c0 0.4-0.3 0.7-0.8 0.7z"/>
					<path id="&lt;Path&gt;" class="s8" d="m884.9 639.2l-184.6 0.1c-0.2 0-0.4-0.1-0.6-0.2l-29.6-32.2c-0.2-0.3-0.3-6.1-0.1-6.3l30.9-26.6c0.2-0.2 0.4-0.3 0.6-0.3h183.4c0.5 0 0.8 0.3 0.8 0.7v64.1c0 0.4-0.3 0.7-0.8 0.7z"/>
					<path id="&lt;Path&gt;" class="s9" d="m884.9 634.4h-183.4c-0.2 0-0.4-0.1-0.6-0.2l-30.8-33c-0.2-0.3-0.2-0.6 0-0.8l30.8-33c0.2-0.2 0.4-0.3 0.6-0.3h183.4c0.5 0 0.8 0.3 0.8 0.7v66c0 0.3-0.3 0.6-0.8 0.6z"/>
					<g id="&lt;Group&gt;">
						<g id="&lt;Group&gt;">
							<path id="&lt;Path&gt;" class="s6" d="m874.3 574.8c0 1.4 1.2 2.5 2.6 2.5 1.4 0 2.5-1.1 2.5-2.5 0-1.4-1.1-2.6-2.5-2.6-1.4 0-2.6 1.2-2.6 2.6z"/>
							<path id="&lt;Path&gt;" class="s7" d="m874.3 574.8c0 1.4 1.2 2.5 2.6 2.5 1.4 0 2.5-1.1 2.5-2.5 0-1.4-1.1-2.6-2.5-2.6-1.4 0-2.6 1.2-2.6 2.6z"/>
						</g>
						<g id="&lt;Group&gt;">
							<path id="&lt;Path&gt;" class="s6" d="m874.3 625.6c0 1.4 1.2 2.5 2.6 2.5 1.4 0 2.5-1.1 2.5-2.5 0-1.5-1.1-2.6-2.5-2.6-1.4 0-2.6 1.1-2.6 2.6z"/>
							<path id="&lt;Path&gt;" class="s7" d="m874.3 625.6c0 1.4 1.2 2.5 2.6 2.5 1.4 0 2.5-1.1 2.5-2.5 0-1.5-1.1-2.6-2.5-2.6-1.4 0-2.6 1.1-2.6 2.6z"/>
						</g>
					</g>
					<g id="&lt;Group&gt;">
						<g id="&lt;Group&gt;">
							<path id="&lt;Path&gt;" class="s6" d="m702.8 574.8c0 1.4 1.1 2.5 2.5 2.5 1.5 0 2.6-1.1 2.6-2.5 0-1.4-1.1-2.6-2.6-2.6-1.4 0-2.5 1.2-2.5 2.6z"/>
							<path id="&lt;Path&gt;" class="s7" d="m702.8 574.8c0 1.4 1.1 2.5 2.5 2.5 1.5 0 2.6-1.1 2.6-2.5 0-1.4-1.1-2.6-2.6-2.6-1.4 0-2.5 1.2-2.5 2.6z"/>
						</g>
						<g id="&lt;Group&gt;">
							<path id="&lt;Path&gt;" class="s6" d="m702.8 625.6c0 1.4 1.1 2.5 2.5 2.5 1.5 0 2.6-1.1 2.6-2.5 0-1.5-1.1-2.6-2.6-2.6-1.4 0-2.5 1.1-2.5 2.6z"/>
							<path id="&lt;Path&gt;" class="s7" d="m702.8 625.6c0 1.4 1.1 2.5 2.5 2.5 1.5 0 2.6-1.1 2.6-2.5 0-1.5-1.1-2.6-2.6-2.6-1.4 0-2.5 1.1-2.5 2.6z"/>
						</g>
					</g>
				</g>
				<g id="&lt;Group&gt;" style="opacity: .2">
					<path id="&lt;Path&gt;" class="s3" d="m752.2 567.1c0 0 16.7 8.6 33.5 18.8 13.6 8.3 42.3 28.7 30.5 37.2-11.8 8.4-14.7 11.4-14 11.4 0.7 0 22.8 0 22.8 0 0 0 8.2-14 0-25.3-8.2-11.3-25.7-21.5-28.4-31.9-2.7-10.3 5.6-10.4 5.6-10.4z"/>
				</g>
			</g>
		</g>
	</g>
	<g id="Plant">
		<g id="&lt;Group&gt;">
			<g id="&lt;Group&gt;">
				<path id="&lt;Path&gt;" class="s9" d="m758 876c-1.4-2.3-4.5-5.2-6.7-6.8-2.1-1.7-5.1-2.5-7.6-1.4-3.2 1.3-4.7 5.2-4.3 8.6 0.5 3.5 2.1 7.8 4.1 10.7 8.3 12.2 16.1 23.4 28.9 32.5 0-15.2-6.7-30.6-14.4-43.6z"/>
			</g>
			<g id="&lt;Group&gt;">
				<path id="&lt;Path&gt;" class="s9" d="m800.5 878.1c-2.9-1.6-8.2 0.7-10.9 2.6-5.2 4-8.4 8-11.5 13.7-4.1 7.3-4.5 17.4-5.1 23.8 10.2-8.2 20.6-16.7 27.6-27.9 1.2-1.9 2.4-4 2.6-6.3 0.2-2.3-0.7-4.8-2.7-5.9z"/>
			</g>
			<path id="&lt;Path&gt;" class="s10" d="m761.2 893.8c6 9.7 10.4 20.5 12.8 31.7"/>
			<path id="&lt;Path&gt;" class="s10" d="m784.4 898.7c-5.1 6.1-9.1 13.1-11.8 20.5"/>
		</g>
	</g>
	<g id="Speech Bubble">
		<g id="&lt;Group&gt;">
			<g id="&lt;Group&gt;">
				<path id="&lt;Path&gt;" class="s9" d="m222.6 181.9c12.2-5.9 16.6-22.9 10.6-35.1-6.1-12.1-20.4-18.9-34-18.2-13.5 0.7-26.2 7.8-35.9 17.3-9.7-11.9-29.3-14-41.3-4.5-11.9 9.3-9.9 28.5-1 40.7-10.4 5.1-17.4 17.6-14.8 29.1 3.1 14.2 19.9 23.6 33.7 18.9-0.1 18.4 16.4 35.2 34.8 35.6 18.3 0.4 35.5-15.7 36.3-34 14 6.5 32.9-2.7 36.4-17.8 3.5-15-9.4-31.6-24.8-32z"/>
			</g>
			<path id="&lt;Path&gt;" class="s9" d="m235.6 254.7c0 4.3-3.5 7.8-7.8 7.8-4.3 0-7.8-3.5-7.8-7.8 0-4.3 3.5-7.8 7.8-7.8 4.3 0 7.8 3.5 7.8 7.8z"/>
			<g id="&lt;Group&gt;" style="opacity: .6">
				<path id="&lt;Path&gt;" class="s3" d="m222.6 181.9c12.2-5.9 16.6-22.9 10.6-35.1-6.1-12.1-20.4-18.9-34-18.2-13.5 0.7-26.2 7.8-35.9 17.3-9.7-11.9-29.3-14-41.3-4.5-11.9 9.3-9.9 28.5-1 40.7-10.4 5.1-17.4 17.6-14.8 29.1 3.1 14.2 19.9 23.6 33.7 18.9-0.1 18.4 16.4 35.2 34.8 35.6 18.3 0.4 35.5-15.7 36.3-34 14 6.5 32.9-2.7 36.4-17.8 3.5-15-9.4-31.6-24.8-32z"/>
			</g>
			<path id="&lt;Path&gt;" class="s11" d="m235.6 254.7c0 4.3-3.5 7.8-7.8 7.8-4.3 0-7.8-3.5-7.8-7.8 0-4.3 3.5-7.8 7.8-7.8 4.3 0 7.8 3.5 7.8 7.8z"/>
			<g id="&lt;Group&gt;">
				<path id="&lt;Compound Path&gt;" class="s9" d="m174.8 199.4q1.7-2.7 4.8-6.1 2.3-2.4 3.4-4.1 1-1.7 1-3.8 0-3-2-4.8-2.1-1.7-5.5-1.7-3.2 0-5.8 1.5-2.5 1.6-4.3 4.5l-8.4-5.8q2.9-5.2 7.9-8.1 5-2.9 11.8-2.9 8 0 12.8 4 4.9 4.1 4.9 11.2 0 3.3-1 5.8-0.9 2.6-2.3 4.3-1.3 1.8-3.5 4.1-2.5 2.7-3.7 4.5-1.2 1.9-1.2 4.5h-10.5q0-4.3 1.6-7.1zm-1.1 24.8q-1.9-1.9-1.9-4.7 0-2.8 1.9-4.6 1.8-1.9 4.8-1.9 2.9 0 4.8 1.9 1.8 1.8 1.8 4.6 0 2.8-1.9 4.7-1.9 2-4.7 2-2.9 0-4.8-2z"/>
			</g>
		</g>
	</g>
	<g id="Compass">
		<g id="&lt;Group&gt;">
			<g id="&lt;Group&gt;">
				<path id="&lt;Path&gt;" class="s12" d="m612 106.7c-4.5 26.9-30 45.1-56.9 40.6-26.9-4.5-45.1-30-40.6-56.9 4.5-27 30-45.1 56.9-40.6 27 4.5 45.2 30 40.6 56.9z"/>
				<path id="&lt;Path&gt;" class="s9" d="m767.6 456.9c-24 143.2-159.5 239.9-302.8 215.9-143.2-24-239.9-159.5-215.9-302.8 24-143.2 159.6-239.9 302.8-215.9 143.3 24 239.9 159.5 215.9 302.8z"/>
				<path id="&lt;Path&gt;" class="s7" d="m767.6 456.9c-24 143.2-159.5 239.9-302.8 215.9-143.2-24-239.9-159.5-215.9-302.8 24-143.2 159.6-239.9 302.8-215.9 143.3 24 239.9 159.5 215.9 302.8z"/>
				<g id="&lt;Group&gt;" style="opacity: .5">
					<g id="&lt;Group&gt;">
						<path id="&lt;Path&gt;" class="s3" d="m754.2 453.7c-4.3 25.7-12.5 50.8-24.6 74-11.6 22.2-26.6 42.7-44.3 60.5-17.6 17.6-37.8 32.6-59.8 44.4-22.1 11.7-45.9 20.1-70.5 24.8-25.5 4.8-51.7 5.5-77.5 2.3-26-3.3-51.6-10.8-75.4-22-22.7-10.8-43.7-25-62.2-42.1-18.2-16.9-33.9-36.5-46.4-58-12.6-21.7-21.9-45.2-27.4-69.7-5.8-25.2-7.5-51.2-5.2-76.9 2.3-26.1 8.7-52 19.1-76.1 9.9-23.3 23.5-45.1 40-64.3 16.2-18.8 35.2-35.2 56.3-48.4 21.2-13.4 44.3-23.5 68.6-29.9 24.7-6.6 50.3-9.3 75.9-8.1 26.3 1.3 52.5 6.8 77.2 16.2 23.8 9.1 46.2 21.9 66 37.9 19.4 15.5 36.5 33.9 50.5 54.5 14.1 20.7 25 43.4 32.3 67.3 7.5 24.4 11.1 49.8 10.8 75.3-0.1 12.8-1.3 25.6-3.4 38.3-0.4 2.8 3.9 4 4.4 1.2 4.3-26.2 4.7-52.9 0.8-79.1-3.7-25.5-11.4-50.3-22.6-73.4-11-22.8-25.5-43.9-42.8-62.4-17.3-18.7-37.6-34.7-59.7-47.4-22.9-13-47.9-22.4-73.6-27.8-26.2-5.4-53.3-6.8-79.9-3.8-25.5 2.8-50.4 9.5-73.9 19.9-23.2 10.1-44.8 23.9-64 40.4-19.3 16.7-36 36.3-49.4 57.9-13.8 22.2-24.1 46.7-30.5 72.1-6.5 26-8.9 53.1-6.9 79.9 1.9 25.7 7.6 51.1 17.2 75 9.4 23.5 22.2 45.6 38.1 65.3 16 20 35 37.4 56.2 51.7 21.6 14.5 45.5 25.6 70.5 32.9 25.8 7.4 52.7 10.8 79.5 9.9 25.8-0.9 51.5-5.7 75.8-14.4 23.9-8.5 46.5-20.6 66.8-35.8 20.5-15.2 38.5-33.5 53.6-54.1 15.3-21 27.2-44.3 35.4-68.9 4.1-12.4 7.2-25.1 9.4-37.9 0.5-2.9-3.9-4.1-4.4-1.2z"/>
					</g>
				</g>
				<path id="&lt;Path&gt;" class="s3" d="m733.7 451.2c-20.8 124.5-138.7 208.6-263.2 187.7-124.5-20.9-208.5-138.7-187.7-263.2 20.9-124.5 138.7-208.6 263.2-187.7 124.5 20.8 208.6 138.7 187.7 263.2z"/>
				<path id="&lt;Path&gt;" class="s9" d="m586.6 169.5l-68.5-11.5 7.2-43.2 68.6 11.5z"/>
				<path id="&lt;Path&gt;" class="s7" d="m586.6 169.5l-68.5-11.5 7.2-43.2 68.6 11.5z"/>
				<path id="&lt;Path&gt;" class="s2" d="m432.7 314l49.9 92.8 21-15.8z"/>
				<path id="&lt;Path&gt;" class="s5" d="m401.4 486.9l94.1-47.5-15.2-21.4z"/>
				<path id="&lt;Path&gt;" class="s5" d="m610.4 348.4l-94.1 47.5 15.2 21.4z"/>
				<path id="&lt;Path&gt;" class="s4" d="m533.8 243.9l-38.9 141.7 35.1 5.4z"/>
				<path id="&lt;Path&gt;" class="s2" d="m581.8 512.4l-49.9-92.8-21.1 15.8z"/>
				<path id="&lt;Path&gt;" class="s4" d="m483.6 578.1l38.8-141.7-35.1-5.3z"/>
				<path id="&lt;Path&gt;" class="s4" d="m671.4 434.5l-142.5-35.6-4.6 35.2z"/>
				<path id="&lt;Path&gt;" class="s4" d="m341.2 384.3l140.5 42.7 6.4-35z"/>
				<g id="&lt;Group&gt;">
					<g id="&lt;Group&gt;">
						<path id="&lt;Path&gt;" class="s6" d="m662.3 306.9q12-8 24.1-16c1.4-0.9 2-2.7 1.1-4.1-0.8-1.3-2.7-2-4.1-1.1q-12.1 8-24.2 16c-1.3 0.9-1.9 2.6-1.1 4.1 0.8 1.3 2.8 2 4.2 1.1z"/>
					</g>
				</g>
				<g id="&lt;Group&gt;">
					<g id="&lt;Group&gt;">
						<path id="&lt;Path&gt;" class="s6" d="m330.6 528.3q12.1-8 24.2-16c1.3-0.9 1.9-2.6 1-4.1-0.7-1.3-2.7-1.9-4.1-1q-12 7.9-24.1 15.9c-1.4 0.9-2 2.7-1.1 4.1 0.8 1.4 2.7 2 4.1 1.1z"/>
					</g>
				</g>
				<g id="&lt;Group&gt;">
					<g id="&lt;Group&gt;">
						<path id="&lt;Path&gt;" class="s6" d="m620.2 558.8q9 11.3 18.1 22.6c1 1.2 3.2 1 4.2 0 1.3-1.3 1-3 0-4.3q-9-11.3-18.1-22.6c-1-1.2-3.2-1-4.2 0-1.3 1.3-1.1 3 0 4.3z"/>
					</g>
				</g>
				<g id="&lt;Group&gt;">
					<g id="&lt;Group&gt;">
						<path id="&lt;Path&gt;" class="s6" d="m374.4 257.9q9 11.3 18.1 22.7c1 1.2 3.2 1 4.2 0 1.3-1.3 1-3 0-4.3q-9-11.3-18.1-22.6c-1-1.3-3.2-1.1-4.2 0-1.3 1.2-1.1 3 0 4.2z"/>
					</g>
				</g>
				<g id="&lt;Group&gt;">
					<path id="&lt;Compound Path&gt;" class="s9" d="m349.3 367.5l-16.9 35.5-10-1.7-2.5-23.7-10.4 21.6-10-1.7-4.4-39.1 9.6 1.7 2.6 24.9 11-22.7 8.6 1.5 2.6 25.1 10.9-22.9z"/>
				</g>
			</g>
			<g id="&lt;Group&gt;">
				<path id="&lt;Path&gt;" class="s9" d="m641.7 315.7l-130.9 70.7 20.3 30.1z"/>
				<path id="&lt;Path&gt;" class="s8" d="m524.9 398.1l116.8-82.4-110.6 100.8z"/>
				<path id="&lt;Path&gt;" class="s9" d="m360.2 504.4l134.2-64.1-18.8-31.1z"/>
				<path id="&lt;Path&gt;" class="s7" d="m360.2 504.4l134.2-64.1-18.8-31.1z"/>
				<path id="&lt;Path&gt;" class="s8" d="m479.1 428.6l-118.9 75.8 134.2-64.1c0 0-0.7-22-1.5-20.2-0.8 1.8-13.8 8.5-13.8 8.5z"/>
				<path id="&lt;Path&gt;" class="s6" d="m531.2 394.8c9.2 14.7 4.9 34.2-9.5 43.5-14.4 9.3-33.5 5-42.6-9.7-9.2-14.7-4.9-34.1 9.5-43.5 14.4-9.3 33.4-5 42.6 9.7z"/>
			</g>
			<g id="&lt;Group&gt;">
				<g id="&lt;Group&gt;">
					<path id="&lt;Path&gt;" class="s6" d="m519.5 150.9c23.5 1.4 46.6 4.9 68.9 12.5 1.8 0.6 2.6-2.3 0.8-2.9-22.5-7.7-46-11.2-69.7-12.6-2-0.1-1.9 2.9 0 3z"/>
				</g>
			</g>
			<g id="&lt;Group&gt;">
				<path id="&lt;Compound Path&gt;" class="s9" d="m577.4 217l-10.3 36.3-8.5-2.4-10.5-23.9-5.5 19.3-10.1-2.9 10.4-36.3 8.4 2.4 10.6 23.9 5.5-19.3z"/>
			</g>
			<g id="&lt;Group&gt;">
				<path id="&lt;Compound Path&gt;" class="s9" d="m698 476.2l-2.3 8-29.1-8.3 10.3-36.4 28.5 8.2-2.2 7.9-18.4-5.2-1.7 6.1 16.1 4.6-2.2 7.7-16.1-4.6-1.9 6.6z"/>
			</g>
			<g id="&lt;Group&gt;">
				<path id="&lt;Compound Path&gt;" class="s6" d="m433.9 607.4l5.5-6.6c2.6 3 6.8 5.8 11 7 4.2 1.2 6.2 0.5 6.7-1.3 1.7-5.8-20.2-7.4-16.3-20.9 1.8-6.5 8.6-10.3 19.4-7.2 4.7 1.3 9.3 3.8 12.3 6.9l-5.3 6.7c-3-2.8-6.1-4.7-9.3-5.6-4.3-1.3-6.3-0.3-6.8 1.6-1.6 5.5 20.2 7.2 16.4 20.6-1.8 6.3-8.7 10.2-19.4 7.2-6-1.7-11.5-5-14.2-8.4z"/>
			</g>
		</g>
	</g>
	<g id="Shadow 1">
		<path id="&lt;Path&gt;" class="s13" d="m327.1 457.7c0 0 14.3-1.9 25.1-8.7 10.8-6.8-15.9-66-28.7-91.7-10.1-20.5 0.2-33.1-2.6-66.6-2.8-33.5-20.1-39.5-20.3-39.6-21.2 26.5-40.6 55.9-50.5 90.5-32.1 112.9 13.7 225.2 106.5 286.8 0.2-4.6 1.7-17.2 0.2-47.4-1.7-35.7-29.7-123.3-29.7-123.3z"/>
	</g>
	<g id="Character">
		<g id="&lt;Group&gt;">
			<g id="&lt;Group&gt;">
				<g id="&lt;Group&gt;">
					<path id="&lt;Path&gt;" class="s9" d="m251.4 462.8c-3.3-12-4.1-24.6-6.7-36.7-2.6-12.2-7.3-24.6-16.8-32.6-5.9-5.1-14.1-7.9-21.7-7.4-1.8 0.2-3.6 0.7-5.3 1.5-24 11.4-26.1 12.6-32.5 20.6-7.4 9.1-8 24.2-6.2 35.7 4.2 26.7 10.9 49.7 21.3 71.2 2.8 5.9 6.1 11.9 11.6 15.5 7.8 5.3 18.1 4.6 27.2 2.4 17-4.2 34.2-15.7 36.9-32.9 2-12.7-4.3-25-7.8-37.3z"/>
				</g>
				<g id="&lt;Group&gt;" style="opacity: .4">
					<path id="&lt;Path&gt;" class="s14" d="m251.4 462.8c-3.3-12-4.1-24.6-6.7-36.7-2.6-12.2-7.3-24.6-16.8-32.6-5.9-5.1-14.1-7.9-21.7-7.4-1.8 0.2-3.6 0.7-5.3 1.5-24 11.4-26.1 12.6-32.5 20.6-7.4 9.1-8 24.2-6.2 35.7 4.2 26.7 10.9 49.7 21.3 71.2 2.8 5.9 6.1 11.9 11.6 15.5 7.8 5.3 18.1 4.6 27.2 2.4 17-4.2 34.2-15.7 36.9-32.9 2-12.7-4.3-25-7.8-37.3z"/>
				</g>
				<g id="&lt;Group&gt;">
					<g id="&lt;Group&gt;">
						<path id="&lt;Path&gt;" class="s6" d="m182.9 396.3c-6.8 8.3-7.4 19.6-6.6 29.8 1.1 12.8 4.5 25.3 8.1 37.5 1.9 6 3.8 12 5.6 18.1 0.3 0.9 1.7 0.5 1.4-0.4-3.1-10.7-6.7-21.3-9.4-32.1-2.9-11.5-5.4-23.6-4.2-35.5 0.7-5.8 2.4-11.7 6.2-16.3 0.6-0.8-0.5-1.8-1.1-1.1z"/>
					</g>
				</g>
				<g id="&lt;Group&gt;">
					<g id="&lt;Group&gt;">
						<path id="&lt;Path&gt;" class="s6" d="m189.4 483.4q1.9-0.9 3.8-1.7c0.3-0.2 0.5-0.7 0.3-1-0.3-0.4-0.7-0.5-1.1-0.3q-1.9 0.8-3.8 1.7c-0.4 0.1-0.5 0.7-0.3 1 0.3 0.4 0.7 0.5 1.1 0.3z"/>
					</g>
				</g>
			</g>
			<g id="&lt;Group&gt;">
				<path id="&lt;Path&gt;" class="s6" d="m209.9 327.5c7.1-13.4 10.2-27.9 15.6-42.1 1.6-4.3 5.1-8.9 8.1-12.3 4.6-5.1 16.9-10.9 21.4-11.2l22.9 3.7c23.1-3 27 31.1 27.7 54.1 0.7 22.9-5.8 46.6-18.9 65.4-2.6 3.7-5.5 7.5-9.6 9.6-5 2.6-11 2.3-16.6 1.8-19-1.4-39.7-4.7-52.6-18.8 4.7-7.3 7.7-15.8 8.5-24.5-3.7 7.7-9.7 14.3-17.1 18.5q-7.3-6.3-14.6-12.7c13-11.6 18.1-18.1 25.2-31.5z"/>
			</g>
			<g id="&lt;Group&gt;">
				<path id="&lt;Path&gt;" class="s9" d="m203.1 386.5q0 0 0 0 0 0 0.1 0z"/>
			</g>
			<g id="&lt;Group&gt;">
				<path id="&lt;Path&gt;" class="s6" d="m298.2 370c0 0 11.4 1 19.1 14.1 7.6 13.1 15 23.9 15 23.9l-24.6 16.4z"/>
				<path id="&lt;Path&gt;" class="s15" d="m298.2 370c0 0 11.4 1 19.1 14.1 7.6 13.1 15 23.9 15 23.9l-24.6 16.4z"/>
			</g>
			<g id="&lt;Group&gt;">
				<path id="&lt;Path&gt;" class="s6" d="m312.5 483.3c-2.7-1.8-6.3-2-9.6-2-24.7-0.3-49.4 2-73.6 6.8l-4.3 2.1c-3.3-1.9-7.8-0.6-10.7 2-2.8 2.7-4.3 6.4-5.8 10-12.5 31.1-24.5 62.6-33 95.1-2 7.5-3.6 15.9 0.1 22.7 4.3 8 14.2 10.8 23.1 12.4 29.2 5.2 58.9 5.5 88.6 5.5 7.2 0.1 14.9-0.1 20.8-4.2 8.3-5.7 10.3-16.9 11.2-27 3.6-36.6 3.2-73.6-1.1-110.2-0.6-4.9-1.6-10.4-5.7-13.2z"/>
			</g>
			<g id="&lt;Group&gt;">
				<path id="&lt;Path&gt;" class="s16" d="m284.5 918.9l20.5 2 15.2-51.9-31.2-3.4z"/>
				<g id="&lt;Group&gt;">
					<path id="&lt;Path&gt;" class="s6" d="m308 911.8h-7.3c-1.7 0-3.2 0.9-4.2 2.2-4.2 5.8-7.4 3.6-12-1.8-2.9-0.4-3.7 3-3.9 3.9l-5.5 19.9c-0.4 1.6 0.5 3.4 2.2 3.8q0.4 0.2 0.9 0.2c8.9 0 13.1 0 24.1 0h33.8c9.3 0 11.2-9.3 7.4-10.2-17.1-3.8-29.2-8.8-34.5-13.7-1-0.9 0.1-1.6-1-4.3z"/>
					<path id="&lt;Compound Path&gt;" fill-rule="evenodd" class="s9" d="m318.9 918.6q-3.5-0.1-6.9-0.9c-0.2 0-0.3-0.3-0.2-0.5q0.1-0.2 0.2-0.2c1.1-0.5 10.2-4.8 12.5-3.2 0.4 0.3 0.7 0.8 0.6 1.3 0 1-0.5 1.8-1.2 2.4-1.5 0.9-3.3 1.3-5 1.1zm-5.4-1.4c2.7 0.5 7.7 1.2 9.8-0.4 0.5-0.4 0.8-1.1 0.9-1.7 0-0.3-0.1-0.5-0.3-0.6-1.2-0.9-6.6 1-10.4 2.7z"/>
					<path id="&lt;Compound Path&gt;" fill-rule="evenodd" class="s9" d="m312.1 917.8q-0.1 0-0.2 0c-0.2-0.1-0.2-0.3-0.2-0.5 0-0.4 2.2-9.4 7.2-8.8 1.2 0.2 1.6 0.8 1.6 1.3 0.4 2.4-5.4 6.9-8.1 8zm6.2-8.5c-3.2 0-5 5.3-5.6 7.4 3-1.6 7.1-5.4 6.9-6.8 0-0.1 0-0.5-1-0.6z"/>
					<path id="&lt;Path&gt;" class="s17" d="m313.1 917.5c-2.6 0.3-4.9 1.8-6.2 4"/>
					<path id="&lt;Path&gt;" class="s17" d="m317.6 920.9c-2.5 0.4-4.8 1.9-6.2 4"/>
					<path id="&lt;Path&gt;" class="s17" d="m323.3 923.8c-2.5 0.3-4.9 1.8-6.2 4"/>
				</g>
				<path id="&lt;Path&gt;" class="s8" d="m312.2 896.4l-1.9 6.4-24.1-3.7 0.4-5.2z"/>
			</g>
			<g id="&lt;Group&gt;">
				<path id="&lt;Path&gt;" class="s16" d="m213.5 920.5l20.5 2 15.2-51.8-31.2-3.4z"/>
				<g id="&lt;Group&gt;">
					<path id="&lt;Path&gt;" class="s6" d="m237 913.5h-7.3c-1.7 0-3.2 0.8-4.2 2.2-4.2 5.7-7.4 3.5-12-1.9-2.9-0.3-3.7 3-3.9 3.9l-5.5 19.9c-0.4 1.7 0.5 3.4 2.2 3.9q0.4 0.1 0.9 0.1c8.9 0 13.1 0 24.1 0h33.8c9.3 0 11.2-9.3 7.4-10.1-17.1-3.8-29.2-8.8-34.5-13.8-0.9-0.9 0.1-1.5-1-4.2z"/>
					<path id="&lt;Compound Path&gt;" fill-rule="evenodd" class="s9" d="m247.9 920.3q-3.5-0.1-6.8-0.9c-0.3-0.1-0.4-0.3-0.3-0.5q0.1-0.2 0.3-0.3c1-0.5 10.1-4.8 12.4-3.1 0.4 0.2 0.7 0.7 0.6 1.3 0 0.9-0.5 1.8-1.2 2.3-1.5 0.9-3.3 1.3-5 1.2zm-5.4-1.5c2.7 0.5 7.7 1.2 9.8-0.3 0.5-0.5 0.8-1.1 0.9-1.8 0-0.2-0.1-0.4-0.3-0.5-1.2-0.9-6.6 1-10.4 2.6z"/>
					<path id="&lt;Compound Path&gt;" fill-rule="evenodd" class="s9" d="m241.1 919.4q-0.1 0-0.2 0c-0.2-0.1-0.2-0.3-0.2-0.4 0-0.4 2.2-9.4 7.2-8.8 1.2 0.1 1.6 0.7 1.7 1.2 0.3 2.4-5.5 6.9-8.2 8.1zm6.2-8.5c-3.2 0-5 5.2-5.6 7.3 3-1.6 7.1-5.3 6.9-6.8 0-0.1 0-0.4-0.9-0.5z"/>
					<path id="&lt;Path&gt;" class="s17" d="m242.1 919.1c-2.5 0.4-4.9 1.9-6.2 4"/>
					<path id="&lt;Path&gt;" class="s17" d="m246.6 922.6c-2.5 0.3-4.8 1.8-6.2 4"/>
					<path id="&lt;Path&gt;" class="s17" d="m252.3 925.4c-2.5 0.4-4.9 1.9-6.2 4"/>
				</g>
				<path id="&lt;Path&gt;" class="s8" d="m215.2 900.7l0.4-5.2 25.6 2.6-1.9 6.3"/>
			</g>
			<path id="&lt;Path&gt;" class="s18" d="m323.6 525.2c0 0-15.1 15.8-44.6 16.1-29.5 0.3-62.5-16.9-62.5-16.9l3.7-6.3 84.9 9.2 16.2-9.2z"/>
			<g id="&lt;Group&gt;">
				<g id="&lt;Group&gt;">
					<g id="&lt;Group&gt;">
						<g id="&lt;Group&gt;">
							<g id="&lt;Group&gt;">
								<path id="&lt;Path&gt;" class="s9" d="m326.1 534.3c0 0 18 73.4 26.1 138.7 2.4 19.9 6.2 55.6 1.8 75.2l-36 153.6-38-3.8c9.6-67.8 19.2-148.5 19.2-180.5l-51.6-160.7z"/>
							</g>
						</g>
					</g>
					<path id="&lt;Path&gt;" class="s18" d="m272.9 636c-0.1 0.7 20.4-83.2 20.4-83.2 0 0 5.6 68.5-15.1 101.2z"/>
					<path id="&lt;Path&gt;" class="s9" d="m310.7 501.9c0 0-36.8 19.7-86.9 16q-0.8 0-1.5-0.1l-3.2 2.2c-5.8 9.8-13.4 30.2-13.3 57.5 1.1 42.8 7.5 109.2 8.1 123.6q0 0 0.1 0c-0.3 11-0.7 19.4-1.1 23.6-5.3 56.1-7.1 182.4-7.1 182.4l38.2 0.6c0 0 28.5-191.2 29.2-202.9q0.2-2 0.3-4l1.8-20.4c1.7-18.7 4-39.6 5.1-60.6l2.9-34.1c25.1-8.3 38.5-45.1 42.8-51.4-6.5-24.1-9.4-21.9-15.4-32.4z"/>
				</g>
			</g>
			<g id="&lt;Group&gt;">
				<path id="&lt;Path&gt;" class="s6" d="m208.2 424.5l-12.8-43.6c8.1-12.1 48.2-21.4 48.2-21.4l26.4 1.4c0 0 10.2 2.3 18.9 5.1 11.6 3.8 17.8 6.9 20.6 13.3 0 0 4.8 14.3 1.9 43.7-0.8 8-2.6 50.7-0.3 64.6l16.4 32.1c-48.3 37.6-110.1 0-110.1 0 2.2-6.6 7-21.3 7.9-27.8-0.7-8.3-3-13.7-6.5-28.2-0.7-2.8-9.4-36.4-10.6-39.2z"/>
				<path id="&lt;Path&gt;" class="s15" d="m208.2 424.5l-12.8-43.6c8.1-12.1 48.2-21.4 48.2-21.4l26.4 1.4c0 0 10.2 2.3 18.9 5.1 11.6 3.8 17.8 6.9 20.6 13.3 0 0 4.8 14.3 1.9 43.7-0.8 8-2.6 50.7-0.3 64.6l16.4 32.1c-48.3 37.6-110.1 0-110.1 0 2.2-6.6 7-21.3 7.9-27.8-0.7-8.3-3-13.7-6.5-28.2-0.7-2.8-9.4-36.4-10.6-39.2z"/>
				<path id="&lt;Path&gt;" class="s18" d="m213.2 440.2h2.4l7.1-20.9-3.2 47.4-6.5-24.8z"/>
			</g>
			<g id="&lt;Group&gt;">
				<g id="&lt;Group&gt;">
					<path id="&lt;Path&gt;" class="s16" d="m268.2 363.3c-2.8-2.7-4-5.6-3.5-9.6 0.4-3.1 1.4-6.3 2.5-9.4l-4.1-4.5-21.4-20.1c1 13.9 3.5 36.2-7.1 44.2l33.6 27.1z"/>
					<path id="&lt;Path&gt;" class="s18" d="m264.6 354.6c-5.8-3.2-12.3-8.8-11.8-15.5 0.3-2.8 0.8-5.5 1.4-7.3l12.1 15c-0.8 2.5-1.2 4.1-1.7 7.8z"/>
					<path id="&lt;Path&gt;" class="s16" d="m236.1 297.5c2.7 21.2 3.4 30.2 14.7 40.9 17.1 16.2 42.3 9.6 45.9-11.6 3.3-19.1-1.7-50.5-22.9-58.7-20.9-8.1-40.5 8.2-37.7 29.4z"/>
					<path id="&lt;Path&gt;" class="s8" d="m293 336.6c0 0-0.8-1.1-2.2-0.6-1.4 0.5-4.6 3.1-4.6 7.4 0 0 1.7-1.1 3.7-2.9 1.2-1.2 3.1-3.9 3.1-3.9z"/>
					<path id="&lt;Path&gt;" class="s6" d="m266.7 305.5c0 2.4 1.2 4.4 2.6 4.6 1.4 0.1 2.5-1.8 2.5-4.2 0-2.4-1.2-4.4-2.6-4.6-1.4-0.1-2.5 1.8-2.5 4.2z"/>
					<path id="&lt;Path&gt;" class="s6" d="m288 303.8c-0.1 2.3 0.9 4.3 2.3 4.6 1.4 0.2 2.6-1.5 2.7-3.9 0.1-2.3-1-4.4-2.4-4.6-1.3-0.2-2.5 1.5-2.6 3.9z"/>
					<path id="&lt;Path&gt;" class="s6" d="m262.4 297.4c0.3 0 0.6-0.1 0.8-0.3 3.1-3.2 6.8-2.3 6.9-2.3 0.5 0.2 1.1-0.2 1.2-0.7 0.1-0.6-0.3-1.2-0.9-1.3-0.2-0.1-4.8-1.2-8.7 2.8-0.4 0.4-0.4 1 0 1.5q0.3 0.3 0.7 0.3z"/>
					<path id="&lt;Path&gt;" class="s6" d="m295.2 287.7q0.3-0.1 0.5-0.5c0.3-0.5 0-1.1-0.5-1.3-5.4-2.6-9.5-0.4-9.7-0.3-0.5 0.3-0.7 0.9-0.4 1.4 0.4 0.5 1 0.6 1.5 0.4 0.2-0.1 3.4-1.8 7.7 0.2 0.3 0.2 0.6 0.2 0.9 0.1z"/>
					<path id="&lt;Path&gt;" class="s19" d="m279 301.7c0 0 3.7 7.9 7.6 12.7 0.7 0.8 0.3 2.1-0.7 2.5-2.6 1.1-5.7 0.3-5.7 0.3z"/>
					<path id="&lt;Path&gt;" class="s6" d="m268.6 301.4l4.9-0.9c0 0-2.8 3.5-4.9 0.9z"/>
					<path id="&lt;Path&gt;" class="s6" d="m289.8 300.1l5-0.6c0 0-3.1 3.3-5 0.6z"/>
					<path id="&lt;Path&gt;" class="s6" d="m230.3 285.9c-2.9 4.1 2.9 16.2 2.9 16.2 0 0 10.2-3 10.7 12.4 3.8 0.6 8-13.8 7.4-28.2-0.8-8.1-15.9-7.8-21-0.4z"/>
					<path id="&lt;Path&gt;" class="s6" d="m279.9 268.8c-4.4-9.3-12.3-12.8-33.4-3.7-19 8.1-6.9 36.4-2.6 49.4 0.9 2.7 25.2-28 25.2-28z"/>
					<path id="&lt;Path&gt;" class="s16" d="m230.3 315c2.6 4.3 6.8 6.9 10.6 7.7 5.6 1.2 8.2-8 6.1-13.5-1.9-5-7.6-8.2-13-6.9-5.3 1.3-6.8 7.9-3.7 12.7z"/>
					<path id="&lt;Path&gt;" class="s20" d="m238.1 307.6c-1.8-0.7-3.7 0.5-4.3 2-0.7 1.8 0.3 6 5.8 7.3"/>
				</g>
				<g id="&lt;Group&gt;">
					<g id="&lt;Group&gt;">
						<path id="&lt;Path&gt;" class="s6" d="m272 322.3c1.8 2.5 4.9 4 7.9 3.6 0.4 0 0.8-0.3 0.8-0.7 0-0.4-0.4-0.8-0.8-0.8-2.5 0.3-5.1-0.8-6.6-2.8-0.2-0.4-0.6-0.5-1-0.3-0.3 0.2-0.5 0.7-0.3 1z"/>
					</g>
				</g>
			</g>
			<g id="&lt;Group&gt;">
				<g id="&lt;Group&gt;">
					<path id="&lt;Path&gt;" class="s16" d="m318 440.3l21.4 0.5 4.8 10.9-11 13.9c0 0-2.7-0.1-1.8-3.8 0.7-2.9 2.2-5.1 2.2-5.1l-14.6 4.4c-2.8 0.8-5.6-1.2-5.7-4.1l-0.7-16.8z"/>
					<g id="&lt;Group&gt;">
						<g id="&lt;Group&gt;">
							<path id="&lt;Path&gt;" class="s9" d="m240.4 432.9c1.1 11.4 2.3 23.7-2.7 34.4-4.1 8.7-11.8 15.5-21 18.3-2.7 0.9-1.6 5.2 1.2 4.4 10-3.2 18.7-10.3 23.4-19.8 5.7-11.6 4.8-24.8 3.6-37.3-0.2-2.8-4.7-2.9-4.5 0z"/>
						</g>
					</g>
					<g id="&lt;Group&gt;" style="opacity: .4">
						<g id="&lt;Group&gt;">
							<path id="&lt;Path&gt;" class="s14" d="m240.4 432.9c1.1 11.4 2.3 23.7-2.7 34.4-4.1 8.7-11.8 15.5-21 18.3-2.7 0.9-1.6 5.2 1.2 4.4 10-3.2 18.7-10.3 23.4-19.8 5.7-11.6 4.8-24.8 3.6-37.3-0.2-2.8-4.7-2.9-4.5 0z"/>
						</g>
					</g>
					<path id="&lt;Path&gt;" class="s16" d="m192.7 401.2c0 0 3 9.9 7.3 23.2 4.3 13.3 11.7 45.4 24.4 55.2 12.7 9.7 36.2-5.2 58.5-10.8 20.3-5.2 34.7-11 35.1-11l-5.4-17.6-70.3 10.2-30.1-64.1c0 0-21.7-0.2-19.5 14.9z"/>
					<path id="&lt;Path&gt;" class="s18" d="m305.6 438.9c0 0 5 13 11.3 15.2 6.3 2.2 22.3 2.8 23.7-12.3z"/>
				</g>
				<g id="&lt;Group&gt;">
					<g id="&lt;Group&gt;">
						<path id="&lt;Path&gt;" class="s19" d="m241.4 451.2c-2.6 4.8-4.7 9.8-6.4 15-0.4 0.9 1.1 1.3 1.4 0.4q2.5-7.6 6.3-14.6c0.5-0.9-0.8-1.6-1.3-0.8z"/>
					</g>
				</g>
			</g>
			<g id="&lt;Group&gt;">
				<g id="&lt;Group&gt;">
					<g id="&lt;Group&gt;">
						<path id="&lt;Path&gt;" class="s6" d="m195.4 380.9c-13.2 12.7 1.6 62.1 1.6 62.1l42.1-11.1c0 0-10-37.2-20.1-46.6-8.5-7.9-16.3-11.6-23.6-4.4z"/>
					</g>
				</g>
				<g id="&lt;Group&gt;" style="opacity: .7">
					<g id="&lt;Group&gt;">
						<path id="&lt;Path&gt;" class="s3" d="m195.4 380.9c-13.2 12.7 1.6 62.1 1.6 62.1l42.1-11.1c0 0-10-37.2-20.1-46.6-8.5-7.9-16.3-11.6-23.6-4.4z"/>
					</g>
				</g>
			</g>
			<g id="&lt;Group&gt;">
				<g id="&lt;Group&gt;">
					<path id="&lt;Path&gt;" class="s9" d="m250.5 410.1c-1.8-6.9-3.6-13.9-6.3-20.6-2.8-6.6-6.7-12.9-12.2-17.6-5.5-4.6-12.7-7.5-19.9-6.6-7.1 0.8-15 7.4-16 14.7 3-3.3 8.1-5.7 12.4-4.3 4.2 1.5 7.6 4.9 9.9 8.8 2.3 3.8 3.6 8.2 4.9 12.5q4.7 15.1 9.4 30.3c0.8 2.7 1.8 5.7 4 7.5 3.3 2.7 8.5 2 11.6-0.8 3.2-2.8 4.5-7.2 4.5-11.5 0-4.2-1.2-8.3-2.3-12.4z"/>
				</g>
				<g id="&lt;Group&gt;" style="opacity: .4">
					<path id="&lt;Path&gt;" class="s14" d="m250.5 410.1c-1.8-6.9-3.6-13.9-6.3-20.6-2.8-6.6-6.7-12.9-12.2-17.6-5.5-4.6-12.7-7.5-19.9-6.6-7.1 0.8-15 7.4-16 14.7 3-3.3 8.1-5.7 12.4-4.3 4.2 1.5 7.6 4.9 9.9 8.8 2.3 3.8 3.6 8.2 4.9 12.5q4.7 15.1 9.4 30.3c0.8 2.7 1.8 5.7 4 7.5 3.3 2.7 8.5 2 11.6-0.8 3.2-2.8 4.5-7.2 4.5-11.5 0-4.2-1.2-8.3-2.3-12.4z"/>
				</g>
			</g>
			<g id="&lt;Group&gt;">
				<g id="&lt;Group&gt;">
					<g id="&lt;Group&gt;">
						<path id="&lt;Path&gt;" class="s9" d="m310.3 379.5c-1.4-3.8-3.1-7.7-5.8-10.7-2.8-3-6.8-5.1-10.8-4.8l-7.2 1.9q6.4 23.3 12.9 46.6c1.1 4 2.3 8.2 5.4 10.9 3.2 2.7 8.8 2.8 10.8-0.8 0.8-1.4 0.9-3 0.9-4.6 0.4-13.1-1.7-26.2-6.2-38.5z"/>
					</g>
					<g id="&lt;Group&gt;" style="opacity: .4">
						<path id="&lt;Path&gt;" class="s14" d="m310.3 379.5c-1.4-3.8-3.1-7.7-5.8-10.7-2.8-3-6.8-5.1-10.8-4.8l-7.2 1.9q6.4 23.3 12.9 46.6c1.1 4 2.3 8.2 5.4 10.9 3.2 2.7 8.8 2.8 10.8-0.8 0.8-1.4 0.9-3 0.9-4.6 0.4-13.1-1.7-26.2-6.2-38.5z"/>
					</g>
					<path id="&lt;Path&gt;" class="s16" d="m297 365.4c0 0-0.4-15.4-1.6-17.9-1.2-2.6-2.6-3.3-2.6-6.1 0-2.8 0.5-5-1.1-4.7-1.6 0.3-3.2 3.3-3.6 5.5-0.4 2.2 0.5 8.1 0.5 8.1 0 0-12.1-7.3-16.9-8.4-4-0.9-8.8-1.6-10.4 0.2-0.6 0.8-0.3 2.1 0.6 2.6 0.8 0.4 2 0.8 3.9 1.3 6.7 1.6 8.9 2.9 8.9 2.9 0 0-6.4-0.3-8.1 0.8-1.7 1.2-1.6 2.1-1.2 3.4 0.4 1.4 1.5 2.3 1.5 2.3 0 0-2.1-0.7-2.8 2.1-0.8 2.7 1.3 3.6 1.3 3.6 0 0-2 1.9-0.8 4.4 1.2 2.5 4.6 1.6 4.6 1.6 0 0 9.1 11 12.6 11.3 3.4 0.2 7.9-2.2 7.6-2.2-0.4 0 8-9.8 8-9.8z"/>
					<path id="&lt;Path&gt;" class="s16" d="m282.9 377.7c0 0 17 51.4 23.4 62.5 6.4 11.1 17.2 14.8 27.7 10.1 2.5-1.2 5.1-3.8 6.1-7.3 1-3.7-1.2-15.1-6.5-25-4.3-8-4.5-7.9-4.5-7.9l-6.1 3.9-26.6-49.6z"/>
				</g>
				<g id="&lt;Group&gt;">
					<g id="&lt;Group&gt;">
						<path id="&lt;Path&gt;" class="s19" d="m323.2 413.9q3 6.1 6 12.3 0.5 0.8 0.9 1.7c0.4 0.9 1.7 0.1 1.3-0.7q-3-6.2-6.1-12.3-0.4-0.9-0.8-1.8c-0.5-0.8-1.7-0.1-1.3 0.8z"/>
					</g>
				</g>
				<path id="&lt;Path&gt;" class="s21" d="m297 365.4c0 0-0.4-15.4-1.6-17.9-1.2-2.6-2.6-3.3-2.6-6.1 0-2.8 0.5-5-1.1-4.7-1.6 0.3-3.2 3.3-3.6 5.5-0.4 2.2 0.5 8.1 0.5 8.1 0 0-12.1-7.3-16.9-8.4-4-0.9-8.8-1.6-10.4 0.2-0.6 0.8-0.3 2.1 0.6 2.6 0.8 0.4 2 0.8 3.9 1.3 6.7 1.6 8.9 2.9 8.9 2.9 0 0-6.4-0.3-8.1 0.8-1.7 1.2-1.6 2.1-1.2 3.4 0.4 1.4 1.5 2.3 1.5 2.3 0 0-2.1-0.7-2.8 2.1-0.8 2.7 1.3 3.6 1.3 3.6 0 0-2 1.9-0.8 4.4 1.2 2.5 4.6 1.6 4.6 1.6 0 0 10.5 11 13.9 11.3"/>
			</g>
			<g id="&lt;Group&gt;">
				<g id="&lt;Group&gt;">
					<g id="&lt;Group&gt;">
						<path id="&lt;Path&gt;" class="s6" d="m263.9 499.9c-11.9-8.2-26.8-12.1-41.2-10.7l-7.1 18.5c19.8 17.8 43.9 20.2 70.5 19.4 3.8-13.8-10.2-19-22.2-27.2z"/>
					</g>
					<g id="&lt;Group&gt;">
						<path id="&lt;Path&gt;" class="s6" d="m319.5 487.9c-1.9-3.6-5.9-6.5-10-5.9-3.1 0.5-5.5 2.7-7.6 5-8.3 8.9-14.8 19.6-18.7 31.2l1.5 8.9q4.2-1.7 8.3-3.4c7.8-3.2 15.8-6.6 21.6-12.6 5.9-6.1 8.9-15.7 4.9-23.2z"/>
					</g>
					<path id="&lt;Path&gt;" class="s6" d="m297.9 519.7c0 6.2-5 11.2-11.2 11.2-6.1 0-11.1-5-11.1-11.2 0-6.1 5-11.1 11.1-11.1 6.2 0 11.2 5 11.2 11.1z"/>
					<g id="&lt;Group&gt;">
						<path id="&lt;Path&gt;" class="s6" d="m291.6 563.6q-1.4-19.9-2.8-39.8l-5.2 3.4c-16.3 23.7-23.4 53.6-19.6 82.1 6.9 1.2 14 1.7 21 1.4q-3-6.3-5.9-12.6c6.1-2.4 10.2-8.5 11.8-14.9 1.6-6.4 1.1-13 0.7-19.6z"/>
					</g>
					<g id="&lt;Group&gt;">
						<path id="&lt;Path&gt;" class="s6" d="m314.1 577.6c3-4.1 3.6-9.4 3.2-14.4-1-15.9-10.2-31.1-23.8-39.3l-2.2-1.8c7.9 24 6.3 49.8 4.7 75q8-1.6 16-3.3c-1.6-3.3-3.3-7-2-10.5 0.8-2.2 2.7-3.8 4.1-5.7z"/>
					</g>
				</g>
				<g id="&lt;Group&gt;" style="opacity: .3">
					<g id="&lt;Group&gt;">
						<path id="&lt;Path&gt;" class="s14" d="m284.8 510.4c3.8-0.7 8 1 10 4.3 2.1 3.3 1.8 8-0.7 11.1-2.4 2.9-6.7 4.1-10.3 3-3.7-1.2-6.4-4.9-6.6-8.7-0.1-4.5 3.1-8.5 7.3-9.6 0.9-0.3 0.5-1.7-0.4-1.5-4.4 1.2-7.8 5.1-8.3 9.7-0.5 4.4 2.1 9 6.1 10.9 4 2 9 1.2 12.3-1.8 3.4-3 4.4-8.3 2.7-12.4-2.1-4.8-7.5-7.4-12.5-6.4-0.9 0.2-0.5 1.6 0.4 1.4z"/>
					</g>
				</g>
				<g id="&lt;Group&gt;" style="opacity: .3">
					<g id="&lt;Group&gt;">
						<path id="&lt;Path&gt;" class="s14" d="m291 510.9c-4.5 5.2-8 11-10.5 17.3-0.4 0.9 1.1 1.3 1.4 0.4 2.4-6 5.9-11.7 10.1-16.6 0.6-0.7-0.4-1.8-1-1.1z"/>
					</g>
				</g>
				<g id="&lt;Group&gt;" style="opacity: .3">
					<g id="&lt;Group&gt;">
						<path id="&lt;Path&gt;" class="s14" d="m296.6 514.1q4.3-5.6 8.7-11.3c0.3-0.3 0.1-0.9-0.3-1-0.3-0.3-0.7-0.1-1 0.2q-4.4 5.7-8.7 11.4c-0.3 0.3-0.1 0.8 0.2 1 0.4 0.2 0.8 0 1.1-0.3z"/>
					</g>
				</g>
				<g id="&lt;Group&gt;" style="opacity: .3">
					<g id="&lt;Group&gt;">
						<path id="&lt;Path&gt;" class="s14" d="m296.9 514.3q5.1-2 9.8-4.7c0.9-0.5 0.1-1.8-0.7-1.3q-4.6 2.6-9.5 4.6c-0.4 0.1-0.6 0.5-0.5 0.9 0.1 0.3 0.5 0.7 0.9 0.5z"/>
					</g>
				</g>
				<g id="&lt;Group&gt;" style="opacity: .3">
					<g id="&lt;Group&gt;">
						<path id="&lt;Path&gt;" class="s14" d="m276.1 518.1c-6.9-1.5-13.7-3.7-20-6.8-0.9-0.4-1.7 0.9-0.8 1.3 6.5 3.1 13.3 5.4 20.4 6.9 0.9 0.2 1.3-1.2 0.4-1.4z"/>
					</g>
				</g>
			</g>
		</g>
	</g>
</svg>