<?xml version="1.0" encoding="utf-8"?>
<!-- Generator: Adobe Illustrator 27.5.0, SVG Export Plug-In . SVG Version: 6.00 Build 0)  -->
<svg version="1.1" xmlns="http://www.w3.org/2000/svg" xmlns:xlink="http://www.w3.org/1999/xlink" x="0px" y="0px"
	 viewBox="0 0 500 500" style="enable-background:new 0 0 500 500;" xml:space="preserve">
<g id="Background_Complete">
	<g>
		<rect y="382.398" style="fill:#EBEBEB;" width="500" height="0.25"/>
		<rect x="416.779" y="398.494" style="fill:#EBEBEB;" width="33.122" height="0.25"/>
		<rect x="322.527" y="401.208" style="fill:#EBEBEB;" width="8.693" height="0.25"/>
		<rect x="396.586" y="389.208" style="fill:#EBEBEB;" width="19.192" height="0.25"/>
		<rect x="52.459" y="390.888" style="fill:#EBEBEB;" width="43.193" height="0.25"/>
		<rect x="104.556" y="390.888" style="fill:#EBEBEB;" width="6.333" height="0.25"/>
		<rect x="131.471" y="395.111" style="fill:#EBEBEB;" width="93.676" height="0.25"/>
		<path style="fill:#EBEBEB;" d="M237.014,337.8H43.915c-3.147,0-5.708-2.561-5.708-5.708V60.66c0-3.147,2.561-5.708,5.708-5.708
			h193.099c3.146,0,5.707,2.561,5.707,5.708v271.432C242.721,335.239,240.16,337.8,237.014,337.8z M43.915,55.203
			c-3.01,0-5.458,2.448-5.458,5.458v271.432c0,3.01,2.448,5.458,5.458,5.458h193.099c3.009,0,5.457-2.448,5.457-5.458V60.66
			c0-3.009-2.448-5.458-5.457-5.458H43.915z"/>
		<path style="fill:#EBEBEB;" d="M453.31,337.8H260.212c-3.147,0-5.707-2.561-5.707-5.708V60.66c0-3.147,2.561-5.708,5.707-5.708
			H453.31c3.148,0,5.708,2.561,5.708,5.708v271.432C459.019,335.239,456.458,337.8,453.31,337.8z M260.212,55.203
			c-3.009,0-5.457,2.448-5.457,5.458v271.432c0,3.01,2.448,5.458,5.457,5.458H453.31c3.01,0,5.458-2.448,5.458-5.458V60.66
			c0-3.009-2.448-5.458-5.458-5.458H260.212z"/>
	</g>
	<g>
		<circle style="fill:#FAFAFA;" cx="391.574" cy="87.394" r="27.787"/>
		<path style="fill:#F0F0F0;" d="M377.159,87.081c0-2.668-2.163-4.83-4.83-4.83c-0.482,0-0.947,0.073-1.387,0.204
			c0.07-0.484,0.108-0.979,0.108-1.483c0-5.649-4.58-10.229-10.229-10.229c-0.644,0-1.273,0.062-1.884,0.176
			c-1.572-2.573-4.398-4.296-7.634-4.296c-4.898,0-8.871,3.935-8.944,8.816c-0.05-0.001-0.099-0.007-0.149-0.007
			c-4.551,0-8.24,3.689-8.24,8.24c0,4.551,3.689,8.24,8.24,8.24h30.261l-0.006-0.007C375.069,91.832,377.159,89.703,377.159,87.081z
			"/>
		<path style="fill:#F0F0F0;" d="M238.09,141.454c0-2.668-2.163-4.83-4.83-4.83c-0.482,0-0.947,0.073-1.387,0.204
			c0.07-0.484,0.108-0.979,0.108-1.483c0-5.649-4.58-10.229-10.229-10.229c-0.644,0-1.273,0.062-1.884,0.176
			c-1.572-2.573-4.398-4.296-7.634-4.296c-4.898,0-8.871,3.935-8.943,8.816c-0.05-0.001-0.099-0.007-0.149-0.007
			c-4.551,0-8.24,3.689-8.24,8.24s3.689,8.24,8.24,8.24h30.26l-0.006-0.007C236,146.205,238.09,144.076,238.09,141.454z"/>
		<path style="fill:#F0F0F0;" d="M62.356,81.225c0-2.668,2.163-4.83,4.83-4.83c0.482,0,0.947,0.073,1.387,0.204
			c-0.07-0.484-0.108-0.979-0.108-1.483c0-5.649,4.58-10.229,10.229-10.229c0.644,0,1.273,0.062,1.884,0.176
			c1.572-2.573,4.398-4.296,7.634-4.296c4.898,0,8.871,3.935,8.944,8.816c0.05-0.001,0.099-0.007,0.149-0.007
			c4.551,0,8.24,3.689,8.24,8.24c0,4.551-3.689,8.24-8.24,8.24H67.045l0.006-0.007C64.446,85.976,62.356,83.847,62.356,81.225z"/>
		<path style="fill:#F0F0F0;" d="M437.768,101.552c0-1.659-1.345-3.003-3.003-3.003c-0.3,0-0.589,0.045-0.862,0.127
			c0.044-0.301,0.067-0.609,0.067-0.922c0-3.512-2.847-6.359-6.359-6.359c-0.4,0-0.792,0.039-1.171,0.11
			c-0.977-1.6-2.734-2.671-4.746-2.671c-3.045,0-5.515,2.447-5.56,5.481c-0.031,0-0.061-0.005-0.093-0.005
			c-2.829,0-5.123,2.294-5.123,5.123s2.294,5.123,5.123,5.123h18.813l-0.004-0.004C436.468,104.506,437.768,103.182,437.768,101.552
			z"/>
		<path style="fill:#F0F0F0;" d="M231.706,76.235c0-1.659,1.345-3.003,3.003-3.003c0.3,0,0.589,0.045,0.862,0.127
			c-0.044-0.301-0.067-0.609-0.067-0.922c0-3.512,2.847-6.359,6.359-6.359c0.4,0,0.792,0.039,1.171,0.11
			c0.977-1.6,2.734-2.671,4.746-2.671c3.045,0,5.515,2.447,5.56,5.481c0.031-0.001,0.061-0.005,0.093-0.005
			c2.829,0,5.123,2.294,5.123,5.123s-2.293,5.123-5.123,5.123h-18.813l0.004-0.004C233.005,79.189,231.706,77.865,231.706,76.235z"
			/>
		<g>
			<path style="fill:#EBEBEB;" d="M72.658,214.472c-0.152-0.551-0.243-1.182-0.284-1.878c-0.231-3.895-3.949-3.277-7.112-3.806
				c-2.471-0.413,4.072-6.655-0.91-8.669c-0.925-0.374-1.931-0.797-2.404-1.676c-0.626-1.162,0.007-2.692,1.085-3.454
				c1.078-0.762,2.463-0.924,3.783-0.949c0.813-0.988,0.152-2.475-0.635-3.484c-0.786-1.009-1.75-2.157-1.451-3.401
				c0.45-1.879,3.075-1.946,4.972-1.581c0.701-1.135,0.687-2.554,1.027-3.844c0.34-1.29,1.366-2.644,2.69-2.482
				c1.247,0.152,2.01,1.56,3.233,1.849c1.421,0.335,2.651-0.921,3.765-1.864c1.114-0.943,3.063-1.531,3.831-0.289
				c0.46,0.743,0.184,1.779,0.662,2.511c0.828,1.268,2.791,0.481,4.009-0.418c1.219-0.899,3.16-1.714,4.017-0.465
				c0.263,0.382,0.32,0.864,0.472,1.303c0.576,1.664,2.375,2.492,3.775,3.559c1.401,1.067,2.51,3.189,1.325,4.491
				c-0.585,0.642-1.613,0.903-1.904,1.721c-0.363,1.023,0.682,1.939,1.509,2.643c1.377,1.171,1.626,4.675-0.194,5.633
				c-0.764,0.402-1.885,0.526-2.072,1.369c-0.168,0.754,0.597,1.34,1.105,1.921c1.396,1.596,0.805,4.469-1.107,5.385
				c-0.437,0.209-0.974,0.381-1.136,0.838c-0.116,0.327,0.011,0.683,0.104,1.017c0.177,0.632,0.237,1.297,0.175,1.95
				c-0.021,0.224-0.067,0.466-0.237,0.612c-0.155,0.133-0.373,0.153-0.577,0.162c-2.629,0.117-3.896-0.813-5.501,1.474
				c-0.154,0.22-0.316,0.446-0.547,0.581c-0.217,0.126-0.475,0.16-0.725,0.181c-1.807,0.149-2.988-0.979-4.639-1.189
				c-2.291-0.292-2.776,0.889-4.795,1.838C74.794,217.554,73.255,216.635,72.658,214.472z"/>
			<path style="fill:#EBEBEB;" d="M102.929,211.201c-0.152-0.551-0.243-1.182-0.284-1.878c-0.231-3.894-3.949-3.277-7.112-3.806
				c-2.471-0.413,4.072-6.655-0.91-8.669c-0.925-0.374-1.931-0.797-2.404-1.676c-0.626-1.162,0.007-2.692,1.085-3.454
				c1.078-0.762,2.463-0.924,3.783-0.948c0.813-0.988,0.152-2.475-0.635-3.484c-0.786-1.009-1.75-2.157-1.452-3.401
				c0.45-1.878,3.075-1.946,4.972-1.581c0.701-1.135,0.687-2.554,1.027-3.844c0.34-1.29,1.366-2.644,2.69-2.482
				c1.248,0.152,2.01,1.561,3.233,1.849c1.421,0.335,2.651-0.922,3.765-1.864c1.114-0.942,3.063-1.531,3.831-0.289
				c0.46,0.743,0.184,1.779,0.662,2.511c0.828,1.268,2.79,0.481,4.009-0.418c1.219-0.899,3.16-1.714,4.017-0.465
				c0.263,0.382,0.32,0.864,0.472,1.303c0.576,1.664,2.375,2.492,3.776,3.559c1.4,1.067,2.51,3.189,1.325,4.491
				c-0.585,0.642-1.613,0.902-1.904,1.721c-0.363,1.023,0.682,1.94,1.509,2.643c1.377,1.171,1.626,4.675-0.194,5.633
				c-0.764,0.402-1.885,0.526-2.072,1.369c-0.168,0.754,0.597,1.34,1.105,1.921c1.396,1.596,0.805,4.47-1.107,5.386
				c-0.437,0.209-0.974,0.381-1.136,0.838c-0.116,0.327,0.011,0.683,0.104,1.017c0.177,0.632,0.237,1.297,0.175,1.95
				c-0.021,0.223-0.067,0.466-0.237,0.612c-0.154,0.133-0.373,0.153-0.577,0.163c-2.628,0.117-3.896-0.813-5.501,1.474
				c-0.154,0.22-0.315,0.446-0.547,0.581c-0.217,0.126-0.475,0.16-0.725,0.181c-1.807,0.149-2.988-0.979-4.639-1.189
				c-2.291-0.292-2.776,0.889-4.795,1.838C105.065,214.283,103.526,213.364,102.929,211.201z"/>
			<path style="fill:#EBEBEB;" d="M105.846,191.923c-0.152-0.551-0.243-1.182-0.284-1.878c-0.231-3.894-3.949-3.277-7.112-3.806
				c-2.471-0.413,4.072-6.655-0.91-8.669c-0.925-0.374-1.931-0.797-2.404-1.676c-0.626-1.162,0.007-2.692,1.085-3.455
				c1.078-0.762,2.463-0.924,3.783-0.948c0.813-0.988,0.152-2.475-0.635-3.484c-0.786-1.009-1.75-2.157-1.452-3.401
				c0.45-1.878,3.075-1.946,4.972-1.581c0.701-1.135,0.687-2.554,1.027-3.844c0.34-1.29,1.366-2.644,2.69-2.482
				c1.247,0.152,2.01,1.56,3.233,1.849c1.421,0.335,2.651-0.922,3.765-1.864c1.114-0.942,3.063-1.531,3.831-0.289
				c0.46,0.743,0.184,1.779,0.662,2.511c0.828,1.268,2.79,0.481,4.009-0.418c1.219-0.899,3.16-1.714,4.017-0.465
				c0.263,0.382,0.32,0.864,0.472,1.303c0.576,1.664,2.375,2.492,3.775,3.559c1.401,1.067,2.51,3.189,1.325,4.491
				c-0.585,0.642-1.613,0.902-1.904,1.721c-0.363,1.023,0.682,1.94,1.509,2.643c1.377,1.171,1.626,4.675-0.194,5.633
				c-0.764,0.402-1.885,0.526-2.072,1.369c-0.168,0.754,0.597,1.34,1.105,1.921c1.396,1.596,0.805,4.47-1.107,5.386
				c-0.437,0.209-0.974,0.381-1.136,0.838c-0.116,0.327,0.011,0.683,0.104,1.017c0.177,0.632,0.237,1.297,0.175,1.95
				c-0.021,0.223-0.067,0.466-0.237,0.612c-0.155,0.133-0.373,0.153-0.577,0.163c-2.628,0.117-3.896-0.813-5.501,1.474
				c-0.154,0.22-0.315,0.446-0.547,0.581c-0.217,0.126-0.475,0.16-0.725,0.181c-1.807,0.149-2.988-0.979-4.639-1.189
				c-2.291-0.292-2.777,0.889-4.795,1.838C107.982,195.006,106.443,194.086,105.846,191.923z"/>
			<path style="fill:#EBEBEB;" d="M125.787,201.525c-0.152-0.551-0.243-1.182-0.284-1.878c-0.231-3.895-3.949-3.277-7.112-3.806
				c-2.471-0.413,4.072-6.655-0.91-8.669c-0.925-0.374-1.931-0.797-2.404-1.676c-0.626-1.162,0.007-2.692,1.085-3.454
				c1.078-0.762,2.463-0.924,3.783-0.949c0.813-0.988,0.152-2.475-0.635-3.484c-0.786-1.009-1.75-2.157-1.452-3.401
				c0.45-1.879,3.075-1.946,4.972-1.581c0.701-1.135,0.687-2.554,1.027-3.844c0.34-1.29,1.366-2.644,2.69-2.482
				c1.247,0.152,2.01,1.561,3.233,1.849c1.421,0.335,2.651-0.921,3.765-1.864s3.063-1.531,3.831-0.289
				c0.46,0.743,0.184,1.779,0.662,2.511c0.828,1.268,2.79,0.481,4.009-0.418c1.219-0.899,3.16-1.714,4.017-0.465
				c0.263,0.382,0.32,0.864,0.472,1.303c0.576,1.664,2.375,2.492,3.775,3.559s2.51,3.189,1.325,4.491
				c-0.585,0.642-1.613,0.903-1.904,1.721c-0.363,1.023,0.682,1.94,1.509,2.643c1.377,1.171,1.626,4.675-0.194,5.633
				c-0.764,0.402-1.885,0.526-2.072,1.369c-0.168,0.754,0.597,1.34,1.105,1.921c1.396,1.596,0.805,4.469-1.107,5.385
				c-0.437,0.209-0.974,0.381-1.136,0.838c-0.116,0.327,0.011,0.683,0.104,1.017c0.177,0.632,0.237,1.297,0.175,1.95
				c-0.021,0.224-0.067,0.466-0.237,0.612c-0.154,0.133-0.373,0.153-0.577,0.162c-2.628,0.117-3.896-0.813-5.501,1.474
				c-0.154,0.22-0.315,0.446-0.548,0.581c-0.217,0.126-0.475,0.16-0.725,0.181c-1.807,0.149-2.988-0.979-4.639-1.189
				c-2.291-0.292-2.776,0.889-4.795,1.838C127.922,204.608,126.383,203.688,125.787,201.525z"/>
			<path style="fill:#EBEBEB;" d="M145.94,197.09c-0.152-0.551-0.242-1.182-0.284-1.878c-0.231-3.894-3.949-3.277-7.112-3.806
				c-2.471-0.413,4.072-6.655-0.91-8.669c-0.925-0.374-1.931-0.797-2.404-1.676c-0.626-1.162,0.007-2.692,1.085-3.454
				c1.078-0.762,2.463-0.924,3.783-0.948c0.813-0.988,0.152-2.475-0.635-3.484c-0.786-1.009-1.75-2.157-1.452-3.401
				c0.45-1.879,3.075-1.946,4.972-1.581c0.701-1.135,0.687-2.554,1.027-3.844c0.34-1.29,1.366-2.644,2.69-2.482
				c1.247,0.152,2.01,1.561,3.233,1.849c1.421,0.335,2.651-0.921,3.765-1.864c1.114-0.942,3.063-1.531,3.831-0.289
				c0.46,0.743,0.184,1.779,0.662,2.511c0.828,1.268,2.79,0.481,4.009-0.418c1.219-0.899,3.16-1.714,4.017-0.465
				c0.263,0.382,0.32,0.864,0.472,1.303c0.576,1.664,2.375,2.492,3.775,3.559c1.401,1.067,2.51,3.189,1.325,4.491
				c-0.585,0.642-1.613,0.903-1.904,1.721c-0.363,1.023,0.682,1.94,1.509,2.643c1.377,1.171,1.626,4.675-0.194,5.633
				c-0.764,0.402-1.885,0.526-2.072,1.369c-0.168,0.754,0.597,1.34,1.105,1.921c1.395,1.596,0.805,4.469-1.107,5.385
				c-0.437,0.209-0.974,0.381-1.136,0.838c-0.116,0.327,0.011,0.683,0.104,1.017c0.178,0.632,0.237,1.297,0.175,1.95
				c-0.021,0.224-0.067,0.466-0.237,0.612c-0.155,0.133-0.373,0.153-0.577,0.162c-2.628,0.117-3.896-0.813-5.501,1.474
				c-0.154,0.22-0.316,0.446-0.547,0.581c-0.217,0.127-0.475,0.16-0.725,0.181c-1.807,0.149-2.988-0.979-4.639-1.189
				c-2.291-0.292-2.777,0.889-4.795,1.838C148.076,200.173,146.537,199.253,145.94,197.09z"/>
			<path style="fill:#EBEBEB;" d="M146.203,218.648c-0.119-0.434-0.191-0.931-0.223-1.478c-0.182-3.066-3.109-2.581-5.6-2.997
				c-1.946-0.325,3.206-5.24-0.717-6.826c-0.729-0.295-1.521-0.627-1.893-1.319c-0.493-0.915,0.006-2.12,0.854-2.72
				c0.849-0.6,1.939-0.727,2.978-0.747c0.64-0.778,0.12-1.949-0.5-2.743c-0.619-0.795-1.378-1.698-1.143-2.678
				c0.354-1.479,2.421-1.532,3.915-1.245c0.552-0.894,0.541-2.011,0.809-3.027c0.268-1.016,1.076-2.082,2.118-1.955
				c0.982,0.12,1.583,1.229,2.546,1.456c1.119,0.264,2.087-0.726,2.965-1.468c0.878-0.742,2.412-1.205,3.016-0.228
				c0.362,0.585,0.145,1.401,0.521,1.977c0.652,0.999,2.197,0.379,3.157-0.329c0.959-0.708,2.488-1.35,3.163-0.367
				c0.207,0.301,0.252,0.681,0.372,1.026c0.454,1.31,1.87,1.962,2.973,2.803s1.977,2.511,1.043,3.536
				c-0.461,0.506-1.27,0.711-1.499,1.355c-0.286,0.805,0.537,1.527,1.188,2.081c1.084,0.922,1.281,3.681-0.153,4.435
				c-0.602,0.317-1.484,0.414-1.632,1.078c-0.132,0.593,0.47,1.055,0.87,1.513c1.099,1.257,0.634,3.519-0.872,4.241
				c-0.344,0.165-0.767,0.3-0.894,0.66c-0.091,0.257,0.008,0.538,0.082,0.801c0.14,0.498,0.187,1.021,0.138,1.536
				c-0.017,0.176-0.053,0.367-0.187,0.482c-0.122,0.105-0.294,0.121-0.454,0.128c-2.07,0.092-3.068-0.64-4.331,1.161
				c-0.121,0.173-0.248,0.351-0.431,0.458c-0.171,0.1-0.374,0.126-0.571,0.142c-1.423,0.117-2.353-0.771-3.653-0.936
				c-1.804-0.23-2.186,0.7-3.775,1.447C147.885,221.075,146.673,220.351,146.203,218.648z"/>
			<path style="fill:#EBEBEB;" d="M157.496,211.201c-0.152-0.551-0.242-1.182-0.284-1.878c-0.231-3.894-3.949-3.277-7.112-3.806
				c-2.471-0.413,4.072-6.655-0.91-8.669c-0.925-0.374-1.931-0.797-2.404-1.676c-0.626-1.162,0.007-2.692,1.085-3.454
				c1.078-0.762,2.463-0.924,3.783-0.948c0.813-0.988,0.152-2.475-0.635-3.484s-1.75-2.157-1.452-3.401
				c0.45-1.878,3.075-1.946,4.972-1.581c0.701-1.135,0.687-2.554,1.027-3.844c0.34-1.29,1.366-2.644,2.69-2.482
				c1.247,0.152,2.01,1.561,3.233,1.849c1.421,0.335,2.651-0.922,3.765-1.864c1.114-0.942,3.063-1.531,3.831-0.289
				c0.46,0.743,0.184,1.779,0.662,2.511c0.828,1.268,2.791,0.481,4.009-0.418c1.219-0.899,3.16-1.714,4.017-0.465
				c0.263,0.382,0.32,0.864,0.472,1.303c0.576,1.664,2.375,2.492,3.775,3.559s2.51,3.189,1.325,4.491
				c-0.585,0.642-1.613,0.902-1.904,1.721c-0.363,1.023,0.682,1.94,1.509,2.643c1.377,1.171,1.626,4.675-0.194,5.633
				c-0.764,0.402-1.885,0.526-2.072,1.369c-0.168,0.754,0.597,1.34,1.105,1.921c1.396,1.596,0.805,4.47-1.107,5.386
				c-0.437,0.209-0.974,0.381-1.136,0.838c-0.116,0.327,0.011,0.683,0.104,1.017c0.177,0.632,0.237,1.297,0.175,1.95
				c-0.021,0.223-0.067,0.466-0.237,0.612c-0.155,0.133-0.373,0.153-0.577,0.163c-2.628,0.117-3.896-0.813-5.501,1.474
				c-0.154,0.22-0.316,0.446-0.547,0.581c-0.217,0.126-0.475,0.16-0.725,0.181c-1.807,0.149-2.988-0.979-4.639-1.189
				c-2.291-0.292-2.777,0.889-4.795,1.838C159.631,214.283,158.092,213.364,157.496,211.201z"/>
			<path style="fill:#EBEBEB;" d="M125.787,177.812c-0.152-0.551-0.243-1.182-0.284-1.878c-0.231-3.894-3.949-3.277-7.112-3.806
				c-2.471-0.413,4.072-6.655-0.91-8.669c-0.925-0.374-1.931-0.797-2.404-1.676c-0.626-1.162,0.007-2.692,1.085-3.454
				c1.078-0.762,2.463-0.924,3.783-0.948c0.813-0.988,0.152-2.475-0.635-3.484c-0.786-1.009-1.75-2.157-1.452-3.401
				c0.45-1.879,3.075-1.946,4.972-1.581c0.701-1.135,0.687-2.554,1.027-3.844c0.34-1.29,1.366-2.644,2.69-2.482
				c1.247,0.152,2.01,1.561,3.233,1.849c1.421,0.335,2.651-0.921,3.765-1.864c1.114-0.942,3.063-1.531,3.831-0.289
				c0.46,0.743,0.184,1.779,0.662,2.511c0.828,1.268,2.79,0.481,4.009-0.418c1.219-0.899,3.16-1.714,4.017-0.465
				c0.263,0.382,0.32,0.864,0.472,1.303c0.576,1.664,2.375,2.492,3.775,3.559s2.51,3.189,1.325,4.491
				c-0.585,0.642-1.613,0.903-1.904,1.721c-0.363,1.023,0.682,1.94,1.509,2.643c1.377,1.171,1.626,4.675-0.194,5.633
				c-0.764,0.402-1.885,0.526-2.072,1.369c-0.168,0.754,0.597,1.34,1.105,1.921c1.396,1.596,0.805,4.469-1.107,5.385
				c-0.437,0.209-0.974,0.381-1.136,0.838c-0.116,0.327,0.011,0.683,0.104,1.017c0.177,0.632,0.237,1.297,0.175,1.95
				c-0.021,0.223-0.067,0.466-0.237,0.612c-0.154,0.133-0.373,0.153-0.577,0.162c-2.628,0.117-3.896-0.813-5.501,1.474
				c-0.154,0.22-0.315,0.446-0.548,0.581c-0.217,0.127-0.475,0.16-0.725,0.181c-1.807,0.149-2.988-0.979-4.639-1.189
				c-2.291-0.292-2.776,0.889-4.795,1.838C127.922,180.895,126.383,179.975,125.787,177.812z"/>
			<path style="fill:#EBEBEB;" d="M99.897,179.136c-0.152-0.551-0.243-1.182-0.284-1.878c-0.231-3.894-3.949-3.277-7.112-3.806
				c-2.471-0.413,4.072-6.655-0.91-8.669c-0.925-0.374-1.931-0.797-2.404-1.676c-0.626-1.162,0.007-2.692,1.085-3.454
				c1.078-0.762,2.463-0.924,3.783-0.949c0.813-0.988,0.152-2.475-0.635-3.484c-0.786-1.009-1.75-2.157-1.451-3.401
				c0.45-1.879,3.075-1.946,4.972-1.581c0.701-1.135,0.687-2.554,1.027-3.844c0.34-1.29,1.366-2.644,2.69-2.482
				c1.247,0.152,2.01,1.561,3.233,1.849c1.421,0.335,2.651-0.922,3.765-1.864c1.114-0.943,3.063-1.531,3.831-0.289
				c0.46,0.743,0.184,1.779,0.662,2.511c0.828,1.268,2.791,0.481,4.009-0.418c1.219-0.899,3.16-1.714,4.017-0.465
				c0.263,0.382,0.32,0.864,0.472,1.303c0.576,1.664,2.375,2.492,3.775,3.559c1.401,1.067,2.51,3.189,1.325,4.491
				c-0.585,0.642-1.613,0.903-1.904,1.721c-0.363,1.023,0.682,1.94,1.509,2.643c1.377,1.171,1.626,4.675-0.194,5.633
				c-0.764,0.402-1.885,0.526-2.072,1.369c-0.168,0.754,0.597,1.34,1.105,1.921c1.396,1.596,0.805,4.47-1.107,5.386
				c-0.437,0.209-0.974,0.381-1.136,0.838c-0.116,0.327,0.011,0.683,0.104,1.017c0.177,0.632,0.237,1.297,0.175,1.95
				c-0.021,0.223-0.067,0.466-0.237,0.612c-0.155,0.133-0.373,0.153-0.577,0.162c-2.629,0.117-3.896-0.813-5.501,1.474
				c-0.154,0.22-0.316,0.446-0.547,0.581c-0.217,0.127-0.475,0.16-0.725,0.181c-1.807,0.149-2.988-0.979-4.639-1.189
				c-2.291-0.292-2.776,0.889-4.795,1.838C102.032,182.219,100.493,181.299,99.897,179.136z"/>
			<path style="fill:#EBEBEB;" d="M84.171,189.731c-0.152-0.551-0.243-1.182-0.284-1.877c-0.231-3.894-3.949-3.277-7.112-3.806
				c-2.471-0.413,4.072-6.655-0.91-8.669c-0.925-0.374-1.931-0.797-2.404-1.676c-0.626-1.162,0.007-2.692,1.085-3.455
				c1.078-0.762,2.463-0.924,3.783-0.948c0.813-0.988,0.152-2.475-0.635-3.484c-0.786-1.009-1.75-2.157-1.451-3.401
				c0.45-1.878,3.075-1.946,4.972-1.581c0.701-1.135,0.687-2.554,1.027-3.844c0.34-1.29,1.366-2.644,2.69-2.482
				c1.247,0.152,2.01,1.561,3.233,1.849c1.421,0.335,2.651-0.921,3.765-1.864c1.114-0.943,3.063-1.531,3.831-0.289
				c0.46,0.743,0.184,1.779,0.662,2.511c0.828,1.268,2.791,0.481,4.009-0.418c1.219-0.899,3.16-1.714,4.017-0.465
				c0.263,0.382,0.32,0.864,0.472,1.303c0.576,1.664,2.375,2.492,3.775,3.559c1.401,1.067,2.51,3.189,1.325,4.491
				c-0.585,0.642-1.613,0.903-1.904,1.721c-0.363,1.023,0.682,1.939,1.509,2.643c1.377,1.171,1.626,4.675-0.194,5.633
				c-0.764,0.402-1.885,0.526-2.072,1.369c-0.168,0.754,0.597,1.34,1.105,1.921c1.396,1.596,0.805,4.469-1.107,5.386
				c-0.437,0.209-0.974,0.381-1.136,0.838c-0.116,0.327,0.011,0.683,0.104,1.017c0.177,0.632,0.237,1.297,0.175,1.95
				c-0.021,0.223-0.067,0.466-0.237,0.612c-0.155,0.133-0.373,0.153-0.577,0.163c-2.629,0.117-3.896-0.813-5.501,1.474
				c-0.154,0.22-0.316,0.446-0.547,0.581c-0.217,0.126-0.475,0.16-0.725,0.181c-1.807,0.149-2.988-0.979-4.639-1.189
				c-2.291-0.292-2.776,0.889-4.795,1.838C86.307,192.814,84.768,191.894,84.171,189.731z"/>
			<path style="fill:#E6E6E6;" d="M88.939,203.122c0,0,6.577,9.298,8.844,12.246c2.268,2.948,13.607,21.318,15.15,33.467
				c0.165,1.297,0.327,2.413,0.485,3.389c-4.877,32.193-4.112,91.091-3.94,101.175h15.452c0.142-11.37,1.455-115.31,1.939-118.484
				c0.512-3.357,6.972-16.146,16.95-21.4c9.978-5.254,18.601-22.64,18.601-22.64h-3.18c0,0-5.896,10.659-14.287,16.555
				c-1.219,0.856-2.48,1.569-3.775,2.238c0.301-9.605-3.337-18.793-3.337-18.793l-1.717,1.587
				c2.318,9.493,2.013,15.573,1.312,19.066c-2.816,1.411-5.738,3.045-8.676,5.806c-8.704-11.318-13.598-37.202-13.598-37.202
				l-2.229,1.217c0,0,0.725,7.03,2.878,15.875c1.631,6.699,6.43,19.313,8.663,25.04c-2.219,3.082-4.424,7.067-6.575,12.342
				c-0.244-0.375-0.519-0.716-0.84-1.007c-5.67-5.126-16.328-29.345-16.328-29.345c-2.578-5.63,1.361-20.41,1.361-20.41h-2.975
				l-1.334,12.926l-7.484-8.164l-1.36,1.134l7.937,10.205l4.082,12.93L90.3,201.081L88.939,203.122z"/>
		</g>
		<g>
			<path style="fill:#EBEBEB;" d="M243.904,264.356c0.105-0.382,0.168-0.82,0.197-1.302c0.16-2.7,2.738-2.272,4.932-2.639
				c1.713-0.286-2.824-4.615,0.631-6.011c0.642-0.259,1.339-0.553,1.667-1.162c0.434-0.806-0.005-1.867-0.752-2.395
				c-0.747-0.528-1.708-0.64-2.623-0.658c-0.564-0.685-0.105-1.716,0.44-2.416c0.545-0.7,1.213-1.495,1.007-2.358
				c-0.312-1.303-2.132-1.349-3.448-1.096c-0.486-0.787-0.476-1.771-0.712-2.665c-0.236-0.894-0.947-1.833-1.865-1.721
				c-0.865,0.105-1.393,1.082-2.242,1.282c-0.985,0.232-1.838-0.639-2.611-1.292c-0.773-0.654-2.124-1.061-2.656-0.201
				c-0.319,0.515-0.128,1.234-0.459,1.741c-0.574,0.879-1.935,0.334-2.78-0.29c-0.845-0.624-2.191-1.188-2.786-0.323
				c-0.182,0.265-0.222,0.599-0.327,0.903c-0.4,1.154-1.647,1.728-2.618,2.468c-0.971,0.74-1.741,2.211-0.919,3.114
				c0.405,0.445,1.119,0.626,1.32,1.194c0.252,0.709-0.473,1.345-1.046,1.832c-0.955,0.812-1.128,3.241,0.134,3.906
				c0.53,0.279,1.307,0.365,1.437,0.949c0.116,0.523-0.414,0.929-0.766,1.332c-0.968,1.107-0.558,3.099,0.768,3.734
				c0.303,0.145,0.675,0.264,0.788,0.581c0.08,0.227-0.007,0.474-0.072,0.705c-0.123,0.438-0.165,0.899-0.122,1.352
				c0.015,0.155,0.046,0.323,0.165,0.424c0.107,0.092,0.259,0.106,0.4,0.113c1.822,0.081,2.702-0.564,3.814,1.022
				c0.107,0.152,0.219,0.309,0.38,0.403c0.15,0.088,0.329,0.111,0.503,0.125c1.253,0.103,2.072-0.679,3.216-0.824
				c1.589-0.202,1.925,0.617,3.325,1.275C242.423,266.494,243.491,265.856,243.904,264.356z"/>
			<path style="fill:#EBEBEB;" d="M222.915,262.088c0.105-0.382,0.168-0.82,0.197-1.302c0.16-2.7,2.738-2.272,4.931-2.639
				c1.713-0.286-2.823-4.615,0.631-6.011c0.642-0.259,1.339-0.552,1.667-1.162c0.434-0.806-0.005-1.867-0.752-2.395
				c-0.747-0.529-1.708-0.641-2.623-0.658c-0.563-0.685-0.105-1.716,0.44-2.416c0.545-0.7,1.213-1.495,1.007-2.358
				c-0.312-1.302-2.132-1.349-3.448-1.096c-0.486-0.787-0.477-1.771-0.712-2.666c-0.236-0.894-0.947-1.833-1.865-1.721
				c-0.865,0.105-1.394,1.082-2.242,1.282c-0.985,0.232-1.838-0.639-2.611-1.293c-0.773-0.653-2.124-1.061-2.656-0.201
				c-0.319,0.515-0.128,1.234-0.459,1.741c-0.574,0.879-1.935,0.334-2.78-0.29c-0.845-0.624-2.191-1.188-2.786-0.323
				c-0.182,0.265-0.222,0.599-0.327,0.903c-0.4,1.154-1.647,1.728-2.618,2.468c-0.971,0.74-1.741,2.211-0.919,3.114
				c0.406,0.445,1.119,0.626,1.32,1.193c0.252,0.709-0.473,1.345-1.046,1.833c-0.955,0.812-1.128,3.241,0.134,3.906
				c0.53,0.279,1.307,0.365,1.437,0.949c0.116,0.522-0.414,0.929-0.766,1.332c-0.968,1.107-0.558,3.099,0.768,3.734
				c0.303,0.145,0.675,0.264,0.788,0.581c0.08,0.227-0.007,0.474-0.072,0.705c-0.123,0.438-0.165,0.899-0.122,1.352
				c0.015,0.155,0.047,0.323,0.165,0.424c0.107,0.092,0.259,0.106,0.4,0.113c1.822,0.081,2.702-0.564,3.814,1.022
				c0.107,0.152,0.219,0.31,0.38,0.403c0.15,0.088,0.329,0.111,0.503,0.125c1.253,0.103,2.072-0.679,3.217-0.825
				c1.589-0.202,1.925,0.617,3.324,1.275C221.434,264.226,222.501,263.588,222.915,262.088z"/>
			<path style="fill:#EBEBEB;" d="M220.892,248.721c0.105-0.382,0.168-0.82,0.197-1.302c0.16-2.7,2.738-2.272,4.932-2.639
				c1.713-0.286-2.824-4.615,0.631-6.011c0.642-0.259,1.339-0.553,1.667-1.162c0.434-0.806-0.005-1.867-0.752-2.395
				s-1.708-0.641-2.623-0.658c-0.564-0.685-0.105-1.716,0.44-2.416c0.545-0.7,1.213-1.495,1.007-2.358
				c-0.312-1.303-2.132-1.349-3.448-1.096c-0.486-0.787-0.477-1.771-0.712-2.665c-0.236-0.894-0.947-1.833-1.865-1.721
				c-0.865,0.105-1.393,1.082-2.242,1.282c-0.985,0.232-1.838-0.639-2.611-1.292c-0.773-0.654-2.124-1.061-2.656-0.201
				c-0.319,0.515-0.128,1.234-0.459,1.741c-0.574,0.879-1.935,0.334-2.78-0.29c-0.845-0.624-2.191-1.188-2.786-0.323
				c-0.182,0.265-0.222,0.599-0.327,0.903c-0.4,1.154-1.647,1.728-2.618,2.468c-0.971,0.74-1.741,2.211-0.919,3.114
				c0.406,0.445,1.118,0.626,1.32,1.193c0.252,0.709-0.473,1.345-1.046,1.833c-0.954,0.812-1.128,3.241,0.134,3.906
				c0.53,0.279,1.307,0.365,1.437,0.949c0.116,0.523-0.414,0.929-0.766,1.332c-0.968,1.107-0.558,3.099,0.768,3.734
				c0.303,0.145,0.675,0.264,0.787,0.581c0.08,0.227-0.007,0.474-0.072,0.705c-0.123,0.438-0.165,0.899-0.122,1.352
				c0.015,0.155,0.047,0.323,0.165,0.424c0.107,0.092,0.259,0.106,0.4,0.113c1.822,0.081,2.702-0.564,3.814,1.022
				c0.107,0.152,0.219,0.309,0.38,0.403c0.151,0.088,0.329,0.111,0.503,0.125c1.253,0.103,2.072-0.679,3.217-0.825
				c1.589-0.202,1.925,0.617,3.324,1.275C219.411,250.859,220.479,250.221,220.892,248.721z"/>
			<path style="fill:#EBEBEB;" d="M207.066,255.379c0.105-0.382,0.168-0.82,0.197-1.302c0.16-2.7,2.738-2.272,4.932-2.639
				c1.713-0.286-2.824-4.615,0.631-6.011c0.642-0.259,1.339-0.553,1.667-1.162c0.434-0.806-0.005-1.867-0.752-2.395
				c-0.747-0.529-1.708-0.641-2.623-0.658c-0.564-0.685-0.105-1.716,0.44-2.416c0.545-0.7,1.213-1.495,1.007-2.358
				c-0.312-1.302-2.132-1.349-3.448-1.096c-0.486-0.787-0.477-1.771-0.712-2.665c-0.236-0.894-0.947-1.833-1.865-1.721
				c-0.865,0.105-1.393,1.082-2.242,1.282c-0.985,0.232-1.838-0.639-2.611-1.292c-0.773-0.654-2.124-1.061-2.656-0.201
				c-0.319,0.515-0.128,1.234-0.459,1.741c-0.574,0.88-1.935,0.334-2.78-0.29c-0.845-0.624-2.191-1.188-2.786-0.323
				c-0.182,0.265-0.222,0.599-0.327,0.903c-0.4,1.154-1.647,1.728-2.618,2.468c-0.971,0.74-1.741,2.211-0.919,3.114
				c0.406,0.445,1.118,0.626,1.32,1.193c0.252,0.709-0.473,1.345-1.046,1.833c-0.954,0.812-1.128,3.241,0.134,3.906
				c0.53,0.279,1.307,0.365,1.437,0.949c0.116,0.523-0.414,0.929-0.766,1.332c-0.968,1.107-0.558,3.099,0.768,3.734
				c0.303,0.145,0.675,0.264,0.787,0.581c0.08,0.227-0.007,0.474-0.072,0.705c-0.123,0.438-0.165,0.899-0.121,1.352
				c0.015,0.155,0.046,0.323,0.165,0.424c0.107,0.092,0.259,0.106,0.4,0.113c1.823,0.081,2.702-0.564,3.814,1.022
				c0.107,0.152,0.219,0.309,0.38,0.403c0.151,0.088,0.329,0.111,0.503,0.125c1.253,0.103,2.072-0.679,3.217-0.825
				c1.589-0.202,1.925,0.617,3.325,1.275C205.585,257.517,206.652,256.879,207.066,255.379z"/>
			<path style="fill:#EBEBEB;" d="M193.092,252.304c0.105-0.382,0.168-0.82,0.197-1.302c0.16-2.7,2.738-2.272,4.931-2.639
				c1.713-0.286-2.824-4.615,0.631-6.011c0.642-0.259,1.339-0.553,1.667-1.162c0.434-0.806-0.005-1.867-0.752-2.395
				s-1.708-0.641-2.623-0.658c-0.563-0.685-0.105-1.716,0.44-2.416c0.545-0.7,1.213-1.495,1.007-2.358
				c-0.312-1.303-2.132-1.349-3.448-1.096c-0.486-0.787-0.477-1.771-0.712-2.666c-0.236-0.894-0.947-1.833-1.865-1.721
				c-0.865,0.105-1.394,1.082-2.242,1.282c-0.985,0.232-1.838-0.639-2.61-1.292c-0.773-0.654-2.124-1.061-2.656-0.201
				c-0.319,0.515-0.128,1.234-0.459,1.741c-0.574,0.879-1.935,0.334-2.78-0.29c-0.845-0.624-2.191-1.188-2.786-0.323
				c-0.182,0.265-0.222,0.599-0.327,0.903c-0.4,1.154-1.647,1.728-2.618,2.468c-0.971,0.74-1.741,2.211-0.919,3.114
				c0.406,0.445,1.119,0.626,1.32,1.193c0.252,0.709-0.473,1.345-1.046,1.833c-0.955,0.812-1.128,3.241,0.134,3.906
				c0.53,0.279,1.307,0.365,1.437,0.949c0.116,0.523-0.414,0.929-0.766,1.332c-0.968,1.107-0.558,3.099,0.768,3.734
				c0.303,0.145,0.675,0.264,0.788,0.581c0.08,0.227-0.007,0.474-0.072,0.705c-0.123,0.438-0.165,0.899-0.122,1.352
				c0.015,0.155,0.046,0.323,0.165,0.424c0.107,0.092,0.259,0.106,0.4,0.113c1.822,0.081,2.702-0.564,3.814,1.022
				c0.107,0.152,0.219,0.309,0.38,0.403c0.151,0.088,0.329,0.111,0.503,0.125c1.253,0.103,2.072-0.679,3.217-0.824
				c1.589-0.202,1.925,0.617,3.324,1.274C191.611,254.442,192.678,253.804,193.092,252.304z"/>
			<path style="fill:#EBEBEB;" d="M192.909,267.252c0.083-0.301,0.132-0.646,0.155-1.025c0.126-2.126,2.156-1.789,3.883-2.078
				c1.349-0.225-2.223-3.634,0.497-4.733c0.505-0.204,1.054-0.435,1.313-0.915c0.342-0.635-0.004-1.47-0.592-1.886
				c-0.588-0.416-1.345-0.504-2.065-0.518c-0.444-0.539-0.083-1.351,0.346-1.902s0.955-1.178,0.793-1.857
				c-0.246-1.026-1.679-1.062-2.715-0.863c-0.383-0.62-0.375-1.395-0.561-2.099c-0.186-0.704-0.746-1.443-1.469-1.355
				c-0.681,0.083-1.097,0.852-1.765,1.009c-0.776,0.183-1.447-0.503-2.056-1.018c-0.608-0.515-1.672-0.836-2.091-0.158
				c-0.251,0.406-0.101,0.971-0.361,1.371c-0.452,0.692-1.524,0.263-2.189-0.228c-0.665-0.491-1.725-0.936-2.193-0.254
				c-0.143,0.209-0.175,0.472-0.258,0.711c-0.315,0.908-1.297,1.361-2.061,1.943c-0.765,0.583-1.371,1.741-0.723,2.452
				c0.319,0.351,0.881,0.493,1.039,0.94c0.198,0.558-0.372,1.059-0.824,1.443c-0.752,0.639-0.888,2.552,0.106,3.075
				c0.417,0.22,1.029,0.287,1.131,0.747c0.092,0.411-0.326,0.732-0.604,1.049c-0.762,0.871-0.439,2.44,0.605,2.94
				c0.239,0.114,0.532,0.208,0.62,0.457c0.063,0.178-0.006,0.373-0.057,0.555c-0.097,0.345-0.13,0.708-0.096,1.065
				c0.012,0.122,0.037,0.254,0.13,0.334c0.084,0.073,0.204,0.084,0.315,0.089c1.435,0.064,2.127-0.444,3.003,0.805
				c0.084,0.12,0.172,0.244,0.299,0.317c0.119,0.069,0.259,0.087,0.396,0.099c0.986,0.081,1.631-0.534,2.533-0.649
				c1.251-0.159,1.516,0.486,2.618,1.004C191.744,268.935,192.584,268.433,192.909,267.252z"/>
			<path style="fill:#EBEBEB;" d="M185.079,262.088c0.105-0.382,0.168-0.82,0.197-1.302c0.16-2.7,2.738-2.272,4.932-2.639
				c1.713-0.286-2.824-4.615,0.631-6.011c0.642-0.259,1.339-0.552,1.667-1.162c0.434-0.806-0.005-1.867-0.752-2.395
				c-0.747-0.529-1.708-0.641-2.623-0.658c-0.564-0.685-0.105-1.716,0.44-2.416c0.545-0.7,1.213-1.495,1.007-2.358
				c-0.312-1.302-2.132-1.349-3.448-1.096c-0.486-0.787-0.477-1.771-0.712-2.666c-0.236-0.894-0.947-1.833-1.865-1.721
				c-0.865,0.105-1.393,1.082-2.242,1.282c-0.985,0.232-1.838-0.639-2.611-1.293c-0.773-0.653-2.124-1.061-2.656-0.201
				c-0.319,0.515-0.128,1.234-0.459,1.741c-0.574,0.879-1.935,0.334-2.78-0.29c-0.845-0.624-2.191-1.188-2.786-0.323
				c-0.182,0.265-0.222,0.599-0.327,0.903c-0.4,1.154-1.647,1.728-2.618,2.468c-0.971,0.74-1.741,2.211-0.919,3.114
				c0.406,0.445,1.118,0.626,1.32,1.193c0.252,0.709-0.473,1.345-1.046,1.833c-0.954,0.812-1.128,3.241,0.134,3.906
				c0.53,0.279,1.307,0.365,1.437,0.949c0.116,0.522-0.414,0.929-0.766,1.332c-0.968,1.107-0.558,3.099,0.768,3.734
				c0.303,0.145,0.675,0.264,0.787,0.581c0.08,0.227-0.007,0.474-0.072,0.705c-0.123,0.438-0.165,0.899-0.122,1.352
				c0.015,0.155,0.047,0.323,0.165,0.424c0.107,0.092,0.259,0.106,0.4,0.113c1.822,0.081,2.702-0.564,3.814,1.022
				c0.107,0.152,0.219,0.31,0.38,0.403c0.151,0.088,0.329,0.111,0.503,0.125c1.253,0.103,2.072-0.679,3.217-0.825
				c1.589-0.202,1.925,0.617,3.324,1.275C183.599,264.226,184.666,263.588,185.079,262.088z"/>
			<path style="fill:#EBEBEB;" d="M207.066,238.937c0.105-0.382,0.168-0.82,0.197-1.302c0.16-2.7,2.738-2.272,4.932-2.639
				c1.713-0.286-2.824-4.615,0.631-6.011c0.642-0.259,1.339-0.553,1.667-1.162c0.434-0.806-0.005-1.867-0.752-2.395
				c-0.747-0.528-1.708-0.641-2.623-0.658c-0.564-0.685-0.105-1.716,0.44-2.415c0.545-0.7,1.213-1.496,1.007-2.358
				c-0.312-1.303-2.132-1.349-3.448-1.096c-0.486-0.787-0.477-1.771-0.712-2.665c-0.236-0.894-0.947-1.833-1.865-1.721
				c-0.865,0.105-1.393,1.082-2.242,1.282c-0.985,0.232-1.838-0.639-2.611-1.292c-0.773-0.654-2.124-1.061-2.656-0.201
				c-0.319,0.515-0.128,1.234-0.459,1.741c-0.574,0.879-1.935,0.334-2.78-0.29c-0.845-0.624-2.191-1.188-2.786-0.323
				c-0.182,0.265-0.222,0.599-0.327,0.903c-0.4,1.154-1.647,1.728-2.618,2.468c-0.971,0.74-1.741,2.211-0.919,3.114
				c0.406,0.445,1.118,0.626,1.32,1.193c0.252,0.709-0.473,1.345-1.046,1.833c-0.954,0.812-1.128,3.241,0.134,3.906
				c0.53,0.279,1.307,0.365,1.437,0.949c0.116,0.523-0.414,0.929-0.766,1.332c-0.968,1.107-0.558,3.099,0.768,3.734
				c0.303,0.145,0.675,0.264,0.787,0.581c0.08,0.227-0.007,0.474-0.072,0.705c-0.123,0.438-0.165,0.899-0.121,1.352
				c0.015,0.155,0.046,0.323,0.165,0.424c0.107,0.092,0.259,0.106,0.4,0.113c1.823,0.081,2.702-0.564,3.814,1.022
				c0.107,0.152,0.219,0.309,0.38,0.403c0.151,0.088,0.329,0.111,0.503,0.125c1.253,0.103,2.072-0.679,3.217-0.825
				c1.589-0.202,1.925,0.617,3.325,1.275C205.585,241.075,206.652,240.437,207.066,238.937z"/>
			<path style="fill:#EBEBEB;" d="M225.017,239.855c0.105-0.382,0.168-0.82,0.197-1.302c0.16-2.7,2.738-2.272,4.931-2.639
				c1.713-0.286-2.823-4.615,0.631-6.011c0.642-0.259,1.339-0.553,1.667-1.162c0.434-0.806-0.005-1.867-0.752-2.395
				c-0.747-0.528-1.708-0.64-2.623-0.658c-0.564-0.685-0.105-1.716,0.44-2.416c0.545-0.7,1.213-1.496,1.007-2.358
				c-0.312-1.303-2.132-1.349-3.448-1.096c-0.486-0.787-0.477-1.771-0.712-2.666c-0.236-0.894-0.947-1.833-1.865-1.721
				c-0.865,0.105-1.393,1.082-2.242,1.282c-0.985,0.232-1.838-0.639-2.611-1.292c-0.773-0.654-2.124-1.061-2.656-0.201
				c-0.319,0.515-0.128,1.234-0.459,1.741c-0.574,0.879-1.935,0.334-2.78-0.29c-0.845-0.624-2.191-1.188-2.786-0.323
				c-0.182,0.265-0.222,0.599-0.327,0.903c-0.4,1.153-1.647,1.728-2.618,2.468c-0.971,0.74-1.741,2.211-0.919,3.114
				c0.406,0.445,1.119,0.626,1.32,1.193c0.252,0.709-0.473,1.345-1.046,1.833c-0.955,0.812-1.128,3.241,0.134,3.906
				c0.53,0.279,1.307,0.365,1.437,0.949c0.116,0.523-0.414,0.929-0.766,1.332c-0.968,1.107-0.558,3.099,0.768,3.734
				c0.303,0.145,0.675,0.264,0.788,0.581c0.08,0.227-0.007,0.474-0.072,0.705c-0.123,0.438-0.164,0.899-0.122,1.352
				c0.015,0.155,0.046,0.323,0.165,0.424c0.107,0.092,0.259,0.106,0.4,0.113c1.823,0.081,2.702-0.564,3.814,1.022
				c0.107,0.152,0.219,0.309,0.38,0.403c0.151,0.088,0.329,0.111,0.503,0.125c1.253,0.103,2.072-0.679,3.217-0.825
				c1.589-0.202,1.925,0.617,3.325,1.274C223.537,241.993,224.604,241.355,225.017,239.855z"/>
			<path style="fill:#EBEBEB;" d="M235.921,247.202c0.105-0.382,0.168-0.82,0.197-1.302c0.16-2.7,2.738-2.272,4.932-2.639
				c1.713-0.286-2.824-4.615,0.631-6.011c0.642-0.259,1.339-0.553,1.667-1.162c0.434-0.806-0.005-1.867-0.752-2.395
				c-0.747-0.529-1.708-0.641-2.623-0.658c-0.563-0.685-0.105-1.716,0.44-2.416c0.545-0.7,1.213-1.496,1.007-2.358
				c-0.312-1.303-2.132-1.349-3.448-1.096c-0.486-0.787-0.477-1.771-0.712-2.665c-0.236-0.894-0.947-1.833-1.865-1.721
				c-0.865,0.105-1.393,1.082-2.242,1.282c-0.985,0.232-1.838-0.639-2.611-1.292c-0.773-0.654-2.124-1.061-2.656-0.201
				c-0.319,0.515-0.128,1.234-0.459,1.741c-0.574,0.879-1.935,0.334-2.78-0.29c-0.845-0.624-2.191-1.188-2.786-0.323
				c-0.182,0.265-0.222,0.599-0.327,0.903c-0.4,1.154-1.647,1.728-2.618,2.468c-0.971,0.74-1.741,2.211-0.919,3.114
				c0.406,0.445,1.119,0.626,1.32,1.193c0.252,0.709-0.473,1.345-1.046,1.833c-0.955,0.812-1.128,3.241,0.134,3.906
				c0.53,0.279,1.307,0.365,1.437,0.949c0.116,0.523-0.414,0.929-0.767,1.332c-0.968,1.107-0.558,3.099,0.768,3.734
				c0.303,0.145,0.675,0.264,0.787,0.581c0.08,0.227-0.007,0.474-0.072,0.705c-0.123,0.438-0.164,0.899-0.121,1.352
				c0.015,0.155,0.046,0.323,0.165,0.424c0.107,0.092,0.259,0.106,0.4,0.113c1.823,0.081,2.702-0.564,3.814,1.022
				c0.107,0.152,0.219,0.309,0.38,0.403c0.15,0.088,0.329,0.111,0.503,0.125c1.253,0.103,2.072-0.679,3.216-0.825
				c1.589-0.202,1.925,0.617,3.325,1.275C234.441,249.339,235.508,248.702,235.921,247.202z"/>
			<path style="fill:#E6E6E6;" d="M232.615,256.487c0,0-4.56,6.447-6.133,8.491c-1.572,2.044-9.435,14.781-10.505,23.206
				c-0.114,0.899-0.227,1.673-0.337,2.35c3.382,22.322,2.851,63.161,2.732,70.153h-10.714c-0.099-7.884-1.009-79.954-1.345-82.155
				c-0.355-2.328-4.834-11.195-11.753-14.838c-6.919-3.643-12.898-15.698-12.898-15.698h2.205c0,0,4.088,7.391,9.906,11.479
				c0.845,0.594,1.72,1.088,2.618,1.552c-0.209-6.66,2.314-13.031,2.314-13.031l1.19,1.101c-1.607,6.582-1.396,10.798-0.909,13.22
				c1.953,0.978,3.979,2.111,6.016,4.026c6.035-7.848,9.429-25.795,9.429-25.795l1.545,0.844c0,0-0.502,4.875-1.995,11.007
				c-1.131,4.645-4.458,13.391-6.007,17.362c1.539,2.137,3.067,4.9,4.559,8.558c0.169-0.26,0.36-0.497,0.582-0.698
				c3.931-3.554,11.322-20.347,11.322-20.347c1.787-3.904-0.944-14.152-0.944-14.152h2.063l0.925,8.963l5.189-5.661l0.943,0.786
				l-5.504,7.076l-2.83,8.965l7.391-8.179L232.615,256.487z"/>
		</g>
		<path style="fill:#EBEBEB;" d="M198.209,382.155c0.656-2.488,3.675-15.624-4.917-18.457c-9.5-3.133-15.136-10.491-14.818-18.812
			c0.318-8.321-9.682-16.419-17.182-8.62c-7.5,7.799-6.5-5.997-16.5-9.349c-10-3.352-18.477,4.781-15.738,12.214
			c2.738,7.433-7.13,12.076-18.946,5.755c-11.816-6.321-24.816,5.179-22.316,14.179s0.453,10-7.023,7
			c-7.383-2.962-20.504,5.291-16.318,16.091H198.209z"/>
		<path style="fill:#EBEBEB;" d="M251.464,382.155h-71.262c-1.757-3.469,1.023-8.119,4.079-8.73
			c3.467-0.693,6.952-6.794,7.116-10.677c0.164-3.884,6.405-15.829,16.112-8.452c9.707,7.377,6.757,1.086,13.779-0.986
			c7.022-2.072,11.452,3.89,8.37,8.363c0,0,7.054-1.768,9.96,4.819c2.906,6.587,0,10.678,0,10.678S249.597,376.878,251.464,382.155z
			"/>
	</g>
</g>
<g id="Background_Simple" style="display:none;">
	<g style="display:inline;">
		<path style="fill:#407BFF;" d="M104.556,101.625c27.919-59.449,127.059-51.062,165.317-9.255
			c38.258,41.806,50.696,68.599,85.208,52.983c34.512-15.616,78.518-11.44,81.043,38.164s-37.913,108.263-102.09,125.615
			c-64.177,17.352-64.161,78.759-149.1,66.368c-46.31-6.756-47.365-56.86-40.825-98.301S72.177,170.569,104.556,101.625z"/>
		<path style="opacity:0.9;fill:#FFFFFF;" d="M104.556,101.625c27.919-59.449,127.059-51.062,165.317-9.255
			c38.258,41.806,50.696,68.599,85.208,52.983c34.512-15.616,78.518-11.44,81.043,38.164s-37.913,108.263-102.09,125.615
			c-64.177,17.352-64.161,78.759-149.1,66.368c-46.31-6.756-47.365-56.86-40.825-98.301S72.177,170.569,104.556,101.625z"/>
	</g>
</g>
<g id="Shadow_1_">
	<ellipse id="_x3C_Path_x3E__359_" style="fill:#F5F5F5;" cx="250" cy="416.238" rx="193.889" ry="11.323"/>
</g>
<g id="Backpack">
	<g>
		<g>
			<g>
				<path style="fill:#263238;" d="M170.232,412.558c-1.137,0.269-2.76,0.465-4.971,0.548c-18.056,0.672-23.028-3.99-23.028-3.99
					l-53.321-85.785c0,0-4.155-12.351,3.39-17.064c1.054-0.661,2.336-1.168,3.886-1.478c12.671-2.501,15.762,13.963,15.762,13.963
					l50.003,85.516C161.952,404.268,178.396,410.563,170.232,412.558z"/>
				<path style="opacity:0.4;fill:#FFFFFF;enable-background:new    ;" d="M170.232,412.558c-1.137,0.269-2.76,0.465-4.971,0.548
					c-18.056,0.672-23.028-3.99-23.028-3.99l-53.321-85.785c0,0-4.155-12.351,3.39-17.064c1.054-0.661,2.336-1.168,3.886-1.478
					c12.671-2.501,15.762,13.963,15.762,13.963l50.003,85.516C161.952,404.268,178.396,410.563,170.232,412.558z"/>
				<path style="fill:#263238;" d="M170.232,412.558c-1.137,0.269-2.76,0.465-4.971,0.548c-18.056,0.672-23.028-3.99-23.028-3.99
					l-53.321-85.785c0,0-4.155-12.351,3.39-17.064c0.568-0.207,1.199-0.382,1.871-0.517c12.672-2.491,15.762,13.963,15.762,13.963
					l50.004,85.527C159.937,405.24,172.412,410.015,170.232,412.558z"/>
			</g>
			<g>
				<g>
					<path style="fill:#263238;" d="M91.338,331.883c0,0-1.087,0.108-2.906,0.963c-1.819,0.855-2.498,3.239-1.517,5.324
						c0.981,2.085,3.161,2.859,5.068,2.227c1.664-0.551,2.044-0.701,2.044-0.701L91.338,331.883z"/>
					<path style="opacity:0.4;fill:#FFFFFF;enable-background:new    ;" d="M91.338,331.883c0,0-1.087,0.108-2.906,0.963
						c-1.819,0.855-2.498,3.239-1.517,5.324c0.981,2.085,3.161,2.859,5.068,2.227c1.664-0.551,2.044-0.701,2.044-0.701
						L91.338,331.883z"/>
					<path style="fill:#FFFFFF;" d="M95.545,334.372c0.981,2.085,0.301,4.469-1.517,5.324c-1.819,0.855-4.088-0.142-5.069-2.227
						c-0.981-2.085-0.301-4.469,1.517-5.324C92.295,331.29,94.564,332.286,95.545,334.372z"/>
					<path style="fill:#263238;" d="M95.108,334.577c0.587,1.248,0.18,2.674-0.908,3.186c-1.088,0.512-2.446-0.085-3.033-1.332
						s-0.18-2.674,0.908-3.186C93.163,332.733,94.521,333.329,95.108,334.577z"/>
				</g>
				<g>
					<path style="opacity:0.2;fill:#FFFFFF;enable-background:new    ;" d="M96.324,329.741l3.13,5.257
						c0.107,0.18,0.32,0.268,0.523,0.216l6.487-1.666c0.302-0.077,0.447-0.421,0.293-0.691l-3.25-5.703
						c-0.111-0.195-0.345-0.285-0.559-0.214l-6.367,2.112C96.295,329.146,96.17,329.482,96.324,329.741z"/>
					<circle style="fill:#263238;" cx="102.976" cy="327.496" r="0.273"/>
					<circle style="fill:#263238;" cx="96.875" cy="329.509" r="0.273"/>
					<path style="fill:#263238;" d="M100.113,334.54c0,0.151-0.122,0.273-0.273,0.273c-0.151,0-0.273-0.122-0.273-0.273
						c0-0.151,0.122-0.273,0.273-0.273C99.991,334.267,100.113,334.389,100.113,334.54z"/>
					<circle style="fill:#263238;" cx="105.784" cy="333.189" r="0.273"/>
					<polygon style="fill:#263238;" points="93.434,336.225 108.869,332.03 108.675,330.565 102.6,331.118 101.577,329.236 
						98.409,330.259 97.08,332.455 93.194,334.662 92.904,335.445 					"/>
					<polygon style="opacity:0.2;fill:#FFFFFF;enable-background:new    ;" points="93.434,336.225 108.869,332.03 108.675,330.565 
						102.6,331.118 101.577,329.236 98.409,330.259 97.08,332.455 93.194,334.662 92.904,335.445 					"/>
					<polygon style="opacity:0.2;fill:#FFFFFF;enable-background:new    ;" points="92.904,335.445 107.608,331.69 107.949,330.974 
						101.714,331.315 101.577,329.236 98.409,330.259 96.943,332.609 93.194,334.662 					"/>
				</g>
				<g>
					<path style="fill:#263238;" d="M106.875,327.496c0,0-1.087,0.108-2.906,0.964c-1.819,0.855-2.498,3.239-1.517,5.324
						c0.98,2.085,3.161,2.859,5.068,2.227c1.664-0.551,2.044-0.701,2.044-0.701L106.875,327.496z"/>
					<path style="opacity:0.4;fill:#FFFFFF;enable-background:new    ;" d="M106.875,327.496c0,0-1.087,0.108-2.906,0.964
						c-1.819,0.855-2.498,3.239-1.517,5.324c0.98,2.085,3.161,2.859,5.068,2.227c1.664-0.551,2.044-0.701,2.044-0.701
						L106.875,327.496z"/>
					<path style="fill:#FFFFFF;" d="M111.082,329.986c0.981,2.085,0.301,4.469-1.517,5.324c-1.819,0.855-4.088-0.142-5.069-2.227
						c-0.981-2.085-0.301-4.469,1.517-5.324C107.833,326.904,110.102,327.901,111.082,329.986z"/>
					<path style="fill:#263238;" d="M110.646,330.191c0.587,1.248,0.18,2.674-0.908,3.186c-1.088,0.512-2.446-0.085-3.033-1.333
						c-0.587-1.248-0.18-2.674,0.908-3.186C108.701,328.347,110.059,328.943,110.646,330.191z"/>
				</g>
			</g>
			<g>
				<g>
					<path style="fill:#263238;" d="M129.723,394.909c0,0-1.087,0.108-2.906,0.963c-1.819,0.855-2.498,3.239-1.517,5.324
						c0.981,2.085,3.161,2.859,5.068,2.227c1.664-0.551,2.044-0.701,2.044-0.701L129.723,394.909z"/>
					<path style="opacity:0.4;fill:#FFFFFF;enable-background:new    ;" d="M129.723,394.909c0,0-1.087,0.108-2.906,0.963
						c-1.819,0.855-2.498,3.239-1.517,5.324c0.981,2.085,3.161,2.859,5.068,2.227c1.664-0.551,2.044-0.701,2.044-0.701
						L129.723,394.909z"/>
					<path style="fill:#FFFFFF;" d="M133.93,397.399c0.981,2.085,0.301,4.469-1.517,5.324c-1.819,0.855-4.088-0.141-5.069-2.227
						c-0.981-2.085-0.301-4.469,1.517-5.324C130.68,394.317,132.949,395.314,133.93,397.399z"/>
					<path style="fill:#263238;" d="M133.493,397.604c0.587,1.248,0.18,2.674-0.908,3.186c-1.088,0.512-2.446-0.085-3.033-1.332
						s-0.18-2.674,0.908-3.186C131.548,395.76,132.906,396.356,133.493,397.604z"/>
				</g>
				<g>
					<path style="opacity:0.2;fill:#FFFFFF;enable-background:new    ;" d="M134.709,392.768l3.13,5.257
						c0.107,0.18,0.32,0.268,0.523,0.216l6.487-1.666c0.302-0.077,0.447-0.421,0.293-0.691l-3.25-5.703
						c-0.111-0.195-0.345-0.285-0.559-0.214l-6.367,2.112C134.68,392.173,134.555,392.509,134.709,392.768z"/>
					<circle style="fill:#263238;" cx="141.361" cy="390.523" r="0.273"/>
					<circle style="fill:#263238;" cx="135.26" cy="392.536" r="0.273"/>
					<path style="fill:#263238;" d="M138.498,397.567c0,0.151-0.122,0.273-0.273,0.273c-0.151,0-0.273-0.122-0.273-0.273
						c0-0.151,0.122-0.273,0.273-0.273C138.376,397.294,138.498,397.416,138.498,397.567z"/>
					<path style="fill:#263238;" d="M144.442,396.216c0,0.151-0.122,0.273-0.273,0.273c-0.151,0-0.273-0.122-0.273-0.273
						c0-0.151,0.122-0.273,0.273-0.273C144.32,395.943,144.442,396.065,144.442,396.216z"/>
					<polygon style="fill:#263238;" points="131.819,399.252 147.254,395.057 147.06,393.592 140.985,394.145 139.962,392.263 
						136.794,393.285 135.465,395.482 131.579,397.689 131.289,398.472 					"/>
					<polygon style="opacity:0.2;fill:#FFFFFF;enable-background:new    ;" points="131.819,399.252 147.254,395.057 
						147.06,393.592 140.985,394.145 139.962,392.263 136.794,393.285 135.465,395.482 131.579,397.689 131.289,398.472 					"/>
					<polygon style="opacity:0.2;fill:#FFFFFF;enable-background:new    ;" points="131.289,398.472 145.993,394.716 
						146.334,394.001 140.099,394.342 139.962,392.263 136.794,393.285 135.328,395.637 131.579,397.689 					"/>
				</g>
				<g>
					<path style="fill:#263238;" d="M145.26,390.523c0,0-1.087,0.108-2.906,0.964c-1.819,0.855-2.498,3.239-1.517,5.324
						c0.98,2.085,3.161,2.859,5.068,2.227c1.664-0.551,2.044-0.701,2.044-0.701L145.26,390.523z"/>
					<path style="opacity:0.4;fill:#FFFFFF;enable-background:new    ;" d="M145.26,390.523c0,0-1.087,0.108-2.906,0.964
						c-1.819,0.855-2.498,3.239-1.517,5.324c0.98,2.085,3.161,2.859,5.068,2.227c1.664-0.551,2.044-0.701,2.044-0.701
						L145.26,390.523z"/>
					<path style="fill:#FFFFFF;" d="M149.467,393.013c0.981,2.085,0.301,4.469-1.517,5.324c-1.819,0.855-4.088-0.142-5.069-2.227
						c-0.981-2.085-0.301-4.469,1.517-5.324C146.217,389.931,148.487,390.927,149.467,393.013z"/>
					<path style="fill:#263238;" d="M149.031,393.218c0.587,1.248,0.18,2.674-0.908,3.186c-1.088,0.512-2.446-0.085-3.033-1.332
						c-0.587-1.248-0.18-2.674,0.908-3.186C147.086,391.374,148.444,391.97,149.031,393.218z"/>
				</g>
			</g>
		</g>
		<g>
			<path style="fill:#263238;" d="M82.974,340.178c0,0-2.249-6.138,6.746-7.569c8.995-1.431,13.365,7.569,13.365,7.569h-1.303
				c0,0-4.089-5.934-9.813-5.525c-5.724,0.409-4.907,4.702-4.907,4.702L82.974,340.178z"/>
			<path style="fill:#263238;" d="M85.698,344.263c0,0-16.217,11.04-26.439,30.666c-10.222,19.626-15.742,45.129,16.355,41.214
				l0.409-1.999c0,0-11.474,1.146-17.173-1.916s-4.907-26.872,11.857-42.818C87.471,353.462,85.698,344.263,85.698,344.263z"/>
			<path style="fill:#407BFF;" d="M91.97,337.827c0,0-19.014-1.947-23.716,4.8s1.625,69.547,4.697,73.515
				c3.072,3.968,30.134,2.796,30.134,2.796L91.97,337.827z"/>
			<path style="opacity:0.2;enable-background:new    ;" d="M91.97,337.827c0,0-19.014-1.947-23.716,4.8s1.625,69.547,4.697,73.515
				c3.072,3.968,30.134,2.796,30.134,2.796L91.97,337.827z"/>
			<path style="fill:#407BFF;" d="M125.516,418.938H87.447c-3.774,0-6.991-2.728-7.599-6.452
				c-2.912-17.848-10.35-66.876-5.029-71.612c6.519-5.802,40.047-2.354,45.771,2.153c4.487,3.533,10.278,48.169,12.572,67.3
				C133.712,414.909,130.131,418.938,125.516,418.938z"/>
			<path style="opacity:0.2;enable-background:new    ;" d="M123.546,412.227H92.105c-2.181,0-4.041-1.623-4.33-3.793l-2.698-19.751
				c-0.351-2.625,1.685-4.961,4.341-4.961h31.441c2.191,0,4.041,1.612,4.341,3.783l2.687,19.751
				C128.248,409.881,126.202,412.227,123.546,412.227z"/>
			<path style="fill:#407BFF;" d="M123.546,412.227h-28.34c-2.181,0-4.041-1.623-4.33-3.793l-2.698-19.751
				c-0.351-2.625,1.685-4.961,4.341-4.961h28.34c2.191,0,4.041,1.612,4.341,3.783l2.687,19.751
				C128.248,409.881,126.202,412.227,123.546,412.227z"/>
			<g>
				<path style="opacity:0.2;enable-background:new    ;" d="M116.228,371.66H88.973c-2.129,0-3.7-2.005-3.173-4.072
					c1.437-5.685,5.406-15.297,15.783-15.152c0.455,0.01,0.899,0.031,1.333,0.083c9.178,0.858,14.088,9.209,16.33,14.594
					C120.146,369.272,118.574,371.66,116.228,371.66z"/>
				<path style="fill:#407BFF;" d="M116.228,371.66H92.074c-2.129,0-3.7-2.005-3.173-4.072c1.354-5.354,4.94-14.17,14.015-15.069
					c9.178,0.858,14.088,9.209,16.33,14.594C120.146,369.272,118.574,371.66,116.228,371.66z"/>
				<path style="opacity:0.2;fill:#FFFFFF;" d="M116.228,371.66H92.074c-2.129,0-3.7-2.005-3.173-4.072
					c1.354-5.354,4.94-14.17,14.015-15.069c9.178,0.858,14.088,9.209,16.33,14.594C120.146,369.272,118.574,371.66,116.228,371.66z"
					/>
			</g>
			<path style="opacity:0.2;fill:#FFFFFF;" d="M123.546,412.227h-28.34c-2.181,0-4.041-1.623-4.33-3.793l-2.698-19.751
				c-0.351-2.625,1.685-4.961,4.341-4.961h28.34c2.191,0,4.041,1.612,4.341,3.783l2.687,19.751
				C128.248,409.881,126.202,412.227,123.546,412.227z"/>
		</g>
	</g>
</g>
<g id="Device">
	<g>
		<path style="fill:#263238;" d="M436.571,419.099H283.773c-5.745,0-10.402-4.657-10.402-10.402V117.254
			c0-5.745,4.657-10.402,10.402-10.402h152.798c5.745,0,10.402,4.657,10.402,10.402v291.443
			C446.974,414.442,442.316,419.099,436.571,419.099z"/>
		<path style="fill:#407BFF;" d="M441.115,117.312V408.08c0,2.392-1.922,4.25-4.314,4.25H283.084c-2.198,0-3.854-1.702-3.854-3.9
			V116.962c0-1.904,1.398-3.569,3.302-3.569h38.429c1.085,0,2.07,0.708,2.474,1.729l1.591,3.918
			c0.405,1.012,1.389,1.711,2.474,1.711h65.426c1.085,0,2.069-0.671,2.474-1.683l1.591-3.937c0.405-1.021,1.389-1.738,2.474-1.738
			h37.877C439.441,113.394,441.115,115.215,441.115,117.312z"/>
		<rect x="279.23" y="131.56" style="opacity:0.6;fill:#FFFFFF;enable-background:new    ;" width="161.885" height="249.497"/>
		<g>
			<g>
				
					<rect x="297.07" y="122.446" transform="matrix(-1 -1.224647e-16 1.224647e-16 -1 596.1393 247.5569)" style="opacity:0.6;fill:#FFFFFF;enable-background:new    ;" width="2" height="2.666"/>
				
					<rect x="293.811" y="121.556" transform="matrix(-1 -1.224647e-16 1.224647e-16 -1 589.6217 246.6676)" style="opacity:0.6;fill:#FFFFFF;enable-background:new    ;" width="2" height="3.555"/>
				
					<rect x="290.552" y="120.667" transform="matrix(-1 -1.224647e-16 1.224647e-16 -1 583.1043 245.7783)" style="opacity:0.6;fill:#FFFFFF;enable-background:new    ;" width="2" height="4.444"/>
				
					<rect x="287.293" y="119.778" transform="matrix(-1 -1.224647e-16 1.224647e-16 -1 576.5867 244.889)" style="opacity:0.6;fill:#FFFFFF;enable-background:new    ;" width="2" height="5.334"/>
			</g>
			<g>
				<rect x="421.609" y="121.473" style="opacity:0.6;fill:#FFFFFF;enable-background:new    ;" width="1.185" height="2.666"/>
				
					<rect x="423.608" y="120.5" transform="matrix(-1 -1.224647e-16 1.224647e-16 -1 856.66 245.6112)" style="opacity:0.6;fill:#FFFFFF;enable-background:new    ;" width="9.443" height="4.611"/>
			</g>
		</g>
		<g>
			<g>
				<g>
					<polygon style="fill:#407BFF;" points="379.913,178.792 389.328,170.183 388.925,179.195 					"/>
				</g>
				<g>
					<polygon style="fill:#407BFF;" points="340.432,223.533 331.017,232.141 331.42,223.129 					"/>
				</g>
			</g>
			<g>
				<path style="fill:#407BFF;" d="M322.668,211.116c-5.488-20.68,6.871-41.969,27.551-47.458
					c13.281-3.525,27.107,0.086,36.985,9.659l-3.84,3.963c-8.475-8.213-20.337-11.312-31.729-8.288
					c-17.739,4.708-28.34,22.969-23.632,40.708L322.668,211.116z"/>
			</g>
			<g>
				<path style="fill:#407BFF;" d="M333.248,229.11l3.826-3.978c8.469,8.144,20.296,11.21,31.637,8.199
					c17.738-4.708,28.34-22.969,23.632-40.707l5.334-1.416c5.488,20.68-6.871,41.969-27.55,47.457
					C356.905,242.175,343.118,238.603,333.248,229.11z"/>
			</g>
		</g>
		<g>
			<path style="opacity:0.3;fill:#407BFF;" d="M414.739,266.836H305.606c-3.192,0-5.78,2.587-5.78,5.779
				c0,3.192,2.588,5.78,5.78,5.78h109.133c3.192,0,5.78-2.588,5.78-5.78C420.518,269.423,417.931,266.836,414.739,266.836z"/>
			<path style="fill:#407BFF;" d="M395.557,267.857h-89.844c-2.628,0-4.758,2.13-4.758,4.758c0,2.628,2.13,4.758,4.758,4.758h89.844
				c2.628,0,4.758-2.13,4.758-4.758C400.315,269.987,398.185,267.857,395.557,267.857z"/>
		</g>
		
			<text transform="matrix(1 0 0 1 344.3438 289.0636)" style="fill:#407BFF; font-family:'Montserrat-Regular'; font-size:6.623px;">Sync 80%</text>
		<g>
			<g>
				<path style="fill:#407BFF;" d="M333.067,329.321v25.525c0,1.453-1.067,2.649-2.456,2.851c-0.138,0.028-0.285,0.037-0.432,0.037
					h-32.791c-1.591,0-2.888-1.288-2.888-2.888v-25.525c0-0.451,0.101-0.883,0.294-1.26c0.46-0.966,1.453-1.637,2.594-1.637h12.85
					c0.626,0,1.214-0.202,1.702-0.552c0.478-0.34,0.855-0.837,1.048-1.435c0.395-1.196,1.499-1.996,2.75-1.996h6.843
					c1.251,0,2.364,0.8,2.75,1.996c0.386,1.186,1.499,1.987,2.75,1.987h2.097C331.77,326.423,333.067,327.72,333.067,329.321z"/>
				<path style="opacity:0.3;fill:#FFFFFF;enable-background:new    ;" d="M330.611,330.526v27.17
					c-0.014,0.014-0.022,0.022-0.037,0.037h-33.186c-1.591,0-2.888-1.288-2.888-2.888v-25.525c0-0.451,0.101-0.883,0.294-1.26
					h33.351C329.507,328.061,330.611,329.165,330.611,330.526z"/>
			</g>
			<g>
				<path style="fill:#407BFF;" d="M379.456,329.321v25.525c0,1.453-1.067,2.649-2.456,2.851c-0.138,0.028-0.285,0.037-0.432,0.037
					h-32.791c-1.591,0-2.888-1.288-2.888-2.888v-25.525c0-0.451,0.101-0.883,0.294-1.26c0.46-0.966,1.453-1.637,2.594-1.637h12.85
					c0.626,0,1.214-0.202,1.702-0.552c0.478-0.34,0.855-0.837,1.048-1.435c0.395-1.196,1.499-1.996,2.75-1.996h6.843
					c1.251,0,2.364,0.8,2.75,1.996c0.386,1.186,1.499,1.987,2.75,1.987h2.097C378.159,326.423,379.456,327.72,379.456,329.321z"/>
				<path style="opacity:0.3;fill:#FFFFFF;enable-background:new    ;" d="M377,330.526v27.17c-0.014,0.014-0.022,0.022-0.037,0.037
					h-33.186c-1.591,0-2.888-1.288-2.888-2.888v-25.525c0-0.451,0.101-0.883,0.294-1.26h33.351
					C375.896,328.061,377,329.165,377,330.526z"/>
			</g>
			<g>
				<path style="fill:#407BFF;" d="M425.845,329.321v25.525c0,1.453-1.067,2.649-2.456,2.851c-0.138,0.028-0.285,0.037-0.432,0.037
					h-32.791c-1.591,0-2.888-1.288-2.888-2.888v-25.525c0-0.451,0.101-0.883,0.294-1.26c0.46-0.966,1.453-1.637,2.594-1.637h12.85
					c0.626,0,1.214-0.202,1.702-0.552c0.478-0.34,0.855-0.837,1.048-1.435c0.395-1.196,1.499-1.996,2.75-1.996h6.843
					c1.251,0,2.364,0.8,2.75,1.996c0.386,1.186,1.499,1.987,2.75,1.987h2.097C424.548,326.423,425.845,327.72,425.845,329.321z"/>
				<path style="opacity:0.3;fill:#FFFFFF;enable-background:new    ;" d="M423.389,330.526v27.17
					c-0.014,0.014-0.022,0.022-0.037,0.037h-33.186c-1.591,0-2.888-1.288-2.888-2.888v-25.525c0-0.451,0.101-0.883,0.294-1.26
					h33.351C422.285,328.061,423.389,329.165,423.389,330.526z"/>
			</g>
		</g>
		<g>
			<g>
				<path style="fill:#263238;" d="M428.486,392.078h-13.828c-0.552,0-1-0.447-1-1c0-0.553,0.448-1,1-1h13.828c0.552,0,1,0.447,1,1
					C429.486,391.631,429.038,392.078,428.486,392.078z"/>
				<path style="fill:#263238;" d="M428.486,397.138h-13.828c-0.552,0-1-0.447-1-1s0.448-1,1-1h13.828c0.552,0,1,0.447,1,1
					S429.038,397.138,428.486,397.138z"/>
				<path style="fill:#263238;" d="M428.486,402.196h-13.828c-0.552,0-1-0.447-1-1s0.448-1,1-1h13.828c0.552,0,1,0.447,1,1
					S429.038,402.196,428.486,402.196z"/>
			</g>
			<g>
				<path style="fill:#263238;" d="M366.395,397.138h-13.827c-0.552,0-1-0.447-1-1s0.448-1,1-1h13.827c0.552,0,1,0.447,1,1
					S366.947,397.138,366.395,397.138z"/>
				<path style="fill:#263238;" d="M359.481,404.051c-0.552,0-1-0.447-1-1v-13.827c0-0.553,0.448-1,1-1c0.552,0,1,0.447,1,1v13.827
					C360.481,403.603,360.034,404.051,359.481,404.051z"/>
			</g>
			<path style="fill:#263238;" d="M302.922,402.669h-11.063c-0.552,0-1-0.447-1-1v-11.063c0-0.553,0.448-1,1-1h11.063
				c0.552,0,1,0.447,1,1v11.063C303.922,402.222,303.475,402.669,302.922,402.669z M292.859,400.669h9.063v-9.063h-9.063V400.669z"
				/>
		</g>
		<g>
			<path style="opacity:0.6;fill:#FFFFFF;enable-background:new    ;" d="M360.146,113.776c0,1.227-0.995,2.222-2.222,2.222
				c-1.227,0-2.222-0.995-2.222-2.222c0-1.227,0.995-2.222,2.222-2.222C359.151,111.554,360.146,112.549,360.146,113.776z"/>
			<path style="opacity:0.6;fill:#FFFFFF;enable-background:new    ;" d="M364.643,113.776c0,0.786-0.637,1.423-1.424,1.423
				c-0.786,0-1.423-0.637-1.423-1.423c0-0.786,0.637-1.424,1.423-1.424C364.006,112.353,364.643,112.99,364.643,113.776z"/>
		</g>
	</g>
</g>
<g id="Window">
	<g>
		<path style="fill:#407BFF;" d="M60.157,83.264h140.01c1.811,0,3.279,1.468,3.279,3.279v95.83c0,1.811-1.468,3.279-3.279,3.279
			H60.157c-1.811,0-3.279-1.468-3.279-3.279v-95.83C56.878,84.732,58.346,83.264,60.157,83.264z"/>
		<path style="opacity:0.4;fill:#FFFFFF;enable-background:new    ;" d="M60.157,83.264h140.01c1.811,0,3.279,1.468,3.279,3.279
			v95.83c0,1.811-1.468,3.279-3.279,3.279H60.157c-1.811,0-3.279-1.468-3.279-3.279v-95.83
			C56.878,84.732,58.346,83.264,60.157,83.264z"/>
		
			<rect x="56.878" y="91.528" transform="matrix(-1 -1.224647e-16 1.224647e-16 -1 260.3233 271.1666)" style="opacity:0.6;fill:#FFFFFF;enable-background:new    ;" width="146.567" height="88.111"/>
		<g>
			<g>
				<g>
					<polygon style="fill:#407BFF;" points="163.896,113.37 169.144,108.572 168.919,113.595 					"/>
				</g>
				<g>
					<polygon style="fill:#407BFF;" points="141.889,138.309 136.641,143.107 136.866,138.084 					"/>
				</g>
			</g>
			<g>
				<path style="fill:#407BFF;" d="M131.988,131.388c-3.059-11.527,3.83-23.393,15.356-26.452
					c7.402-1.965,15.109,0.048,20.615,5.384l-2.141,2.209c-4.724-4.578-11.336-6.305-17.686-4.62
					c-9.888,2.624-15.797,12.803-13.172,22.69L131.988,131.388z"/>
			</g>
			<g>
				<path style="fill:#407BFF;" d="M137.885,141.417l2.132-2.217c4.72,4.54,11.313,6.248,17.634,4.57
					c9.887-2.624,15.796-12.803,13.172-22.69l2.973-0.789c3.059,11.527-3.83,23.393-15.356,26.452
					C151.071,148.7,143.387,146.709,137.885,141.417z"/>
			</g>
		</g>
		<g>
			<path style="opacity:0.3;fill:#407BFF;" d="M179.763,156.712h-53.74c-1.572,0-2.846,1.274-2.846,2.846
				c0,1.572,1.274,2.846,2.846,2.846h53.74c1.572,0,2.846-1.274,2.846-2.846C182.609,157.986,181.334,156.712,179.763,156.712z"/>
			<path style="fill:#407BFF;" d="M170.317,157.215h-44.242c-1.294,0-2.343,1.049-2.343,2.343c0,1.294,1.049,2.343,2.343,2.343
				h44.242c1.294,0,2.343-1.049,2.343-2.343C172.66,158.264,171.611,157.215,170.317,157.215z"/>
		</g>
		<rect x="59.855" y="93.808" style="opacity:0.3;fill:#407BFF;" width="41.403" height="83.58"/>
		<g>
			<path style="fill:#407BFF;" d="M91.776,104.902v14.655c0,0.834-0.613,1.521-1.41,1.637c-0.079,0.016-0.164,0.021-0.248,0.021
				H71.291c-0.914,0-1.658-0.739-1.658-1.658v-14.655c0-0.259,0.058-0.507,0.169-0.723c0.264-0.555,0.834-0.94,1.489-0.94h7.378
				c0.359,0,0.697-0.116,0.977-0.317c0.275-0.195,0.491-0.48,0.602-0.824c0.227-0.687,0.861-1.146,1.579-1.146h3.929
				c0.718,0,1.357,0.459,1.579,1.146c0.222,0.681,0.861,1.141,1.579,1.141h1.204C91.032,103.239,91.776,103.984,91.776,104.902z"/>
			<path style="opacity:0.3;fill:#FFFFFF;enable-background:new    ;" d="M90.366,105.595v15.599
				c-0.008,0.008-0.013,0.013-0.021,0.021H71.291c-0.914,0-1.658-0.739-1.658-1.658v-14.655c0-0.259,0.058-0.507,0.169-0.723H88.95
				C89.732,104.179,90.366,104.813,90.366,105.595z"/>
		</g>
		<g>
			<path style="fill:#407BFF;" d="M91.776,129.139v14.655c0,0.834-0.613,1.521-1.41,1.637c-0.079,0.016-0.164,0.021-0.248,0.021
				H71.291c-0.914,0-1.658-0.739-1.658-1.658v-14.655c0-0.259,0.058-0.507,0.169-0.723c0.264-0.555,0.834-0.94,1.489-0.94h7.378
				c0.359,0,0.697-0.116,0.977-0.317c0.275-0.195,0.491-0.481,0.602-0.824c0.227-0.687,0.861-1.146,1.579-1.146h3.929
				c0.718,0,1.357,0.459,1.579,1.146c0.222,0.681,0.861,1.141,1.579,1.141h1.204C91.032,127.475,91.776,128.22,91.776,129.139z"/>
			<path style="opacity:0.3;fill:#FFFFFF;enable-background:new    ;" d="M90.366,129.831v15.6
				c-0.008,0.008-0.013,0.013-0.021,0.021H71.291c-0.914,0-1.658-0.739-1.658-1.658v-14.655c0-0.259,0.058-0.507,0.169-0.723H88.95
				C89.732,128.415,90.366,129.049,90.366,129.831z"/>
		</g>
		<g>
			<path style="fill:#407BFF;" d="M91.776,153.375v14.655c0,0.834-0.613,1.521-1.41,1.637c-0.079,0.016-0.164,0.021-0.248,0.021
				H71.291c-0.914,0-1.658-0.739-1.658-1.658v-14.655c0-0.259,0.058-0.507,0.169-0.723c0.264-0.555,0.834-0.94,1.489-0.94h7.378
				c0.359,0,0.697-0.116,0.977-0.317c0.275-0.195,0.491-0.481,0.602-0.824c0.227-0.687,0.861-1.146,1.579-1.146h3.929
				c0.718,0,1.357,0.459,1.579,1.146c0.222,0.681,0.861,1.141,1.579,1.141h1.204C91.032,151.712,91.776,152.456,91.776,153.375z"/>
			<path style="opacity:0.3;fill:#FFFFFF;enable-background:new    ;" d="M90.366,154.067v15.6
				c-0.008,0.008-0.013,0.013-0.021,0.021H71.291c-0.914,0-1.658-0.739-1.658-1.658v-14.655c0-0.259,0.058-0.507,0.169-0.723H88.95
				C89.732,152.652,90.366,153.285,90.366,154.067z"/>
		</g>
		<g>
			<path style="opacity:0.6;fill:#407BFF;enable-background:new    ;" d="M197.76,88.164c0,0.872-0.707,1.58-1.58,1.58
				s-1.58-0.707-1.58-1.58s0.707-1.58,1.58-1.58S197.76,87.292,197.76,88.164z"/>
			<circle style="opacity:0.6;fill:#407BFF;enable-background:new    ;" cx="189.26" cy="88.164" r="1.58"/>
			<circle style="opacity:0.6;fill:#407BFF;enable-background:new    ;" cx="182.341" cy="88.164" r="1.58"/>
		</g>
		<g>
			<path style="fill:#407BFF;" d="M96.413,192.485H57.555c-3.915,0-7.099-3.185-7.099-7.099v-15.224c0-0.276,0.224-0.5,0.5-0.5
				c0.276,0,0.5,0.224,0.5,0.5v15.224c0,3.363,2.736,6.099,6.099,6.099h38.858c0.276,0,0.5,0.224,0.5,0.5
				C96.913,192.261,96.689,192.485,96.413,192.485z"/>
			<path style="fill:#407BFF;" d="M107.322,192.553h-4.242c-0.276,0-0.5-0.224-0.5-0.5c0-0.276,0.224-0.5,0.5-0.5h4.242
				c0.276,0,0.5,0.224,0.5,0.5C107.822,192.33,107.598,192.553,107.322,192.553z"/>
			<path style="fill:#407BFF;" d="M50.956,167.23c-0.276,0-0.5-0.224-0.5-0.5v-1.961c0-0.276,0.224-0.5,0.5-0.5
				c0.276,0,0.5,0.224,0.5,0.5v1.961C51.456,167.006,51.232,167.23,50.956,167.23z"/>
		</g>
		<g>
			<path style="fill:#407BFF;" d="M159.62,77.256h-58.362c-0.276,0-0.5-0.224-0.5-0.5c0-0.276,0.224-0.5,0.5-0.5h58.362
				c0.276,0,0.5,0.224,0.5,0.5C160.12,77.032,159.896,77.256,159.62,77.256z"/>
			<path style="fill:#407BFF;" d="M169.144,77.256h-4.956c-0.276,0-0.5-0.224-0.5-0.5c0-0.276,0.224-0.5,0.5-0.5h4.956
				c0.276,0,0.5,0.224,0.5,0.5C169.644,77.032,169.42,77.256,169.144,77.256z"/>
		</g>
		<g>
			<path style="fill:#407BFF;" d="M209.533,122.934c-0.276,0-0.5-0.224-0.5-0.5V98.673c0-0.276,0.224-0.5,0.5-0.5s0.5,0.224,0.5,0.5
				v23.761C210.033,122.71,209.81,122.934,209.533,122.934z"/>
			<path style="fill:#407BFF;" d="M209.533,133.055c-0.276,0-0.5-0.224-0.5-0.5v-4.852c0-0.276,0.224-0.5,0.5-0.5s0.5,0.224,0.5,0.5
				v4.852C210.033,132.831,209.81,133.055,209.533,133.055z"/>
		</g>
	</g>
</g>
<g id="Character">
	<g id="_x3C_Group_x3E__94_">
		<path style="fill:#E4897B;" d="M213.132,182.379l-13.893-18.952c0,0-1.573-1.395-2.619-2.119s-13.637,2.018-13.44,3.349
			c0.197,1.332,2.135,8.35,3.488,7.696c1.354-0.654,9.684-3.815,9.684-3.815l9.222,16.367L213.132,182.379z"/>
		<g>
			<path style="fill:#407BFF;" d="M227.939,151.494c-5.056,0.586-14.807,23.135-14.807,23.135l10.286,7.321l8.169-10.872
				L227.939,151.494z"/>
			<path style="opacity:0.8;fill:#FFFFFF;enable-background:new    ;" d="M231.59,171.076l-1.28,1.71l-6.89,9.16l-5.06-3.6
				l-5.23-3.72c0,0,9.75-22.55,14.81-23.13L231.59,171.076z"/>
		</g>
		<path style="opacity:0.2;enable-background:new    ;" d="M230.31,172.786l-6.89,9.16l-5.06-3.6c1.8-10.3,8.89-16.26,8.89-16.26
			L230.31,172.786z"/>
		<g>
			<path style="fill:#407BFF;" d="M249.718,144.386c0,0-9.458-0.754-14.586,6.964l3.031,1.477c0,0,2.493-5.232,11.211-5.594
				L249.718,144.386z"/>
			<path style="opacity:0.2;enable-background:new    ;" d="M235.132,151.346l0.11,0.05l2.92,1.43c0,0,2.41-5.06,10.79-5.56
				c0.14-0.02,0.28-0.02,0.42-0.03l0.35-2.85C249.722,144.386,240.262,143.636,235.132,151.346z"/>
			<path style="opacity:0.2;enable-background:new    ;" d="M235.242,151.396l2.92,1.43c0,0,2.41-5.06,10.79-5.56l0.24-1.95
				C249.192,145.316,240.472,144.626,235.242,151.396z"/>
		</g>
		<path style="fill:#407BFF;" d="M267.267,322.637l-0.048-9.899c0-0.334,0.231-0.623,0.556-0.697l7.248-1.642
			c0.649-0.141,1.289,0.271,1.43,0.921c0.019,0.087,0.028,0.176,0.027,0.264c-0.036,3.203-0.222,5.536-0.202,9.558
			c0.012,2.477,0.308,9.95,0.324,13.37c0.017,3.421-3.36,3.883-3.678,2.485c-1.399-6.275-3.319-10.992-5.132-12.994
			C267.448,323.632,267.26,323.143,267.267,322.637z"/>
		<g>
			<path style="fill:#263238;" d="M223.074,231.489l-3.196,16.769c0,0-25.27,40.899-25.256,64.514
				c0.017,28.208,73.597,11.934,73.597,11.934v-12.987c0,0-43.982,3.78-47.946-0.632c-4.811-5.355,24.846-46.8,24.846-46.8
				L223.074,231.489z"/>
			<path style="opacity:0.2;fill:#FFFFFF;enable-background:new    ;" d="M194.619,312.775c0.01,15.55,22.38,17.58,42.45,16.27
				c13.38-0.87,25.74-3.23,29.77-4.05c0.89-0.18,1.38-0.29,1.38-0.29v-12.99c0,0-0.58,0.05-1.62,0.13c-5,0.4-20.57,1.53-32.35,1.36
				c-7-0.1-12.67-0.67-13.98-2.12c-2.36-2.63,3.6-13.98,10.27-24.84c0-0.01,0-0.01,0-0.01c6.91-11.23,14.58-21.95,14.58-21.95
				l-9.66-14.38l-12.38-18.42l-3.2,16.77C219.878,248.255,194.609,289.155,194.619,312.775z"/>
		</g>
		<path style="opacity:0.2;enable-background:new    ;" d="M234.249,313.205l2.82,15.84c13.38-0.87,25.74-3.23,29.77-4.05
			l-0.24-13.15C261.599,312.245,246.029,313.375,234.249,313.205z"/>
		<path style="opacity:0.2;enable-background:new    ;" d="M235.419,267.845c0,0-4.11,9.67-4.88,18.39
			c6.91-11.23,14.58-21.95,14.58-21.95l-9.66-14.38l-5.09-1.65C230.369,248.255,229.24,254.861,235.419,267.845z"/>
		<path style="fill:#407BFF;" d="M241.992,409.822h9.899c0.334,0.002,0.622,0.234,0.695,0.56l1.607,7.256
			c0.137,0.65-0.278,1.288-0.928,1.425c-0.087,0.018-0.176,0.027-0.264,0.026c-3.203-0.052-5.535-0.249-9.557-0.249
			c-2.477,0-9.951,0.259-13.372,0.259c-3.421,0-3.866-3.379-2.467-3.69c6.282-1.368,11.008-3.265,13.019-5.069
			C240.997,409.998,241.487,409.813,241.992,409.822z"/>
		<g>
			<path style="fill:#263238;" d="M266.839,218.673c0,0,2.524,21.564,0.326,59.204c-3.375,57.789-14.087,134.725-14.087,134.725
				l-12.454-2.261c0,0,1.59-115.085-0.084-146.844c0,0-18.524-15.241-18.523-26.463c0-4.16,2.331-19.64,2.331-19.64L266.839,218.673
				z"/>
			<path style="opacity:0.2;fill:#FFFFFF;enable-background:new    ;" d="M266.839,218.673c0,0,2.524,21.564,0.326,59.204
				c-3.375,57.789-14.087,134.725-14.087,134.725l-12.454-2.261c0,0,1.59-115.085-0.084-146.844c0,0-18.524-15.241-18.523-26.463
				c0-4.16,2.331-19.64,2.331-19.64L266.839,218.673z"/>
		</g>
		<g>
			<path style="fill:#407BFF;" d="M227.939,151.494c0,0,27.512-1.296,48.008,3.878c0,0-7.562,44.508-7.218,70.422l-47.351-1.948
				C221.378,223.846,220.794,178.238,227.939,151.494z"/>
			<path style="opacity:0.8;fill:#FFFFFF;enable-background:new    ;" d="M275.94,155.366c0,0-1.4,8.25-2.97,19.71
				c-0.32,2.3-0.64,4.74-0.96,7.26c-0.37,3-0.75,6.13-1.1,9.31c-0.63,5.71-1.19,11.61-1.59,17.29c-0.42,6.02-0.66,11.79-0.59,16.86
				l-47.35-1.95c0,0-0.59-45.61,6.56-72.35C227.94,151.496,255.45,150.196,275.94,155.366z"/>
			
				<ellipse transform="matrix(0.0287 -0.9996 0.9996 0.0287 51.233 421.2501)" style="fill:#407BFF;" cx="242.37" cy="184.263" rx="15.946" ry="11.741"/>
			<g>
				<path style="fill:#407BFF;" d="M235.131,169.205l20.801,18.126c0.39,0.339,0.282,1.09-0.178,1.242l-20.217,6.646
					c-0.348,0.115-0.692-0.204-0.702-0.652l-0.583-24.772C234.237,169.223,234.754,168.876,235.131,169.205z"/>
				<path style="fill:#407BFF;" d="M233.446,171.796l0.587,24.77c0.008,0.45,0.354,0.77,0.7,0.65l20.214-6.64
					c0.458-0.16,0.571-0.91,0.177-1.25l-0.451-0.39l-19.136,6.28c-0.346,0.12-0.692-0.2-0.7-0.65l-0.555-23.39
					C233.92,170.896,233.43,171.246,233.446,171.796z"/>
				<path style="opacity:0.6;fill:#FFFFFF;enable-background:new    ;" d="M235.131,169.205l20.801,18.126
					c0.39,0.339,0.282,1.09-0.178,1.242l-20.217,6.646c-0.348,0.115-0.692-0.204-0.702-0.652l-0.583-24.772
					C234.237,169.223,234.754,168.876,235.131,169.205z"/>
			</g>
		</g>
		<g>
			<path style="fill:#407BFF;" d="M230.423,155.808c0,2.842,1.842,5.145,4.114,5.145c2.272,0,4.113-2.304,4.113-5.145
				c0-2.842-1.842-5.146-4.113-5.146C232.265,150.662,230.423,152.966,230.423,155.808z"/>
			<path style="fill:#263238;" d="M231.047,155.808c0,3.468,2.248,6.28,5.021,6.28c2.773,0,5.021-2.812,5.021-6.28
				c0-3.469-2.248-6.28-5.021-6.28C233.295,149.527,231.047,152.339,231.047,155.808z"/>
			<path style="opacity:0.2;enable-background:new    ;" d="M233.243,155.808c0,2.099,1.36,3.801,3.038,3.801
				c1.678,0,3.038-1.702,3.038-3.801c0-2.099-1.36-3.801-3.038-3.801C234.603,152.007,233.243,153.708,233.243,155.808z"/>
		</g>
		<g>
			<path style="fill:#407BFF;" d="M259.425,154.783c0,0,3.842-6.618-3.148-7.13l-1.566-3.264c0,0,2.18,0,5.172,2.085
				c2.655,1.85,4.658,5.532,3.945,10.187L259.425,154.783z"/>
			<path style="opacity:0.2;enable-background:new    ;" d="M254.712,144.386l0.18,0.38l1.38,2.89c7,0.51,3.15,7.13,3.15,7.13
				l0.27,0.12l4.14,1.76c0.71-4.66-1.29-8.34-3.95-10.19C256.892,144.386,254.712,144.386,254.712,144.386z"/>
			<path style="opacity:0.2;enable-background:new    ;" d="M259.422,154.786l0.27,0.12c1.49-2.24,1.58-5.26,0.19-7.25
				c-1.32-1.89-3.68-2.62-4.99-2.89l1.38,2.89C263.272,148.166,259.422,154.786,259.422,154.786z"/>
		</g>
		<path style="fill:#E4897B;" d="M259.883,153.305c-3.95,3.589-13.629,2.262-13.629,2.262s-6.041-1.654-4.772-3.541
			c3.558-0.588,5.281-2.248,5.993-4.373c0.412-1.238,0.474-2.63,0.361-4.064c-0.052-0.753-0.165-1.516-0.299-2.269l11.964-8.86
			C257.934,138.309,256.015,149.066,259.883,153.305z"/>
		<path style="opacity:0.2;enable-background:new    ;" d="M256.737,138.092c-0.475,7.179-6.375,9.159-9.262,9.561
			c0.412-1.238,0.474-2.63,0.361-4.064L256.737,138.092z"/>
		<g>
			<g>
				<path style="fill:#263238;" d="M236.652,115.622c0,0-1.994,11.125,3.821,15.578c5.815,4.453,6.365-16.34,6.365-16.34
					L236.652,115.622z"/>
				<path style="opacity:0.3;fill:#FFFFFF;" d="M236.652,115.622c0,0-1.994,11.125,3.821,15.578
					c5.815,4.453,6.365-16.34,6.365-16.34L236.652,115.622z"/>
			</g>
			<path style="fill:#E4897B;" d="M257.449,140.533c-2.986,4.058-7.706,5.017-11.745,3.62c-2.597-0.894-4.91-2.771-6.305-5.419
				c-0.187-0.345-0.353-0.711-0.508-1.087c-2.737-6.903-3.349-18.867,3.987-23.151c5.21-3.092,11.954-1.376,15.045,3.845
				c0.889,1.478,1.402,3.153,1.522,4.879C260.12,131.225,260.895,135.898,257.449,140.533z"/>
			<path style="fill:#263238;" d="M247.699,127.177c0.137,0.635-0.17,1.218-0.6,1.279c-0.43,0.061-0.84-0.42-0.936-1.064
				c-0.097-0.644,0.18-1.221,0.6-1.28C247.182,126.054,247.6,126.523,247.699,127.177z"/>
			<path style="fill:#263238;" d="M240.381,128.228c0.137,0.635-0.18,1.22-0.6,1.279c-0.42,0.059-0.84-0.42-0.936-1.064
				c-0.097-0.644,0.18-1.221,0.6-1.28C239.864,127.104,240.291,127.614,240.381,128.228z"/>
			<path style="fill:#DE5753;" d="M242.752,128.212c-0.486,2.09-1.259,4.104-2.297,5.982c0.993,0.514,2.162,0.563,3.194,0.134
				L242.752,128.212z"/>
			<path style="fill:#263238;" d="M249.628,124.481c-0.138,0.04-0.286,0.004-0.39-0.095c-0.678-0.703-1.647-1.046-2.616-0.924
				c-0.206,0.045-0.409-0.085-0.454-0.291c-0.045-0.206,0.086-0.409,0.292-0.454c0,0,0.001,0,0.002,0
				c1.221-0.186,2.456,0.232,3.312,1.121c0.154,0.144,0.162,0.385,0.019,0.539c-0.002,0.002-0.004,0.004-0.006,0.007
				C249.739,124.424,249.686,124.457,249.628,124.481z"/>
			<path style="fill:#263238;" d="M236.874,126.156c-0.067,0.039-0.145,0.056-0.222,0.048c-0.202-0.061-0.316-0.274-0.255-0.476
				c0.001-0.003,0.001-0.005,0.002-0.008c0.35-1.188,1.257-2.132,2.43-2.529c0.203-0.056,0.413,0.064,0.469,0.267l0,0.001
				c0.05,0.203-0.068,0.41-0.268,0.47l0,0c-0.917,0.34-1.619,1.094-1.893,2.033C237.083,126.062,236.986,126.133,236.874,126.156z"
				/>
			<path style="fill:#263238;" d="M262.67,128.156c-1.1,6.97-4.32,10.83-4.52,11.07c1.8-3.39,1.47-10.1,0.35-10.3
				c-1.11-0.2-1.06,1.09-1.06,1.09c-2.45-1.62-4.57-6.05-3.71-9.13c0.4-1.44-0.42-2.67-1.64-3.18l0.1-3.57l9.18,0.25
				c0.39,0.59,0.74,1.33,1.01,2.21c0.1,0.32,0.2,0.66,0.27,1.02C263.26,120.216,263.36,123.766,262.67,128.156z"/>
			<g>
				<path style="fill:#263238;" d="M243.299,136.35c0.531,0.939,1.129,2.733,1.129,2.733c0.172-0.025,0.345-0.05,0.515-0.084
					c2.328-0.396,3.277-1.349,3.623-2.285c0.187-0.513,0.188-1.026,0.135-1.435c-0.057-0.474-0.205-0.799-0.205-0.799
					c-1.109,0.947-3.251,1.484-4.407,1.722C243.607,136.307,243.299,136.35,243.299,136.35z"/>
				<path style="fill:#FFFFFF;" d="M244.09,136.202l0.354,0.797c2.192-0.378,3.684-0.939,4.258-1.72
					c-0.057-0.474-0.205-0.799-0.205-0.799C247.388,135.427,245.246,135.964,244.09,136.202z"/>
				<path style="fill:#DE5753;" d="M244.943,138.999c2.328-0.396,3.277-1.349,3.623-2.285c-0.788,0.165-1.72,0.453-2.498,0.952
					C245.472,138.046,245.14,138.531,244.943,138.999z"/>
			</g>
			<path style="fill:#263238;" d="M262.77,116.996c-0.02,0.21-0.06,0.42-0.12,0.62c-0.24,1.01-0.74,1.98-1.55,2.83l-9.01-2.74
				c0,0-7.92,4.69-13.64,1.14c-5.73-3.55-1.32-10.71-1.32-10.71s2.08,1.58,4.83,1.24c2.75-0.33,8.7-3.19,14.24-1.62
				C260.4,108.946,263.32,113.186,262.77,116.996z"/>
			<path style="opacity:0.3;fill:#FFFFFF;" d="M262.67,128.156c-1.1,6.97-4.32,10.83-4.52,11.07c1.8-3.39,1.47-10.1,0.35-10.3
				c-1.11-0.2-1.06,1.09-1.06,1.09c-2.45-1.62-4.57-6.05-3.71-9.13c0.4-1.44-0.42-2.67-1.64-3.18c0,0,6.27-4.58,10.29-1.11
				c0.13,0.11,0.26,0.25,0.39,0.4c-0.02,0.21-0.06,0.42-0.12,0.62C263.26,120.216,263.36,123.766,262.67,128.156z"/>
			<path style="fill:#E4897B;" d="M263.854,129.24c-0.624,1.925-1.985,3.525-3.786,4.448c-2.393,1.205-4.105-0.814-3.878-3.345
				c0.223-2.247,1.714-5.652,4.334-5.781C263.143,124.434,264.59,126.867,263.854,129.24z"/>
		</g>
		<g>
			<path style="fill:#263238;" d="M254.649,158.287c0,3.469,2.248,6.28,5.021,6.28s5.021-2.812,5.021-6.28
				c0-3.468-2.248-6.28-5.021-6.28S254.649,154.819,254.649,158.287z"/>
			<path style="fill:#407BFF;" d="M256.89,158.273c0,2.842,1.842,5.145,4.113,5.145c2.272,0,4.113-2.304,4.113-5.145
				c0-2.842-1.842-5.145-4.113-5.145C258.732,153.128,256.89,155.432,256.89,158.273z"/>
		</g>
		<path style="opacity:0.2;enable-background:new    ;" d="M272.01,182.336c-0.37,3-0.75,6.13-1.1,9.31
			c-0.63,5.71-1.19,11.61-1.59,17.29c-0.35-0.23-0.72-0.48-1.1-0.75c-14.61-10.49-1.92-35.14-1.92-35.14L272.01,182.336z"/>
		<path style="fill:#E4897B;" d="M278.802,174.365c0,0-5.182,36.666-10.583,38.454c-5.401,1.788-29.44,2.181-29.44,2.181
			s-1.486,0.751-3.647,0.706c-2.161-0.045-8.344-0.3-9.844-1.516c-1.538-1.247-4.734-5.668-3.693-7.007
			c1.041-1.339,18.629-0.727,18.948,0.062c0.319,0.789,2.01,1.943,2.01,1.943s17.987-3.45,19.829-4.195
			c1.842-0.745,5.837-31.946,5.837-31.946L278.802,174.365z"/>
		<g>
			<path style="fill:#407BFF;" d="M274.6,155.039c-7.878-0.46-9.91,31.92-9.91,31.92l15.214,1.996
				C279.904,188.955,286.594,155.74,274.6,155.039z"/>
			<path style="opacity:0.8;fill:#FFFFFF;enable-background:new    ;" d="M274.6,155.039c-7.878-0.46-9.91,31.92-9.91,31.92
				l15.214,1.996C279.904,188.955,286.594,155.74,274.6,155.039z"/>
		</g>
		<g>
			<path style="fill:#407BFF;" d="M187.033,205.182v2.646c0,0.793,1.365,1.354,2.148,1.354h61.794c0.793,0,2.058-0.561,2.058-1.354
				v-2.646H187.033z"/>
			<path style="opacity:0.1;fill:#FFFFFF;enable-background:new    ;" d="M187.033,205.182v2.646c0,0.793,1.365,1.354,2.148,1.354
				h61.794c0.793,0,2.058-0.561,2.058-1.354v-2.646H187.033z"/>
			<path style="opacity:0.2;enable-background:new    ;" d="M187.033,205.182v2.646c0,0.793,1.365,1.354,2.148,1.354h40.757
				c0.793,0,2.095-0.561,2.095-1.354v-2.646H187.033z"/>
			<path style="fill:#407BFF;" d="M177.124,172.695l7.356,33.479c0.239,1.099,1.309,2.008,2.388,2.008h40.183
				c1.07,0,1.758-1.142,1.51-2.241l-7.347-33.12c-0.248-1.089-1.309-1.64-2.388-1.64h-40.183
				C177.564,171.182,176.885,171.606,177.124,172.695z"/>
			<path style="opacity:0.1;fill:#FFFFFF;enable-background:new    ;" d="M177.124,172.695l7.356,33.479
				c0.239,1.099,1.309,2.008,2.388,2.008h40.183c1.07,0,1.758-1.142,1.51-2.241l-7.347-33.12c-0.248-1.089-1.309-1.64-2.388-1.64
				h-40.183C177.564,171.182,176.885,171.606,177.124,172.695z"/>
			<path style="opacity:0.2;fill:#FFFFFF;enable-background:new    ;" d="M177.124,172.695l7.356,33.479
				c0.239,1.099,1.309,2.008,2.388,2.008h38.817c1.08,0,1.758-1.142,1.519-2.241l-7.357-33.12c-0.239-1.089-1.309-1.64-2.389-1.64
				h-38.817C177.564,171.182,176.885,171.606,177.124,172.695z"/>
			<path style="opacity:0.2;enable-background:new    ;" d="M200.763,194.152c-1.87,0-3.79-2.01-4.28-4.48
				c-0.48-2.48,0.64-4.49,2.52-4.49c0.35,0,0.7,0.07,1.04,0.2c0.44,1.93,1.75,3.55,3.19,4.09c0.02,0.07,0.04,0.13,0.05,0.2
				C203.773,192.142,202.643,194.152,200.763,194.152z"/>
		</g>
	</g>
</g>
</svg>
