<svg version="1.2" xmlns="http://www.w3.org/2000/svg" viewBox="0 0 1500 1000" width="1500" height="1000">
	<title>9848298</title>
	<style>
		.s0 { fill: #e0e0e0 } 
		.s1 { fill: #ebebeb } 
		.s2 { fill: #f0f0f0 } 
		.s3 { fill: #ffffff } 
		.s4 { fill: #e6e6e6 } 
		.s5 { opacity: .2;fill: #ffffff } 
		.s6 { fill: #f5f5f5 } 
		.s7 { fill: #407bff } 
		.s8 { opacity: .6;fill: #ffffff } 
		.s9 { fill: #263238 } 
		.s10 { opacity: .8;fill: #ffffff } 
		.s11 { opacity: .2;fill: #000000 } 
		.s12 { fill: #000000 } 
		.s13 { opacity: .1;fill: #ffffff } 
		.s14 { opacity: .1;fill: #000000 } 
		.s15 { opacity: .3;fill: #000000 } 
		.s16 { opacity: .7;fill: #ffffff } 
		.s17 { opacity: .3;fill: #407bff } 
		.s18 { fill: #ffbcb4 } 
		.s19 { opacity: .5;fill: #ffffff } 
		.s20 { fill: none;stroke: #407bff;stroke-linecap: round;stroke-linejoin: round } 
		.s21 { fill: #ff7d74 } 
		.s22 { opacity: .2;fill: none;stroke: #000000;stroke-linecap: round;stroke-linejoin: round } 
		.s23 { fill: #ff3f3e } 
	</style>
	<g id="Background complete">
		<g id="&lt;Group&gt;">
			<g id="&lt;Group&gt;">
				<g id="&lt;Group&gt;">
					<g id="&lt;Group&gt;">
						<g id="&lt;Group&gt;">
							<g id="&lt;Group&gt;">
								<path id="&lt;Compound Path&gt;" fill-rule="evenodd" class="s0" d="m1347.5 679.6h-361.5c-6.5 0-11.7-5.3-11.7-11.8v-526.5c0-6.5 5.2-11.7 11.7-11.7h361.5c6.4 0 11.7 5.2 11.7 11.7v526.5c0 6.5-5.3 11.8-11.7 11.8zm-361.5-549.5c-6.2 0-11.2 5-11.2 11.2v526.5c0 6.2 5 11.3 11.2 11.3h361.5c6.2 0 11.2-5.1 11.2-11.3v-526.5c0-6.2-5-11.2-11.2-11.2z"/>
							</g>
						</g>
						<g id="&lt;Group&gt;">
							<g id="&lt;Group&gt;">
								<path id="&lt;Compound Path&gt;" fill-rule="evenodd" class="s0" d="m930.6 679.6h-361.5c-6.4 0-11.7-5.3-11.7-11.8v-526.5c0-6.5 5.3-11.7 11.7-11.7h361.5c6.5 0 11.7 5.2 11.7 11.7v526.5c0 6.5-5.2 11.8-11.7 11.8zm-361.5-549.5c-6.2 0-11.2 5-11.2 11.2v526.5c0 6.2 5 11.3 11.2 11.3h361.5c6.2 0 11.2-5.1 11.2-11.3v-526.5c0-6.2-5-11.2-11.2-11.2z"/>
							</g>
						</g>
					</g>
					<g id="&lt;Group&gt;">
						<g id="&lt;Group&gt;">
							<g id="&lt;Group&gt;">
								<path id="&lt;Compound Path&gt;" fill-rule="evenodd" class="s0" d="m514 679.6h-361.5c-6.4 0-11.7-5.3-11.7-11.8v-526.5c0-6.5 5.3-11.7 11.7-11.7h361.5c6.5 0 11.7 5.2 11.7 11.7v526.5c0 6.5-5.2 11.8-11.7 11.8zm-361.5-549.5c-6.2 0-11.2 5-11.2 11.2v526.5c0 6.2 5 11.3 11.2 11.3h361.5c6.2 0 11.2-5.1 11.2-11.3v-526.5c0-6.2-5-11.2-11.2-11.2z"/>
							</g>
						</g>
					</g>
				</g>
				<g id="&lt;Group&gt;">
					<g id="&lt;Group&gt;">
						<path id="&lt;Path&gt;" class="s0" d="m1500 801.9h-1500v-0.2h1500z"/>
					</g>
				</g>
			</g>
			<g id="&lt;Group&gt;">
				<path id="&lt;Path&gt;" class="s1" d="m1307.3 860.5h111.4v0.8h-111.4z"/>
				<path id="&lt;Path&gt;" class="s1" d="m990.1 869.6h29.2v0.8h-29.2z"/>
				<path id="&lt;Path&gt;" class="s1" d="m81.3 834.9h145.3v0.8h-145.3z"/>
				<path id="&lt;Path&gt;" class="s1" d="m256.6 834.9h21.3v0.8h-21.3z"/>
				<path id="&lt;Path&gt;" class="s1" d="m347.2 849.1h315.2v0.8h-315.2z"/>
			</g>
		</g>
		<g id="&lt;Group&gt;">
			<path id="&lt;Path&gt;" class="s2" d="m1014.9 779.6c0 0-44.9 4-32.8 28 0 0 4.4 6.5 8.1 16.5 3.8 9.9 11.6 24.8 31.4 19.9 19.8-4.8 44.9-15 44.9-15l-11.6-55.4c0 0-18.1 0.8-34.2-11.1-13.9-10.4-17-15.1-18.3-13.5-1.3 1.6-3.8 7.5 0.1 16.4 3.9 9 12.4 14.2 12.4 14.2z"/>
			<path id="&lt;Path&gt;" class="s0" d="m1109.5 827.7l-41.8 8.7-14.6-69.5 41.8-8.7z"/>
			<path id="&lt;Path&gt;" class="s3" d="m1090.9 812.5c0.7 3.3-1.4 6.4-4.6 7.1-3.2 0.7-6.4-1.4-7.1-4.6-0.6-3.2 1.4-6.4 4.7-7.1 3.2-0.7 6.3 1.4 7 4.6z"/>
		</g>
		<g id="&lt;Group&gt;">
			<path id="&lt;Path&gt;" class="s1" d="m1324.6 149c0 32.8-26.5 59.3-59.3 59.3-32.7 0-59.2-26.5-59.2-59.3 0-32.7 26.5-59.2 59.2-59.2 32.8 0 59.3 26.5 59.3 59.2z"/>
			<path id="&lt;Path&gt;" class="s0" d="m1298.4 133.9c0 5.2-1.8 9.4-4 9.4-2.3 0-4.1-4.2-4.1-9.4 0-5.2 1.8-9.4 4.1-9.4 2.2 0 4 4.2 4 9.4z"/>
			<path id="&lt;Path&gt;" class="s0" d="m1241.6 133.9c0 5.2-1.8 9.4-4.1 9.4-2.2 0-4-4.2-4-9.4 0-5.2 1.8-9.4 4-9.4 2.3 0 4.1 4.2 4.1 9.4z"/>
			<g id="&lt;Group&gt;">
				<g id="&lt;Group&gt;">
					<path id="&lt;Path&gt;" class="s0" d="m1246.7 149.4c1.5 5.5 5.7 10.7 10.9 13 8.5 3.9 18.8 1.2 23.8-6.7 1.1-1.9 2.1-4.1 2.6-6.3 0.3-1.8-2.6-2.6-2.9-0.8-0.9 4.5-4 8.8-8 10.9-7.4 3.9-16.6 0.9-21.1-5.8-1-1.6-1.9-3.3-2.4-5.1-0.5-1.8-3.4-1-2.9 0.8z"/>
				</g>
			</g>
		</g>
		<g id="&lt;Group&gt;">
			<path id="&lt;Path&gt;" class="s4" d="m544.9 130.9c0 23.4 18.2 42.4 40.6 42.4h144.4c22.4 0 40.6-19 40.6-42.4 0-23.4-18.2-42.4-40.6-42.4h-144.4c-22.4 0-40.6 19-40.6 42.4z"/>
			<g id="&lt;Group&gt;">
				<path id="&lt;Path&gt;" class="s2" d="m597.6 104.8l5.2 10.6c0.6 1.2 1.8 2.1 3.1 2.3l11.8 1.7c3.4 0.5 4.7 4.7 2.3 7l-8.5 8.3c-1 1-1.5 2.3-1.2 3.7l2 11.7c0.6 3.3-3 5.9-6 4.3l-10.5-5.5c-1.2-0.6-2.7-0.6-3.9 0l-10.5 5.5c-3 1.6-6.5-1-6-4.3l2-11.7c0.3-1.4-0.2-2.7-1.2-3.7l-8.4-8.3c-2.5-2.3-1.1-6.5 2.3-7l11.7-1.7c1.3-0.2 2.5-1.1 3.1-2.3l5.2-10.6c1.6-3.1 6-3.1 7.5 0z"/>
				<path id="&lt;Path&gt;" class="s2" d="m659.5 104.8l5.3 10.6c0.6 1.2 1.7 2.1 3.1 2.3l11.7 1.7c3.4 0.5 4.8 4.7 2.3 7l-8.5 8.3c-0.9 1-1.4 2.3-1.2 3.7l2 11.7c0.6 3.3-2.9 5.9-6 4.3l-10.5-5.5c-1.2-0.6-2.6-0.6-3.8 0l-10.5 5.5c-3 1.6-6.6-1-6-4.3l2-11.7c0.2-1.4-0.2-2.7-1.2-3.7l-8.5-8.3c-2.4-2.3-1.1-6.5 2.3-7l11.7-1.7c1.4-0.2 2.6-1.1 3.2-2.3l5.2-10.6c1.5-3.1 5.9-3.1 7.4 0z"/>
				<path id="&lt;Path&gt;" class="s5" d="m611.4 118.5l-5.5-0.8c-1.1-0.2-2-0.8-2.7-1.7-0.9 1.5-2 3-3.5 4.4-7.2 7.2-16.3 10.8-22.2 17.4q0 0.3-0.1 0.6l-2 11.7c-0.4 2.6 1.7 4.8 4.1 4.8-0.1-3.7 1.3-8.2 6.2-12.7 11.7-10.9 20.8-7.8 25.7-23.7z"/>
				<path id="&lt;Path&gt;" class="s5" d="m575.1 133.6c4.5-3.1 13.2-8.9 17.1-11.4 3.6-2.3 6.8-7.5 8.6-10.9l-1.6-3.2c-1.7 3-5 8.4-7 11.1-2.1 2.8-13.3 9.7-18.6 12.9z"/>
				<path id="&lt;Path&gt;" class="s5" d="m673.4 118.5l-5.5-0.8c-1.1-0.2-2.1-0.8-2.8-1.7-0.9 1.5-2 3-3.5 4.4-7.1 7.2-16.3 10.8-22.2 17.4q0 0.3 0 0.6l-2 11.7c-0.5 2.6 1.6 4.8 4 4.8-0.1-3.7 1.4-8.2 6.2-12.7 11.8-10.9 20.9-7.8 25.8-23.7z"/>
				<path id="&lt;Path&gt;" class="s5" d="m637 133.6c4.5-3.1 13.2-8.9 17.2-11.4 3.5-2.3 6.7-7.5 8.5-10.9l-1.6-3.2c-1.7 3-5 8.4-6.9 11.1-2.1 2.8-13.4 9.7-18.7 12.9z"/>
			</g>
			<g id="&lt;Group&gt;">
				<path id="&lt;Path&gt;" class="s0" d="m723.1 104.8l5.2 10.6c0.6 1.2 1.8 2.1 3.1 2.3l11.7 1.7c3.4 0.5 4.8 4.7 2.3 7l-8.4 8.3c-1 1-1.5 2.3-1.2 3.7l2 11.7c0.5 3.3-3 5.9-6 4.3l-10.5-5.5c-1.2-0.6-2.7-0.6-3.9 0l-10.5 5.5c-3 1.6-6.6-1-6-4.3l2-11.7c0.3-1.4-0.2-2.7-1.2-3.7l-8.5-8.3c-2.4-2.3-1.1-6.5 2.3-7l11.8-1.7c1.3-0.2 2.5-1.1 3.1-2.3l5.2-10.6c1.5-3.1 5.9-3.1 7.5 0z"/>
			</g>
		</g>
		<path id="&lt;Path&gt;" class="s2" d="m1371.9 281.2l7.3 14.9c0.8 1.7 2.5 2.9 4.4 3.1l16.3 2.4c4.8 0.7 6.7 6.5 3.2 9.9l-11.8 11.5c-1.4 1.3-2 3.3-1.7 5.1l2.8 16.3c0.8 4.8-4.1 8.4-8.4 6.1l-14.6-7.7c-1.7-0.8-3.7-0.8-5.4 0l-14.6 7.7c-4.3 2.3-9.2-1.3-8.4-6.1l2.8-16.3c0.3-1.8-0.3-3.8-1.7-5.1l-11.8-11.5c-3.5-3.4-1.6-9.2 3.2-9.9l16.3-2.4c1.9-0.2 3.5-1.4 4.4-3.1l7.3-14.9c2.1-4.3 8.3-4.3 10.4 0z"/>
		<path id="&lt;Path&gt;" class="s2" d="m259.7 548.1l7.3 14.8c0.8 1.7 2.5 2.9 4.3 3.2l16.4 2.4c4.8 0.6 6.7 6.5 3.2 9.8l-11.8 11.6c-1.4 1.3-2 3.2-1.7 5.1l2.8 16.3c0.8 4.7-4.1 8.3-8.4 6.1l-14.6-7.7c-1.7-0.9-3.7-0.9-5.4 0l-14.6 7.7c-4.3 2.2-9.2-1.4-8.4-6.1l2.8-16.3c0.3-1.9-0.3-3.8-1.7-5.1l-11.8-11.6c-3.5-3.3-1.6-9.2 3.2-9.8l16.3-2.4c1.9-0.3 3.5-1.5 4.4-3.2l7.3-14.8c2.1-4.3 8.3-4.3 10.4 0z"/>
		<path id="&lt;Path&gt;" class="s2" d="m1348.5 390.1l4 8.2c0.5 0.9 1.4 1.6 2.4 1.7l9.1 1.3c2.6 0.4 3.6 3.6 1.7 5.5l-6.5 6.3c-0.8 0.8-1.1 1.8-0.9 2.9l1.5 9c0.5 2.6-2.3 4.5-4.6 3.3l-8.1-4.2c-0.9-0.5-2-0.5-2.9 0l-8.1 4.2c-2.4 1.2-5.1-0.7-4.6-3.3l1.5-9c0.2-1.1-0.2-2.1-0.9-2.9l-6.6-6.3c-1.8-1.9-0.8-5.1 1.8-5.5l9-1.3c1.1-0.1 2-0.8 2.4-1.7l4.1-8.2c1.1-2.4 4.5-2.4 5.7 0z"/>
	</g>
	<g id="Shadow">
		<g id="&lt;Group&gt;">
			<g id="&lt;Group&gt;">
				<path id="&lt;Path&gt;" class="s6" d="m1399.5 921.2c0 20.3-290.8 36.7-649.5 36.7-358.7 0-649.5-16.4-649.5-36.7 0-20.2 290.8-36.7 649.5-36.7 358.7 0 649.5 16.5 649.5 36.7z"/>
			</g>
		</g>
	</g>
	<g id="Hands">
		<g id="&lt;Group&gt;">
			<path id="&lt;Path&gt;" class="s7" d="m301.1 126.5c0 0-65.9-31.3-68.8 12.2 0 0 0.8 12.6-2.2 29.7-2.9 17-4.2 44.1 27.4 53.7 31.6 9.6 75.1 15.8 75.1 15.8l29.4-86.8c0 0-25.9-13.8-38.6-43.7-10.9-25.9-11.3-35.1-14.5-33.9-3.2 1.2-11.5 7.4-13.4 23-1.9 15.7 5.6 30 5.6 30z"/>
			<path id="&lt;Path&gt;" class="s7" d="m393.7 271.6l-65.6-22.2 36.9-109.1 65.6 22.2z"/>
			<path id="&lt;Path&gt;" class="s8" d="m301.1 126.5c0 0-65.9-31.3-68.8 12.2 0 0 0.8 12.6-2.2 29.7-2.9 17-4.2 44.1 27.4 53.7 31.6 9.6 75.1 15.8 75.1 15.8l29.4-86.8c0 0-25.9-13.8-38.6-43.7-10.9-25.9-11.3-35.1-14.5-33.9-3.2 1.2-11.5 7.4-13.4 23-1.9 15.7 5.6 30 5.6 30z"/>
			<path id="&lt;Path&gt;" class="s3" d="m380.3 235.1c-1.8 5.1-7.2 7.8-12.3 6.1-5.1-1.7-7.8-7.2-6.1-12.3 1.7-5 7.2-7.8 12.3-6 5.1 1.7 7.8 7.2 6.1 12.2z"/>
		</g>
		<g id="&lt;Group&gt;">
			<path id="&lt;Path&gt;" class="s7" d="m198.9 411.7c0 0 46.7 37.4 57.2 3.3 0 0 1.8-10.2 7.4-23.3 5.5-13 11.7-34.4-11.8-48-23.4-13.6-56.9-26.8-56.9-26.8l-39.8 63.8c0 0 18.1 15.9 22.5 42.1 3.9 22.7 2.4 30.1 5.2 29.8 2.8-0.3 10.5-3.7 15-15.9 4.5-12.1 1.2-25 1.2-25z"/>
			<path id="&lt;Path&gt;" class="s7" d="m152.4 278.5l48.1 30.1-50 80.1-48.2-30.1z"/>
			<path id="&lt;Path&gt;" class="s8" d="m198.9 411.7c0 0 46.7 37.4 57.2 3.3 0 0 1.8-10.2 7.4-23.3 5.5-13 11.7-34.4-11.8-48-23.4-13.6-56.9-26.8-56.9-26.8l-39.8 63.8c0 0 18.1 15.9 22.5 42.1 3.9 22.7 2.4 30.1 5.2 29.8 2.8-0.3 10.5-3.7 15-15.9 4.5-12.1 1.2-25 1.2-25z"/>
			<path id="&lt;Path&gt;" class="s3" d="m156.2 310.2c2.4-3.7 7.2-4.9 11-2.6 3.7 2.4 4.8 7.3 2.5 11-2.3 3.7-7.2 4.8-10.9 2.5-3.8-2.3-4.9-7.2-2.6-10.9z"/>
		</g>
	</g>
	<g id="Device">
		<g id="&lt;Group&gt;">
			<g id="&lt;Group&gt;">
				<g id="&lt;Group&gt;">
					<path id="&lt;Path&gt;" class="s9" d="m846.8 690.8l-35.3 187.9h-170.9l29.9-187.9z"/>
					<path id="&lt;Path&gt;" class="s10" d="m846.8 690.8l-35.3 187.9h-170.9l29.9-187.9z"/>
					<g id="&lt;Group&gt;">
						<path id="&lt;Path&gt;" class="s9" d="m533.8 907.5h415.5v-19.6c0-9.2-7.5-16.7-16.7-16.7h-382.1c-9.2 0-16.7 7.5-16.7 16.7z"/>
						<path id="&lt;Path&gt;" class="s10" d="m533.8 907.5h415.5v-19.6c0-9.2-7.5-16.7-16.7-16.7h-382.1c-9.2 0-16.7 7.5-16.7 16.7z"/>
					</g>
					<path id="&lt;Path&gt;" class="s11" d="m839.7 729.7l-3.7 19.9c0 0-61.1-2.5-86.2 35.1-27.5 41.5-102.4 45.7-102.4 45.7l16.1-100.7z"/>
				</g>
				<g id="&lt;Group&gt;">
					<g id="&lt;Group&gt;">
						<path id="&lt;Path&gt;" class="s9" d="m1100.8 198.6h-15.5-698.4-15.4c-10.3 0-18.7 8.3-18.7 18.7v493.7c0 10.3 8.4 18.7 18.7 18.7h15.4 698.4 15.5c10.3 0 18.7-8.4 18.7-18.7v-493.7c0-10.4-8.4-18.7-18.7-18.7z"/>
					</g>
					<g id="&lt;Group&gt;" style="opacity: .8">
						<path id="&lt;Path&gt;" class="s3" d="m1100.8 198.6h-15.5-698.4-15.4c-10.3 0-18.7 8.3-18.7 18.7v493.7c0 10.3 8.4 18.7 18.7 18.7h15.4 698.4 15.5c10.3 0 18.7-8.4 18.7-18.7v-493.7c0-10.4-8.4-18.7-18.7-18.7z"/>
					</g>
					<g id="&lt;Group&gt;" style="opacity: .2">
						<path id="&lt;Path&gt;" class="s12" d="m386.9 729.6h-15.4c-10.3 0-18.7-8.3-18.7-18.6v-493.7c0-10.4 8.4-18.7 18.7-18.7h15.4c-10.3 0-18.6 8.3-18.6 18.7v493.7c0 10.3 8.3 18.6 18.6 18.6z"/>
					</g>
					<path id="&lt;Path&gt;" class="s7" d="m1102.7 214.6v476.1h-717.6v-476.1z"/>
					<path id="&lt;Path&gt;" class="s3" d="m1102.7 214.6v476.1h-717.6v-476.1z"/>
					<g id="&lt;Group&gt;">
						<g id="&lt;Group&gt;">
							<g id="&lt;Group&gt;">
								<path id="&lt;Path&gt;" class="s7" d="m384.5 214.6v476.7h718.4v-476.7z"/>
							</g>
							<g id="&lt;Group&gt;" style="opacity: .5">
								<path id="&lt;Path&gt;" class="s3" d="m384.9 214.9v476.7h718.4v-476.7z"/>
							</g>
							<g id="&lt;Group&gt;" style="opacity: .3">
								<path id="&lt;Path&gt;" class="s3" d="m469.1 237.7c0 4.5-3.6 8.2-8.1 8.2-4.5 0-8.2-3.7-8.2-8.2 0-4.5 3.7-8.1 8.2-8.1 4.5 0 8.1 3.6 8.1 8.1z"/>
							</g>
							<g id="&lt;Group&gt;" style="opacity: .3">
								<path id="&lt;Path&gt;" class="s3" d="m446 237.7c0 4.5-3.7 8.2-8.1 8.2-4.5 0-8.2-3.7-8.2-8.2 0-4.5 3.7-8.1 8.2-8.1 4.4 0 8.1 3.6 8.1 8.1z"/>
							</g>
							<g id="&lt;Group&gt;" style="opacity: .3">
								<path id="&lt;Path&gt;" class="s3" d="m422.9 237.7c0 4.5-3.7 8.2-8.1 8.2-4.5 0-8.2-3.7-8.2-8.2 0-4.5 3.7-8.1 8.2-8.1 4.4 0 8.1 3.6 8.1 8.1z"/>
							</g>
						</g>
					</g>
				</g>
				<path id="&lt;Path&gt;" class="s13" d="m384.5 578.4c0-4.1 33-57.9 105.6-114.5 72.6-56.6 162.3-18 249.4-80.1 87.1-62 151.3-169.2 151.3-169.2l-155.1-0.6c0 0-20 120.2-112.3 135.4-92.4 15.1-238.9 107.6-238.9 107.6z"/>
				<path id="&lt;Path&gt;" class="s13" d="m467.3 692c0 0 347-293.9 391.9-349.1 44.9-55.2 154-128.9 154-128.9h36.8c0 0-109 84.7-157.8 128.9-48.8 44.1-365.5 349.1-365.5 349.1z"/>
			</g>
			<path id="&lt;Path&gt;" class="s7" d="m946 438.9c0 46.1-37.3 83.4-83.4 83.4-46 0-83.3-37.3-83.3-83.4 0-46 37.3-83.3 83.3-83.3 46.1 0 83.4 37.3 83.4 83.3z"/>
			<path id="&lt;Path&gt;" class="s9" d="m909.2 421.7c0 7.3-2.6 13.2-5.7 13.2-3.2 0-5.7-5.9-5.7-13.2 0-7.3 2.5-13.2 5.7-13.2 3.1 0 5.7 5.9 5.7 13.2z"/>
			<path id="&lt;Path&gt;" class="s9" d="m829.2 421.7c0 7.3-2.5 13.2-5.7 13.2-3.2 0-5.7-5.9-5.7-13.2 0-7.3 2.5-13.2 5.7-13.2 3.2 0 5.7 5.9 5.7 13.2z"/>
			<path id="&lt;Path&gt;" class="s7" d="m709.6 438.9c0 46.1-37.3 83.4-83.3 83.4-46 0-83.4-37.3-83.4-83.4 0-46 37.4-83.3 83.4-83.3 46 0 83.3 37.3 83.3 83.3z"/>
			<path id="&lt;Path&gt;" class="s14" d="m709.6 438.9c0 46.1-37.3 83.4-83.3 83.4-46 0-83.4-37.3-83.4-83.4 0-46 37.4-83.3 83.4-83.3 46 0 83.3 37.3 83.3 83.3z"/>
			<path id="&lt;Path&gt;" class="s9" d="m672.8 421.7c0 7.3-2.5 13.2-5.7 13.2-3.1 0-5.7-5.9-5.7-13.2 0-7.3 2.6-13.2 5.7-13.2 3.2 0 5.7 5.9 5.7 13.2z"/>
			<path id="&lt;Path&gt;" class="s9" d="m592.9 421.7c0 7.3-2.6 13.2-5.8 13.2-3.1 0-5.7-5.9-5.7-13.2 0-7.3 2.6-13.2 5.7-13.2 3.2 0 5.8 5.9 5.8 13.2z"/>
			<g id="&lt;Group&gt;">
				<g id="&lt;Group&gt;">
					<path id="&lt;Path&gt;" class="s9" d="m837 443.4c2.1 7.5 7.9 14.6 15 17.8 11.7 5.3 25.8 1.7 32.6-9.2 1.6-2.6 3-5.6 3.6-8.6 0.4-1.9-2.5-2.7-2.9-0.8-1.2 6.4-5.7 12.5-11.4 15.6-10.7 5.6-24.1 1.4-30.5-8.4-1.5-2.2-2.8-4.7-3.5-7.2-0.5-1.9-3.4-1.1-2.9 0.8z"/>
				</g>
			</g>
			<g id="&lt;Group&gt;">
				<g id="&lt;Group&gt;">
					<path id="&lt;Path&gt;" class="s9" d="m604.2 447.2c14.4-0.3 28.9 0.3 43.3 2 1.9 0.2 1.9-2.8 0-3-14.4-1.7-28.9-2.3-43.3-2-2 0-2 3 0 3z"/>
				</g>
			</g>
			<path id="&lt;Path&gt;" class="s7" d="m474.6 438.9c0 46.1-37.3 83.4-83.3 83.4-46 0-83.3-37.3-83.3-83.4 0-46 37.3-83.3 83.3-83.3 46 0 83.3 37.3 83.3 83.3z"/>
			<path id="&lt;Path&gt;" class="s15" d="m474.6 438.9c0 46.1-37.3 83.4-83.3 83.4-46 0-83.3-37.3-83.3-83.4 0-46 37.3-83.3 83.3-83.3 46 0 83.3 37.3 83.3 83.3z"/>
			<path id="&lt;Path&gt;" class="s9" d="m437.9 421.7c0 7.3-2.6 13.2-5.8 13.2-3.1 0-5.7-5.9-5.7-13.2 0-7.3 2.6-13.2 5.7-13.2 3.2 0 5.8 5.9 5.8 13.2z"/>
			<path id="&lt;Path&gt;" class="s9" d="m357.9 421.7c0 7.3-2.6 13.2-5.7 13.2-3.2 0-5.7-5.9-5.7-13.2 0-7.3 2.5-13.2 5.7-13.2 3.1 0 5.7 5.9 5.7 13.2z"/>
			<g id="&lt;Group&gt;">
				<g id="&lt;Group&gt;">
					<path id="&lt;Path&gt;" class="s9" d="m371.4 460.2c2-10.5 13.5-15.5 23.3-15.3 5.2 0.1 10.7 1.5 14.7 4.9 3.9 3.4 5.7 8.2 7.4 12.9 0.6 1.9 3.5 1.1 2.9-0.7-1.9-5.4-4-10.8-8.5-14.5-4.6-3.9-10.6-5.5-16.5-5.6-11-0.2-23.9 5.7-26.2 17.5-0.3 1.9 2.6 2.7 2.9 0.8z"/>
				</g>
			</g>
			<path id="&lt;Path&gt;" class="s7" d="m1126 587h-780.1c-6 0-10.9-4.9-10.9-10.9v-2c0-6 4.9-10.9 10.9-10.9h780.1c6.1 0 11 4.9 11 10.9v2c0 6-4.9 10.9-11 10.9z"/>
			<path id="&lt;Path&gt;" class="s9" d="m1103.5 575.1c0 12.4-10 22.3-22.3 22.3-12.3 0-22.3-9.9-22.3-22.3 0-12.3 10-22.3 22.3-22.3 12.3 0 22.3 10 22.3 22.3z"/>
		</g>
	</g>
	<g id="Window">
		<g id="&lt;Group&gt;">
			<g id="&lt;Group&gt;">
				<path id="&lt;Path&gt;" class="s7" d="m446.8 860.5h-295c-3.8 0-6.8-3.1-6.8-6.9v-192.4c0-3.8 3-6.8 6.8-6.8h295c3.8 0 6.9 3 6.9 6.8v192.4c0 3.8-3.1 6.9-6.9 6.9z"/>
				<path id="&lt;Path&gt;" class="s16" d="m446.8 860.5h-295c-3.8 0-6.8-3.1-6.8-6.9v-192.4c0-3.8 3-6.8 6.8-6.8h295c3.8 0 6.9 3 6.9 6.8v192.4c0 3.8-3.1 6.9-6.9 6.9z"/>
			</g>
			<path id="&lt;Path&gt;" class="s7" d="m204.8 703.1c0 10.7-8.7 19.3-19.3 19.3-10.7 0-19.3-8.6-19.3-19.3 0-10.6 8.6-19.3 19.3-19.3 10.6 0 19.3 8.7 19.3 19.3z"/>
			<g id="&lt;Group&gt;">
				<g id="&lt;Group&gt;">
					<path id="&lt;Path&gt;" class="s7" d="m219.6 701.8q73.1 0 146.1 0 20.7 0 41.4 0c3.9 0 3.9-6 0-6q-73 0-146.1 0-20.7 0-41.4 0c-3.9 0-3.9 6 0 6z"/>
				</g>
			</g>
			<g id="&lt;Group&gt;">
				<g id="&lt;Group&gt;">
					<path id="&lt;Path&gt;" class="s9" d="m177.2 831.2q61.5 0 122.9 0 17.5 0 35 0c1.9 0 1.9-3 0-3q-61.5 0-122.9 0-17.5 0-35 0c-1.9 0-1.9 3 0 3z"/>
				</g>
			</g>
			<g id="&lt;Group&gt;">
				<g id="&lt;Group&gt;">
					<path id="&lt;Path&gt;" class="s9" d="m177.2 818.1q94.2 0 188.3 0 26.4 0 52.8 0c2 0 2-3 0-3q-94.1 0-188.3 0-26.4 0-52.8 0c-1.9 0-1.9 3 0 3z"/>
				</g>
			</g>
			<path id="&lt;Path&gt;" class="s17" d="m266.3 719.9h-43.2c-1.9 0-3.4-1.5-3.4-3.4v-1.4c0-1.8 1.5-3.3 3.4-3.3h43.2c1.9 0 3.4 1.5 3.4 3.3v1.4c0 1.9-1.5 3.4-3.4 3.4z"/>
			<path id="&lt;Path&gt;" class="s17" d="m325.1 719.9h-43.2c-1.8 0-3.3-1.5-3.3-3.4v-1.4c0-1.8 1.5-3.3 3.3-3.3h43.2c1.9 0 3.4 1.5 3.4 3.3v1.4c0 1.9-1.5 3.4-3.4 3.4z"/>
			<path id="&lt;Path&gt;" class="s17" d="m412.3 796.8h-229.1c-3.3 0-6-2.7-6-6v-43.4c0-3.4 2.7-6.1 6-6.1h229.1c3.3 0 6 2.7 6 6.1v43.4c0 3.3-2.7 6-6 6z"/>
		</g>
	</g>
	<g id="Speech Bubble 2">
		<g id="&lt;Group&gt;">
			<g id="&lt;Group&gt;">
				<g id="&lt;Group&gt;">
					<path id="&lt;Path&gt;" class="s7" d="m1303.9 176.1c24.6-13.1 55.2-3.7 68.2 20.9 13.1 24.7 3.7 55.2-20.9 68.3-19 10.1-41.6 6.8-56.9-6.6l-15 1.9 4-15.5c-0.1-0.3-0.3-0.5-0.4-0.7-13.1-24.7-3.7-55.3 21-68.3z"/>
				</g>
			</g>
			<g id="&lt;Group&gt;">
				<path id="&lt;Path&gt;" class="s3" d="m1325.6 242.6l-24.5-19.1 6.7-8.6 16.4 12.8 23.5-26.8 8.1 7.1z"/>
			</g>
		</g>
	</g>
	<g id="Speech Bubble 1">
		<g id="&lt;Group&gt;">
			<path id="&lt;Path&gt;" class="s7" d="m1165.2 225.1l-20.7-15.7v-74.6c0-3.7-3-6.8-6.8-6.8h-295c-3.8 0-6.8 3.1-6.8 6.8v127.5c0 3.8 3 6.8 6.8 6.8h295c3.8 0 6.8-3 6.8-6.8v-21.3z"/>
			<path id="&lt;Path&gt;" class="s16" d="m1165.2 225.1l-20.7-15.7v-74.6c0-3.7-3-6.8-6.8-6.8h-295c-3.8 0-6.8 3.1-6.8 6.8v127.5c0 3.8 3 6.8 6.8 6.8h295c3.8 0 6.8-3 6.8-6.8v-21.3z"/>
			<path id="&lt;Path&gt;" class="s7" d="m895.6 176.8c0 10.6-8.6 19.3-19.3 19.3-10.6 0-19.3-8.7-19.3-19.3 0-10.7 8.7-19.3 19.3-19.3 10.7 0 19.3 8.6 19.3 19.3z"/>
			<g id="&lt;Group&gt;">
				<g id="&lt;Group&gt;">
					<path id="&lt;Path&gt;" class="s7" d="m910.5 175.5q73 0 146.1 0 20.7 0 41.4 0c3.9 0 3.9-6 0-6q-73.1 0-146.1 0-20.7 0-41.4 0c-3.9 0-3.9 6 0 6z"/>
				</g>
			</g>
			<g id="&lt;Group&gt;">
				<g id="&lt;Group&gt;">
					<path id="&lt;Path&gt;" class="s9" d="m868.1 214.5q94.1 0 188.3 0 26.4 0 52.8 0c1.9 0 2-3 0-3q-94.1 0-188.3 0-26.4 0-52.8 0c-1.9 0-2 3 0 3z"/>
				</g>
			</g>
			<g id="&lt;Group&gt;">
				<g id="&lt;Group&gt;">
					<path id="&lt;Path&gt;" class="s9" d="m868.1 226.5q94.1 0 188.3 0 26.4 0 52.8 0c1.9 0 2-3 0-3q-94.1 0-188.3 0-26.4 0-52.8 0c-1.9 0-2 3 0 3z"/>
				</g>
			</g>
			<g id="&lt;Group&gt;">
				<g id="&lt;Group&gt;">
					<path id="&lt;Path&gt;" class="s9" d="m868.1 238.5q42 0 83.9 0 19.1 0 38.2 0c1.9 0 1.9-3 0-3q-42 0-83.9 0-19.1 0-38.2 0c-1.9 0-2 3 0 3z"/>
				</g>
			</g>
			<path id="&lt;Path&gt;" class="s17" d="m957.2 193.5h-43.2c-1.9 0-3.4-1.5-3.4-3.3v-1.4c0-1.9 1.5-3.4 3.4-3.4h43.2c1.9 0 3.4 1.5 3.4 3.4v1.4c0 1.8-1.5 3.3-3.4 3.3z"/>
			<path id="&lt;Path&gt;" class="s17" d="m1016 193.5h-43.2c-1.8 0-3.3-1.5-3.3-3.3v-1.4c0-1.9 1.5-3.4 3.3-3.4h43.2c1.9 0 3.4 1.5 3.4 3.4v1.4c0 1.8-1.5 3.3-3.4 3.3z"/>
			<path id="&lt;Path&gt;" class="s17" d="m1074.1 193.5h-43.2c-1.9 0-3.4-1.5-3.4-3.3v-1.4c0-1.9 1.5-3.4 3.4-3.4h43.2c1.8 0 3.3 1.5 3.3 3.4v1.4c0 1.8-1.5 3.3-3.3 3.3z"/>
		</g>
	</g>
	<g id="Character">
		<g id="&lt;Group&gt;">
			<g id="&lt;Group&gt;">
				<path id="&lt;Path&gt;" class="s18" d="m1052.6 363.8c0 0 37.6 87.1 55.9 87.2 18.3 0 70.1-42.6 70.1-42.6l-13-36.5c0 0-50.1 44-53.2 40.2-3-3.7-42.3-54.2-42.3-54.2z"/>
				<g id="&lt;Group&gt;">
					<path id="&lt;Path&gt;" class="s7" d="m1165.8 427.8c-0.9-0.3-27.5-38-27.5-38 0 0 31.3-28 41.8-33.9 10.5-6 14.9-4.8 14.9-4.8z"/>
					<path id="&lt;Path&gt;" class="s19" d="m1165.8 427.8c-0.9-0.3-27.5-38-27.5-38 0 0 31.3-28 41.8-33.9 10.5-6 14.9-4.8 14.9-4.8z"/>
					<path id="&lt;Path&gt;" class="s15" d="m1163.8 425.5c1.2-0.1 5.1-47.8 5.1-47.8l-16.7 31.7z"/>
				</g>
				<g id="&lt;Group&gt;">
					<path id="&lt;Path&gt;" class="s18" d="m1239.5 925.9l-20.5 2-9.9-52.4 30.4-3.3z"/>
					<g id="&lt;Group&gt;">
						<path id="&lt;Path&gt;" class="s9" d="m1216.1 918.9h7.3c1.6 0 3.2 0.8 4.1 2.1 4.2 5.8 7.4 3.6 12-1.8 2.9-0.3 3.7 3 3.9 3.9l5.5 19.9c0.5 1.7-0.5 3.4-2.1 3.9q-0.5 0.1-0.9 0.1c-8.9 0-13.1 0-24.2 0h-33.8c-9.2 0-11.1-9.3-7.3-10.2 17-3.7 29.1-8.8 34.4-13.7 1-0.9 0-1.5 1.1-4.2z"/>
						<path id="&lt;Compound Path&gt;" fill-rule="evenodd" class="s7" d="m1200.2 924.5c-0.8-0.5-1.3-1.4-1.3-2.4 0-0.5 0.2-1 0.6-1.3 2.3-1.6 11.5 2.7 12.5 3.2q0.2 0.1 0.2 0.2c0.1 0.3 0 0.5-0.2 0.6q-3.4 0.8-6.9 0.8c-1.7 0.2-3.4-0.2-4.9-1.1zm-0.1-3c-0.2 0.2-0.3 0.4-0.2 0.6 0 0.7 0.3 1.3 0.9 1.7 2.1 1.6 7.1 0.9 9.8 0.4-3.8-1.7-9.2-3.5-10.5-2.7z"/>
						<path id="&lt;Compound Path&gt;" fill-rule="evenodd" class="s7" d="m1211.7 924.9c-2.8-1.2-8.5-5.7-8.2-8.1 0-0.5 0.4-1.1 1.6-1.3 5.1-0.5 7.2 8.5 7.2 8.9 0.1 0.1 0 0.3-0.1 0.4q-0.2 0-0.3 0zm-6.4-8.6c-0.9 0.1-0.9 0.4-0.9 0.6-0.3 1.4 3.9 5.2 6.9 6.7-0.6-2.1-2.5-7.3-5.6-7.3z"/>
						<path id="&lt;Path&gt;" class="s20" d="m1211 924.5c2.5 0.4 4.8 1.9 6.2 4"/>
						<path id="&lt;Path&gt;" class="s20" d="m1206.4 927.9c2.5 0.4 4.9 1.9 6.2 4"/>
						<path id="&lt;Path&gt;" class="s20" d="m1200.8 930.8c2.5 0.4 4.8 1.9 6.2 4"/>
					</g>
				</g>
				<g id="&lt;Group&gt;">
					<path id="&lt;Path&gt;" class="s18" d="m1380.7 900.8l-18.1 9.8-29.6-44.4 26.7-14.9z"/>
					<g id="&lt;Group&gt;">
						<path id="&lt;Path&gt;" class="s9" d="m1356.3 903.4l6.7-2.8c1.6-0.7 3.3-0.5 4.7 0.4 6.2 3.6 8.2 0.4 10.3-6.4 2.6-1.5 4.6 1.3 5.2 2.1l12.8 16.1c1.1 1.4 0.9 3.3-0.5 4.4q-0.3 0.3-0.8 0.5c-8.2 3.5-12 5.1-22.2 9.4l-31.1 13.2c-8.5 3.6-13.9-4.2-10.7-6.5 14.2-10.1 23.4-19.5 26.3-26.1 0.6-1.2-0.6-1.4-0.7-4.3z"/>
						<path id="&lt;Compound Path&gt;" fill-rule="evenodd" class="s7" d="m1343.9 914.8c-0.9-0.2-1.7-0.8-2.1-1.7-0.2-0.4-0.2-1 0.1-1.4 1.5-2.4 11.5-2 12.7-2q0.2 0 0.3 0.2c0.2 0.1 0.1 0.4 0 0.5q-2.8 2.1-6 3.5c-1.5 0.9-3.3 1.2-5 0.9zm-1.2-2.7c-0.2 0.2-0.2 0.4 0 0.6 0.3 0.6 0.8 1.1 1.5 1.3 2.5 0.6 6.9-2 9.1-3.5-4.1-0.1-9.8 0.3-10.6 1.6z"/>
						<path id="&lt;Compound Path&gt;" fill-rule="evenodd" class="s7" d="m1354.6 910.6c-2.9 0.1-10-1.8-10.7-4.2-0.1-0.4 0-1.1 1.1-1.8 4.4-2.5 9.9 5 10 5.3 0.1 0.2 0.1 0.3 0.1 0.5q-0.2 0.1-0.3 0.1zm-9.2-5.4c-0.8 0.4-0.7 0.8-0.7 0.9 0.4 1.4 5.7 3.2 9 3.5-1.4-1.7-5.1-5.8-8-4.6z"/>
						<path id="&lt;Path&gt;" class="s20" d="m1353.8 910.6c2.5-0.7 5.2-0.2 7.3 1.3"/>
						<path id="&lt;Path&gt;" class="s20" d="m1351 915.5c2.4-0.6 5.2-0.2 7.3 1.3"/>
						<path id="&lt;Path&gt;" class="s20" d="m1346.9 920.4c2.5-0.7 5.2-0.2 7.3 1.2"/>
					</g>
				</g>
				<g id="&lt;Group&gt;">
					<path id="&lt;Path&gt;" class="s7" d="m1169.8 495.5c0 0-2 108.5 13.2 191.7 3.2 70.3 28.7 225 28.7 225 8.2 2 22.6 2.2 30.7 0.1 0 0 17.3-112.8 1.6-225.8 12.9-118.3 9.3-192.2 9.3-192.2z"/>
					<path id="&lt;Path&gt;" class="s11" d="m1253.5 549.2c-0.8 33.1-3.2 80-9.4 137.2 1.2 8.5 2.1 17 2.8 25.5-39.9-68.4-48.7-176 6.6-162.7z"/>
					<path id="&lt;Path&gt;" class="s7" d="m1197.3 493.9c0 0 34.7 153.6 56.8 219.2 23.3 68.9 93.2 178.1 95.7 182.7 9.4-2.5 20.5-7.9 26.1-13.3 0 0-29.7-110.8-59.1-185.6-7.5-38.7-12.5-61.3-12.9-102.6-0.9-76.4-35.5-99.9-35.5-99.9z"/>
				</g>
				<g id="&lt;Group&gt;">
					<path id="&lt;Path&gt;" class="s7" d="m1166.4 383.1c0 0-14.2 34.2 3.8 54.6 1.7 49.7-8.4 64.3-2 73.2 9.4 7.1 80.2 10.4 108.8-14.4-4.7-20-14.6-62.5-2.4-120.3 2.7-12.4-5.1-24.7-17.3-27.4q-1.2-0.2-2.4-0.4c-3.5-0.3-7.3-0.7-11.2-0.9-13.5-1.1-21.2-0.9-34.7 0-2.4 0.2-10.5 2.4-17.6 4.4-7.4 2.1-13.6 7.3-17 14.4-3.6 7.5-7.8 16.2-8 16.8z"/>
					<path id="&lt;Path&gt;" class="s19" d="m1166.4 383.1c0 0-14.2 34.2 3.8 54.6 1.7 49.7-8.4 64.3-2 73.2 9.4 7.1 80.2 10.4 108.8-14.4-4.7-20-14.6-62.5-2.4-120.3 2.7-12.4-5.1-24.7-17.3-27.4q-1.2-0.2-2.4-0.4c-3.5-0.3-7.3-0.7-11.2-0.9-13.5-1.1-21.2-0.9-34.7 0-2.4 0.2-10.5 2.4-17.6 4.4-7.4 2.1-13.6 7.3-17 14.4-3.6 7.5-7.8 16.2-8 16.8z"/>
					<path id="&lt;Path&gt;" class="s15" d="m1251.4 399.1c0 0 4.2 24.8 5.9 28.8 1.7 4 11.5 2.8 11.5 2.8l0.3-12.8z"/>
					<g id="&lt;Group&gt;" style="opacity: .3">
						<g id="&lt;Group&gt;">
							<path id="&lt;Path&gt;" class="s12" d="m1181 435.6c21 1.7 41.8 4.9 62.4 9.4 0.9 0.2 1.3-1.3 0.4-1.5-20.7-4.5-41.7-7.6-62.8-9.4-1-0.1-1 1.4 0 1.5z"/>
						</g>
					</g>
					<g id="&lt;Group&gt;" style="opacity: .3">
						<g id="&lt;Group&gt;">
							<path id="&lt;Path&gt;" class="s12" d="m1207.3 442.7c7.6 3.1 14.7 7.4 21.1 12.6 0.7 0.6 1.8-0.5 1-1.1-6.6-5.4-13.8-9.7-21.7-13-0.8-0.4-1.2 1.1-0.4 1.5z"/>
						</g>
					</g>
				</g>
				<g id="&lt;Group&gt;">
					<path id="&lt;Path&gt;" class="s18" d="m1262.3 348.2c7.5 0.2 14 4.8 16.7 11.3 10.2 24.2 32.3 84.3 36.7 98.1 2.8 8.7-6 78.1-6 78.1l-15.4-0.9c0 0-6-70.2-8-74.4-7.5-15.9-29.3-58.1-33-72.6-3.7-14.5-6.7-30.8 1-37.1 2.3-1.9 5.2-2.5 8-2.5z"/>
					<path id="&lt;Path&gt;" class="s18" d="m1310.1 560.1c-0.8-2.4 2.9-7.8 1.8-13.4-0.8-3.5-2.8-8.2-2-12.9l-15.3-1.3-2.9 11.5c-0.5 1.3-0.8 2.5-1.1 3.6-2.5 9.3-5.9 22.6-5 29.9 0.9 7.2 7.1 13.8 7.9 9.4 0.6-3-1.2-5.8-1.4-8.4-0.3-6.4-0.2-10.4-0.2-10.4 2.4 12.1 9.1 22 10.7 20.9 2.2-1.4 3.2-2.9 3.2-2.9 0 0 0.6 1.8 4.6-1.2 2.8-2.2-3.7-15.6-3.7-15.6 0 0 7.5 11.6 10.5 9.2 3.1-2.4-5.1-12-7.1-18.4z"/>
					<g id="&lt;Group&gt;">
						<g id="&lt;Group&gt;">
							<path id="&lt;Path&gt;" class="s21" d="m1306.6 585.6c-2.2-3.3-4.5-6.8-5.8-10.6-1.6-4.6-1.8-9.4-1.7-14.2 0-0.6-0.9-0.6-0.9 0-0.1 4.8 0.1 9.8 1.7 14.4 1.4 4 3.6 7.5 6 10.9 0.3 0.5 1.1 0 0.7-0.5z"/>
						</g>
					</g>
					<g id="&lt;Group&gt;">
						<g id="&lt;Group&gt;">
							<path id="&lt;Path&gt;" class="s21" d="m1307.4 569.6c-0.6-1.8-1.3-3.5-1.8-5.3-0.5-1.8-0.8-3.7-0.1-5.4 0.2-0.6-0.7-0.8-0.9-0.3-0.6 1.8-0.5 3.7 0 5.5 0.5 1.9 1.3 3.8 1.9 5.7 0.2 0.6 1.1 0.3 0.9-0.2z"/>
						</g>
					</g>
				</g>
				<g id="&lt;Group&gt;">
					<g id="&lt;Group&gt;">
						<path id="&lt;Path&gt;" class="s9" d="m1279.8 325.1c-4-6.4 1.9-15 0.3-22.4-1.9-8.6-12.6-12.1-16.2-20-2.5-5.3-1.3-11.5-1.7-17.3-1.2-14.4-13.5-26.4-27.3-29.6-10.2-2.3-21.1-1.8-30.7 2.6-11.9 5.6-25.6 22.7-26.7 33-0.7 6.8 0.8 7-1.5 13.4-1.7 5.1-3.2 6.9-6.3 11.2-3.1 4.3-5.4 10.1-3 15 1.8 3.7 6 5.9 7.5 9.8 1.8 4.5-0.7 9.6-3.1 13.8-0.7 1.1-1.3 2.4-0.9 3.5 0.6 1.3 2.2 1.7 3.5 1.8 25.5 2.7 51-3.6 76.6-3.3 9.7 0.2 19.7 1.2 28.7-2.6 1.5-0.6 3.2-1.6 3.5-3.3 0.3-2.1-1.6-3.8-2.7-5.6z"/>
					</g>
					<g id="&lt;Group&gt;">
						<path id="&lt;Path&gt;" class="s18" d="m1208.4 345.1c3-3 3.6-5.3 3.1-9.7-0.3-3.4-1.4-6.9-2.6-10.4l4.5-4.8 23.2-21.7c-1.3 15.2-5.5 39.7 5.8 48.5l6.2 0.6c-3.9 3-27 31.2-49.3 28.2-20.3-2.7-7.9-18.9-4.3-24.7 5.8-1.6 9.7-2.5 13.4-6z"/>
						<path id="&lt;Path&gt;" class="s11" d="m1211.4 337.3c6.4-1.4 15.6-5.6 17.2-13 0.6-3 0.7-6 0.6-8l-19 11.8c0.2 2.9 1.7 5.1 1.2 9.2z"/>
						<path id="&lt;Path&gt;" class="s18" d="m1246.1 274.5c-3.3 23.1-4.2 32.9-16.6 44.4-18.6 17.3-45.4 9.7-48.9-13.5-3.1-20.9 2.8-55.2 25.6-63.7 22.5-8.4 43.2 9.7 39.9 32.8z"/>
						<path id="&lt;Path&gt;" class="s9" d="m1215 282.3c-0.1 2.4-1.3 4.4-2.8 4.4-1.5 0.1-2.7-1.7-2.7-4.1 0.1-2.4 1.3-4.3 2.8-4.4 1.5-0.1 2.7 1.8 2.7 4.1z"/>
						<path id="&lt;Path&gt;" class="s9" d="m1216.9 275.7c-0.3 0.1-0.6 0-0.8-0.3-3.3-3.4-7.3-2.4-7.4-2.4-0.6 0.1-1.2-0.2-1.3-0.8-0.1-0.7 0.3-1.3 0.9-1.4 0.2-0.1 5.2-1.3 9.4 2.9 0.4 0.5 0.4 1.2 0 1.7q-0.4 0.3-0.8 0.3z"/>
						<path id="&lt;Path&gt;" class="s9" d="m1187 272.1q-0.4-0.2-0.5-0.7c-0.2-0.5 0.2-1.1 0.8-1.3 6.1-1.9 10.1 1.2 10.3 1.3 0.5 0.4 0.5 1.1 0.1 1.5-0.4 0.5-1.1 0.6-1.6 0.2-0.2-0.1-3.3-2.5-8.2-1-0.3 0.1-0.6 0.1-0.9 0z"/>
						<path id="&lt;Path&gt;" class="s21" d="m1200 278.4c0 0-4 8.5-8.3 13.6-0.8 1-0.4 2.4 0.6 2.8 2.8 1.2 6.1 0.5 6.1 0.5z"/>
						<path id="&lt;Path&gt;" class="s9" d="m1213.3 278.4l-5.2-1.1c0 0 3.7 3.9 5.2 1.1z"/>
						<path id="&lt;Path&gt;" class="s9" d="m1194.1 280.5c-0.1 2.3-1.3 4.2-2.8 4.3-1.5 0.1-2.7-1.7-2.6-4.1 0-2.3 1.3-4.3 2.8-4.3 1.5-0.1 2.6 1.7 2.6 4.1z"/>
						<path id="&lt;Path&gt;" class="s9" d="m1192.3 276.6l-5.2-1.1c0 0 3.7 3.9 5.2 1.1z"/>
						<path id="&lt;Path&gt;" class="s9" d="m1235.1 314.6c22.3-14.5 25.4-73.6-14.3-77.1-39.7-3.6-43.3 51.9-43.3 51.9 14.7-33.8 49.2-35.5 49.2-35.5-7.8 17.9 7.6 29.8 7.6 29.8 5.4 12.3 0.8 30.9 0.8 30.9z"/>
						<path id="&lt;Path&gt;" class="s18" d="m1252 293.8c-2.9 4.6-7.5 7.3-11.5 8.1-6.1 1.3-8.7-8.8-6.3-14.8 2.1-5.5 8.2-8.8 14-7.3 5.7 1.5 7.2 8.7 3.8 14z"/>
						<path id="&lt;Path&gt;" class="s22" d="m1243.8 285.5c1.9-0.7 3.9 0.6 4.5 2.3 0.7 2-0.4 6.5-6.3 7.8"/>
					</g>
				</g>
				<g id="&lt;Group&gt;">
					<path id="&lt;Path&gt;" class="s9" d="m1198 303.4q2.8 2.8 5.1 6 0.6-0.3 1.2-0.6c5.6-3 7.2-6.2 7.3-8.9 0-1.3-0.3-2.7-0.9-3.8q-0.4-1.1-1.2-1.9c-2 3.4-6.9 6.5-9.6 8.1-1.2 0.6-1.9 1.1-1.9 1.1z"/>
					<path id="&lt;Path&gt;" class="s3" d="m1199.9 302.3l1.5 1.7c5.2-2.8 8.5-5.5 9.3-8q-0.5-1-1.2-1.8c-2 3.4-6.9 6.5-9.6 8.1z"/>
					<path id="&lt;Path&gt;" class="s23" d="m1204.2 308.8c5.6-2.9 7.2-6.2 7.3-8.9-2.1 1.2-4 2.7-5.5 4.6-1 1.2-1.6 2.7-1.8 4.3z"/>
				</g>
				<g id="&lt;Group&gt;">
					<path id="&lt;Path&gt;" class="s7" d="m1255.7 348.3c-26.8 6.2-12.1 37.3-4.3 50.8 4.7 11.5 9.3 23 8.8 23.5-1.1 1.1 44.5-13.8 44.5-13.8 0 0-14.6-68.5-49-60.5z"/>
					<path id="&lt;Path&gt;" class="s19" d="m1255.7 348.3c-26.8 6.2-12.1 37.3-4.3 50.8 4.7 11.5 9.3 23 8.8 23.5-1.1 1.1 44.5-13.8 44.5-13.8 0 0-14.6-68.5-49-60.5z"/>
					<g id="&lt;Group&gt;" style="opacity: .3">
						<g id="&lt;Group&gt;">
							<path id="&lt;Path&gt;" class="s12" d="m1247 381.7c-2-5.3-2.2-11.8-1-17.3 1.1-5.3 3.7-12.1 8.9-14.5 0.9-0.4 0.1-1.7-0.7-1.3-5.4 2.5-8.3 9.4-9.6 14.9-1.3 5.8-1.2 12.9 1 18.6 0.3 0.9 1.8 0.5 1.4-0.4z"/>
						</g>
					</g>
				</g>
			</g>
			<g id="&lt;Group&gt;">
				<path id="&lt;Path&gt;" class="s7" d="m1167.2 438.9c0 46-37.3 83.3-83.3 83.3-46 0-83.3-37.3-83.3-83.3 0-46 37.3-83.4 83.3-83.4 46 0 83.3 37.4 83.3 83.4z"/>
				<path id="&lt;Path&gt;" class="s5" d="m1167.2 438.9c0 46-37.3 83.3-83.3 83.3-46 0-83.3-37.3-83.3-83.3 0-46 37.3-83.4 83.3-83.4 46 0 83.3 37.4 83.3 83.4z"/>
				<path id="&lt;Path&gt;" class="s9" d="m1130.4 421.6c0 7.3-2.5 13.2-5.7 13.2-3.1 0-5.7-5.9-5.7-13.2 0-7.2 2.6-13.1 5.7-13.1 3.2 0 5.7 5.9 5.7 13.1z"/>
				<path id="&lt;Path&gt;" class="s9" d="m1050.5 421.6c0 7.3-2.6 13.2-5.7 13.2-3.2 0-5.8-5.9-5.8-13.2 0-7.2 2.6-13.1 5.8-13.1 3.1 0 5.7 5.9 5.7 13.1z"/>
				<path id="&lt;Path&gt;" class="s9" d="m1053.4 447.3c0 0 6.6 24.6 32 24.6 25.4 0 30.2-24.6 30.2-24.6z"/>
			</g>
			<g id="&lt;Group&gt;">
				<g id="&lt;Group&gt;">
					<path id="&lt;Path&gt;" class="s18" d="m1076.2 355.5c-4.4-8.5-19-9.7-29.8 0-10.9 9.8-10.6 15.3-10.6 15.3 0 0 16.8 14 22 13.4 5.2-0.7 0.9-6.9 0.9-6.9 0 0 5.2 6.5 8.3 4.7 3.6-2.2-0.9-8.7-0.9-8.7 0 0 4.4 5.2 7 3.4 2.7-1.9-1.9-9.6-1.9-9.6 0 0 1.6 1.3 3.4 2.5 2 1.3 4.4-0.7 3.5-2.9l-4.4-10.5z"/>
				</g>
				<g id="&lt;Group&gt;">
					<path id="&lt;Path&gt;" class="s11" d="m1059 377.1q0 0 0 0l-9.6-11c-0.1-0.1-0.3-0.1-0.5 0-0.2 0.2-0.2 0.4-0.1 0.6l9.6 10.9c0.1 0.1 0.4 0.1 0.5 0 0.2-0.2 0.2-0.4 0.1-0.5z"/>
				</g>
				<g id="&lt;Group&gt;">
					<path id="&lt;Path&gt;" class="s11" d="m1066.1 372.8q0 0 0 0l-8.3-11.2c-0.2-0.2-0.4-0.2-0.6-0.1q-0.2 0.2-0.1 0.5l8.4 11.2c0.1 0.2 0.4 0.2 0.5 0.1 0.2-0.1 0.3-0.4 0.1-0.5z"/>
				</g>
				<g id="&lt;Group&gt;">
					<path id="&lt;Path&gt;" class="s11" d="m1071.2 366.5l-5.9-8.5c-0.2-0.2-0.4-0.2-0.6 0-0.2 0.1-0.2 0.3-0.1 0.5l6 8.5c0.1 0.1 0.3 0.2 0.5 0 0.2-0.1 0.3-0.3 0.1-0.5z"/>
				</g>
			</g>
		</g>
	</g>
</svg>