<?xml version="1.0" encoding="UTF-8" standalone="no"?>
<!-- Generator: Adobe Illustrator 27.5.0, SVG Export Plug-In . SVG Version: 6.00 Build 0)  -->

<svg
   version="1.1"
   x="0px"
   y="0px"
   viewBox="0 0 199 155.16"
   xml:space="preserve"
   id="svg247"
   sodipodi:docname="sinpermiso.svg"
   inkscape:version="1.3 (0e150ed6c4, 2023-07-21)"
   width="199"
   height="155.16"
   xmlns:inkscape="http://www.inkscape.org/namespaces/inkscape"
   xmlns:sodipodi="http://sodipodi.sourceforge.net/DTD/sodipodi-0.dtd"
   xmlns="http://www.w3.org/2000/svg"
   xmlns:svg="http://www.w3.org/2000/svg"><defs
   id="defs247" /><sodipodi:namedview
   id="namedview247"
   pagecolor="#ffffff"
   bordercolor="#000000"
   borderopacity="0.25"
   inkscape:showpageshadow="2"
   inkscape:pageopacity="0.0"
   inkscape:pagecheckerboard="true"
   inkscape:deskcolor="#d1d1d1"
   inkscape:zoom="3.284"
   inkscape:cx="177.67966"
   inkscape:cy="91.504263"
   inkscape:window-width="2560"
   inkscape:window-height="1017"
   inkscape:window-x="1912"
   inkscape:window-y="-8"
   inkscape:window-maximized="1"
   inkscape:current-layer="svg247" />&#10;&#10;<g
   id="Background_Simple"
   style="display:none">&#10;	<g
   style="display:inline"
   id="g41">&#10;		<path
   style="fill:#407bff"
   d="m 241.936,74.075 c 7.832,-1.91 16.622,-1.622 26.341,1.643 15.617,5.247 27.043,19.004 34.173,33.856 13.796,28.739 17.651,60.899 27.547,90.911 2.714,8.23 5.923,16.453 11.228,23.305 22.071,28.507 82.754,12.137 82.176,62.137 -0.163,14.13 -7.771,27.655 -18.876,36.394 -32.69,25.724 -78.654,11.019 -113.588,-0.656 -32.732,-10.939 -61.068,-12.275 -93.872,0.819 -27.802,11.097 -56.895,29.991 -88.174,24.881 -31.807,-5.197 -46.032,-36.584 -40.707,-66.182 5.677,-31.551 30.416,-54.82 58.857,-67.405 16.966,-7.508 39.284,-12.096 52.582,-25.755 6.83,-7.015 9.803,-16.855 11.975,-26.402 3.458,-15.205 5.5,-30.795 10.651,-45.513 6.453,-18.439 19.682,-37.153 39.687,-42.033 z"
   id="path40" />&#10;		<path
   style="opacity:0.9;fill:#ffffff"
   d="m 241.936,74.075 c 7.832,-1.91 16.622,-1.622 26.341,1.643 15.617,5.247 27.043,19.004 34.173,33.856 13.796,28.739 17.651,60.899 27.547,90.911 2.714,8.23 5.923,16.453 11.228,23.305 22.071,28.507 82.754,12.137 82.176,62.137 -0.163,14.13 -7.771,27.655 -18.876,36.394 -32.69,25.724 -78.654,11.019 -113.588,-0.656 -32.732,-10.939 -61.068,-12.275 -93.872,0.819 -27.802,11.097 -56.895,29.991 -88.174,24.881 -31.807,-5.197 -46.032,-36.584 -40.707,-66.182 5.677,-31.551 30.416,-54.82 58.857,-67.405 16.966,-7.508 39.284,-12.096 52.582,-25.755 6.83,-7.015 9.803,-16.855 11.975,-26.402 3.458,-15.205 5.5,-30.795 10.651,-45.513 6.453,-18.439 19.682,-37.153 39.687,-42.033 z"
   id="path41" />&#10;	</g>&#10;</g>&#10;&#10;&#10;&#10;&#10;&#10;<g
   id="Background_Complete"
   transform="matrix(0.39728067,0,0,0.39728067,0.47854692,-14.978258)">&#10;	<g
   id="g8">&#10;		<rect
   y="382.39801"
   style="fill:#ebebeb"
   width="500"
   height="0.25"
   id="rect1"
   x="0" />&#10;		<rect
   x="416.77899"
   y="398.49399"
   style="fill:#ebebeb"
   width="33.122002"
   height="0.25"
   id="rect2" />&#10;		<rect
   x="322.52701"
   y="401.20801"
   style="fill:#ebebeb"
   width="8.6929998"
   height="0.25"
   id="rect3" />&#10;		<rect
   x="396.586"
   y="389.20801"
   style="fill:#ebebeb"
   width="19.191999"
   height="0.25"
   id="rect4" />&#10;		<rect
   x="52.459"
   y="390.888"
   style="fill:#ebebeb"
   width="43.193001"
   height="0.25"
   id="rect5" />&#10;		<rect
   x="104.556"
   y="390.888"
   style="fill:#ebebeb"
   width="6.3330002"
   height="0.25"
   id="rect6" />&#10;		<rect
   x="131.47099"
   y="395.11099"
   style="fill:#ebebeb"
   width="93.676003"
   height="0.25"
   id="rect7" />&#10;		<path
   style="fill:#ebebeb"
   d="M 237.014,337.8 H 43.915 c -3.147,0 -5.708,-2.561 -5.708,-5.708 V 60.66 c 0,-3.147 2.561,-5.708 5.708,-5.708 h 193.099 c 3.146,0 5.707,2.561 5.707,5.708 v 271.432 c 0,3.147 -2.561,5.708 -5.707,5.708 z M 43.915,55.203 c -3.01,0 -5.458,2.448 -5.458,5.458 v 271.432 c 0,3.01 2.448,5.458 5.458,5.458 h 193.099 c 3.009,0 5.457,-2.448 5.457,-5.458 V 60.66 c 0,-3.009 -2.448,-5.458 -5.457,-5.458 H 43.915 Z"
   id="path7" />&#10;		<path
   style="fill:#ebebeb"
   d="M 453.31,337.8 H 260.212 c -3.147,0 -5.707,-2.561 -5.707,-5.708 V 60.66 c 0,-3.147 2.561,-5.708 5.707,-5.708 H 453.31 c 3.148,0 5.708,2.561 5.708,5.708 v 271.432 c 0.001,3.147 -2.56,5.708 -5.708,5.708 z M 260.212,55.203 c -3.009,0 -5.457,2.448 -5.457,5.458 v 271.432 c 0,3.01 2.448,5.458 5.457,5.458 H 453.31 c 3.01,0 5.458,-2.448 5.458,-5.458 V 60.66 c 0,-3.009 -2.448,-5.458 -5.458,-5.458 H 260.212 Z"
   id="path8" />&#10;	</g>&#10;	<g
   id="g40">&#10;		<g
   id="g15">&#10;			<rect
   x="73.141998"
   y="90.059998"
   style="fill:#ebebeb"
   width="143.132"
   height="147.895"
   id="rect8" />&#10;			<rect
   x="78.141998"
   y="90.059998"
   style="fill:#f0f0f0"
   width="143.132"
   height="147.895"
   id="rect9" />&#10;			<rect
   x="81.750999"
   y="93.566002"
   style="fill:#e0e0e0"
   width="135.729"
   height="140.953"
   id="rect10" />&#10;			<rect
   x="81.749001"
   y="93.564003"
   style="fill:#f5f5f5"
   width="132.34"
   height="140.95"
   id="rect11" />&#10;			<rect
   x="146.60201"
   y="93.566002"
   style="fill:#ebebeb"
   width="2.687"
   height="140.953"
   id="rect12" />&#10;			<polygon
   style="fill:#ffffff"
   points="93.409,234.514 89.789,234.514 127.509,93.564 131.129,93.564 "
   id="polygon12" />&#10;			<rect
   x="148.13699"
   y="91.391998"
   style="fill:#f0f0f0"
   width="2.3039999"
   height="145.828"
   id="rect13" />&#10;			<polygon
   style="fill:#ffffff"
   points="81.749,226.954 81.749,153.634 97.819,93.564 117.439,93.564 "
   id="polygon13" />&#10;			<polygon
   style="fill:#ffffff"
   points="214.089,119.884 183.409,234.514 179.789,234.514 214.089,106.354 "
   id="polygon14" />&#10;			<polygon
   style="fill:#ffffff"
   points="214.089,206.994 206.729,234.514 187.109,234.514 214.089,133.674 "
   id="polygon15" />&#10;		</g>&#10;		<g
   id="g25">&#10;			<g
   id="g16">&#10;				<path
   style="fill:#f5f5f5"
   d="m 323.727,283.109 v 0 h 120.141 v 0 c 0,4.411 -3.472,8.032 -7.878,8.231 -12.911,0.582 -32.773,2.625 -39.072,9.769 -11.741,13.317 -10.604,60.095 3.46,70.929 4.409,3.397 17.265,10.142 17.265,10.142 h -67.691 c 0,0 12.012,-6.881 16.186,-10.142 13.984,-10.923 14.391,-57.674 2.595,-70.929 -6.052,-6.801 -24.669,-8.998 -37.16,-9.691 -4.405,-0.245 -7.846,-3.896 -7.846,-8.309 z"
   id="path15" />&#10;				<path
   style="fill:#e6e6e6"
   d="m 428.986,291.776 c -12.203,0.978 -26.828,3.39 -32.068,9.333 -1.551,1.759 -2.87,4.114 -3.972,6.88 h -20.178 c -1.131,-2.769 -2.473,-5.125 -4.035,-6.88 -5.26,-5.91 -20.006,-8.342 -31.977,-9.333 z"
   id="path16" />&#10;			</g>&#10;			<g
   id="g19">&#10;				<polygon
   style="fill:#ebebeb"
   points="376.538,264.493 352.856,264.493 351.222,283.167 374.904,283.167 "
   id="polygon16" />&#10;				<polygon
   style="fill:#e0e0e0"
   points="376.538,264.493 377.813,264.493 376.179,283.167 374.904,283.167 "
   id="polygon17" />&#10;				<polygon
   style="fill:#f0f0f0"
   points="373.957,266.397 355.104,266.397 353.803,281.263 372.656,281.263 "
   id="polygon18" />&#10;				<polygon
   style="fill:#fafafa"
   points="372.297,267.621 356.548,267.621 355.462,280.04 371.211,280.04 "
   id="polygon19" />&#10;			</g>&#10;			<g
   id="g24">&#10;				<g
   id="g23">&#10;					<polygon
   style="fill:#e6e6e6"
   points="406.375,283.109 403.736,252.939 379.946,252.939 382.586,283.109 "
   id="polygon20" />&#10;					<polygon
   style="fill:#e0e0e0"
   points="381.45,283.109 378.81,252.939 379.946,252.939 382.586,283.109 "
   id="polygon21" />&#10;					<polygon
   style="fill:#f0f0f0"
   points="403.681,280.033 401.58,256.015 382.641,256.015 384.742,280.033 "
   id="polygon22" />&#10;					<polygon
   style="fill:#fafafa"
   points="401.949,278.056 400.194,257.992 384.373,257.992 386.128,278.056 "
   id="polygon23" />&#10;				</g>&#10;				<path
   style="fill:#ebebeb"
   d="m 394.119,267.019 v 0 c -1.075,1.075 -2.817,1.075 -3.892,0 v 0 c -1.075,-1.075 -1.075,-2.817 0,-3.892 v 0 c 1.075,-1.075 2.817,-1.075 3.892,0 v 0 c 1.075,1.075 1.075,2.817 0,3.892 z"
   id="path23" />&#10;				<path
   style="fill:#f0f0f0"
   d="m 392.954,270.39 v 0 c 0.787,-0.787 2.063,-0.787 2.85,0 v 0 c 1.269,1.27 0.37,3.44 -1.425,3.44 v 0 c -1.795,0 -2.694,-2.17 -1.425,-3.44 z"
   id="path24" />&#10;			</g>&#10;		</g>&#10;		<g
   id="g29">&#10;			<path
   style="fill:#f5f5f5"
   d="m 191.335,376.009 h 23.17 l -12.181,-99.206 c -0.516,-4.199 -4.338,-7.604 -8.538,-7.604 h -7.963 -93.137 l 14.821,106.81 z"
   id="path25" />&#10;			<path
   style="fill:#f0f0f0"
   d="M 117.849,376.009 H 94.679 L 82.498,276.803 c -0.516,-4.199 2.471,-7.604 6.67,-7.604 h 7.963 c 4.2,0 8.022,3.404 8.538,7.604 z"
   id="path26" />&#10;			<g
   id="g27">&#10;				<path
   style="fill:#e6e6e6"
   d="m 126.385,375.892 -4.198,-47.984 c -0.188,-2.143 -1.843,-3.866 -3.978,-4.138 l -1.726,-0.22 c -2.863,-0.365 -5.084,-2.676 -5.336,-5.551 l -0.765,-8.749 c -0.314,-3.586 2.512,-6.67 6.112,-6.67 H 77.771 c -3.6,0 -6.426,3.084 -6.112,6.67 l 0.766,8.749 c 0.251,2.875 2.473,5.186 5.335,5.551 l 1.727,0.22 c 2.134,0.272 3.79,1.995 3.977,4.138 l 4.198,47.984 c 0.306,3.498 3.235,6.183 6.747,6.183 h 38.723 c -3.512,-10e-4 -6.441,-2.685 -6.747,-6.183 z"
   id="path27" />&#10;			</g>&#10;			<path
   style="fill:#e6e6e6"
   d="m 232.948,315.896 c 0.659,-7.535 6.969,-13.317 14.533,-13.317 h -18.737 -14.975 c -7.564,0 -13.874,5.782 -14.533,13.317 l -3.328,38.037 h 33.712 z"
   id="path28" />&#10;			<path
   style="fill:#f0f0f0"
   d="M 262.455,302.579 H 247.48 c -7.564,0 -13.873,5.782 -14.533,13.317 l -3.328,38.037 h -80.29 l -3.328,-38.037 c -0.659,-7.535 -6.969,-13.317 -14.533,-13.317 h -14.975 c -3.6,0 -6.426,3.084 -6.112,6.67 l 0.765,8.749 c 0.252,2.875 2.473,5.186 5.336,5.551 l 1.726,0.22 c 2.134,0.272 3.79,1.995 3.977,4.138 l 4.198,47.984 c 0.306,3.498 3.235,6.183 6.747,6.183 h 112.686 c 3.512,0 6.441,-2.684 6.747,-6.183 l 4.198,-47.984 c 0.188,-2.143 1.843,-3.866 3.977,-4.138 l 1.727,-0.22 c 2.863,-0.365 5.084,-2.676 5.336,-5.552 l 0.765,-8.749 c 0.315,-3.585 -2.511,-6.669 -6.111,-6.669 z"
   id="path29" />&#10;		</g>&#10;		<g
   id="g39">&#10;			<g
   id="g30">&#10;				&#10;					<rect
   x="381.29401"
   y="106.594"
   transform="rotate(90,396.79635,128.53095)"
   style="fill:#e0e0e0"
   width="31.004999"
   height="43.873001"
   id="rect29" />&#10;				&#10;					<rect
   x="383.315"
   y="108.658"
   transform="rotate(90,396.79635,128.53095)"
   style="fill:#ebebeb"
   width="26.962"
   height="39.747002"
   id="rect30" />&#10;			</g>&#10;			<g
   id="g32">&#10;				&#10;					<rect
   x="366.07999"
   y="145.545"
   transform="rotate(90,381.5822,167.4812)"
   style="fill:#e0e0e0"
   width="31.004999"
   height="43.873001"
   id="rect31" />&#10;				&#10;					<rect
   x="368.10101"
   y="147.608"
   transform="rotate(90,381.5822,167.4812)"
   style="fill:#ebebeb"
   width="26.962"
   height="39.747002"
   id="rect32" />&#10;			</g>&#10;			<g
   id="g34">&#10;				&#10;					<rect
   x="338.621"
   y="104.53"
   transform="rotate(180,352.579,124.28185)"
   style="fill:#e0e0e0"
   width="27.917"
   height="39.502998"
   id="rect33" />&#10;				&#10;					<rect
   x="340.44101"
   y="106.388"
   transform="rotate(180,352.579,124.28185)"
   style="fill:#ebebeb"
   width="24.275999"
   height="35.787998"
   id="rect34" />&#10;			</g>&#10;			<g
   id="g36">&#10;				&#10;					<rect
   x="322.73901"
   y="151.979"
   transform="rotate(180,338.2413,173.91535)"
   style="fill:#e0e0e0"
   width="31.004999"
   height="43.873001"
   id="rect35" />&#10;				&#10;					<rect
   x="324.76001"
   y="154.04201"
   transform="rotate(180,338.2413,173.91535)"
   style="fill:#ebebeb"
   width="26.962"
   height="39.747002"
   id="rect36" />&#10;			</g>&#10;			<g
   id="g38">&#10;				&#10;					<rect
   x="299.828"
   y="114.719"
   transform="rotate(-90,311.96645,131.89525)"
   style="fill:#e0e0e0"
   width="24.277"
   height="34.352001"
   id="rect37" />&#10;				&#10;					<rect
   x="301.41101"
   y="116.335"
   transform="rotate(-90,311.9665,131.8953)"
   style="fill:#ebebeb"
   width="21.111"
   height="31.121"
   id="rect38" />&#10;			</g>&#10;		</g>&#10;	</g>&#10;</g><g
   id="Shadow_1_"
   transform="matrix(0.47183287,0,0,0.47183287,-18.409923,-48.920907)">&#10;	<ellipse
   id="_x3C_Path_x3E__359_"
   style="fill:#f5f5f5"
   cx="250"
   cy="416.23801"
   rx="193.88901"
   ry="11.323" />&#10;</g><g
   id="Device"
   transform="matrix(0.47183287,0,0,0.47183287,-18.409923,-48.920907)">&#10;	<g
   id="g185">&#10;		<path
   style="fill:#263238"
   d="m 342.287,409.288 h -143.67 c -5.745,0 -10.402,-4.657 -10.402,-10.402 V 143.861 c 0,-5.745 4.657,-10.402 10.402,-10.402 h 143.669 c 5.745,0 10.402,4.657 10.402,10.402 v 255.024 c 0.001,5.745 -4.656,10.403 -10.401,10.403 z"
   id="path42" />&#10;		<path
   style="fill:#407bff"
   d="m 347.139,143.369 v 255.479 c 0,2.266 -1.821,4.026 -4.087,4.026 H 197.417 c -2.083,0 -3.651,-1.612 -3.651,-3.695 V 143.038 c 0,-1.804 1.325,-3.381 3.129,-3.381 h 36.409 c 1.028,0 1.961,0.671 2.344,1.638 l 1.508,3.712 c 0.383,0.959 1.316,1.621 2.344,1.621 h 61.985 c 1.029,0 1.961,-0.636 2.344,-1.595 l 1.508,-3.73 c 0.383,-0.967 1.316,-1.647 2.344,-1.647 h 35.886 c 1.986,0 3.572,1.726 3.572,3.713 z"
   id="path43" />&#10;		<path
   style="opacity:0.3;enable-background:new"
   d="m 347.139,143.369 v 255.479 c 0,2.266 -1.821,4.026 -4.087,4.026 H 197.417 c -2.083,0 -3.651,-1.612 -3.651,-3.695 V 143.038 c 0,-1.804 1.325,-3.381 3.129,-3.381 h 36.409 c 1.028,0 1.961,0.671 2.344,1.638 l 1.508,3.712 c 0.383,0.959 1.316,1.621 2.344,1.621 h 61.985 c 1.029,0 1.961,-0.636 2.344,-1.595 l 1.508,-3.73 c 0.383,-0.967 1.316,-1.647 2.344,-1.647 h 35.886 c 1.986,0 3.572,1.726 3.572,3.713 z"
   id="path44" />&#10;		<rect
   x="193.76601"
   y="156.867"
   style="opacity:0.7;fill:#ffffff;enable-background:new"
   width="153.373"
   height="227.20799"
   id="rect44" />&#10;		<g
   id="g51">&#10;			<g
   id="g48">&#10;				&#10;					<rect
   x="210.668"
   y="148.233"
   transform="rotate(180,211.61495,149.49535)"
   style="opacity:0.6;fill:#ffffff;enable-background:new"
   width="1.895"
   height="2.526"
   id="rect45" />&#10;				&#10;					<rect
   x="207.58"
   y="147.39"
   transform="rotate(180,208.52755,149.0741)"
   style="opacity:0.6;fill:#ffffff;enable-background:new"
   width="1.895"
   height="3.368"
   id="rect46" />&#10;				&#10;					<rect
   x="204.493"
   y="146.548"
   transform="rotate(180,205.44015,148.6528)"
   style="opacity:0.6;fill:#ffffff;enable-background:new"
   width="1.895"
   height="4.211"
   id="rect47" />&#10;				&#10;					<rect
   x="201.40601"
   y="145.705"
   transform="rotate(180,202.35275,148.23155)"
   style="opacity:0.6;fill:#ffffff;enable-background:new"
   width="1.895"
   height="5.053"
   id="rect48" />&#10;			</g>&#10;			<g
   id="g50">&#10;				<rect
   x="328.65799"
   y="147.311"
   style="opacity:0.6;fill:#ffffff;enable-background:new"
   width="1.123"
   height="2.526"
   id="rect49" />&#10;				&#10;					<rect
   x="330.55301"
   y="146.38901"
   transform="rotate(180,335.0259,148.57365)"
   style="opacity:0.6;fill:#ffffff;enable-background:new"
   width="8.9460001"
   height="4.369"
   id="rect50" />&#10;			</g>&#10;		</g>&#10;		<g
   id="g63">&#10;			<path
   style="fill:#407bff"
   d="m 240.945,356.851 v 0.577 h -4.464 v -6.313 h 4.329 v 0.577 h -3.661 v 2.245 h 3.265 v 0.568 h -3.265 v 2.345 h 3.796 z"
   id="path51" />&#10;			<path
   style="fill:#407bff"
   d="m 246.749,354.678 v 2.75 h -0.64 v -2.688 c 0,-1.001 -0.523,-1.515 -1.425,-1.515 -1.019,0 -1.659,0.631 -1.659,1.713 v 2.489 h -0.641 v -4.743 h 0.613 v 0.874 c 0.343,-0.577 0.983,-0.91 1.804,-0.91 1.155,0 1.948,0.667 1.948,2.03 z"
   id="path52" />&#10;			<path
   style="fill:#407bff"
   d="m 248.035,355.056 c 0,-1.415 1.028,-2.407 2.444,-2.407 0.802,0 1.479,0.315 1.857,0.938 l -0.478,0.325 c -0.325,-0.479 -0.83,-0.704 -1.379,-0.704 -1.037,0 -1.795,0.74 -1.795,1.849 0,1.118 0.758,1.849 1.795,1.849 0.55,0 1.055,-0.216 1.379,-0.694 l 0.478,0.325 c -0.379,0.613 -1.055,0.938 -1.857,0.938 -1.416,-0.002 -2.444,-1.003 -2.444,-2.419 z"
   id="path53" />&#10;			<path
   style="fill:#407bff"
   d="m 255.983,352.648 v 0.622 c -0.054,0 -0.108,-0.009 -0.153,-0.009 -0.992,0 -1.596,0.631 -1.596,1.749 v 2.417 h -0.641 v -4.743 h 0.613 v 0.929 c 0.298,-0.632 0.902,-0.965 1.777,-0.965 z"
   id="path54" />&#10;			<path
   style="fill:#407bff"
   d="m 261.334,352.685 -2.372,5.311 c -0.397,0.929 -0.902,1.227 -1.578,1.227 -0.442,0 -0.866,-0.145 -1.154,-0.434 l 0.298,-0.478 c 0.234,0.234 0.523,0.36 0.866,0.36 0.424,0 0.712,-0.198 0.983,-0.793 l 0.207,-0.46 -2.12,-4.734 h 0.667 l 1.786,4.03 1.786,-4.03 h 0.631 z"
   id="path55" />&#10;			<path
   style="fill:#407bff"
   d="m 267.046,355.056 c 0,1.443 -1.01,2.417 -2.363,2.417 -0.757,0 -1.407,-0.324 -1.803,-0.938 v 2.642 h -0.641 v -6.492 h 0.613 v 0.938 c 0.388,-0.631 1.046,-0.974 1.831,-0.974 1.353,-10e-4 2.363,0.973 2.363,2.407 z m -0.64,0 c 0,-1.1 -0.767,-1.849 -1.768,-1.849 -1.01,0 -1.768,0.749 -1.768,1.849 0,1.109 0.758,1.849 1.768,1.849 1.001,-10e-4 1.768,-0.74 1.768,-1.849 z"
   id="path56" />&#10;			<path
   style="fill:#407bff"
   d="m 270.856,357.139 c -0.252,0.226 -0.631,0.334 -1.001,0.334 -0.893,0 -1.389,-0.505 -1.389,-1.38 v -2.867 h -0.848 v -0.541 h 0.848 v -1.037 h 0.64 v 1.037 h 1.443 v 0.541 h -1.443 v 2.831 c 0,0.56 0.289,0.866 0.821,0.866 0.262,0 0.523,-0.081 0.704,-0.243 z"
   id="path57" />&#10;			<path
   style="fill:#407bff"
   d="m 271.878,351.188 c 0,-0.244 0.208,-0.451 0.469,-0.451 0.262,0 0.469,0.198 0.469,0.442 0,0.261 -0.199,0.469 -0.469,0.469 -0.261,-0.001 -0.469,-0.208 -0.469,-0.46 z m 0.144,1.497 h 0.641 v 4.743 h -0.641 z"
   id="path58" />&#10;			<path
   style="fill:#407bff"
   d="m 278.815,354.678 v 2.75 h -0.64 v -2.688 c 0,-1.001 -0.523,-1.515 -1.425,-1.515 -1.019,0 -1.659,0.631 -1.659,1.713 v 2.489 h -0.641 v -4.743 h 0.613 v 0.874 c 0.343,-0.577 0.983,-0.91 1.804,-0.91 1.155,0 1.948,0.667 1.948,2.03 z"
   id="path59" />&#10;			<path
   style="fill:#407bff"
   d="m 284.971,352.685 v 4.166 c 0,1.632 -0.803,2.372 -2.372,2.372 -0.866,0 -1.713,-0.262 -2.209,-0.73 l 0.324,-0.487 c 0.451,0.406 1.136,0.649 1.867,0.649 1.2,0 1.75,-0.55 1.75,-1.723 v -0.605 c -0.397,0.605 -1.073,0.92 -1.849,0.92 -1.353,0 -2.38,-0.946 -2.38,-2.309 0,-1.361 1.028,-2.29 2.38,-2.29 0.794,0 1.479,0.324 1.876,0.946 v -0.91 h 0.613 z m -0.623,2.254 c 0,-1.027 -0.757,-1.732 -1.803,-1.732 -1.046,0 -1.795,0.704 -1.795,1.732 0,1.028 0.749,1.741 1.795,1.741 1.046,0 1.803,-0.713 1.803,-1.741 z"
   id="path60" />&#10;			<path
   style="fill:#407bff"
   d="m 293.165,351.115 v 0.46 l -2.642,5.853 h -0.704 l 2.597,-5.735 h -3.247 v 1.182 h -0.64 v -1.759 h 4.636 z"
   id="path61" />&#10;			<path
   style="fill:#407bff"
   d="m 298.139,355.57 c 0,1.073 -0.749,1.911 -2.291,1.911 -0.911,0 -1.776,-0.315 -2.264,-0.812 l 0.316,-0.514 c 0.406,0.424 1.127,0.73 1.939,0.73 1.073,0 1.641,-0.523 1.641,-1.29 0,-0.812 -0.505,-1.316 -2.11,-1.316 h -1.344 l 0.325,-3.165 h 3.454 v 0.577 h -2.886 l -0.217,2.011 h 0.812 c 1.904,10e-4 2.625,0.75 2.625,1.868 z"
   id="path62" />&#10;			<path
   style="fill:#407bff"
   d="m 298.783,352.783 c 0,-1.027 0.577,-1.713 1.425,-1.713 0.838,0 1.425,0.676 1.425,1.713 0,1.037 -0.586,1.714 -1.425,1.714 -0.848,0 -1.425,-0.686 -1.425,-1.714 z m 2.399,0 c 0,-0.82 -0.388,-1.308 -0.974,-1.308 -0.595,0 -0.974,0.496 -0.974,1.308 0,0.812 0.379,1.308 0.974,1.308 0.586,0 0.974,-0.487 0.974,-1.308 z m 2.85,-1.668 h 0.532 l -4.311,6.313 h -0.532 z m -1.38,4.645 c 0,-1.028 0.586,-1.714 1.425,-1.714 0.848,0 1.425,0.686 1.425,1.714 0,1.027 -0.577,1.713 -1.425,1.713 -0.839,0 -1.425,-0.686 -1.425,-1.713 z m 2.398,0 c 0,-0.812 -0.378,-1.308 -0.974,-1.308 -0.586,0 -0.974,0.486 -0.974,1.308 0,0.82 0.388,1.308 0.974,1.308 0.596,-10e-4 0.974,-0.497 0.974,-1.308 z"
   id="path63" />&#10;		</g>&#10;		<g
   id="g65">&#10;			<path
   style="opacity:0.6;fill:#ffffff;enable-background:new"
   d="m 270.427,140.019 c 0,1.162 -0.943,2.105 -2.105,2.105 -1.163,0 -2.105,-0.943 -2.105,-2.105 0,-1.163 0.943,-2.105 2.105,-2.105 1.162,0 2.105,0.943 2.105,2.105 z"
   id="path64" />&#10;			<path
   style="opacity:0.6;fill:#ffffff;enable-background:new"
   d="m 274.688,140.019 c 0,0.745 -0.604,1.348 -1.349,1.348 -0.745,0 -1.349,-0.604 -1.349,-1.348 0,-0.744 0.604,-1.349 1.349,-1.349 0.745,0.001 1.349,0.605 1.349,1.349 z"
   id="path65" />&#10;		</g>&#10;		<rect
   x="193.76601"
   y="156.867"
   style="fill:#407bff"
   width="153.373"
   height="26.231001"
   id="rect65" />&#10;		<g
   style="opacity:0.2"
   id="g167">&#10;			<path
   d="m 263.473,202.011 c -0.402,0.049 -0.805,0.096 -1.205,0.153 -0.435,0.446 -0.991,0.692 -1.641,0.692 -0.384,0 -0.739,-0.081 -1.054,-0.24 -0.376,0.072 -0.753,0.142 -1.126,0.222 0.588,0.543 1.33,0.849 2.18,0.849 1.213,0 2.221,-0.604 2.846,-1.676 z"
   id="path66" />&#10;			<path
   d="m 268.957,203.687 c 1.359,0 2.46,-0.757 3.051,-2.085 -0.327,-0.008 -0.652,-0.022 -0.981,-0.025 -0.456,0.828 -1.178,1.278 -2.07,1.278 -0.852,0 -1.547,-0.412 -2.005,-1.168 -0.325,0.02 -0.648,0.049 -0.972,0.074 0.603,1.233 1.671,1.926 2.977,1.926 z"
   id="path67" />&#10;			<path
   d="m 276.191,203.611 v -1.769 c -0.301,-0.029 -0.605,-0.045 -0.906,-0.069 v 1.838 z"
   id="path68" />&#10;			<path
   d="m 280.733,203.611 v -1.14 c -0.302,-0.053 -0.602,-0.113 -0.906,-0.162 v 1.302 z"
   id="path69" />&#10;			<path
   d="m 284.882,203.348 c 0.336,0.167 0.707,0.26 1.1,0.301 -0.366,-0.101 -0.73,-0.208 -1.1,-0.301 z"
   id="path70" />&#10;			<path
   d="m 225.836,227.894 c 2.039,0 3.525,-1.675 3.525,-4.481 0,-1.535 -0.455,-2.715 -1.19,-3.485 -0.198,0.211 -0.404,0.414 -0.599,0.628 0.535,0.616 0.858,1.573 0.858,2.857 0,2.354 -1.058,3.65 -2.593,3.65 -1.012,0 -1.808,-0.573 -2.239,-1.631 -0.197,0.269 -0.387,0.543 -0.58,0.816 0.622,1.052 1.617,1.646 2.818,1.646 z"
   id="path71" />&#10;			<polygon
   points="232.164,219.812 232.164,227.818 233.071,227.818 233.071,219.006 230.087,219.006 230.087,219.812 "
   id="polygon71" />&#10;			<polygon
   points="236.707,219.812 236.707,227.818 237.613,227.818 237.613,219.006 234.63,219.006 234.63,219.812 "
   id="polygon72" />&#10;			<polygon
   points="241.249,219.812 241.249,227.818 242.155,227.818 242.155,219.006 239.172,219.006 239.172,219.812 "
   id="polygon73" />&#10;			<polygon
   points="245.791,219.812 245.791,227.818 246.698,227.818 246.698,219.006 243.714,219.006 243.714,219.812 "
   id="polygon74" />&#10;			<path
   d="m 248.798,223.413 c 0,2.807 1.473,4.481 3.512,4.481 2.039,0 3.524,-1.675 3.524,-4.481 0,-2.808 -1.485,-4.482 -3.524,-4.482 -2.04,-0.001 -3.512,1.674 -3.512,4.482 z m 3.512,-3.652 c 1.536,0 2.593,1.297 2.593,3.651 0,2.354 -1.058,3.65 -2.593,3.65 -1.536,0 -2.593,-1.297 -2.593,-3.65 0,-2.354 1.057,-3.651 2.593,-3.651 z"
   id="path74" />&#10;			<path
   d="m 260.639,218.93 c -2.04,0 -3.512,1.675 -3.512,4.482 0,2.807 1.473,4.481 3.512,4.481 2.039,0 3.524,-1.675 3.524,-4.481 10e-4,-2.807 -1.485,-4.482 -3.524,-4.482 z m 0,8.133 c -1.536,0 -2.593,-1.297 -2.593,-3.65 0,-2.355 1.057,-3.651 2.593,-3.651 1.536,0 2.593,1.297 2.593,3.651 10e-4,2.353 -1.057,3.65 -2.593,3.65 z"
   id="path75" />&#10;			<path
   d="m 268.969,218.93 c -2.04,0 -3.512,1.675 -3.512,4.482 0,2.807 1.473,4.481 3.512,4.481 2.039,0 3.524,-1.675 3.524,-4.481 0,-2.807 -1.485,-4.482 -3.524,-4.482 z m 0,8.133 c -1.536,0 -2.593,-1.297 -2.593,-3.65 0,-2.355 1.057,-3.651 2.593,-3.651 1.536,0 2.593,1.297 2.593,3.651 0,2.353 -1.057,3.65 -2.593,3.65 z"
   id="path76" />&#10;			<polygon
   points="275.297,219.812 275.297,227.818 276.203,227.818 276.203,219.006 273.22,219.006 273.22,219.812 "
   id="polygon76" />&#10;			<polygon
   points="279.84,227.818 280.746,227.818 280.746,219.006 277.763,219.006 277.763,219.812 279.84,219.812 "
   id="polygon77" />&#10;			<path
   d="m 286.358,227.894 c 2.039,0 3.524,-1.675 3.524,-4.481 0,-2.808 -1.485,-4.482 -3.524,-4.482 -2.039,0 -3.512,1.675 -3.512,4.482 0,2.806 1.473,4.481 3.512,4.481 z m 0,-8.133 c 1.536,0 2.593,1.297 2.593,3.651 0,2.354 -1.058,3.65 -2.593,3.65 -1.536,0 -2.593,-1.297 -2.593,-3.65 0,-2.354 1.057,-3.651 2.593,-3.651 z"
   id="path77" />&#10;			<polygon
   points="290.609,219.006 290.609,219.812 292.686,219.812 292.686,227.818 293.593,227.818 293.593,219.006 "
   id="polygon78" />&#10;			<path
   d="m 299.205,227.894 c 2.039,0 3.524,-1.675 3.524,-4.481 0,-2.808 -1.485,-4.482 -3.524,-4.482 -2.04,0 -3.512,1.675 -3.512,4.482 0,2.806 1.472,4.481 3.512,4.481 z m 0,-8.133 c 1.536,0 2.593,1.297 2.593,3.651 0,2.354 -1.058,3.65 -2.593,3.65 -1.536,0 -2.593,-1.297 -2.593,-3.65 0,-2.354 1.057,-3.651 2.593,-3.651 z"
   id="path78" />&#10;			<polygon
   points="305.533,219.812 305.533,227.818 306.439,227.818 306.439,219.006 303.456,219.006 303.456,219.812 "
   id="polygon79" />&#10;			<path
   d="m 308.54,223.413 c 0,2.807 1.473,4.481 3.512,4.481 2.039,0 3.524,-1.675 3.524,-4.481 0,-0.195 -0.024,-0.37 -0.038,-0.554 -0.402,-0.49 -0.822,-0.966 -1.239,-1.443 0.217,0.544 0.346,1.204 0.346,1.996 0,2.354 -1.058,3.65 -2.593,3.65 -1.536,0 -2.593,-1.297 -2.593,-3.65 0,-2.355 1.057,-3.651 2.593,-3.651 0.334,0 0.64,0.073 0.923,0.193 -0.321,-0.342 -0.642,-0.684 -0.971,-1.019 -2.014,0.027 -3.464,1.693 -3.464,4.478 z"
   id="path79" />&#10;			<path
   d="m 319.177,227.818 c -0.261,-0.397 -0.527,-0.791 -0.797,-1.182 v 1.182 z"
   id="path80" />&#10;			<path
   d="m 233.083,215.266 c -0.175,0.147 -0.345,0.299 -0.518,0.449 h 0.518 z"
   id="path81" />&#10;			<path
   d="m 238.696,215.79 c 2.039,0 3.524,-1.674 3.524,-4.481 0,-0.824 -0.141,-1.537 -0.374,-2.153 -0.266,0.151 -0.532,0.302 -0.795,0.457 0.149,0.484 0.237,1.045 0.237,1.696 0,2.354 -1.058,3.65 -2.593,3.65 -1.182,0 -2.074,-0.774 -2.426,-2.199 -0.258,0.188 -0.516,0.375 -0.77,0.567 0.535,1.567 1.711,2.463 3.197,2.463 z"
   id="path82" />&#10;			<path
   d="m 245.024,215.714 h 0.906 v -8.677 c -0.464,0.217 -0.922,0.442 -1.378,0.671 h 0.472 z"
   id="path83" />&#10;			<polygon
   points="249.566,207.708 249.566,215.714 250.472,215.714 250.472,206.902 247.489,206.902 247.489,207.708 "
   id="polygon83" />&#10;			<path
   d="m 256.085,215.79 c 2.039,0 3.524,-1.674 3.524,-4.481 0,-2.808 -1.485,-4.482 -3.524,-4.482 -2.04,0 -3.512,1.674 -3.512,4.482 0,2.807 1.472,4.481 3.512,4.481 z m 0,-8.132 c 1.536,0 2.593,1.296 2.593,3.651 0,2.354 -1.058,3.65 -2.593,3.65 -1.536,0 -2.593,-1.296 -2.593,-3.65 0,-2.355 1.057,-3.651 2.593,-3.651 z"
   id="path84" />&#10;			<polygon
   points="262.412,207.708 262.412,215.714 263.319,215.714 263.319,206.902 260.335,206.902 260.335,207.708 "
   id="polygon84" />&#10;			<path
   d="m 268.931,215.79 c 2.039,0 3.524,-1.674 3.524,-4.481 0,-2.808 -1.485,-4.482 -3.524,-4.482 -2.04,0 -3.512,1.674 -3.512,4.482 0,2.807 1.473,4.481 3.512,4.481 z m 0,-8.132 c 1.536,0 2.593,1.296 2.593,3.651 0,2.354 -1.058,3.65 -2.593,3.65 -1.536,0 -2.593,-1.296 -2.593,-3.65 0,-2.355 1.057,-3.651 2.593,-3.651 z"
   id="path85" />&#10;			<path
   d="m 277.261,215.79 c 2.039,0 3.525,-1.674 3.525,-4.481 0,-2.808 -1.485,-4.482 -3.525,-4.482 -2.039,0 -3.512,1.674 -3.512,4.482 0,2.807 1.472,4.481 3.512,4.481 z m 0,-8.132 c 1.536,0 2.593,1.296 2.593,3.651 0,2.354 -1.058,3.65 -2.593,3.65 -1.536,0 -2.593,-1.296 -2.593,-3.65 0,-2.355 1.057,-3.651 2.593,-3.651 z"
   id="path86" />&#10;			<path
   d="m 285.591,215.79 c 2.039,0 3.525,-1.674 3.525,-4.481 0,-2.808 -1.485,-4.482 -3.525,-4.482 -2.04,0 -3.512,1.674 -3.512,4.482 -0.001,2.807 1.472,4.481 3.512,4.481 z m 0,-8.132 c 1.536,0 2.593,1.296 2.593,3.651 0,2.354 -1.058,3.65 -2.593,3.65 -1.536,0 -2.593,-1.296 -2.593,-3.65 -10e-4,-2.355 1.057,-3.651 2.593,-3.651 z"
   id="path87" />&#10;			<polygon
   points="291.919,207.708 291.919,215.714 292.825,215.714 292.825,206.902 289.842,206.902 289.842,207.708 "
   id="polygon87" />&#10;			<path
   d="m 294.384,207.708 h 2.077 v 8.006 h 0.906 v -7.598 c -0.814,-0.424 -1.638,-0.829 -2.474,-1.214 h -0.509 z"
   id="path88" />&#10;			<path
   d="m 302.98,215.79 c 1.373,0 2.482,-0.774 3.068,-2.127 -0.248,-0.191 -0.49,-0.391 -0.741,-0.579 -0.402,1.214 -1.241,1.875 -2.327,1.875 -1.536,0 -2.593,-1.296 -2.593,-3.65 0,-0.531 0.061,-1 0.161,-1.42 -0.269,-0.162 -0.545,-0.312 -0.816,-0.469 -0.171,0.553 -0.264,1.186 -0.264,1.89 0,2.806 1.472,4.48 3.512,4.48 z"
   id="path89" />&#10;			<path
   d="m 220.211,239.921 v -8.812 h -0.276 c -0.211,0.373 -0.427,0.743 -0.63,1.122 v 7.69 z"
   id="path90" />&#10;			<path
   d="m 225.824,239.997 c 2.039,0 3.524,-1.674 3.524,-4.481 0,-2.808 -1.485,-4.482 -3.524,-4.482 -2.04,0 -3.512,1.674 -3.512,4.482 0,2.807 1.473,4.481 3.512,4.481 z m 0,-8.132 c 1.536,0 2.593,1.296 2.593,3.651 0,2.354 -1.058,3.65 -2.593,3.65 -1.536,0 -2.593,-1.296 -2.593,-3.65 0,-2.355 1.057,-3.651 2.593,-3.651 z"
   id="path91" />&#10;			<polygon
   points="232.152,231.915 232.152,239.921 233.058,239.921 233.058,231.109 230.074,231.109 230.074,231.915 "
   id="polygon91" />&#10;			<polygon
   points="236.694,231.915 236.694,239.921 237.6,239.921 237.6,231.109 234.617,231.109 234.617,231.915 "
   id="polygon92" />&#10;			<polygon
   points="241.237,231.915 241.237,239.921 242.143,239.921 242.143,231.109 239.16,231.109 239.16,231.915 "
   id="polygon93" />&#10;			<polygon
   points="245.779,231.915 245.779,239.921 246.685,239.921 246.685,231.109 243.702,231.109 243.702,231.915 "
   id="polygon94" />&#10;			<path
   d="m 252.298,231.034 c -2.04,0 -3.512,1.674 -3.512,4.482 0,2.807 1.473,4.481 3.512,4.481 2.039,0 3.524,-1.674 3.524,-4.481 0,-2.808 -1.485,-4.482 -3.524,-4.482 z m 0,8.132 c -1.536,0 -2.593,-1.296 -2.593,-3.65 0,-2.355 1.057,-3.651 2.593,-3.651 1.536,0 2.593,1.296 2.593,3.651 0,2.354 -1.058,3.65 -2.593,3.65 z"
   id="path94" />&#10;			<path
   d="m 260.627,231.034 c -2.04,0 -3.512,1.674 -3.512,4.482 0,2.807 1.473,4.481 3.512,4.481 2.039,0 3.524,-1.674 3.524,-4.481 10e-4,-2.808 -1.485,-4.482 -3.524,-4.482 z m 0,8.132 c -1.536,0 -2.593,-1.296 -2.593,-3.65 0,-2.355 1.057,-3.651 2.593,-3.651 1.536,0 2.593,1.296 2.593,3.651 0,2.354 -1.057,3.65 -2.593,3.65 z"
   id="path95" />&#10;			<path
   d="m 268.957,231.034 c -2.039,0 -3.512,1.674 -3.512,4.482 0,2.807 1.473,4.481 3.512,4.481 2.039,0 3.525,-1.674 3.525,-4.481 -0.001,-2.808 -1.486,-4.482 -3.525,-4.482 z m 0,8.132 c -1.536,0 -2.593,-1.296 -2.593,-3.65 0,-2.355 1.057,-3.651 2.593,-3.651 1.536,0 2.593,1.296 2.593,3.651 0,2.354 -1.058,3.65 -2.593,3.65 z"
   id="path96" />&#10;			<polygon
   points="275.285,231.915 275.285,239.921 276.191,239.921 276.191,231.109 273.208,231.109 273.208,231.915 "
   id="polygon96" />&#10;			<polygon
   points="277.75,231.109 277.75,231.915 279.827,231.915 279.827,239.921 280.733,239.921 280.733,231.109 "
   id="polygon97" />&#10;			<path
   d="m 286.346,239.997 c 2.039,0 3.524,-1.674 3.524,-4.481 0,-2.808 -1.485,-4.482 -3.524,-4.482 -2.04,0 -3.512,1.674 -3.512,4.482 0,2.807 1.472,4.481 3.512,4.481 z m 0,-8.132 c 1.536,0 2.593,1.296 2.593,3.651 0,2.354 -1.058,3.65 -2.593,3.65 -1.536,0 -2.593,-1.296 -2.593,-3.65 0,-2.355 1.057,-3.651 2.593,-3.651 z"
   id="path97" />&#10;			<polygon
   points="292.674,239.921 293.58,239.921 293.58,231.109 290.596,231.109 290.596,231.915 292.674,231.915 "
   id="polygon98" />&#10;			<path
   d="m 299.193,239.997 c 2.039,0 3.524,-1.674 3.524,-4.481 0,-2.808 -1.485,-4.482 -3.524,-4.482 -2.04,0 -3.512,1.674 -3.512,4.482 0,2.807 1.472,4.481 3.512,4.481 z m 0,-8.132 c 1.536,0 2.593,1.296 2.593,3.651 0,2.354 -1.058,3.65 -2.593,3.65 -1.536,0 -2.593,-1.296 -2.593,-3.65 -0.001,-2.355 1.057,-3.651 2.593,-3.651 z"
   id="path98" />&#10;			<polygon
   points="305.52,231.915 305.52,239.921 306.427,239.921 306.427,231.109 303.443,231.109 303.443,231.915 "
   id="polygon99" />&#10;			<path
   d="m 312.039,239.997 c 2.039,0 3.524,-1.674 3.524,-4.481 0,-2.808 -1.485,-4.482 -3.524,-4.482 -2.04,0 -3.512,1.674 -3.512,4.482 0,2.807 1.473,4.481 3.512,4.481 z m 0,-8.132 c 1.536,0 2.593,1.296 2.593,3.651 0,2.354 -1.058,3.65 -2.593,3.65 -1.536,0 -2.593,-1.296 -2.593,-3.65 0,-2.355 1.057,-3.651 2.593,-3.651 z"
   id="path99" />&#10;			<polygon
   points="318.367,231.915 318.367,239.921 319.274,239.921 319.274,231.109 316.29,231.109 316.29,231.915 "
   id="polygon100" />&#10;			<path
   d="m 324.886,239.997 c 0.132,0 0.254,-0.026 0.38,-0.04 -0.097,-0.268 -0.201,-0.533 -0.302,-0.8 -0.027,10e-4 -0.051,0.009 -0.078,0.009 -1.536,0 -2.593,-1.296 -2.593,-3.65 0,-0.704 0.104,-1.301 0.278,-1.81 -0.169,-0.338 -0.341,-0.674 -0.516,-1.007 -0.427,0.731 -0.681,1.674 -0.681,2.817 0,2.807 1.472,4.481 3.512,4.481 z"
   id="path100" />&#10;			<path
   d="m 217.507,255.242 c -2.04,0 -3.513,1.674 -3.513,4.482 0,2.807 1.473,4.481 3.513,4.481 2.039,0 3.524,-1.675 3.524,-4.481 0,-2.808 -1.485,-4.482 -3.524,-4.482 z m 0,8.133 c -1.536,0 -2.594,-1.297 -2.594,-3.65 0,-2.355 1.058,-3.651 2.594,-3.651 1.535,0 2.593,1.297 2.593,3.651 -0.001,2.353 -1.058,3.65 -2.593,3.65 z"
   id="path101" />&#10;			<path
   d="m 225.836,255.242 c -2.039,0 -3.512,1.674 -3.512,4.482 0,2.807 1.473,4.481 3.512,4.481 2.039,0 3.524,-1.675 3.524,-4.481 0,-2.808 -1.485,-4.482 -3.524,-4.482 z m 0,8.133 c -1.536,0 -2.593,-1.297 -2.593,-3.65 0,-2.355 1.057,-3.651 2.593,-3.651 1.536,0 2.594,1.297 2.594,3.651 0,2.353 -1.058,3.65 -2.594,3.65 z"
   id="path102" />&#10;			<polygon
   points="232.164,264.129 233.07,264.129 233.07,255.318 230.087,255.318 230.087,256.123 232.164,256.123 "
   id="polygon102" />&#10;			<polygon
   points="236.707,264.129 237.613,264.129 237.613,255.318 234.63,255.318 234.63,256.123 236.707,256.123 "
   id="polygon103" />&#10;			<polygon
   points="241.249,264.129 242.155,264.129 242.155,255.318 239.172,255.318 239.172,256.123 241.249,256.123 "
   id="polygon104" />&#10;			<polygon
   points="245.791,264.129 246.697,264.129 246.697,255.318 243.714,255.318 243.714,256.123 245.791,256.123 "
   id="polygon105" />&#10;			<path
   d="m 248.798,259.724 c 0,2.807 1.473,4.481 3.512,4.481 2.039,0 3.524,-1.675 3.524,-4.481 0,-2.808 -1.485,-4.482 -3.524,-4.482 -2.04,0 -3.512,1.674 -3.512,4.482 z m 3.511,-3.651 c 1.536,0 2.594,1.297 2.594,3.651 0,2.353 -1.058,3.65 -2.594,3.65 -1.536,0 -2.593,-1.297 -2.593,-3.65 0.001,-2.354 1.057,-3.651 2.593,-3.651 z"
   id="path105" />&#10;			<path
   d="m 260.639,255.242 c -2.04,0 -3.513,1.674 -3.513,4.482 0,2.807 1.473,4.481 3.513,4.481 2.039,0 3.524,-1.675 3.524,-4.481 10e-4,-2.808 -1.485,-4.482 -3.524,-4.482 z m 0,8.133 c -1.536,0 -2.594,-1.297 -2.594,-3.65 0,-2.355 1.058,-3.651 2.594,-3.651 1.535,0 2.593,1.297 2.593,3.651 0,2.353 -1.057,3.65 -2.593,3.65 z"
   id="path106" />&#10;			<path
   d="m 268.969,264.206 c 2.039,0 3.524,-1.675 3.524,-4.481 0,-2.808 -1.485,-4.482 -3.524,-4.482 -2.039,0 -3.512,1.674 -3.512,4.482 0,2.806 1.473,4.481 3.512,4.481 z m 0,-8.133 c 1.536,0 2.594,1.297 2.594,3.651 0,2.353 -1.058,3.65 -2.594,3.65 -1.536,0 -2.593,-1.297 -2.593,-3.65 0,-2.354 1.056,-3.651 2.593,-3.651 z"
   id="path107" />&#10;			<polygon
   points="275.297,264.129 276.203,264.129 276.203,255.318 273.22,255.318 273.22,256.123 275.297,256.123 "
   id="polygon107" />&#10;			<polygon
   points="280.746,264.129 280.746,255.318 277.763,255.318 277.763,256.123 279.84,256.123 279.84,264.129 "
   id="polygon108" />&#10;			<path
   d="m 286.358,255.242 c -2.04,0 -3.513,1.674 -3.513,4.482 0,2.807 1.473,4.481 3.513,4.481 2.039,0 3.524,-1.675 3.524,-4.481 10e-4,-2.808 -1.485,-4.482 -3.524,-4.482 z m 0,8.133 c -1.536,0 -2.594,-1.297 -2.594,-3.65 0,-2.355 1.058,-3.651 2.594,-3.651 1.535,0 2.593,1.297 2.593,3.651 0,2.353 -1.058,3.65 -2.593,3.65 z"
   id="path108" />&#10;			<polygon
   points="290.609,255.318 290.609,256.123 292.686,256.123 292.686,264.129 293.593,264.129 293.593,255.318 "
   id="polygon109" />&#10;			<path
   d="m 299.205,264.206 c 2.039,0 3.524,-1.675 3.524,-4.481 0,-2.808 -1.485,-4.482 -3.524,-4.482 -2.04,0 -3.513,1.674 -3.513,4.482 0,2.806 1.473,4.481 3.513,4.481 z m 0,-8.133 c 1.535,0 2.593,1.297 2.593,3.651 0,2.353 -1.058,3.65 -2.593,3.65 -1.536,0 -2.594,-1.297 -2.594,-3.65 0,-2.354 1.058,-3.651 2.594,-3.651 z"
   id="path109" />&#10;			<polygon
   points="305.533,264.129 306.439,264.129 306.439,255.318 303.456,255.318 303.456,256.123 305.533,256.123 "
   id="polygon110" />&#10;			<path
   d="m 312.052,264.206 c 2.039,0 3.524,-1.675 3.524,-4.481 0,-2.808 -1.485,-4.482 -3.524,-4.482 -2.039,0 -3.512,1.674 -3.512,4.482 0,2.806 1.473,4.481 3.512,4.481 z m 0,-8.133 c 1.536,0 2.594,1.297 2.594,3.651 0,2.353 -1.058,3.65 -2.594,3.65 -1.536,0 -2.593,-1.297 -2.593,-3.65 0,-2.354 1.056,-3.651 2.593,-3.651 z"
   id="path110" />&#10;			<polygon
   points="318.38,264.129 319.286,264.129 319.286,255.318 316.303,255.318 316.303,256.123 318.38,256.123 "
   id="polygon111" />&#10;			<path
   d="m 321.387,259.724 c 0,2.807 1.473,4.481 3.512,4.481 2.039,0 3.524,-1.675 3.524,-4.481 0,-2.808 -1.485,-4.482 -3.524,-4.482 -2.04,0 -3.512,1.674 -3.512,4.482 z m 3.511,-3.651 c 1.536,0 2.594,1.297 2.594,3.651 0,2.353 -1.058,3.65 -2.594,3.65 -1.536,0 -2.593,-1.297 -2.593,-3.65 10e-4,-2.354 1.057,-3.651 2.593,-3.651 z"
   id="path111" />&#10;			<path
   d="m 216.526,247.62 c 0,-1.948 -0.725,-3.333 -1.844,-4.009 -0.082,0.284 -0.165,0.568 -0.243,0.854 0.717,0.577 1.156,1.645 1.156,3.155 0,2.343 -1.049,3.636 -2.574,3.648 -0.04,0.273 -0.069,0.55 -0.105,0.824 0.029,10e-4 0.055,0.009 0.085,0.009 2.04,0.001 3.525,-1.674 3.525,-4.481 z"
   id="path112" />&#10;			<polygon
   points="219.33,244.02 219.33,252.026 220.236,252.026 220.236,243.214 217.253,243.214 217.253,244.02 "
   id="polygon112" />&#10;			<path
   d="m 225.848,243.138 c -2.039,0 -3.512,1.674 -3.512,4.482 0,2.807 1.473,4.482 3.512,4.482 2.039,0 3.524,-1.674 3.524,-4.482 10e-4,-2.807 -1.485,-4.482 -3.524,-4.482 z m 0,8.133 c -1.536,0 -2.593,-1.296 -2.593,-3.65 0,-2.354 1.057,-3.651 2.593,-3.651 1.536,0 2.594,1.296 2.594,3.651 0,2.353 -1.057,3.65 -2.594,3.65 z"
   id="path113" />&#10;			<polygon
   points="230.099,243.214 230.099,244.02 232.177,244.02 232.177,252.026 233.083,252.026 233.083,243.214 "
   id="polygon113" />&#10;			<path
   d="m 235.183,247.62 c 0,2.807 1.473,4.482 3.512,4.482 2.039,0 3.524,-1.674 3.524,-4.482 0,-2.808 -1.485,-4.482 -3.524,-4.482 -2.039,0 -3.512,1.675 -3.512,4.482 z m 3.512,-3.651 c 1.536,0 2.594,1.296 2.594,3.651 0,2.354 -1.058,3.65 -2.594,3.65 -1.536,0 -2.593,-1.296 -2.593,-3.65 0,-2.354 1.057,-3.651 2.593,-3.651 z"
   id="path114" />&#10;			<polygon
   points="245.023,244.02 245.023,252.026 245.93,252.026 245.93,243.214 242.946,243.214 242.946,244.02 "
   id="polygon114" />&#10;			<polygon
   points="249.565,244.02 249.565,252.026 250.471,252.026 250.471,243.214 247.488,243.214 247.488,244.02 "
   id="polygon115" />&#10;			<path
   d="m 252.572,247.62 c 0,2.807 1.473,4.482 3.513,4.482 2.039,0 3.524,-1.674 3.524,-4.482 0,-2.808 -1.485,-4.482 -3.524,-4.482 -2.04,0 -3.513,1.675 -3.513,4.482 z m 6.106,0 c 0,2.354 -1.058,3.65 -2.593,3.65 -1.536,0 -2.594,-1.296 -2.594,-3.65 0,-2.354 1.058,-3.651 2.594,-3.651 1.535,0 2.593,1.297 2.593,3.651 z"
   id="path115" />&#10;			<polygon
   points="262.412,252.026 263.318,252.026 263.318,243.214 260.335,243.214 260.335,244.02 262.412,244.02 "
   id="polygon116" />&#10;			<path
   d="m 268.931,252.102 c 2.039,0 3.524,-1.674 3.524,-4.482 0,-2.808 -1.485,-4.482 -3.524,-4.482 -2.04,0 -3.513,1.674 -3.513,4.482 10e-4,2.807 1.473,4.482 3.513,4.482 z m 0,-8.133 c 1.535,0 2.593,1.296 2.593,3.651 0,2.354 -1.058,3.65 -2.593,3.65 -1.536,0 -2.594,-1.296 -2.594,-3.65 0.001,-2.354 1.058,-3.651 2.594,-3.651 z"
   id="path116" />&#10;			<path
   d="m 273.749,247.62 c 0,2.807 1.473,4.482 3.512,4.482 2.039,0 3.524,-1.674 3.524,-4.482 0,-2.808 -1.485,-4.482 -3.524,-4.482 -2.04,0 -3.512,1.675 -3.512,4.482 z m 6.105,0 c 0,2.354 -1.058,3.65 -2.594,3.65 -1.536,0 -2.593,-1.296 -2.593,-3.65 0,-2.354 1.057,-3.651 2.593,-3.651 1.537,0 2.594,1.297 2.594,3.651 z"
   id="path117" />&#10;			<path
   d="m 285.591,252.102 c 2.039,0 3.525,-1.674 3.525,-4.482 0,-2.808 -1.485,-4.482 -3.525,-4.482 -2.04,0 -3.513,1.674 -3.513,4.482 0,2.807 1.473,4.482 3.513,4.482 z m 0,-8.133 c 1.535,0 2.593,1.296 2.593,3.651 0,2.354 -1.058,3.65 -2.593,3.65 -1.536,0 -2.594,-1.296 -2.594,-3.65 0,-2.354 1.058,-3.651 2.594,-3.651 z"
   id="path118" />&#10;			<polygon
   points="291.919,244.02 291.919,252.026 292.825,252.026 292.825,243.214 289.842,243.214 289.842,244.02 "
   id="polygon118" />&#10;			<polygon
   points="296.461,244.02 296.461,252.026 297.367,252.026 297.367,243.214 294.384,243.214 294.384,244.02 "
   id="polygon119" />&#10;			<path
   d="m 299.468,247.62 c 0,2.807 1.473,4.482 3.512,4.482 2.039,0 3.524,-1.674 3.524,-4.482 0,-2.808 -1.485,-4.482 -3.524,-4.482 -2.04,0 -3.512,1.675 -3.512,4.482 z m 3.511,-3.651 c 1.536,0 2.594,1.296 2.594,3.651 0,2.354 -1.058,3.65 -2.594,3.65 -1.536,0 -2.593,-1.296 -2.593,-3.65 10e-4,-2.354 1.057,-3.651 2.593,-3.651 z"
   id="path119" />&#10;			<polygon
   points="309.307,244.02 309.307,252.026 310.214,252.026 310.214,243.214 307.23,243.214 307.23,244.02 "
   id="polygon120" />&#10;			<path
   d="m 312.314,247.62 c 0,2.807 1.473,4.482 3.512,4.482 2.039,0 3.524,-1.674 3.524,-4.482 0,-2.808 -1.485,-4.482 -3.524,-4.482 -2.039,0 -3.512,1.675 -3.512,4.482 z m 3.512,-3.651 c 1.536,0 2.594,1.296 2.594,3.651 0,2.354 -1.058,3.65 -2.594,3.65 -1.536,0 -2.593,-1.296 -2.593,-3.65 0,-2.354 1.057,-3.651 2.593,-3.651 z"
   id="path120" />&#10;			<polygon
   points="322.154,244.02 322.154,252.026 323.06,252.026 323.06,243.214 320.077,243.214 320.077,244.02 "
   id="polygon121" />&#10;			<path
   d="m 325.161,247.62 c 0,2.581 1.252,4.187 3.037,4.432 -0.037,-0.284 -0.067,-0.57 -0.108,-0.852 -1.213,-0.294 -2.01,-1.537 -2.01,-3.579 0,-1.182 0.267,-2.096 0.726,-2.715 -0.085,-0.322 -0.182,-0.639 -0.272,-0.959 -0.847,0.755 -1.373,2.008 -1.373,3.673 z"
   id="path121" />&#10;			<path
   d="m 216.502,271.827 c 0,-2.808 -1.485,-4.482 -3.524,-4.482 -0.021,0 -0.04,0.006 -0.061,0.006 0.036,0.276 0.065,0.555 0.105,0.83 1.51,0.026 2.548,1.315 2.548,3.646 0,1.496 -0.43,2.56 -1.135,3.141 0.078,0.286 0.161,0.57 0.243,0.855 1.108,-0.681 1.824,-2.06 1.824,-3.996 z"
   id="path122" />&#10;			<polygon
   points="217.228,267.421 217.228,268.226 219.305,268.226 219.305,276.233 220.211,276.233 220.211,267.421 "
   id="polygon122" />&#10;			<path
   d="m 225.824,276.308 c 2.039,0 3.524,-1.674 3.524,-4.481 0,-2.808 -1.485,-4.482 -3.524,-4.482 -2.04,0 -3.512,1.674 -3.512,4.482 0,2.807 1.473,4.481 3.512,4.481 z m 0,-8.132 c 1.536,0 2.593,1.296 2.593,3.65 0,2.354 -1.058,3.65 -2.593,3.65 -1.536,0 -2.593,-1.296 -2.593,-3.65 0,-2.354 1.057,-3.65 2.593,-3.65 z"
   id="path123" />&#10;			<polygon
   points="232.152,268.226 232.152,276.233 233.058,276.233 233.058,267.421 230.074,267.421 230.074,268.226 "
   id="polygon123" />&#10;			<polygon
   points="236.694,268.226 236.694,276.233 237.6,276.233 237.6,267.421 234.617,267.421 234.617,268.226 "
   id="polygon124" />&#10;			<polygon
   points="239.16,267.421 239.16,268.226 241.237,268.226 241.237,276.233 242.143,276.233 242.143,267.421 "
   id="polygon125" />&#10;			<polygon
   points="243.702,267.421 243.702,268.226 245.779,268.226 245.779,276.233 246.685,276.233 246.685,267.421 "
   id="polygon126" />&#10;			<path
   d="m 252.298,276.308 c 2.039,0 3.524,-1.674 3.524,-4.481 0,-2.808 -1.485,-4.482 -3.524,-4.482 -2.04,0 -3.512,1.674 -3.512,4.482 0,2.807 1.472,4.481 3.512,4.481 z m 0,-8.132 c 1.536,0 2.593,1.296 2.593,3.65 0,2.354 -1.058,3.65 -2.593,3.65 -1.536,0 -2.593,-1.296 -2.593,-3.65 -0.001,-2.354 1.057,-3.65 2.593,-3.65 z"
   id="path126" />&#10;			<path
   d="m 260.627,267.345 c -2.04,0 -3.512,1.674 -3.512,4.482 0,2.808 1.473,4.481 3.512,4.481 2.039,0 3.524,-1.674 3.524,-4.481 10e-4,-2.808 -1.485,-4.482 -3.524,-4.482 z m 0,8.132 c -1.536,0 -2.593,-1.296 -2.593,-3.65 0,-2.355 1.057,-3.65 2.593,-3.65 1.536,0 2.593,1.296 2.593,3.65 0,2.354 -1.057,3.65 -2.593,3.65 z"
   id="path127" />&#10;			<path
   d="m 268.957,276.308 c 2.039,0 3.525,-1.674 3.525,-4.481 0,-2.808 -1.485,-4.482 -3.525,-4.482 -2.039,0 -3.512,1.674 -3.512,4.482 0,2.807 1.472,4.481 3.512,4.481 z m 0,-8.132 c 1.536,0 2.593,1.296 2.593,3.65 0,2.354 -1.058,3.65 -2.593,3.65 -1.536,0 -2.593,-1.296 -2.593,-3.65 0,-2.354 1.057,-3.65 2.593,-3.65 z"
   id="path128" />&#10;			<polygon
   points="275.285,268.226 275.285,276.233 276.191,276.233 276.191,267.421 273.208,267.421 273.208,268.226 "
   id="polygon128" />&#10;			<polygon
   points="279.827,276.233 280.733,276.233 280.733,267.421 277.75,267.421 277.75,268.226 279.827,268.226 "
   id="polygon129" />&#10;			<path
   d="m 286.346,276.308 c 2.039,0 3.524,-1.674 3.524,-4.481 0,-2.808 -1.485,-4.482 -3.524,-4.482 -2.04,0 -3.512,1.674 -3.512,4.482 0,2.807 1.472,4.481 3.512,4.481 z m 0,-8.132 c 1.536,0 2.593,1.296 2.593,3.65 0,2.354 -1.058,3.65 -2.593,3.65 -1.536,0 -2.593,-1.296 -2.593,-3.65 0,-2.354 1.057,-3.65 2.593,-3.65 z"
   id="path129" />&#10;			<polygon
   points="293.58,276.233 293.58,267.421 290.596,267.421 290.596,268.226 292.674,268.226 292.674,276.233 "
   id="polygon130" />&#10;			<path
   d="m 299.193,276.308 c 2.039,0 3.524,-1.674 3.524,-4.481 0,-2.808 -1.485,-4.482 -3.524,-4.482 -2.04,0 -3.512,1.674 -3.512,4.482 0,2.807 1.472,4.481 3.512,4.481 z m 0,-8.132 c 1.536,0 2.593,1.296 2.593,3.65 0,2.354 -1.058,3.65 -2.593,3.65 -1.536,0 -2.593,-1.296 -2.593,-3.65 -0.001,-2.354 1.057,-3.65 2.593,-3.65 z"
   id="path130" />&#10;			<polygon
   points="303.443,267.421 303.443,268.226 305.52,268.226 305.52,276.233 306.427,276.233 306.427,267.421 "
   id="polygon131" />&#10;			<path
   d="m 315.564,271.827 c 0,-2.808 -1.485,-4.482 -3.524,-4.482 -2.04,0 -3.512,1.674 -3.512,4.482 0,2.808 1.473,4.481 3.512,4.481 2.038,0 3.524,-1.674 3.524,-4.481 z m -3.525,3.65 c -1.536,0 -2.593,-1.296 -2.593,-3.65 0,-2.355 1.057,-3.65 2.593,-3.65 1.536,0 2.593,1.296 2.593,3.65 10e-4,2.354 -1.057,3.65 -2.593,3.65 z"
   id="path131" />&#10;			<polygon
   points="316.29,267.421 316.29,268.226 318.367,268.226 318.367,276.233 319.274,276.233 319.274,267.421 "
   id="polygon132" />&#10;			<path
   d="m 324.886,267.345 c -2.039,0 -3.512,1.674 -3.512,4.482 0,2.808 1.473,4.481 3.512,4.481 0.558,0 1.069,-0.136 1.525,-0.376 0.15,-0.519 0.307,-1.035 0.443,-1.559 -0.459,0.716 -1.14,1.105 -1.968,1.105 -1.536,0 -2.593,-1.296 -2.593,-3.65 0,-2.355 1.057,-3.65 2.593,-3.65 1.51,0 2.553,1.26 2.587,3.541 0.163,-0.78 0.303,-1.567 0.435,-2.358 -0.598,-1.286 -1.686,-2.016 -3.022,-2.016 z"
   id="path132" />&#10;			<path
   d="m 229.361,296.034 c 0,-2.808 -1.485,-4.482 -3.525,-4.482 -1.202,0 -2.196,0.594 -2.819,1.646 0.192,0.273 0.383,0.546 0.58,0.816 0.431,-1.057 1.227,-1.63 2.239,-1.63 1.536,0 2.593,1.296 2.593,3.65 0,1.284 -0.323,2.241 -0.858,2.856 0.195,0.214 0.401,0.417 0.599,0.628 0.736,-0.769 1.191,-1.949 1.191,-3.484 z"
   id="path133" />&#10;			<polygon
   points="232.164,292.433 232.164,300.44 233.071,300.44 233.071,291.628 230.087,291.628 230.087,292.433 "
   id="polygon133" />&#10;			<polygon
   points="234.63,291.628 234.63,292.433 236.707,292.433 236.707,300.44 237.613,300.44 237.613,291.628 "
   id="polygon134" />&#10;			<polygon
   points="239.172,291.628 239.172,292.433 241.249,292.433 241.249,300.44 242.155,300.44 242.155,291.628 "
   id="polygon135" />&#10;			<polygon
   points="243.714,291.628 243.714,292.433 245.791,292.433 245.791,300.44 246.698,300.44 246.698,291.628 "
   id="polygon136" />&#10;			<path
   d="m 252.31,291.552 c -2.04,0 -3.512,1.674 -3.512,4.482 0,2.808 1.473,4.481 3.512,4.481 2.039,0 3.524,-1.674 3.524,-4.481 0,-2.808 -1.485,-4.482 -3.524,-4.482 z m 0,8.132 c -1.536,0 -2.593,-1.296 -2.593,-3.65 0,-2.355 1.057,-3.65 2.593,-3.65 1.536,0 2.593,1.296 2.593,3.65 0,2.354 -1.057,3.65 -2.593,3.65 z"
   id="path136" />&#10;			<path
   d="m 260.639,291.552 c -2.04,0 -3.512,1.674 -3.512,4.482 0,2.808 1.473,4.481 3.512,4.481 2.039,0 3.524,-1.674 3.524,-4.481 10e-4,-2.808 -1.485,-4.482 -3.524,-4.482 z m 0,8.132 c -1.536,0 -2.593,-1.296 -2.593,-3.65 0,-2.355 1.057,-3.65 2.593,-3.65 1.536,0 2.593,1.296 2.593,3.65 10e-4,2.354 -1.057,3.65 -2.593,3.65 z"
   id="path137" />&#10;			<path
   d="m 268.969,291.552 c -2.04,0 -3.512,1.674 -3.512,4.482 0,2.808 1.473,4.481 3.512,4.481 2.039,0 3.524,-1.674 3.524,-4.481 0,-2.808 -1.485,-4.482 -3.524,-4.482 z m 0,8.132 c -1.536,0 -2.593,-1.296 -2.593,-3.65 0,-2.355 1.057,-3.65 2.593,-3.65 1.536,0 2.593,1.296 2.593,3.65 0,2.354 -1.057,3.65 -2.593,3.65 z"
   id="path138" />&#10;			<polygon
   points="273.22,291.628 273.22,292.433 275.297,292.433 275.297,300.44 276.203,300.44 276.203,291.628 "
   id="polygon138" />&#10;			<polygon
   points="277.763,291.628 277.763,292.433 279.84,292.433 279.84,300.44 280.746,300.44 280.746,291.628 "
   id="polygon139" />&#10;			<path
   d="m 286.358,291.552 c -2.039,0 -3.512,1.674 -3.512,4.482 0,2.808 1.473,4.481 3.512,4.481 2.039,0 3.524,-1.674 3.524,-4.481 10e-4,-2.808 -1.485,-4.482 -3.524,-4.482 z m 0,8.132 c -1.536,0 -2.593,-1.296 -2.593,-3.65 0,-2.355 1.057,-3.65 2.593,-3.65 1.536,0 2.593,1.296 2.593,3.65 10e-4,2.354 -1.057,3.65 -2.593,3.65 z"
   id="path139" />&#10;			<polygon
   points="290.609,291.628 290.609,292.433 292.686,292.433 292.686,300.44 293.593,300.44 293.593,291.628 "
   id="polygon140" />&#10;			<path
   d="m 299.205,291.552 c -2.04,0 -3.512,1.674 -3.512,4.482 0,2.808 1.473,4.481 3.512,4.481 2.039,0 3.524,-1.674 3.524,-4.481 0,-2.808 -1.485,-4.482 -3.524,-4.482 z m 0,8.132 c -1.536,0 -2.593,-1.296 -2.593,-3.65 0,-2.355 1.057,-3.65 2.593,-3.65 1.536,0 2.593,1.296 2.593,3.65 0,2.354 -1.057,3.65 -2.593,3.65 z"
   id="path140" />&#10;			<polygon
   points="303.456,291.628 303.456,292.433 305.533,292.433 305.533,300.44 306.439,300.44 306.439,291.628 "
   id="polygon141" />&#10;			<path
   d="m 312.052,291.552 c -2.04,0 -3.512,1.674 -3.512,4.482 0,2.785 1.451,4.45 3.465,4.476 0.329,-0.335 0.651,-0.677 0.972,-1.019 -0.283,0.121 -0.59,0.193 -0.924,0.193 -1.536,0 -2.593,-1.296 -2.593,-3.65 0,-2.355 1.057,-3.65 2.593,-3.65 1.536,0 2.593,1.296 2.593,3.65 0,0.792 -0.128,1.453 -0.346,1.996 0.418,-0.477 0.837,-0.952 1.239,-1.443 0.014,-0.184 0.038,-0.359 0.038,-0.554 0,-2.807 -1.486,-4.481 -3.525,-4.481 z"
   id="path141" />&#10;			<path
   d="m 316.303,292.433 h 2.077 v 0.377 c 0.271,-0.391 0.536,-0.785 0.798,-1.182 h -2.875 z"
   id="path142" />&#10;			<path
   d="m 220.236,279.524 h -2.983 v 0.806 h 2.077 v 6.934 c 0.195,0.362 0.403,0.715 0.605,1.073 h 0.301 z"
   id="path143" />&#10;			<path
   d="m 225.849,279.449 c -2.04,0 -3.512,1.674 -3.512,4.482 0,2.808 1.473,4.481 3.512,4.481 2.039,0 3.524,-1.674 3.524,-4.481 0,-2.808 -1.485,-4.482 -3.524,-4.482 z m 0,8.132 c -1.536,0 -2.593,-1.296 -2.593,-3.65 0,-2.354 1.057,-3.65 2.593,-3.65 1.536,0 2.593,1.296 2.593,3.65 0,2.354 -1.057,3.65 -2.593,3.65 z"
   id="path144" />&#10;			<polygon
   points="230.099,279.524 230.099,280.33 232.177,280.33 232.177,288.336 233.083,288.336 233.083,279.524 "
   id="polygon144" />&#10;			<path
   d="m 238.696,279.449 c -2.04,0 -3.512,1.674 -3.512,4.482 0,2.808 1.473,4.481 3.512,4.481 2.039,0 3.524,-1.674 3.524,-4.481 0,-2.808 -1.485,-4.482 -3.524,-4.482 z m 0,8.132 c -1.536,0 -2.593,-1.296 -2.593,-3.65 0,-2.354 1.057,-3.65 2.593,-3.65 1.536,0 2.593,1.296 2.593,3.65 0,2.354 -1.058,3.65 -2.593,3.65 z"
   id="path145" />&#10;			<polygon
   points="245.024,280.33 245.024,288.336 245.93,288.336 245.93,279.524 242.947,279.524 242.947,280.33 "
   id="polygon145" />&#10;			<polygon
   points="247.489,279.524 247.489,280.33 249.566,280.33 249.566,288.336 250.472,288.336 250.472,279.524 "
   id="polygon146" />&#10;			<path
   d="m 259.609,283.93 c 0,-2.808 -1.485,-4.482 -3.524,-4.482 -2.04,0 -3.512,1.674 -3.512,4.482 0,2.808 1.473,4.481 3.512,4.481 2.039,10e-4 3.524,-1.673 3.524,-4.481 z m -3.524,3.651 c -1.536,0 -2.593,-1.296 -2.593,-3.65 0,-2.354 1.057,-3.65 2.593,-3.65 1.536,0 2.593,1.296 2.593,3.65 0,2.354 -1.058,3.65 -2.593,3.65 z"
   id="path146" />&#10;			<polygon
   points="262.412,288.336 263.319,288.336 263.319,279.524 260.335,279.524 260.335,280.33 262.412,280.33 "
   id="polygon147" />&#10;			<path
   d="m 268.931,288.412 c 2.039,0 3.524,-1.674 3.524,-4.481 0,-2.808 -1.485,-4.482 -3.524,-4.482 -2.04,0 -3.512,1.674 -3.512,4.482 0,2.807 1.473,4.481 3.512,4.481 z m 0,-8.132 c 1.536,0 2.593,1.296 2.593,3.65 0,2.354 -1.058,3.65 -2.593,3.65 -1.536,0 -2.593,-1.296 -2.593,-3.65 0,-2.354 1.057,-3.65 2.593,-3.65 z"
   id="path147" />&#10;			<path
   d="m 277.261,279.449 c -2.039,0 -3.512,1.674 -3.512,4.482 0,2.808 1.473,4.481 3.512,4.481 2.039,0 3.525,-1.674 3.525,-4.481 -10e-4,-2.808 -1.486,-4.482 -3.525,-4.482 z m 0,8.132 c -1.536,0 -2.593,-1.296 -2.593,-3.65 0,-2.354 1.057,-3.65 2.593,-3.65 1.536,0 2.593,1.296 2.593,3.65 0,2.354 -1.057,3.65 -2.593,3.65 z"
   id="path148" />&#10;			<path
   d="m 285.591,288.412 c 2.039,0 3.525,-1.674 3.525,-4.481 0,-2.808 -1.485,-4.482 -3.525,-4.482 -2.04,0 -3.512,1.674 -3.512,4.482 -0.001,2.807 1.472,4.481 3.512,4.481 z m 0,-8.132 c 1.536,0 2.593,1.296 2.593,3.65 0,2.354 -1.058,3.65 -2.593,3.65 -1.536,0 -2.593,-1.296 -2.593,-3.65 0,-2.354 1.057,-3.65 2.593,-3.65 z"
   id="path149" />&#10;			<polygon
   points="291.919,288.336 292.825,288.336 292.825,279.524 289.842,279.524 289.842,280.33 291.919,280.33 "
   id="polygon149" />&#10;			<polygon
   points="296.461,280.33 296.461,288.336 297.367,288.336 297.367,279.524 294.384,279.524 294.384,280.33 "
   id="polygon150" />&#10;			<path
   d="m 302.98,279.449 c -2.04,0 -3.512,1.674 -3.512,4.482 0,2.808 1.473,4.481 3.512,4.481 2.039,0 3.524,-1.674 3.524,-4.481 0,-2.808 -1.485,-4.482 -3.524,-4.482 z m 0,8.132 c -1.536,0 -2.593,-1.296 -2.593,-3.65 0,-2.354 1.057,-3.65 2.593,-3.65 1.536,0 2.593,1.296 2.593,3.65 0,2.354 -1.058,3.65 -2.593,3.65 z"
   id="path150" />&#10;			<polygon
   points="309.307,280.33 309.307,288.336 310.214,288.336 310.214,279.524 307.23,279.524 307.23,280.33 "
   id="polygon151" />&#10;			<path
   d="m 315.827,279.449 c -2.04,0 -3.512,1.674 -3.512,4.482 0,2.808 1.473,4.481 3.512,4.481 2.039,0 3.524,-1.674 3.524,-4.481 0,-2.808 -1.485,-4.482 -3.524,-4.482 z m 0,8.132 c -1.536,0 -2.593,-1.296 -2.593,-3.65 0,-2.354 1.057,-3.65 2.593,-3.65 1.536,0 2.593,1.296 2.593,3.65 0,2.354 -1.058,3.65 -2.593,3.65 z"
   id="path151" />&#10;			<path
   d="m 320.078,279.524 v 0.806 h 2.077 v 6.224 c 0.309,-0.593 0.617,-1.185 0.906,-1.79 v -5.24 z"
   id="path152" />&#10;			<path
   d="m 232.564,303.732 c 0.165,0.142 0.327,0.287 0.493,0.427 v -0.427 z"
   id="path153" />&#10;			<path
   d="m 234.617,303.732 v 0.806 h 2.077 v 2.451 c 0.301,0.216 0.601,0.434 0.906,0.644 v -3.901 z"
   id="path154" />&#10;			<path
   d="m 239.16,303.732 v 0.806 h 2.077 v 5.402 c 0.301,0.176 0.602,0.351 0.906,0.521 v -6.729 z"
   id="path155" />&#10;			<path
   d="m 246.685,303.732 h -2.983 v 0.806 h 2.077 v 7.803 c 0.149,0.07 0.301,0.135 0.451,0.204 h 0.456 v -8.813 z"
   id="path156" />&#10;			<path
   d="m 252.298,303.657 c -2.04,0 -3.512,1.674 -3.512,4.482 0,2.808 1.473,4.481 3.512,4.481 2.039,0 3.524,-1.674 3.524,-4.481 0,-2.808 -1.485,-4.482 -3.524,-4.482 z m 0,8.132 c -1.536,0 -2.593,-1.296 -2.593,-3.65 0,-2.354 1.057,-3.65 2.593,-3.65 1.536,0 2.593,1.296 2.593,3.65 0,2.354 -1.058,3.65 -2.593,3.65 z"
   id="path157" />&#10;			<path
   d="m 260.627,303.657 c -2.04,0 -3.512,1.674 -3.512,4.482 0,2.808 1.473,4.481 3.512,4.481 2.039,0 3.524,-1.674 3.524,-4.481 10e-4,-2.808 -1.485,-4.482 -3.524,-4.482 z m 0,8.132 c -1.536,0 -2.593,-1.296 -2.593,-3.65 0,-2.354 1.057,-3.65 2.593,-3.65 1.536,0 2.593,1.296 2.593,3.65 0,2.354 -1.057,3.65 -2.593,3.65 z"
   id="path158" />&#10;			<path
   d="m 268.957,303.657 c -2.039,0 -3.512,1.674 -3.512,4.482 0,2.808 1.473,4.481 3.512,4.481 2.039,0 3.525,-1.674 3.525,-4.481 -0.001,-2.808 -1.486,-4.482 -3.525,-4.482 z m 0,8.132 c -1.536,0 -2.593,-1.296 -2.593,-3.65 0,-2.354 1.057,-3.65 2.593,-3.65 1.536,0 2.593,1.296 2.593,3.65 0,2.354 -1.058,3.65 -2.593,3.65 z"
   id="path159" />&#10;			<polygon
   points="275.285,304.538 275.285,312.544 276.191,312.544 276.191,303.732 273.208,303.732 273.208,304.538 "
   id="polygon159" />&#10;			<polygon
   points="277.75,303.732 277.75,304.538 279.827,304.538 279.827,312.544 280.733,312.544 280.733,303.732 "
   id="polygon160" />&#10;			<path
   d="m 286.346,303.657 c -2.04,0 -3.512,1.674 -3.512,4.482 0,2.808 1.473,4.481 3.512,4.481 2.039,0 3.524,-1.674 3.524,-4.481 0,-2.808 -1.485,-4.482 -3.524,-4.482 z m 0,8.132 c -1.536,0 -2.593,-1.296 -2.593,-3.65 0,-2.354 1.057,-3.65 2.593,-3.65 1.536,0 2.593,1.296 2.593,3.65 0,2.354 -1.057,3.65 -2.593,3.65 z"
   id="path160" />&#10;			<polygon
   points="290.596,303.732 290.596,304.538 292.674,304.538 292.674,312.544 293.58,312.544 293.58,303.732 "
   id="polygon161" />&#10;			<path
   d="m 299.193,303.657 c -2.04,0 -3.512,1.674 -3.512,4.482 0,1.519 0.441,2.691 1.16,3.461 0.267,-0.135 0.534,-0.269 0.798,-0.409 -0.647,-0.597 -1.039,-1.627 -1.039,-3.052 0,-2.354 1.057,-3.65 2.593,-3.65 1.536,0 2.593,1.296 2.593,3.65 0,0.234 -0.018,0.449 -0.038,0.662 0.323,-0.206 0.648,-0.408 0.967,-0.62 0,-0.015 0.003,-0.027 0.003,-0.042 -0.001,-2.808 -1.486,-4.482 -3.525,-4.482 z"
   id="path161" />&#10;			<path
   d="m 303.443,303.732 v 0.806 h 2.077 v 1.661 c 0.307,-0.231 0.604,-0.475 0.906,-0.712 v -1.754 h -2.983 z"
   id="path162" />&#10;			<path
   d="m 255.316,315.848 c 0.957,0.259 1.923,0.496 2.899,0.707 -0.581,-0.51 -1.306,-0.795 -2.13,-0.795 -0.268,-10e-4 -0.524,0.032 -0.769,0.088 z"
   id="path163" />&#10;			<path
   d="m 260.335,315.836 v 0.806 h 2.077 v 0.659 c 0.301,0.042 0.604,0.078 0.906,0.115 v -1.58 z"
   id="path164" />&#10;			<path
   d="m 268.931,315.759 c -1.306,0 -2.373,0.693 -2.977,1.923 0.324,0.025 0.647,0.054 0.973,0.074 0.458,-0.755 1.153,-1.166 2.004,-1.166 0.892,0 1.614,0.45 2.07,1.279 0.328,-0.002 0.654,-0.017 0.981,-0.025 -0.591,-1.327 -1.692,-2.085 -3.051,-2.085 z"
   id="path165" />&#10;			<path
   d="m 277.261,315.759 c -1.329,0 -2.407,0.721 -3.004,1.992 0.351,-0.022 0.701,-0.052 1.05,-0.08 0.459,-0.702 1.135,-1.081 1.954,-1.081 0.647,0 1.202,0.243 1.635,0.686 0.336,-0.048 0.672,-0.099 1.007,-0.153 -0.631,-0.873 -1.553,-1.364 -2.642,-1.364 z"
   id="path166" />&#10;			<path
   d="m 283.682,316.376 c 0.77,-0.178 1.534,-0.368 2.292,-0.576 -0.128,-0.014 -0.251,-0.04 -0.384,-0.04 -0.722,-10e-4 -1.368,0.219 -1.908,0.616 z"
   id="path167" />&#10;		</g>&#10;		<g
   id="g177">&#10;			<path
   style="fill:#ffffff"
   d="m 241.771,174.484 v 0.903 H 236.5 v -7.263 h 5.126 v 0.903 h -4.088 v 2.231 h 3.642 v 0.882 h -3.642 v 2.345 h 4.233 z"
   id="path168" />&#10;			<path
   style="fill:#ffffff"
   d="m 249.699,168.124 v 7.263 h -0.851 l -4.358,-5.417 v 5.417 h -1.038 v -7.263 h 0.851 l 4.358,5.416 v -5.416 z"
   id="path169" />&#10;			<path
   style="fill:#ffffff"
   d="m 251.287,171.756 c 0,-2.148 1.639,-3.715 3.85,-3.715 1.121,0 2.096,0.384 2.76,1.131 l -0.674,0.654 c -0.561,-0.591 -1.245,-0.861 -2.044,-0.861 -1.64,0 -2.854,1.183 -2.854,2.792 0,1.608 1.214,2.791 2.854,2.791 0.799,0 1.483,-0.28 2.044,-0.872 l 0.674,0.654 c -0.664,0.747 -1.639,1.141 -2.77,1.141 -2.201,-0.001 -3.84,-1.568 -3.84,-3.715 z"
   id="path170" />&#10;			<path
   style="fill:#ffffff"
   d="m 264.236,175.387 -1.567,-2.231 c -0.145,0.011 -0.301,0.021 -0.456,0.021 h -1.795 v 2.21 h -1.038 v -7.263 h 2.833 c 1.888,0 3.029,0.955 3.029,2.532 0,1.121 -0.581,1.93 -1.598,2.293 l 1.723,2.439 h -1.131 z m -0.03,-4.731 c 0,-1.038 -0.695,-1.629 -2.023,-1.629 h -1.764 v 3.268 h 1.764 c 1.327,0 2.023,-0.602 2.023,-1.639 z"
   id="path171" />&#10;			<path
   style="fill:#ffffff"
   d="m 269.601,172.876 v 2.511 h -1.027 v -2.532 l -2.885,-4.732 h 1.11 l 2.324,3.829 2.335,-3.829 h 1.027 z"
   id="path172" />&#10;			<path
   style="fill:#ffffff"
   d="m 279.272,170.656 c 0,1.577 -1.142,2.532 -3.03,2.532 h -1.795 v 2.2 h -1.038 v -7.263 h 2.832 c 1.889,-0.001 3.031,0.954 3.031,2.531 z m -1.038,0 c 0,-1.038 -0.695,-1.629 -2.023,-1.629 h -1.764 v 3.258 h 1.764 c 1.328,0 2.023,-0.592 2.023,-1.629 z"
   id="path173" />&#10;			<path
   style="fill:#ffffff"
   d="m 282.011,169.027 h -2.49 v -0.903 h 6.008 v 0.903 h -2.49 v 6.36 h -1.027 v -6.36 z"
   id="path174" />&#10;			<path
   style="fill:#ffffff"
   d="m 286.659,168.124 h 1.038 v 7.263 h -1.038 z"
   id="path175" />&#10;			<path
   style="fill:#ffffff"
   d="m 289.285,171.756 c 0,-2.128 1.64,-3.715 3.87,-3.715 2.21,0 3.85,1.577 3.85,3.715 0,2.137 -1.64,3.714 -3.85,3.714 -2.231,0 -3.87,-1.587 -3.87,-3.714 z m 6.682,0 c 0,-1.608 -1.204,-2.792 -2.812,-2.792 -1.629,0 -2.832,1.183 -2.832,2.792 0,1.608 1.204,2.791 2.832,2.791 1.608,0 2.812,-1.183 2.812,-2.791 z"
   id="path176" />&#10;			<path
   style="fill:#ffffff"
   d="m 304.839,168.124 v 7.263 h -0.851 l -4.358,-5.417 v 5.417 h -1.038 v -7.263 h 0.851 l 4.358,5.416 v -5.416 z"
   id="path177" />&#10;		</g>&#10;		<g
   id="g181">&#10;			<path
   style="fill:none;stroke:#ffffff;stroke-width:4;stroke-miterlimit:10"
   d="M 255.389,251.802 V 240.28 c 0,-8.439 6.841,-15.28 15.28,-15.28 v 0 c 8.439,0 15.28,6.841 15.28,15.28 v 11.522"
   id="path178" />&#10;			<path
   style="fill:#407bff"
   d="m 295.427,250.681 -24.758,-7.303 -24.758,7.303 v 14.487 c 0,12.059 7.494,22.847 18.793,27.057 l 5.964,2.222 5.964,-2.222 c 11.3,-4.21 18.793,-14.999 18.793,-27.057 v -14.487 z"
   id="path179" />&#10;			<path
   style="opacity:0.2;enable-background:new"
   d="M 265.753,289.413 C 255.68,285.66 248.912,275.917 248.912,265.168 v -12.245 l 21.758,-6.418 21.757,6.418 v 12.245 c 0,10.749 -6.768,20.492 -16.841,24.245 l -4.916,1.833 z"
   id="path180" />&#10;			<path
   style="fill:#263238"
   d="m 274.428,263.67 c 0,-2.076 -1.683,-3.758 -3.758,-3.758 -2.075,0 -3.758,1.683 -3.758,3.758 0,1.477 0.86,2.742 2.099,3.356 l -0.725,7.028 h 4.769 l -0.725,-7.028 c 1.238,-0.614 2.098,-1.879 2.098,-3.356 z"
   id="path181" />&#10;		</g>&#10;		<g
   id="g182">&#10;			<path
   style="fill:#ffffff"
   d="m 341.263,172.125 v -2.018 h -1.777 c -0.116,-0.516 -0.322,-0.995 -0.596,-1.429 l 1.259,-1.26 -1.426,-1.427 -1.259,1.26 c -0.434,-0.274 -0.913,-0.48 -1.429,-0.596 v -1.777 h -2.018 v 1.777 c -0.516,0.116 -0.995,0.321 -1.429,0.596 l -1.259,-1.259 -1.427,1.427 1.259,1.259 c -0.274,0.433 -0.48,0.913 -0.595,1.429 h -1.777 v 2.018 h 1.777 c 0.116,0.516 0.322,0.995 0.595,1.429 l -1.259,1.259 1.427,1.427 1.259,-1.259 c 0.433,0.274 0.913,0.479 1.429,0.596 v 1.777 h 2.018 v -1.777 c 0.516,-0.116 0.995,-0.322 1.429,-0.596 l 1.259,1.259 1.426,-1.427 -1.259,-1.259 c 0.274,-0.433 0.48,-0.913 0.596,-1.429 z m -6.237,0.856 c -1.03,0 -1.865,-0.835 -1.865,-1.865 0,-1.03 0.835,-1.865 1.865,-1.865 1.03,0 1.865,0.835 1.865,1.865 0,1.03 -0.835,1.865 -1.865,1.865 z"
   id="path182" />&#10;			<polygon
   style="fill:#ffffff"
   points="203.001,176.619 212.324,176.619 212.324,172.022 214.407,172.022 207.662,165.614 200.918,172.022 203.001,172.022 "
   id="polygon182" />&#10;		</g>&#10;		<g
   id="g184">&#10;			<path
   style="opacity:0.3;fill:#407bff"
   d="M 322.367,334.03 H 218.973 c -3.024,0 -5.476,2.452 -5.476,5.476 0,3.024 2.452,5.476 5.476,5.476 h 103.394 c 3.024,0 5.476,-2.451 5.476,-5.476 -0.001,-3.024 -2.452,-5.476 -5.476,-5.476 z"
   id="path183" />&#10;			<path
   style="fill:#407bff"
   d="m 291.193,334.998 h -72.12 c -2.49,0 -4.508,2.018 -4.508,4.508 0,2.49 2.018,4.508 4.508,4.508 h 72.12 c 2.49,0 4.508,-2.018 4.508,-4.508 0,-2.49 -2.018,-4.508 -4.508,-4.508 z"
   id="path184" />&#10;		</g>&#10;	</g>&#10;</g><g
   id="Plant"
   transform="matrix(0.47183287,0,0,0.47183287,-18.409923,-48.920907)">&#10;	<g
   id="g190">&#10;		<path
   style="fill:#263238"
   d="m 388.184,393.772 c 0,0 5.266,-24.885 -4.324,-38.366 -9.59,-13.48 8.668,-0.155 10.768,12.463 0,0 3.147,-22.562 -6.156,-38.436 -9.303,-15.874 8.103,-2.84 9.581,13.516 0,0 2.85,-20.129 -1.424,-31.44 -4.274,-11.311 3.162,-4.038 6.021,3.053 2.859,7.09 -0.892,24.648 -0.892,24.648 0,0 7.46,-32.466 14.522,-29.882 7.062,2.584 -10.557,23.855 -13.001,34.921 0,0 8.327,-14.891 14.644,-11.791 6.317,3.1 -9.784,4.642 -17.156,26.846 l -2.59,10.411 c 0,0 7.662,-14.696 12.672,-10.06 5.01,4.636 -14.855,12.638 -19.471,34.912 z"
   id="path185" />&#10;		<path
   style="fill:#263238"
   d="m 389.216,395.205 c 0,0 1.107,-31.375 16.61,-44.663 15.503,-13.288 -10.335,-2.768 -16.61,11.719 0,0 2.953,-27.961 18.825,-44.202 15.872,-16.241 -8.859,-5.816 -15.503,13.333 0,0 2.584,-24.958 11.074,-37.232 8.49,-12.275 -2.584,-5.778 -8.121,1.863 -5.537,7.641 -6.275,29.788 -6.275,29.788 0,0 0.738,-41.108 -8.49,-40.117 -9.228,0.991 5.537,31.718 5.168,45.699 0,0 -5.537,-20.317 -14.026,-18.486 -8.49,1.831 10.335,8.475 12.55,37.266 v 13.241 c 0,0 -4.798,-19.885 -12.181,-15.825 -7.382,4.06 14.027,19.563 12.919,47.616 z"
   id="path186" />&#10;		<path
   style="opacity:0.2;fill:#ffffff;enable-background:new"
   d="m 389.216,395.205 c 0,0 1.107,-31.375 16.61,-44.663 15.503,-13.288 -10.335,-2.768 -16.61,11.719 0,0 2.953,-27.961 18.825,-44.202 15.872,-16.241 -8.859,-5.816 -15.503,13.333 0,0 2.584,-24.958 11.074,-37.232 8.49,-12.275 -2.584,-5.778 -8.121,1.863 -5.537,7.641 -6.275,29.788 -6.275,29.788 0,0 0.738,-41.108 -8.49,-40.117 -9.228,0.991 5.537,31.718 5.168,45.699 0,0 -5.537,-20.317 -14.026,-18.486 -8.49,1.831 10.335,8.475 12.55,37.266 v 13.241 c 0,0 -4.798,-19.885 -12.181,-15.825 -7.382,4.06 14.027,19.563 12.919,47.616 z"
   id="path187" />&#10;		<path
   style="fill:#407bff"
   d="m 375.675,417.288 h 23.592 c 6.072,0 10.994,-4.922 10.994,-10.994 v -4.923 H 364.68 v 4.923 c 10e-4,6.071 4.923,10.994 10.995,10.994 z"
   id="path188" />&#10;		<path
   style="fill:#407bff"
   d="m 362.923,406.435 h 49.096 c 2.326,0 4.211,-1.885 4.211,-4.211 v -5.831 c 0,-2.326 -1.885,-4.211 -4.211,-4.211 h -49.096 c -2.326,0 -4.211,1.885 -4.211,4.211 v 5.831 c 0,2.326 1.885,4.211 4.211,4.211 z"
   id="path189" />&#10;		<path
   style="opacity:0.2;fill:#ffffff;enable-background:new"
   d="m 362.923,406.435 h 49.096 c 2.326,0 4.211,-1.885 4.211,-4.211 v -5.831 c 0,-2.326 -1.885,-4.211 -4.211,-4.211 h -49.096 c -2.326,0 -4.211,1.885 -4.211,4.211 v 5.831 c 0,2.326 1.885,4.211 4.211,4.211 z"
   id="path190" />&#10;	</g>&#10;</g><g
   id="Bubble_speech"
   transform="matrix(0.47183287,0,0,0.47183287,-18.409923,-48.920907)">&#10;	<g
   id="g212">&#10;		<path
   style="fill:#407bff"
   d="M 119.376,110.659 H 82.932 c -1.797,0 -3.254,1.457 -3.254,3.254 v 35.61 c 0,1.797 1.457,3.254 3.254,3.254 h 19.88 l 11.507,8.394 -5.23,-8.394 h 10.287 c 1.797,0 3.254,-1.457 3.254,-3.254 v -35.61 c 0,-1.798 -1.457,-3.254 -3.254,-3.254 z"
   id="path191" />&#10;		<g
   id="g211">&#10;			<path
   style="fill:none;stroke:#ffffff;stroke-width:0.5;stroke-linecap:round;stroke-linejoin:round;stroke-miterlimit:10"
   d="m 93.281,141.923 c 0.827,-6.861 5.467,-11.834 7.875,-10.419 2.544,1.493 -4.073,5.789 -4.713,12.728"
   id="path192" />&#10;			<path
   style="fill:none;stroke:#ffffff;stroke-width:0.5;stroke-linecap:round;stroke-linejoin:round;stroke-miterlimit:10"
   d="m 92.241,140.658 c 0.957,-6.585 5.836,-13.175 10.081,-10.465 4.463,2.845 -4.068,7.22 -4.593,14.554"
   id="path193" />&#10;			<path
   style="fill:none;stroke:#ffffff;stroke-width:0.5;stroke-linecap:round;stroke-linejoin:round;stroke-miterlimit:10"
   d="m 94.306,142.869 c 0.572,-4.536 3.521,-9.345 4.919,-9.332 1.461,0.013 -3.332,4.422 -3.795,10.133"
   id="path194" />&#10;			<path
   style="fill:none;stroke:#ffffff;stroke-width:0.5;stroke-linecap:round;stroke-linejoin:round;stroke-miterlimit:10"
   d="m 91.211,138.843 c 1.441,-7.652 8.26,-13.446 12.401,-10.299 5.399,4.104 -3.782,9.888 -4.146,16.624"
   id="path195" />&#10;			<path
   style="fill:none;stroke:#ffffff;stroke-width:0.5;stroke-linecap:round;stroke-linejoin:round;stroke-miterlimit:10"
   d="m 102.098,145.251 c -1.02,-2.694 0.921,-6.694 3.313,-10.205 1.977,-2.902 5.207,-2.507 6.627,-2.153"
   id="path196" />&#10;			<path
   style="fill:none;stroke:#ffffff;stroke-width:0.5;stroke-linecap:round;stroke-linejoin:round;stroke-miterlimit:10"
   d="m 104.449,144.789 c -1.888,-2.7 0.062,-7.178 3.053,-9.592 1.805,-1.456 3.449,-1.144 4.531,-0.603"
   id="path197" />&#10;			<path
   style="fill:none;stroke:#ffffff;stroke-width:0.5;stroke-linecap:round;stroke-linejoin:round;stroke-miterlimit:10"
   d="m 105.932,144.196 c -1.555,-2.824 1.149,-7.053 3.064,-7.865 1.124,-0.479 2.138,-0.156 2.83,0.234"
   id="path198" />&#10;			<path
   style="fill:none;stroke:#ffffff;stroke-width:0.5;stroke-linecap:round;stroke-linejoin:round;stroke-miterlimit:10"
   d="m 107.799,143.025 c -0.827,-0.915 -0.718,-2.611 0.739,-4.244 1.103,-1.233 2.159,-0.962 2.819,-0.567"
   id="path199" />&#10;			<path
   style="fill:none;stroke:#ffffff;stroke-width:0.5;stroke-linecap:round;stroke-linejoin:round;stroke-miterlimit:10"
   d="m 109.131,141.813 c -0.224,-0.463 -0.312,-1.066 0.276,-1.576 0.447,-0.385 0.837,-0.432 1.149,-0.343"
   id="path200" />&#10;			<path
   style="fill:none;stroke:#ffffff;stroke-width:0.5;stroke-linecap:round;stroke-linejoin:round;stroke-miterlimit:10"
   d="m 90.374,135.894 v -0.005 c 0.525,-2.07 1.821,-5.098 4.999,-7.48 3.985,-2.991 6.445,-3.09 8.239,-5.092 1.352,-1.519 1.472,-3.516 0.728,-5.134"
   id="path201" />&#10;			<path
   style="fill:none;stroke:#ffffff;stroke-width:0.5;stroke-linecap:round;stroke-linejoin:round;stroke-miterlimit:10"
   d="m 102.02,117.746 c 0.593,0.619 1.077,1.561 0.801,2.892 -0.853,4.151 -9.701,5.15 -12.551,10.825"
   id="path202" />&#10;			<path
   style="fill:none;stroke:#ffffff;stroke-width:0.5;stroke-linecap:round;stroke-linejoin:round;stroke-miterlimit:10"
   d="m 99.461,117.839 c 0.718,0.39 1.311,1.02 1.15,2.029 -0.567,3.485 -7.771,5.03 -10.341,9.129"
   id="path203" />&#10;			<path
   style="fill:none;stroke:#ffffff;stroke-width:0.5;stroke-linecap:round;stroke-linejoin:round;stroke-miterlimit:10"
   d="m 97.25,118.432 c 0.463,0.244 0.853,0.671 0.78,1.436 -0.234,2.362 -5.171,3.849 -7.589,6.799"
   id="path204" />&#10;			<path
   style="fill:none;stroke:#ffffff;stroke-width:0.5;stroke-linecap:round;stroke-linejoin:round;stroke-miterlimit:10"
   d="m 95.014,119.608 c 0.239,0.26 0.411,0.614 0.348,1.082 -0.109,0.843 -2.117,1.269 -3.729,2.627"
   id="path205" />&#10;			<path
   style="fill:none;stroke:#ffffff;stroke-width:0.5;stroke-linecap:round;stroke-linejoin:round;stroke-miterlimit:10"
   d="m 106.904,119.353 c 0,0.005 0,0.005 0,0.005 0.13,0.874 0.109,2.096 -0.588,3.287 -1.071,1.841 -1.914,3.293 -1.009,5.3 0.837,1.847 3.085,3.433 6.731,3.371"
   id="path206" />&#10;			<path
   style="fill:none;stroke:#ffffff;stroke-width:0.5;stroke-linecap:round;stroke-linejoin:round;stroke-miterlimit:10"
   d="m 109.167,121.236 c -0.104,0.889 -0.437,2.018 -1.306,3.136 -1.425,1.847 -0.25,5.415 4.177,5.02"
   id="path207" />&#10;			<path
   style="fill:none;stroke:#ffffff;stroke-width:0.5;stroke-linecap:round;stroke-linejoin:round;stroke-miterlimit:10"
   d="m 110.613,123.207 c -0.619,0.733 -1.425,1.555 -1.503,2.32 -0.135,1.342 0.687,2.689 2.892,2.242"
   id="path208" />&#10;			<path
   style="fill:none;stroke:#ffffff;stroke-width:0.5;stroke-linecap:round;stroke-linejoin:round;stroke-miterlimit:10"
   d="m 111.778,126.219 c -0.473,-0.167 -0.458,-0.572 -0.271,-0.993"
   id="path209" />&#10;			<path
   style="fill:#ffffff"
   d="m 101.98,126.3 c 0,0 1.169,-0.499 1.63,-0.979 0,0 -0.137,1.097 0.094,1.715 0,-0.001 -0.558,-0.581 -1.724,-0.736 z"
   id="path210" />&#10;			<path
   style="fill:#ffffff"
   d="m 106.37,131.014 c 0,0 0.172,0.652 -0.137,1.372 0,0 0.995,-0.583 1.543,-0.686 0,0 -0.96,-0.275 -1.406,-0.686 z"
   id="path211" />&#10;		</g>&#10;	</g>&#10;</g><g
   id="Character"
   transform="matrix(0.47183287,0,0,0.47183287,-18.409923,-48.920907)">&#10;	<g
   id="g247">&#10;		<path
   style="fill:#ebb376"
   d="m 119.263,204.866 c -1.098,3.91 4.176,18.508 13.275,18.376 9.099,-0.132 -11.781,-23.697 -13.275,-18.376 z"
   id="path212" />&#10;		<path
   style="opacity:0.2;enable-background:new"
   d="m 119.263,204.866 c -1.098,3.91 4.176,18.508 13.275,18.376 9.099,-0.132 -11.781,-23.697 -13.275,-18.376 z"
   id="path213" />&#10;		<path
   style="fill:#ebb376"
   d="m 150.422,194.583 c 0,0 2.643,-2.132 3.229,-3.052 0.586,-0.921 6.385,-1.292 7.23,-1.166 0.845,0.126 -0.313,4.881 -0.514,5.528 -0.201,0.647 -5.732,1.833 -6.471,1.617 -0.737,-0.215 -3.474,-2.927 -3.474,-2.927 z"
   id="path214" />&#10;		<path
   style="opacity:0.2;enable-background:new"
   d="m 150.422,194.583 c 0,0 2.643,-2.132 3.229,-3.052 0.586,-0.921 6.385,-1.292 7.23,-1.166 0.845,0.126 -0.313,4.881 -0.514,5.528 -0.201,0.647 -5.732,1.833 -6.471,1.617 -0.737,-0.215 -3.474,-2.927 -3.474,-2.927 z"
   id="path215" />&#10;		<path
   style="fill:#ebb376"
   d="m 171.691,199.505 c 0,0 1.071,-1.038 1.226,-1.434 0.155,-0.396 -0.045,-8.159 -0.613,-8.456 -0.568,-0.297 -5.859,0.643 -6.304,1.385 -0.445,0.742 0.544,7.813 0.593,8.209 0.049,0.396 2.833,1.088 2.833,1.088 z"
   id="path216" />&#10;		<g
   id="g219">&#10;			<path
   style="fill:#263238"
   d="m 172.119,183.892 -0.645,-0.057 -4.609,-0.405 -0.645,-0.057 c -0.533,-0.047 -1.047,0.346 -1.149,0.878 l -2.256,11.77 c -0.102,0.532 0.247,1.001 0.78,1.048 l 0.645,0.057 4.609,0.405 0.645,0.057 c 0.533,0.047 1.047,-0.346 1.149,-0.878 l 2.256,-11.77 c 0.102,-0.532 -0.247,-1.001 -0.78,-1.048 z"
   id="path217" />&#10;			<path
   style="opacity:0.2;fill:#ffffff;enable-background:new"
   d="m 171.474,183.836 -5.254,-0.462 c -0.533,-0.047 -1.047,0.346 -1.149,0.878 l -2.256,11.77 c -0.102,0.532 0.247,1.001 0.78,1.048 l 5.254,0.462 c 0.533,0.047 1.047,-0.346 1.149,-0.878 l 2.256,-11.77 c 0.102,-0.532 -0.247,-1.001 -0.78,-1.048 z"
   id="path218" />&#10;			<polygon
   style="fill:#407bff"
   points="163.215,195.918 165.447,184.273 171.691,184.823 169.459,196.468 "
   id="polygon218" />&#10;			<polygon
   style="opacity:0.6;fill:#ffffff;enable-background:new"
   points="163.215,195.918 165.447,184.273 171.691,184.823 169.459,196.468 "
   id="polygon219" />&#10;		</g>&#10;		<path
   style="fill:#ebb376"
   d="m 146.014,398.849 5.059,0.081 c 5.14,-24.145 8.775,-54.025 11.037,-76.565 0.353,-3.534 0.676,-6.877 0.959,-9.997 0.131,-1.484 0.263,-2.908 0.384,-4.282 0.606,-6.776 1.02,-12.148 1.273,-15.47 0.182,-2.423 0.273,-3.757 0.273,-3.757 h -18.278 l 0.172,4.655 0.566,15.37 0.061,1.757 0.384,10.149 0.636,17.278 c -6.273,24.326 -2.526,60.781 -2.526,60.781 z"
   id="path219" />&#10;		<path
   style="fill:#ebb376"
   d="m 105.015,397.556 4.978,0.939 c 9.967,-24.912 19.328,-56.813 25.417,-79.099 0.939,-3.454 1.808,-6.685 2.585,-9.613 0.04,-0.151 0.071,-0.293 0.111,-0.434 1.535,-5.817 2.716,-10.452 3.454,-13.39 0.566,-2.302 0.879,-3.565 0.879,-3.565 l -18.015,-3.11 -1.02,7.574 -1.505,11.128 -0.293,2.181 -1.02,7.584 -2.737,20.338 c -10.319,22.901 -12.834,59.467 -12.834,59.467 z"
   id="path220" />&#10;		<path
   style="opacity:0.2;enable-background:new"
   d="m 121.899,307.985 16.097,1.797 c 0.04,-0.151 0.071,-0.293 0.111,-0.434 1.535,-5.817 2.716,-10.452 3.454,-13.39 l -18.157,0.899 z"
   id="path221" />&#10;		<path
   style="opacity:0.2;enable-background:new"
   d="m 146.892,293.514 0.566,15.37 0.061,1.757 15.551,1.727 c 0.131,-1.484 0.263,-2.908 0.384,-4.282 0.606,-6.776 1.02,-12.148 1.273,-15.47 z"
   id="path222" />&#10;		<path
   style="fill:#263238"
   d="m 160.95,415.631 c -0.941,-0.762 -2.014,-1.346 -3.166,-1.722 v 0 c 0,0 -3.443,-3.416 -5.1,-13.7 l -4.508,-1.176 c -1.568,-0.38 -3.206,0.26 -4.101,1.601 -0.125,0.182 -0.222,0.382 -0.287,0.592 -0.232,1.103 -0.393,2.219 -0.481,3.342 -0.453,3.48 -0.065,11.293 -0.065,11.293 h 0.815 l 0.324,-7.091 c 0.12,-2.407 1.962,0.417 2.49,3.008 0.528,2.592 1.648,5.35 6.924,5.48 6.155,0.123 8.71,-0.118 7.155,-1.627 z"
   id="path223" />&#10;		<path
   style="fill:#263238"
   d="m 143.918,400.719 c -0.296,-2.407 -0.389,-6.591 -0.389,-6.591 l 10.016,1.111 c 0,0 -1.213,4.758 -0.213,8.331 -5.045,-1.324 -9.414,-2.851 -9.414,-2.851 z"
   id="path224" />&#10;		<path
   style="fill:#263238"
   d="m 120.195,415.631 c -0.941,-0.762 -2.014,-1.346 -3.166,-1.722 v 0 c 0,0 -3.443,-3.416 -5.101,-13.7 l -4.508,-1.176 c -1.568,-0.38 -3.206,0.26 -4.101,1.601 -0.125,0.182 -0.222,0.382 -0.287,0.592 -0.232,1.103 -0.393,2.219 -0.481,3.342 -0.454,3.48 -0.065,11.293 -0.065,11.293 h 0.815 l 0.324,-7.091 c 0.12,-2.407 1.962,0.417 2.49,3.008 0.528,2.592 1.648,5.35 6.924,5.48 6.156,0.123 8.711,-0.118 7.156,-1.627 z"
   id="path225" />&#10;		<path
   style="fill:#263238"
   d="m 103.162,400.719 c -0.296,-2.407 -0.389,-6.591 -0.389,-6.591 l 10.016,1.111 c 0,0 -1.213,4.758 -0.213,8.331 -5.044,-1.324 -9.414,-2.851 -9.414,-2.851 z"
   id="path226" />&#10;		<g
   id="g237">&#10;			<g
   id="g228">&#10;				<path
   style="fill:#263238"
   d="m 155.523,180.747 c -0.144,0.581 -0.506,0.992 -0.807,0.917 -0.302,-0.075 -0.429,-0.607 -0.285,-1.188 0.144,-0.581 0.506,-0.992 0.807,-0.917 0.302,0.075 0.429,0.607 0.285,1.188 z"
   id="path227" />&#10;				<path
   style="fill:#263238"
   d="m 155.106,179.556 1.107,-0.252 c -0.001,0 -0.754,0.942 -1.107,0.252 z"
   id="path228" />&#10;			</g>&#10;			<path
   style="fill:#d58745"
   d="m 153.778,181.895 c 0,0 0.259,2.14 0.895,3.584 0,0 -0.939,0.701 -2.09,0.08 z"
   id="path229" />&#10;			<path
   style="fill:#ebb376"
   d="m 136.555,186.448 c 0.049,0.085 0.107,0.173 0.171,0.244 0.804,1.115 1.776,2.252 3.053,3.039 3.569,2.212 6.396,2.583 8.719,1.418 0.009,0.003 0.009,0.003 0.009,0.003 3.313,-1.806 5.503,-6.257 7.074,-11.991 0.728,-2.627 1.123,-4.993 1.006,-6.979 -0.003,-0.02 0.019,-0.085 0.016,-0.105 -0.011,-0.082 -0.004,-0.189 -0.015,-0.271 -0.231,-2.797 -1.455,-4.975 -4.042,-6.598 -0.895,-0.559 -1.956,-1.062 -3.194,-1.503 -10.915,-3.843 -19.062,13.629 -12.797,22.743 z"
   id="path230" />&#10;			<path
   style="opacity:0.2;enable-background:new"
   d="m 136.726,186.692 c 0.804,1.115 1.828,2.099 3.105,2.885 3.569,2.212 6.439,2.456 8.771,1.265 -2.045,-0.227 -4.657,-0.94 -6.755,-2.935 -1.324,-1.252 -3.193,-1.478 -5.121,-1.215 z"
   id="path231" />&#10;			<path
   style="fill:#ebb376"
   d="m 132.245,196.207 c -1.737,2.89 1.871,5.536 1.871,5.536 7.568,-0.573 9.991,-3.669 9.991,-3.669 -4.534,-4.75 -0.171,-12.34 -0.171,-12.34 l -1.31,0.17 -8.395,-1.139 c 0,0 0.758,4.934 0.722,5.988 -0.003,0.009 0.003,0.02 0,0.029 -0.22,5.499 -2.708,5.425 -2.708,5.425 z"
   id="path232" />&#10;			<path
   style="fill:#263238"
   d="m 156.616,172.111 c 0,0 -2.011,7.888 -10.413,8.709 0,0 -5.842,6.916 -10.482,5.462 -6.326,-1.982 -8.816,-12.791 -3.548,-21.143 6.83,-10.831 25.019,-5.709 24.443,6.972 z"
   id="path233" />&#10;			<path
   style="fill:#ebb376"
   d="m 150.639,179.869 c 0.405,-1.199 0.127,-3.54 -1.828,-3.9 -2.024,-0.373 -4.71,4.015 -0.334,6.689 0.628,0.384 1.317,-0.287 2.162,-2.789 z"
   id="path234" />&#10;			<path
   style="fill:#263238"
   d="m 146.018,159.394 c 0,0 7.959,0.641 11.007,4.967 3.559,5.051 4.141,9.222 -3.34,12.84 0,0 -10.947,-8.177 -15.324,-8.724 -4.378,-0.548 -7.709,-0.351 -7.709,-0.351 1.904,-8.419 11.839,-11.786 15.366,-8.732 z"
   id="path235" />&#10;			<path
   style="fill:#263238"
   d="m 137.66,163.827 c 0,0 -4.605,-8.571 -11.579,-6.906 -6.975,1.666 -7.888,7.623 -7.508,13.464 0.38,5.841 -0.772,16.592 -5.372,18.648 0,0 4.325,2.865 8.94,-2.111 4.616,-4.976 5.395,-21.55 13.067,-18.737 z"
   id="path236" />&#10;			&#10;				<path
   style="fill:none;stroke:#263238;stroke-width:0.7247;stroke-linecap:round;stroke-linejoin:round;stroke-miterlimit:10"
   d="m 153.258,176.195 c 0,0 1.33,-0.341 2.828,0.897"
   id="path237" />&#10;		</g>&#10;		<path
   style="fill:#407bff"
   d="m 161.07,242.18 -29.9,2.9 c -1.39,-21.36 -11.91,-40.21 -11.91,-40.21 0,0 -1.41,-4.85 12.52,-8.65 13.93,-3.79 23.17,-0.68 23.17,-0.68 2.95,4.01 4.65,10.08 5.59,16.53 0.37,2.49 0.63,5.03 0.8,7.53 0.78,11.74 -0.27,22.58 -0.27,22.58 z"
   id="path238" />&#10;		<g
   id="g246">&#10;			<path
   style="fill:#263238"
   d="m 162.224,244.112 v 0 l -0.599,-5.889 -31.652,3.18 0.66,4.614 0.01,-0.001 c -11.922,21.106 -9.034,45.175 -9.034,45.175 l -1.447,11.834 c 0,0 2.991,1.856 23.044,3.163 17.634,1.149 22.115,-0.678 22.115,-0.678 6.242,-36.625 0.884,-54.059 -3.097,-61.398 z"
   id="path239" />&#10;			<g
   id="g245">&#10;				<polygon
   style="fill:#263238"
   points="162.774,243.391 162.584,239.078 148.215,240.584 148.533,244.519 "
   id="polygon239" />&#10;				<polygon
   style="fill:#263238"
   points="147.505,244.6 147.19,240.691 133.987,242.075 134.275,245.647 "
   id="polygon240" />&#10;				<polygon
   style="fill:#263238"
   points="129.601,242.534 130.03,245.983 133.248,245.729 132.962,242.182 "
   id="polygon241" />&#10;				<g
   style="opacity:0.3;enable-background:new"
   id="g244">&#10;					<polygon
   style="fill:#ffffff"
   points="162.774,243.391 162.584,239.078 148.215,240.584 148.533,244.519 "
   id="polygon242" />&#10;					<polygon
   style="fill:#ffffff"
   points="147.505,244.6 147.19,240.691 133.987,242.075 134.275,245.647 "
   id="polygon243" />&#10;					<polygon
   style="fill:#ffffff"
   points="129.601,242.534 130.03,245.983 133.248,245.729 132.962,242.182 "
   id="polygon244" />&#10;				</g>&#10;			</g>&#10;		</g>&#10;		<path
   style="fill:#ebb376"
   d="m 154.951,195.539 c 0,0 -5.47,-0.522 -5.006,6.204 0.257,3.727 3.313,11.082 6.684,11.741 1.999,0.391 2.931,-2.798 2.931,-2.798 0,0 9.323,10.374 13.989,9.025 4.666,-1.348 -1.714,-21.129 -1.714,-21.129 l -3.658,0.396 c 0,0 2.603,10.286 1.811,11.077 -0.79,0.791 -12.503,-13.917 -15.037,-14.516 z"
   id="path246" />&#10;		<path
   style="opacity:0.2;enable-background:new"
   d="m 161.34,219.6 c -3.67,-2.65 -6.67,-12.71 -6.67,-12.71 l 4.89,3.8 c 0,0 0.41,0.55 0.98,1.38 0.37,2.49 0.63,5.03 0.8,7.53 z"
   id="path247" />&#10;	</g>&#10;</g></svg>
