<?xml version="1.0" encoding="UTF-8" standalone="no"?>
<!-- Generator: Adobe Illustrator 27.5.0, SVG Export Plug-In . SVG Version: 6.00 Build 0)  -->

<svg
   version="1.1"
   x="0px"
   y="0px"
   viewBox="0 0 199 155"
   xml:space="preserve"
   id="svg247"
   sodipodi:docname="carnet.svg"
   inkscape:version="1.3 (0e150ed6c4, 2023-07-21)"
   width="199"
   height="155"
   xmlns:inkscape="http://www.inkscape.org/namespaces/inkscape"
   xmlns:sodipodi="http://sodipodi.sourceforge.net/DTD/sodipodi-0.dtd"
   xmlns="http://www.w3.org/2000/svg"
   xmlns:svg="http://www.w3.org/2000/svg"><defs
   id="defs247" /><sodipodi:namedview
   id="namedview247"
   pagecolor="#ffffff"
   bordercolor="#000000"
   borderopacity="0.25"
   inkscape:showpageshadow="2"
   inkscape:pageopacity="0.0"
   inkscape:pagecheckerboard="true"
   inkscape:deskcolor="#d1d1d1"
   inkscape:zoom="3.284"
   inkscape:cx="109.16565"
   inkscape:cy="86.327649"
   inkscape:window-width="2560"
   inkscape:window-height="1017"
   inkscape:window-x="1912"
   inkscape:window-y="-8"
   inkscape:window-maximized="1"
   inkscape:current-layer="svg247" />&#10;&#10;<g
   id="Background_Simple"
   style="display:none">&#10;	<g
   style="display:inline"
   id="g41">&#10;		<path
   style="fill:#407bff"
   d="m 241.936,74.075 c 7.832,-1.91 16.622,-1.622 26.341,1.643 15.617,5.247 27.043,19.004 34.173,33.856 13.796,28.739 17.651,60.899 27.547,90.911 2.714,8.23 5.923,16.453 11.228,23.305 22.071,28.507 82.754,12.137 82.176,62.137 -0.163,14.13 -7.771,27.655 -18.876,36.394 -32.69,25.724 -78.654,11.019 -113.588,-0.656 -32.732,-10.939 -61.068,-12.275 -93.872,0.819 -27.802,11.097 -56.895,29.991 -88.174,24.881 -31.807,-5.197 -46.032,-36.584 -40.707,-66.182 5.677,-31.551 30.416,-54.82 58.857,-67.405 16.966,-7.508 39.284,-12.096 52.582,-25.755 6.83,-7.015 9.803,-16.855 11.975,-26.402 3.458,-15.205 5.5,-30.795 10.651,-45.513 6.453,-18.439 19.682,-37.153 39.687,-42.033 z"
   id="path40" />&#10;		<path
   style="opacity:0.9;fill:#ffffff"
   d="m 241.936,74.075 c 7.832,-1.91 16.622,-1.622 26.341,1.643 15.617,5.247 27.043,19.004 34.173,33.856 13.796,28.739 17.651,60.899 27.547,90.911 2.714,8.23 5.923,16.453 11.228,23.305 22.071,28.507 82.754,12.137 82.176,62.137 -0.163,14.13 -7.771,27.655 -18.876,36.394 -32.69,25.724 -78.654,11.019 -113.588,-0.656 -32.732,-10.939 -61.068,-12.275 -93.872,0.819 -27.802,11.097 -56.895,29.991 -88.174,24.881 -31.807,-5.197 -46.032,-36.584 -40.707,-66.182 5.677,-31.551 30.416,-54.82 58.857,-67.405 16.966,-7.508 39.284,-12.096 52.582,-25.755 6.83,-7.015 9.803,-16.855 11.975,-26.402 3.458,-15.205 5.5,-30.795 10.651,-45.513 6.453,-18.439 19.682,-37.153 39.687,-42.033 z"
   id="path41" />&#10;	</g>&#10;</g>&#10;&#10;&#10;&#10;&#10;&#10;<g
   id="Background_Complete"
   transform="matrix(0.47748225,0,0,0.47748225,-23.794722,-34.447222)">&#10;	<g
   id="g8">&#10;		<rect
   y="382.39801"
   style="fill:#ebebeb"
   width="500"
   height="0.25"
   id="rect1"
   x="0" />&#10;		<rect
   x="416.77899"
   y="398.49399"
   style="fill:#ebebeb"
   width="33.122002"
   height="0.25"
   id="rect2" />&#10;		<rect
   x="322.52701"
   y="401.20801"
   style="fill:#ebebeb"
   width="8.6929998"
   height="0.25"
   id="rect3" />&#10;		<rect
   x="396.586"
   y="389.20801"
   style="fill:#ebebeb"
   width="19.191999"
   height="0.25"
   id="rect4" />&#10;		<rect
   x="52.459"
   y="390.888"
   style="fill:#ebebeb"
   width="43.193001"
   height="0.25"
   id="rect5" />&#10;		<rect
   x="104.556"
   y="390.888"
   style="fill:#ebebeb"
   width="6.3330002"
   height="0.25"
   id="rect6" />&#10;		<rect
   x="131.47099"
   y="395.11099"
   style="fill:#ebebeb"
   width="93.676003"
   height="0.25"
   id="rect7" />&#10;		<path
   style="fill:#ebebeb"
   d="M 237.014,337.8 H 43.915 c -3.147,0 -5.708,-2.561 -5.708,-5.708 V 60.66 c 0,-3.147 2.561,-5.708 5.708,-5.708 h 193.099 c 3.146,0 5.707,2.561 5.707,5.708 v 271.432 c 0,3.147 -2.561,5.708 -5.707,5.708 z M 43.915,55.203 c -3.01,0 -5.458,2.448 -5.458,5.458 v 271.432 c 0,3.01 2.448,5.458 5.458,5.458 h 193.099 c 3.009,0 5.457,-2.448 5.457,-5.458 V 60.66 c 0,-3.009 -2.448,-5.458 -5.457,-5.458 H 43.915 Z"
   id="path7" />&#10;		<path
   style="fill:#ebebeb"
   d="M 453.31,337.8 H 260.212 c -3.147,0 -5.707,-2.561 -5.707,-5.708 V 60.66 c 0,-3.147 2.561,-5.708 5.707,-5.708 H 453.31 c 3.148,0 5.708,2.561 5.708,5.708 v 271.432 c 0.001,3.147 -2.56,5.708 -5.708,5.708 z M 260.212,55.203 c -3.009,0 -5.457,2.448 -5.457,5.458 v 271.432 c 0,3.01 2.448,5.458 5.457,5.458 H 453.31 c 3.01,0 5.458,-2.448 5.458,-5.458 V 60.66 c 0,-3.009 -2.448,-5.458 -5.458,-5.458 H 260.212 Z"
   id="path8" />&#10;	</g>&#10;	<g
   id="g35">&#10;		<g
   id="g21">&#10;			<g
   id="g20">&#10;				&#10;					<rect
   x="277.91101"
   y="83.477997"
   transform="rotate(180,360.3236,157.27535)"
   style="fill:#e6e6e6"
   width="164.825"
   height="147.59599"
   id="rect8" />&#10;				&#10;					<rect
   x="270.97101"
   y="83.477997"
   transform="rotate(180,355.23205,157.27535)"
   style="fill:#f0f0f0"
   width="168.522"
   height="147.59599"
   id="rect9" />&#10;				&#10;					<rect
   x="277.91101"
   y="231.073"
   transform="rotate(180,360.3236,233.5709)"
   style="fill:#e6e6e6"
   width="164.825"
   height="4.9959998"
   id="rect10" />&#10;				&#10;					<rect
   x="259.409"
   y="231.073"
   transform="rotate(180,343.67005,233.5709)"
   style="fill:#f0f0f0"
   width="168.522"
   height="4.9959998"
   id="rect11" />&#10;				&#10;					<rect
   x="291.14999"
   y="82.731003"
   transform="rotate(90,355.2321,157.2754)"
   style="fill:#fafafa"
   width="128.16299"
   height="149.09"
   id="rect12" />&#10;				<polygon
   style="fill:#ffffff"
   points="399.816,221.357 342.789,93.194 284.43,93.194 341.457,221.357 "
   id="polygon12" />&#10;				<path
   style="fill:#f0f0f0"
   d="m 425.279,199.94 c 0.384,0 0.694,-0.311 0.694,-0.694 V 99.515 c 0,-0.383 -0.31,-0.694 -0.694,-0.694 -0.384,0 -0.694,0.311 -0.694,0.694 v 99.731 c 0,0.383 0.31,0.694 0.694,0.694 z"
   id="path12" />&#10;				<polygon
   style="fill:#ffffff"
   points="319.517,221.357 262.49,93.194 242.3,93.194 299.327,221.357 "
   id="polygon13" />&#10;				&#10;					<rect
   x="217.22301"
   y="156.658"
   transform="rotate(90,281.3042,157.2754)"
   style="fill:#e6e6e6"
   width="128.16299"
   height="1.234"
   id="rect13" />&#10;				<g
   style="opacity:0.5"
   id="g19">&#10;					<polygon
   style="fill:#e6e6e6"
   points="268.672,106.539 433.496,106.539 434.391,96.969 269.566,96.969 "
   id="polygon14" />&#10;					<polygon
   style="fill:#e6e6e6"
   points="268.672,122.341 433.496,122.341 434.391,112.771 269.566,112.771 "
   id="polygon15" />&#10;					<polygon
   style="fill:#e6e6e6"
   points="268.672,138.142 433.496,138.142 434.391,128.572 269.566,128.572 "
   id="polygon16" />&#10;					<polygon
   style="fill:#e6e6e6"
   points="268.672,153.944 433.496,153.944 434.391,144.374 269.566,144.374 "
   id="polygon17" />&#10;					<polygon
   style="fill:#e6e6e6"
   points="268.672,169.746 433.496,169.746 434.391,160.176 269.566,160.176 "
   id="polygon18" />&#10;					<polygon
   style="fill:#e6e6e6"
   points="268.672,185.547 433.496,185.547 434.391,175.977 269.566,175.977 "
   id="polygon19" />&#10;				</g>&#10;			</g>&#10;		</g>&#10;		<g
   id="g24">&#10;			&#10;				<rect
   x="77.864998"
   y="83.477997"
   transform="rotate(180,143.5339,232.938)"
   style="fill:#f0f0f0"
   width="131.33701"
   height="298.92099"
   id="rect21" />&#10;			&#10;				<rect
   x="77.864998"
   y="83.477997"
   transform="rotate(180,142.24155,232.938)"
   style="fill:#f5f5f5"
   width="128.75301"
   height="298.92099"
   id="rect22" />&#10;			&#10;				<rect
   x="-3.8269999"
   y="178.73599"
   transform="rotate(90,142.2415,236.3296)"
   style="fill:#ebebeb"
   width="292.13699"
   height="115.187"
   id="rect23" />&#10;			<path
   style="fill:#ffffff"
   d="m 115.914,224.027 c -6.53,-1.8 -13.06,4.001 -19.59,2.202 -1.382,-0.367 -2.514,-2.234 -2.514,-3.615 v 0 c 0.001,-1.385 1.132,-1.78 2.514,-1.413 6.53,1.8 13.06,-4.001 19.59,-2.202 1.381,0.367 2.514,2.235 2.514,3.615 v 0 c 0.001,1.384 -1.134,1.779 -2.514,1.413 z"
   id="path23" />&#10;			&#10;				<rect
   x="-60.541"
   y="235.45"
   transform="rotate(90,85.5274,236.3296)"
   style="fill:#e0e0e0"
   width="292.13699"
   height="1.7589999"
   id="rect24" />&#10;		</g>&#10;		<g
   id="g34">&#10;			<g
   id="g30">&#10;				&#10;					<rect
   x="415.496"
   y="273.64401"
   transform="rotate(180,427.2738,324.7235)"
   style="fill:#f0f0f0"
   width="23.556"
   height="102.16"
   id="rect25" />&#10;				&#10;					<rect
   x="318.362"
   y="375.80301"
   transform="rotate(180,376.44545,379.0398)"
   style="fill:#f0f0f0"
   width="116.166"
   height="6.473"
   id="rect26" />&#10;				<rect
   x="313.83899"
   y="273.64401"
   style="fill:#f5f5f5"
   width="101.657"
   height="102.16"
   id="rect27" />&#10;				<rect
   x="323.10001"
   y="286.21799"
   style="fill:#f0f0f0"
   width="83.134003"
   height="33.505001"
   id="rect28" />&#10;				<rect
   x="323.10001"
   y="329.724"
   style="fill:#f0f0f0"
   width="83.134003"
   height="33.505001"
   id="rect29" />&#10;				<path
   style="fill:#f5f5f5"
   d="M 355.335,289.043 H 374 c 1.264,0 2.297,-1.034 2.297,-2.297 v 0 c 0,-1.263 -1.034,-2.297 -2.297,-2.297 h -18.666 c -1.264,0 -2.297,1.034 -2.297,2.297 v 0 c 0,1.263 1.034,2.297 2.298,2.297 z"
   id="path29" />&#10;				<path
   style="fill:#f5f5f5"
   d="M 355.335,332.548 H 374 c 1.264,0 2.297,-1.034 2.297,-2.297 v 0 c 0,-1.264 -1.034,-2.297 -2.297,-2.297 h -18.666 c -1.264,0 -2.297,1.034 -2.297,2.297 v 0 c 0,1.264 1.034,2.297 2.298,2.297 z"
   id="path30" />&#10;			</g>&#10;			<path
   style="fill:#ebebeb"
   d="m 393.585,271.633 v 0 c -0.959,0 -1.744,-0.785 -1.744,-1.744 v -53.084 c 0,-0.959 0.785,-1.744 1.744,-1.744 v 0 c 0.959,0 1.744,0.785 1.744,1.744 v 53.084 c 0,0.96 -0.785,1.744 -1.744,1.744 z"
   id="path31" />&#10;			<rect
   x="377.242"
   y="269.57401"
   style="fill:#f0f0f0"
   width="32.686001"
   height="4.118"
   id="rect31" />&#10;			<path
   style="fill:#e0e0e0"
   d="m 402.641,246.85 v 0 c -0.479,0 -0.872,-0.392 -0.872,-0.872 v -26.542 c 0,-0.48 0.392,-0.872 0.872,-0.872 v 0 c 0.479,0 0.872,0.392 0.872,0.872 v 26.542 c 0,0.479 -0.392,0.872 -0.872,0.872 z"
   id="path32" />&#10;			<g
   id="g33">&#10;				<path
   style="fill:#e6e6e6"
   d="m 368.172,228.617 c 0,0 0.646,-19.515 25.414,-19.515 24.768,0 25.414,19.515 25.414,19.515 z"
   id="path33" />&#10;			</g>&#10;		</g>&#10;	</g>&#10;</g><g
   id="Shadow_1_"
   transform="matrix(0.41599094,0,0,0.41599094,-11.005443,-26.196044)">&#10;	<ellipse
   id="_x3C_Path_x3E__300_"
   style="fill:#f5f5f5"
   cx="250"
   cy="416.23801"
   rx="193.88901"
   ry="11.323" />&#10;</g><g
   id="Character_1_"
   transform="matrix(0.41599094,0,0,0.41599094,-11.005443,-26.196044)">&#10;	<g
   id="g68">&#10;		<path
   style="fill:#263238"
   d="m 233.662,144.056 c 0.052,-2.111 2.006,-4.889 9.862,-5.389 7.856,-0.5 10.776,-0.136 14.023,6 3.5,6.614 7.5,14 4.889,20.778 -2.611,6.778 -10.834,10.752 -16.722,14.333 -5.888,3.581 -14.667,15.611 -14.667,15.611 0,0 -16.381,-45.389 2.615,-51.333 z"
   id="path37" />&#10;		<path
   style="fill:#ff8b7b"
   d="m 237.251,234.626 c 0,0 11.913,61.146 16.138,85.999 4.394,25.85 8.095,81.471 8.095,81.471 h 6.616 c 0,0 8.429,-47.942 -0.01,-83.646 0.567,-28.459 -4.964,-87.652 -4.964,-87.652 z"
   id="path38" />&#10;		<path
   style="fill:#ff8b7b"
   d="m 245.928,233.342 c 0,0 26.126,63.938 35.223,87.448 12.754,17.098 44.829,53.374 46.585,54.097 l 2.325,-5.227 c 0,0 -19.601,-38.328 -35.403,-57.272 -4.202,-28.153 -24.204,-82.676 -24.204,-82.676 z"
   id="path39" />&#10;		<path
   style="fill:#ff8b7b"
   d="m 233.632,194.857 c -1.883,2.201 -3.815,4.307 -5.742,6.442 -1.939,2.12 -3.92,4.2 -5.907,6.282 -1.983,2.087 -3.999,4.144 -6.081,6.155 -2.074,2.02 -4.169,4.025 -6.363,5.994 l 0.33,-0.352 c -0.509,0.593 -1.073,1.043 -1.62,1.39 -0.535,0.322 -1.074,0.582 -1.559,0.75 -0.992,0.364 -1.872,0.521 -2.703,0.615 -1.657,0.182 -3.13,0.126 -4.563,0.015 -2.852,-0.235 -5.506,-0.781 -8.12,-1.395 -2.604,-0.649 -5.147,-1.396 -7.661,-2.202 -2.511,-0.845 -4.968,-1.718 -7.434,-2.755 -1.069,-0.45 -1.572,-1.681 -1.122,-2.75 0.396,-0.943 1.401,-1.445 2.366,-1.242 l 0.04,0.009 c 2.47,0.517 4.997,1.047 7.498,1.492 2.499,0.479 5.002,0.895 7.485,1.202 2.472,0.331 4.949,0.558 7.27,0.571 1.151,0.004 2.278,-0.064 3.185,-0.247 0.449,-0.09 0.841,-0.208 1.057,-0.314 0.125,-0.049 0.159,-0.098 0.178,-0.108 -0.008,-0.01 -0.074,0.02 -0.161,0.121 l 0.331,-0.352 c 1.964,-1.946 3.899,-3.988 5.816,-6.051 l 5.736,-6.247 11.408,-12.616 c 1.565,-1.731 4.237,-1.865 5.968,-0.3 1.701,1.538 1.86,4.144 0.381,5.877 z"
   id="path40-5" />&#10;		<path
   style="fill:#ff8b7b"
   d="m 179.134,212.365 -4.176,-7.227 -2.854,7.905 c 0,0 3.504,3.986 6.85,3.204 z"
   id="path41-9" />&#10;		<path
   style="fill:#ff8b7b"
   d="m 169.762,205.353 -1.015,3.372 c -0.232,0.771 0.024,1.605 0.648,2.113 l 2.71,2.207 2.854,-7.905 -2.534,-1.049 c -1.088,-0.451 -2.325,0.136 -2.663,1.262 z"
   id="path42" />&#10;		<path
   style="fill:#407bff"
   d="m 233.714,184.767 c -5.879,-0.96 -8.487,3.105 -11.291,6.195 0.666,5.458 10.299,16.662 10.299,16.662 0,0 11.675,-21.113 0.992,-22.857 z"
   id="path43" />&#10;		<path
   style="fill:#407bff"
   d="m 225.893,191.474 c 0.747,5.947 3.587,22.644 11.543,47.643 l 34.709,-5.135 c -2.396,-12.585 -5.708,-24.473 -4.178,-49.524 0.178,-2.918 -2.146,-5.383 -5.07,-5.371 -2.349,0.009 -5.248,0.104 -8.266,0.403 -5.627,0.557 -10.232,1.056 -15.077,2.231 -3.203,0.777 -6.591,1.815 -9.172,2.657 -3.007,0.982 -4.883,3.959 -4.489,7.096 z"
   id="path44" />&#10;		<path
   style="fill:#ffffff"
   d="m 239.553,181.722 15.077,-2.231 c 0,0 -0.686,5.787 -10.186,13.398 -7.222,-6.699 -4.891,-11.167 -4.891,-11.167 z"
   id="path45" />&#10;		<path
   style="fill:#ff8b7b"
   d="m 250.625,162.735 c -0.233,4.992 0.133,14.021 4.006,16.756 0,0 -3.016,5.522 -9.731,9.674 -5.268,-2.296 -5.346,-7.443 -5.346,-7.443 5.219,-2.092 4.485,-6.085 2.985,-9.715 z"
   id="path46" />&#10;		<path
   style="opacity:0.2"
   d="m 247.329,166.518 -4.787,5.484 c 0.358,0.859 0.668,1.737 0.861,2.607 2.023,-0.604 4.526,-3.293 4.425,-5.489 -0.05,-1.095 -0.249,-2.126 -0.499,-2.602 z"
   id="path47" />&#10;		<path
   style="fill:#ff8b7b"
   d="m 254.425,153.079 c -0.735,8.169 -0.872,11.643 -5.125,15.726 -6.397,6.141 -16.27,3.452 -17.99,-4.773 -1.548,-7.403 -0.086,-19.519 8.017,-22.547 7.984,-2.984 15.834,3.425 15.098,11.594 z"
   id="path48" />&#10;		<path
   style="fill:#263238"
   d="m 248.158,146.722 c -0.722,4.889 2.167,10.874 4.667,10.937 2.5,0.063 4.389,-9.381 4.389,-9.381 z"
   id="path49" />&#10;		<path
   style="fill:#263238"
   d="m 234.27,144.222 c 5.333,3.778 21.167,9.445 21.5,4.556 0.333,-4.889 -6.278,-8.833 -11.167,-8.833 -4.889,0 -8.833,1.944 -10.333,4.277 z"
   id="path50" />&#10;		<g
   id="g52">&#10;			<path
   style="opacity:0.2"
   d="m 252.096,313.253 15.951,-6.292 c -0.078,-3.81 -0.212,-7.854 -0.395,-12.032 l -17.707,6.451 c 0.789,4.24 1.515,8.257 2.151,11.873 z"
   id="path51" />&#10;			<path
   style="opacity:0.2"
   d="m 288.983,287.153 -18.503,6.74 c 1.455,3.616 2.865,7.138 4.186,10.46 l 17.021,-6.713 c -0.814,-3.387 -1.73,-6.911 -2.704,-10.487 z"
   id="path52" />&#10;		</g>&#10;		<path
   style="fill:#263238"
   d="m 242.454,155.23 c -0.019,0.666 -0.388,1.197 -0.823,1.184 -0.436,-0.012 -0.773,-0.563 -0.754,-1.229 0.019,-0.666 0.387,-1.197 0.823,-1.184 0.436,0.013 0.773,0.563 0.754,1.229 z"
   id="path53" />&#10;		<path
   style="fill:#263238"
   d="m 234.923,155.016 c -0.019,0.666 -0.387,1.197 -0.823,1.184 -0.436,-0.012 -0.773,-0.563 -0.754,-1.229 0.019,-0.666 0.387,-1.197 0.823,-1.184 0.435,0.013 0.773,0.563 0.754,1.229 z"
   id="path54" />&#10;		<path
   style="fill:#263238"
   d="m 234.36,153.83 -1.587,-0.507 c -0.001,0 0.785,1.273 1.587,0.507 z"
   id="path55" />&#10;		<path
   style="fill:#ff5652"
   d="m 236.881,156.218 c 0,0 -1.212,2.837 -2.496,4.185 0.856,0.846 2.363,0.513 2.363,0.513 z"
   id="path56" />&#10;		<path
   style="fill:#263238"
   d="m 239.109,163.403 c -0.347,0.051 -0.72,0.076 -1.12,0.064 -0.108,-0.003 -0.193,-0.093 -0.19,-0.202 0.003,-0.107 0.09,-0.192 0.202,-0.19 2.922,0.085 4.348,-1.92 4.362,-1.941 0.061,-0.089 0.184,-0.111 0.272,-0.05 0.089,0.061 0.111,0.184 0.05,0.272 -0.055,0.08 -1.202,1.696 -3.576,2.047 z"
   id="path57" />&#10;		<path
   style="fill:#ff8b7b"
   d="m 256.194,157.414 c -0.404,1.652 -1.533,2.963 -2.739,3.669 -1.814,1.061 -3.253,-0.433 -3.195,-2.423 0.053,-1.792 1.06,-4.503 3.096,-4.753 2.005,-0.247 3.3,1.618 2.838,3.507 z"
   id="path58" />&#10;		<path
   style="fill:#263238"
   d="m 245.248,151.794 c -0.103,0.006 -0.209,-0.029 -0.291,-0.105 -1.274,-1.194 -2.677,-0.867 -2.693,-0.863 -0.208,0.049 -0.421,-0.077 -0.473,-0.288 -0.051,-0.21 0.077,-0.422 0.287,-0.473 0.073,-0.018 1.833,-0.429 3.415,1.053 0.158,0.148 0.166,0.395 0.018,0.553 -0.072,0.076 -0.167,0.117 -0.263,0.123 z"
   id="path59" />&#10;		<path
   style="fill:#263238"
   d="m 232.95,151.162 c -0.095,-0.02 -0.183,-0.075 -0.243,-0.161 -0.123,-0.178 -0.078,-0.422 0.1,-0.545 1.783,-1.229 3.463,-0.563 3.534,-0.533 0.2,0.082 0.296,0.311 0.214,0.511 -0.082,0.2 -0.31,0.295 -0.51,0.214 -0.065,-0.027 -1.375,-0.525 -2.793,0.453 -0.092,0.063 -0.201,0.081 -0.302,0.061 z"
   id="path60" />&#10;		<path
   style="fill:#263238"
   d="m 241.891,154.044 -1.587,-0.507 c 0,0 0.786,1.273 1.587,0.507 z"
   id="path61" />&#10;		<path
   style="fill:#263238"
   d="m 237.436,239.117 11.617,68.667 43.469,-12.896 c -3.553,-36.285 -12.574,-54.263 -20.377,-60.907 z"
   id="path62" />&#10;		<polygon
   style="opacity:0.2"
   points="263.741,263.415 262.255,253.369 255.05,277.702 "
   id="polygon62" />&#10;		<path
   style="fill:#ff8b7b"
   d="m 267.531,182.538 c 0.737,0.659 1.648,1.42 2.492,2.125 0.864,0.715 1.747,1.413 2.642,2.092 1.792,1.355 3.597,2.688 5.467,3.886 3.727,2.385 7.638,4.471 11.547,5.549 0.245,0.078 0.485,0.12 0.729,0.182 l 0.364,0.088 c 0.109,0.026 -0.008,-0.001 -0.038,0.001 h -0.141 c -0.407,0.024 -0.554,0.178 -0.443,0.132 0.236,-0.082 0.911,-0.707 1.45,-1.46 1.129,-1.547 2.197,-3.53 3.143,-5.553 0.975,-2.03 1.876,-4.151 2.711,-6.308 0.856,-2.144 1.673,-4.355 2.457,-6.511 l 0.02,-0.055 c 0.397,-1.09 1.603,-1.653 2.693,-1.256 0.949,0.346 1.497,1.304 1.362,2.265 -0.675,4.842 -1.735,9.512 -3.258,14.251 -0.817,2.358 -1.694,4.715 -3.154,7.132 -0.771,1.202 -1.581,2.484 -3.309,3.739 -0.87,0.598 -2.162,1.224 -3.759,1.226 -0.194,0.006 -0.388,-0.009 -0.582,-0.027 -0.177,-0.016 -0.443,-0.05 -0.477,-0.059 l -0.506,-0.085 c -0.335,-0.061 -0.68,-0.106 -1.006,-0.184 -2.662,-0.537 -5.144,-1.413 -7.507,-2.438 -2.361,-1.026 -4.591,-2.236 -6.733,-3.542 -2.138,-1.311 -4.212,-2.691 -6.186,-4.196 -0.987,-0.752 -1.958,-1.523 -2.914,-2.317 -0.975,-0.804 -1.86,-1.581 -2.859,-2.529 -1.693,-1.606 -1.763,-4.28 -0.157,-5.972 1.576,-1.66 4.179,-1.759 5.875,-0.246 z"
   id="path63" />&#10;		<path
   style="fill:#407bff"
   d="m 262.52,179.088 c 5.947,-0.352 8.278,2.773 10.75,6.135 -1.222,5.361 -7.722,14.528 -7.722,14.528 0,0 -13.834,-20.024 -3.028,-20.663 z"
   id="path64" />&#10;		<path
   style="fill:#ff8b7b"
   d="m 299.641,177.245 1.503,-8.801 5.423,6.421 c 0,0 -1.901,4.955 -5.309,5.385 z"
   id="path65" />&#10;		<path
   style="fill:#ff8b7b"
   d="m 306.101,166.05 3.261,2.857 c 0.597,0.523 0.702,1.412 0.244,2.06 l -3.616,5.116 -4.848,-7.639 2.953,-2.426 c 0.587,-0.481 1.436,-0.468 2.006,0.032 z"
   id="path66" />&#10;		<path
   style="fill:#263238"
   d="m 248.919,414.612 c 0.831,-0.695 2.163,-1.27 3.341,-1.686 h -0.003 c 0,0 5.923,-3.343 9.006,-13.399 l 6.845,-1.711 c 0.723,-0.181 1.443,0.309 1.531,1.049 0.065,0.542 0.104,1.16 0.174,1.662 0.128,0.932 0.016,2.346 -10e-4,3.268 -0.059,3.398 -0.438,11.037 -0.438,11.037 h -0.795 c 0,0 -0.025,-4.697 -0.421,-6.935 -0.396,-2.238 -1.976,0.412 -2.862,2.944 -0.887,2.533 -4.446,5.233 -9.622,5.359 -6.059,0.149 -8.515,-0.115 -6.755,-1.588 z"
   id="path67" />&#10;		<path
   style="fill:#263238"
   d="m 325.283,391.013 c 0.094,-1.079 0.628,-2.428 1.166,-3.556 l -0.002,0.002 c 0,0 1.815,-6.555 -3.128,-15.839 l 3.622,-6.055 c 0.383,-0.64 1.237,-0.803 1.824,-0.344 0.43,0.337 0.895,0.745 1.3,1.051 0.751,0.567 1.672,1.645 2.314,2.308 2.365,2.441 7.506,8.104 7.506,8.104 l -0.561,0.563 c 0,0 -3.343,-3.299 -5.207,-4.599 -1.864,-1.3 -1.103,1.69 0.064,4.106 1.167,2.416 0.566,6.844 -2.999,10.597 -4.177,4.395 -6.099,5.947 -5.899,3.662 z"
   id="path68" />&#10;	</g>&#10;</g><g
   id="ID"
   transform="matrix(0.41599094,0,0,0.41599094,-11.005443,-26.196044)">&#10;	<g
   id="g83">&#10;		<path
   style="opacity:0.9;fill:#ffffff"
   d="M 298.916,103.436 193.483,93.334 c -5.386,-0.516 -10.215,3.468 -10.731,8.854 l -15.117,157.765 c -0.516,5.386 3.468,10.215 8.854,10.731 l 105.432,10.102 c 5.386,0.516 10.215,-3.468 10.731,-8.854 l 15.117,-157.765 c 0.517,-5.386 -3.467,-10.215 -8.853,-10.731 z m -22.566,60.427 c -1.909,19.928 -19.616,34.545 -39.552,32.635 -13.497,-1.293 -24.547,-9.83 -29.689,-21.391 -2.453,-5.514 -3.563,-11.723 -2.946,-18.161 1.91,-19.936 19.616,-34.545 39.552,-32.635 3.248,0.311 6.349,1.037 9.258,2.131 2.871,1.066 5.559,2.493 8.013,4.21 7.881,5.499 13.398,14.016 15.03,23.717 0.522,3.063 0.645,6.254 0.334,9.494 z"
   id="path69" />&#10;		<path
   style="fill:#263238"
   d="m 245.626,64.808 11.424,2.156 c 2.844,0.537 4.918,3.349 4.599,6.257 l -2.21,20.119 c -0.029,0.268 -0.075,0.533 -0.15,0.776 -0.653,2.464 -3.027,4.014 -5.608,3.526 l -11.424,-2.156 c -2.581,-0.487 -4.525,-2.852 -4.621,-5.457 -0.02,-0.261 -0.007,-0.532 0.023,-0.8 l 2.21,-20.119 c 0.317,-2.908 2.912,-4.839 5.757,-4.302 z m 4.775,9.606 c -2.271,-0.429 -4.325,1.099 -4.579,3.414 -0.255,2.323 1.387,4.548 3.658,4.977 2.271,0.428 4.325,-1.099 4.58,-3.422 0.254,-2.315 -1.389,-4.54 -3.659,-4.969 z"
   id="path70" />&#10;		<path
   style="fill:#407bff"
   d="m 280.819,107.428 c -0.457,0 -0.896,-0.255 -1.108,-0.694 l -4.408,-9.117 c -0.605,-1.252 -1.841,-2.111 -3.226,-2.245 l -50.713,-4.859 c -1.388,-0.129 -2.761,0.478 -3.593,1.592 l -6.059,8.114 c -0.407,0.544 -1.178,0.656 -1.721,0.25 -0.544,-0.406 -0.656,-1.177 -0.25,-1.721 l 6.059,-8.114 c 1.343,-1.799 3.567,-2.784 5.797,-2.568 l 50.714,4.859 c 2.234,0.214 4.228,1.603 5.205,3.622 l 4.408,9.117 c 0.296,0.611 0.04,1.347 -0.572,1.643 -0.171,0.082 -0.354,0.121 -0.533,0.121 z"
   id="path71" />&#10;		<path
   style="fill:#407bff"
   d="m 176.954,135.542 -0.816,-0.078 0.563,-5.875 0.816,0.078 z m 1.089,-11.36 -0.816,-0.078 1.275,-13.303 0.816,0.078 z"
   id="path72" />&#10;		<path
   style="fill:#407bff"
   d="m 282.87,281.241 c -0.328,0 -0.657,-0.016 -0.987,-0.047 L 176.45,271.091 c -2.714,-0.26 -5.17,-1.569 -6.918,-3.686 -1.747,-2.117 -2.565,-4.777 -2.306,-7.491 l 15.117,-157.765 c 0.26,-2.714 1.569,-5.171 3.687,-6.918 2.118,-1.747 4.775,-2.562 7.492,-2.306 l 105.432,10.103 c 2.714,0.26 5.171,1.569 6.918,3.687 1.747,2.117 2.566,4.777 2.306,7.491 l -15.117,157.765 c -0.26,2.714 -1.569,5.171 -3.687,6.918 -1.859,1.534 -4.138,2.352 -6.504,2.352 z M 192.537,93.698 c -2.177,0 -4.273,0.753 -5.984,2.166 -1.948,1.607 -3.153,3.867 -3.392,6.363 l -15.117,157.765 c -0.239,2.496 0.514,4.943 2.122,6.892 1.608,1.948 3.868,3.152 6.363,3.392 l 105.433,10.103 c 2.499,0.245 4.943,-0.514 6.892,-2.122 1.948,-1.607 3.153,-3.867 3.392,-6.363 l 15.117,-157.765 c 0.239,-2.496 -0.514,-4.943 -2.122,-6.892 -1.608,-1.948 -3.868,-3.153 -6.364,-3.392 L 193.444,93.742 c -0.303,-0.029 -0.606,-0.044 -0.907,-0.044 z m 47.787,103.378 c -1.183,0 -2.372,-0.057 -3.564,-0.171 -13.145,-1.26 -24.649,-9.548 -30.025,-21.632 -2.551,-5.735 -3.581,-12.086 -2.979,-18.367 1.929,-20.127 19.878,-34.935 39.999,-33.004 3.235,0.311 6.385,1.035 9.363,2.155 2.855,1.06 5.582,2.492 8.104,4.258 8.039,5.609 13.579,14.352 15.2,23.984 0.534,3.137 0.647,6.368 0.337,9.602 -0.934,9.748 -5.609,18.55 -13.163,24.784 -6.632,5.473 -14.785,8.391 -23.272,8.391 z m -0.094,-72.522 c -18.24,0 -33.884,13.91 -35.658,32.431 -0.589,6.141 0.418,12.35 2.912,17.955 5.255,11.814 16.503,19.919 29.354,21.149 9.534,0.917 18.85,-1.939 26.236,-8.036 7.386,-6.095 11.956,-14.699 12.869,-24.23 v 0 c 0.303,-3.162 0.192,-6.32 -0.33,-9.387 -1.584,-9.418 -7.001,-17.965 -14.86,-23.449 -2.465,-1.726 -5.13,-3.126 -7.921,-4.161 -2.913,-1.096 -5.992,-1.805 -9.155,-2.107 -1.158,-0.112 -2.308,-0.165 -3.447,-0.165 z"
   id="path73" />&#10;		<g
   id="g76">&#10;			<path
   style="opacity:0.8;fill:#407bff"
   d="m 252.974,126.441 c -2.909,-1.094 -6.011,-1.819 -9.258,-2.131 -19.936,-1.91 -37.642,12.699 -39.552,32.635 -0.617,6.438 0.493,12.647 2.946,18.161 l -34.035,28.083 9.678,-101.001 c 0.516,-5.386 5.345,-9.37 10.731,-8.854 l 34.935,3.347 11.186,13.557 z"
   id="path74" />&#10;			<path
   style="opacity:0.5;fill:#407bff"
   d="m 307.77,114.167 -6.755,70.498 -24.998,-30.297 c -1.632,-9.701 -7.149,-18.218 -15.03,-23.717 l 33.498,-27.64 4.431,0.425 c 5.386,0.516 9.37,5.345 8.854,10.731 z"
   id="path75" />&#10;			<path
   style="fill:#407bff"
   d="m 294.484,103.012 -33.498,27.64 c -2.454,-1.718 -5.142,-3.145 -8.013,-4.21 l -13.37,-16.204 -11.186,-13.557 z"
   id="path76" />&#10;		</g>&#10;		<path
   style="opacity:0.5;fill:#407bff"
   d="m 266.213,219.053 -62.577,-5.996 c -1.048,-0.1 -1.816,-1.031 -1.715,-2.079 l 0.314,-3.278 c 0.1,-1.048 1.031,-1.816 2.079,-1.715 l 62.577,5.996 c 1.048,0.1 1.816,1.031 1.716,2.079 l -0.314,3.278 c -0.102,1.048 -1.033,1.816 -2.08,1.715 z"
   id="path77" />&#10;		<path
   style="opacity:0.5;fill:#407bff"
   d="m 260.097,231.307 -52.784,-5.058 c -1.048,-0.1 -1.816,-1.031 -1.715,-2.079 l 0.314,-3.278 c 0.1,-1.048 1.031,-1.816 2.079,-1.715 l 52.784,5.058 c 1.048,0.1 1.816,1.031 1.716,2.079 l -0.314,3.278 c -0.101,1.047 -1.032,1.815 -2.08,1.715 z"
   id="path78" />&#10;		&#10;			<rect
   x="183.62"
   y="250.17101"
   transform="matrix(0.9954,0.0954,-0.0954,0.9954,24.8576,-17.1188)"
   style="opacity:0.5;fill:#407bff"
   width="15.758"
   height="2.5799999"
   id="rect78" />&#10;		&#10;			<rect
   x="202.849"
   y="251.867"
   transform="matrix(0.9954,0.0954,-0.0954,0.9954,25.0989,-18.7989)"
   style="opacity:0.5;fill:#407bff"
   width="12.707"
   height="2.5799999"
   id="rect79" />&#10;		&#10;			<rect
   x="183.019"
   y="256.939"
   transform="matrix(0.9954,0.0954,-0.0954,0.9954,25.5476,-18.0213)"
   style="opacity:0.5;fill:#407bff"
   width="36.530998"
   height="2.5799999"
   id="rect80" />&#10;		&#10;			<rect
   x="184.112"
   y="245.686"
   transform="matrix(0.9954,0.0954,-0.0954,0.9954,24.4945,-18.4789)"
   style="opacity:0.5;fill:#407bff"
   width="42.853001"
   height="2.5799999"
   id="rect81" />&#10;		<g
   id="g82">&#10;			<path
   style="fill:#263238"
   d="m 255.965,66.528 -11.568,-2.109 c -2.88,-0.525 -5.669,1.419 -6.192,4.331 l -3.613,20.148 c -0.048,0.268 -0.08,0.54 -0.077,0.801 -0.076,2.607 1.758,4.966 4.372,5.442 l 11.568,2.109 c 2.614,0.477 5.152,-1.085 5.985,-3.554 0.094,-0.243 0.158,-0.509 0.206,-0.777 l 3.613,-20.148 c 0.524,-2.912 -1.413,-5.718 -4.294,-6.243 z m -7.315,7.486 c 2.299,0.419 3.834,2.64 3.418,4.958 -0.417,2.326 -2.626,3.864 -4.925,3.445 -2.299,-0.419 -3.834,-2.639 -3.416,-4.966 0.415,-2.318 2.624,-3.856 4.923,-3.437 z"
   id="path81" />&#10;			<path
   style="opacity:0.2;fill:#ffffff"
   d="m 255.965,66.528 -11.568,-2.109 c -2.88,-0.525 -5.669,1.419 -6.192,4.331 l -3.613,20.148 c -0.048,0.268 -0.08,0.54 -0.077,0.801 -0.076,2.607 1.758,4.966 4.372,5.442 l 11.568,2.109 c 2.614,0.477 5.152,-1.085 5.985,-3.554 0.094,-0.243 0.158,-0.509 0.206,-0.777 l 3.613,-20.148 c 0.524,-2.912 -1.413,-5.718 -4.294,-6.243 z m -7.315,7.486 c 2.299,0.419 3.834,2.64 3.418,4.958 -0.417,2.326 -2.626,3.864 -4.925,3.445 -2.299,-0.419 -3.834,-2.639 -3.416,-4.966 0.415,-2.318 2.624,-3.856 4.923,-3.437 z"
   id="path82" />&#10;		</g>&#10;		&#10;			<circle
   transform="matrix(0.7713,-0.6364,0.6364,0.7713,-102.5742,233.065)"
   style="opacity:0.2;fill:#407bff"
   cx="273.047"
   cy="259.27499"
   id="ellipse82"
   r="7.0939999" />&#10;		&#10;			<circle
   transform="matrix(0.7713,-0.6364,0.6364,0.7713,-105.7215,220.7086)"
   style="opacity:0.8;fill:#407bff"
   cx="254.278"
   cy="257.47699"
   id="ellipse83"
   r="7.0939999" />&#10;	</g>&#10;</g></svg>
