<?xml version="1.0" encoding="UTF-8" standalone="no"?>
<!-- Created with Inkscape (http://www.inkscape.org/) -->

<svg
   width="1280mm"
   height="998mm"
   viewBox="0 0 1280 998"
   version="1.1"
   id="svg1"
   inkscape:version="1.3 (0e150ed6c4, 2023-07-21)"
   sodipodi:docname="crearUser3.svg"
   xmlns:inkscape="http://www.inkscape.org/namespaces/inkscape"
   xmlns:sodipodi="http://sodipodi.sourceforge.net/DTD/sodipodi-0.dtd"
   xmlns="http://www.w3.org/2000/svg"
   xmlns:svg="http://www.w3.org/2000/svg">
  <sodipodi:namedview
     id="namedview1"
     pagecolor="#ffffff"
     bordercolor="#000000"
     borderopacity="0.25"
     inkscape:showpageshadow="2"
     inkscape:pageopacity="0.0"
     inkscape:pagecheckerboard="true"
     inkscape:deskcolor="#d1d1d1"
     inkscape:document-units="mm"
     inkscape:zoom="0.12929276"
     inkscape:cx="970.66534"
     inkscape:cy="2393.7922"
     inkscape:window-width="2560"
     inkscape:window-height="1017"
     inkscape:window-x="1912"
     inkscape:window-y="-8"
     inkscape:window-maximized="1"
     inkscape:current-layer="layer1" />
  <defs
     id="defs1" />
  <g
     inkscape:label="Capa 1"
     inkscape:groupmode="layer"
     id="layer1">
    <g
       id="Background_Complete"
       transform="matrix(2.551161,0,0,2.551161,1.4175488,-134.63192)">&#10;	<g
   id="g8">&#10;		<rect
   y="382.39801"
   style="fill:#ebebeb"
   width="500"
   height="0.25"
   id="rect1"
   x="0" />
&#10;		<rect
   x="416.77899"
   y="398.49399"
   style="fill:#ebebeb"
   width="33.122002"
   height="0.25"
   id="rect2" />
&#10;		<rect
   x="322.52701"
   y="401.20801"
   style="fill:#ebebeb"
   width="8.6929998"
   height="0.25"
   id="rect3" />
&#10;		<rect
   x="396.586"
   y="389.20801"
   style="fill:#ebebeb"
   width="19.191999"
   height="0.25"
   id="rect4" />
&#10;		<rect
   x="52.459"
   y="390.888"
   style="fill:#ebebeb"
   width="43.193001"
   height="0.25"
   id="rect5" />
&#10;		<rect
   x="104.556"
   y="390.888"
   style="fill:#ebebeb"
   width="6.3330002"
   height="0.25"
   id="rect6" />
&#10;		<rect
   x="131.47099"
   y="395.11099"
   style="fill:#ebebeb"
   width="93.676003"
   height="0.25"
   id="rect7" />
&#10;		<path
   style="fill:#ebebeb"
   d="M 237.014,337.8 H 43.915 c -3.147,0 -5.708,-2.561 -5.708,-5.708 V 60.66 c 0,-3.147 2.561,-5.708 5.708,-5.708 h 193.099 c 3.146,0 5.707,2.561 5.707,5.708 v 271.432 c 0,3.147 -2.561,5.708 -5.707,5.708 z M 43.915,55.203 c -3.01,0 -5.458,2.448 -5.458,5.458 v 271.432 c 0,3.01 2.448,5.458 5.458,5.458 h 193.099 c 3.009,0 5.457,-2.448 5.457,-5.458 V 60.66 c 0,-3.009 -2.448,-5.458 -5.457,-5.458 H 43.915 Z"
   id="path7" />
&#10;		<path
   style="fill:#ebebeb"
   d="M 453.31,337.8 H 260.212 c -3.147,0 -5.707,-2.561 -5.707,-5.708 V 60.66 c 0,-3.147 2.561,-5.708 5.707,-5.708 H 453.31 c 3.148,0 5.708,2.561 5.708,5.708 v 271.432 c 0.001,3.147 -2.56,5.708 -5.708,5.708 z M 260.212,55.203 c -3.009,0 -5.457,2.448 -5.457,5.458 v 271.432 c 0,3.01 2.448,5.458 5.457,5.458 H 453.31 c 3.01,0 5.458,-2.448 5.458,-5.458 V 60.66 c 0,-3.009 -2.448,-5.458 -5.458,-5.458 H 260.212 Z"
   id="path8" />
&#10;	</g>
&#10;	<g
   id="g44">&#10;		<g
   id="g17">&#10;			<polygon
   style="fill:#e0e0e0"
   points="378.335,321.663 339.779,321.663 352.096,317.098 352.096,297.473 370.077,296.108 370.077,315.659 "
   id="polygon8" />
&#10;			<path
   style="fill:#e0e0e0"
   d="m 260.223,321.101 v 61.587 h 189.666 v -61.587 z m 3.1,3.99 h 152.272 v 20.13 H 263.323 Z"
   id="path9" />
&#10;			<path
   style="fill:#ebebeb"
   d="m 260.223,321.101 v 61.587 h 159.516 v -61.587 z m 3.1,3.99 h 152.272 v 20.13 H 263.323 Z"
   id="path10" />
&#10;			&#10;				<rect
   x="263.32001"
   y="325.095"
   transform="rotate(180,277.2027,335.1575)"
   style="fill:#e0e0e0"
   width="27.764"
   height="20.125"
   id="rect10" />
&#10;			&#10;				<rect
   x="375.39099"
   y="335.15799"
   transform="rotate(180,395.4932,340.18875)"
   style="fill:#e0e0e0"
   width="40.203999"
   height="10.063"
   id="rect11" />
&#10;			&#10;				<rect
   x="347"
   y="339.24301"
   transform="rotate(180,359.92905,342.23145)"
   style="fill:#e0e0e0"
   width="25.858"
   height="5.9770002"
   id="rect12" />
&#10;			&#10;				<rect
   x="310.53299"
   y="332.995"
   transform="rotate(180,325.77775,339.1076)"
   style="fill:#e0e0e0"
   width="30.49"
   height="12.226"
   id="rect13" />
&#10;			<polygon
   style="fill:#e0e0e0"
   points="395.95,352.008 396.688,349.603 415.595,349.603 415.595,376.323 366.417,376.323 366.417,349.603 385.325,349.603 386.063,352.008 "
   id="polygon13" />
&#10;			<polygon
   style="fill:#e0e0e0"
   points="344.466,352.008 345.204,349.603 364.111,349.603 364.111,376.323 314.934,376.323 314.934,349.603 333.841,349.603 334.579,352.008 "
   id="polygon14" />
&#10;			<polygon
   style="fill:#e0e0e0"
   points="292.982,352.008 293.72,349.603 312.628,349.603 312.628,376.323 263.45,376.323 263.45,349.603 282.357,349.603 283.095,352.008 "
   id="polygon15" />
&#10;			<g
   id="g16">&#10;				<path
   style="fill:#e0e0e0"
   d="m 288.746,307.79 h 130.695 c 1.95,0 3.53,-1.581 3.53,-3.53 v -76.177 c 0,-1.95 -1.581,-3.53 -3.53,-3.53 H 288.746 c -1.95,0 -3.53,1.581 -3.53,3.53 v 76.177 c 0,1.95 1.58,3.53 3.53,3.53 z"
   id="path15" />
&#10;				<path
   style="fill:#e6e6e6"
   d="m 285.509,307.79 h 130.695 c 1.95,0 3.53,-1.581 3.53,-3.53 v -76.177 c 0,-1.95 -1.581,-3.53 -3.53,-3.53 H 285.509 c -1.95,0 -3.53,1.581 -3.53,3.53 v 76.177 c -10e-4,1.95 1.58,3.53 3.53,3.53 z"
   id="path16" />
&#10;				&#10;					<rect
   x="313.284"
   y="201.341"
   transform="rotate(90,350.8559,266.1716)"
   style="fill:#f0f0f0"
   width="75.143997"
   height="129.661"
   id="rect16" />
&#10;			</g>
&#10;		</g>
&#10;		<g
   id="g21">&#10;			<rect
   x="323.965"
   y="83.532997"
   style="fill:#e9e9e9"
   width="112.616"
   height="124.616"
   id="rect17" />
&#10;			<rect
   x="328.92001"
   y="88.469002"
   style="fill:#f4f4f4"
   width="103"
   height="115"
   id="rect18" />
&#10;			<polygon
   style="fill:#ffffff"
   points="328.92,138.469 342.24,88.469 358.03,88.469 328.92,197.489 "
   id="polygon18" />
&#10;			<polygon
   style="fill:#ffffff"
   points="334.55,203.469 365.25,88.469 371.04,88.469 340.34,203.469 "
   id="polygon19" />
&#10;			<polygon
   style="fill:#ffffff"
   points="425.4,203.469 409.61,203.469 431.92,119.829 431.92,178.859 "
   id="polygon20" />
&#10;			<rect
   x="378.27301"
   y="83.532997"
   style="fill:#e9e9e9"
   width="4"
   height="124.616"
   id="rect20" />
&#10;			<rect
   x="325.92001"
   y="108.819"
   style="fill:#e9e9e9"
   width="108.5"
   height="4"
   id="rect21" />
&#10;		</g>
&#10;		<g
   id="g32">&#10;			<g
   id="g23">&#10;				&#10;					<rect
   x="77.805"
   y="184.30701"
   transform="rotate(-90,93.308,206.2434)"
   style="fill:#e0e0e0"
   width="31.004999"
   height="43.873001"
   id="rect22" />
&#10;				&#10;					<rect
   x="79.827003"
   y="186.37"
   transform="rotate(-90,93.308,206.2434)"
   style="fill:#ebebeb"
   width="26.962"
   height="39.747002"
   id="rect23" />
&#10;			</g>
&#10;			<g
   id="g25">&#10;				&#10;					<rect
   x="93.019997"
   y="145.35699"
   transform="rotate(-90,108.52215,167.29315)"
   style="fill:#e0e0e0"
   width="31.004999"
   height="43.873001"
   id="rect24" />
&#10;				&#10;					<rect
   x="95.041"
   y="147.42"
   transform="rotate(-90,108.52215,167.29315)"
   style="fill:#ebebeb"
   width="26.962"
   height="39.747002"
   id="rect25" />
&#10;			</g>
&#10;			<g
   id="g27">&#10;				<rect
   x="123.567"
   y="190.741"
   style="fill:#e0e0e0"
   width="27.917"
   height="39.502998"
   id="rect26" />
&#10;				<rect
   x="125.387"
   y="192.599"
   style="fill:#ebebeb"
   width="24.275999"
   height="35.787998"
   id="rect27" />
&#10;			</g>
&#10;			<g
   id="g29">&#10;				<rect
   x="136.36099"
   y="138.922"
   style="fill:#e0e0e0"
   width="31.004999"
   height="43.873001"
   id="rect28" />
&#10;				<rect
   x="138.382"
   y="140.98599"
   style="fill:#ebebeb"
   width="26.962"
   height="39.747002"
   id="rect29" />
&#10;			</g>
&#10;			<g
   id="g31">&#10;				&#10;					<rect
   x="166"
   y="185.703"
   transform="rotate(90,178.13785,202.87915)"
   style="fill:#e0e0e0"
   width="24.277"
   height="34.352001"
   id="rect30" />
&#10;				&#10;					<rect
   x="167.582"
   y="187.319"
   transform="rotate(90,178.13775,202.87915)"
   style="fill:#ebebeb"
   width="21.111"
   height="31.121"
   id="rect31" />
&#10;			</g>
&#10;		</g>
&#10;		<g
   id="g38">&#10;			<path
   style="fill:#ebebeb"
   d="m 63.953,260.514 h 108.463 c 4.879,0 8.833,3.955 8.833,8.833 l 12.007,76.462 H 67.127 L 55.12,269.347 c 0,-4.878 3.955,-8.833 8.833,-8.833 z"
   id="path32" />
&#10;			<path
   style="fill:#e0e0e0"
   d="m 192.933,290.084 -0.135,-0.396 h 42 v 93 h -52 v -81.85 c -0.001,-5.796 4.398,-10.51 10.135,-10.754 z"
   id="path33" />
&#10;			<path
   style="fill:#f0f0f0"
   d="m 235.241,290.061 v 0 c 5.952,0 10.778,4.825 10.778,10.778 v 81.85 h -21.555 v -81.85 c 0,-5.953 4.825,-10.778 10.777,-10.778 z"
   id="path34" />
&#10;			<path
   style="fill:#e0e0e0"
   d="m 71.933,290.084 -0.136,-0.396 h 42 v 93 h -52 v -81.85 c 0,-5.796 4.399,-10.51 10.136,-10.754 z"
   id="path35" />
&#10;			&#10;				<rect
   x="125.019"
   y="317.18799"
   transform="rotate(180,171.22255,349.9378)"
   style="fill:#e0e0e0"
   width="92.406998"
   height="65.5"
   id="rect35" />
&#10;			<path
   style="fill:#f5f5f5"
   d="M 107.457,333.188 H 211.41 c 6.272,0 11.356,-5.084 11.356,-11.356 v 0 c 0,-6.272 -5.084,-11.356 -11.356,-11.356 H 107.457 Z"
   id="path36" />
&#10;			<path
   style="fill:#f0f0f0"
   d="m 114.241,290.061 v 0 c 5.952,0 10.778,4.825 10.778,10.778 v 81.85 h -21.555 v -81.85 c 0,-5.953 4.825,-10.778 10.777,-10.778 z"
   id="path37" />
&#10;			<path
   style="fill:#e0e0e0"
   d="M 84.794,346.941 H 67.127 L 55.12,269.347 c 0,-4.879 3.955,-8.833 8.833,-8.833 v 0 c 4.878,0 8.833,3.955 8.833,8.833 z"
   id="path38" />
&#10;		</g>
&#10;		<g
   id="g43">&#10;			<path
   style="fill:#f5f5f5"
   d="m 59.328,75.477 v 29.556 c 0,1.661 1.346,2.766 3.007,2.766 h 99.816 c 0,0 11.538,-5.382 10.719,-12.899 -0.654,-5.998 -1.331,-10.892 -1.887,-14.613 -0.684,-4.533 -4.563,-7.817 -9.141,-7.817 H 62.335 c -1.661,0 -3.007,1.346 -3.007,3.007 z"
   id="path39" />
&#10;			<path
   style="fill:#e6e6e6;enable-background:new"
   d="m 59.328,75.477 v 29.556 c 0,1.661 1.346,2.766 3.007,2.766 h 8.802 c 0,0 11.546,-5.382 10.719,-12.899 C 81.202,88.902 80.525,84.008 79.969,80.287 79.293,75.754 75.406,72.47 70.828,72.47 h -8.494 c -1.66,0 -3.006,1.346 -3.006,3.007 z"
   id="path40" />
&#10;			<path
   style="fill:#e0e0e0"
   d="M 170.577,97.276 H 83.382 c 0,0 -2.881,6.389 -7.767,9.02 h 85.19 c 0,0 9.02,-4.134 9.772,-9.02 z"
   id="path41" />
&#10;			<polygon
   style="fill:#ebebeb"
   points="81.628,106.296 164.563,106.296 164.563,103.289 80.375,103.289 "
   id="polygon41" />
&#10;			<polygon
   style="fill:#ebebeb"
   points="84.635,102.537 167.57,102.537 167.57,99.531 83.382,99.531 "
   id="polygon42" />
&#10;			&#10;				<rect
   x="86.389"
   y="95.021004"
   transform="rotate(180,87.4535,95.4591)"
   style="fill:#e0e0e0"
   width="2.1300001"
   height="0.87699997"
   id="rect42" />
&#10;			&#10;				<rect
   x="89.397003"
   y="95.021004"
   transform="rotate(180,90.4621,95.4591)"
   style="fill:#e0e0e0"
   width="2.1300001"
   height="0.87699997"
   id="rect43" />
&#10;		</g>
&#10;	</g>
&#10;</g>
    <g
       id="Shadow_1_"
       transform="matrix(2.551161,0,0,2.551161,1.4175488,-134.63192)">&#10;	<ellipse
   id="_x3C_Path_x3E__359_"
   style="fill:#f5f5f5"
   cx="250"
   cy="416.23801"
   rx="193.88901"
   ry="11.323" />
&#10;</g>
    <g
       id="Plant"
       transform="matrix(2.551161,0,0,2.551161,1.4175488,-134.63192)">&#10;	<g
   id="g61">&#10;		<g
   id="g47">&#10;			<path
   style="fill:#407bff"
   d="m 90.699,344.104 c 0.21,1.47 -3.776,2.438 -7.028,2.98 0.265,2.669 2.041,5.366 4.494,7.886 3.085,-1.738 7.49,-4.036 8.302,-3.475 0.886,0.613 -3.624,3.529 -6.445,5.244 1.984,1.761 4.218,3.402 6.389,4.84 1.383,-1.292 3.002,-2.426 3.967,-1.813 1.001,0.637 0.73,2.636 0.236,4.42 3.356,1.957 5.87,3.147 5.87,3.147 0,0 1.409,-4.271 2.242,-9.53 -0.169,-0.334 -0.338,-0.672 -0.492,-1.029 -0.541,-1.251 -0.014,-1.784 0.879,-1.959 0.231,-2.302 0.298,-4.669 0.055,-6.866 -3.799,-0.797 -8.418,-2.271 -6.688,-4.55 1.044,-1.374 2.954,-1.529 4.942,-1.185 -0.278,-0.458 -0.586,-0.89 -0.938,-1.278 -6.914,-7.618 -11.737,0 -11.737,0 -4.018,-3.348 -9.662,-2.442 -10.882,2.79 2.256,-0.578 6.574,-1.438 6.834,0.378 z"
   id="path46" />
&#10;			<path
   style="opacity:0.3;fill:#ffffff;enable-background:new"
   d="m 90.699,344.104 c 0.21,1.47 -3.776,2.438 -7.028,2.98 0.265,2.669 2.041,5.366 4.494,7.886 3.085,-1.738 7.49,-4.036 8.302,-3.475 0.886,0.613 -3.624,3.529 -6.445,5.244 1.984,1.761 4.218,3.402 6.389,4.84 1.383,-1.292 3.002,-2.426 3.967,-1.813 1.001,0.637 0.73,2.636 0.236,4.42 3.356,1.957 5.87,3.147 5.87,3.147 0,0 1.409,-4.271 2.242,-9.53 -0.169,-0.334 -0.338,-0.672 -0.492,-1.029 -0.541,-1.251 -0.014,-1.784 0.879,-1.959 0.231,-2.302 0.298,-4.669 0.055,-6.866 -3.799,-0.797 -8.418,-2.271 -6.688,-4.55 1.044,-1.374 2.954,-1.529 4.942,-1.185 -0.278,-0.458 -0.586,-0.89 -0.938,-1.278 -6.914,-7.618 -11.737,0 -11.737,0 -4.018,-3.348 -9.662,-2.442 -10.882,2.79 2.256,-0.578 6.574,-1.438 6.834,0.378 z"
   id="path47" />
&#10;		</g>
&#10;		<g
   id="g52">&#10;			<g
   id="g48">&#10;				<path
   style="fill:#407bff"
   d="m 99.325,400.09 -0.997,-0.082 c 0.042,-0.515 4.094,-51.525 -7.354,-56.334 -1.229,-0.517 -2.365,-0.488 -3.47,0.087 -4.136,2.151 -6.119,11.082 -6.138,11.173 l -0.978,-0.213 c 0.084,-0.386 2.102,-9.478 6.653,-11.847 1.367,-0.711 2.82,-0.752 4.32,-0.122 12.111,5.087 8.139,55.207 7.964,57.338 z"
   id="path48" />
&#10;			</g>
&#10;			<g
   id="g49">&#10;				<path
   style="fill:#407bff"
   d="m 100.768,398.985 c -0.203,-2.295 -4.876,-56.268 3.862,-61.997 2.095,-1.373 3.962,-1.667 5.549,-0.863 4.129,2.082 4.671,10.91 4.692,11.284 l -0.998,0.057 c -0.005,-0.086 -0.529,-8.626 -4.145,-10.449 -1.244,-0.625 -2.775,-0.356 -4.55,0.808 -8.242,5.405 -3.463,60.517 -3.414,61.073 z"
   id="path49" />
&#10;			</g>
&#10;			<g
   id="g50">&#10;				<path
   style="fill:#407bff"
   d="m 102.082,403.348 c -0.066,-1.757 -1.504,-43.071 6.452,-46.688 1.573,-0.715 3.166,-0.728 4.732,-0.038 5.46,2.402 8.832,12.577 8.973,13.009 l -0.951,0.311 c -0.033,-0.102 -3.374,-10.183 -8.425,-12.404 -1.313,-0.576 -2.595,-0.567 -3.915,0.033 -6.101,2.773 -6.304,33.958 -5.867,45.74 z"
   id="path50" />
&#10;			</g>
&#10;			<g
   id="g51">&#10;				<path
   style="fill:#407bff"
   d="m 100.057,401.458 -0.993,-0.113 c 1.402,-12.296 4.083,-45.061 -0.297,-48.97 -0.653,-0.584 -1.238,-0.764 -1.791,-0.554 -2.935,1.126 -4.722,11.783 -5.163,15.795 l -0.994,-0.109 c 0.169,-1.538 1.768,-15.073 5.798,-16.619 0.922,-0.353 1.869,-0.105 2.816,0.741 5.659,5.051 0.832,48.003 0.624,49.829 z"
   id="path51" />
&#10;			</g>
&#10;		</g>
&#10;		<g
   id="g53">&#10;			<polygon
   style="fill:#263238"
   points="116.297,418.392 86.37,418.392 83.37,378.148 119.297,378.148 "
   id="polygon52" />
&#10;			<polygon
   style="opacity:0.2;fill:#ffffff;enable-background:new"
   points="116.297,418.392 119.297,378.148 94.282,378.148 95.282,418.392 "
   id="polygon53" />
&#10;		</g>
&#10;		<g
   id="g54">&#10;			<path
   style="fill:#407bff"
   d="m 88.263,363.38 c -0.374,0.979 -3.165,0.209 -5.356,-0.572 -0.752,1.737 -0.581,4.009 0.068,6.404 2.499,-0.014 6.003,0.079 6.311,0.703 0.336,0.682 -3.445,0.934 -5.772,1.025 0.62,1.766 1.435,3.544 2.281,5.175 1.296,-0.323 2.683,-0.467 3.068,0.242 0.399,0.736 -0.454,1.876 -1.37,2.807 1.399,2.357 2.541,3.953 2.541,3.953 0,0 2.333,-2.151 4.65,-5.108 0.01,-0.264 0.022,-0.53 0.049,-0.803 0.095,-0.957 0.603,-1.105 1.214,-0.907 0.932,-1.34 1.784,-2.777 2.388,-4.215 -2.07,-1.794 -4.413,-4.287 -2.565,-5.099 1.115,-0.49 2.346,0.069 3.454,0.963 -0.014,-0.378 -0.056,-0.75 -0.14,-1.11 -1.652,-7.069 -7.239,-4.024 -7.239,-4.024 -1.33,-3.443 -5.122,-4.819 -7.668,-2.01 1.591,0.417 4.549,1.367 4.086,2.576 z"
   id="path53" />
&#10;			<path
   style="opacity:0.3;fill:#ffffff;enable-background:new"
   d="m 88.263,363.38 c -0.374,0.979 -3.165,0.209 -5.356,-0.572 -0.752,1.737 -0.581,4.009 0.068,6.404 2.499,-0.014 6.003,0.079 6.311,0.703 0.336,0.682 -3.445,0.934 -5.772,1.025 0.62,1.766 1.435,3.544 2.281,5.175 1.296,-0.323 2.683,-0.467 3.068,0.242 0.399,0.736 -0.454,1.876 -1.37,2.807 1.399,2.357 2.541,3.953 2.541,3.953 0,0 2.333,-2.151 4.65,-5.108 0.01,-0.264 0.022,-0.53 0.049,-0.803 0.095,-0.957 0.603,-1.105 1.214,-0.907 0.932,-1.34 1.784,-2.777 2.388,-4.215 -2.07,-1.794 -4.413,-4.287 -2.565,-5.099 1.115,-0.49 2.346,0.069 3.454,0.963 -0.014,-0.378 -0.056,-0.75 -0.14,-1.11 -1.652,-7.069 -7.239,-4.024 -7.239,-4.024 -1.33,-3.443 -5.122,-4.819 -7.668,-2.01 1.591,0.417 4.549,1.367 4.086,2.576 z"
   id="path54" />
&#10;		</g>
&#10;		<g
   id="g56">&#10;			<path
   style="fill:#407bff"
   d="m 114.939,368.158 c -1.133,0.084 -2.22,0.344 -3.283,0.691 -0.277,-0.759 -0.458,-1.55 -0.484,-2.377 -0.228,-7.246 4.959,-4.191 7.7,-6.32 1.367,-1.062 3.041,-1.744 4.585,-1.438 -0.231,0.399 -0.443,0.812 -0.62,1.24 -0.287,0.694 0.166,1.417 0.877,1.55 0.669,0.125 1.42,0.067 2.035,-0.241 0.192,-0.096 0.353,-0.236 0.523,-0.362 0.383,0.646 0.722,1.439 0.995,2.423 0.279,1.007 0.423,2.051 0.469,3.099 -0.408,0.091 -0.813,0.2 -1.212,0.342 -0.623,0.221 -0.956,1.218 -0.454,1.722 0.441,0.443 0.946,0.795 1.495,1.049 -0.179,1.193 -0.512,2.325 -0.912,3.396 -0.123,0.019 -0.247,0.033 -0.369,0.057 -0.264,0.051 -0.524,0.12 -0.782,0.193 -0.148,0.042 -0.295,0.092 -0.434,0.159 -0.359,0.17 -0.621,0.477 -0.677,0.879 -0.056,0.395 0.109,0.804 0.427,1.046 0.169,0.129 0.355,0.23 0.539,0.332 -0.826,1.307 -1.803,2.343 -2.87,2.896 0,0 -1.322,-0.577 -3.052,-1.613 0.216,-0.29 0.433,-0.58 0.634,-0.88 0.238,-0.353 0.343,-0.716 0.307,-1.138 -0.034,-0.409 -0.282,-0.766 -0.587,-1.022 -0.294,-0.248 -0.764,-0.356 -1.138,-0.308 -0.366,0.047 -0.811,0.272 -1.022,0.587 -0.24,0.357 -0.505,0.696 -0.767,1.038 -1.324,-0.998 -2.641,-2.203 -3.68,-3.574 0.04,-0.012 0.083,-0.024 0.11,-0.032 0.669,-0.175 1.353,-0.288 2.042,-0.339 0.861,-0.064 1.397,-0.93 1.33,-1.725 -0.072,-0.861 -0.923,-1.39 -1.725,-1.33 z"
   id="path55" />
&#10;			<path
   style="opacity:0.5;fill:#ffffff;enable-background:new"
   d="m 114.939,368.158 c -1.133,0.084 -2.22,0.344 -3.283,0.691 -0.277,-0.759 -0.458,-1.55 -0.484,-2.377 -0.228,-7.246 4.959,-4.191 7.7,-6.32 1.367,-1.062 3.041,-1.744 4.585,-1.438 -0.231,0.399 -0.443,0.812 -0.62,1.24 -0.287,0.694 0.166,1.417 0.877,1.55 0.669,0.125 1.42,0.067 2.035,-0.241 0.192,-0.096 0.353,-0.236 0.523,-0.362 0.383,0.646 0.722,1.439 0.995,2.423 0.279,1.007 0.423,2.051 0.469,3.099 -0.408,0.091 -0.813,0.2 -1.212,0.342 -0.623,0.221 -0.956,1.218 -0.454,1.722 0.441,0.443 0.946,0.795 1.495,1.049 -0.179,1.193 -0.512,2.325 -0.912,3.396 -0.123,0.019 -0.247,0.033 -0.369,0.057 -0.264,0.051 -0.524,0.12 -0.782,0.193 -0.148,0.042 -0.295,0.092 -0.434,0.159 -0.359,0.17 -0.621,0.477 -0.677,0.879 -0.056,0.395 0.109,0.804 0.427,1.046 0.169,0.129 0.355,0.23 0.539,0.332 -0.826,1.307 -1.803,2.343 -2.87,2.896 0,0 -1.322,-0.577 -3.052,-1.613 0.216,-0.29 0.433,-0.58 0.634,-0.88 0.238,-0.353 0.343,-0.716 0.307,-1.138 -0.034,-0.409 -0.282,-0.766 -0.587,-1.022 -0.294,-0.248 -0.764,-0.356 -1.138,-0.308 -0.366,0.047 -0.811,0.272 -1.022,0.587 -0.24,0.357 -0.505,0.696 -0.767,1.038 -1.324,-0.998 -2.641,-2.203 -3.68,-3.574 0.04,-0.012 0.083,-0.024 0.11,-0.032 0.669,-0.175 1.353,-0.288 2.042,-0.339 0.861,-0.064 1.397,-0.93 1.33,-1.725 -0.072,-0.861 -0.923,-1.39 -1.725,-1.33 z"
   id="path56" />
&#10;		</g>
&#10;		<g
   id="g58">&#10;			<path
   style="fill:#407bff"
   d="m 117.012,343.176 c 0.632,-0.453 1.317,-0.794 2.028,-1.078 -0.188,-0.52 -0.44,-1.015 -0.789,-1.461 -3.06,-3.906 -4.444,-0.025 -6.818,0.059 -1.184,0.042 -2.363,0.419 -3.04,1.257 0.297,0.108 0.589,0.232 0.87,0.379 0.455,0.238 0.535,0.817 0.219,1.199 -0.296,0.359 -0.716,0.659 -1.175,0.766 -0.143,0.034 -0.289,0.031 -0.434,0.039 0.083,0.508 0.252,1.073 0.541,1.71 0.295,0.652 0.678,1.263 1.114,1.833 0.254,-0.131 0.515,-0.251 0.787,-0.352 0.425,-0.157 1.037,0.22 0.994,0.706 -0.037,0.426 -0.148,0.833 -0.325,1.207 0.618,0.548 1.289,0.997 1.97,1.384 0.073,-0.044 0.144,-0.091 0.219,-0.132 0.161,-0.089 0.328,-0.167 0.496,-0.242 0.096,-0.043 0.195,-0.081 0.298,-0.107 0.263,-0.068 0.535,-0.022 0.742,0.164 0.203,0.183 0.296,0.47 0.235,0.737 -0.032,0.142 -0.085,0.277 -0.138,0.411 1.008,0.324 1.976,0.44 2.779,0.262 0,0 0.441,-0.883 0.896,-2.187 -0.241,-0.058 -0.482,-0.115 -0.719,-0.184 -0.28,-0.081 -0.494,-0.225 -0.661,-0.463 -0.162,-0.23 -0.188,-0.526 -0.14,-0.795 0.046,-0.259 0.245,-0.522 0.463,-0.661 0.213,-0.136 0.546,-0.213 0.795,-0.14 0.283,0.082 0.571,0.144 0.858,0.208 0.257,-1.105 0.421,-2.316 0.365,-3.492 -0.026,0.012 -0.054,0.024 -0.072,0.031 -0.428,0.202 -0.837,0.442 -1.222,0.718 -0.48,0.344 -1.142,0.124 -1.456,-0.323 -0.342,-0.481 -0.127,-1.132 0.32,-1.453 z"
   id="path57" />
&#10;			<path
   style="opacity:0.3;fill:#ffffff;enable-background:new"
   d="m 117.012,343.176 c 0.632,-0.453 1.317,-0.794 2.028,-1.078 -0.188,-0.52 -0.44,-1.015 -0.789,-1.461 -3.06,-3.906 -4.444,-0.025 -6.818,0.059 -1.184,0.042 -2.363,0.419 -3.04,1.257 0.297,0.108 0.589,0.232 0.87,0.379 0.455,0.238 0.535,0.817 0.219,1.199 -0.296,0.359 -0.716,0.659 -1.175,0.766 -0.143,0.034 -0.289,0.031 -0.434,0.039 0.083,0.508 0.252,1.073 0.541,1.71 0.295,0.652 0.678,1.263 1.114,1.833 0.254,-0.131 0.515,-0.251 0.787,-0.352 0.425,-0.157 1.037,0.22 0.994,0.706 -0.037,0.426 -0.148,0.833 -0.325,1.207 0.618,0.548 1.289,0.997 1.97,1.384 0.073,-0.044 0.144,-0.091 0.219,-0.132 0.161,-0.089 0.328,-0.167 0.496,-0.242 0.096,-0.043 0.195,-0.081 0.298,-0.107 0.263,-0.068 0.535,-0.022 0.742,0.164 0.203,0.183 0.296,0.47 0.235,0.737 -0.032,0.142 -0.085,0.277 -0.138,0.411 1.008,0.324 1.976,0.44 2.779,0.262 0,0 0.441,-0.883 0.896,-2.187 -0.241,-0.058 -0.482,-0.115 -0.719,-0.184 -0.28,-0.081 -0.494,-0.225 -0.661,-0.463 -0.162,-0.23 -0.188,-0.526 -0.14,-0.795 0.046,-0.259 0.245,-0.522 0.463,-0.661 0.213,-0.136 0.546,-0.213 0.795,-0.14 0.283,0.082 0.571,0.144 0.858,0.208 0.257,-1.105 0.421,-2.316 0.365,-3.492 -0.026,0.012 -0.054,0.024 -0.072,0.031 -0.428,0.202 -0.837,0.442 -1.222,0.718 -0.48,0.344 -1.142,0.124 -1.456,-0.323 -0.342,-0.481 -0.127,-1.132 0.32,-1.453 z"
   id="path58" />
&#10;		</g>
&#10;		<g
   id="g60">&#10;			<path
   style="fill:#407bff"
   d="m 87.74,350.428 c -0.21,1.47 3.777,2.438 7.028,2.98 -0.265,2.669 -2.041,5.366 -4.494,7.886 -3.085,-1.738 -7.49,-4.036 -8.302,-3.475 -0.886,0.613 3.624,3.529 6.445,5.244 -1.984,1.761 -4.218,3.402 -6.389,4.84 -1.383,-1.292 -3.002,-2.426 -3.967,-1.813 -1.001,0.637 -0.73,2.636 -0.236,4.42 -3.357,1.957 -5.87,3.147 -5.87,3.147 0,0 -1.409,-4.271 -2.242,-9.53 0.17,-0.334 0.338,-0.672 0.492,-1.029 0.541,-1.251 0.014,-1.784 -0.879,-1.959 -0.231,-2.302 -0.297,-4.669 -0.055,-6.866 3.799,-0.797 8.418,-2.272 6.688,-4.55 -1.044,-1.374 -2.954,-1.53 -4.942,-1.186 0.278,-0.458 0.585,-0.89 0.938,-1.278 6.914,-7.618 11.737,0 11.737,0 4.018,-3.349 9.662,-2.442 10.882,2.79 -2.256,-0.576 -6.574,-1.436 -6.834,0.379 z"
   id="path59" />
&#10;			<path
   style="opacity:0.5;fill:#ffffff;enable-background:new"
   d="m 87.74,350.428 c -0.21,1.47 3.777,2.438 7.028,2.98 -0.265,2.669 -2.041,5.366 -4.494,7.886 -3.085,-1.738 -7.49,-4.036 -8.302,-3.475 -0.886,0.613 3.624,3.529 6.445,5.244 -1.984,1.761 -4.218,3.402 -6.389,4.84 -1.383,-1.292 -3.002,-2.426 -3.967,-1.813 -1.001,0.637 -0.73,2.636 -0.236,4.42 -3.357,1.957 -5.87,3.147 -5.87,3.147 0,0 -1.409,-4.271 -2.242,-9.53 0.17,-0.334 0.338,-0.672 0.492,-1.029 0.541,-1.251 0.014,-1.784 -0.879,-1.959 -0.231,-2.302 -0.297,-4.669 -0.055,-6.866 3.799,-0.797 8.418,-2.272 6.688,-4.55 -1.044,-1.374 -2.954,-1.53 -4.942,-1.186 0.278,-0.458 0.585,-0.89 0.938,-1.278 6.914,-7.618 11.737,0 11.737,0 4.018,-3.349 9.662,-2.442 10.882,2.79 -2.256,-0.576 -6.574,-1.436 -6.834,0.379 z"
   id="path60" />
&#10;		</g>
&#10;	</g>
&#10;</g>
    <g
       id="Lamp"
       transform="matrix(2.551161,0,0,2.551161,1.4175488,-134.63192)">&#10;	<g
   id="g65">&#10;		<polygon
   style="fill:#407bff"
   points="409.74,258.213 409.74,253.001 404.598,253.001 404.598,258.195 403.894,258.112 379.833,418.392 385.447,418.392 404.598,291.14 404.598,418.392 409.74,418.392 409.74,290.345 428.911,418.392 434.42,418.392 410.424,258.112 "
   id="polygon61" />
&#10;		<polygon
   style="opacity:0.3;fill:#ffffff;enable-background:new"
   points="409.74,258.213 409.74,253.001 404.598,253.001 404.598,258.195 403.894,258.112 379.833,418.392 385.447,418.392 404.598,291.14 404.598,418.392 409.74,418.392 409.74,290.345 428.911,418.392 434.42,418.392 410.424,258.112 "
   id="polygon62" />
&#10;		<g
   id="g63">&#10;			<polygon
   style="fill:#407bff"
   points="384.83,231.622 429.23,231.622 433.518,275.888 380.543,275.888 "
   id="polygon63" />
&#10;		</g>
&#10;		<g
   style="opacity:0.5;enable-background:new"
   id="g64">&#10;			<polygon
   style="fill:#ffffff"
   points="384.83,231.622 429.23,231.622 433.518,275.888 380.543,275.888 "
   id="polygon64" />
&#10;		</g>
&#10;	</g>
&#10;</g>
    <g
       id="Fingerprint"
       transform="matrix(2.551161,0,0,2.551161,1.4175488,-134.63192)">&#10;	<g
   id="g122">&#10;		<path
   style="fill:#407bff"
   d="m 299.955,218.412 h -17.377 c -0.771,0 -1.399,-0.628 -1.399,-1.399 v -41.257 c 0.394,-0.189 0.671,-0.584 0.671,-1.05 0,-0.647 -0.524,-1.171 -1.171,-1.171 -0.647,0 -1.172,0.524 -1.172,1.171 0,0.466 0.277,0.861 0.672,1.05 v 41.257 c 0,1.323 1.076,2.399 2.399,2.399 h 17.377 c 0.772,0 1.399,0.628 1.399,1.399 v 23.607 h 1 v -23.607 c 0,-1.323 -1.076,-2.399 -2.399,-2.399 z"
   id="path65" />
&#10;		<path
   style="opacity:0.4;fill:#ffffff"
   d="m 299.955,218.412 h -17.377 c -0.771,0 -1.399,-0.628 -1.399,-1.399 v -41.257 c 0.394,-0.189 0.671,-0.584 0.671,-1.05 0,-0.647 -0.524,-1.171 -1.171,-1.171 -0.647,0 -1.172,0.524 -1.172,1.171 0,0.466 0.277,0.861 0.672,1.05 v 41.257 c 0,1.323 1.076,2.399 2.399,2.399 h 17.377 c 0.772,0 1.399,0.628 1.399,1.399 v 23.607 h 1 v -23.607 c 0,-1.323 -1.076,-2.399 -2.399,-2.399 z"
   id="path66" />
&#10;		<g
   id="g114">&#10;			<path
   style="fill:#407bff"
   d="m 320.843,288.893 h -37.978 c -1.484,0 -2.687,-1.203 -2.687,-2.687 v -40.1 c 0,-1.484 1.203,-2.687 2.687,-2.687 h 37.978 c 1.484,0 2.687,1.203 2.687,2.687 v 40.1 c 0,1.484 -1.203,2.687 -2.687,2.687 z"
   id="path67" />
&#10;			<path
   style="opacity:0.4;fill:#ffffff;enable-background:new"
   d="m 320.843,288.893 h -37.978 c -1.484,0 -2.687,-1.203 -2.687,-2.687 v -40.1 c 0,-1.484 1.203,-2.687 2.687,-2.687 h 37.978 c 1.484,0 2.687,1.203 2.687,2.687 v 40.1 c 0,1.484 -1.203,2.687 -2.687,2.687 z"
   id="path68" />
&#10;			<g
   id="g113">&#10;				<rect
   x="298.93799"
   y="269.57199"
   style="opacity:0.2;fill:#ffffff"
   width="5.8319998"
   height="5.8319998"
   id="rect68" />
&#10;				<rect
   x="305.26999"
   y="250.576"
   style="opacity:0.2;fill:#ffffff"
   width="5.8319998"
   height="5.8319998"
   id="rect69" />
&#10;				<rect
   x="292.60599"
   y="275.90399"
   style="opacity:0.2;fill:#ffffff"
   width="5.8319998"
   height="5.8319998"
   id="rect70" />
&#10;				<rect
   x="305.26999"
   y="256.90799"
   style="opacity:0.2;fill:#ffffff"
   width="5.8319998"
   height="5.8319998"
   id="rect71" />
&#10;				<rect
   x="305.26999"
   y="263.23999"
   style="opacity:0.2;fill:#ffffff"
   width="5.8319998"
   height="5.8319998"
   id="rect72" />
&#10;				<rect
   x="298.93799"
   y="256.90799"
   style="opacity:0.2;fill:#ffffff"
   width="5.8319998"
   height="5.8319998"
   id="rect73" />
&#10;				<rect
   x="298.93799"
   y="243.91901"
   style="opacity:0.2;fill:#ffffff"
   width="5.8319998"
   height="6.1570001"
   id="rect74" />
&#10;				<rect
   x="292.60599"
   y="269.57199"
   style="opacity:0.2;fill:#ffffff"
   width="5.8319998"
   height="5.8319998"
   id="rect75" />
&#10;				<rect
   x="298.93799"
   y="250.576"
   style="opacity:0.2;fill:#ffffff"
   width="5.8319998"
   height="5.8319998"
   id="rect76" />
&#10;				<rect
   x="298.93799"
   y="275.90399"
   style="opacity:0.2;fill:#ffffff"
   width="5.8319998"
   height="5.8319998"
   id="rect77" />
&#10;				<rect
   x="305.26999"
   y="275.90399"
   style="opacity:0.2;fill:#ffffff"
   width="5.8319998"
   height="5.8319998"
   id="rect78" />
&#10;				<rect
   x="298.93799"
   y="263.23999"
   style="opacity:0.2;fill:#ffffff"
   width="5.8319998"
   height="5.8319998"
   id="rect79" />
&#10;				<rect
   x="305.26999"
   y="243.91901"
   style="opacity:0.2;fill:#ffffff"
   width="5.8319998"
   height="6.1570001"
   id="rect80" />
&#10;				<rect
   x="280.67801"
   y="269.57199"
   style="opacity:0.2;fill:#ffffff"
   width="5.0960002"
   height="5.8319998"
   id="rect81" />
&#10;				<rect
   x="280.67801"
   y="250.576"
   style="opacity:0.2;fill:#ffffff"
   width="5.0960002"
   height="5.8319998"
   id="rect82" />
&#10;				<rect
   x="280.67801"
   y="263.23999"
   style="opacity:0.2;fill:#ffffff"
   width="5.0960002"
   height="5.8319998"
   id="rect83" />
&#10;				<rect
   x="280.67801"
   y="256.90799"
   style="opacity:0.2;fill:#ffffff"
   width="5.0960002"
   height="5.8319998"
   id="rect84" />
&#10;				<rect
   x="305.26999"
   y="269.57199"
   style="opacity:0.2;fill:#ffffff"
   width="5.8319998"
   height="5.8319998"
   id="rect85" />
&#10;				<path
   style="opacity:0.2;fill:#ffffff"
   d="m 317.934,250.076 h 5.096 v -3.971 c 0,-1.206 -0.981,-2.187 -2.186,-2.187 h -2.909 v 6.158 z"
   id="path85" />
&#10;				<rect
   x="311.60199"
   y="250.576"
   style="opacity:0.2;fill:#ffffff"
   width="5.8319998"
   height="5.8319998"
   id="rect86" />
&#10;				<rect
   x="280.67801"
   y="275.90399"
   style="opacity:0.2;fill:#ffffff"
   width="5.0960002"
   height="5.8319998"
   id="rect87" />
&#10;				<rect
   x="311.60199"
   y="256.90799"
   style="opacity:0.2;fill:#ffffff"
   width="5.8319998"
   height="5.8319998"
   id="rect88" />
&#10;				<rect
   x="311.60199"
   y="263.23999"
   style="opacity:0.2;fill:#ffffff"
   width="5.8319998"
   height="5.8319998"
   id="rect89" />
&#10;				<rect
   x="311.60199"
   y="269.57199"
   style="opacity:0.2;fill:#ffffff"
   width="5.8319998"
   height="5.8319998"
   id="rect90" />
&#10;				<rect
   x="311.60199"
   y="275.90399"
   style="opacity:0.2;fill:#ffffff"
   width="5.8319998"
   height="5.8319998"
   id="rect91" />
&#10;				<rect
   x="317.93399"
   y="275.90399"
   style="opacity:0.2;fill:#ffffff"
   width="5.0960002"
   height="5.8319998"
   id="rect92" />
&#10;				<rect
   x="311.60199"
   y="243.91901"
   style="opacity:0.2;fill:#ffffff"
   width="5.8319998"
   height="6.1570001"
   id="rect93" />
&#10;				<rect
   x="298.93799"
   y="282.23599"
   style="opacity:0.2;fill:#ffffff"
   width="5.8319998"
   height="6.1570001"
   id="rect94" />
&#10;				<rect
   x="305.26999"
   y="282.23599"
   style="opacity:0.2;fill:#ffffff"
   width="5.8319998"
   height="6.1570001"
   id="rect95" />
&#10;				<rect
   x="317.93399"
   y="263.23999"
   style="opacity:0.2;fill:#ffffff"
   width="5.0960002"
   height="5.8319998"
   id="rect96" />
&#10;				<rect
   x="311.60199"
   y="282.23599"
   style="opacity:0.2;fill:#ffffff"
   width="5.8319998"
   height="6.1570001"
   id="rect97" />
&#10;				<rect
   x="317.93399"
   y="269.57199"
   style="opacity:0.2;fill:#ffffff"
   width="5.0960002"
   height="5.8319998"
   id="rect98" />
&#10;				<path
   style="opacity:0.2;fill:#ffffff"
   d="m 285.775,282.236 h -5.096 v 3.97 c 0,1.206 0.981,2.187 2.187,2.187 h 2.909 z"
   id="path98" />
&#10;				<path
   style="opacity:0.2;fill:#ffffff"
   d="m 317.934,282.236 v 6.157 h 2.909 c 1.206,0 2.186,-0.981 2.186,-2.187 v -3.97 z"
   id="path99" />
&#10;				<path
   style="opacity:0.2;fill:#ffffff"
   d="m 285.775,250.076 v -6.157 h -2.909 c -1.206,0 -2.187,0.981 -2.187,2.187 v 3.971 h 5.096 z"
   id="path100" />
&#10;				<rect
   x="317.93399"
   y="256.90799"
   style="opacity:0.2;fill:#ffffff"
   width="5.0960002"
   height="5.8319998"
   id="rect100" />
&#10;				<rect
   x="317.93399"
   y="250.576"
   style="opacity:0.2;fill:#ffffff"
   width="5.0960002"
   height="5.8319998"
   id="rect101" />
&#10;				<rect
   x="286.27499"
   y="263.23999"
   style="opacity:0.2;fill:#ffffff"
   width="5.8319998"
   height="5.8319998"
   id="rect102" />
&#10;				<rect
   x="286.27499"
   y="275.90399"
   style="opacity:0.2;fill:#ffffff"
   width="5.8319998"
   height="5.8319998"
   id="rect103" />
&#10;				<rect
   x="292.60599"
   y="243.91901"
   style="opacity:0.2;fill:#ffffff"
   width="5.8319998"
   height="6.1570001"
   id="rect104" />
&#10;				<rect
   x="286.27499"
   y="269.57199"
   style="opacity:0.2;fill:#ffffff"
   width="5.8319998"
   height="5.8319998"
   id="rect105" />
&#10;				<rect
   x="292.60599"
   y="256.90799"
   style="opacity:0.2;fill:#ffffff"
   width="5.8319998"
   height="5.8319998"
   id="rect106" />
&#10;				<rect
   x="292.60599"
   y="250.576"
   style="opacity:0.2;fill:#ffffff"
   width="5.8319998"
   height="5.8319998"
   id="rect107" />
&#10;				<rect
   x="292.60599"
   y="282.23599"
   style="opacity:0.2;fill:#ffffff"
   width="5.8319998"
   height="6.1570001"
   id="rect108" />
&#10;				<rect
   x="286.27499"
   y="282.23599"
   style="opacity:0.2;fill:#ffffff"
   width="5.8319998"
   height="6.1570001"
   id="rect109" />
&#10;				<rect
   x="286.27499"
   y="243.91901"
   style="opacity:0.2;fill:#ffffff"
   width="5.8319998"
   height="6.1570001"
   id="rect110" />
&#10;				<rect
   x="292.60599"
   y="263.23999"
   style="opacity:0.2;fill:#ffffff"
   width="5.8319998"
   height="5.8319998"
   id="rect111" />
&#10;				<rect
   x="286.27499"
   y="256.90799"
   style="opacity:0.2;fill:#ffffff"
   width="5.8319998"
   height="5.8319998"
   id="rect112" />
&#10;				<rect
   x="286.27499"
   y="250.576"
   style="opacity:0.2;fill:#ffffff"
   width="5.8319998"
   height="5.8319998"
   id="rect113" />
&#10;			</g>
&#10;		</g>
&#10;		<g
   id="g121">&#10;			<g
   id="g115">&#10;				<path
   style="fill:#ffffff"
   d="m 312.21,259.445 c -0.09,-0.46 -0.21,-0.91 -0.37,-1.34 -1.45,-4.12 -5.38,-7.08 -9.99,-7.08 -3.33,0 -6.31,1.55 -8.25,3.97 -0.55,0.69 -1.03,1.45 -1.39,2.27 -0.6,1.33 -0.94,2.8 -0.94,4.35 v 9.08 c 0,0.89 0.11,1.75 0.32,2.57 0,0 0,0 0,0.01 0.16,0.65 0.38,1.27 0.67,1.86 v 0.01 c 0.25,0.56 0.56,1.09 0.9,1.59 0,0 0,0 0,0.01 0.27,0.36 0.54,0.7 0.83,1.03 0.36,0.4 0.75,0.77 1.15,1.1 0.34,0.27 0.68,0.53 1.05,0.76 0.62,0.4 1.29,0.73 1.99,1 h 0.01 c 0.34,0.12 0.68,0.23 1.03,0.32 0.44,0.11 0.88,0.19 1.33,0.25 0.34,0.04 0.68,0.07 1.03,0.07 0.09,0.01 0.18,0.01 0.27,0.01 0.55,0 1.1,-0.04 1.63,-0.12 0.34,-0.06 0.68,-0.13 1,-0.21 h 0.01 c 1.25,-0.33 2.41,-0.87 3.43,-1.59 0.38,-0.26 0.73,-0.55 1.07,-0.86 0.91,-0.83 1.68,-1.83 2.26,-2.94 0.3,-0.56 0.54,-1.16 0.73,-1.78 0.27,-0.88 0.43,-1.8 0.45,-2.77 0,0 0.01,0 0,-0.01 0.01,-0.1 0.01,-0.21 0.01,-0.31 v -9.08 c 0,-0.74 -0.081,-1.47 -0.23,-2.17 z m -2.37,16.55 c -0.57,0.86 -1.27,1.62 -2.08,2.25 -0.3,0.24 -0.61,0.45 -0.93,0.64 -0.85,0.52 -1.77,0.91 -2.77,1.15 h -0.01 c -0.32,0.07 -0.65,0.13 -0.99,0.17 -0.4,0.05 -0.8,0.08 -1.21,0.08 -0.15,0 -0.3,0 -0.45,-0.01 -0.35,-0.02 -0.68,-0.05 -1.02,-0.1 -0.42,-0.07 -0.84,-0.16 -1.24,-0.28 -0.35,-0.1 -0.69,-0.23 -1.02,-0.36 -0.71,-0.31 -1.37,-0.69 -1.98,-1.14 -0.33,-0.25 -0.65,-0.52 -0.95,-0.82 -0.36,-0.34 -0.69,-0.72 -0.99,-1.12 -0.29,-0.38 -0.55,-0.79 -0.78,-1.21 v -0.01 c -0.34,-0.62 -0.61,-1.28 -0.8,-1.97 -0.23,-0.82 -0.35,-1.68 -0.35,-2.57 v -9.08 c 0,-2.19 0.73,-4.21 1.97,-5.82 0.86,-1.12 1.96,-2.05 3.22,-2.7 1.32,-0.69 2.81,-1.07 4.39,-1.07 4.57,0 8.38,3.19 9.36,7.48 0,0.01 0,0.01 0,0.02 0.15,0.67 0.23,1.37 0.23,2.09 v 9.16 c -0.01,0.6 -0.07,1.19 -0.18,1.76 v 0.01 c -0.16,0.79 -0.41,1.54 -0.75,2.25 -0.191,0.42 -0.42,0.82 -0.67,1.2 z"
   id="path114" />
&#10;			</g>
&#10;			<g
   id="g120">&#10;				<path
   style="fill:#ffffff"
   d="m 303.059,267.235 c -1.07,3.39 -2.46,7.85 -1.66,13.04 0.05,0.33 0.11,0.66 0.18,1 -0.35,0 -0.69,-0.03 -1.03,-0.07 -0.07,-0.35 -0.13,-0.69 -0.17,-1.03 -0.76,-5.3 0.65,-9.81 1.72,-13.24 1.14,-3.64 1.61,-5.42 -0.11,-6.15 -0.54,-0.23 -1.08,-0.16 -1.65,0.22 -2.73,1.81 -5.17,9.62 -6.14,15.45 -0.08,0.46 -0.15,0.9 -0.21,1.32 -0.29,-0.33 -0.56,-0.67 -0.83,-1.03 0,-0.01 0,-0.01 0,-0.01 0.07,-0.48 0.16,-0.98 0.26,-1.49 v -0.01 c 1.1,-5.78 3.45,-13.13 6.37,-15.06 0.85,-0.56 1.75,-0.67 2.59,-0.31 2.63,1.12 1.771,3.88 0.68,7.37 z"
   id="path115" />
&#10;				<path
   style="fill:#ffffff"
   d="m 301.319,266.985 c -1,3.21 -2.47,7.91 -2.18,12.91 0.02,0.35 0.04,0.7 0.08,1.06 -0.35,-0.09 -0.69,-0.2 -1.03,-0.32 h -0.01 c -0.03,-0.37 -0.05,-0.73 -0.06,-1.1 -0.2,-5.01 1.25,-9.66 2.25,-12.85 0.4,-1.27 0.85,-2.7 0.84,-3.25 -1.21,1.08 -4.96,9.88 -5.07,14.96 -0.02,0.45 0,0.86 0.05,1.24 -0.37,-0.23 -0.71,-0.49 -1.05,-0.76 0,-0.41 0.01,-0.85 0.05,-1.3 0.42,-5.3 3.61,-13.29 5.35,-14.87 0.46,-0.42 0.84,-0.4 1.07,-0.31 1.03,0.4 0.56,1.89 -0.29,4.59 z"
   id="path116" />
&#10;				<path
   style="fill:#ffffff"
   d="m 304.059,280.035 c 0.13,0.34 0.28,0.65 0.42,0.92 -0.32,0.08 -0.66,0.15 -1,0.21 -0.15,-0.29 -0.29,-0.61 -0.42,-0.96 -0.82,-2.14 -1.25,-5.39 0.24,-9.83 2.91,-8.66 2.4,-10.72 0.24,-11.86 -1.24,-0.66 -2.47,-0.7 -3.66,-0.12 -2.99,1.48 -5.59,6.83 -7.26,14.87 -0.13,0.61 -0.25,1.23 -0.36,1.87 -0.29,-0.59 -0.51,-1.21 -0.67,-1.86 0,-0.01 0,-0.01 0,-0.01 0.21,-1.03 0.44,-2.02 0.68,-2.96 1.74,-6.88 4.23,-11.35 7.17,-12.8 1.49,-0.74 3.03,-0.7 4.57,0.12 3.01,1.6 3.07,4.65 0.24,13.06 -1.45,4.32 -0.98,7.4 -0.2,9.35 z"
   id="path117" />
&#10;				<path
   style="fill:#ffffff"
   d="m 308.989,278.505 c -0.34,0.31 -0.69,0.6 -1.07,0.86 -0.14,-0.04 -0.27,-0.08 -0.41,-0.13 -0.24,-0.09 -0.47,-0.2 -0.68,-0.35 -1.04,-0.62 -1.8,-1.73 -2.21,-3.23 -0.52,-1.87 0.33,-4.57 1.24,-7.42 0.91,-2.87 1.85,-5.83 1.4,-7.98 -0.36,-1.74 -1.27,-3.02 -2.63,-3.71 -1.75,-0.87 -4.08,-0.72 -6.55,0.43 -2.6,1.22 -4.59,4.83 -5.81,7.68 -0.43,1.01 -0.77,1.92 -1,2.59 v -2.81 c 0.29,-0.68 0.62,-1.42 1,-2.16 1.29,-2.53 3.1,-5.14 5.38,-6.2 2.76,-1.29 5.4,-1.44 7.43,-0.42 1.64,0.83 2.74,2.35 3.16,4.4 0.5,2.4 -0.48,5.49 -1.43,8.48 -0.86,2.71 -1.67,5.26 -1.23,6.85 0.41,1.44 1.15,2.43 2.18,2.86 0.03,0.02 0.07,0.04 0.11,0.05 0.35,0.14 0.73,0.21 1.12,0.21 z"
   id="path118" />
&#10;				<path
   style="fill:#ffffff"
   d="m 311.98,273.785 c -0.19,0.62 -0.43,1.22 -0.73,1.78 -0.5,0.25 -0.97,0.39 -1.41,0.43 -0.1,0.01 -0.19,0.01 -0.28,0.01 -0.08,0 -0.17,-0.01 -0.25,-0.02 -1.11,-0.1 -1.96,-0.83 -2.3,-1.95 -0.44,-1.49 0.28,-4.29 1.04,-7.25 0.55,-2.14 1.12,-4.36 1.12,-5.75 0,-3.08 -0.8,-6.38 -6.71,-7.43 -3.01,-0.54 -7.32,1.381 -9.853,5.483 -0.494,0.8 0.153,-2.273 -0.397,-1.823 0.36,-0.82 0.919,-0.778 1.469,-1.468 1.11,-0.72 4.203,-3.772 8.951,-3.182 6.815,0.847 7.54,5.38 7.54,8.42 0,1.52 -0.56,3.7 -1.16,6 -0.66,2.57 -1.4,5.49 -1.04,6.72 0.22,0.72 0.74,1.18 1.43,1.24 0.32,0.03 0.7,-0.03 1.11,-0.2 0.459,-0.18 0.97,-0.51 1.47,-1.01 z"
   id="path119" />
&#10;				<path
   style="fill:#ffffff"
   d="m 312.44,268.345 v 2.35 c 0,0.1 0,0.21 -0.01,0.31 0.01,0.01 0,0.01 0,0.01 -0.35,0.68 -0.73,1.2 -1.17,1.52 v 0.01 c -0.35,0.25 -0.74,0.38 -1.19,0.38 -0.09,0 -0.19,0 -0.29,-0.01 -0.31,-0.04 -0.56,-0.22 -0.71,-0.51 -0.45,-0.83 0.107,-2.501 0.48,-3.44 1.37,-3.455 1.865,-6.063 1.66,-9.44 0,-0.01 0,-0.01 0,-0.02 0.04,-0.57 0.06,-0.92 0.06,-0.94 0.02,-0.27 0.26,-0.48 0.53,-0.47 0.01,0 0.03,0 0.04,0.01 0.16,0.43 0.28,0.88 0.37,1.34 -0.05,0.74 -0.12,1.48 -0.19,2.22 -0.14,1.42 -0.31,2.84 -0.58,4.25 -0.07,0.38 0.253,0.233 0.173,0.613 -0.13,0.56 -0.653,1.667 -0.883,2.197 -0.24,0.55 -0.51,1.09 -0.7,1.66 -0.12,0.34 -0.56,1.94 0.34,1.59 0.34,-0.13 0.61,-0.48 0.81,-0.77 0.09,-0.14 0.18,-0.28 0.26,-0.43 0.3,-0.53 0.53,-1.12 0.74,-1.69 0.09,-0.24 0.179,-0.49 0.26,-0.74 z"
   id="path120" />
&#10;			</g>
&#10;		</g>
&#10;	</g>
&#10;</g>
    <g
       id="Iris_Recognition"
       transform="matrix(2.551161,0,0,2.551161,1.4175488,-134.63192)">&#10;	<g
   id="g181">&#10;		<path
   style="fill:#407bff"
   d="m 238.706,98.729 v 25.5 c 0,0.771 -0.628,1.399 -1.399,1.399 H 211.38 c -0.188,-0.394 -0.583,-0.672 -1.05,-0.672 -0.647,0 -1.171,0.525 -1.171,1.172 0,0.647 0.524,1.172 1.171,1.172 0.466,0 0.861,-0.277 1.05,-0.672 h 25.927 c 1.323,0 2.399,-1.076 2.399,-2.399 v -25.5 z"
   id="path122" />
&#10;		<path
   style="opacity:0.4;fill:#ffffff"
   d="m 238.706,98.729 v 25.5 c 0,0.771 -0.628,1.399 -1.399,1.399 H 211.38 c -0.188,-0.394 -0.583,-0.672 -1.05,-0.672 -0.647,0 -1.171,0.525 -1.171,1.172 0,0.647 0.524,1.172 1.171,1.172 0.466,0 0.861,-0.277 1.05,-0.672 h 25.927 c 1.323,0 2.399,-1.076 2.399,-2.399 v -25.5 z"
   id="path123" />
&#10;		<g
   id="g171">&#10;			<path
   style="fill:#407bff"
   d="M 216.469,103.981 V 66.003 c 0,-1.484 1.203,-2.687 2.687,-2.687 h 40.1 c 1.484,0 2.687,1.203 2.687,2.687 v 37.978 c 0,1.484 -1.203,2.687 -2.687,2.687 h -40.1 c -1.485,0 -2.687,-1.203 -2.687,-2.687 z"
   id="path124" />
&#10;			<path
   style="opacity:0.4;fill:#ffffff;enable-background:new"
   d="M 216.469,103.981 V 66.003 c 0,-1.484 1.203,-2.687 2.687,-2.687 h 40.1 c 1.484,0 2.687,1.203 2.687,2.687 v 37.978 c 0,1.484 -1.203,2.687 -2.687,2.687 h -40.1 c -1.485,0 -2.687,-1.203 -2.687,-2.687 z"
   id="path125" />
&#10;			<g
   id="g170">&#10;				<rect
   x="229.95799"
   y="82.077003"
   style="opacity:0.2;fill:#ffffff"
   width="5.8319998"
   height="5.8319998"
   id="rect125" />
&#10;				<rect
   x="248.95399"
   y="88.408997"
   style="opacity:0.2;fill:#ffffff"
   width="5.8319998"
   height="5.8319998"
   id="rect126" />
&#10;				<rect
   x="223.62601"
   y="75.745003"
   style="opacity:0.2;fill:#ffffff"
   width="5.8319998"
   height="5.8319998"
   id="rect127" />
&#10;				<rect
   x="242.62199"
   y="88.408997"
   style="opacity:0.2;fill:#ffffff"
   width="5.8319998"
   height="5.8319998"
   id="rect128" />
&#10;				<rect
   x="236.28999"
   y="88.408997"
   style="opacity:0.2;fill:#ffffff"
   width="5.8319998"
   height="5.8319998"
   id="rect129" />
&#10;				<rect
   x="242.62199"
   y="82.077003"
   style="opacity:0.2;fill:#ffffff"
   width="5.8319998"
   height="5.8319998"
   id="rect130" />
&#10;				<rect
   x="255.285"
   y="82.077003"
   style="opacity:0.2;fill:#ffffff"
   width="6.1570001"
   height="5.8319998"
   id="rect131" />
&#10;				<rect
   x="229.95799"
   y="75.745003"
   style="opacity:0.2;fill:#ffffff"
   width="5.8319998"
   height="5.8319998"
   id="rect132" />
&#10;				<rect
   x="248.95399"
   y="82.077003"
   style="opacity:0.2;fill:#ffffff"
   width="5.8319998"
   height="5.8319998"
   id="rect133" />
&#10;				<rect
   x="223.62601"
   y="82.077003"
   style="opacity:0.2;fill:#ffffff"
   width="5.8319998"
   height="5.8319998"
   id="rect134" />
&#10;				<rect
   x="223.62601"
   y="88.408997"
   style="opacity:0.2;fill:#ffffff"
   width="5.8319998"
   height="5.8319998"
   id="rect135" />
&#10;				<rect
   x="236.28999"
   y="82.077003"
   style="opacity:0.2;fill:#ffffff"
   width="5.8319998"
   height="5.8319998"
   id="rect136" />
&#10;				<rect
   x="255.285"
   y="88.408997"
   style="opacity:0.2;fill:#ffffff"
   width="6.1570001"
   height="5.8319998"
   id="rect137" />
&#10;				<rect
   x="229.95799"
   y="63.817001"
   style="opacity:0.2;fill:#ffffff"
   width="5.8319998"
   height="5.0960002"
   id="rect138" />
&#10;				<rect
   x="248.95399"
   y="63.817001"
   style="opacity:0.2;fill:#ffffff"
   width="5.8319998"
   height="5.0960002"
   id="rect139" />
&#10;				<rect
   x="236.28999"
   y="63.817001"
   style="opacity:0.2;fill:#ffffff"
   width="5.8319998"
   height="5.0960002"
   id="rect140" />
&#10;				<rect
   x="242.62199"
   y="63.817001"
   style="opacity:0.2;fill:#ffffff"
   width="5.8319998"
   height="5.0960002"
   id="rect141" />
&#10;				<rect
   x="229.95799"
   y="88.408997"
   style="opacity:0.2;fill:#ffffff"
   width="5.8319998"
   height="5.8319998"
   id="rect142" />
&#10;				<path
   style="opacity:0.2;fill:#ffffff"
   d="m 255.285,101.072 v 5.096 h 3.971 c 1.206,0 2.186,-0.981 2.186,-2.187 v -2.909 z"
   id="path142" />
&#10;				<rect
   x="248.95399"
   y="94.739998"
   style="opacity:0.2;fill:#ffffff"
   width="5.8319998"
   height="5.8319998"
   id="rect143" />
&#10;				<rect
   x="223.62601"
   y="63.817001"
   style="opacity:0.2;fill:#ffffff"
   width="5.8319998"
   height="5.0960002"
   id="rect144" />
&#10;				<rect
   x="242.62199"
   y="94.739998"
   style="opacity:0.2;fill:#ffffff"
   width="5.8319998"
   height="5.8319998"
   id="rect145" />
&#10;				<rect
   x="236.28999"
   y="94.739998"
   style="opacity:0.2;fill:#ffffff"
   width="5.8319998"
   height="5.8319998"
   id="rect146" />
&#10;				<rect
   x="229.95799"
   y="94.739998"
   style="opacity:0.2;fill:#ffffff"
   width="5.8319998"
   height="5.8319998"
   id="rect147" />
&#10;				<rect
   x="223.62601"
   y="94.739998"
   style="opacity:0.2;fill:#ffffff"
   width="5.8319998"
   height="5.8319998"
   id="rect148" />
&#10;				<rect
   x="223.62601"
   y="101.072"
   style="opacity:0.2;fill:#ffffff"
   width="5.8319998"
   height="5.0960002"
   id="rect149" />
&#10;				<rect
   x="255.285"
   y="94.739998"
   style="opacity:0.2;fill:#ffffff"
   width="6.1570001"
   height="5.8319998"
   id="rect150" />
&#10;				<rect
   x="216.96899"
   y="82.077003"
   style="opacity:0.2;fill:#ffffff"
   width="6.1570001"
   height="5.8319998"
   id="rect151" />
&#10;				<rect
   x="216.96899"
   y="88.408997"
   style="opacity:0.2;fill:#ffffff"
   width="6.1570001"
   height="5.8319998"
   id="rect152" />
&#10;				<rect
   x="236.28999"
   y="101.072"
   style="opacity:0.2;fill:#ffffff"
   width="5.8319998"
   height="5.0960002"
   id="rect153" />
&#10;				<rect
   x="216.96899"
   y="94.739998"
   style="opacity:0.2;fill:#ffffff"
   width="6.1570001"
   height="5.8319998"
   id="rect154" />
&#10;				<rect
   x="229.95799"
   y="101.072"
   style="opacity:0.2;fill:#ffffff"
   width="5.8319998"
   height="5.0960002"
   id="rect155" />
&#10;				<path
   style="opacity:0.2;fill:#ffffff"
   d="m 223.126,68.913 v -5.096 h -3.97 c -1.206,0 -2.187,0.981 -2.187,2.187 v 2.909 z"
   id="path155" />
&#10;				<path
   style="opacity:0.2;fill:#ffffff"
   d="m 223.126,101.072 h -6.157 v 2.909 c 0,1.206 0.981,2.187 2.187,2.187 h 3.97 z"
   id="path156" />
&#10;				<path
   style="opacity:0.2;fill:#ffffff"
   d="m 255.285,68.913 h 6.157 v -2.909 c 0,-1.206 -0.981,-2.187 -2.186,-2.187 h -3.971 z"
   id="path157" />
&#10;				<rect
   x="242.62199"
   y="101.072"
   style="opacity:0.2;fill:#ffffff"
   width="5.8319998"
   height="5.0960002"
   id="rect157" />
&#10;				<rect
   x="248.95399"
   y="101.072"
   style="opacity:0.2;fill:#ffffff"
   width="5.8319998"
   height="5.0960002"
   id="rect158" />
&#10;				<rect
   x="236.28999"
   y="69.413002"
   style="opacity:0.2;fill:#ffffff"
   width="5.8319998"
   height="5.8319998"
   id="rect159" />
&#10;				<rect
   x="223.62601"
   y="69.413002"
   style="opacity:0.2;fill:#ffffff"
   width="5.8319998"
   height="5.8319998"
   id="rect160" />
&#10;				<rect
   x="255.285"
   y="75.745003"
   style="opacity:0.2;fill:#ffffff"
   width="6.1570001"
   height="5.8319998"
   id="rect161" />
&#10;				<rect
   x="229.95799"
   y="69.413002"
   style="opacity:0.2;fill:#ffffff"
   width="5.8319998"
   height="5.8319998"
   id="rect162" />
&#10;				<rect
   x="242.62199"
   y="75.745003"
   style="opacity:0.2;fill:#ffffff"
   width="5.8319998"
   height="5.8319998"
   id="rect163" />
&#10;				<rect
   x="248.95399"
   y="75.745003"
   style="opacity:0.2;fill:#ffffff"
   width="5.8319998"
   height="5.8319998"
   id="rect164" />
&#10;				<rect
   x="216.96899"
   y="75.745003"
   style="opacity:0.2;fill:#ffffff"
   width="6.1570001"
   height="5.8319998"
   id="rect165" />
&#10;				<rect
   x="216.96899"
   y="69.413002"
   style="opacity:0.2;fill:#ffffff"
   width="6.1570001"
   height="5.8319998"
   id="rect166" />
&#10;				<rect
   x="255.285"
   y="69.413002"
   style="opacity:0.2;fill:#ffffff"
   width="6.1570001"
   height="5.8319998"
   id="rect167" />
&#10;				<rect
   x="236.28999"
   y="75.745003"
   style="opacity:0.2;fill:#ffffff"
   width="5.8319998"
   height="5.8319998"
   id="rect168" />
&#10;				<rect
   x="242.62199"
   y="69.413002"
   style="opacity:0.2;fill:#ffffff"
   width="5.8319998"
   height="5.8319998"
   id="rect169" />
&#10;				<rect
   x="248.95399"
   y="69.413002"
   style="opacity:0.2;fill:#ffffff"
   width="5.8319998"
   height="5.8319998"
   id="rect170" />
&#10;			</g>
&#10;		</g>
&#10;		<g
   id="g180">&#10;			<path
   style="fill:none;stroke:#ffffff;stroke-linecap:round;stroke-linejoin:round;stroke-miterlimit:10"
   d="m 226.019,84.81 c 0,0 5.904,7.013 13.187,7.013 7.283,0 13.187,-7.013 13.187,-7.013 0,0 -5.904,-7.013 -13.187,-7.013 -7.283,0 -13.187,7.013 -13.187,7.013 z"
   id="path171" />
&#10;			<path
   style="fill:none;stroke:#ffffff;stroke-miterlimit:10"
   d="m 243.798,83.81 c 0,2.536 -2.056,4.592 -4.593,4.592 -2.536,0 -4.592,-2.056 -4.592,-4.592 0,-2.536 2.056,-4.593 4.592,-4.593 2.537,0.001 4.593,2.057 4.593,4.593 z"
   id="path172" />
&#10;			<path
   style="fill:none;stroke:#ffffff;stroke-miterlimit:10"
   d="m 239.72,81.789 c 0,-0.821 0.665,-1.486 1.486,-1.486 0.821,0 1.486,0.665 1.486,1.486 0,0.821 -0.665,1.486 -1.486,1.486 -0.821,0 -1.486,-0.665 -1.486,-1.486 z"
   id="path173" />
&#10;			&#10;				<line
   style="fill:none;stroke:#ffffff;stroke-linecap:round;stroke-linejoin:round;stroke-miterlimit:10"
   x1="239.205"
   y1="77.796997"
   x2="239.205"
   y2="73.098"
   id="line173" />
&#10;			<g
   id="g179">&#10;				&#10;					<line
   style="fill:none;stroke:#ffffff;stroke-linecap:round;stroke-linejoin:round;stroke-miterlimit:10"
   x1="243.3"
   y1="78.136002"
   x2="244.98199"
   y2="74.322998"
   id="line174" />
&#10;				&#10;					<line
   style="fill:none;stroke:#ffffff;stroke-linecap:round;stroke-linejoin:round;stroke-miterlimit:10"
   x1="247.22701"
   y1="79.877998"
   x2="249.58099"
   y2="77.091003"
   id="line175" />
&#10;				&#10;					<line
   style="fill:none;stroke:#ffffff;stroke-linecap:round;stroke-linejoin:round;stroke-miterlimit:10"
   x1="250.37801"
   y1="82.030998"
   x2="252.647"
   y2="80.514999"
   id="line176" />
&#10;				&#10;					<line
   style="fill:none;stroke:#ffffff;stroke-linecap:round;stroke-linejoin:round;stroke-miterlimit:10"
   x1="235.11099"
   y1="78.136002"
   x2="233.42799"
   y2="74.322998"
   id="line177" />
&#10;				&#10;					<line
   style="fill:none;stroke:#ffffff;stroke-linecap:round;stroke-linejoin:round;stroke-miterlimit:10"
   x1="231.18401"
   y1="79.877998"
   x2="228.82899"
   y2="77.091003"
   id="line178" />
&#10;				&#10;					<line
   style="fill:none;stroke:#ffffff;stroke-linecap:round;stroke-linejoin:round;stroke-miterlimit:10"
   x1="228.033"
   y1="82.030998"
   x2="225.76401"
   y2="80.514999"
   id="line179" />
&#10;			</g>
&#10;		</g>
&#10;	</g>
&#10;</g>
    <g
       id="Face_Recognition"
       transform="matrix(2.551161,0,0,2.551161,1.4175488,-134.63192)">&#10;	<g
   id="g238">&#10;		<path
   style="fill:#407bff"
   d="m 171.242,127.213 c -0.457,0 -0.843,0.269 -1.036,0.651 H 143.65 c -1.323,0 -2.4,1.077 -2.4,2.4 v 27.284 c 0,0.771 -0.628,1.4 -1.399,1.4 h -10.683 v 1 h 10.683 c 1.323,0 2.399,-1.076 2.399,-2.4 v -27.284 c 0,-0.772 0.628,-1.4 1.4,-1.4 h 26.529 c 0.184,0.406 0.588,0.692 1.063,0.692 0.647,0 1.172,-0.524 1.172,-1.171 0,-0.647 -0.525,-1.172 -1.172,-1.172 z"
   id="path181" />
&#10;		<path
   style="opacity:0.4;fill:#ffffff"
   d="m 171.242,127.213 c -0.457,0 -0.843,0.269 -1.036,0.651 H 143.65 c -1.323,0 -2.4,1.077 -2.4,2.4 v 27.284 c 0,0.771 -0.628,1.4 -1.399,1.4 h -10.683 v 1 h 10.683 c 1.323,0 2.399,-1.076 2.399,-2.4 v -27.284 c 0,-0.772 0.628,-1.4 1.4,-1.4 h 26.529 c 0.184,0.406 0.588,0.692 1.063,0.692 0.647,0 1.172,-0.524 1.172,-1.171 0,-0.647 -0.525,-1.172 -1.172,-1.172 z"
   id="path182" />
&#10;		<g
   id="g230">&#10;			<path
   style="fill:#407bff"
   d="M 126.481,182.185 H 88.503 c -1.484,0 -2.687,-1.203 -2.687,-2.687 v -40.1 c 0,-1.484 1.203,-2.687 2.687,-2.687 h 37.978 c 1.484,0 2.687,1.203 2.687,2.687 v 40.1 c 0,1.484 -1.203,2.687 -2.687,2.687 z"
   id="path183" />
&#10;			<path
   style="opacity:0.4;fill:#ffffff;enable-background:new"
   d="M 126.481,182.185 H 88.503 c -1.484,0 -2.687,-1.203 -2.687,-2.687 v -40.1 c 0,-1.484 1.203,-2.687 2.687,-2.687 h 37.978 c 1.484,0 2.687,1.203 2.687,2.687 v 40.1 c 0,1.484 -1.203,2.687 -2.687,2.687 z"
   id="path184" />
&#10;			<g
   id="g229">&#10;				<rect
   x="104.576"
   y="162.864"
   style="opacity:0.2;fill:#ffffff"
   width="5.8319998"
   height="5.8319998"
   id="rect184" />
&#10;				<rect
   x="110.908"
   y="143.868"
   style="opacity:0.2;fill:#ffffff"
   width="5.8319998"
   height="5.8319998"
   id="rect185" />
&#10;				<rect
   x="98.244003"
   y="169.19501"
   style="opacity:0.2;fill:#ffffff"
   width="5.8319998"
   height="5.8319998"
   id="rect186" />
&#10;				<rect
   x="110.908"
   y="150.2"
   style="opacity:0.2;fill:#ffffff"
   width="5.8319998"
   height="5.8319998"
   id="rect187" />
&#10;				<rect
   x="110.908"
   y="156.532"
   style="opacity:0.2;fill:#ffffff"
   width="5.8319998"
   height="5.8319998"
   id="rect188" />
&#10;				<rect
   x="104.576"
   y="150.2"
   style="opacity:0.2;fill:#ffffff"
   width="5.8319998"
   height="5.8319998"
   id="rect189" />
&#10;				<rect
   x="104.576"
   y="137.211"
   style="opacity:0.2;fill:#ffffff"
   width="5.8319998"
   height="6.1570001"
   id="rect190" />
&#10;				<rect
   x="98.244003"
   y="162.864"
   style="opacity:0.2;fill:#ffffff"
   width="5.8319998"
   height="5.8319998"
   id="rect191" />
&#10;				<rect
   x="104.576"
   y="143.868"
   style="opacity:0.2;fill:#ffffff"
   width="5.8319998"
   height="5.8319998"
   id="rect192" />
&#10;				<rect
   x="104.576"
   y="169.19501"
   style="opacity:0.2;fill:#ffffff"
   width="5.8319998"
   height="5.8319998"
   id="rect193" />
&#10;				<rect
   x="110.908"
   y="169.19501"
   style="opacity:0.2;fill:#ffffff"
   width="5.8319998"
   height="5.8319998"
   id="rect194" />
&#10;				<rect
   x="104.576"
   y="156.532"
   style="opacity:0.2;fill:#ffffff"
   width="5.8319998"
   height="5.8319998"
   id="rect195" />
&#10;				<rect
   x="110.908"
   y="137.211"
   style="opacity:0.2;fill:#ffffff"
   width="5.8319998"
   height="6.1570001"
   id="rect196" />
&#10;				<rect
   x="86.316002"
   y="162.864"
   style="opacity:0.2;fill:#ffffff"
   width="5.0960002"
   height="5.8319998"
   id="rect197" />
&#10;				<rect
   x="86.316002"
   y="143.868"
   style="opacity:0.2;fill:#ffffff"
   width="5.0960002"
   height="5.8319998"
   id="rect198" />
&#10;				<rect
   x="86.316002"
   y="156.532"
   style="opacity:0.2;fill:#ffffff"
   width="5.0960002"
   height="5.8319998"
   id="rect199" />
&#10;				<rect
   x="86.316002"
   y="150.2"
   style="opacity:0.2;fill:#ffffff"
   width="5.0960002"
   height="5.8319998"
   id="rect200" />
&#10;				<rect
   x="110.908"
   y="162.864"
   style="opacity:0.2;fill:#ffffff"
   width="5.8319998"
   height="5.8319998"
   id="rect201" />
&#10;				<path
   style="opacity:0.2;fill:#ffffff"
   d="m 123.572,143.368 h 5.096 v -3.971 c 0,-1.206 -0.981,-2.186 -2.187,-2.186 h -2.909 z"
   id="path201" />
&#10;				<rect
   x="117.24"
   y="143.868"
   style="opacity:0.2;fill:#ffffff"
   width="5.8319998"
   height="5.8319998"
   id="rect202" />
&#10;				<rect
   x="86.316002"
   y="169.19501"
   style="opacity:0.2;fill:#ffffff"
   width="5.0960002"
   height="5.8319998"
   id="rect203" />
&#10;				<rect
   x="117.24"
   y="150.2"
   style="opacity:0.2;fill:#ffffff"
   width="5.8319998"
   height="5.8319998"
   id="rect204" />
&#10;				<rect
   x="117.24"
   y="156.532"
   style="opacity:0.2;fill:#ffffff"
   width="5.8319998"
   height="5.8319998"
   id="rect205" />
&#10;				<rect
   x="117.24"
   y="162.864"
   style="opacity:0.2;fill:#ffffff"
   width="5.8319998"
   height="5.8319998"
   id="rect206" />
&#10;				<rect
   x="117.24"
   y="169.19501"
   style="opacity:0.2;fill:#ffffff"
   width="5.8319998"
   height="5.8319998"
   id="rect207" />
&#10;				<rect
   x="123.572"
   y="169.19501"
   style="opacity:0.2;fill:#ffffff"
   width="5.0960002"
   height="5.8319998"
   id="rect208" />
&#10;				<rect
   x="117.24"
   y="137.211"
   style="opacity:0.2;fill:#ffffff"
   width="5.8319998"
   height="6.1570001"
   id="rect209" />
&#10;				<rect
   x="104.576"
   y="175.52699"
   style="opacity:0.2;fill:#ffffff"
   width="5.8319998"
   height="6.1570001"
   id="rect210" />
&#10;				<rect
   x="110.908"
   y="175.52699"
   style="opacity:0.2;fill:#ffffff"
   width="5.8319998"
   height="6.1570001"
   id="rect211" />
&#10;				<rect
   x="123.572"
   y="156.532"
   style="opacity:0.2;fill:#ffffff"
   width="5.0960002"
   height="5.8319998"
   id="rect212" />
&#10;				<rect
   x="117.24"
   y="175.52699"
   style="opacity:0.2;fill:#ffffff"
   width="5.8319998"
   height="6.1570001"
   id="rect213" />
&#10;				<rect
   x="123.572"
   y="162.864"
   style="opacity:0.2;fill:#ffffff"
   width="5.0960002"
   height="5.8319998"
   id="rect214" />
&#10;				<path
   style="opacity:0.2;fill:#ffffff"
   d="m 91.412,175.527 h -5.096 v 3.97 c 0,1.206 0.981,2.187 2.187,2.187 h 2.909 z"
   id="path214" />
&#10;				<path
   style="opacity:0.2;fill:#ffffff"
   d="m 123.572,175.527 v 6.157 h 2.909 c 1.206,0 2.187,-0.981 2.187,-2.187 v -3.97 z"
   id="path215" />
&#10;				<path
   style="opacity:0.2;fill:#ffffff"
   d="m 91.412,143.368 v -6.157 h -2.909 c -1.206,0 -2.187,0.981 -2.187,2.186 v 3.971 z"
   id="path216" />
&#10;				<rect
   x="123.572"
   y="150.2"
   style="opacity:0.2;fill:#ffffff"
   width="5.0960002"
   height="5.8319998"
   id="rect216" />
&#10;				<rect
   x="123.572"
   y="143.868"
   style="opacity:0.2;fill:#ffffff"
   width="5.0960002"
   height="5.8319998"
   id="rect217" />
&#10;				<rect
   x="91.912003"
   y="156.532"
   style="opacity:0.2;fill:#ffffff"
   width="5.8319998"
   height="5.8319998"
   id="rect218" />
&#10;				<rect
   x="91.912003"
   y="169.19501"
   style="opacity:0.2;fill:#ffffff"
   width="5.8319998"
   height="5.8319998"
   id="rect219" />
&#10;				<rect
   x="98.244003"
   y="137.211"
   style="opacity:0.2;fill:#ffffff"
   width="5.8319998"
   height="6.1570001"
   id="rect220" />
&#10;				<rect
   x="91.912003"
   y="162.864"
   style="opacity:0.2;fill:#ffffff"
   width="5.8319998"
   height="5.8319998"
   id="rect221" />
&#10;				<rect
   x="98.244003"
   y="150.2"
   style="opacity:0.2;fill:#ffffff"
   width="5.8319998"
   height="5.8319998"
   id="rect222" />
&#10;				<rect
   x="98.244003"
   y="143.868"
   style="opacity:0.2;fill:#ffffff"
   width="5.8319998"
   height="5.8319998"
   id="rect223" />
&#10;				<rect
   x="98.244003"
   y="175.52699"
   style="opacity:0.2;fill:#ffffff"
   width="5.8319998"
   height="6.1570001"
   id="rect224" />
&#10;				<rect
   x="91.912003"
   y="175.52699"
   style="opacity:0.2;fill:#ffffff"
   width="5.8319998"
   height="6.1570001"
   id="rect225" />
&#10;				<rect
   x="91.912003"
   y="137.211"
   style="opacity:0.2;fill:#ffffff"
   width="5.8319998"
   height="6.1570001"
   id="rect226" />
&#10;				<rect
   x="98.244003"
   y="156.532"
   style="opacity:0.2;fill:#ffffff"
   width="5.8319998"
   height="5.8319998"
   id="rect227" />
&#10;				<rect
   x="91.912003"
   y="150.2"
   style="opacity:0.2;fill:#ffffff"
   width="5.8319998"
   height="5.8319998"
   id="rect228" />
&#10;				<rect
   x="91.912003"
   y="143.868"
   style="opacity:0.2;fill:#ffffff"
   width="5.8319998"
   height="5.8319998"
   id="rect229" />
&#10;			</g>
&#10;		</g>
&#10;		<g
   id="g237">&#10;			<g
   id="g231">&#10;				<path
   style="fill:#ffffff"
   d="m 107.492,174.579 c -5.838,0 -10.588,-4.75 -10.588,-10.588 v -9.085 c 0,-5.838 4.75,-10.588 10.588,-10.588 5.838,0 10.588,4.75 10.588,10.588 v 9.085 c 0,5.838 -4.75,10.588 -10.588,10.588 z m 0,-29.262 c -5.287,0 -9.588,4.301 -9.588,9.588 v 9.085 c 0,5.287 4.301,9.588 9.588,9.588 5.287,0 9.588,-4.301 9.588,-9.588 v -9.085 c 0,-5.287 -4.301,-9.588 -9.588,-9.588 z"
   id="path230" />
&#10;			</g>
&#10;			<g
   id="g234">&#10;				<g
   id="g232">&#10;					<ellipse
   style="fill:#ffffff"
   cx="112.272"
   cy="156.685"
   rx="1.1210001"
   ry="1.516"
   id="ellipse231" />
&#10;				</g>
&#10;				<g
   id="g233">&#10;					<path
   style="fill:#ffffff"
   d="m 103.832,156.685 c 0,0.838 -0.502,1.517 -1.121,1.517 -0.619,0 -1.121,-0.679 -1.121,-1.517 0,-0.837 0.502,-1.516 1.121,-1.516 0.62,0 1.121,0.679 1.121,1.516 z"
   id="path232" />
&#10;				</g>
&#10;			</g>
&#10;			<g
   id="g235">&#10;				<polygon
   style="fill:#ffffff"
   points="107.547,163.609 107.547,158.202 105.437,163.609 "
   id="polygon234" />
&#10;			</g>
&#10;			<g
   id="g236">&#10;				<path
   style="fill:#ffffff"
   d="m 107.108,167.365 c -1.847,0 -2.745,-0.415 -2.799,-0.442 l 0.433,-0.901 -0.216,0.451 0.212,-0.453 c 0.018,0.009 1.789,0.793 5.616,-0.036 l 0.212,0.978 c -1.395,0.301 -2.543,0.403 -3.458,0.403 z"
   id="path235" />
&#10;			</g>
&#10;		</g>
&#10;	</g>
&#10;</g>
    <g
       id="Interface"
       transform="matrix(2.551161,0,0,2.551161,1.4175488,-134.63192)">&#10;	<g
   id="g250">&#10;		<path
   style="fill:#407bff"
   d="M 397.976,189.503 H 289.025 c -2.832,0 -5.129,-2.296 -5.129,-5.129 V 75.423 c 0,-2.832 2.296,-5.129 5.129,-5.129 h 108.951 c 2.833,0 5.129,2.296 5.129,5.129 v 108.951 c 0,2.833 -2.297,5.129 -5.129,5.129 z"
   id="path238" />
&#10;		<g
   id="g246">&#10;			<path
   style="opacity:0.5;fill:#ffffff"
   d="m 385.645,168.448 h -84.289 c -2.556,0 -4.628,-2.072 -4.628,-4.628 v -15.422 c 0,-2.556 2.072,-4.628 4.628,-4.628 h 84.289 c 2.556,0 4.628,2.072 4.628,4.628 v 15.422 c 0,2.556 -2.072,4.628 -4.628,4.628 z"
   id="path239" />
&#10;			<g
   id="g245">&#10;				<g
   id="g240">&#10;					<path
   style="fill:#ffffff"
   d="m 313.447,156.121 2.73,1.478 -1.227,2.054 -2.755,-1.628 0.05,3.031 h -2.354 l 0.025,-3.056 -2.755,1.653 -1.202,-2.054 2.73,-1.478 -2.73,-1.503 1.202,-2.053 2.755,1.653 -0.025,-3.055 h 2.354 l -0.05,3.055 2.755,-1.653 1.227,2.053 z"
   id="path240" />
&#10;				</g>
&#10;				<g
   id="g241">&#10;					<path
   style="fill:#ffffff"
   d="m 329.663,156.122 2.73,1.477 -1.227,2.054 -2.755,-1.628 0.05,3.03 h -2.354 l 0.025,-3.055 -2.755,1.653 -1.202,-2.054 2.73,-1.477 -2.73,-1.503 1.202,-2.053 2.755,1.653 -0.025,-3.055 h 2.354 l -0.05,3.055 2.755,-1.653 1.227,2.053 z"
   id="path241" />
&#10;				</g>
&#10;				<g
   id="g242">&#10;					<path
   style="fill:#ffffff"
   d="m 345.879,156.121 2.73,1.477 -1.227,2.054 -2.755,-1.628 0.05,3.03 h -2.354 l 0.025,-3.055 -2.755,1.653 -1.202,-2.054 2.73,-1.477 -2.73,-1.503 1.202,-2.054 2.755,1.653 -0.025,-3.056 h 2.354 l -0.05,3.056 2.755,-1.653 1.227,2.054 z"
   id="path242" />
&#10;				</g>
&#10;				<g
   id="g243">&#10;					<path
   style="fill:#ffffff"
   d="m 362.096,156.121 2.73,1.478 -1.227,2.053 -2.755,-1.628 0.05,3.031 h -2.354 l 0.025,-3.056 -2.755,1.653 -1.202,-2.053 2.73,-1.478 -2.73,-1.503 1.202,-2.054 2.755,1.653 -0.025,-3.056 h 2.354 l -0.05,3.056 2.755,-1.653 1.227,2.054 z"
   id="path243" />
&#10;				</g>
&#10;				<g
   id="g244">&#10;					<path
   style="fill:#ffffff"
   d="m 378.313,156.122 2.73,1.477 -1.227,2.054 -2.755,-1.628 0.05,3.03 h -2.354 l 0.025,-3.055 -2.755,1.653 -1.202,-2.054 2.73,-1.477 -2.73,-1.503 1.202,-2.053 2.755,1.653 -0.025,-3.055 h 2.354 l -0.05,3.055 2.755,-1.653 1.227,2.053 z"
   id="path244" />
&#10;				</g>
&#10;			</g>
&#10;		</g>
&#10;		<g
   id="g249">&#10;			&#10;				<circle
   transform="matrix(0.7071,-0.7071,0.7071,0.7071,24.8212,274.2837)"
   style="opacity:0.5;fill:#ffffff"
   cx="343.5"
   cy="107.18"
   id="ellipse246"
   r="26.735001" />
&#10;			<g
   id="g248">&#10;				<path
   style="fill:#407bff"
   d="m 353.954,105.681 h -20.909 c -1.582,0 -2.864,1.282 -2.864,2.864 v 12.736 c 0,1.582 1.283,2.864 2.864,2.864 h 20.909 c 1.582,0 2.865,-1.282 2.865,-2.864 v -12.736 c 0,-1.582 -1.282,-2.864 -2.865,-2.864 z m -8.531,14.168 h -3.846 l 0.806,-5.205 c -0.841,-0.415 -1.426,-1.272 -1.426,-2.274 0,-1.405 1.139,-2.543 2.543,-2.543 1.405,0 2.543,1.139 2.543,2.543 0,1.002 -0.584,1.859 -1.426,2.274 z"
   id="path246" />
&#10;				<g
   id="g247">&#10;					<path
   style="fill:#407bff"
   d="m 337.485,103.64 -0.393,-1.959 c -0.699,-3.481 1.564,-6.881 5.045,-7.581 3.481,-0.699 6.881,1.564 7.581,5.045 l 0.393,1.959 3.685,-0.74 -0.394,-1.959 c -1.107,-5.513 -6.493,-9.097 -12.006,-7.99 -5.513,1.107 -9.097,6.493 -7.99,12.006 l 0.393,1.959 z"
   id="path247" />
&#10;				</g>
&#10;			</g>
&#10;		</g>
&#10;		<path
   style="opacity:0.2;enable-background:new"
   d="m 358.398,177.343 h -29.796 c -0.728,0 -1.319,-0.59 -1.319,-1.319 v 0 c 0,-0.728 0.59,-1.319 1.319,-1.319 h 29.796 c 0.728,0 1.319,0.59 1.319,1.319 v 0 c 0,0.729 -0.591,1.319 -1.319,1.319 z"
   id="path249" />
&#10;	</g>
&#10;</g>
    <g
       id="Character"
       transform="matrix(2.551161,0,0,2.551161,1.4175488,-134.63192)">&#10;	<g
   id="_x3C_Group_x3E__83_">&#10;		<path
   style="fill:#ebb376"
   d="m 259.692,176.791 10.24,-8.703 c 0,0 8.716,-9.239 10.562,-9.438 1.846,-0.199 5.802,0.592 6.857,1.911 1.055,1.319 -6.824,9.9 -8.67,11.483 -1.846,1.582 -5.538,1.319 -5.538,1.319 l -9.758,9.431 z"
   id="path250" />
&#10;		<path
   style="fill:#263238"
   d="m 180.69,409.115 h -9.899 c -0.334,0.002 -0.622,0.234 -0.695,0.56 l -1.607,7.256 c -0.137,0.65 0.278,1.288 0.928,1.425 0.087,0.018 0.176,0.027 0.265,0.026 3.203,-0.052 5.535,-0.249 9.557,-0.249 2.477,0 9.951,0.259 13.372,0.259 3.421,0 3.866,-3.379 2.467,-3.69 -6.282,-1.368 -11.008,-3.265 -13.019,-5.069 -0.373,-0.342 -0.863,-0.528 -1.369,-0.518 z"
   id="path251" />
&#10;		<path
   style="fill:#263238"
   d="m 222.671,408.855 h -9.899 c -0.334,0.002 -0.622,0.234 -0.695,0.56 l -1.607,7.256 c -0.137,0.65 0.278,1.288 0.927,1.425 0.087,0.018 0.176,0.027 0.264,0.026 3.203,-0.052 5.535,-0.249 9.557,-0.249 2.477,0 9.951,0.259 13.372,0.259 3.421,0 3.866,-3.379 2.467,-3.69 -6.282,-1.368 -11.008,-3.265 -13.019,-5.069 -0.372,-0.341 -0.862,-0.527 -1.367,-0.518 z"
   id="path252" />
&#10;		<g
   id="g255">&#10;			<path
   style="fill:#263238"
   d="m 175.44,225.615 h 43.249 c 4.113,22.455 15.873,113.33 6.638,184.132 l -14.439,1.583 c 0,0 2.264,-108.803 -10.663,-143.551 -1.487,18.596 -3.252,38.383 -4.785,48.912 -3.763,25.914 -12.244,93.452 -12.244,93.452 l -14.637,0.396 c 0,0 3.207,-65.508 4.616,-90.976 1.54,-27.65 2.206,-88.269 2.265,-93.948 z"
   id="path253" />
&#10;			<path
   style="opacity:0.2;fill:#ffffff;enable-background:new"
   d="m 175.44,225.615 h 43.249 c 4.113,22.455 15.873,113.33 6.638,184.132 l -14.439,1.583 c 0,0 2.264,-108.803 -10.663,-143.551 -1.487,18.596 -3.252,38.383 -4.785,48.912 -3.763,25.914 -12.244,93.452 -12.244,93.452 l -14.637,0.396 c 0,0 3.207,-65.508 4.616,-90.976 1.54,-27.65 2.206,-88.269 2.265,-93.948 z"
   id="path254" />
&#10;			<path
   style="opacity:0.2;enable-background:new"
   d="m 200.229,267.783 c 1.907,5.121 3.493,11.516 4.831,18.71 1.209,-16.548 -3.628,-34.099 -3.628,-34.099 z"
   id="path255" />
&#10;		</g>
&#10;		<g
   id="g258">&#10;			<path
   style="fill:#407bff"
   d="m 214.741,150.786 c 6.829,0.83 20.279,31.885 25.422,34.654 5.143,2.769 25.517,-14.637 25.517,-14.637 l 5.143,6.33 c 0,0 -23.143,24.725 -32.242,21.956 -9.099,-2.769 -21.956,-26.11 -25.912,-33.429 -3.957,-7.319 2.072,-14.874 2.072,-14.874 z"
   id="path256" />
&#10;			<path
   style="opacity:0.5;fill:#ffffff;enable-background:new"
   d="m 270.82,177.135 c 0,0 -23.14,24.72 -32.24,21.95 -3.97,-1.21 -8.66,-6.34 -13.01,-12.34 -5.62,-7.75 -10.67,-16.96 -12.9,-21.08 -2.13,-3.93 -1.37,-7.94 -0.22,-10.8 1,-2.46 2.29,-4.08 2.29,-4.08 6.83,0.83 20.28,31.89 25.42,34.66 5.15,2.76 25.52,-14.64 25.52,-14.64 z"
   id="path257" />
&#10;			<path
   style="opacity:0.2;enable-background:new"
   d="m 225.57,186.744 c -5.62,-7.75 -10.67,-16.96 -12.9,-21.08 -2.13,-3.93 -1.37,-7.94 -0.22,-10.8 3.89,4.79 11.8,16.29 13.12,31.88 z"
   id="path258" />
&#10;		</g>
&#10;		<g
   id="g266">&#10;			<path
   style="fill:#407bff"
   d="m 214.743,150.786 c 0,0 -27.512,-1.296 -48.008,3.878 0,0 7.685,59.51 7.341,85.424 l 49.055,-2.637 c 0.001,0 -1.243,-59.921 -8.388,-86.665 z"
   id="path259" />
&#10;			<path
   style="opacity:0.6;fill:#ffffff;enable-background:new"
   d="m 174.08,240.09 c 0.16,-12.05 -1.42,-31.36 -3.15,-48.58 v -0.01 c -0.66,-6.57 -1.34,-12.84 -1.96,-18.28 -1.25,-10.95 -2.23,-18.56 -2.23,-18.56 20.49,-5.17 48,-3.87 48,-3.87 7.15,26.74 8.39,86.66 8.39,86.66 z"
   id="path260" />
&#10;			<path
   style="opacity:0.2;enable-background:new"
   d="m 170.93,191.5 c -0.66,-6.57 -1.34,-12.84 -1.96,-18.28 l 3.15,-2.42 c 0,0 2.74,10.84 -1.19,20.7 z"
   id="path261" />
&#10;			<g
   id="g265">&#10;				<path
   style="opacity:0.2;enable-background:new"
   d="m 214.38,215.02 -2.69,0.13 -7.3,0.34 -4.48,0.21 -9.33,0.44 c 0,0 -0.02,-0.46 -0.05,-1.3 v -0.01 c -0.08,-1.81 -0.24,-5.39 -0.51,-9.9 v -0.01 c -0.19,-3.36 -0.45,-7.24 -0.77,-11.3 -0.23,-2.8 -0.48,-5.68 -0.77,-8.53 -0.43,-4.23 -0.93,-8.41 -1.52,-12.17 -0.31,-2.02 -0.65,-3.91 -1.01,-5.63 l 23.21,-1.51 c 0,0 0.3,1.47 0.75,4.04 0.3,1.66 0.66,3.78 1.05,6.26 1.51,9.65 3.42,24.7 3.42,38.94 z"
   id="path262" />
&#10;				<path
   style="opacity:0.2;enable-background:new"
   d="m 204.39,215.49 -4.48,0.21 c 3.19,-8.11 4.44,-19.54 2.3,-23.1 -2.9,-4.82 -6.46,4.42 -8.98,15.5 -0.69,3.02 -1.65,5.18 -2.7,6.73 -0.08,-1.81 -0.24,-5.39 -0.51,-9.9 v -0.01 c 1.1,-1.72 2.22,-4.16 3.21,-7.63 3.57,-12.53 6.74,-14.77 10.82,-11.48 3.74,3.02 4.84,17.62 0.34,29.68 z"
   id="path263" />
&#10;				<path
   style="opacity:0.2;enable-background:new"
   d="m 211.69,215.15 c 0.91,-10.63 -0.49,-28.54 -3.61,-34.05 -3.57,-6.32 -11.45,-6.46 -15.24,4.97 -1.13,3.39 -2.38,5.81 -3.59,7.55 -0.23,-2.8 -0.48,-5.68 -0.77,-8.53 0.88,-1.08 1.84,-2.47 2.85,-4.25 4.32,-7.65 11.05,-11.21 17.6,-6.76 0.73,0.5 1.41,1.17 2.03,2 1.51,9.65 3.42,24.7 3.42,38.94 z"
   id="path264" />
&#10;				<path
   style="opacity:0.2;enable-background:new"
   d="m 209.91,169.82 c -5.19,-3.92 -12.2,-2.86 -16.68,0.85 -2.32,1.92 -4.52,2.37 -6.27,2.25 -0.31,-2.02 -0.65,-3.91 -1.01,-5.63 l 23.21,-1.51 c 0,0 0.3,1.47 0.75,4.04 z"
   id="path265" />
&#10;			</g>
&#10;		</g>
&#10;		<path
   style="fill:#ebb376"
   d="m 182.799,152.598 c 3.95,3.589 13.629,2.262 13.629,2.262 0,0 6.041,-1.654 4.772,-3.541 -3.558,-0.588 -5.281,-2.249 -5.993,-4.373 -0.413,-1.238 -0.475,-2.63 -0.361,-4.064 0.052,-0.753 0.165,-1.516 0.299,-2.269 l -11.964,-8.86 c 1.568,5.848 3.486,16.606 -0.382,20.845 z"
   id="path266" />
&#10;		<path
   style="opacity:0.2;enable-background:new"
   d="m 185.945,137.384 c 0.474,7.179 6.374,9.159 9.262,9.561 -0.413,-1.238 -0.475,-2.63 -0.361,-4.064 z"
   id="path267" />
&#10;		<g
   id="g280">&#10;			<path
   style="fill:#263238"
   d="m 203.432,113.149 c 0,0 3.338,10.798 -1.889,15.928 -5.227,5.13 -8.314,-15.44 -8.314,-15.44 z"
   id="path268" />
&#10;			<path
   style="fill:#ebb376"
   d="m 185.833,140.414 c 3.459,3.663 8.261,4.038 12.099,2.158 2.468,-1.205 4.535,-3.351 5.596,-6.148 0.144,-0.366 0.263,-0.749 0.371,-1.14 1.873,-7.186 1.019,-19.135 -6.785,-22.491 -5.548,-2.432 -12.032,0.095 -14.462,5.654 -0.702,1.576 -1.007,3.301 -0.914,5.029 0.307,8.026 0.11,12.76 4.095,16.938 z"
   id="path269" />
&#10;			<path
   style="fill:#263238"
   d="m 193.88,125.967 c -0.058,0.647 0.317,1.188 0.751,1.196 0.434,0.008 0.782,-0.52 0.799,-1.171 0.017,-0.651 -0.328,-1.189 -0.752,-1.197 -0.423,-0.006 -0.78,0.511 -0.798,1.172 z"
   id="path270" />
&#10;			<path
   style="fill:#263238"
   d="m 201.271,126.116 c -0.058,0.647 0.328,1.189 0.752,1.197 0.424,0.007 0.782,-0.52 0.799,-1.171 0.017,-0.651 -0.328,-1.189 -0.752,-1.197 -0.424,-0.007 -0.785,0.551 -0.799,1.171 z"
   id="path271" />
&#10;			<path
   style="fill:#d58745"
   d="m 198.916,126.39 c 0.738,2.015 1.751,3.919 3.011,5.657 -0.922,0.632 -2.077,0.823 -3.154,0.523 z"
   id="path272" />
&#10;			<path
   style="fill:#263238"
   d="m 191.635,123.527 c 0.142,0.023 0.285,-0.031 0.375,-0.142 0.586,-0.781 1.507,-1.239 2.483,-1.236 0.21,0.02 0.396,-0.135 0.415,-0.345 0.019,-0.21 -0.135,-0.396 -0.345,-0.415 -10e-4,0 -10e-4,0 -0.002,0 -1.234,-0.035 -2.409,0.531 -3.151,1.518 -0.135,0.162 -0.114,0.402 0.047,0.538 0.002,0.002 0.005,0.004 0.007,0.006 0.054,0.033 0.111,0.059 0.171,0.076 z"
   id="path273" />
&#10;			<path
   style="fill:#263238"
   d="m 204.498,123.632 c 0.071,0.03 0.15,0.037 0.226,0.021 0.193,-0.085 0.28,-0.311 0.195,-0.503 -0.001,-0.003 -0.002,-0.005 -0.003,-0.008 -0.493,-1.137 -1.508,-1.962 -2.721,-2.213 -0.209,-0.031 -0.402,0.114 -0.433,0.322 v 10e-4 c -0.025,0.208 0.117,0.398 0.323,0.433 v 0 c 0.952,0.226 1.741,0.889 2.128,1.787 0.067,0.092 0.171,0.151 0.285,0.16 z"
   id="path274" />
&#10;			<path
   style="fill:#263238"
   d="m 187.831,113.578 0.529,3.527 c -1.144,0.65 -1.808,1.979 -1.234,3.358 1.224,2.945 -0.338,7.608 -2.571,9.512 0,0 -0.106,-1.288 -1.186,-0.952 -1.08,0.336 -0.595,7.043 1.615,10.187 0,0 -3.838,-3.441 -5.844,-10.44 -1.856,-6.474 -1.665,-11.27 -0.395,-13.829 z"
   id="path275" />
&#10;			<g
   id="g278">&#10;				<path
   style="fill:#263238"
   d="m 199.367,134.534 c -0.413,0.997 -0.787,2.851 -0.787,2.851 -0.174,-0.004 -0.348,-0.007 -0.522,-0.02 -2.359,-0.109 -3.417,-0.938 -3.875,-1.825 -0.249,-0.486 -0.312,-0.995 -0.31,-1.408 -0.002,-0.477 0.106,-0.818 0.106,-0.818 1.216,0.805 3.408,1.075 4.584,1.171 0.493,0.044 0.804,0.049 0.804,0.049 z"
   id="path276" />
&#10;				<path
   style="fill:#ffffff"
   d="m 198.563,134.484 -0.254,0.835 c -2.222,-0.108 -3.771,-0.482 -4.436,-1.187 -0.002,-0.477 0.106,-0.818 0.106,-0.818 1.216,0.804 3.408,1.075 4.584,1.17 z"
   id="path277" />
&#10;				<path
   style="fill:#de5753"
   d="m 198.059,137.364 c -2.359,-0.109 -3.417,-0.938 -3.875,-1.825 0.802,0.068 1.762,0.239 2.595,0.64 0.638,0.304 1.028,0.745 1.28,1.185 z"
   id="path278" />
&#10;			</g>
&#10;			<path
   style="fill:#263238"
   d="m 193.116,115.769 c 0,0 0.625,-1.088 2.315,-0.593 1.69,0.495 3.183,2.195 4.918,4.352 1.736,2.157 5.178,2.176 5.969,0.89 0.791,-1.286 -0.791,-3.066 -0.791,-3.066 0,0 1.48,-8.209 -7.469,-10.088 -8.949,-1.879 -13.655,2.077 -13.655,2.077 0,0 -7.436,0.245 -7.953,7.121 -0.336,4.462 0.495,8.335 0.495,8.335 0,0 -1.978,2.516 1.769,2.367 4.266,-0.17 9.391,-2.493 9.646,-6.647 0.255,-4.154 4.756,-4.748 4.756,-4.748 z"
   id="path279" />
&#10;			<path
   style="fill:#ebb376"
   d="m 178.097,129.988 c 0.854,1.835 2.401,3.256 4.301,3.952 2.523,0.904 3.975,-1.309 3.44,-3.793 -0.496,-2.203 -2.392,-5.401 -5.007,-5.208 -2.616,0.193 -3.754,2.784 -2.734,5.049 z"
   id="path280" />
&#10;		</g>
&#10;		<g
   id="g282">&#10;			<path
   style="fill:#407bff"
   d="m 166.736,154.664 c -7.164,2.083 -17.186,50.875 -15.867,57.204 1.319,6.33 26.503,32.967 26.503,32.967 l 7.033,-5.303 c 0,0 -21.404,-30.302 -21.667,-36.632 -0.264,-6.33 9.495,-29.802 9.495,-29.802 0,0 -0.264,-7.912 -1.319,-11.868 -1.057,-3.955 -4.178,-6.566 -4.178,-6.566 z"
   id="path281" />
&#10;			<path
   style="opacity:0.5;fill:#ffffff;enable-background:new"
   d="m 166.736,154.664 c -7.164,2.083 -17.186,50.875 -15.867,57.204 1.319,6.33 26.503,32.967 26.503,32.967 l 7.033,-5.303 c 0,0 -21.404,-30.302 -21.667,-36.632 -0.264,-6.33 9.495,-29.802 9.495,-29.802 0,0 -0.264,-7.912 -1.319,-11.868 -1.057,-3.955 -4.178,-6.566 -4.178,-6.566 z"
   id="path282" />
&#10;		</g>
&#10;	</g>
&#10;</g>
  </g>
</svg>
