<?xml version="1.0" encoding="UTF-8" standalone="no"?>
<!-- Created with Inkscape (http://www.inkscape.org/) -->

<svg
   version="1.1"
   id="svg2"
   width="413"
   height="531"
   viewBox="0 0 413 531"
   sodipodi:docname="FotoAlumno.svg"
   inkscape:version="1.2.2 (b0a8486541, 2022-12-01)"
   xmlns:inkscape="http://www.inkscape.org/namespaces/inkscape"
   xmlns:sodipodi="http://sodipodi.sourceforge.net/DTD/sodipodi-0.dtd"
   xmlns="http://www.w3.org/2000/svg"
   xmlns:svg="http://www.w3.org/2000/svg">
  <defs
     id="defs6" />
  <sodipodi:namedview
     id="namedview4"
     pagecolor="#505050"
     bordercolor="#ffffff"
     borderopacity="1"
     inkscape:showpageshadow="0"
     inkscape:pageopacity="0"
     inkscape:pagecheckerboard="1"
     inkscape:deskcolor="#505050"
     showgrid="false"
     inkscape:zoom="1.3857017"
     inkscape:cx="185.4656"
     inkscape:cy="260.157"
     inkscape:window-width="1722"
     inkscape:window-height="991"
     inkscape:window-x="26"
     inkscape:window-y="23"
     inkscape:window-maximized="0"
     inkscape:current-layer="svg2" />
  <g
     inkscape:groupmode="layer"
     inkscape:label="Image"
     id="g8">
    <path
       style="fill:#000000;stroke:#000000;stroke-width:0.973343;stroke-opacity:0"
       d="M 3.4069071,265.59907 V 3.1382531 H 207.38266 411.35843 V 265.59907 528.0599 H 207.38266 3.4069071 Z m 401.9522129,0 V 9.7708366 H 207.38266 9.4061941 V 265.59907 521.42728 H 207.38266 405.35912 Z"
       id="path449" />
    <path
       style="fill:#ffffff;stroke:#000000;stroke-width:0.687891;stroke-opacity:0"
       d="M 9.4331734,265.69388 V 10.08827 H 206.83326 404.23333 V 265.69388 521.29953 H 206.83326 9.4331734 Z"
       id="path489" />
  </g>
  <path
     style="fill:#000000;stroke-width:0.421323"
     d="m 116.16507,361.10847 c -1.54948,-0.68849 -2.95497,-2.17254 -3.55314,-3.75123 -0.31369,-0.8269 -0.44762,-28.14669 -0.44222,-90.16302 l 0.007,-88.97696 0.94278,-1.68529 c 0.62109,-1.11039 1.58346,-2.00868 2.82095,-2.63327 l 1.87817,-0.94799 h 27.89169 27.8916 l 0.29211,-1.79062 c 0.1609,-0.98485 0.82333,-3.17267 1.47309,-4.86201 3.46568,-9.01301 11.59021,-16.25851 20.90155,-18.64003 16.17053,-4.13565 33.20319,6.43987 36.83389,22.87008 l 0.5357,2.42258 h 27.86158 27.86167 l 1.87818,0.94799 c 1.23623,0.62379 2.20095,1.52396 2.82257,2.63327 l 0.94439,1.68529 -0.0998,89.56389 -0.0998,89.56386 -1.21414,1.59182 c -2.28031,2.98958 4.97534,2.76811 -90.094,2.74995 -70.78471,-0.0179 -86.29306,-0.11593 -87.33265,-0.57795 z m 130.08337,-6.56751 41.60563,-1.7e-4 v -10.32243 -10.32242 h -84.26451 -84.26452 v 10.60259 10.60258 l 42.65889,-0.27953 c 23.46239,-0.15369 61.38141,-0.28044 84.26451,-0.28044 z m -7.47846,-7.25024 c -2.16041,-1.23893 -2.57018,-3.91104 -0.86199,-5.61945 l 1.0342,-1.03417 h 13.52061 13.52061 l 1.03411,1.03417 c 1.52269,1.52262 1.41312,3.62792 -0.26247,5.03755 l -1.29636,1.0908 -12.92335,-0.008 c -8.92728,-0.008 -13.18383,-0.16268 -13.76599,-0.49615 z M 147.82956,322.9802 c 2.31599,-9.69505 8.73051,-19.2294 17.33466,-25.7658 5.64281,-4.28665 14.68514,-7.9579 18.21157,-7.39398 0.86017,0.13753 3.68795,1.19625 6.28303,2.35257 6.8279,3.04226 9.76938,3.88247 13.72006,3.91879 4.13054,0.036 6.56337,-0.64087 14.28236,-3.98781 6.66053,-2.88764 7.33348,-2.93483 13.02212,-0.9131 13.8112,4.90819 25.75789,18.29875 28.79699,32.27739 l 0.71007,3.26524 h 13.83187 13.83197 v -73.31013 -73.31012 h -26.96464 -26.96465 v 13.03748 13.03751 l -1.01684,1.18212 -1.01684,1.18212 H 203.58974 175.2881 l -1.01675,-1.18212 -1.01684,-1.18212 v -13.03751 -13.03748 h -26.96463 -26.96465 v 73.31012 73.31013 h 13.80392 13.80401 z m 49.51455,-31.64985 c -10.23012,-2.67983 -18.68641,-11.18835 -22.62317,-22.76291 -0.79815,-2.34593 -1.41672,-3.39019 -2.57484,-4.34473 -2.1278,-1.75396 -2.68371,-3.37148 -2.68371,-7.80914 0,-4.26239 0.37661,-5.60074 2.08563,-7.41411 1.14662,-1.21646 1.19929,-1.46176 1.40225,-6.53047 0.16808,-4.19067 0.43324,-5.90985 1.30077,-8.4154 2.18961,-6.32572 6.95608,-11.68208 13.11758,-14.74086 4.98307,-2.47382 7.61653,-2.95335 16.22094,-2.95335 8.602,0 11.22323,0.47728 16.24898,2.95722 6.11603,3.01816 10.89579,8.39949 13.08946,14.73699 0.86736,2.50555 1.13306,4.22473 1.30085,8.4154 0.20135,5.0317 0.26247,5.3229 1.37745,6.53047 1.86002,2.01526 2.11034,2.86318 2.11034,7.14833 0,4.72161 -0.52221,6.29336 -2.68369,8.07492 -1.15805,0.95454 -1.77698,1.9988 -2.57487,4.34473 -5.70696,16.77928 -20.74408,26.52717 -35.11397,22.76291 z m 11.0759,-6.95363 c 3.70098,-0.96409 6.41155,-2.60317 9.731,-5.88468 3.85405,-3.81001 5.8782,-7.23308 7.97236,-13.48232 1.54193,-4.60125 1.81653,-5.11268 3.05339,-5.68783 1.29402,-0.60131 1.35965,-0.74602 1.36829,-3.0089 0.008,-2.18422 -0.0718,-2.39832 -1.03887,-2.64002 -0.57614,-0.1447 -1.33475,-0.73434 -1.68529,-1.30958 -0.35053,-0.57525 -0.92632,-1.52108 -1.27957,-2.10081 l -0.64264,-1.05423 -2.41236,1.21647 c -8.00597,4.03723 -15.38943,4.11749 -21.7931,0.23639 -6.01669,-3.64608 -10.28332,-5.24337 -14.00569,-5.24337 -3.53454,0 -5.92369,1.78739 -7.67207,5.73978 -0.59862,1.35291 -1.21647,2.05057 -2.11799,2.39086 -1.20685,0.45571 -1.27255,0.60131 -1.26384,2.81071 0.008,2.21092 0.081,2.36265 1.36928,2.96225 1.23955,0.57614 1.50966,1.08038 3.04547,5.68927 2.07214,6.21813 4.097,9.63877 8.00112,13.51639 5.61558,5.57755 12.46837,7.64681 19.37015,5.84917 z m 9.6937,-39.14962 c 1.42769,-0.53749 3.38128,-1.37779 4.34139,-1.86756 0.96012,-0.48987 2.41685,-0.89075 3.23711,-0.89075 1.76573,0 1.86254,-0.50423 0.8458,-4.40916 -1.79712,-6.89916 -7.64332,-12.56454 -14.52209,-14.07266 -5.48101,-1.20164 -14.27266,-0.92256 -18.74204,0.59501 -6.12565,2.07988 -11.68602,8.11377 -12.6688,13.74748 l -0.27054,1.54858 2.67425,-0.85029 c 5.40974,-1.71971 12.33813,-0.25346 20.17639,4.27048 2.13461,1.23193 4.66291,2.49442 5.61853,2.8054 2.25883,0.73524 5.95091,0.3874 9.30981,-0.87725 z m 34.77055,80.73332 c 0,-1.14717 -1.6159,-5.85861 -2.83857,-8.27625 -4.7705,-9.43305 -14.11967,-17.64801 -23.03365,-20.2394 l -2.44487,-0.71096 -4.06369,1.90872 c -13.31487,6.25428 -19.90952,6.26947 -33.74039,0.0808 l -3.97612,-1.77993 -2.34368,0.6094 c -10.59809,2.75732 -21.52129,13.54174 -25.26416,24.94312 -0.48626,1.48151 -0.88444,3.0416 -0.88444,3.46684 0,0.74511 1.75989,0.77297 49.2947,0.77297 47.53489,0 49.29478,-0.0269 49.29478,-0.77297 z m -26.122,-137.77468 c 0,-14.79281 -0.33795,-17.4356 -2.82752,-22.11289 -1.67171,-3.14075 -6.5329,-7.89957 -9.70394,-9.49965 -8.88997,-4.48575 -18.9698,-3.12709 -26.15535,3.52554 -2.97968,2.75866 -4.84859,5.53108 -6.34056,9.40616 -1.07642,2.79597 -1.08433,2.90706 -1.22994,17.45484 l -0.14651,14.64091 h 23.202 23.2019 z m -25.91131,1.25053 c -3.72257,-0.97298 -7.00362,-3.66584 -8.67166,-7.11706 -1.35515,-2.80396 -1.35515,-7.50659 0,-10.31047 1.23031,-2.54555 3.70944,-5.02467 6.25499,-6.25498 2.80396,-1.35525 7.5066,-1.35525 10.31047,0 2.54555,1.23031 5.02469,3.70943 6.25498,6.25498 1.35525,2.80397 1.35517,7.50651 -8e-5,10.31066 -1.2651,2.61763 -3.60139,4.9811 -6.07173,6.14228 -2.17721,1.02339 -6.08591,1.495 -8.07697,0.97459 z m 4.99213,-7.44108 c 4.00506,-1.94846 4.14321,-7.41375 0.24179,-9.56319 -5.1525,-2.83883 -10.44511,3.94331 -6.40841,8.21208 1.95771,2.07027 3.84057,2.48282 6.16662,1.35111 z"
     id="path421" />
</svg>
